solid OpenSCAD_Model
  facet normal -1 0 0
    outer loop
      vertex -2 12 0
      vertex -2 14 3
      vertex -2 14 0
    endloop
  endfacet
  facet normal -1 -0 0
    outer loop
      vertex -2 14 3
      vertex -2 12 0
      vertex -2 12 3
    endloop
  endfacet
  facet normal 0 0 1
    outer loop
      vertex -14 3.10862e-15 3
      vertex -12 2 3
      vertex -14 2 3
    endloop
  endfacet
  facet normal 0 0 1
    outer loop
      vertex -12 2 3
      vertex -14 3.10862e-15 3
      vertex -12 -2 3
    endloop
  endfacet
  facet normal 0 0 1
    outer loop
      vertex -12 -2 3
      vertex -14 3.10862e-15 3
      vertex -14 -2 3
    endloop
  endfacet
  facet normal 0 0 1
    outer loop
      vertex -2 -12 3
      vertex -2.66454e-15 -12 3
      vertex -2.22045e-15 -10 3
    endloop
  endfacet
  facet normal 0 0 1
    outer loop
      vertex -2.66454e-15 -12 3
      vertex -4.82313e-15 -14 3
      vertex -3.10862e-15 -14 3
    endloop
  endfacet
  facet normal 0 0 1
    outer loop
      vertex -2 -12 3
      vertex -2.22045e-15 -10 3
      vertex -2 -10 3
    endloop
  endfacet
  facet normal 0 0 1
    outer loop
      vertex -2.66454e-15 -12 3
      vertex -2 -12 3
      vertex -4.82313e-15 -14 3
    endloop
  endfacet
  facet normal 0 0 1
    outer loop
      vertex -4.82313e-15 -14 3
      vertex -2 -12 3
      vertex -2 -14 3
    endloop
  endfacet
  facet normal 0 0 1
    outer loop
      vertex 10 2 3
      vertex 12 2 3
      vertex 12 4 3
    endloop
  endfacet
  facet normal 0 0 1
    outer loop
      vertex 12 2 3
      vertex 10 -1.22465e-15 3
      vertex 12 -2 3
    endloop
  endfacet
  facet normal 0 0 1
    outer loop
      vertex 10 2 3
      vertex 12 4 3
      vertex 10 4 3
    endloop
  endfacet
  facet normal 0 0 1
    outer loop
      vertex 12 2 3
      vertex 10 2 3
      vertex 10 -1.22465e-15 3
    endloop
  endfacet
  facet normal 0 0 1
    outer loop
      vertex 10 -2 3
      vertex 12 -2 3
      vertex 10 -1.22465e-15 3
    endloop
  endfacet
  facet normal 0 0 1
    outer loop
      vertex 12 -2 3
      vertex 10 -2 3
      vertex 12 -4 3
    endloop
  endfacet
  facet normal 0 0 1
    outer loop
      vertex 10 -2 3
      vertex 10 -4 3
      vertex 12 -4 3
    endloop
  endfacet
  facet normal 0 0 1
    outer loop
      vertex 8 -4 3
      vertex 10 -4 3
      vertex 10 -2 3
    endloop
  endfacet
  facet normal 0 0 1
    outer loop
      vertex 8 -4 3
      vertex 10 -2 3
      vertex 8 -2 3
    endloop
  endfacet
  facet normal 0 0 1
    outer loop
      vertex 10 -4 3
      vertex 8 -4 3
      vertex 10 -6 3
    endloop
  endfacet
  facet normal 0 0 1
    outer loop
      vertex 8 -4 3
      vertex 8 -6 3
      vertex 10 -6 3
    endloop
  endfacet
  facet normal 0 0 1
    outer loop
      vertex 6 -6 3
      vertex 8 -6 3
      vertex 8 -4 3
    endloop
  endfacet
  facet normal 0 0 1
    outer loop
      vertex 6 -6 3
      vertex 8 -4 3
      vertex 6 -4 3
    endloop
  endfacet
  facet normal 0 0 1
    outer loop
      vertex 8 -6 3
      vertex 6 -6 3
      vertex 8 -8 3
    endloop
  endfacet
  facet normal 0 0 1
    outer loop
      vertex 6 -6 3
      vertex 6 -8 3
      vertex 8 -8 3
    endloop
  endfacet
  facet normal 0 0 1
    outer loop
      vertex 4 -8 3
      vertex 6 -8 3
      vertex 6 -6 3
    endloop
  endfacet
  facet normal 0 0 1
    outer loop
      vertex 4 -8 3
      vertex 6 -6 3
      vertex 4 -6 3
    endloop
  endfacet
  facet normal 0 0 1
    outer loop
      vertex 6 -8 3
      vertex 4 -8 3
      vertex 6 -10 3
    endloop
  endfacet
  facet normal 0 0 1
    outer loop
      vertex 4 -8 3
      vertex 4 -10 3
      vertex 6 -10 3
    endloop
  endfacet
  facet normal 0 0 1
    outer loop
      vertex 2 -10 3
      vertex 4 -10 3
      vertex 4 -8 3
    endloop
  endfacet
  facet normal 0 0 1
    outer loop
      vertex 2 -10 3
      vertex 4 -8 3
      vertex 2 -8 3
    endloop
  endfacet
  facet normal 0 0 1
    outer loop
      vertex 4 -10 3
      vertex 2 -10 3
      vertex 4 -12 3
    endloop
  endfacet
  facet normal 0 0 1
    outer loop
      vertex 2 -10 3
      vertex 2 -12 3
      vertex 4 -12 3
    endloop
  endfacet
  facet normal 0 0 1
    outer loop
      vertex -1.46958e-15 -12 3
      vertex 2 -12 3
      vertex 2 -10 3
    endloop
  endfacet
  facet normal 0 0 1
    outer loop
      vertex -1.46958e-15 -12 3
      vertex 2 -10 3
      vertex -1.22465e-15 -10 3
    endloop
  endfacet
  facet normal 0 0 1
    outer loop
      vertex 2 -12 3
      vertex -1.46958e-15 -12 3
      vertex 2 -14 3
    endloop
  endfacet
  facet normal 0 0 1
    outer loop
      vertex -3.10862e-15 -14 3
      vertex -1.46958e-15 -12 3
      vertex -2.66454e-15 -12 3
    endloop
  endfacet
  facet normal 0 0 1
    outer loop
      vertex -1.46958e-15 -12 3
      vertex -3.10862e-15 -14 3
      vertex 2 -14 3
    endloop
  endfacet
  facet normal -0 0 1
    outer loop
      vertex 12 2 3
      vertex 14 -4.82313e-15 3
      vertex 14 2 3
    endloop
  endfacet
  facet normal 0 0 1
    outer loop
      vertex 12 -2 3
      vertex 14 -4.82313e-15 3
      vertex 12 2 3
    endloop
  endfacet
  facet normal 0 0 1
    outer loop
      vertex 14 -4.82313e-15 3
      vertex 12 -2 3
      vertex 14 -2 3
    endloop
  endfacet
  facet normal 0 0 1
    outer loop
      vertex 8 4 3
      vertex 10 4 3
      vertex 10 6 3
    endloop
  endfacet
  facet normal 0 0 1
    outer loop
      vertex 8 4 3
      vertex 10 6 3
      vertex 8 6 3
    endloop
  endfacet
  facet normal 0 0 1
    outer loop
      vertex 10 4 3
      vertex 8 4 3
      vertex 10 2 3
    endloop
  endfacet
  facet normal 0 0 1
    outer loop
      vertex 10 2 3
      vertex 8 4 3
      vertex 8 2 3
    endloop
  endfacet
  facet normal 0 0 1
    outer loop
      vertex 6 6 3
      vertex 8 6 3
      vertex 8 8 3
    endloop
  endfacet
  facet normal 0 0 1
    outer loop
      vertex 6 6 3
      vertex 8 8 3
      vertex 6 8 3
    endloop
  endfacet
  facet normal 0 0 1
    outer loop
      vertex 8 6 3
      vertex 6 6 3
      vertex 8 4 3
    endloop
  endfacet
  facet normal 0 0 1
    outer loop
      vertex 8 4 3
      vertex 6 6 3
      vertex 6 4 3
    endloop
  endfacet
  facet normal 0 0 1
    outer loop
      vertex 4 8 3
      vertex 6 8 3
      vertex 6 10 3
    endloop
  endfacet
  facet normal 0 0 1
    outer loop
      vertex 4 8 3
      vertex 6 10 3
      vertex 4 10 3
    endloop
  endfacet
  facet normal 0 0 1
    outer loop
      vertex 6 8 3
      vertex 4 8 3
      vertex 6 6 3
    endloop
  endfacet
  facet normal 0 0 1
    outer loop
      vertex 6 6 3
      vertex 4 8 3
      vertex 4 6 3
    endloop
  endfacet
  facet normal 0 0 1
    outer loop
      vertex 2 10 3
      vertex 4 10 3
      vertex 4 12 3
    endloop
  endfacet
  facet normal 0 0 1
    outer loop
      vertex 2 10 3
      vertex 4 12 3
      vertex 2 12 3
    endloop
  endfacet
  facet normal 0 0 1
    outer loop
      vertex 4 10 3
      vertex 2 10 3
      vertex 4 8 3
    endloop
  endfacet
  facet normal 0 0 1
    outer loop
      vertex 4 8 3
      vertex 2 10 3
      vertex 2 8 3
    endloop
  endfacet
  facet normal 0 0 1
    outer loop
      vertex 2.66454e-15 12 3
      vertex 2 12 3
      vertex 2 14 3
    endloop
  endfacet
  facet normal 0 0 1
    outer loop
      vertex 2 12 3
      vertex 2.66454e-15 12 3
      vertex 2 10 3
    endloop
  endfacet
  facet normal 0 0 1
    outer loop
      vertex 2 14 3
      vertex 0 12 3
      vertex 2.66454e-15 12 3
    endloop
  endfacet
  facet normal -0 0 1
    outer loop
      vertex -2 14 3
      vertex 0 12 3
      vertex 2 14 3
    endloop
  endfacet
  facet normal 0 0 1
    outer loop
      vertex -2 12 3
      vertex 0 12 3
      vertex -2 14 3
    endloop
  endfacet
  facet normal 0 0 1
    outer loop
      vertex 0 12 3
      vertex -2 12 3
      vertex 0 10 3
    endloop
  endfacet
  facet normal 0 0 1
    outer loop
      vertex -2 12 3
      vertex -2 10 3
      vertex 0 10 3
    endloop
  endfacet
  facet normal 0 0 1
    outer loop
      vertex -4 10 3
      vertex -2 10 3
      vertex -2 12 3
    endloop
  endfacet
  facet normal 0 0 1
    outer loop
      vertex -4 10 3
      vertex -2 12 3
      vertex -4 12 3
    endloop
  endfacet
  facet normal 0 0 1
    outer loop
      vertex -2 10 3
      vertex -4 10 3
      vertex -2 8 3
    endloop
  endfacet
  facet normal 0 0 1
    outer loop
      vertex -4 10 3
      vertex -4 8 3
      vertex -2 8 3
    endloop
  endfacet
  facet normal 0 0 1
    outer loop
      vertex -6 8 3
      vertex -4 8 3
      vertex -4 10 3
    endloop
  endfacet
  facet normal 0 0 1
    outer loop
      vertex -6 8 3
      vertex -4 10 3
      vertex -6 10 3
    endloop
  endfacet
  facet normal 0 0 1
    outer loop
      vertex -4 8 3
      vertex -6 8 3
      vertex -4 6 3
    endloop
  endfacet
  facet normal 0 0 1
    outer loop
      vertex -6 8 3
      vertex -6 6 3
      vertex -4 6 3
    endloop
  endfacet
  facet normal 0 0 1
    outer loop
      vertex -8 6 3
      vertex -6 6 3
      vertex -6 8 3
    endloop
  endfacet
  facet normal 0 0 1
    outer loop
      vertex -8 6 3
      vertex -6 8 3
      vertex -8 8 3
    endloop
  endfacet
  facet normal 0 0 1
    outer loop
      vertex -6 6 3
      vertex -8 6 3
      vertex -6 4 3
    endloop
  endfacet
  facet normal 0 0 1
    outer loop
      vertex -8 6 3
      vertex -8 4 3
      vertex -6 4 3
    endloop
  endfacet
  facet normal 0 0 1
    outer loop
      vertex -10 4 3
      vertex -8 4 3
      vertex -8 6 3
    endloop
  endfacet
  facet normal 0 0 1
    outer loop
      vertex -10 4 3
      vertex -8 6 3
      vertex -10 6 3
    endloop
  endfacet
  facet normal 0 0 1
    outer loop
      vertex -8 4 3
      vertex -10 4 3
      vertex -8 2 3
    endloop
  endfacet
  facet normal 0 0 1
    outer loop
      vertex -10 4 3
      vertex -10 2 3
      vertex -8 2 3
    endloop
  endfacet
  facet normal 0 0 1
    outer loop
      vertex -12 2 3
      vertex -10 2 3
      vertex -10 4 3
    endloop
  endfacet
  facet normal 0 0 1
    outer loop
      vertex -10 2 3
      vertex -12 2 3
      vertex -10 0 3
    endloop
  endfacet
  facet normal 0 0 1
    outer loop
      vertex -12 -2 3
      vertex -10 0 3
      vertex -12 2 3
    endloop
  endfacet
  facet normal 0 0 1
    outer loop
      vertex -12 2 3
      vertex -10 4 3
      vertex -12 4 3
    endloop
  endfacet
  facet normal 0 0 1
    outer loop
      vertex -10 0 3
      vertex -12 -2 3
      vertex -10 -2 3
    endloop
  endfacet
  facet normal 0 0 1
    outer loop
      vertex -10 -2 3
      vertex -12 -2 3
      vertex -10 -4 3
    endloop
  endfacet
  facet normal 0 0 1
    outer loop
      vertex -10 -4 3
      vertex -12 -2 3
      vertex -12 -4 3
    endloop
  endfacet
  facet normal 0 0 1
    outer loop
      vertex 2 10 3
      vertex 2.66454e-15 12 3
      vertex 2.22045e-15 10 3
    endloop
  endfacet
  facet normal 0 0 1
    outer loop
      vertex -4 -10 3
      vertex -2 -10 3
      vertex -2 -8 3
    endloop
  endfacet
  facet normal 0 0 1
    outer loop
      vertex -4 -10 3
      vertex -2 -8 3
      vertex -4 -8 3
    endloop
  endfacet
  facet normal 0 0 1
    outer loop
      vertex -2 -10 3
      vertex -4 -10 3
      vertex -2 -12 3
    endloop
  endfacet
  facet normal 0 0 1
    outer loop
      vertex -2 -12 3
      vertex -4 -10 3
      vertex -4 -12 3
    endloop
  endfacet
  facet normal 0 0 1
    outer loop
      vertex -6 -8 3
      vertex -4 -8 3
      vertex -4 -6 3
    endloop
  endfacet
  facet normal 0 0 1
    outer loop
      vertex -6 -8 3
      vertex -4 -6 3
      vertex -6 -6 3
    endloop
  endfacet
  facet normal 0 0 1
    outer loop
      vertex -4 -8 3
      vertex -6 -8 3
      vertex -4 -10 3
    endloop
  endfacet
  facet normal 0 0 1
    outer loop
      vertex -4 -10 3
      vertex -6 -8 3
      vertex -6 -10 3
    endloop
  endfacet
  facet normal 0 0 1
    outer loop
      vertex -8 -6 3
      vertex -6 -6 3
      vertex -6 -4 3
    endloop
  endfacet
  facet normal 0 0 1
    outer loop
      vertex -8 -6 3
      vertex -6 -4 3
      vertex -8 -4 3
    endloop
  endfacet
  facet normal 0 0 1
    outer loop
      vertex -6 -6 3
      vertex -8 -6 3
      vertex -6 -8 3
    endloop
  endfacet
  facet normal 0 0 1
    outer loop
      vertex -6 -8 3
      vertex -8 -6 3
      vertex -8 -8 3
    endloop
  endfacet
  facet normal 0 0 1
    outer loop
      vertex -10 -4 3
      vertex -8 -4 3
      vertex -8 -2 3
    endloop
  endfacet
  facet normal 0 0 1
    outer loop
      vertex -10 -4 3
      vertex -8 -2 3
      vertex -10 -2 3
    endloop
  endfacet
  facet normal 0 0 1
    outer loop
      vertex -8 -4 3
      vertex -10 -4 3
      vertex -8 -6 3
    endloop
  endfacet
  facet normal 0 0 1
    outer loop
      vertex -8 -6 3
      vertex -10 -4 3
      vertex -10 -6 3
    endloop
  endfacet
  facet normal 0 1 -0
    outer loop
      vertex 2 14 0
      vertex -2 14 3
      vertex 2 14 3
    endloop
  endfacet
  facet normal 0 1 0
    outer loop
      vertex -2 14 3
      vertex 2 14 0
      vertex -2 14 0
    endloop
  endfacet
  facet normal 0 0 -1
    outer loop
      vertex -14 3.10862e-15 0
      vertex -12 -2 0
      vertex -14 -2 0
    endloop
  endfacet
  facet normal 0 0 -1
    outer loop
      vertex -12 -2 0
      vertex -14 3.10862e-15 0
      vertex -12 2 0
    endloop
  endfacet
  facet normal -0 0 -1
    outer loop
      vertex -12 2 0
      vertex -14 3.10862e-15 0
      vertex -14 2 0
    endloop
  endfacet
  facet normal 0 0 -1
    outer loop
      vertex 0 10 0
      vertex -2 10 0
      vertex 0 12 0
    endloop
  endfacet
  facet normal 0 0 -1
    outer loop
      vertex 10 -2 0
      vertex 12 -2 0
      vertex 12 -4 0
    endloop
  endfacet
  facet normal 0 0 -1
    outer loop
      vertex 12 -2 0
      vertex 10 -1.22465e-15 0
      vertex 12 2 0
    endloop
  endfacet
  facet normal 0 0 -1
    outer loop
      vertex 10 -2 0
      vertex 12 -4 0
      vertex 10 -4 0
    endloop
  endfacet
  facet normal 0 0 -1
    outer loop
      vertex 12 -2 0
      vertex 10 -2 0
      vertex 10 -1.22465e-15 0
    endloop
  endfacet
  facet normal 0 0 -1
    outer loop
      vertex 10 2 0
      vertex 12 2 0
      vertex 10 -1.22465e-15 0
    endloop
  endfacet
  facet normal 0 0 -1
    outer loop
      vertex 12 2 0
      vertex 10 2 0
      vertex 12 4 0
    endloop
  endfacet
  facet normal 0 0 -1
    outer loop
      vertex 10 2 0
      vertex 10 4 0
      vertex 12 4 0
    endloop
  endfacet
  facet normal 0 0 -1
    outer loop
      vertex 8 4 0
      vertex 10 4 0
      vertex 10 2 0
    endloop
  endfacet
  facet normal 0 0 -1
    outer loop
      vertex 8 4 0
      vertex 10 2 0
      vertex 8 2 0
    endloop
  endfacet
  facet normal 0 0 -1
    outer loop
      vertex 10 4 0
      vertex 8 4 0
      vertex 10 6 0
    endloop
  endfacet
  facet normal 0 0 -1
    outer loop
      vertex 8 4 0
      vertex 8 6 0
      vertex 10 6 0
    endloop
  endfacet
  facet normal 0 0 -1
    outer loop
      vertex 6 6 0
      vertex 8 6 0
      vertex 8 4 0
    endloop
  endfacet
  facet normal 0 0 -1
    outer loop
      vertex 6 6 0
      vertex 8 4 0
      vertex 6 4 0
    endloop
  endfacet
  facet normal 0 0 -1
    outer loop
      vertex 8 6 0
      vertex 6 6 0
      vertex 8 8 0
    endloop
  endfacet
  facet normal 0 0 -1
    outer loop
      vertex 6 6 0
      vertex 6 8 0
      vertex 8 8 0
    endloop
  endfacet
  facet normal 0 0 -1
    outer loop
      vertex 4 8 0
      vertex 6 8 0
      vertex 6 6 0
    endloop
  endfacet
  facet normal 0 0 -1
    outer loop
      vertex 4 8 0
      vertex 6 6 0
      vertex 4 6 0
    endloop
  endfacet
  facet normal 0 0 -1
    outer loop
      vertex 6 8 0
      vertex 4 8 0
      vertex 6 10 0
    endloop
  endfacet
  facet normal 0 0 -1
    outer loop
      vertex 4 8 0
      vertex 4 10 0
      vertex 6 10 0
    endloop
  endfacet
  facet normal 0 0 -1
    outer loop
      vertex 2 10 0
      vertex 4 10 0
      vertex 4 8 0
    endloop
  endfacet
  facet normal 0 0 -1
    outer loop
      vertex 2 10 0
      vertex 4 8 0
      vertex 2 8 0
    endloop
  endfacet
  facet normal 0 0 -1
    outer loop
      vertex 4 10 0
      vertex 2 10 0
      vertex 4 12 0
    endloop
  endfacet
  facet normal 0 0 -1
    outer loop
      vertex 2 10 0
      vertex 2 12 0
      vertex 4 12 0
    endloop
  endfacet
  facet normal 0 0 -1
    outer loop
      vertex 2.66454e-15 12 0
      vertex 2 12 0
      vertex 2 10 0
    endloop
  endfacet
  facet normal 0 0 -1
    outer loop
      vertex 2 12 0
      vertex 2.66454e-15 12 0
      vertex 2 14 0
    endloop
  endfacet
  facet normal 0 -0 -1
    outer loop
      vertex 2.66454e-15 12 0
      vertex 2 10 0
      vertex 2.22045e-15 10 0
    endloop
  endfacet
  facet normal 0 0 -1
    outer loop
      vertex 12 -2 0
      vertex 14 -4.82313e-15 0
      vertex 14 -2 0
    endloop
  endfacet
  facet normal 0 0 -1
    outer loop
      vertex 12 2 0
      vertex 14 -4.82313e-15 0
      vertex 12 -2 0
    endloop
  endfacet
  facet normal 0 0 -1
    outer loop
      vertex 14 -4.82313e-15 0
      vertex 12 2 0
      vertex 14 2 0
    endloop
  endfacet
  facet normal 0 0 -1
    outer loop
      vertex 8 -4 0
      vertex 10 -4 0
      vertex 10 -6 0
    endloop
  endfacet
  facet normal 0 0 -1
    outer loop
      vertex 8 -4 0
      vertex 10 -6 0
      vertex 8 -6 0
    endloop
  endfacet
  facet normal 0 0 -1
    outer loop
      vertex 10 -4 0
      vertex 8 -4 0
      vertex 10 -2 0
    endloop
  endfacet
  facet normal -0 0 -1
    outer loop
      vertex 10 -2 0
      vertex 8 -4 0
      vertex 8 -2 0
    endloop
  endfacet
  facet normal 0 0 -1
    outer loop
      vertex 6 -6 0
      vertex 8 -6 0
      vertex 8 -8 0
    endloop
  endfacet
  facet normal 0 0 -1
    outer loop
      vertex 6 -6 0
      vertex 8 -8 0
      vertex 6 -8 0
    endloop
  endfacet
  facet normal 0 0 -1
    outer loop
      vertex 8 -6 0
      vertex 6 -6 0
      vertex 8 -4 0
    endloop
  endfacet
  facet normal -0 0 -1
    outer loop
      vertex 8 -4 0
      vertex 6 -6 0
      vertex 6 -4 0
    endloop
  endfacet
  facet normal 0 0 -1
    outer loop
      vertex 4 -8 0
      vertex 6 -8 0
      vertex 6 -10 0
    endloop
  endfacet
  facet normal 0 0 -1
    outer loop
      vertex 4 -8 0
      vertex 6 -10 0
      vertex 4 -10 0
    endloop
  endfacet
  facet normal 0 0 -1
    outer loop
      vertex 6 -8 0
      vertex 4 -8 0
      vertex 6 -6 0
    endloop
  endfacet
  facet normal -0 0 -1
    outer loop
      vertex 6 -6 0
      vertex 4 -8 0
      vertex 4 -6 0
    endloop
  endfacet
  facet normal 0 0 -1
    outer loop
      vertex 2 -10 0
      vertex 4 -10 0
      vertex 4 -12 0
    endloop
  endfacet
  facet normal 0 0 -1
    outer loop
      vertex 2 -10 0
      vertex 4 -12 0
      vertex 2 -12 0
    endloop
  endfacet
  facet normal 0 0 -1
    outer loop
      vertex 4 -10 0
      vertex 2 -10 0
      vertex 4 -8 0
    endloop
  endfacet
  facet normal -0 0 -1
    outer loop
      vertex 4 -8 0
      vertex 2 -10 0
      vertex 2 -8 0
    endloop
  endfacet
  facet normal 0 0 -1
    outer loop
      vertex -1.46958e-15 -12 0
      vertex 2 -12 0
      vertex 2 -14 0
    endloop
  endfacet
  facet normal 0 0 -1
    outer loop
      vertex 2 -12 0
      vertex -1.46958e-15 -12 0
      vertex 2 -10 0
    endloop
  endfacet
  facet normal -0 0 -1
    outer loop
      vertex 2 -10 0
      vertex -1.46958e-15 -12 0
      vertex -1.22465e-15 -10 0
    endloop
  endfacet
  facet normal 0 0 -1
    outer loop
      vertex -3.10862e-15 -14 0
      vertex -1.46958e-15 -12 0
      vertex 2 -14 0
    endloop
  endfacet
  facet normal -0 0 -1
    outer loop
      vertex -1.46958e-15 -12 0
      vertex -3.10862e-15 -14 0
      vertex -2.66454e-15 -12 0
    endloop
  endfacet
  facet normal 0 0 -1
    outer loop
      vertex 0 12 0
      vertex 2 14 0
      vertex 2.66454e-15 12 0
    endloop
  endfacet
  facet normal 0 0 -1
    outer loop
      vertex -2 12 0
      vertex 0 12 0
      vertex -2 10 0
    endloop
  endfacet
  facet normal 0 0 -1
    outer loop
      vertex -2 14 0
      vertex 0 12 0
      vertex -2 12 0
    endloop
  endfacet
  facet normal 0 0 -1
    outer loop
      vertex 0 12 0
      vertex -2 14 0
      vertex 2 14 0
    endloop
  endfacet
  facet normal 0 0 -1
    outer loop
      vertex -4.82313e-15 -14 0
      vertex -2.66454e-15 -12 0
      vertex -3.10862e-15 -14 0
    endloop
  endfacet
  facet normal 0 0 -1
    outer loop
      vertex -2 -12 0
      vertex -2.66454e-15 -12 0
      vertex -4.82313e-15 -14 0
    endloop
  endfacet
  facet normal 0 0 -1
    outer loop
      vertex -2 -12 0
      vertex -4.82313e-15 -14 0
      vertex -2 -14 0
    endloop
  endfacet
  facet normal 0 0 -1
    outer loop
      vertex -2.66454e-15 -12 0
      vertex -2 -12 0
      vertex -2.22045e-15 -10 0
    endloop
  endfacet
  facet normal 0 0 -1
    outer loop
      vertex -2 -12 0
      vertex -2 -10 0
      vertex -2.22045e-15 -10 0
    endloop
  endfacet
  facet normal 0 0 -1
    outer loop
      vertex -4 -10 0
      vertex -2 -10 0
      vertex -2 -12 0
    endloop
  endfacet
  facet normal 0 0 -1
    outer loop
      vertex -4 -10 0
      vertex -2 -12 0
      vertex -4 -12 0
    endloop
  endfacet
  facet normal 0 0 -1
    outer loop
      vertex -2 -10 0
      vertex -4 -10 0
      vertex -2 -8 0
    endloop
  endfacet
  facet normal 0 0 -1
    outer loop
      vertex -4 -10 0
      vertex -4 -8 0
      vertex -2 -8 0
    endloop
  endfacet
  facet normal 0 0 -1
    outer loop
      vertex -6 -8 0
      vertex -4 -8 0
      vertex -4 -10 0
    endloop
  endfacet
  facet normal 0 0 -1
    outer loop
      vertex -6 -8 0
      vertex -4 -10 0
      vertex -6 -10 0
    endloop
  endfacet
  facet normal 0 0 -1
    outer loop
      vertex -4 -8 0
      vertex -6 -8 0
      vertex -4 -6 0
    endloop
  endfacet
  facet normal 0 0 -1
    outer loop
      vertex -6 -8 0
      vertex -6 -6 0
      vertex -4 -6 0
    endloop
  endfacet
  facet normal 0 0 -1
    outer loop
      vertex -8 -6 0
      vertex -6 -6 0
      vertex -6 -8 0
    endloop
  endfacet
  facet normal 0 0 -1
    outer loop
      vertex -8 -6 0
      vertex -6 -8 0
      vertex -8 -8 0
    endloop
  endfacet
  facet normal 0 0 -1
    outer loop
      vertex -6 -6 0
      vertex -8 -6 0
      vertex -6 -4 0
    endloop
  endfacet
  facet normal 0 0 -1
    outer loop
      vertex -8 -6 0
      vertex -8 -4 0
      vertex -6 -4 0
    endloop
  endfacet
  facet normal 0 0 -1
    outer loop
      vertex -10 -4 0
      vertex -8 -4 0
      vertex -8 -6 0
    endloop
  endfacet
  facet normal 0 0 -1
    outer loop
      vertex -10 -4 0
      vertex -8 -6 0
      vertex -10 -6 0
    endloop
  endfacet
  facet normal 0 0 -1
    outer loop
      vertex -8 -4 0
      vertex -10 -4 0
      vertex -8 -2 0
    endloop
  endfacet
  facet normal 0 0 -1
    outer loop
      vertex -10 -4 0
      vertex -10 -2 0
      vertex -8 -2 0
    endloop
  endfacet
  facet normal 0 0 -1
    outer loop
      vertex -12 -2 0
      vertex -10 -2 0
      vertex -10 -4 0
    endloop
  endfacet
  facet normal 0 0 -1
    outer loop
      vertex -10 -2 0
      vertex -12 -2 0
      vertex -10 0 0
    endloop
  endfacet
  facet normal 0 0 -1
    outer loop
      vertex -12 2 0
      vertex -10 0 0
      vertex -12 -2 0
    endloop
  endfacet
  facet normal 0 0 -1
    outer loop
      vertex -12 -2 0
      vertex -10 -4 0
      vertex -12 -4 0
    endloop
  endfacet
  facet normal 0 0 -1
    outer loop
      vertex -10 0 0
      vertex -12 2 0
      vertex -10 2 0
    endloop
  endfacet
  facet normal 0 0 -1
    outer loop
      vertex -10 2 0
      vertex -12 2 0
      vertex -10 4 0
    endloop
  endfacet
  facet normal -0 0 -1
    outer loop
      vertex -10 4 0
      vertex -12 2 0
      vertex -12 4 0
    endloop
  endfacet
  facet normal 0 0 -1
    outer loop
      vertex -4 10 0
      vertex -2 10 0
      vertex -2 8 0
    endloop
  endfacet
  facet normal 0 0 -1
    outer loop
      vertex -4 10 0
      vertex -2 8 0
      vertex -4 8 0
    endloop
  endfacet
  facet normal 0 0 -1
    outer loop
      vertex -2 10 0
      vertex -4 10 0
      vertex -2 12 0
    endloop
  endfacet
  facet normal -0 0 -1
    outer loop
      vertex -2 12 0
      vertex -4 10 0
      vertex -4 12 0
    endloop
  endfacet
  facet normal 0 0 -1
    outer loop
      vertex -6 8 0
      vertex -4 8 0
      vertex -4 6 0
    endloop
  endfacet
  facet normal 0 0 -1
    outer loop
      vertex -6 8 0
      vertex -4 6 0
      vertex -6 6 0
    endloop
  endfacet
  facet normal 0 0 -1
    outer loop
      vertex -4 8 0
      vertex -6 8 0
      vertex -4 10 0
    endloop
  endfacet
  facet normal -0 0 -1
    outer loop
      vertex -4 10 0
      vertex -6 8 0
      vertex -6 10 0
    endloop
  endfacet
  facet normal 0 0 -1
    outer loop
      vertex -8 6 0
      vertex -6 6 0
      vertex -6 4 0
    endloop
  endfacet
  facet normal 0 0 -1
    outer loop
      vertex -8 6 0
      vertex -6 4 0
      vertex -8 4 0
    endloop
  endfacet
  facet normal 0 0 -1
    outer loop
      vertex -6 6 0
      vertex -8 6 0
      vertex -6 8 0
    endloop
  endfacet
  facet normal -0 0 -1
    outer loop
      vertex -6 8 0
      vertex -8 6 0
      vertex -8 8 0
    endloop
  endfacet
  facet normal 0 0 -1
    outer loop
      vertex -10 4 0
      vertex -8 4 0
      vertex -8 2 0
    endloop
  endfacet
  facet normal 0 0 -1
    outer loop
      vertex -10 4 0
      vertex -8 2 0
      vertex -10 2 0
    endloop
  endfacet
  facet normal 0 0 -1
    outer loop
      vertex -8 4 0
      vertex -10 4 0
      vertex -8 6 0
    endloop
  endfacet
  facet normal -0 0 -1
    outer loop
      vertex -8 6 0
      vertex -10 4 0
      vertex -10 6 0
    endloop
  endfacet
  facet normal 0 -1 0
    outer loop
      vertex 0 12 0
      vertex 2.66454e-15 12 3
      vertex 0 12 3
    endloop
  endfacet
  facet normal 0 -1 -0
    outer loop
      vertex 2.66454e-15 12 3
      vertex 0 12 0
      vertex 2.66454e-15 12 0
    endloop
  endfacet
  facet normal 0 1 -0
    outer loop
      vertex -2 12 0
      vertex -4 12 3
      vertex -2 12 3
    endloop
  endfacet
  facet normal 0 1 0
    outer loop
      vertex -4 12 3
      vertex -2 12 0
      vertex -4 12 0
    endloop
  endfacet
  facet normal -1 0 0
    outer loop
      vertex -4 10 0
      vertex -4 12 3
      vertex -4 12 0
    endloop
  endfacet
  facet normal -1 -0 0
    outer loop
      vertex -4 12 3
      vertex -4 10 0
      vertex -4 10 3
    endloop
  endfacet
  facet normal 1 -0 0
    outer loop
      vertex 0 10 3
      vertex 0 12 0
      vertex 0 12 3
    endloop
  endfacet
  facet normal 1 0 0
    outer loop
      vertex 0 12 0
      vertex 0 10 3
      vertex 0 10 0
    endloop
  endfacet
  facet normal 0 -1 0
    outer loop
      vertex -2 10 0
      vertex 0 10 3
      vertex -2 10 3
    endloop
  endfacet
  facet normal 0 -1 -0
    outer loop
      vertex 0 10 3
      vertex -2 10 0
      vertex 0 10 0
    endloop
  endfacet
  facet normal 0 1 -0
    outer loop
      vertex -4 10 0
      vertex -6 10 3
      vertex -4 10 3
    endloop
  endfacet
  facet normal 0 1 0
    outer loop
      vertex -6 10 3
      vertex -4 10 0
      vertex -6 10 0
    endloop
  endfacet
  facet normal -1 0 0
    outer loop
      vertex -6 8 0
      vertex -6 10 3
      vertex -6 10 0
    endloop
  endfacet
  facet normal -1 -0 0
    outer loop
      vertex -6 10 3
      vertex -6 8 0
      vertex -6 8 3
    endloop
  endfacet
  facet normal 1 -0 0
    outer loop
      vertex -2 8 3
      vertex -2 10 0
      vertex -2 10 3
    endloop
  endfacet
  facet normal 1 0 0
    outer loop
      vertex -2 10 0
      vertex -2 8 3
      vertex -2 8 0
    endloop
  endfacet
  facet normal 0 -1 0
    outer loop
      vertex -4 8 0
      vertex -2 8 3
      vertex -4 8 3
    endloop
  endfacet
  facet normal 0 -1 -0
    outer loop
      vertex -2 8 3
      vertex -4 8 0
      vertex -2 8 0
    endloop
  endfacet
  facet normal 0 1 -0
    outer loop
      vertex -6 8 0
      vertex -8 8 3
      vertex -6 8 3
    endloop
  endfacet
  facet normal 0 1 0
    outer loop
      vertex -8 8 3
      vertex -6 8 0
      vertex -8 8 0
    endloop
  endfacet
  facet normal -1 0 0
    outer loop
      vertex -8 6 0
      vertex -8 8 3
      vertex -8 8 0
    endloop
  endfacet
  facet normal -1 -0 0
    outer loop
      vertex -8 8 3
      vertex -8 6 0
      vertex -8 6 3
    endloop
  endfacet
  facet normal 1 -0 0
    outer loop
      vertex -4 6 3
      vertex -4 8 0
      vertex -4 8 3
    endloop
  endfacet
  facet normal 1 0 0
    outer loop
      vertex -4 8 0
      vertex -4 6 3
      vertex -4 6 0
    endloop
  endfacet
  facet normal 0 -1 0
    outer loop
      vertex -6 6 0
      vertex -4 6 3
      vertex -6 6 3
    endloop
  endfacet
  facet normal 0 -1 -0
    outer loop
      vertex -4 6 3
      vertex -6 6 0
      vertex -4 6 0
    endloop
  endfacet
  facet normal 0 1 -0
    outer loop
      vertex -8 6 0
      vertex -10 6 3
      vertex -8 6 3
    endloop
  endfacet
  facet normal 0 1 0
    outer loop
      vertex -10 6 3
      vertex -8 6 0
      vertex -10 6 0
    endloop
  endfacet
  facet normal -1 0 0
    outer loop
      vertex -10 4 0
      vertex -10 6 3
      vertex -10 6 0
    endloop
  endfacet
  facet normal -1 -0 0
    outer loop
      vertex -10 6 3
      vertex -10 4 0
      vertex -10 4 3
    endloop
  endfacet
  facet normal 1 -0 0
    outer loop
      vertex -6 4 3
      vertex -6 6 0
      vertex -6 6 3
    endloop
  endfacet
  facet normal 1 0 0
    outer loop
      vertex -6 6 0
      vertex -6 4 3
      vertex -6 4 0
    endloop
  endfacet
  facet normal 0 -1 0
    outer loop
      vertex -8 4 0
      vertex -6 4 3
      vertex -8 4 3
    endloop
  endfacet
  facet normal 0 -1 -0
    outer loop
      vertex -6 4 3
      vertex -8 4 0
      vertex -6 4 0
    endloop
  endfacet
  facet normal 0 1 -0
    outer loop
      vertex -10 4 0
      vertex -12 4 3
      vertex -10 4 3
    endloop
  endfacet
  facet normal 0 1 0
    outer loop
      vertex -12 4 3
      vertex -10 4 0
      vertex -12 4 0
    endloop
  endfacet
  facet normal -1 0 0
    outer loop
      vertex -12 2 0
      vertex -12 4 3
      vertex -12 4 0
    endloop
  endfacet
  facet normal -1 -0 0
    outer loop
      vertex -12 4 3
      vertex -12 2 0
      vertex -12 2 3
    endloop
  endfacet
  facet normal 1 -0 0
    outer loop
      vertex -8 2 3
      vertex -8 4 0
      vertex -8 4 3
    endloop
  endfacet
  facet normal 1 0 0
    outer loop
      vertex -8 4 0
      vertex -8 2 3
      vertex -8 2 0
    endloop
  endfacet
  facet normal 0 -1 0
    outer loop
      vertex -10 2 0
      vertex -8 2 3
      vertex -10 2 3
    endloop
  endfacet
  facet normal 0 -1 -0
    outer loop
      vertex -8 2 3
      vertex -10 2 0
      vertex -8 2 0
    endloop
  endfacet
  facet normal -1 0 0
    outer loop
      vertex -14 3.10862e-15 0
      vertex -14 2 3
      vertex -14 2 0
    endloop
  endfacet
  facet normal -1 -0 0
    outer loop
      vertex -14 2 3
      vertex -14 3.10862e-15 0
      vertex -14 3.10862e-15 3
    endloop
  endfacet
  facet normal 1 -0 0
    outer loop
      vertex -10 0 3
      vertex -10 2 0
      vertex -10 2 3
    endloop
  endfacet
  facet normal 1 0 0
    outer loop
      vertex -10 2 0
      vertex -10 0 3
      vertex -10 0 0
    endloop
  endfacet
  facet normal 0 -1 0
    outer loop
      vertex -14 -2 0
      vertex -12 -2 3
      vertex -14 -2 3
    endloop
  endfacet
  facet normal 0 -1 -0
    outer loop
      vertex -12 -2 3
      vertex -14 -2 0
      vertex -12 -2 0
    endloop
  endfacet
  facet normal 0 1 -0
    outer loop
      vertex -12 2 0
      vertex -14 2 3
      vertex -12 2 3
    endloop
  endfacet
  facet normal 0 1 0
    outer loop
      vertex -14 2 3
      vertex -12 2 0
      vertex -14 2 0
    endloop
  endfacet
  facet normal -1 0 0
    outer loop
      vertex -14 -2 0
      vertex -14 3.10862e-15 3
      vertex -14 3.10862e-15 0
    endloop
  endfacet
  facet normal -1 -0 0
    outer loop
      vertex -14 3.10862e-15 3
      vertex -14 -2 0
      vertex -14 -2 3
    endloop
  endfacet
  facet normal -1 0 0
    outer loop
      vertex -12 -4 0
      vertex -12 -2 3
      vertex -12 -2 0
    endloop
  endfacet
  facet normal -1 -0 0
    outer loop
      vertex -12 -2 3
      vertex -12 -4 0
      vertex -12 -4 3
    endloop
  endfacet
  facet normal 0 -1 0
    outer loop
      vertex -12 -4 0
      vertex -10 -4 3
      vertex -12 -4 3
    endloop
  endfacet
  facet normal 0 -1 -0
    outer loop
      vertex -10 -4 3
      vertex -12 -4 0
      vertex -10 -4 0
    endloop
  endfacet
  facet normal 1 -0 0
    outer loop
      vertex -10 -2 3
      vertex -10 0 0
      vertex -10 0 3
    endloop
  endfacet
  facet normal 1 0 0
    outer loop
      vertex -10 0 0
      vertex -10 -2 3
      vertex -10 -2 0
    endloop
  endfacet
  facet normal -1 0 0
    outer loop
      vertex -10 -6 0
      vertex -10 -4 3
      vertex -10 -4 0
    endloop
  endfacet
  facet normal -1 -0 0
    outer loop
      vertex -10 -4 3
      vertex -10 -6 0
      vertex -10 -6 3
    endloop
  endfacet
  facet normal 0 -1 0
    outer loop
      vertex -10 -6 0
      vertex -8 -6 3
      vertex -10 -6 3
    endloop
  endfacet
  facet normal 0 -1 -0
    outer loop
      vertex -8 -6 3
      vertex -10 -6 0
      vertex -8 -6 0
    endloop
  endfacet
  facet normal 0 1 -0
    outer loop
      vertex -8 -2 0
      vertex -10 -2 3
      vertex -8 -2 3
    endloop
  endfacet
  facet normal 0 1 0
    outer loop
      vertex -10 -2 3
      vertex -8 -2 0
      vertex -10 -2 0
    endloop
  endfacet
  facet normal 1 -0 0
    outer loop
      vertex -8 -4 3
      vertex -8 -2 0
      vertex -8 -2 3
    endloop
  endfacet
  facet normal 1 0 0
    outer loop
      vertex -8 -2 0
      vertex -8 -4 3
      vertex -8 -4 0
    endloop
  endfacet
  facet normal -1 0 0
    outer loop
      vertex -8 -8 0
      vertex -8 -6 3
      vertex -8 -6 0
    endloop
  endfacet
  facet normal -1 -0 0
    outer loop
      vertex -8 -6 3
      vertex -8 -8 0
      vertex -8 -8 3
    endloop
  endfacet
  facet normal 0 -1 0
    outer loop
      vertex -8 -8 0
      vertex -6 -8 3
      vertex -8 -8 3
    endloop
  endfacet
  facet normal 0 -1 -0
    outer loop
      vertex -6 -8 3
      vertex -8 -8 0
      vertex -6 -8 0
    endloop
  endfacet
  facet normal 0 1 -0
    outer loop
      vertex -6 -4 0
      vertex -8 -4 3
      vertex -6 -4 3
    endloop
  endfacet
  facet normal 0 1 0
    outer loop
      vertex -8 -4 3
      vertex -6 -4 0
      vertex -8 -4 0
    endloop
  endfacet
  facet normal 1 -0 0
    outer loop
      vertex -6 -6 3
      vertex -6 -4 0
      vertex -6 -4 3
    endloop
  endfacet
  facet normal 1 0 0
    outer loop
      vertex -6 -4 0
      vertex -6 -6 3
      vertex -6 -6 0
    endloop
  endfacet
  facet normal -1 0 0
    outer loop
      vertex -6 -10 0
      vertex -6 -8 3
      vertex -6 -8 0
    endloop
  endfacet
  facet normal -1 -0 0
    outer loop
      vertex -6 -8 3
      vertex -6 -10 0
      vertex -6 -10 3
    endloop
  endfacet
  facet normal 0 -1 0
    outer loop
      vertex -6 -10 0
      vertex -4 -10 3
      vertex -6 -10 3
    endloop
  endfacet
  facet normal 0 -1 -0
    outer loop
      vertex -4 -10 3
      vertex -6 -10 0
      vertex -4 -10 0
    endloop
  endfacet
  facet normal 0 1 -0
    outer loop
      vertex -4 -6 0
      vertex -6 -6 3
      vertex -4 -6 3
    endloop
  endfacet
  facet normal 0 1 0
    outer loop
      vertex -6 -6 3
      vertex -4 -6 0
      vertex -6 -6 0
    endloop
  endfacet
  facet normal 1 -0 0
    outer loop
      vertex -4 -8 3
      vertex -4 -6 0
      vertex -4 -6 3
    endloop
  endfacet
  facet normal 1 0 0
    outer loop
      vertex -4 -6 0
      vertex -4 -8 3
      vertex -4 -8 0
    endloop
  endfacet
  facet normal -1 0 0
    outer loop
      vertex -4 -12 0
      vertex -4 -10 3
      vertex -4 -10 0
    endloop
  endfacet
  facet normal -1 -0 0
    outer loop
      vertex -4 -10 3
      vertex -4 -12 0
      vertex -4 -12 3
    endloop
  endfacet
  facet normal 0 -1 0
    outer loop
      vertex -4 -12 0
      vertex -2 -12 3
      vertex -4 -12 3
    endloop
  endfacet
  facet normal 0 -1 -0
    outer loop
      vertex -2 -12 3
      vertex -4 -12 0
      vertex -2 -12 0
    endloop
  endfacet
  facet normal 0 1 -0
    outer loop
      vertex -2 -8 0
      vertex -4 -8 3
      vertex -2 -8 3
    endloop
  endfacet
  facet normal 0 1 0
    outer loop
      vertex -4 -8 3
      vertex -2 -8 0
      vertex -4 -8 0
    endloop
  endfacet
  facet normal 1 -0 0
    outer loop
      vertex -2 -10 3
      vertex -2 -8 0
      vertex -2 -8 3
    endloop
  endfacet
  facet normal 1 0 0
    outer loop
      vertex -2 -8 0
      vertex -2 -10 3
      vertex -2 -10 0
    endloop
  endfacet
  facet normal -1 0 0
    outer loop
      vertex -2 -14 0
      vertex -2 -12 3
      vertex -2 -12 0
    endloop
  endfacet
  facet normal -1 -0 0
    outer loop
      vertex -2 -12 3
      vertex -2 -14 0
      vertex -2 -14 3
    endloop
  endfacet
  facet normal 0 -1 0
    outer loop
      vertex -4.82313e-15 -14 0
      vertex -3.10862e-15 -14 3
      vertex -4.82313e-15 -14 3
    endloop
  endfacet
  facet normal 0 -1 -0
    outer loop
      vertex -3.10862e-15 -14 3
      vertex -4.82313e-15 -14 0
      vertex -3.10862e-15 -14 0
    endloop
  endfacet
  facet normal 0 1 -0
    outer loop
      vertex -2.22045e-15 -10 0
      vertex -2 -10 3
      vertex -2.22045e-15 -10 3
    endloop
  endfacet
  facet normal 0 1 0
    outer loop
      vertex -2 -10 3
      vertex -2.22045e-15 -10 0
      vertex -2 -10 0
    endloop
  endfacet
  facet normal 1 -2.22045e-16 0
    outer loop
      vertex -2.66454e-15 -12 3
      vertex -2.22045e-15 -10 0
      vertex -2.22045e-15 -10 3
    endloop
  endfacet
  facet normal 1 -2.22045e-16 0
    outer loop
      vertex -2.22045e-15 -10 0
      vertex -2.66454e-15 -12 3
      vertex -2.66454e-15 -12 0
    endloop
  endfacet
  facet normal 1 -0 0
    outer loop
      vertex 2 -14 3
      vertex 2 -12 0
      vertex 2 -12 3
    endloop
  endfacet
  facet normal 1 0 0
    outer loop
      vertex 2 -12 0
      vertex 2 -14 3
      vertex 2 -14 0
    endloop
  endfacet
  facet normal 0 -1 0
    outer loop
      vertex -2 -14 0
      vertex -4.82313e-15 -14 3
      vertex -2 -14 3
    endloop
  endfacet
  facet normal 0 -1 -0
    outer loop
      vertex -4.82313e-15 -14 3
      vertex -2 -14 0
      vertex -4.82313e-15 -14 0
    endloop
  endfacet
  facet normal 0 -1 0
    outer loop
      vertex -3.10862e-15 -14 0
      vertex 2 -14 3
      vertex -3.10862e-15 -14 3
    endloop
  endfacet
  facet normal 0 -1 -0
    outer loop
      vertex 2 -14 3
      vertex -3.10862e-15 -14 0
      vertex 2 -14 0
    endloop
  endfacet
  facet normal 0 1 -0
    outer loop
      vertex -1.46958e-15 -12 0
      vertex -2.66454e-15 -12 3
      vertex -1.46958e-15 -12 3
    endloop
  endfacet
  facet normal 0 1 0
    outer loop
      vertex -2.66454e-15 -12 3
      vertex -1.46958e-15 -12 0
      vertex -2.66454e-15 -12 0
    endloop
  endfacet
  facet normal 0 -1 0
    outer loop
      vertex 2 -12 0
      vertex 4 -12 3
      vertex 2 -12 3
    endloop
  endfacet
  facet normal 0 -1 -0
    outer loop
      vertex 4 -12 3
      vertex 2 -12 0
      vertex 4 -12 0
    endloop
  endfacet
  facet normal 1 -0 0
    outer loop
      vertex 4 -12 3
      vertex 4 -10 0
      vertex 4 -10 3
    endloop
  endfacet
  facet normal 1 0 0
    outer loop
      vertex 4 -10 0
      vertex 4 -12 3
      vertex 4 -12 0
    endloop
  endfacet
  facet normal -1 1.22465e-16 0
    outer loop
      vertex -1.46958e-15 -12 0
      vertex -1.22465e-15 -10 3
      vertex -1.22465e-15 -10 0
    endloop
  endfacet
  facet normal -1 1.22465e-16 0
    outer loop
      vertex -1.22465e-15 -10 3
      vertex -1.46958e-15 -12 0
      vertex -1.46958e-15 -12 3
    endloop
  endfacet
  facet normal 0 1 -0
    outer loop
      vertex 2 -10 0
      vertex -1.22465e-15 -10 3
      vertex 2 -10 3
    endloop
  endfacet
  facet normal 0 1 0
    outer loop
      vertex -1.22465e-15 -10 3
      vertex 2 -10 0
      vertex -1.22465e-15 -10 0
    endloop
  endfacet
  facet normal 0 -1 0
    outer loop
      vertex 4 -10 0
      vertex 6 -10 3
      vertex 4 -10 3
    endloop
  endfacet
  facet normal 0 -1 -0
    outer loop
      vertex 6 -10 3
      vertex 4 -10 0
      vertex 6 -10 0
    endloop
  endfacet
  facet normal 1 -0 0
    outer loop
      vertex 6 -10 3
      vertex 6 -8 0
      vertex 6 -8 3
    endloop
  endfacet
  facet normal 1 0 0
    outer loop
      vertex 6 -8 0
      vertex 6 -10 3
      vertex 6 -10 0
    endloop
  endfacet
  facet normal -1 0 0
    outer loop
      vertex 2 -10 0
      vertex 2 -8 3
      vertex 2 -8 0
    endloop
  endfacet
  facet normal -1 -0 0
    outer loop
      vertex 2 -8 3
      vertex 2 -10 0
      vertex 2 -10 3
    endloop
  endfacet
  facet normal 0 1 -0
    outer loop
      vertex 4 -8 0
      vertex 2 -8 3
      vertex 4 -8 3
    endloop
  endfacet
  facet normal 0 1 0
    outer loop
      vertex 2 -8 3
      vertex 4 -8 0
      vertex 2 -8 0
    endloop
  endfacet
  facet normal 0 -1 0
    outer loop
      vertex 6 -8 0
      vertex 8 -8 3
      vertex 6 -8 3
    endloop
  endfacet
  facet normal 0 -1 -0
    outer loop
      vertex 8 -8 3
      vertex 6 -8 0
      vertex 8 -8 0
    endloop
  endfacet
  facet normal 1 -0 0
    outer loop
      vertex 8 -8 3
      vertex 8 -6 0
      vertex 8 -6 3
    endloop
  endfacet
  facet normal 1 0 0
    outer loop
      vertex 8 -6 0
      vertex 8 -8 3
      vertex 8 -8 0
    endloop
  endfacet
  facet normal -1 0 0
    outer loop
      vertex 4 -8 0
      vertex 4 -6 3
      vertex 4 -6 0
    endloop
  endfacet
  facet normal -1 -0 0
    outer loop
      vertex 4 -6 3
      vertex 4 -8 0
      vertex 4 -8 3
    endloop
  endfacet
  facet normal 0 1 -0
    outer loop
      vertex 6 -6 0
      vertex 4 -6 3
      vertex 6 -6 3
    endloop
  endfacet
  facet normal 0 1 0
    outer loop
      vertex 4 -6 3
      vertex 6 -6 0
      vertex 4 -6 0
    endloop
  endfacet
  facet normal 0 -1 0
    outer loop
      vertex 8 -6 0
      vertex 10 -6 3
      vertex 8 -6 3
    endloop
  endfacet
  facet normal 0 -1 -0
    outer loop
      vertex 10 -6 3
      vertex 8 -6 0
      vertex 10 -6 0
    endloop
  endfacet
  facet normal 1 -0 0
    outer loop
      vertex 10 -6 3
      vertex 10 -4 0
      vertex 10 -4 3
    endloop
  endfacet
  facet normal 1 0 0
    outer loop
      vertex 10 -4 0
      vertex 10 -6 3
      vertex 10 -6 0
    endloop
  endfacet
  facet normal -1 0 0
    outer loop
      vertex 6 -6 0
      vertex 6 -4 3
      vertex 6 -4 0
    endloop
  endfacet
  facet normal -1 -0 0
    outer loop
      vertex 6 -4 3
      vertex 6 -6 0
      vertex 6 -6 3
    endloop
  endfacet
  facet normal 0 1 -0
    outer loop
      vertex 8 -4 0
      vertex 6 -4 3
      vertex 8 -4 3
    endloop
  endfacet
  facet normal 0 1 0
    outer loop
      vertex 6 -4 3
      vertex 8 -4 0
      vertex 6 -4 0
    endloop
  endfacet
  facet normal 0 -1 0
    outer loop
      vertex 10 -4 0
      vertex 12 -4 3
      vertex 10 -4 3
    endloop
  endfacet
  facet normal 0 -1 -0
    outer loop
      vertex 12 -4 3
      vertex 10 -4 0
      vertex 12 -4 0
    endloop
  endfacet
  facet normal 1 -0 0
    outer loop
      vertex 12 -4 3
      vertex 12 -2 0
      vertex 12 -2 3
    endloop
  endfacet
  facet normal 1 0 0
    outer loop
      vertex 12 -2 0
      vertex 12 -4 3
      vertex 12 -4 0
    endloop
  endfacet
  facet normal -1 0 0
    outer loop
      vertex 8 -4 0
      vertex 8 -2 3
      vertex 8 -2 0
    endloop
  endfacet
  facet normal -1 -0 0
    outer loop
      vertex 8 -2 3
      vertex 8 -4 0
      vertex 8 -4 3
    endloop
  endfacet
  facet normal 0 1 -0
    outer loop
      vertex 10 -2 0
      vertex 8 -2 3
      vertex 10 -2 3
    endloop
  endfacet
  facet normal 0 1 0
    outer loop
      vertex 8 -2 3
      vertex 10 -2 0
      vertex 8 -2 0
    endloop
  endfacet
  facet normal 1 -0 0
    outer loop
      vertex 14 -2 3
      vertex 14 -4.82313e-15 0
      vertex 14 -4.82313e-15 3
    endloop
  endfacet
  facet normal 1 0 0
    outer loop
      vertex 14 -4.82313e-15 0
      vertex 14 -2 3
      vertex 14 -2 0
    endloop
  endfacet
  facet normal -1 0 0
    outer loop
      vertex 10 -2 0
      vertex 10 -1.22465e-15 3
      vertex 10 -1.22465e-15 0
    endloop
  endfacet
  facet normal -1 -0 0
    outer loop
      vertex 10 -1.22465e-15 3
      vertex 10 -2 0
      vertex 10 -2 3
    endloop
  endfacet
  facet normal 0 1 -0
    outer loop
      vertex 14 2 0
      vertex 12 2 3
      vertex 14 2 3
    endloop
  endfacet
  facet normal 0 1 0
    outer loop
      vertex 12 2 3
      vertex 14 2 0
      vertex 12 2 0
    endloop
  endfacet
  facet normal 0 -1 0
    outer loop
      vertex 12 -2 0
      vertex 14 -2 3
      vertex 12 -2 3
    endloop
  endfacet
  facet normal 0 -1 -0
    outer loop
      vertex 14 -2 3
      vertex 12 -2 0
      vertex 14 -2 0
    endloop
  endfacet
  facet normal 1 -0 0
    outer loop
      vertex 14 -4.82313e-15 3
      vertex 14 2 0
      vertex 14 2 3
    endloop
  endfacet
  facet normal 1 0 0
    outer loop
      vertex 14 2 0
      vertex 14 -4.82313e-15 3
      vertex 14 -4.82313e-15 0
    endloop
  endfacet
  facet normal 1 -0 0
    outer loop
      vertex 12 2 3
      vertex 12 4 0
      vertex 12 4 3
    endloop
  endfacet
  facet normal 1 0 0
    outer loop
      vertex 12 4 0
      vertex 12 2 3
      vertex 12 2 0
    endloop
  endfacet
  facet normal 0 1 -0
    outer loop
      vertex 12 4 0
      vertex 10 4 3
      vertex 12 4 3
    endloop
  endfacet
  facet normal 0 1 0
    outer loop
      vertex 10 4 3
      vertex 12 4 0
      vertex 10 4 0
    endloop
  endfacet
  facet normal -1 0 0
    outer loop
      vertex 10 -1.22465e-15 0
      vertex 10 2 3
      vertex 10 2 0
    endloop
  endfacet
  facet normal -1 -0 0
    outer loop
      vertex 10 2 3
      vertex 10 -1.22465e-15 0
      vertex 10 -1.22465e-15 3
    endloop
  endfacet
  facet normal 1 -0 0
    outer loop
      vertex 10 4 3
      vertex 10 6 0
      vertex 10 6 3
    endloop
  endfacet
  facet normal 1 0 0
    outer loop
      vertex 10 6 0
      vertex 10 4 3
      vertex 10 4 0
    endloop
  endfacet
  facet normal 0 1 -0
    outer loop
      vertex 10 6 0
      vertex 8 6 3
      vertex 10 6 3
    endloop
  endfacet
  facet normal 0 1 0
    outer loop
      vertex 8 6 3
      vertex 10 6 0
      vertex 8 6 0
    endloop
  endfacet
  facet normal 0 -1 0
    outer loop
      vertex 8 2 0
      vertex 10 2 3
      vertex 8 2 3
    endloop
  endfacet
  facet normal 0 -1 -0
    outer loop
      vertex 10 2 3
      vertex 8 2 0
      vertex 10 2 0
    endloop
  endfacet
  facet normal -1 0 0
    outer loop
      vertex 8 2 0
      vertex 8 4 3
      vertex 8 4 0
    endloop
  endfacet
  facet normal -1 -0 0
    outer loop
      vertex 8 4 3
      vertex 8 2 0
      vertex 8 2 3
    endloop
  endfacet
  facet normal 1 -0 0
    outer loop
      vertex 8 6 3
      vertex 8 8 0
      vertex 8 8 3
    endloop
  endfacet
  facet normal 1 0 0
    outer loop
      vertex 8 8 0
      vertex 8 6 3
      vertex 8 6 0
    endloop
  endfacet
  facet normal 0 1 -0
    outer loop
      vertex 8 8 0
      vertex 6 8 3
      vertex 8 8 3
    endloop
  endfacet
  facet normal 0 1 0
    outer loop
      vertex 6 8 3
      vertex 8 8 0
      vertex 6 8 0
    endloop
  endfacet
  facet normal 0 -1 0
    outer loop
      vertex 6 4 0
      vertex 8 4 3
      vertex 6 4 3
    endloop
  endfacet
  facet normal 0 -1 -0
    outer loop
      vertex 8 4 3
      vertex 6 4 0
      vertex 8 4 0
    endloop
  endfacet
  facet normal -1 0 0
    outer loop
      vertex 6 4 0
      vertex 6 6 3
      vertex 6 6 0
    endloop
  endfacet
  facet normal -1 -0 0
    outer loop
      vertex 6 6 3
      vertex 6 4 0
      vertex 6 4 3
    endloop
  endfacet
  facet normal 1 -0 0
    outer loop
      vertex 6 8 3
      vertex 6 10 0
      vertex 6 10 3
    endloop
  endfacet
  facet normal 1 0 0
    outer loop
      vertex 6 10 0
      vertex 6 8 3
      vertex 6 8 0
    endloop
  endfacet
  facet normal 0 1 -0
    outer loop
      vertex 6 10 0
      vertex 4 10 3
      vertex 6 10 3
    endloop
  endfacet
  facet normal 0 1 0
    outer loop
      vertex 4 10 3
      vertex 6 10 0
      vertex 4 10 0
    endloop
  endfacet
  facet normal 0 -1 0
    outer loop
      vertex 4 6 0
      vertex 6 6 3
      vertex 4 6 3
    endloop
  endfacet
  facet normal 0 -1 -0
    outer loop
      vertex 6 6 3
      vertex 4 6 0
      vertex 6 6 0
    endloop
  endfacet
  facet normal -1 0 0
    outer loop
      vertex 4 6 0
      vertex 4 8 3
      vertex 4 8 0
    endloop
  endfacet
  facet normal -1 -0 0
    outer loop
      vertex 4 8 3
      vertex 4 6 0
      vertex 4 6 3
    endloop
  endfacet
  facet normal 1 -0 0
    outer loop
      vertex 4 10 3
      vertex 4 12 0
      vertex 4 12 3
    endloop
  endfacet
  facet normal 1 0 0
    outer loop
      vertex 4 12 0
      vertex 4 10 3
      vertex 4 10 0
    endloop
  endfacet
  facet normal 0 1 -0
    outer loop
      vertex 4 12 0
      vertex 2 12 3
      vertex 4 12 3
    endloop
  endfacet
  facet normal 0 1 0
    outer loop
      vertex 2 12 3
      vertex 4 12 0
      vertex 2 12 0
    endloop
  endfacet
  facet normal 0 -1 0
    outer loop
      vertex 2 8 0
      vertex 4 8 3
      vertex 2 8 3
    endloop
  endfacet
  facet normal 0 -1 -0
    outer loop
      vertex 4 8 3
      vertex 2 8 0
      vertex 4 8 0
    endloop
  endfacet
  facet normal -1 0 0
    outer loop
      vertex 2 8 0
      vertex 2 10 3
      vertex 2 10 0
    endloop
  endfacet
  facet normal -1 -0 0
    outer loop
      vertex 2 10 3
      vertex 2 8 0
      vertex 2 8 3
    endloop
  endfacet
  facet normal 1 -0 0
    outer loop
      vertex 2 12 3
      vertex 2 14 0
      vertex 2 14 3
    endloop
  endfacet
  facet normal 1 0 0
    outer loop
      vertex 2 14 0
      vertex 2 12 3
      vertex 2 12 0
    endloop
  endfacet
  facet normal 0 -1 0
    outer loop
      vertex 2.22045e-15 10 0
      vertex 2 10 3
      vertex 2.22045e-15 10 3
    endloop
  endfacet
  facet normal 0 -1 -0
    outer loop
      vertex 2 10 3
      vertex 2.22045e-15 10 0
      vertex 2 10 0
    endloop
  endfacet
  facet normal -1 2.22045e-16 0
    outer loop
      vertex 2.22045e-15 10 0
      vertex 2.66454e-15 12 3
      vertex 2.66454e-15 12 0
    endloop
  endfacet
  facet normal -1 2.22045e-16 0
    outer loop
      vertex 2.66454e-15 12 3
      vertex 2.22045e-15 10 0
      vertex 2.22045e-15 10 3
    endloop
  endfacet
endsolid OpenSCAD_Model
