solid OpenSCAD_Model
  facet normal -1 0 0
    outer loop
      vertex -35 30 -15
      vertex -35 50 5.5
      vertex -35 50 -15
    endloop
  endfacet
  facet normal -1 -0 0
    outer loop
      vertex -35 50 5.5
      vertex -35 30 -15
      vertex -35 30 5.5
    endloop
  endfacet
  facet normal -0 0 1
    outer loop
      vertex 32 50 15
      vertex 37 30 15
      vertex 37 50 15
    endloop
  endfacet
  facet normal 0 0 1
    outer loop
      vertex 37 30 15
      vertex 32 50 15
      vertex 32 30 15
    endloop
  endfacet
  facet normal -0 0 1
    outer loop
      vertex -37 50 15
      vertex -32 30 15
      vertex -32 50 15
    endloop
  endfacet
  facet normal 0 0 1
    outer loop
      vertex -32 30 15
      vertex -37 50 15
      vertex -37 30 15
    endloop
  endfacet
  facet normal 1 -0 0
    outer loop
      vertex 35 30 5.5
      vertex 35 50 -15
      vertex 35 50 5.5
    endloop
  endfacet
  facet normal 1 0 0
    outer loop
      vertex 35 50 -15
      vertex 35 30 5.5
      vertex 35 30 -15
    endloop
  endfacet
  facet normal 0 0 -1
    outer loop
      vertex -35 30 -15
      vertex 35 50 -15
      vertex 35 30 -15
    endloop
  endfacet
  facet normal -0 0 -1
    outer loop
      vertex 35 50 -15
      vertex -35 30 -15
      vertex -35 50 -15
    endloop
  endfacet
  facet normal 0 -1 0
    outer loop
      vertex -35 30 5.5
      vertex -32 30 -13
      vertex -33 30 5.5
    endloop
  endfacet
  facet normal 0 -1 -0
    outer loop
      vertex -32 30 -13
      vertex -35 30 -15
      vertex 32 30 -13
    endloop
  endfacet
  facet normal 0 -1 0
    outer loop
      vertex -35 30 -15
      vertex -32 30 -13
      vertex -35 30 5.5
    endloop
  endfacet
  facet normal 0 -1 0
    outer loop
      vertex -34 30 11.5
      vertex -37 30 15
      vertex -37 30 11.5
    endloop
  endfacet
  facet normal 0 -1 0
    outer loop
      vertex -37 30 15
      vertex -34 30 11.5
      vertex -32 30 15
    endloop
  endfacet
  facet normal 0 -1 0
    outer loop
      vertex -33 30 11.5
      vertex -32 30 15
      vertex -34 30 11.5
    endloop
  endfacet
  facet normal 0 -1 0
    outer loop
      vertex -33 30 5.5
      vertex -32 30 15
      vertex -33 30 11.5
    endloop
  endfacet
  facet normal 0 -1 -0
    outer loop
      vertex -32 30 15
      vertex -33 30 5.5
      vertex -32 30 -13
    endloop
  endfacet
  facet normal 0 -1 0
    outer loop
      vertex 34 30 11.5
      vertex 32 30 15
      vertex 33 30 11.5
    endloop
  endfacet
  facet normal 0 -1 0
    outer loop
      vertex 32 30 15
      vertex 33 30 5.5
      vertex 33 30 11.5
    endloop
  endfacet
  facet normal 0 -1 0
    outer loop
      vertex 32 30 -13
      vertex 33 30 5.5
      vertex 32 30 15
    endloop
  endfacet
  facet normal 0 -1 0
    outer loop
      vertex 32 30 -13
      vertex 35 30 5.5
      vertex 33 30 5.5
    endloop
  endfacet
  facet normal 0 -1 0
    outer loop
      vertex 32 30 -13
      vertex 35 30 -15
      vertex 35 30 5.5
    endloop
  endfacet
  facet normal 0 -1 0
    outer loop
      vertex 35 30 -15
      vertex 32 30 -13
      vertex -35 30 -15
    endloop
  endfacet
  facet normal 0 -1 0
    outer loop
      vertex 32 30 15
      vertex 34 30 11.5
      vertex 37 30 15
    endloop
  endfacet
  facet normal 0 -1 -0
    outer loop
      vertex 37 30 15
      vertex 34 30 11.5
      vertex 37 30 11.5
    endloop
  endfacet
  facet normal 0 1 0
    outer loop
      vertex 35 50 5.5
      vertex 32 50 -13
      vertex 33 50 5.5
    endloop
  endfacet
  facet normal 0 1 0
    outer loop
      vertex 32 50 -13
      vertex 35 50 -15
      vertex -32 50 -13
    endloop
  endfacet
  facet normal 0 1 -0
    outer loop
      vertex 35 50 -15
      vertex 32 50 -13
      vertex 35 50 5.5
    endloop
  endfacet
  facet normal 0 1 0
    outer loop
      vertex 34 50 11.5
      vertex 37 50 15
      vertex 37 50 11.5
    endloop
  endfacet
  facet normal 0 1 0
    outer loop
      vertex 37 50 15
      vertex 34 50 11.5
      vertex 32 50 15
    endloop
  endfacet
  facet normal 0 1 -0
    outer loop
      vertex 33 50 11.5
      vertex 32 50 15
      vertex 34 50 11.5
    endloop
  endfacet
  facet normal 0 1 -0
    outer loop
      vertex 33 50 5.5
      vertex 32 50 15
      vertex 33 50 11.5
    endloop
  endfacet
  facet normal 0 1 0
    outer loop
      vertex 32 50 15
      vertex 33 50 5.5
      vertex 32 50 -13
    endloop
  endfacet
  facet normal 0 1 0
    outer loop
      vertex -34 50 11.5
      vertex -32 50 15
      vertex -33 50 11.5
    endloop
  endfacet
  facet normal 0 1 0
    outer loop
      vertex -32 50 15
      vertex -33 50 5.5
      vertex -33 50 11.5
    endloop
  endfacet
  facet normal 0 1 -0
    outer loop
      vertex -32 50 -13
      vertex -33 50 5.5
      vertex -32 50 15
    endloop
  endfacet
  facet normal 0 1 0
    outer loop
      vertex -32 50 -13
      vertex -35 50 5.5
      vertex -33 50 5.5
    endloop
  endfacet
  facet normal 0 1 0
    outer loop
      vertex -32 50 -13
      vertex -35 50 -15
      vertex -35 50 5.5
    endloop
  endfacet
  facet normal 0 1 0
    outer loop
      vertex -35 50 -15
      vertex -32 50 -13
      vertex 35 50 -15
    endloop
  endfacet
  facet normal 0 1 0
    outer loop
      vertex -32 50 15
      vertex -34 50 11.5
      vertex -37 50 15
    endloop
  endfacet
  facet normal 0 1 0
    outer loop
      vertex -37 50 15
      vertex -34 50 11.5
      vertex -37 50 11.5
    endloop
  endfacet
  facet normal 1 -0 0
    outer loop
      vertex -32 30 15
      vertex -32 50 -13
      vertex -32 50 15
    endloop
  endfacet
  facet normal 1 0 0
    outer loop
      vertex -32 50 -13
      vertex -32 30 15
      vertex -32 30 -13
    endloop
  endfacet
  facet normal -1 0 0
    outer loop
      vertex 32 30 -13
      vertex 32 50 15
      vertex 32 50 -13
    endloop
  endfacet
  facet normal -1 -0 0
    outer loop
      vertex 32 50 15
      vertex 32 30 -13
      vertex 32 30 15
    endloop
  endfacet
  facet normal -0 0 1
    outer loop
      vertex -32 50 -13
      vertex 32 30 -13
      vertex 32 50 -13
    endloop
  endfacet
  facet normal 0 0 1
    outer loop
      vertex 32 30 -13
      vertex -32 50 -13
      vertex -32 30 -13
    endloop
  endfacet
  facet normal 0 0 -1
    outer loop
      vertex -37 30 11.5
      vertex -34 50 11.5
      vertex -34 30 11.5
    endloop
  endfacet
  facet normal -0 0 -1
    outer loop
      vertex -34 50 11.5
      vertex -37 30 11.5
      vertex -37 50 11.5
    endloop
  endfacet
  facet normal 0 0 -1
    outer loop
      vertex -34 30 11.5
      vertex -33 50 11.5
      vertex -33 30 11.5
    endloop
  endfacet
  facet normal -0 0 -1
    outer loop
      vertex -33 50 11.5
      vertex -34 30 11.5
      vertex -34 50 11.5
    endloop
  endfacet
  facet normal -1 0 0
    outer loop
      vertex -33 30 5.5
      vertex -33 50 11.5
      vertex -33 50 5.5
    endloop
  endfacet
  facet normal -1 -0 0
    outer loop
      vertex -33 50 11.5
      vertex -33 30 5.5
      vertex -33 30 11.5
    endloop
  endfacet
  facet normal -0 0 1
    outer loop
      vertex -35 50 5.5
      vertex -33 30 5.5
      vertex -33 50 5.5
    endloop
  endfacet
  facet normal 0 0 1
    outer loop
      vertex -33 30 5.5
      vertex -35 50 5.5
      vertex -35 30 5.5
    endloop
  endfacet
  facet normal 1 -0 0
    outer loop
      vertex 33 30 11.5
      vertex 33 50 5.5
      vertex 33 50 11.5
    endloop
  endfacet
  facet normal 1 0 0
    outer loop
      vertex 33 50 5.5
      vertex 33 30 11.5
      vertex 33 30 5.5
    endloop
  endfacet
  facet normal 0 0 -1
    outer loop
      vertex 33 30 11.5
      vertex 34 50 11.5
      vertex 34 30 11.5
    endloop
  endfacet
  facet normal -0 0 -1
    outer loop
      vertex 34 50 11.5
      vertex 33 30 11.5
      vertex 33 50 11.5
    endloop
  endfacet
  facet normal 0 0 -1
    outer loop
      vertex 34 30 11.5
      vertex 37 50 11.5
      vertex 37 30 11.5
    endloop
  endfacet
  facet normal -0 0 -1
    outer loop
      vertex 37 50 11.5
      vertex 34 30 11.5
      vertex 34 50 11.5
    endloop
  endfacet
  facet normal -0 0 1
    outer loop
      vertex 33 50 5.5
      vertex 35 30 5.5
      vertex 35 50 5.5
    endloop
  endfacet
  facet normal 0 0 1
    outer loop
      vertex 35 30 5.5
      vertex 33 50 5.5
      vertex 33 30 5.5
    endloop
  endfacet
  facet normal -1 0 0
    outer loop
      vertex -37 30 11.5
      vertex -37 50 15
      vertex -37 50 11.5
    endloop
  endfacet
  facet normal -1 -0 0
    outer loop
      vertex -37 50 15
      vertex -37 30 11.5
      vertex -37 30 15
    endloop
  endfacet
  facet normal 1 -0 0
    outer loop
      vertex 37 30 15
      vertex 37 50 11.5
      vertex 37 50 15
    endloop
  endfacet
  facet normal 1 0 0
    outer loop
      vertex 37 50 11.5
      vertex 37 30 15
      vertex 37 30 11.5
    endloop
  endfacet
endsolid OpenSCAD_Model
