solid ascii
  facet normal 9.198751e-001 -3.922114e-001 0.000000e+000
    outer loop
      vertex   2.213727e+002 4.217386e+002 1.500000e+000
      vertex   2.212182e+002 4.213764e+002 1.500000e+000
      vertex   2.213727e+002 4.217386e+002 -5.378785e-015
    endloop
  endfacet
  facet normal 9.198751e-001 -3.922114e-001 0.000000e+000
    outer loop
      vertex   2.213727e+002 4.217386e+002 -5.378785e-015
      vertex   2.212182e+002 4.213764e+002 1.500000e+000
      vertex   2.212182e+002 4.213764e+002 -3.352169e-014
    endloop
  endfacet
  facet normal 8.972263e-001 -4.415711e-001 0.000000e+000
    outer loop
      vertex   2.212182e+002 4.213764e+002 -3.352169e-014
      vertex   2.212182e+002 4.213764e+002 1.500000e+000
      vertex   2.210444e+002 4.210232e+002 1.500000e+000
    endloop
  endfacet
  facet normal 8.719312e-001 -4.896283e-001 0.000000e+000
    outer loop
      vertex   2.210444e+002 4.210232e+002 -3.348308e-014
      vertex   2.210444e+002 4.210232e+002 1.500000e+000
      vertex   2.208516e+002 4.206799e+002 1.500000e+000
    endloop
  endfacet
  facet normal 8.440646e-001 -5.362415e-001 0.000000e+000
    outer loop
      vertex   2.208516e+002 4.206799e+002 -3.344027e-014
      vertex   2.208516e+002 4.206799e+002 1.500000e+000
      vertex   2.206405e+002 4.203475e+002 1.500000e+000
    endloop
  endfacet
  facet normal 8.137085e-001 -5.812732e-001 0.000000e+000
    outer loop
      vertex   2.206405e+002 4.203475e+002 -3.339339e-014
      vertex   2.206405e+002 4.203475e+002 1.500000e+000
      vertex   2.204116e+002 4.200271e+002 1.500000e+000
    endloop
  endfacet
  facet normal 7.809525e-001 -6.245904e-001 0.000000e+000
    outer loop
      vertex   2.204116e+002 4.200271e+002 -3.334257e-014
      vertex   2.204116e+002 4.200271e+002 1.500000e+000
      vertex   2.201657e+002 4.197196e+002 1.500000e+000
    endloop
  endfacet
  facet normal 7.458932e-001 -6.660656e-001 0.000000e+000
    outer loop
      vertex   2.201657e+002 4.197196e+002 -3.328797e-014
      vertex   2.201657e+002 4.197196e+002 1.500000e+000
      vertex   2.199034e+002 4.194260e+002 1.500000e+000
    endloop
  endfacet
  facet normal 7.086340e-001 -7.055762e-001 0.000000e+000
    outer loop
      vertex   2.199034e+002 4.194260e+002 -3.322974e-014
      vertex   2.199034e+002 4.194260e+002 1.500000e+000
      vertex   2.196256e+002 4.191470e+002 1.500000e+000
    endloop
  endfacet
  facet normal 6.692848e-001 -7.430059e-001 0.000000e+000
    outer loop
      vertex   2.196256e+002 4.191470e+002 -3.316805e-014
      vertex   2.196256e+002 4.191470e+002 1.500000e+000
      vertex   2.193331e+002 4.188834e+002 1.500000e+000
    endloop
  endfacet
  facet normal 6.279617e-001 -7.782442e-001 0.000000e+000
    outer loop
      vertex   2.193331e+002 4.188834e+002 -3.310309e-014
      vertex   2.193331e+002 4.188834e+002 1.500000e+000
      vertex   2.190267e+002 4.186362e+002 1.500000e+000
    endloop
  endfacet
  facet normal 5.847865e-001 -8.111873e-001 0.000000e+000
    outer loop
      vertex   2.190267e+002 4.186362e+002 -3.303505e-014
      vertex   2.190267e+002 4.186362e+002 1.500000e+000
      vertex   2.187073e+002 4.184059e+002 1.500000e+000
    endloop
  endfacet
  facet normal 5.398865e-001 -8.417378e-001 0.000000e+000
    outer loop
      vertex   2.187073e+002 4.184059e+002 -3.296414e-014
      vertex   2.187073e+002 4.184059e+002 1.500000e+000
      vertex   2.183759e+002 4.181934e+002 1.500000e+000
    endloop
  endfacet
  facet normal 4.933943e-001 -8.698058e-001 0.000000e+000
    outer loop
      vertex   2.183759e+002 4.181934e+002 -3.289055e-014
      vertex   2.183759e+002 4.181934e+002 1.500000e+000
      vertex   2.180334e+002 4.179991e+002 1.500000e+000
    endloop
  endfacet
  facet normal 4.454469e-001 -8.953084e-001 0.000000e+000
    outer loop
      vertex   2.180334e+002 4.179991e+002 -3.281450e-014
      vertex   2.180334e+002 4.179991e+002 1.500000e+000
      vertex   2.176809e+002 4.178237e+002 1.500000e+000
    endloop
  endfacet
  facet normal 3.961856e-001 -9.181704e-001 0.000000e+000
    outer loop
      vertex   2.176809e+002 4.178237e+002 -3.273623e-014
      vertex   2.176809e+002 4.178237e+002 1.500000e+000
      vertex   2.173194e+002 4.176677e+002 1.500000e+000
    endloop
  endfacet
  facet normal 3.457559e-001 -9.383245e-001 0.000000e+000
    outer loop
      vertex   2.173194e+002 4.176677e+002 -3.265596e-014
      vertex   2.173194e+002 4.176677e+002 1.500000e+000
      vertex   2.169499e+002 4.175316e+002 1.500000e+000
    endloop
  endfacet
  facet normal 2.943065e-001 -9.557111e-001 0.000000e+000
    outer loop
      vertex   2.169499e+002 4.175316e+002 -3.257392e-014
      vertex   2.169499e+002 4.175316e+002 1.500000e+000
      vertex   2.165736e+002 4.174157e+002 1.500000e+000
    endloop
  endfacet
  facet normal 2.419890e-001 -9.702790e-001 0.000000e+000
    outer loop
      vertex   2.165736e+002 4.174157e+002 -3.249037e-014
      vertex   2.165736e+002 4.174157e+002 1.500000e+000
      vertex   2.161916e+002 4.173204e+002 1.500000e+000
    endloop
  endfacet
  facet normal 1.889579e-001 -9.819852e-001 0.000000e+000
    outer loop
      vertex   2.161916e+002 4.173204e+002 -3.240554e-014
      vertex   2.161916e+002 4.173204e+002 1.500000e+000
      vertex   2.158049e+002 4.172460e+002 1.500000e+000
    endloop
  endfacet
  facet normal 1.353694e-001 -9.907952e-001 0.000000e+000
    outer loop
      vertex   2.158049e+002 4.172460e+002 -3.231969e-014
      vertex   2.158049e+002 4.172460e+002 1.500000e+000
      vertex   2.154148e+002 4.171927e+002 1.500000e+000
    endloop
  endfacet
  facet normal 8.138166e-002 -9.966830e-001 0.000000e+000
    outer loop
      vertex   2.154148e+002 4.171927e+002 -3.223307e-014
      vertex   2.154148e+002 4.171927e+002 1.500000e+000
      vertex   2.150224e+002 4.171607e+002 1.500000e+000
    endloop
  endfacet
  facet normal 2.715392e-002 -9.996313e-001 0.000000e+000
    outer loop
      vertex   2.150224e+002 4.171607e+002 -3.214593e-014
      vertex   2.150224e+002 4.171607e+002 1.500000e+000
      vertex   2.146288e+002 4.171500e+002 1.500000e+000
    endloop
  endfacet
  facet normal 2.715392e-002 -9.996313e-001 0.000000e+000
    outer loop
      vertex   2.146288e+002 4.171500e+002 -2.978149e-014
      vertex   2.150224e+002 4.171607e+002 -3.214593e-014
      vertex   2.146288e+002 4.171500e+002 1.500000e+000
    endloop
  endfacet
  facet normal 8.972263e-001 -4.415711e-001 0.000000e+000
    outer loop
      vertex   2.212182e+002 4.213764e+002 -3.352169e-014
      vertex   2.210444e+002 4.210232e+002 1.500000e+000
      vertex   2.210444e+002 4.210232e+002 -3.348308e-014
    endloop
  endfacet
  facet normal 8.719312e-001 -4.896283e-001 0.000000e+000
    outer loop
      vertex   2.210444e+002 4.210232e+002 -3.348308e-014
      vertex   2.208516e+002 4.206799e+002 1.500000e+000
      vertex   2.208516e+002 4.206799e+002 -3.344027e-014
    endloop
  endfacet
  facet normal 8.440646e-001 -5.362415e-001 0.000000e+000
    outer loop
      vertex   2.208516e+002 4.206799e+002 -3.344027e-014
      vertex   2.206405e+002 4.203475e+002 1.500000e+000
      vertex   2.206405e+002 4.203475e+002 -3.339339e-014
    endloop
  endfacet
  facet normal 8.137085e-001 -5.812732e-001 0.000000e+000
    outer loop
      vertex   2.206405e+002 4.203475e+002 -3.339339e-014
      vertex   2.204116e+002 4.200271e+002 1.500000e+000
      vertex   2.204116e+002 4.200271e+002 -3.334257e-014
    endloop
  endfacet
  facet normal 7.809525e-001 -6.245904e-001 0.000000e+000
    outer loop
      vertex   2.204116e+002 4.200271e+002 -3.334257e-014
      vertex   2.201657e+002 4.197196e+002 1.500000e+000
      vertex   2.201657e+002 4.197196e+002 -3.328797e-014
    endloop
  endfacet
  facet normal 7.458932e-001 -6.660656e-001 0.000000e+000
    outer loop
      vertex   2.201657e+002 4.197196e+002 -3.328797e-014
      vertex   2.199034e+002 4.194260e+002 1.500000e+000
      vertex   2.199034e+002 4.194260e+002 -3.322974e-014
    endloop
  endfacet
  facet normal 7.086340e-001 -7.055762e-001 0.000000e+000
    outer loop
      vertex   2.199034e+002 4.194260e+002 -3.322974e-014
      vertex   2.196256e+002 4.191470e+002 1.500000e+000
      vertex   2.196256e+002 4.191470e+002 -3.316805e-014
    endloop
  endfacet
  facet normal 6.692848e-001 -7.430059e-001 0.000000e+000
    outer loop
      vertex   2.196256e+002 4.191470e+002 -3.316805e-014
      vertex   2.193331e+002 4.188834e+002 1.500000e+000
      vertex   2.193331e+002 4.188834e+002 -3.310309e-014
    endloop
  endfacet
  facet normal 6.279617e-001 -7.782442e-001 0.000000e+000
    outer loop
      vertex   2.193331e+002 4.188834e+002 -3.310309e-014
      vertex   2.190267e+002 4.186362e+002 1.500000e+000
      vertex   2.190267e+002 4.186362e+002 -3.303505e-014
    endloop
  endfacet
  facet normal 5.847865e-001 -8.111873e-001 0.000000e+000
    outer loop
      vertex   2.190267e+002 4.186362e+002 -3.303505e-014
      vertex   2.187073e+002 4.184059e+002 1.500000e+000
      vertex   2.187073e+002 4.184059e+002 -3.296414e-014
    endloop
  endfacet
  facet normal 5.398865e-001 -8.417378e-001 0.000000e+000
    outer loop
      vertex   2.187073e+002 4.184059e+002 -3.296414e-014
      vertex   2.183759e+002 4.181934e+002 1.500000e+000
      vertex   2.183759e+002 4.181934e+002 -3.289055e-014
    endloop
  endfacet
  facet normal 4.933943e-001 -8.698058e-001 0.000000e+000
    outer loop
      vertex   2.183759e+002 4.181934e+002 -3.289055e-014
      vertex   2.180334e+002 4.179991e+002 1.500000e+000
      vertex   2.180334e+002 4.179991e+002 -3.281450e-014
    endloop
  endfacet
  facet normal 4.454469e-001 -8.953084e-001 0.000000e+000
    outer loop
      vertex   2.180334e+002 4.179991e+002 -3.281450e-014
      vertex   2.176809e+002 4.178237e+002 1.500000e+000
      vertex   2.176809e+002 4.178237e+002 -3.273623e-014
    endloop
  endfacet
  facet normal 3.961856e-001 -9.181704e-001 0.000000e+000
    outer loop
      vertex   2.176809e+002 4.178237e+002 -3.273623e-014
      vertex   2.173194e+002 4.176677e+002 1.500000e+000
      vertex   2.173194e+002 4.176677e+002 -3.265596e-014
    endloop
  endfacet
  facet normal 3.457559e-001 -9.383245e-001 0.000000e+000
    outer loop
      vertex   2.173194e+002 4.176677e+002 -3.265596e-014
      vertex   2.169499e+002 4.175316e+002 1.500000e+000
      vertex   2.169499e+002 4.175316e+002 -3.257392e-014
    endloop
  endfacet
  facet normal 2.943065e-001 -9.557111e-001 0.000000e+000
    outer loop
      vertex   2.169499e+002 4.175316e+002 -3.257392e-014
      vertex   2.165736e+002 4.174157e+002 1.500000e+000
      vertex   2.165736e+002 4.174157e+002 -3.249037e-014
    endloop
  endfacet
  facet normal 2.419890e-001 -9.702790e-001 0.000000e+000
    outer loop
      vertex   2.165736e+002 4.174157e+002 -3.249037e-014
      vertex   2.161916e+002 4.173204e+002 1.500000e+000
      vertex   2.161916e+002 4.173204e+002 -3.240554e-014
    endloop
  endfacet
  facet normal 1.889579e-001 -9.819852e-001 0.000000e+000
    outer loop
      vertex   2.161916e+002 4.173204e+002 -3.240554e-014
      vertex   2.158049e+002 4.172460e+002 1.500000e+000
      vertex   2.158049e+002 4.172460e+002 -3.231969e-014
    endloop
  endfacet
  facet normal 1.353694e-001 -9.907952e-001 0.000000e+000
    outer loop
      vertex   2.158049e+002 4.172460e+002 -3.231969e-014
      vertex   2.154148e+002 4.171927e+002 1.500000e+000
      vertex   2.154148e+002 4.171927e+002 -3.223307e-014
    endloop
  endfacet
  facet normal 8.138166e-002 -9.966830e-001 0.000000e+000
    outer loop
      vertex   2.154148e+002 4.171927e+002 -3.223307e-014
      vertex   2.150224e+002 4.171607e+002 1.500000e+000
      vertex   2.150224e+002 4.171607e+002 -3.214593e-014
    endloop
  endfacet
  facet normal -1.182983e-012 5.820972e-013 -1.000000e+000
    outer loop
      vertex   2.212182e+002 4.213764e+002 -3.352169e-014
      vertex   2.210444e+002 4.210232e+002 -3.348308e-014
      vertex   2.213727e+002 4.217386e+002 -5.378785e-015
    endloop
  endfacet
  facet normal -3.837377e-013 2.153612e-013 -1.000000e+000
    outer loop
      vertex   2.213727e+002 4.217386e+002 -5.378785e-015
      vertex   2.210444e+002 4.210232e+002 -3.348308e-014
      vertex   2.208516e+002 4.206799e+002 -3.344027e-014
    endloop
  endfacet
  facet normal -1.861255e-013 1.181061e-013 -1.000000e+000
    outer loop
      vertex   2.206405e+002 4.203475e+002 -3.339339e-014
      vertex   2.213727e+002 4.217386e+002 -5.378785e-015
      vertex   2.208516e+002 4.206799e+002 -3.344027e-014
    endloop
  endfacet
  facet normal -1.079645e-013 7.696586e-014 -1.000000e+000
    outer loop
      vertex   2.206405e+002 4.203475e+002 -3.339339e-014
      vertex   2.204116e+002 4.200271e+002 -3.334257e-014
      vertex   2.213727e+002 4.217386e+002 -5.378785e-015
    endloop
  endfacet
  facet normal -6.932876e-014 5.527019e-014 -1.000000e+000
    outer loop
      vertex   2.213727e+002 4.217386e+002 -5.378785e-015
      vertex   2.204116e+002 4.200271e+002 -3.334257e-014
      vertex   2.201657e+002 4.197196e+002 -3.328797e-014
    endloop
  endfacet
  facet normal -4.750752e-014 4.222485e-014 -1.000000e+000
    outer loop
      vertex   2.199034e+002 4.194260e+002 -3.322974e-014
      vertex   2.213727e+002 4.217386e+002 -5.378785e-015
      vertex   2.201657e+002 4.197196e+002 -3.328797e-014
    endloop
  endfacet
  facet normal -3.403108e-014 3.366315e-014 -1.000000e+000
    outer loop
      vertex   2.199034e+002 4.194260e+002 -3.322974e-014
      vertex   2.196256e+002 4.191470e+002 -3.316805e-014
      vertex   2.213727e+002 4.217386e+002 -5.378785e-015
    endloop
  endfacet
  facet normal -2.515599e-014 2.768040e-014 -1.000000e+000
    outer loop
      vertex   2.213727e+002 4.217386e+002 -5.378785e-015
      vertex   2.196256e+002 4.191470e+002 -3.316805e-014
      vertex   2.193331e+002 4.188834e+002 -3.310309e-014
    endloop
  endfacet
  facet normal -1.902096e-014 2.329784e-014 -1.000000e+000
    outer loop
      vertex   2.190267e+002 4.186362e+002 -3.303505e-014
      vertex   2.213727e+002 4.217386e+002 -5.378785e-015
      vertex   2.193331e+002 4.188834e+002 -3.310309e-014
    endloop
  endfacet
  facet normal -1.461642e-014 1.996717e-014 -1.000000e+000
    outer loop
      vertex   2.190267e+002 4.186362e+002 -3.303505e-014
      vertex   2.187073e+002 4.184059e+002 -3.296414e-014
      vertex   2.213727e+002 4.217386e+002 -5.378785e-015
    endloop
  endfacet
  facet normal -1.135678e-014 1.736018e-014 -1.000000e+000
    outer loop
      vertex   2.213727e+002 4.217386e+002 -5.378785e-015
      vertex   2.187073e+002 4.184059e+002 -3.296414e-014
      vertex   2.183759e+002 4.181934e+002 -3.289055e-014
    endloop
  endfacet
  facet normal -6.707631e-015 1.143345e-014 -1.000000e+000
    outer loop
      vertex   2.215749e+002 4.222211e+002 -8.297058e-015
      vertex   2.183759e+002 4.181934e+002 -3.289055e-014
      vertex   2.180334e+002 4.179991e+002 -3.281450e-014
    endloop
  endfacet
  facet normal -5.339689e-015 1.028601e-014 -1.000000e+000
    outer loop
      vertex   2.176809e+002 4.178237e+002 -3.273623e-014
      vertex   2.215749e+002 4.222211e+002 -8.297058e-015
      vertex   2.180334e+002 4.179991e+002 -3.281450e-014
    endloop
  endfacet
  facet normal -4.240347e-015 9.312520e-015 -1.000000e+000
    outer loop
      vertex   2.176809e+002 4.178237e+002 -3.273623e-014
      vertex   2.173194e+002 4.176677e+002 -3.265596e-014
      vertex   2.215749e+002 4.222211e+002 -8.297058e-015
    endloop
  endfacet
  facet normal -3.345317e-015 8.476046e-015 -1.000000e+000
    outer loop
      vertex   2.215749e+002 4.222211e+002 -8.297058e-015
      vertex   2.173194e+002 4.176677e+002 -3.265596e-014
      vertex   2.169499e+002 4.175316e+002 -3.257392e-014
    endloop
  endfacet
  facet normal -2.608395e-015 7.749273e-015 -1.000000e+000
    outer loop
      vertex   2.165736e+002 4.174157e+002 -3.249037e-014
      vertex   2.215749e+002 4.222211e+002 -8.297058e-015
      vertex   2.169499e+002 4.175316e+002 -3.257392e-014
    endloop
  endfacet
  facet normal -1.995687e-015 7.111597e-015 -1.000000e+000
    outer loop
      vertex   2.165736e+002 4.174157e+002 -3.249037e-014
      vertex   2.161916e+002 4.173204e+002 -3.240554e-014
      vertex   2.215749e+002 4.222211e+002 -8.297058e-015
    endloop
  endfacet
  facet normal -1.481885e-015 6.547199e-015 -1.000000e+000
    outer loop
      vertex   2.215749e+002 4.222211e+002 -8.297058e-015
      vertex   2.161916e+002 4.173204e+002 -3.240554e-014
      vertex   2.158049e+002 4.172460e+002 -3.231969e-014
    endloop
  endfacet
  facet normal -1.047784e-015 6.043746e-015 -1.000000e+000
    outer loop
      vertex   2.154148e+002 4.171927e+002 -3.223307e-014
      vertex   2.215749e+002 4.222211e+002 -8.297058e-015
      vertex   2.158049e+002 4.172460e+002 -3.231969e-014
    endloop
  endfacet
  facet normal -6.786031e-016 5.591482e-015 -1.000000e+000
    outer loop
      vertex   2.154148e+002 4.171927e+002 -3.223307e-014
      vertex   2.150224e+002 4.171607e+002 -3.214593e-014
      vertex   2.215749e+002 4.222211e+002 -8.297058e-015
    endloop
  endfacet
  facet normal -6.359113e-015 1.294682e-014 -1.000000e+000
    outer loop
      vertex   2.215749e+002 4.222211e+002 -8.297058e-015
      vertex   2.150224e+002 4.171607e+002 -3.214593e-014
      vertex   2.146288e+002 4.171500e+002 -2.978149e-014
    endloop
  endfacet
  facet normal 1.402400e-014 -1.483382e-014 -1.000000e+000
    outer loop
      vertex   2.217971e+002 4.226948e+002 -1.150420e-014
      vertex   2.146288e+002 4.171500e+002 -2.978149e-014
      vertex   2.220389e+002 4.231587e+002 -1.499459e-014
    endloop
  endfacet
  facet normal 1.222310e-014 -1.250563e-014 -1.000000e+000
    outer loop
      vertex   2.217971e+002 4.226948e+002 -1.150420e-014
      vertex   2.215749e+002 4.222211e+002 -8.297058e-015
      vertex   2.146288e+002 4.171500e+002 -2.978149e-014
    endloop
  endfacet
  facet normal 3.239234e-014 -1.962133e-014 -1.000000e+000
    outer loop
      vertex   2.213727e+002 4.217386e+002 -5.378785e-015
      vertex   2.183759e+002 4.181934e+002 -3.289055e-014
      vertex   2.215749e+002 4.222211e+002 -8.297058e-015
    endloop
  endfacet
  facet normal 1.638067e-014 -1.774012e-014 -1.000000e+000
    outer loop
      vertex   2.220389e+002 4.231587e+002 -1.499459e-014
      vertex   2.146288e+002 4.171500e+002 -2.978149e-014
      vertex   2.223000e+002 4.236121e+002 -1.876211e-014
    endloop
  endfacet
  facet normal 1.429268e-016 1.535559e-015 -1.000000e+000
    outer loop
      vertex   2.223000e+002 4.236121e+002 -1.876211e-014
      vertex   2.146288e+002 4.171500e+002 -2.978149e-014
      vertex   2.055000e+002 4.171500e+002 -3.108624e-014
    endloop
  endfacet
  facet normal 5.262943e-016 -1.018063e-016 -1.000000e+000
    outer loop
      vertex   2.225797e+002 4.240542e+002 -2.280017e-014
      vertex   2.055000e+002 4.171500e+002 -3.108624e-014
      vertex   2.125000e+002 4.582443e+002 -3.158585e-014
    endloop
  endfacet
  facet normal -1.013980e-014 -3.249773e-015 -1.000000e+000
    outer loop
      vertex   2.228778e+002 4.244842e+002 -2.710169e-014
      vertex   2.125000e+002 4.582443e+002 -3.158585e-014
      vertex   2.231935e+002 4.249013e+002 -3.165913e-014
    endloop
  endfacet
  facet normal -9.865801e-015 -3.165547e-015 -1.000000e+000
    outer loop
      vertex   2.228778e+002 4.244842e+002 -2.710169e-014
      vertex   2.225797e+002 4.240542e+002 -2.280017e-014
      vertex   2.125000e+002 4.582443e+002 -3.158585e-014
    endloop
  endfacet
  facet normal 0.000000e+000 0.000000e+000 -1.000000e+000
    outer loop
      vertex   2.055000e+002 4.156500e+002 -3.108624e-014
      vertex   1.855000e+002 4.156500e+002 -3.108624e-014
      vertex   2.055000e+002 4.171500e+002 -3.108624e-014
    endloop
  endfacet
  facet normal -0.000000e+000 0.000000e+000 -1.000000e+000
    outer loop
      vertex   2.055000e+002 4.171500e+002 -3.108624e-014
      vertex   1.855000e+002 4.156500e+002 -3.108624e-014
      vertex   1.855000e+002 4.171500e+002 -3.108624e-014
    endloop
  endfacet
  facet normal -0.000000e+000 -0.000000e+000 -1.000000e+000
    outer loop
      vertex   1.795000e+002 4.582443e+002 -3.108624e-014
      vertex   1.855000e+002 4.171500e+002 -3.108624e-014
      vertex   1.795000e+002 4.171500e+002 -3.108624e-014
    endloop
  endfacet
  facet normal -0.000000e+000 -0.000000e+000 -1.000000e+000
    outer loop
      vertex   1.795000e+002 4.582443e+002 -3.108624e-014
      vertex   2.055000e+002 4.171500e+002 -3.108624e-014
      vertex   1.855000e+002 4.171500e+002 -3.108624e-014
    endloop
  endfacet
  facet normal -1.513940e-017 -9.578566e-018 -1.000000e+000
    outer loop
      vertex   1.795000e+002 4.582443e+002 -3.108624e-014
      vertex   2.125000e+002 4.582443e+002 -3.158585e-014
      vertex   2.055000e+002 4.171500e+002 -3.108624e-014
    endloop
  endfacet
  facet normal 1.213467e-015 -2.840148e-015 -1.000000e+000
    outer loop
      vertex   2.455000e+002 4.582443e+002 8.458558e-015
      vertex   2.455000e+002 4.471500e+002 3.996803e-014
      vertex   2.125000e+002 4.582443e+002 -3.158585e-014
    endloop
  endfacet
  facet normal 2.577079e-015 1.215916e-015 -1.000000e+000
    outer loop
      vertex   2.125000e+002 4.582443e+002 -3.158585e-014
      vertex   2.455000e+002 4.471500e+002 3.996803e-014
      vertex   2.271424e+002 4.276212e+002 -3.108624e-014
    endloop
  endfacet
  facet normal -3.417152e-014 -1.635543e-014 -1.000000e+000
    outer loop
      vertex   2.267649e+002 4.275020e+002 -1.623695e-014
      vertex   2.125000e+002 4.582443e+002 -3.158585e-014
      vertex   2.271424e+002 4.276212e+002 -3.108624e-014
    endloop
  endfacet
  facet normal 6.181683e-015 2.369127e-015 -1.000000e+000
    outer loop
      vertex   2.267649e+002 4.275020e+002 -1.623695e-014
      vertex   2.263942e+002 4.273631e+002 -1.885762e-014
      vertex   2.125000e+002 4.582443e+002 -3.158585e-014
    endloop
  endfacet
  facet normal 3.529834e-015 1.175994e-015 -1.000000e+000
    outer loop
      vertex   2.125000e+002 4.582443e+002 -3.158585e-014
      vertex   2.263942e+002 4.273631e+002 -1.885762e-014
      vertex   2.260314e+002 4.272048e+002 -2.032459e-014
    endloop
  endfacet
  facet normal 8.659705e-016 1.470762e-017 -1.000000e+000
    outer loop
      vertex   2.256774e+002 4.270276e+002 -2.063374e-014
      vertex   2.125000e+002 4.582443e+002 -3.158585e-014
      vertex   2.260314e+002 4.272048e+002 -2.032459e-014
    endloop
  endfacet
  facet normal -1.829846e-015 -1.123266e-015 -1.000000e+000
    outer loop
      vertex   2.256774e+002 4.270276e+002 -2.063374e-014
      vertex   2.253332e+002 4.268319e+002 -1.978423e-014
      vertex   2.125000e+002 4.582443e+002 -3.158585e-014
    endloop
  endfacet
  facet normal -4.578328e-015 -2.246133e-015 -1.000000e+000
    outer loop
      vertex   2.125000e+002 4.582443e+002 -3.158585e-014
      vertex   2.253332e+002 4.268319e+002 -1.978423e-014
      vertex   2.249999e+002 4.266184e+002 -1.777843e-014
    endloop
  endfacet
  facet normal -7.401586e-015 -3.362003e-015 -1.000000e+000
    outer loop
      vertex   2.246783e+002 4.263876e+002 -1.462191e-014
      vertex   2.125000e+002 4.582443e+002 -3.158585e-014
      vertex   2.249999e+002 4.266184e+002 -1.777843e-014
    endloop
  endfacet
  facet normal -1.032384e-014 -4.479128e-015 -1.000000e+000
    outer loop
      vertex   2.246783e+002 4.263876e+002 -1.462191e-014
      vertex   2.243693e+002 4.261401e+002 -1.032347e-014
      vertex   2.125000e+002 4.582443e+002 -3.158585e-014
    endloop
  endfacet
  facet normal -1.337225e-014 -5.606159e-015 -1.000000e+000
    outer loop
      vertex   2.125000e+002 4.582443e+002 -3.158585e-014
      vertex   2.243693e+002 4.261401e+002 -1.032347e-014
      vertex   2.240738e+002 4.258767e+002 -4.895101e-015
    endloop
  endfacet
  facet normal -1.657798e-014 -6.752439e-015 -1.000000e+000
    outer loop
      vertex   2.237926e+002 4.255980e+002 1.648088e-015
      vertex   2.125000e+002 4.582443e+002 -3.158585e-014
      vertex   2.240738e+002 4.258767e+002 -4.895101e-015
    endloop
  endfacet
  facet normal 8.988910e-014 3.007527e-014 -1.000000e+000
    outer loop
      vertex   2.237926e+002 4.255980e+002 1.648088e-015
      vertex   2.235265e+002 4.253049e+002 -3.108624e-014
      vertex   2.125000e+002 4.582443e+002 -3.158585e-014
    endloop
  endfacet
  facet normal 1.237089e-015 3.989491e-016 -1.000000e+000
    outer loop
      vertex   2.125000e+002 4.582443e+002 -3.158585e-014
      vertex   2.235265e+002 4.253049e+002 -3.108624e-014
      vertex   2.231935e+002 4.249013e+002 -3.165913e-014
    endloop
  endfacet
  facet normal 3.870575e-015 0.000000e+000 -1.000000e+000
    outer loop
      vertex   2.271424e+002 4.276212e+002 -3.108624e-014
      vertex   2.455000e+002 4.471500e+002 3.996803e-014
      vertex   2.455000e+002 4.371500e+002 3.996803e-014
    endloop
  endfacet
  facet normal 3.924310e-014 0.000000e+000 -1.000000e+000
    outer loop
      vertex   2.436894e+002 4.323681e+002 -3.108624e-014
      vertex   2.455000e+002 4.371500e+002 3.996803e-014
      vertex   2.455000e+002 4.347712e+002 3.996803e-014
    endloop
  endfacet
  facet normal -1.237431e-014 3.698224e-014 -1.000000e+000
    outer loop
      vertex   2.439078e+002 4.324418e+002 -2.647438e-014
      vertex   2.455000e+002 4.347712e+002 3.996803e-014
      vertex   2.441185e+002 4.325353e+002 -2.562297e-014
    endloop
  endfacet
  facet normal 1.493205e-014 1.831740e-014 -1.000000e+000
    outer loop
      vertex   2.439078e+002 4.324418e+002 -2.647438e-014
      vertex   2.436894e+002 4.323681e+002 -3.108624e-014
      vertex   2.455000e+002 4.347712e+002 3.996803e-014
    endloop
  endfacet
  facet normal 0.000000e+000 0.000000e+000 -1.000000e+000
    outer loop
      vertex   2.470000e+002 4.371500e+002 3.996803e-014
      vertex   2.455000e+002 4.371500e+002 3.996803e-014
      vertex   2.470000e+002 4.471500e+002 3.996803e-014
    endloop
  endfacet
  facet normal -0.000000e+000 0.000000e+000 -1.000000e+000
    outer loop
      vertex   2.470000e+002 4.471500e+002 3.996803e-014
      vertex   2.455000e+002 4.371500e+002 3.996803e-014
      vertex   2.455000e+002 4.471500e+002 3.996803e-014
    endloop
  endfacet
  facet normal -4.782107e-015 1.666964e-014 -1.000000e+000
    outer loop
      vertex   2.271424e+002 4.276212e+002 -3.108624e-014
      vertex   2.455000e+002 4.371500e+002 3.996803e-014
      vertex   2.436894e+002 4.323681e+002 -3.108624e-014
    endloop
  endfacet
  facet normal -2.820875e-012 3.930644e-013 -1.000000e+000
    outer loop
      vertex   2.454894e+002 4.345409e+002 -2.056613e-014
      vertex   2.454576e+002 4.343125e+002 -2.062063e-014
      vertex   2.455000e+002 4.347712e+002 3.996803e-014
    endloop
  endfacet
  facet normal -9.240436e-013 2.175940e-013 -1.000000e+000
    outer loop
      vertex   2.455000e+002 4.347712e+002 3.996803e-014
      vertex   2.454576e+002 4.343125e+002 -2.062063e-014
      vertex   2.454049e+002 4.340881e+002 -2.076412e-014
    endloop
  endfacet
  facet normal -4.498443e-013 1.515586e-013 -1.000000e+000
    outer loop
      vertex   2.453317e+002 4.338695e+002 -2.099538e-014
      vertex   2.455000e+002 4.347712e+002 3.996803e-014
      vertex   2.454049e+002 4.340881e+002 -2.076412e-014
    endloop
  endfacet
  facet normal -2.601743e-013 1.161641e-013 -1.000000e+000
    outer loop
      vertex   2.453317e+002 4.338695e+002 -2.099538e-014
      vertex   2.452388e+002 4.336585e+002 -2.131244e-014
      vertex   2.455000e+002 4.347712e+002 3.996803e-014
    endloop
  endfacet
  facet normal -1.653499e-013 9.390041e-014 -1.000000e+000
    outer loop
      vertex   2.455000e+002 4.347712e+002 3.996803e-014
      vertex   2.452388e+002 4.336585e+002 -2.131244e-014
      vertex   2.451268e+002 4.334571e+002 -2.171261e-014
    endloop
  endfacet
  facet normal -1.111756e-013 7.851377e-014 -1.000000e+000
    outer loop
      vertex   2.449967e+002 4.332667e+002 -2.219248e-014
      vertex   2.455000e+002 4.347712e+002 3.996803e-014
      vertex   2.451268e+002 4.334571e+002 -2.171261e-014
    endloop
  endfacet
  facet normal -7.732832e-014 6.718976e-014 -1.000000e+000
    outer loop
      vertex   2.449967e+002 4.332667e+002 -2.219248e-014
      vertex   2.448496e+002 4.330892e+002 -2.274798e-014
      vertex   2.455000e+002 4.347712e+002 3.996803e-014
    endloop
  endfacet
  facet normal -5.477561e-014 5.846890e-014 -1.000000e+000
    outer loop
      vertex   2.455000e+002 4.347712e+002 3.996803e-014
      vertex   2.448496e+002 4.330892e+002 -2.274798e-014
      vertex   2.446868e+002 4.329260e+002 -2.337437e-014
    endloop
  endfacet
  facet normal -3.900128e-014 5.151702e-014 -1.000000e+000
    outer loop
      vertex   2.445097e+002 4.327785e+002 -2.406635e-014
      vertex   2.455000e+002 4.347712e+002 3.996803e-014
      vertex   2.446868e+002 4.329260e+002 -2.337437e-014
    endloop
  endfacet
  facet normal -2.754207e-014 4.582210e-014 -1.000000e+000
    outer loop
      vertex   2.445097e+002 4.327785e+002 -2.406635e-014
      vertex   2.443197e+002 4.326479e+002 -2.481801e-014
      vertex   2.455000e+002 4.347712e+002 3.996803e-014
    endloop
  endfacet
  facet normal -1.896112e-014 4.105214e-014 -1.000000e+000
    outer loop
      vertex   2.455000e+002 4.347712e+002 3.996803e-014
      vertex   2.443197e+002 4.326479e+002 -2.481801e-014
      vertex   2.441185e+002 4.325353e+002 -2.562297e-014
    endloop
  endfacet
  facet normal 5.613541e-015 -1.268672e-014 -1.000000e+000
    outer loop
      vertex   2.225797e+002 4.240542e+002 -2.280017e-014
      vertex   2.223000e+002 4.236121e+002 -1.876211e-014
      vertex   2.055000e+002 4.171500e+002 -3.108624e-014
    endloop
  endfacet
  facet normal 0.000000e+000 -1.000000e+000 -0.000000e+000
    outer loop
      vertex   2.146288e+002 4.171500e+002 1.500000e+000
      vertex   2.055000e+002 4.171500e+002 1.500000e+000
      vertex   2.146288e+002 4.171500e+002 -2.978149e-014
    endloop
  endfacet
  facet normal -0.000000e+000 -1.000000e+000 -0.000000e+000
    outer loop
      vertex   2.146288e+002 4.171500e+002 -2.978149e-014
      vertex   2.055000e+002 4.171500e+002 1.500000e+000
      vertex   2.055000e+002 4.171500e+002 -3.108624e-014
    endloop
  endfacet
  facet normal -1.000000e+000 0.000000e+000 0.000000e+000
    outer loop
      vertex   1.855000e+002 4.171500e+002 -3.108624e-014
      vertex   1.855000e+002 4.156500e+002 -3.108624e-014
      vertex   1.855000e+002 4.171500e+002 1.500000e+000
    endloop
  endfacet
  facet normal -1.000000e+000 -0.000000e+000 0.000000e+000
    outer loop
      vertex   1.855000e+002 4.171500e+002 1.500000e+000
      vertex   1.855000e+002 4.156500e+002 -3.108624e-014
      vertex   1.855000e+002 4.156500e+002 1.500000e+000
    endloop
  endfacet
  facet normal 0.000000e+000 -1.000000e+000 0.000000e+000
    outer loop
      vertex   1.795000e+002 4.171500e+002 -3.108624e-014
      vertex   1.855000e+002 4.171500e+002 -3.108624e-014
      vertex   1.795000e+002 4.171500e+002 1.500000e+000
    endloop
  endfacet
  facet normal 0.000000e+000 -1.000000e+000 0.000000e+000
    outer loop
      vertex   1.795000e+002 4.171500e+002 1.500000e+000
      vertex   1.855000e+002 4.171500e+002 -3.108624e-014
      vertex   1.855000e+002 4.171500e+002 1.500000e+000
    endloop
  endfacet
  facet normal -1.000000e+000 0.000000e+000 0.000000e+000
    outer loop
      vertex   1.795000e+002 4.582443e+002 -3.108624e-014
      vertex   1.795000e+002 4.171500e+002 -3.108624e-014
      vertex   1.795000e+002 4.582443e+002 1.500000e+000
    endloop
  endfacet
  facet normal -1.000000e+000 -0.000000e+000 0.000000e+000
    outer loop
      vertex   1.795000e+002 4.582443e+002 1.500000e+000
      vertex   1.795000e+002 4.171500e+002 -3.108624e-014
      vertex   1.795000e+002 4.171500e+002 1.500000e+000
    endloop
  endfacet
  facet normal 0.000000e+000 1.000000e+000 -0.000000e+000
    outer loop
      vertex   2.455000e+002 4.582443e+002 8.458558e-015
      vertex   2.125000e+002 4.582443e+002 -3.158585e-014
      vertex   2.455000e+002 4.582443e+002 1.500000e+000
    endloop
  endfacet
  facet normal 0.000000e+000 1.000000e+000 -0.000000e+000
    outer loop
      vertex   2.455000e+002 4.582443e+002 1.500000e+000
      vertex   2.125000e+002 4.582443e+002 -3.158585e-014
      vertex   2.125000e+002 4.582443e+002 1.500000e+000
    endloop
  endfacet
  facet normal -5.167584e-015 1.000000e+000 0.000000e+000
    outer loop
      vertex   2.125000e+002 4.582443e+002 1.500000e+000
      vertex   2.125000e+002 4.582443e+002 -3.158585e-014
      vertex   1.795000e+002 4.582443e+002 -3.108624e-014
    endloop
  endfacet
  facet normal -5.167584e-015 1.000000e+000 0.000000e+000
    outer loop
      vertex   1.795000e+002 4.582443e+002 1.500000e+000
      vertex   2.125000e+002 4.582443e+002 1.500000e+000
      vertex   1.795000e+002 4.582443e+002 -3.108624e-014
    endloop
  endfacet
  facet normal 1.000000e+000 -0.000000e+000 -0.000000e+000
    outer loop
      vertex   2.455000e+002 4.471500e+002 3.996803e-014
      vertex   2.455000e+002 4.582443e+002 8.458558e-015
      vertex   2.455000e+002 4.471500e+002 1.500000e+000
    endloop
  endfacet
  facet normal 1.000000e+000 -0.000000e+000 0.000000e+000
    outer loop
      vertex   2.455000e+002 4.471500e+002 1.500000e+000
      vertex   2.455000e+002 4.582443e+002 8.458558e-015
      vertex   2.455000e+002 4.582443e+002 1.500000e+000
    endloop
  endfacet
  facet normal 0.000000e+000 1.000000e+000 -0.000000e+000
    outer loop
      vertex   2.470000e+002 4.471500e+002 3.996803e-014
      vertex   2.455000e+002 4.471500e+002 3.996803e-014
      vertex   2.470000e+002 4.471500e+002 1.500000e+000
    endloop
  endfacet
  facet normal 0.000000e+000 1.000000e+000 -0.000000e+000
    outer loop
      vertex   2.470000e+002 4.471500e+002 1.500000e+000
      vertex   2.455000e+002 4.471500e+002 3.996803e-014
      vertex   2.455000e+002 4.471500e+002 1.500000e+000
    endloop
  endfacet
  facet normal 1.000000e+000 0.000000e+000 -0.000000e+000
    outer loop
      vertex   2.470000e+002 4.371500e+002 3.996803e-014
      vertex   2.470000e+002 4.471500e+002 3.996803e-014
      vertex   2.470000e+002 4.371500e+002 1.500000e+000
    endloop
  endfacet
  facet normal 1.000000e+000 -0.000000e+000 0.000000e+000
    outer loop
      vertex   2.470000e+002 4.371500e+002 1.500000e+000
      vertex   2.470000e+002 4.471500e+002 3.996803e-014
      vertex   2.470000e+002 4.471500e+002 1.500000e+000
    endloop
  endfacet
  facet normal 0.000000e+000 -1.000000e+000 0.000000e+000
    outer loop
      vertex   2.455000e+002 4.371500e+002 3.996803e-014
      vertex   2.470000e+002 4.371500e+002 3.996803e-014
      vertex   2.455000e+002 4.371500e+002 1.500000e+000
    endloop
  endfacet
  facet normal 0.000000e+000 -1.000000e+000 0.000000e+000
    outer loop
      vertex   2.455000e+002 4.371500e+002 1.500000e+000
      vertex   2.470000e+002 4.371500e+002 3.996803e-014
      vertex   2.470000e+002 4.371500e+002 1.500000e+000
    endloop
  endfacet
  facet normal 1.000000e+000 0.000000e+000 -0.000000e+000
    outer loop
      vertex   2.455000e+002 4.347712e+002 3.996803e-014
      vertex   2.455000e+002 4.371500e+002 3.996803e-014
      vertex   2.455000e+002 4.347712e+002 1.500000e+000
    endloop
  endfacet
  facet normal 1.000000e+000 -0.000000e+000 0.000000e+000
    outer loop
      vertex   2.455000e+002 4.347712e+002 1.500000e+000
      vertex   2.455000e+002 4.371500e+002 3.996803e-014
      vertex   2.455000e+002 4.371500e+002 1.500000e+000
    endloop
  endfacet
  facet normal 3.197778e-001 -9.474926e-001 0.000000e+000
    outer loop
      vertex   2.436894e+002 4.323681e+002 1.500000e+000
      vertex   2.436894e+002 4.323681e+002 -3.108624e-014
      vertex   2.439078e+002 4.324418e+002 1.500000e+000
    endloop
  endfacet
  facet normal 3.197778e-001 -9.474926e-001 0.000000e+000
    outer loop
      vertex   2.439078e+002 4.324418e+002 1.500000e+000
      vertex   2.436894e+002 4.323681e+002 -3.108624e-014
      vertex   2.439078e+002 4.324418e+002 -2.647438e-014
    endloop
  endfacet
  facet normal 4.056953e-001 -9.140084e-001 0.000000e+000
    outer loop
      vertex   2.441185e+002 4.325353e+002 -2.562297e-014
      vertex   2.439078e+002 4.324418e+002 1.500000e+000
      vertex   2.439078e+002 4.324418e+002 -2.647438e-014
    endloop
  endfacet
  facet normal 4.056953e-001 -9.140084e-001 0.000000e+000
    outer loop
      vertex   2.441185e+002 4.325353e+002 -2.562297e-014
      vertex   2.441185e+002 4.325353e+002 1.500000e+000
      vertex   2.439078e+002 4.324418e+002 1.500000e+000
    endloop
  endfacet
  facet normal 4.881633e-001 -8.727523e-001 0.000000e+000
    outer loop
      vertex   2.441185e+002 4.325353e+002 -2.562297e-014
      vertex   2.443197e+002 4.326479e+002 -2.481801e-014
      vertex   2.441185e+002 4.325353e+002 1.500000e+000
    endloop
  endfacet
  facet normal 4.881633e-001 -8.727523e-001 0.000000e+000
    outer loop
      vertex   2.441185e+002 4.325353e+002 1.500000e+000
      vertex   2.443197e+002 4.326479e+002 -2.481801e-014
      vertex   2.443197e+002 4.326479e+002 1.500000e+000
    endloop
  endfacet
  facet normal 5.664804e-001 -8.240752e-001 0.000000e+000
    outer loop
      vertex   2.443197e+002 4.326479e+002 1.500000e+000
      vertex   2.443197e+002 4.326479e+002 -2.481801e-014
      vertex   2.445097e+002 4.327785e+002 -2.406635e-014
    endloop
  endfacet
  facet normal 6.399807e-001 -7.683910e-001 0.000000e+000
    outer loop
      vertex   2.445097e+002 4.327785e+002 1.500000e+000
      vertex   2.445097e+002 4.327785e+002 -2.406635e-014
      vertex   2.446868e+002 4.329260e+002 -2.337437e-014
    endloop
  endfacet
  facet normal 7.080392e-001 -7.061731e-001 0.000000e+000
    outer loop
      vertex   2.446868e+002 4.329260e+002 1.500000e+000
      vertex   2.446868e+002 4.329260e+002 -2.337437e-014
      vertex   2.448496e+002 4.330892e+002 -2.274798e-014
    endloop
  endfacet
  facet normal 7.700772e-001 -6.379507e-001 0.000000e+000
    outer loop
      vertex   2.448496e+002 4.330892e+002 1.500000e+000
      vertex   2.448496e+002 4.330892e+002 -2.274798e-014
      vertex   2.449967e+002 4.332667e+002 -2.219248e-014
    endloop
  endfacet
  facet normal 8.255673e-001 -5.643037e-001 0.000000e+000
    outer loop
      vertex   2.449967e+002 4.332667e+002 1.500000e+000
      vertex   2.449967e+002 4.332667e+002 -2.219248e-014
      vertex   2.451268e+002 4.334571e+002 -2.171261e-014
    endloop
  endfacet
  facet normal 8.740375e-001 -4.858584e-001 0.000000e+000
    outer loop
      vertex   2.451268e+002 4.334571e+002 1.500000e+000
      vertex   2.451268e+002 4.334571e+002 -2.171261e-014
      vertex   2.452388e+002 4.336585e+002 -2.131244e-014
    endloop
  endfacet
  facet normal 9.150758e-001 -4.032819e-001 0.000000e+000
    outer loop
      vertex   2.452388e+002 4.336585e+002 1.500000e+000
      vertex   2.452388e+002 4.336585e+002 -2.131244e-014
      vertex   2.453317e+002 4.338695e+002 -2.099538e-014
    endloop
  endfacet
  facet normal 9.483332e-001 -3.172762e-001 0.000000e+000
    outer loop
      vertex   2.453317e+002 4.338695e+002 1.500000e+000
      vertex   2.453317e+002 4.338695e+002 -2.099538e-014
      vertex   2.454049e+002 4.340881e+002 -2.076412e-014
    endloop
  endfacet
  facet normal 9.735268e-001 -2.285728e-001 0.000000e+000
    outer loop
      vertex   2.454049e+002 4.340881e+002 1.500000e+000
      vertex   2.454049e+002 4.340881e+002 -2.076412e-014
      vertex   2.454576e+002 4.343125e+002 -2.062063e-014
    endloop
  endfacet
  facet normal 9.904426e-001 -1.379257e-001 0.000000e+000
    outer loop
      vertex   2.454576e+002 4.343125e+002 1.500000e+000
      vertex   2.454576e+002 4.343125e+002 -2.062063e-014
      vertex   2.454894e+002 4.345409e+002 -2.056613e-014
    endloop
  endfacet
  facet normal 9.989366e-001 -4.610592e-002 0.000000e+000
    outer loop
      vertex   2.454894e+002 4.345409e+002 1.500000e+000
      vertex   2.454894e+002 4.345409e+002 -2.056613e-014
      vertex   2.455000e+002 4.347712e+002 3.996803e-014
    endloop
  endfacet
  facet normal 9.989366e-001 -4.610592e-002 0.000000e+000
    outer loop
      vertex   2.455000e+002 4.347712e+002 1.500000e+000
      vertex   2.454894e+002 4.345409e+002 1.500000e+000
      vertex   2.455000e+002 4.347712e+002 3.996803e-014
    endloop
  endfacet
  facet normal 5.664804e-001 -8.240752e-001 0.000000e+000
    outer loop
      vertex   2.443197e+002 4.326479e+002 1.500000e+000
      vertex   2.445097e+002 4.327785e+002 -2.406635e-014
      vertex   2.445097e+002 4.327785e+002 1.500000e+000
    endloop
  endfacet
  facet normal 6.399807e-001 -7.683910e-001 0.000000e+000
    outer loop
      vertex   2.445097e+002 4.327785e+002 1.500000e+000
      vertex   2.446868e+002 4.329260e+002 -2.337437e-014
      vertex   2.446868e+002 4.329260e+002 1.500000e+000
    endloop
  endfacet
  facet normal 7.080392e-001 -7.061731e-001 0.000000e+000
    outer loop
      vertex   2.446868e+002 4.329260e+002 1.500000e+000
      vertex   2.448496e+002 4.330892e+002 -2.274798e-014
      vertex   2.448496e+002 4.330892e+002 1.500000e+000
    endloop
  endfacet
  facet normal 7.700772e-001 -6.379507e-001 0.000000e+000
    outer loop
      vertex   2.448496e+002 4.330892e+002 1.500000e+000
      vertex   2.449967e+002 4.332667e+002 -2.219248e-014
      vertex   2.449967e+002 4.332667e+002 1.500000e+000
    endloop
  endfacet
  facet normal 8.255673e-001 -5.643037e-001 0.000000e+000
    outer loop
      vertex   2.449967e+002 4.332667e+002 1.500000e+000
      vertex   2.451268e+002 4.334571e+002 -2.171261e-014
      vertex   2.451268e+002 4.334571e+002 1.500000e+000
    endloop
  endfacet
  facet normal 8.740375e-001 -4.858584e-001 0.000000e+000
    outer loop
      vertex   2.451268e+002 4.334571e+002 1.500000e+000
      vertex   2.452388e+002 4.336585e+002 -2.131244e-014
      vertex   2.452388e+002 4.336585e+002 1.500000e+000
    endloop
  endfacet
  facet normal 9.150758e-001 -4.032819e-001 0.000000e+000
    outer loop
      vertex   2.452388e+002 4.336585e+002 1.500000e+000
      vertex   2.453317e+002 4.338695e+002 -2.099538e-014
      vertex   2.453317e+002 4.338695e+002 1.500000e+000
    endloop
  endfacet
  facet normal 9.483332e-001 -3.172762e-001 0.000000e+000
    outer loop
      vertex   2.453317e+002 4.338695e+002 1.500000e+000
      vertex   2.454049e+002 4.340881e+002 -2.076412e-014
      vertex   2.454049e+002 4.340881e+002 1.500000e+000
    endloop
  endfacet
  facet normal 9.735268e-001 -2.285728e-001 0.000000e+000
    outer loop
      vertex   2.454049e+002 4.340881e+002 1.500000e+000
      vertex   2.454576e+002 4.343125e+002 -2.062063e-014
      vertex   2.454576e+002 4.343125e+002 1.500000e+000
    endloop
  endfacet
  facet normal 9.904426e-001 -1.379257e-001 0.000000e+000
    outer loop
      vertex   2.454576e+002 4.343125e+002 1.500000e+000
      vertex   2.454894e+002 4.345409e+002 -2.056613e-014
      vertex   2.454894e+002 4.345409e+002 1.500000e+000
    endloop
  endfacet
  facet normal 2.757527e-001 -9.612286e-001 0.000000e+000
    outer loop
      vertex   2.271424e+002 4.276212e+002 -3.108624e-014
      vertex   2.436894e+002 4.323681e+002 -3.108624e-014
      vertex   2.271424e+002 4.276212e+002 1.500000e+000
    endloop
  endfacet
  facet normal 2.757527e-001 -9.612286e-001 0.000000e+000
    outer loop
      vertex   2.271424e+002 4.276212e+002 1.500000e+000
      vertex   2.436894e+002 4.323681e+002 -3.108624e-014
      vertex   2.436894e+002 4.323681e+002 1.500000e+000
    endloop
  endfacet
  facet normal 7.403993e-001 -6.721673e-001 0.000000e+000
    outer loop
      vertex   2.235265e+002 4.253049e+002 -3.108624e-014
      vertex   2.237926e+002 4.255980e+002 1.648088e-015
      vertex   2.235265e+002 4.253049e+002 1.500000e+000
    endloop
  endfacet
  facet normal 7.403993e-001 -6.721673e-001 0.000000e+000
    outer loop
      vertex   2.235265e+002 4.253049e+002 1.500000e+000
      vertex   2.237926e+002 4.255980e+002 1.648088e-015
      vertex   2.237926e+002 4.255980e+002 1.500000e+000
    endloop
  endfacet
  facet normal 7.039009e-001 -7.102982e-001 0.000000e+000
    outer loop
      vertex   2.237926e+002 4.255980e+002 1.500000e+000
      vertex   2.237926e+002 4.255980e+002 1.648088e-015
      vertex   2.240738e+002 4.258767e+002 -4.895101e-015
    endloop
  endfacet
  facet normal 6.654413e-001 -7.464501e-001 0.000000e+000
    outer loop
      vertex   2.240738e+002 4.258767e+002 1.500000e+000
      vertex   2.240738e+002 4.258767e+002 -4.895101e-015
      vertex   2.243693e+002 4.261401e+002 -1.032347e-014
    endloop
  endfacet
  facet normal 6.251278e-001 -7.805224e-001 0.000000e+000
    outer loop
      vertex   2.243693e+002 4.261401e+002 1.500000e+000
      vertex   2.243693e+002 4.261401e+002 -1.032347e-014
      vertex   2.246783e+002 4.263876e+002 -1.462191e-014
    endloop
  endfacet
  facet normal 5.830726e-001 -8.124201e-001 0.000000e+000
    outer loop
      vertex   2.246783e+002 4.263876e+002 1.500000e+000
      vertex   2.246783e+002 4.263876e+002 -1.462191e-014
      vertex   2.249999e+002 4.266184e+002 -1.777843e-014
    endloop
  endfacet
  facet normal 5.393928e-001 -8.420543e-001 0.000000e+000
    outer loop
      vertex   2.249999e+002 4.266184e+002 1.500000e+000
      vertex   2.249999e+002 4.266184e+002 -1.777843e-014
      vertex   2.253332e+002 4.268319e+002 -1.978423e-014
    endloop
  endfacet
  facet normal 4.942103e-001 -8.693424e-001 0.000000e+000
    outer loop
      vertex   2.253332e+002 4.268319e+002 1.500000e+000
      vertex   2.253332e+002 4.268319e+002 -1.978423e-014
      vertex   2.256774e+002 4.270276e+002 -2.063374e-014
    endloop
  endfacet
  facet normal 4.476508e-001 -8.942084e-001 0.000000e+000
    outer loop
      vertex   2.256774e+002 4.270276e+002 1.500000e+000
      vertex   2.256774e+002 4.270276e+002 -2.063374e-014
      vertex   2.260314e+002 4.272048e+002 -2.032459e-014
    endloop
  endfacet
  facet normal 3.998442e-001 -9.165831e-001 0.000000e+000
    outer loop
      vertex   2.260314e+002 4.272048e+002 1.500000e+000
      vertex   2.260314e+002 4.272048e+002 -2.032459e-014
      vertex   2.263942e+002 4.273631e+002 -1.885762e-014
    endloop
  endfacet
  facet normal 3.509235e-001 -9.364041e-001 0.000000e+000
    outer loop
      vertex   2.263942e+002 4.273631e+002 1.500000e+000
      vertex   2.263942e+002 4.273631e+002 -1.885762e-014
      vertex   2.267649e+002 4.275020e+002 -1.623695e-014
    endloop
  endfacet
  facet normal 3.010251e-001 -9.536162e-001 0.000000e+000
    outer loop
      vertex   2.267649e+002 4.275020e+002 1.500000e+000
      vertex   2.267649e+002 4.275020e+002 -1.623695e-014
      vertex   2.271424e+002 4.276212e+002 -3.108624e-014
    endloop
  endfacet
  facet normal 3.010251e-001 -9.536162e-001 0.000000e+000
    outer loop
      vertex   2.271424e+002 4.276212e+002 1.500000e+000
      vertex   2.267649e+002 4.275020e+002 1.500000e+000
      vertex   2.271424e+002 4.276212e+002 -3.108624e-014
    endloop
  endfacet
  facet normal 7.039009e-001 -7.102982e-001 0.000000e+000
    outer loop
      vertex   2.237926e+002 4.255980e+002 1.500000e+000
      vertex   2.240738e+002 4.258767e+002 -4.895101e-015
      vertex   2.240738e+002 4.258767e+002 1.500000e+000
    endloop
  endfacet
  facet normal 6.654413e-001 -7.464501e-001 0.000000e+000
    outer loop
      vertex   2.240738e+002 4.258767e+002 1.500000e+000
      vertex   2.243693e+002 4.261401e+002 -1.032347e-014
      vertex   2.243693e+002 4.261401e+002 1.500000e+000
    endloop
  endfacet
  facet normal 6.251278e-001 -7.805224e-001 0.000000e+000
    outer loop
      vertex   2.243693e+002 4.261401e+002 1.500000e+000
      vertex   2.246783e+002 4.263876e+002 -1.462191e-014
      vertex   2.246783e+002 4.263876e+002 1.500000e+000
    endloop
  endfacet
  facet normal 5.830726e-001 -8.124201e-001 0.000000e+000
    outer loop
      vertex   2.246783e+002 4.263876e+002 1.500000e+000
      vertex   2.249999e+002 4.266184e+002 -1.777843e-014
      vertex   2.249999e+002 4.266184e+002 1.500000e+000
    endloop
  endfacet
  facet normal 5.393928e-001 -8.420543e-001 0.000000e+000
    outer loop
      vertex   2.249999e+002 4.266184e+002 1.500000e+000
      vertex   2.253332e+002 4.268319e+002 -1.978423e-014
      vertex   2.253332e+002 4.268319e+002 1.500000e+000
    endloop
  endfacet
  facet normal 4.942103e-001 -8.693424e-001 0.000000e+000
    outer loop
      vertex   2.253332e+002 4.268319e+002 1.500000e+000
      vertex   2.256774e+002 4.270276e+002 -2.063374e-014
      vertex   2.256774e+002 4.270276e+002 1.500000e+000
    endloop
  endfacet
  facet normal 4.476508e-001 -8.942084e-001 0.000000e+000
    outer loop
      vertex   2.256774e+002 4.270276e+002 1.500000e+000
      vertex   2.260314e+002 4.272048e+002 -2.032459e-014
      vertex   2.260314e+002 4.272048e+002 1.500000e+000
    endloop
  endfacet
  facet normal 3.998442e-001 -9.165831e-001 0.000000e+000
    outer loop
      vertex   2.260314e+002 4.272048e+002 1.500000e+000
      vertex   2.263942e+002 4.273631e+002 -1.885762e-014
      vertex   2.263942e+002 4.273631e+002 1.500000e+000
    endloop
  endfacet
  facet normal 3.509235e-001 -9.364041e-001 0.000000e+000
    outer loop
      vertex   2.263942e+002 4.273631e+002 1.500000e+000
      vertex   2.267649e+002 4.275020e+002 -1.623695e-014
      vertex   2.267649e+002 4.275020e+002 1.500000e+000
    endloop
  endfacet
  facet normal 9.223001e-001 -3.864744e-001 0.000000e+000
    outer loop
      vertex   2.213727e+002 4.217386e+002 -5.378785e-015
      vertex   2.215749e+002 4.222211e+002 -8.297058e-015
      vertex   2.213727e+002 4.217386e+002 1.500000e+000
    endloop
  endfacet
  facet normal 9.223001e-001 -3.864744e-001 0.000000e+000
    outer loop
      vertex   2.213727e+002 4.217386e+002 1.500000e+000
      vertex   2.215749e+002 4.222211e+002 -8.297058e-015
      vertex   2.215749e+002 4.222211e+002 1.500000e+000
    endloop
  endfacet
  facet normal 9.053202e-001 -4.247298e-001 0.000000e+000
    outer loop
      vertex   2.215749e+002 4.222211e+002 1.500000e+000
      vertex   2.215749e+002 4.222211e+002 -8.297058e-015
      vertex   2.217971e+002 4.226948e+002 -1.150420e-014
    endloop
  endfacet
  facet normal 8.867542e-001 -4.622412e-001 0.000000e+000
    outer loop
      vertex   2.217971e+002 4.226948e+002 1.500000e+000
      vertex   2.217971e+002 4.226948e+002 -1.150420e-014
      vertex   2.220389e+002 4.231587e+002 -1.499459e-014
    endloop
  endfacet
  facet normal 8.666349e-001 -4.989428e-001 0.000000e+000
    outer loop
      vertex   2.220389e+002 4.231587e+002 1.500000e+000
      vertex   2.220389e+002 4.231587e+002 -1.499459e-014
      vertex   2.223000e+002 4.236121e+002 -1.876211e-014
    endloop
  endfacet
  facet normal 8.449974e-001 -5.347703e-001 0.000000e+000
    outer loop
      vertex   2.223000e+002 4.236121e+002 1.500000e+000
      vertex   2.223000e+002 4.236121e+002 -1.876211e-014
      vertex   2.225797e+002 4.240542e+002 -2.280017e-014
    endloop
  endfacet
  facet normal 8.218797e-001 -5.696611e-001 0.000000e+000
    outer loop
      vertex   2.225797e+002 4.240542e+002 1.500000e+000
      vertex   2.225797e+002 4.240542e+002 -2.280017e-014
      vertex   2.228778e+002 4.244842e+002 -2.710169e-014
    endloop
  endfacet
  facet normal 7.973222e-001 -6.035539e-001 0.000000e+000
    outer loop
      vertex   2.228778e+002 4.244842e+002 1.500000e+000
      vertex   2.228778e+002 4.244842e+002 -2.710169e-014
      vertex   2.231935e+002 4.249013e+002 -3.165913e-014
    endloop
  endfacet
  facet normal 7.713679e-001 -6.363894e-001 0.000000e+000
    outer loop
      vertex   2.231935e+002 4.249013e+002 1.500000e+000
      vertex   2.231935e+002 4.249013e+002 -3.165913e-014
      vertex   2.235265e+002 4.253049e+002 1.500000e+000
    endloop
  endfacet
  facet normal 7.973222e-001 -6.035539e-001 0.000000e+000
    outer loop
      vertex   2.231935e+002 4.249013e+002 1.500000e+000
      vertex   2.228778e+002 4.244842e+002 1.500000e+000
      vertex   2.231935e+002 4.249013e+002 -3.165913e-014
    endloop
  endfacet
  facet normal 9.053202e-001 -4.247298e-001 0.000000e+000
    outer loop
      vertex   2.215749e+002 4.222211e+002 1.500000e+000
      vertex   2.217971e+002 4.226948e+002 -1.150420e-014
      vertex   2.217971e+002 4.226948e+002 1.500000e+000
    endloop
  endfacet
  facet normal 8.867542e-001 -4.622412e-001 0.000000e+000
    outer loop
      vertex   2.217971e+002 4.226948e+002 1.500000e+000
      vertex   2.220389e+002 4.231587e+002 -1.499459e-014
      vertex   2.220389e+002 4.231587e+002 1.500000e+000
    endloop
  endfacet
  facet normal 8.666349e-001 -4.989428e-001 0.000000e+000
    outer loop
      vertex   2.220389e+002 4.231587e+002 1.500000e+000
      vertex   2.223000e+002 4.236121e+002 -1.876211e-014
      vertex   2.223000e+002 4.236121e+002 1.500000e+000
    endloop
  endfacet
  facet normal 8.449974e-001 -5.347703e-001 0.000000e+000
    outer loop
      vertex   2.223000e+002 4.236121e+002 1.500000e+000
      vertex   2.225797e+002 4.240542e+002 -2.280017e-014
      vertex   2.225797e+002 4.240542e+002 1.500000e+000
    endloop
  endfacet
  facet normal 8.218797e-001 -5.696611e-001 0.000000e+000
    outer loop
      vertex   2.225797e+002 4.240542e+002 1.500000e+000
      vertex   2.228778e+002 4.244842e+002 -2.710169e-014
      vertex   2.228778e+002 4.244842e+002 1.500000e+000
    endloop
  endfacet
  facet normal 7.713679e-001 -6.363894e-001 0.000000e+000
    outer loop
      vertex   2.231935e+002 4.249013e+002 -3.165913e-014
      vertex   2.235265e+002 4.253049e+002 -3.108624e-014
      vertex   2.235265e+002 4.253049e+002 1.500000e+000
    endloop
  endfacet
  facet normal 1.000000e+000 0.000000e+000 -0.000000e+000
    outer loop
      vertex   2.055000e+002 4.156500e+002 -3.108624e-014
      vertex   2.055000e+002 4.171500e+002 -3.108624e-014
      vertex   2.055000e+002 4.156500e+002 1.500000e+000
    endloop
  endfacet
  facet normal 1.000000e+000 -0.000000e+000 0.000000e+000
    outer loop
      vertex   2.055000e+002 4.156500e+002 1.500000e+000
      vertex   2.055000e+002 4.171500e+002 -3.108624e-014
      vertex   2.055000e+002 4.171500e+002 1.500000e+000
    endloop
  endfacet
  facet normal 0.000000e+000 -1.000000e+000 0.000000e+000
    outer loop
      vertex   1.855000e+002 4.156500e+002 -3.108624e-014
      vertex   2.055000e+002 4.156500e+002 -3.108624e-014
      vertex   1.855000e+002 4.156500e+002 1.500000e+000
    endloop
  endfacet
  facet normal 0.000000e+000 -1.000000e+000 0.000000e+000
    outer loop
      vertex   1.855000e+002 4.156500e+002 1.500000e+000
      vertex   2.055000e+002 4.156500e+002 -3.108624e-014
      vertex   2.055000e+002 4.156500e+002 1.500000e+000
    endloop
  endfacet
  facet normal 6.565376e-015 -1.323997e-014 1.000000e+000
    outer loop
      vertex   2.150224e+002 4.171607e+002 1.500000e+000
      vertex   2.215749e+002 4.222211e+002 1.500000e+000
      vertex   2.146288e+002 4.171500e+002 1.500000e+000
    endloop
  endfacet
  facet normal 1.065409e-015 -6.118406e-015 1.000000e+000
    outer loop
      vertex   2.150224e+002 4.171607e+002 1.500000e+000
      vertex   2.154148e+002 4.171927e+002 1.500000e+000
      vertex   2.215749e+002 4.222211e+002 1.500000e+000
    endloop
  endfacet
  facet normal 7.898116e-016 -5.780787e-015 1.000000e+000
    outer loop
      vertex   2.215749e+002 4.222211e+002 1.500000e+000
      vertex   2.154148e+002 4.171927e+002 1.500000e+000
      vertex   2.158049e+002 4.172460e+002 1.500000e+000
    endloop
  endfacet
  facet normal 1.944302e-015 -7.119718e-015 1.000000e+000
    outer loop
      vertex   2.161916e+002 4.173204e+002 1.500000e+000
      vertex   2.215749e+002 4.222211e+002 1.500000e+000
      vertex   2.158049e+002 4.172460e+002 1.500000e+000
    endloop
  endfacet
  facet normal 1.712037e-015 -6.864581e-015 1.000000e+000
    outer loop
      vertex   2.161916e+002 4.173204e+002 1.500000e+000
      vertex   2.165736e+002 4.174157e+002 1.500000e+000
      vertex   2.215749e+002 4.222211e+002 1.500000e+000
    endloop
  endfacet
  facet normal 2.303462e-015 -7.480108e-015 1.000000e+000
    outer loop
      vertex   2.215749e+002 4.222211e+002 1.500000e+000
      vertex   2.165736e+002 4.174157e+002 1.500000e+000
      vertex   2.169499e+002 4.175316e+002 1.500000e+000
    endloop
  endfacet
  facet normal 3.958904e-015 -9.112751e-015 1.000000e+000
    outer loop
      vertex   2.173194e+002 4.176677e+002 1.500000e+000
      vertex   2.215749e+002 4.222211e+002 1.500000e+000
      vertex   2.169499e+002 4.175316e+002 1.500000e+000
    endloop
  endfacet
  facet normal 3.913992e-015 -9.070777e-015 1.000000e+000
    outer loop
      vertex   2.173194e+002 4.176677e+002 1.500000e+000
      vertex   2.176809e+002 4.178237e+002 1.500000e+000
      vertex   2.215749e+002 4.222211e+002 1.500000e+000
    endloop
  endfacet
  facet normal 4.984796e-015 -1.001899e-014 1.000000e+000
    outer loop
      vertex   2.215749e+002 4.222211e+002 1.500000e+000
      vertex   2.176809e+002 4.178237e+002 1.500000e+000
      vertex   2.180334e+002 4.179991e+002 1.500000e+000
    endloop
  endfacet
  facet normal 7.554116e-015 -1.217417e-014 1.000000e+000
    outer loop
      vertex   2.183759e+002 4.181934e+002 1.500000e+000
      vertex   2.215749e+002 4.222211e+002 1.500000e+000
      vertex   2.180334e+002 4.179991e+002 1.500000e+000
    endloop
  endfacet
  facet normal -3.239959e-014 1.955869e-014 1.000000e+000
    outer loop
      vertex   2.183759e+002 4.181934e+002 1.500000e+000
      vertex   2.213727e+002 4.217386e+002 1.500000e+000
      vertex   2.215749e+002 4.222211e+002 1.500000e+000
    endloop
  endfacet
  facet normal 1.671649e-013 -1.491349e-013 1.000000e+000
    outer loop
      vertex   2.183759e+002 4.181934e+002 1.500000e+000
      vertex   2.212182e+002 4.213764e+002 1.500000e+000
      vertex   2.213727e+002 4.217386e+002 1.500000e+000
    endloop
  endfacet
  facet normal 1.916203e-015 -1.571609e-015 1.000000e+000
    outer loop
      vertex   2.183759e+002 4.181934e+002 1.500000e+000
      vertex   2.210444e+002 4.210232e+002 1.500000e+000
      vertex   2.212182e+002 4.213764e+002 1.500000e+000
    endloop
  endfacet
  facet normal 6.170860e-016 -3.465214e-016 1.000000e+000
    outer loop
      vertex   2.183759e+002 4.181934e+002 1.500000e+000
      vertex   2.208516e+002 4.206799e+002 1.500000e+000
      vertex   2.210444e+002 4.210232e+002 1.500000e+000
    endloop
  endfacet
  facet normal -1.110597e-015 1.373707e-015 1.000000e+000
    outer loop
      vertex   2.183759e+002 4.181934e+002 1.500000e+000
      vertex   2.206405e+002 4.203475e+002 1.500000e+000
      vertex   2.208516e+002 4.206799e+002 1.500000e+000
    endloop
  endfacet
  facet normal 6.118602e-016 -4.370827e-016 1.000000e+000
    outer loop
      vertex   2.183759e+002 4.181934e+002 1.500000e+000
      vertex   2.204116e+002 4.200271e+002 1.500000e+000
      vertex   2.206405e+002 4.203475e+002 1.500000e+000
    endloop
  endfacet
  facet normal 7.802761e-016 -6.240494e-016 1.000000e+000
    outer loop
      vertex   2.183759e+002 4.181934e+002 1.500000e+000
      vertex   2.201657e+002 4.197196e+002 1.500000e+000
      vertex   2.204116e+002 4.200271e+002 1.500000e+000
    endloop
  endfacet
  facet normal -1.662895e-015 2.240999e-015 1.000000e+000
    outer loop
      vertex   2.183759e+002 4.181934e+002 1.500000e+000
      vertex   2.199034e+002 4.194260e+002 1.500000e+000
      vertex   2.201657e+002 4.197196e+002 1.500000e+000
    endloop
  endfacet
  facet normal 7.394050e-016 -7.362145e-016 1.000000e+000
    outer loop
      vertex   2.183759e+002 4.181934e+002 1.500000e+000
      vertex   2.196256e+002 4.191470e+002 1.500000e+000
      vertex   2.199034e+002 4.194260e+002 1.500000e+000
    endloop
  endfacet
  facet normal 1.161623e-015 -1.289575e-015 1.000000e+000
    outer loop
      vertex   2.183759e+002 4.181934e+002 1.500000e+000
      vertex   2.193331e+002 4.188834e+002 1.500000e+000
      vertex   2.196256e+002 4.191470e+002 1.500000e+000
    endloop
  endfacet
  facet normal -3.898250e-015 5.729234e-015 1.000000e+000
    outer loop
      vertex   2.183759e+002 4.181934e+002 1.500000e+000
      vertex   2.190267e+002 4.186362e+002 1.500000e+000
      vertex   2.193331e+002 4.188834e+002 1.500000e+000
    endloop
  endfacet
  facet normal 0.000000e+000 0.000000e+000 1.000000e+000
    outer loop
      vertex   2.183759e+002 4.181934e+002 1.500000e+000
      vertex   2.187073e+002 4.184059e+002 1.500000e+000
      vertex   2.190267e+002 4.186362e+002 1.500000e+000
    endloop
  endfacet
  facet normal -1.252450e-014 1.290783e-014 1.000000e+000
    outer loop
      vertex   2.215749e+002 4.222211e+002 1.500000e+000
      vertex   2.217971e+002 4.226948e+002 1.500000e+000
      vertex   2.146288e+002 4.171500e+002 1.500000e+000
    endloop
  endfacet
  facet normal -1.418184e-014 1.505044e-014 1.000000e+000
    outer loop
      vertex   2.146288e+002 4.171500e+002 1.500000e+000
      vertex   2.217971e+002 4.226948e+002 1.500000e+000
      vertex   2.220389e+002 4.231587e+002 1.500000e+000
    endloop
  endfacet
  facet normal -1.637154e-014 1.775082e-014 1.000000e+000
    outer loop
      vertex   2.223000e+002 4.236121e+002 1.500000e+000
      vertex   2.146288e+002 4.171500e+002 1.500000e+000
      vertex   2.220389e+002 4.231587e+002 1.500000e+000
    endloop
  endfacet
  facet normal -1.935038e-014 2.128698e-014 1.000000e+000
    outer loop
      vertex   2.223000e+002 4.236121e+002 1.500000e+000
      vertex   2.225797e+002 4.240542e+002 1.500000e+000
      vertex   2.146288e+002 4.171500e+002 1.500000e+000
    endloop
  endfacet
  facet normal -8.688777e-016 3.618778e-018 1.000000e+000
    outer loop
      vertex   2.146288e+002 4.171500e+002 1.500000e+000
      vertex   2.225797e+002 4.240542e+002 1.500000e+000
      vertex   2.125000e+002 4.582443e+002 1.500000e+000
    endloop
  endfacet
  facet normal 2.018587e-017 1.277142e-017 1.000000e+000
    outer loop
      vertex   2.055000e+002 4.171500e+002 1.500000e+000
      vertex   2.125000e+002 4.582443e+002 1.500000e+000
      vertex   1.795000e+002 4.582443e+002 1.500000e+000
    endloop
  endfacet
  facet normal 0.000000e+000 0.000000e+000 1.000000e+000
    outer loop
      vertex   1.855000e+002 4.171500e+002 1.500000e+000
      vertex   1.795000e+002 4.582443e+002 1.500000e+000
      vertex   1.795000e+002 4.171500e+002 1.500000e+000
    endloop
  endfacet
  facet normal 0.000000e+000 -0.000000e+000 1.000000e+000
    outer loop
      vertex   1.855000e+002 4.171500e+002 1.500000e+000
      vertex   2.055000e+002 4.171500e+002 1.500000e+000
      vertex   1.795000e+002 4.582443e+002 1.500000e+000
    endloop
  endfacet
  facet normal -0.000000e+000 0.000000e+000 1.000000e+000
    outer loop
      vertex   1.855000e+002 4.171500e+002 1.500000e+000
      vertex   2.055000e+002 4.156500e+002 1.500000e+000
      vertex   2.055000e+002 4.171500e+002 1.500000e+000
    endloop
  endfacet
  facet normal -0.000000e+000 0.000000e+000 1.000000e+000
    outer loop
      vertex   1.855000e+002 4.171500e+002 1.500000e+000
      vertex   1.855000e+002 4.156500e+002 1.500000e+000
      vertex   2.055000e+002 4.156500e+002 1.500000e+000
    endloop
  endfacet
  facet normal 9.668346e-015 3.110145e-015 1.000000e+000
    outer loop
      vertex   2.225797e+002 4.240542e+002 1.500000e+000
      vertex   2.228778e+002 4.244842e+002 1.500000e+000
      vertex   2.125000e+002 4.582443e+002 1.500000e+000
    endloop
  endfacet
  facet normal 1.037242e-014 3.326577e-015 1.000000e+000
    outer loop
      vertex   2.125000e+002 4.582443e+002 1.500000e+000
      vertex   2.228778e+002 4.244842e+002 1.500000e+000
      vertex   2.231935e+002 4.249013e+002 1.500000e+000
    endloop
  endfacet
  facet normal 1.522316e-013 4.882274e-014 1.000000e+000
    outer loop
      vertex   2.235265e+002 4.253049e+002 1.500000e+000
      vertex   2.125000e+002 4.582443e+002 1.500000e+000
      vertex   2.231935e+002 4.249013e+002 1.500000e+000
    endloop
  endfacet
  facet normal 1.065805e-013 3.354100e-014 1.000000e+000
    outer loop
      vertex   2.235265e+002 4.253049e+002 1.500000e+000
      vertex   2.237926e+002 4.255980e+002 1.500000e+000
      vertex   2.125000e+002 4.582443e+002 1.500000e+000
    endloop
  endfacet
  facet normal 2.009676e-014 3.625665e-015 1.000000e+000
    outer loop
      vertex   2.125000e+002 4.582443e+002 1.500000e+000
      vertex   2.237926e+002 4.255980e+002 1.500000e+000
      vertex   2.240738e+002 4.258767e+002 1.500000e+000
    endloop
  endfacet
  facet normal 1.665143e-014 2.393709e-015 1.000000e+000
    outer loop
      vertex   2.243693e+002 4.261401e+002 1.500000e+000
      vertex   2.125000e+002 4.582443e+002 1.500000e+000
      vertex   2.240738e+002 4.258767e+002 1.500000e+000
    endloop
  endfacet
  facet normal 1.285935e-014 9.917368e-016 1.000000e+000
    outer loop
      vertex   2.243693e+002 4.261401e+002 1.500000e+000
      vertex   2.246783e+002 4.263876e+002 1.500000e+000
      vertex   2.125000e+002 4.582443e+002 1.500000e+000
    endloop
  endfacet
  facet normal 9.794651e-015 -1.798449e-016 1.000000e+000
    outer loop
      vertex   2.125000e+002 4.582443e+002 1.500000e+000
      vertex   2.246783e+002 4.263876e+002 1.500000e+000
      vertex   2.249999e+002 4.266184e+002 1.500000e+000
    endloop
  endfacet
  facet normal 7.386029e-015 -1.131833e-015 1.000000e+000
    outer loop
      vertex   2.253332e+002 4.268319e+002 1.500000e+000
      vertex   2.125000e+002 4.582443e+002 1.500000e+000
      vertex   2.249999e+002 4.266184e+002 1.500000e+000
    endloop
  endfacet
  facet normal 3.485022e-015 -2.725554e-015 1.000000e+000
    outer loop
      vertex   2.253332e+002 4.268319e+002 1.500000e+000
      vertex   2.256774e+002 4.270276e+002 1.500000e+000
      vertex   2.125000e+002 4.582443e+002 1.500000e+000
    endloop
  endfacet
  facet normal 6.987399e-016 -3.901715e-015 1.000000e+000
    outer loop
      vertex   2.125000e+002 4.582443e+002 1.500000e+000
      vertex   2.256774e+002 4.270276e+002 1.500000e+000
      vertex   2.260314e+002 4.272048e+002 1.500000e+000
    endloop
  endfacet
  facet normal -1.543221e-015 -4.879077e-015 1.000000e+000
    outer loop
      vertex   2.263942e+002 4.273631e+002 1.500000e+000
      vertex   2.125000e+002 4.582443e+002 1.500000e+000
      vertex   2.260314e+002 4.272048e+002 1.500000e+000
    endloop
  endfacet
  facet normal -4.296200e-015 -6.117711e-015 1.000000e+000
    outer loop
      vertex   2.263942e+002 4.273631e+002 1.500000e+000
      vertex   2.267649e+002 4.275020e+002 1.500000e+000
      vertex   2.125000e+002 4.582443e+002 1.500000e+000
    endloop
  endfacet
  facet normal -1.291739e-013 -6.406305e-014 1.000000e+000
    outer loop
      vertex   2.125000e+002 4.582443e+002 1.500000e+000
      vertex   2.267649e+002 4.275020e+002 1.500000e+000
      vertex   2.271424e+002 4.276212e+002 1.500000e+000
    endloop
  endfacet
  facet normal -3.870575e-015 0.000000e+000 1.000000e+000
    outer loop
      vertex   2.455000e+002 4.471500e+002 1.500000e+000
      vertex   2.271424e+002 4.276212e+002 1.500000e+000
      vertex   2.455000e+002 4.371500e+002 1.500000e+000
    endloop
  endfacet
  facet normal 0.000000e+000 0.000000e+000 1.000000e+000
    outer loop
      vertex   2.470000e+002 4.371500e+002 1.500000e+000
      vertex   2.455000e+002 4.471500e+002 1.500000e+000
      vertex   2.455000e+002 4.371500e+002 1.500000e+000
    endloop
  endfacet
  facet normal 0.000000e+000 -0.000000e+000 1.000000e+000
    outer loop
      vertex   2.470000e+002 4.371500e+002 1.500000e+000
      vertex   2.470000e+002 4.471500e+002 1.500000e+000
      vertex   2.455000e+002 4.471500e+002 1.500000e+000
    endloop
  endfacet
  facet normal -4.817379e-015 1.824046e-015 1.000000e+000
    outer loop
      vertex   2.271424e+002 4.276212e+002 1.500000e+000
      vertex   2.436894e+002 4.323681e+002 1.500000e+000
      vertex   2.455000e+002 4.371500e+002 1.500000e+000
    endloop
  endfacet
  facet normal -0.000000e+000 0.000000e+000 1.000000e+000
    outer loop
      vertex   2.455000e+002 4.371500e+002 1.500000e+000
      vertex   2.436894e+002 4.323681e+002 1.500000e+000
      vertex   2.455000e+002 4.347712e+002 1.500000e+000
    endloop
  endfacet
  facet normal -2.862781e-014 2.156991e-014 1.000000e+000
    outer loop
      vertex   2.455000e+002 4.347712e+002 1.500000e+000
      vertex   2.436894e+002 4.323681e+002 1.500000e+000
      vertex   2.439078e+002 4.324418e+002 1.500000e+000
    endloop
  endfacet
  facet normal -5.813881e-015 5.975804e-015 1.000000e+000
    outer loop
      vertex   2.441185e+002 4.325353e+002 1.500000e+000
      vertex   2.455000e+002 4.347712e+002 1.500000e+000
      vertex   2.439078e+002 4.324418e+002 1.500000e+000
    endloop
  endfacet
  facet normal -8.783230e-015 7.810523e-015 1.000000e+000
    outer loop
      vertex   2.441185e+002 4.325353e+002 1.500000e+000
      vertex   2.443197e+002 4.326479e+002 1.500000e+000
      vertex   2.455000e+002 4.347712e+002 1.500000e+000
    endloop
  endfacet
  facet normal -1.082423e-014 8.945071e-015 1.000000e+000
    outer loop
      vertex   2.455000e+002 4.347712e+002 1.500000e+000
      vertex   2.443197e+002 4.326479e+002 1.500000e+000
      vertex   2.445097e+002 4.327785e+002 1.500000e+000
    endloop
  endfacet
  facet normal -1.148376e-014 9.272839e-015 1.000000e+000
    outer loop
      vertex   2.446868e+002 4.329260e+002 1.500000e+000
      vertex   2.455000e+002 4.347712e+002 1.500000e+000
      vertex   2.445097e+002 4.327785e+002 1.500000e+000
    endloop
  endfacet
  facet normal -1.245398e-014 9.700424e-015 1.000000e+000
    outer loop
      vertex   2.446868e+002 4.329260e+002 1.500000e+000
      vertex   2.448496e+002 4.330892e+002 1.500000e+000
      vertex   2.455000e+002 4.347712e+002 1.500000e+000
    endloop
  endfacet
  facet normal -1.955227e-014 1.244525e-014 1.000000e+000
    outer loop
      vertex   2.455000e+002 4.347712e+002 1.500000e+000
      vertex   2.448496e+002 4.330892e+002 1.500000e+000
      vertex   2.449967e+002 4.332667e+002 1.500000e+000
    endloop
  endfacet
  facet normal -2.360419e-014 1.380086e-014 1.000000e+000
    outer loop
      vertex   2.451268e+002 4.334571e+002 1.500000e+000
      vertex   2.455000e+002 4.347712e+002 1.500000e+000
      vertex   2.449967e+002 4.332667e+002 1.500000e+000
    endloop
  endfacet
  facet normal -3.421205e-014 1.681372e-014 1.000000e+000
    outer loop
      vertex   2.451268e+002 4.334571e+002 1.500000e+000
      vertex   2.452388e+002 4.336585e+002 1.500000e+000
      vertex   2.455000e+002 4.347712e+002 1.500000e+000
    endloop
  endfacet
  facet normal -4.775494e-014 1.999344e-014 1.000000e+000
    outer loop
      vertex   2.455000e+002 4.347712e+002 1.500000e+000
      vertex   2.452388e+002 4.336585e+002 1.500000e+000
      vertex   2.453317e+002 4.338695e+002 1.500000e+000
    endloop
  endfacet
  facet normal -8.863194e-014 2.762154e-014 1.000000e+000
    outer loop
      vertex   2.454049e+002 4.340881e+002 1.500000e+000
      vertex   2.455000e+002 4.347712e+002 1.500000e+000
      vertex   2.453317e+002 4.338695e+002 1.500000e+000
    endloop
  endfacet
  facet normal -1.599359e-013 3.755110e-014 1.000000e+000
    outer loop
      vertex   2.454049e+002 4.340881e+002 1.500000e+000
      vertex   2.454576e+002 4.343125e+002 1.500000e+000
      vertex   2.455000e+002 4.347712e+002 1.500000e+000
    endloop
  endfacet
  facet normal -4.867613e-013 6.778475e-014 1.000000e+000
    outer loop
      vertex   2.455000e+002 4.347712e+002 1.500000e+000
      vertex   2.454576e+002 4.343125e+002 1.500000e+000
      vertex   2.454894e+002 4.345409e+002 1.500000e+000
    endloop
  endfacet
  facet normal 9.352788e-016 2.842029e-015 1.000000e+000
    outer loop
      vertex   2.455000e+002 4.582443e+002 1.500000e+000
      vertex   2.125000e+002 4.582443e+002 1.500000e+000
      vertex   2.455000e+002 4.471500e+002 1.500000e+000
    endloop
  endfacet
  facet normal -9.448085e-016 -2.750289e-015 1.000000e+000
    outer loop
      vertex   2.455000e+002 4.471500e+002 1.500000e+000
      vertex   2.125000e+002 4.582443e+002 1.500000e+000
      vertex   2.271424e+002 4.276212e+002 1.500000e+000
    endloop
  endfacet
  facet normal -1.459407e-016 4.106941e-017 1.000000e+000
    outer loop
      vertex   2.146288e+002 4.171500e+002 1.500000e+000
      vertex   2.125000e+002 4.582443e+002 1.500000e+000
      vertex   2.055000e+002 4.171500e+002 1.500000e+000
    endloop
  endfacet
endsolid
