solid OpenSCAD_Model
  facet normal -1 0 0
    outer loop
      vertex -18.2 -25 -8.2
      vertex -18.2 25 8.2
      vertex -18.2 25 -8.2
    endloop
  endfacet
  facet normal -1 -0 0
    outer loop
      vertex -18.2 25 8.2
      vertex -18.2 -25 -8.2
      vertex -18.2 -25 8.2
    endloop
  endfacet
  facet normal 0 0 1
    outer loop
      vertex 18.2 25 8.2
      vertex 17.7 24.5 8.2
      vertex 18.2 -25 8.2
    endloop
  endfacet
  facet normal 0 0 1
    outer loop
      vertex 18.2 25 8.2
      vertex -17.7 24.5 8.2
      vertex 17.7 24.5 8.2
    endloop
  endfacet
  facet normal 0 0 1
    outer loop
      vertex -17.7 24.5 8.2
      vertex -18.2 25 8.2
      vertex -17.7 -24.5 8.2
    endloop
  endfacet
  facet normal -0 0 1
    outer loop
      vertex -18.2 25 8.2
      vertex -17.7 24.5 8.2
      vertex 18.2 25 8.2
    endloop
  endfacet
  facet normal -0 0 1
    outer loop
      vertex 17.7 -24.5 8.2
      vertex 18.2 -25 8.2
      vertex 17.7 24.5 8.2
    endloop
  endfacet
  facet normal -0 0 1
    outer loop
      vertex -17.7 -24.5 8.2
      vertex 18.2 -25 8.2
      vertex 17.7 -24.5 8.2
    endloop
  endfacet
  facet normal 0 0 1
    outer loop
      vertex -17.7 -24.5 8.2
      vertex -18.2 -25 8.2
      vertex 18.2 -25 8.2
    endloop
  endfacet
  facet normal 0 0 1
    outer loop
      vertex -18.2 -25 8.2
      vertex -17.7 -24.5 8.2
      vertex -18.2 25 8.2
    endloop
  endfacet
  facet normal 1 -0 0
    outer loop
      vertex 18.2 -25 8.2
      vertex 18.2 25 -8.2
      vertex 18.2 25 8.2
    endloop
  endfacet
  facet normal 1 0 0
    outer loop
      vertex 18.2 25 -8.2
      vertex 18.2 -25 8.2
      vertex 18.2 -25 -8.2
    endloop
  endfacet
  facet normal -0 0 -1
    outer loop
      vertex 17.7 -25.05 -8.2
      vertex 15.5923 -29.3785 -8.2
      vertex 17.7 -25 -8.2
    endloop
  endfacet
  facet normal 0 0 -1
    outer loop
      vertex 17.7 -25 -8.2
      vertex 18.2 25 -8.2
      vertex 18.2 -25 -8.2
    endloop
  endfacet
  facet normal 0 0 -1
    outer loop
      vertex 12.6667 -31.3333 -8.2
      vertex 17.7 -25 -8.2
      vertex 15.5923 -29.3785 -8.2
    endloop
  endfacet
  facet normal 0 0 -1
    outer loop
      vertex 12.6667 -31.3333 -8.2
      vertex 15.5923 -29.3785 -8.2
      vertex 15.2997 -29.926 -8.2
    endloop
  endfacet
  facet normal 0 0 -1
    outer loop
      vertex 12.6667 -31.3333 -8.2
      vertex 15.2997 -29.926 -8.2
      vertex 14.9058 -30.4058 -8.2
    endloop
  endfacet
  facet normal 0 0 -1
    outer loop
      vertex 12.6667 -31.3333 -8.2
      vertex 14.9058 -30.4058 -8.2
      vertex 14.426 -30.7997 -8.2
    endloop
  endfacet
  facet normal 0 0 -1
    outer loop
      vertex 12.6667 -31.3333 -8.2
      vertex 14.426 -30.7997 -8.2
      vertex 13.8785 -31.0923 -8.2
    endloop
  endfacet
  facet normal 0 0 -1
    outer loop
      vertex 12.6667 -31.3333 -8.2
      vertex 13.8785 -31.0923 -8.2
      vertex 13.2845 -31.2725 -8.2
    endloop
  endfacet
  facet normal -0 0 -1
    outer loop
      vertex 17.7 -25 -8.2
      vertex 12.6667 -31.3333 -8.2
      vertex -17.7 -25 -8.2
    endloop
  endfacet
  facet normal 0 0 -1
    outer loop
      vertex -17.7 -25 -8.2
      vertex 12.6667 -31.3333 -8.2
      vertex -12.6667 -31.3333 -8.2
    endloop
  endfacet
  facet normal 0 0 -1
    outer loop
      vertex -15.5923 -29.3785 -8.2
      vertex -12.6667 -31.3333 -8.2
      vertex -13.2845 -31.2725 -8.2
    endloop
  endfacet
  facet normal 0 0 -1
    outer loop
      vertex -15.5923 -29.3785 -8.2
      vertex -13.2845 -31.2725 -8.2
      vertex -13.8785 -31.0923 -8.2
    endloop
  endfacet
  facet normal 0 0 -1
    outer loop
      vertex -15.5923 -29.3785 -8.2
      vertex -13.8785 -31.0923 -8.2
      vertex -14.426 -30.7997 -8.2
    endloop
  endfacet
  facet normal 0 0 -1
    outer loop
      vertex -15.5923 -29.3785 -8.2
      vertex -14.426 -30.7997 -8.2
      vertex -14.9058 -30.4058 -8.2
    endloop
  endfacet
  facet normal 0 0 -1
    outer loop
      vertex -15.5923 -29.3785 -8.2
      vertex -14.9058 -30.4058 -8.2
      vertex -15.2997 -29.926 -8.2
    endloop
  endfacet
  facet normal 0 0 -1
    outer loop
      vertex -12.6667 -31.3333 -8.2
      vertex -15.5923 -29.3785 -8.2
      vertex -17.7 -25 -8.2
    endloop
  endfacet
  facet normal 0 0 -1
    outer loop
      vertex -17.7 -25 -8.2
      vertex -15.5923 -29.3785 -8.2
      vertex -17.7 -25.05 -8.2
    endloop
  endfacet
  facet normal 0 0 -1
    outer loop
      vertex 17.7 -25 -8.2
      vertex -17.7 -25 -8.2
      vertex 18.2 25 -8.2
    endloop
  endfacet
  facet normal 0 0 -1
    outer loop
      vertex -18.2 25 -8.2
      vertex -17.7 -25 -8.2
      vertex -18.2 -25 -8.2
    endloop
  endfacet
  facet normal 0 0 -1
    outer loop
      vertex -17.7 -25 -8.2
      vertex -18.2 25 -8.2
      vertex 18.2 25 -8.2
    endloop
  endfacet
  facet normal 0 -1 0
    outer loop
      vertex -18.2 -25 8.2
      vertex -17.7 -25 -7.2
      vertex 18.2 -25 8.2
    endloop
  endfacet
  facet normal 0 -1 0
    outer loop
      vertex -18.2 -25 -8.2
      vertex -17.7 -25 -7.2
      vertex -18.2 -25 8.2
    endloop
  endfacet
  facet normal 0 -1 -0
    outer loop
      vertex -17.7 -25 -7.2
      vertex -18.2 -25 -8.2
      vertex -17.7 -25 -8.2
    endloop
  endfacet
  facet normal 0 -1 0
    outer loop
      vertex 17.7 -25 -7.2
      vertex 18.2 -25 8.2
      vertex -17.7 -25 -7.2
    endloop
  endfacet
  facet normal 0 -1 0
    outer loop
      vertex 18.2 -25 -8.2
      vertex 17.7 -25 -7.2
      vertex 17.7 -25 -8.2
    endloop
  endfacet
  facet normal 0 -1 0
    outer loop
      vertex 17.7 -25 -7.2
      vertex 18.2 -25 -8.2
      vertex 18.2 -25 8.2
    endloop
  endfacet
  facet normal 0 1 -0
    outer loop
      vertex 18.2 25 -8.2
      vertex -18.2 25 8.2
      vertex 18.2 25 8.2
    endloop
  endfacet
  facet normal 0 1 0
    outer loop
      vertex -18.2 25 8.2
      vertex 18.2 25 -8.2
      vertex -18.2 25 -8.2
    endloop
  endfacet
  facet normal 1 -0 0
    outer loop
      vertex -17.7 -24.5 8.2
      vertex -17.7 24.5 -7.7
      vertex -17.7 24.5 8.2
    endloop
  endfacet
  facet normal 1 0 0
    outer loop
      vertex -17.7 24.5 -7.7
      vertex -17.7 -24.5 8.2
      vertex -17.7 -24.5 -7.7
    endloop
  endfacet
  facet normal -1 0 0
    outer loop
      vertex 17.7 -24.5 -7.7
      vertex 17.7 24.5 8.2
      vertex 17.7 24.5 -7.7
    endloop
  endfacet
  facet normal -1 -0 0
    outer loop
      vertex 17.7 24.5 8.2
      vertex 17.7 -24.5 -7.7
      vertex 17.7 -24.5 8.2
    endloop
  endfacet
  facet normal 0 -1 0
    outer loop
      vertex -17.7 24.5 -7.7
      vertex 17.7 24.5 8.2
      vertex -17.7 24.5 8.2
    endloop
  endfacet
  facet normal 0 -1 -0
    outer loop
      vertex 17.7 24.5 8.2
      vertex -17.7 24.5 -7.7
      vertex 17.7 24.5 -7.7
    endloop
  endfacet
  facet normal -0 0 1
    outer loop
      vertex -17.7 24.5 -7.7
      vertex 17.7 -24.5 -7.7
      vertex 17.7 24.5 -7.7
    endloop
  endfacet
  facet normal 0 0 1
    outer loop
      vertex 17.7 -24.5 -7.7
      vertex -17.7 24.5 -7.7
      vertex -17.7 -24.5 -7.7
    endloop
  endfacet
  facet normal 0 1 -0
    outer loop
      vertex 17.7 -24.5 -7.7
      vertex -17.7 -24.5 8.2
      vertex 17.7 -24.5 8.2
    endloop
  endfacet
  facet normal 0 1 0
    outer loop
      vertex -17.7 -24.5 8.2
      vertex 17.7 -24.5 -7.7
      vertex -17.7 -24.5 -7.7
    endloop
  endfacet
  facet normal -1 0 0
    outer loop
      vertex -17.7 -25.05 -8.2
      vertex -17.7 -25 -7.2
      vertex -17.7 -25 -8.2
    endloop
  endfacet
  facet normal -1 -0 0
    outer loop
      vertex -17.7 -25 -7.2
      vertex -17.7 -25.05 -8.2
      vertex -17.7 -25.05 -7.2
    endloop
  endfacet
  facet normal 0 0 1
    outer loop
      vertex 17.7 -25 -7.2
      vertex 15.5923 -29.3785 -7.2
      vertex 17.7 -25.05 -7.2
    endloop
  endfacet
  facet normal 0 0 1
    outer loop
      vertex 12.6667 -31.3333 -7.2
      vertex 15.5923 -29.3785 -7.2
      vertex 17.7 -25 -7.2
    endloop
  endfacet
  facet normal 0 0 1
    outer loop
      vertex 15.5923 -29.3785 -7.2
      vertex 12.6667 -31.3333 -7.2
      vertex 15.2997 -29.926 -7.2
    endloop
  endfacet
  facet normal 0 0 1
    outer loop
      vertex 15.2997 -29.926 -7.2
      vertex 12.6667 -31.3333 -7.2
      vertex 14.9058 -30.4058 -7.2
    endloop
  endfacet
  facet normal 0 0 1
    outer loop
      vertex 14.9058 -30.4058 -7.2
      vertex 12.6667 -31.3333 -7.2
      vertex 14.426 -30.7997 -7.2
    endloop
  endfacet
  facet normal 0 0 1
    outer loop
      vertex 14.426 -30.7997 -7.2
      vertex 12.6667 -31.3333 -7.2
      vertex 13.8785 -31.0923 -7.2
    endloop
  endfacet
  facet normal 0 0 1
    outer loop
      vertex 13.8785 -31.0923 -7.2
      vertex 12.6667 -31.3333 -7.2
      vertex 13.2845 -31.2725 -7.2
    endloop
  endfacet
  facet normal 0 0 1
    outer loop
      vertex 17.7 -25 -7.2
      vertex -12.6667 -31.3333 -7.2
      vertex 12.6667 -31.3333 -7.2
    endloop
  endfacet
  facet normal -0 0 1
    outer loop
      vertex -17.7 -25 -7.2
      vertex -12.6667 -31.3333 -7.2
      vertex 17.7 -25 -7.2
    endloop
  endfacet
  facet normal -0 -0 1
    outer loop
      vertex -15.5923 -29.3785 -7.2
      vertex -12.6667 -31.3333 -7.2
      vertex -17.7 -25 -7.2
    endloop
  endfacet
  facet normal 0 0 1
    outer loop
      vertex -12.6667 -31.3333 -7.2
      vertex -15.5923 -29.3785 -7.2
      vertex -13.2845 -31.2725 -7.2
    endloop
  endfacet
  facet normal 0 0 1
    outer loop
      vertex -13.2845 -31.2725 -7.2
      vertex -15.5923 -29.3785 -7.2
      vertex -13.8785 -31.0923 -7.2
    endloop
  endfacet
  facet normal 0 0 1
    outer loop
      vertex -14.426 -30.7997 -7.2
      vertex -15.5923 -29.3785 -7.2
      vertex -14.9058 -30.4058 -7.2
    endloop
  endfacet
  facet normal 0 0 1
    outer loop
      vertex -14.9058 -30.4058 -7.2
      vertex -15.5923 -29.3785 -7.2
      vertex -15.2997 -29.926 -7.2
    endloop
  endfacet
  facet normal 0 0 1
    outer loop
      vertex -13.8785 -31.0923 -7.2
      vertex -15.5923 -29.3785 -7.2
      vertex -14.426 -30.7997 -7.2
    endloop
  endfacet
  facet normal 0 0 1
    outer loop
      vertex -15.5923 -29.3785 -7.2
      vertex -17.7 -25 -7.2
      vertex -17.7 -25.05 -7.2
    endloop
  endfacet
  facet normal -0.0980136 -0.995185 0
    outer loop
      vertex -13.2845 -31.2725 -8.2
      vertex -12.6667 -31.3333 -7.2
      vertex -13.2845 -31.2725 -7.2
    endloop
  endfacet
  facet normal -0.0980136 -0.995185 -0
    outer loop
      vertex -12.6667 -31.3333 -7.2
      vertex -13.2845 -31.2725 -8.2
      vertex -12.6667 -31.3333 -8.2
    endloop
  endfacet
  facet normal -0.899075 -0.437795 0
    outer loop
      vertex -15.5923 -29.3785 -8.2
      vertex -17.7 -25.05 -7.2
      vertex -17.7 -25.05 -8.2
    endloop
  endfacet
  facet normal -0.899075 -0.437795 0
    outer loop
      vertex -17.7 -25.05 -7.2
      vertex -15.5923 -29.3785 -8.2
      vertex -15.5923 -29.3785 -7.2
    endloop
  endfacet
  facet normal 0 -1 0
    outer loop
      vertex -12.6667 -31.3333 -8.2
      vertex 12.6667 -31.3333 -7.2
      vertex -12.6667 -31.3333 -7.2
    endloop
  endfacet
  facet normal 0 -1 -0
    outer loop
      vertex 12.6667 -31.3333 -7.2
      vertex -12.6667 -31.3333 -8.2
      vertex 12.6667 -31.3333 -8.2
    endloop
  endfacet
  facet normal 0.88192 -0.471398 0
    outer loop
      vertex 15.2997 -29.926 -7.2
      vertex 15.5923 -29.3785 -8.2
      vertex 15.5923 -29.3785 -7.2
    endloop
  endfacet
  facet normal 0.88192 -0.471398 0
    outer loop
      vertex 15.5923 -29.3785 -8.2
      vertex 15.2997 -29.926 -7.2
      vertex 15.2997 -29.926 -8.2
    endloop
  endfacet
  facet normal -0.471399 -0.88192 0
    outer loop
      vertex -14.426 -30.7997 -8.2
      vertex -13.8785 -31.0923 -7.2
      vertex -14.426 -30.7997 -7.2
    endloop
  endfacet
  facet normal -0.471399 -0.88192 -0
    outer loop
      vertex -13.8785 -31.0923 -7.2
      vertex -14.426 -30.7997 -8.2
      vertex -13.8785 -31.0923 -8.2
    endloop
  endfacet
  facet normal -0.290286 -0.95694 0
    outer loop
      vertex -13.8785 -31.0923 -8.2
      vertex -13.2845 -31.2725 -7.2
      vertex -13.8785 -31.0923 -7.2
    endloop
  endfacet
  facet normal -0.290286 -0.95694 -0
    outer loop
      vertex -13.2845 -31.2725 -7.2
      vertex -13.8785 -31.0923 -8.2
      vertex -13.2845 -31.2725 -8.2
    endloop
  endfacet
  facet normal -0.773011 -0.634392 0
    outer loop
      vertex -14.9058 -30.4058 -8.2
      vertex -15.2997 -29.926 -7.2
      vertex -15.2997 -29.926 -8.2
    endloop
  endfacet
  facet normal -0.773011 -0.634392 0
    outer loop
      vertex -15.2997 -29.926 -7.2
      vertex -14.9058 -30.4058 -8.2
      vertex -14.9058 -30.4058 -7.2
    endloop
  endfacet
  facet normal -0.88192 -0.471398 0
    outer loop
      vertex -15.2997 -29.926 -8.2
      vertex -15.5923 -29.3785 -7.2
      vertex -15.5923 -29.3785 -8.2
    endloop
  endfacet
  facet normal -0.88192 -0.471398 0
    outer loop
      vertex -15.5923 -29.3785 -7.2
      vertex -15.2997 -29.926 -8.2
      vertex -15.2997 -29.926 -7.2
    endloop
  endfacet
  facet normal 0.0980136 -0.995185 0
    outer loop
      vertex 12.6667 -31.3333 -8.2
      vertex 13.2845 -31.2725 -7.2
      vertex 12.6667 -31.3333 -7.2
    endloop
  endfacet
  facet normal 0.0980136 -0.995185 0
    outer loop
      vertex 13.2845 -31.2725 -7.2
      vertex 12.6667 -31.3333 -8.2
      vertex 13.2845 -31.2725 -8.2
    endloop
  endfacet
  facet normal 1 -0 0
    outer loop
      vertex 17.7 -25.05 -7.2
      vertex 17.7 -25 -8.2
      vertex 17.7 -25 -7.2
    endloop
  endfacet
  facet normal 1 0 0
    outer loop
      vertex 17.7 -25 -8.2
      vertex 17.7 -25.05 -7.2
      vertex 17.7 -25.05 -8.2
    endloop
  endfacet
  facet normal -0.634392 -0.773012 0
    outer loop
      vertex -14.9058 -30.4058 -8.2
      vertex -14.426 -30.7997 -7.2
      vertex -14.9058 -30.4058 -7.2
    endloop
  endfacet
  facet normal -0.634392 -0.773012 -0
    outer loop
      vertex -14.426 -30.7997 -7.2
      vertex -14.9058 -30.4058 -8.2
      vertex -14.426 -30.7997 -8.2
    endloop
  endfacet
  facet normal 0.634392 -0.773012 0
    outer loop
      vertex 14.426 -30.7997 -8.2
      vertex 14.9058 -30.4058 -7.2
      vertex 14.426 -30.7997 -7.2
    endloop
  endfacet
  facet normal 0.634392 -0.773012 0
    outer loop
      vertex 14.9058 -30.4058 -7.2
      vertex 14.426 -30.7997 -8.2
      vertex 14.9058 -30.4058 -8.2
    endloop
  endfacet
  facet normal 0.290286 -0.95694 0
    outer loop
      vertex 13.2845 -31.2725 -8.2
      vertex 13.8785 -31.0923 -7.2
      vertex 13.2845 -31.2725 -7.2
    endloop
  endfacet
  facet normal 0.290286 -0.95694 0
    outer loop
      vertex 13.8785 -31.0923 -7.2
      vertex 13.2845 -31.2725 -8.2
      vertex 13.8785 -31.0923 -8.2
    endloop
  endfacet
  facet normal 0.899075 -0.437795 0
    outer loop
      vertex 15.5923 -29.3785 -7.2
      vertex 17.7 -25.05 -8.2
      vertex 17.7 -25.05 -7.2
    endloop
  endfacet
  facet normal 0.899075 -0.437795 0
    outer loop
      vertex 17.7 -25.05 -8.2
      vertex 15.5923 -29.3785 -7.2
      vertex 15.5923 -29.3785 -8.2
    endloop
  endfacet
  facet normal 0.773011 -0.634392 0
    outer loop
      vertex 14.9058 -30.4058 -7.2
      vertex 15.2997 -29.926 -8.2
      vertex 15.2997 -29.926 -7.2
    endloop
  endfacet
  facet normal 0.773011 -0.634392 0
    outer loop
      vertex 15.2997 -29.926 -8.2
      vertex 14.9058 -30.4058 -7.2
      vertex 14.9058 -30.4058 -8.2
    endloop
  endfacet
  facet normal 0.471399 -0.88192 0
    outer loop
      vertex 13.8785 -31.0923 -8.2
      vertex 14.426 -30.7997 -7.2
      vertex 13.8785 -31.0923 -7.2
    endloop
  endfacet
  facet normal 0.471399 -0.88192 0
    outer loop
      vertex 14.426 -30.7997 -7.2
      vertex 13.8785 -31.0923 -8.2
      vertex 14.426 -30.7997 -8.2
    endloop
  endfacet
endsolid OpenSCAD_Model
