solid OpenSCAD_Model
  facet normal -1 0 0
    outer loop
      vertex -19 -25 -9
      vertex -19 25 9
      vertex -19 25 -9
    endloop
  endfacet
  facet normal -1 -0 0
    outer loop
      vertex -19 25 9
      vertex -19 -25 -9
      vertex -19 -25 9
    endloop
  endfacet
  facet normal -0 0 1
    outer loop
      vertex -19 25 9
      vertex 19 -25 9
      vertex 19 25 9
    endloop
  endfacet
  facet normal 0 0 1
    outer loop
      vertex 19 -25 9
      vertex -19 25 9
      vertex -19 -25 9
    endloop
  endfacet
  facet normal 1 -0 0
    outer loop
      vertex 19 -25 9
      vertex 19 25 -9
      vertex 19 25 9
    endloop
  endfacet
  facet normal 1 0 0
    outer loop
      vertex 19 25 -9
      vertex 19 -25 9
      vertex 19 -25 -9
    endloop
  endfacet
  facet normal 0 0 -1
    outer loop
      vertex -19 -25 -9
      vertex 19 25 -9
      vertex 19 -25 -9
    endloop
  endfacet
  facet normal -0 0 -1
    outer loop
      vertex 19 25 -9
      vertex -19 -25 -9
      vertex -19 25 -9
    endloop
  endfacet
  facet normal 0 -1 0
    outer loop
      vertex -19 -25 9
      vertex -18.5 -25 8.5
      vertex 19 -25 9
    endloop
  endfacet
  facet normal 0 -1 0
    outer loop
      vertex -19 -25 9
      vertex -18.5 -25 -8.5
      vertex -18.5 -25 8.5
    endloop
  endfacet
  facet normal 0 -1 -0
    outer loop
      vertex -18.5 -25 -8.5
      vertex -19 -25 -9
      vertex 18.5 -25 -8.5
    endloop
  endfacet
  facet normal 0 -1 0
    outer loop
      vertex -19 -25 -9
      vertex -18.5 -25 -8.5
      vertex -19 -25 9
    endloop
  endfacet
  facet normal 0 -1 0
    outer loop
      vertex 18.5 -25 8.5
      vertex 19 -25 9
      vertex -18.5 -25 8.5
    endloop
  endfacet
  facet normal 0 -1 0
    outer loop
      vertex 18.5 -25 -8.5
      vertex 19 -25 9
      vertex 18.5 -25 8.5
    endloop
  endfacet
  facet normal 0 -1 0
    outer loop
      vertex 18.5 -25 -8.5
      vertex 19 -25 -9
      vertex 19 -25 9
    endloop
  endfacet
  facet normal 0 -1 0
    outer loop
      vertex 19 -25 -9
      vertex 18.5 -25 -8.5
      vertex -19 -25 -9
    endloop
  endfacet
  facet normal 0 1 0
    outer loop
      vertex 19 25 9
      vertex 18.5 25 8.5
      vertex -19 25 9
    endloop
  endfacet
  facet normal 0 1 0
    outer loop
      vertex 19 25 9
      vertex 18.5 25 -8.5
      vertex 18.5 25 8.5
    endloop
  endfacet
  facet normal 0 1 0
    outer loop
      vertex 18.5 25 -8.5
      vertex 19 25 -9
      vertex -18.5 25 -8.5
    endloop
  endfacet
  facet normal 0 1 -0
    outer loop
      vertex 19 25 -9
      vertex 18.5 25 -8.5
      vertex 19 25 9
    endloop
  endfacet
  facet normal 0 1 -0
    outer loop
      vertex -18.5 25 8.5
      vertex -19 25 9
      vertex 18.5 25 8.5
    endloop
  endfacet
  facet normal 0 1 -0
    outer loop
      vertex -18.5 25 -8.5
      vertex -19 25 9
      vertex -18.5 25 8.5
    endloop
  endfacet
  facet normal 0 1 0
    outer loop
      vertex -18.5 25 -8.5
      vertex -19 25 -9
      vertex -19 25 9
    endloop
  endfacet
  facet normal 0 1 0
    outer loop
      vertex -19 25 -9
      vertex -18.5 25 -8.5
      vertex 19 25 -9
    endloop
  endfacet
  facet normal 1 -0 0
    outer loop
      vertex -18.5 -25 8.5
      vertex -18.5 25 -8.5
      vertex -18.5 25 8.5
    endloop
  endfacet
  facet normal 1 0 0
    outer loop
      vertex -18.5 25 -8.5
      vertex -18.5 -25 8.5
      vertex -18.5 -25 -8.5
    endloop
  endfacet
  facet normal 0 0 -1
    outer loop
      vertex -18.5 -25 8.5
      vertex 18.5 25 8.5
      vertex 18.5 -25 8.5
    endloop
  endfacet
  facet normal -0 0 -1
    outer loop
      vertex 18.5 25 8.5
      vertex -18.5 -25 8.5
      vertex -18.5 25 8.5
    endloop
  endfacet
  facet normal -1 0 0
    outer loop
      vertex 18.5 -25 -8.5
      vertex 18.5 25 8.5
      vertex 18.5 25 -8.5
    endloop
  endfacet
  facet normal -1 -0 0
    outer loop
      vertex 18.5 25 8.5
      vertex 18.5 -25 -8.5
      vertex 18.5 -25 8.5
    endloop
  endfacet
  facet normal -0 0 1
    outer loop
      vertex -18.5 25 -8.5
      vertex 18.5 -25 -8.5
      vertex 18.5 25 -8.5
    endloop
  endfacet
  facet normal 0 0 1
    outer loop
      vertex 18.5 -25 -8.5
      vertex -18.5 25 -8.5
      vertex -18.5 -25 -8.5
    endloop
  endfacet
endsolid OpenSCAD_Model
