solid OpenSCAD_Model
  facet normal -1 0 0
    outer loop
      vertex -19 -25 -9
      vertex -19 25.5 44
      vertex -19 25.5 -9
    endloop
  endfacet
  facet normal -1 -0 0
    outer loop
      vertex -19 25.5 44
      vertex -19 -25 -9
      vertex -19 -25 44
    endloop
  endfacet
  facet normal -0 0 1
    outer loop
      vertex -18.5 25 9
      vertex 18.5 -25 9
      vertex 18.5 25 9
    endloop
  endfacet
  facet normal 0 0 1
    outer loop
      vertex 18.5 -25 9
      vertex -18.5 25 9
      vertex -18.5 -25 9
    endloop
  endfacet
  facet normal 1 -0 0
    outer loop
      vertex 19 -25 43.5
      vertex 19 25 26.5
      vertex 19 25 43.5
    endloop
  endfacet
  facet normal 1 0 0
    outer loop
      vertex 19 25 26.5
      vertex 19 -25 43.5
      vertex 19 -25 26.5
    endloop
  endfacet
  facet normal 1 -0 0
    outer loop
      vertex 19 -25 26
      vertex 19 25 9
      vertex 19 25 26
    endloop
  endfacet
  facet normal 1 0 0
    outer loop
      vertex 19 25 9
      vertex 19 -25 26
      vertex 19 -25 9
    endloop
  endfacet
  facet normal 1 -0 0
    outer loop
      vertex 19 -25 8.5
      vertex 19 25 -8.5
      vertex 19 25 8.5
    endloop
  endfacet
  facet normal 1 0 0
    outer loop
      vertex 19 25 -8.5
      vertex 19 -25 8.5
      vertex 19 -25 -8.5
    endloop
  endfacet
  facet normal 0 0 -1
    outer loop
      vertex -19 -25 -9
      vertex 56.5 25.5 -9
      vertex 56.5 -25 -9
    endloop
  endfacet
  facet normal -0 0 -1
    outer loop
      vertex 56.5 25.5 -9
      vertex -19 -25 -9
      vertex -19 25.5 -9
    endloop
  endfacet
  facet normal 0 -1 0
    outer loop
      vertex 18.5 -25 -8.5
      vertex 19 -25 8.5
      vertex 18.5 -25 8.5
    endloop
  endfacet
  facet normal 0 -1 -0
    outer loop
      vertex 19 -25 8.5
      vertex 18.5 -25 -8.5
      vertex 19 -25 -8.5
    endloop
  endfacet
  facet normal 0 -1 0
    outer loop
      vertex 18.5 -25 9
      vertex 19 -25 26
      vertex 18.5 -25 26
    endloop
  endfacet
  facet normal 0 -1 -0
    outer loop
      vertex 19 -25 26
      vertex 18.5 -25 9
      vertex 19 -25 9
    endloop
  endfacet
  facet normal 0 -1 0
    outer loop
      vertex 18.5 -25 26.5
      vertex 19 -25 43.5
      vertex 18.5 -25 43.5
    endloop
  endfacet
  facet normal 0 -1 -0
    outer loop
      vertex 19 -25 43.5
      vertex 18.5 -25 26.5
      vertex 19 -25 26.5
    endloop
  endfacet
  facet normal 0 -1 0
    outer loop
      vertex 18.5 -25 43.5
      vertex -19 -25 44
      vertex -18.5 -25 43.5
    endloop
  endfacet
  facet normal 0 -1 0
    outer loop
      vertex -19 -25 44
      vertex -18.5 -25 26.5
      vertex -18.5 -25 43.5
    endloop
  endfacet
  facet normal 0 -1 0
    outer loop
      vertex 18.5 -25 26
      vertex 18.5 -25 26.5
      vertex -18.5 -25 26.5
    endloop
  endfacet
  facet normal 0 -1 0
    outer loop
      vertex 18.5 -25 26.5
      vertex 18.5 -25 26
      vertex 19 -25 26.5
    endloop
  endfacet
  facet normal 0 -1 0
    outer loop
      vertex 18.5 -25 26
      vertex -18.5 -25 26.5
      vertex -18.5 -25 26
    endloop
  endfacet
  facet normal 0 -1 0
    outer loop
      vertex -19 -25 44
      vertex -18.5 -25 26
      vertex -18.5 -25 26.5
    endloop
  endfacet
  facet normal 0 -1 0
    outer loop
      vertex -19 -25 44
      vertex -18.5 -25 9
      vertex -18.5 -25 26
    endloop
  endfacet
  facet normal 0 -1 0
    outer loop
      vertex 18.5 -25 8.5
      vertex 18.5 -25 9
      vertex -18.5 -25 9
    endloop
  endfacet
  facet normal 0 -1 0
    outer loop
      vertex 18.5 -25 9
      vertex 18.5 -25 8.5
      vertex 19 -25 9
    endloop
  endfacet
  facet normal 0 -1 0
    outer loop
      vertex 18.5 -25 8.5
      vertex -18.5 -25 9
      vertex -18.5 -25 8.5
    endloop
  endfacet
  facet normal 0 -1 0
    outer loop
      vertex -19 -25 -9
      vertex -18.5 -25 9
      vertex -19 -25 44
    endloop
  endfacet
  facet normal 0 -1 -0
    outer loop
      vertex -18.5 -25 9
      vertex -19 -25 -9
      vertex -18.5 -25 8.5
    endloop
  endfacet
  facet normal 0 -1 0
    outer loop
      vertex -19 -25 -9
      vertex 18.5 -25 -8.5
      vertex -18.5 -25 -8.5
    endloop
  endfacet
  facet normal 0 -1 -0
    outer loop
      vertex 18.5 -25 -8.5
      vertex -19 -25 -9
      vertex 19 -25 -8.5
    endloop
  endfacet
  facet normal 0 -1 0
    outer loop
      vertex 56.5 -25 -9
      vertex 19 -25 -8.5
      vertex -19 -25 -9
    endloop
  endfacet
  facet normal 0 -1 -0
    outer loop
      vertex -18.5 -25 8.5
      vertex -19 -25 -9
      vertex -18.5 -25 -8.5
    endloop
  endfacet
  facet normal 0 -1 0
    outer loop
      vertex -19 -25 44
      vertex 18.5 -25 43.5
      vertex 56.5 -25 44
    endloop
  endfacet
  facet normal 0 -1 0
    outer loop
      vertex 19 -25 43.5
      vertex 56.5 -25 44
      vertex 18.5 -25 43.5
    endloop
  endfacet
  facet normal 0 -1 0
    outer loop
      vertex 56 -25 43.5
      vertex 56.5 -25 44
      vertex 19 -25 43.5
    endloop
  endfacet
  facet normal 0 -1 0
    outer loop
      vertex 56 -25 26.5
      vertex 56.5 -25 44
      vertex 56 -25 43.5
    endloop
  endfacet
  facet normal 0 -1 0
    outer loop
      vertex 19 -25 26
      vertex 19 -25 26.5
      vertex 18.5 -25 26
    endloop
  endfacet
  facet normal 0 -1 0
    outer loop
      vertex 19 -25 26.5
      vertex 19 -25 26
      vertex 56 -25 26.5
    endloop
  endfacet
  facet normal 0 -1 0
    outer loop
      vertex 56 -25 26
      vertex 56 -25 26.5
      vertex 19 -25 26
    endloop
  endfacet
  facet normal 0 -1 0
    outer loop
      vertex 56 -25 26
      vertex 56.5 -25 44
      vertex 56 -25 26.5
    endloop
  endfacet
  facet normal 0 -1 0
    outer loop
      vertex 56 -25 9
      vertex 56.5 -25 44
      vertex 56 -25 26
    endloop
  endfacet
  facet normal 0 -1 0
    outer loop
      vertex 19 -25 8.5
      vertex 19 -25 9
      vertex 18.5 -25 8.5
    endloop
  endfacet
  facet normal 0 -1 0
    outer loop
      vertex 19 -25 9
      vertex 19 -25 8.5
      vertex 56 -25 9
    endloop
  endfacet
  facet normal 0 -1 0
    outer loop
      vertex 56 -25 8.5
      vertex 56 -25 9
      vertex 19 -25 8.5
    endloop
  endfacet
  facet normal 0 -1 0
    outer loop
      vertex 56.5 -25 -9
      vertex 56 -25 9
      vertex 56 -25 8.5
    endloop
  endfacet
  facet normal 0 -1 0
    outer loop
      vertex 56.5 -25 -9
      vertex 56 -25 8.5
      vertex 56 -25 -8.5
    endloop
  endfacet
  facet normal 0 -1 0
    outer loop
      vertex 56 -25 9
      vertex 56.5 -25 -9
      vertex 56.5 -25 44
    endloop
  endfacet
  facet normal 0 -1 0
    outer loop
      vertex 19 -25 -8.5
      vertex 56.5 -25 -9
      vertex 56 -25 -8.5
    endloop
  endfacet
  facet normal 0 -1 0
    outer loop
      vertex -18.5 25 8.5
      vertex -16.625 25 6.75
      vertex 18.5 25 8.5
    endloop
  endfacet
  facet normal 0 -1 0
    outer loop
      vertex -18.5 25 8.5
      vertex -16.625 25 -6.75
      vertex -16.625 25 6.75
    endloop
  endfacet
  facet normal 0 -1 -0
    outer loop
      vertex -16.625 25 -6.75
      vertex -18.5 25 -8.5
      vertex 16.625 25 -6.75
    endloop
  endfacet
  facet normal 0 -1 0
    outer loop
      vertex -18.5 25 -8.5
      vertex -16.625 25 -6.75
      vertex -18.5 25 8.5
    endloop
  endfacet
  facet normal 0 -1 0
    outer loop
      vertex 16.625 25 6.75
      vertex 18.5 25 8.5
      vertex -16.625 25 6.75
    endloop
  endfacet
  facet normal 0 -1 0
    outer loop
      vertex 16.625 25 -6.75
      vertex 18.5 25 8.5
      vertex 16.625 25 6.75
    endloop
  endfacet
  facet normal 0 -1 0
    outer loop
      vertex 16.625 25 -6.75
      vertex 18.5 25 -8.5
      vertex 18.5 25 8.5
    endloop
  endfacet
  facet normal 0 -1 0
    outer loop
      vertex 18.5 25 -8.5
      vertex 16.625 25 -6.75
      vertex -18.5 25 -8.5
    endloop
  endfacet
  facet normal 1 -0 0
    outer loop
      vertex -18.5 -25 8.5
      vertex -18.5 25 -8.5
      vertex -18.5 25 8.5
    endloop
  endfacet
  facet normal 1 0 0
    outer loop
      vertex -18.5 25 -8.5
      vertex -18.5 -25 8.5
      vertex -18.5 -25 -8.5
    endloop
  endfacet
  facet normal 0 0 -1
    outer loop
      vertex -18.5 -25 8.5
      vertex 18.5 25 8.5
      vertex 18.5 -25 8.5
    endloop
  endfacet
  facet normal -0 0 -1
    outer loop
      vertex 18.5 25 8.5
      vertex -18.5 -25 8.5
      vertex -18.5 25 8.5
    endloop
  endfacet
  facet normal -1 0 0
    outer loop
      vertex 18.5 -25 26.5
      vertex 18.5 25 43.5
      vertex 18.5 25 26.5
    endloop
  endfacet
  facet normal -1 -0 0
    outer loop
      vertex 18.5 25 43.5
      vertex 18.5 -25 26.5
      vertex 18.5 -25 43.5
    endloop
  endfacet
  facet normal -1 0 0
    outer loop
      vertex 18.5 -25 9
      vertex 18.5 25 26
      vertex 18.5 25 9
    endloop
  endfacet
  facet normal -1 -0 0
    outer loop
      vertex 18.5 25 26
      vertex 18.5 -25 9
      vertex 18.5 -25 26
    endloop
  endfacet
  facet normal -1 0 0
    outer loop
      vertex 18.5 -25 -8.5
      vertex 18.5 25 8.5
      vertex 18.5 25 -8.5
    endloop
  endfacet
  facet normal -1 -0 0
    outer loop
      vertex 18.5 25 8.5
      vertex 18.5 -25 -8.5
      vertex 18.5 -25 8.5
    endloop
  endfacet
  facet normal -0 0 1
    outer loop
      vertex -18.5 25 -8.5
      vertex 18.5 -25 -8.5
      vertex 18.5 25 -8.5
    endloop
  endfacet
  facet normal 0 0 1
    outer loop
      vertex 18.5 -25 -8.5
      vertex -18.5 25 -8.5
      vertex -18.5 -25 -8.5
    endloop
  endfacet
  facet normal 0 0 -1
    outer loop
      vertex -16.625 25 6.75
      vertex 16.625 25.5 6.75
      vertex 16.625 25 6.75
    endloop
  endfacet
  facet normal -0 0 -1
    outer loop
      vertex 16.625 25.5 6.75
      vertex -16.625 25 6.75
      vertex -16.625 25.5 6.75
    endloop
  endfacet
  facet normal 0 1 -0
    outer loop
      vertex 20.875 25.5 -6.75
      vertex 16.625 25.5 6.75
      vertex 20.875 25.5 6.75
    endloop
  endfacet
  facet normal 0 1 0
    outer loop
      vertex 16.625 25.5 6.75
      vertex 20.875 25.5 -6.75
      vertex 16.625 25.5 -6.75
    endloop
  endfacet
  facet normal 0 1 -0
    outer loop
      vertex 20.875 25.5 10.75
      vertex 16.625 25.5 24.25
      vertex 20.875 25.5 24.25
    endloop
  endfacet
  facet normal 0 1 0
    outer loop
      vertex 16.625 25.5 24.25
      vertex 20.875 25.5 10.75
      vertex 16.625 25.5 10.75
    endloop
  endfacet
  facet normal 0 1 -0
    outer loop
      vertex 20.875 25.5 28.25
      vertex 16.625 25.5 41.75
      vertex 20.875 25.5 41.75
    endloop
  endfacet
  facet normal 0 1 0
    outer loop
      vertex 16.625 25.5 41.75
      vertex 20.875 25.5 28.25
      vertex 16.625 25.5 28.25
    endloop
  endfacet
  facet normal 0 1 0
    outer loop
      vertex 20.875 25.5 41.75
      vertex 56.5 25.5 44
      vertex 54.125 25.5 41.75
    endloop
  endfacet
  facet normal 0 1 0
    outer loop
      vertex 56.5 25.5 44
      vertex 54.125 25.5 28.25
      vertex 54.125 25.5 41.75
    endloop
  endfacet
  facet normal 0 1 0
    outer loop
      vertex 20.875 25.5 24.25
      vertex 20.875 25.5 28.25
      vertex 54.125 25.5 28.25
    endloop
  endfacet
  facet normal 0 1 0
    outer loop
      vertex 20.875 25.5 28.25
      vertex 20.875 25.5 24.25
      vertex 16.625 25.5 28.25
    endloop
  endfacet
  facet normal 0 1 0
    outer loop
      vertex 20.875 25.5 24.25
      vertex 54.125 25.5 28.25
      vertex 54.125 25.5 24.25
    endloop
  endfacet
  facet normal 0 1 0
    outer loop
      vertex 56.5 25.5 44
      vertex 54.125 25.5 24.25
      vertex 54.125 25.5 28.25
    endloop
  endfacet
  facet normal 0 1 0
    outer loop
      vertex 56.5 25.5 44
      vertex 54.125 25.5 10.75
      vertex 54.125 25.5 24.25
    endloop
  endfacet
  facet normal 0 1 0
    outer loop
      vertex 20.875 25.5 6.75
      vertex 20.875 25.5 10.75
      vertex 54.125 25.5 10.75
    endloop
  endfacet
  facet normal 0 1 0
    outer loop
      vertex 20.875 25.5 10.75
      vertex 20.875 25.5 6.75
      vertex 16.625 25.5 10.75
    endloop
  endfacet
  facet normal 0 1 0
    outer loop
      vertex 20.875 25.5 6.75
      vertex 54.125 25.5 10.75
      vertex 54.125 25.5 6.75
    endloop
  endfacet
  facet normal 0 1 -0
    outer loop
      vertex 56.5 25.5 -9
      vertex 54.125 25.5 10.75
      vertex 56.5 25.5 44
    endloop
  endfacet
  facet normal 0 1 0
    outer loop
      vertex 54.125 25.5 10.75
      vertex 56.5 25.5 -9
      vertex 54.125 25.5 6.75
    endloop
  endfacet
  facet normal 0 1 0
    outer loop
      vertex 56.5 25.5 -9
      vertex 20.875 25.5 -6.75
      vertex 54.125 25.5 -6.75
    endloop
  endfacet
  facet normal 0 1 0
    outer loop
      vertex 20.875 25.5 -6.75
      vertex 56.5 25.5 -9
      vertex 16.625 25.5 -6.75
    endloop
  endfacet
  facet normal 0 1 0
    outer loop
      vertex -19 25.5 -9
      vertex 16.625 25.5 -6.75
      vertex 56.5 25.5 -9
    endloop
  endfacet
  facet normal 0 1 0
    outer loop
      vertex 54.125 25.5 6.75
      vertex 56.5 25.5 -9
      vertex 54.125 25.5 -6.75
    endloop
  endfacet
  facet normal 0 1 0
    outer loop
      vertex 56.5 25.5 44
      vertex 20.875 25.5 41.75
      vertex -19 25.5 44
    endloop
  endfacet
  facet normal 0 1 -0
    outer loop
      vertex 16.625 25.5 41.75
      vertex -19 25.5 44
      vertex 20.875 25.5 41.75
    endloop
  endfacet
  facet normal 0 1 -0
    outer loop
      vertex -16.625 25.5 41.75
      vertex -19 25.5 44
      vertex 16.625 25.5 41.75
    endloop
  endfacet
  facet normal 0 1 -0
    outer loop
      vertex -16.625 25.5 28.25
      vertex -19 25.5 44
      vertex -16.625 25.5 41.75
    endloop
  endfacet
  facet normal 0 1 0
    outer loop
      vertex 16.625 25.5 24.25
      vertex 16.625 25.5 28.25
      vertex 20.875 25.5 24.25
    endloop
  endfacet
  facet normal 0 1 0
    outer loop
      vertex 16.625 25.5 28.25
      vertex 16.625 25.5 24.25
      vertex -16.625 25.5 28.25
    endloop
  endfacet
  facet normal 0 1 0
    outer loop
      vertex -16.625 25.5 24.25
      vertex -16.625 25.5 28.25
      vertex 16.625 25.5 24.25
    endloop
  endfacet
  facet normal 0 1 -0
    outer loop
      vertex -16.625 25.5 24.25
      vertex -19 25.5 44
      vertex -16.625 25.5 28.25
    endloop
  endfacet
  facet normal 0 1 -0
    outer loop
      vertex -16.625 25.5 10.75
      vertex -19 25.5 44
      vertex -16.625 25.5 24.25
    endloop
  endfacet
  facet normal 0 1 0
    outer loop
      vertex 16.625 25.5 6.75
      vertex 16.625 25.5 10.75
      vertex 20.875 25.5 6.75
    endloop
  endfacet
  facet normal 0 1 0
    outer loop
      vertex 16.625 25.5 10.75
      vertex 16.625 25.5 6.75
      vertex -16.625 25.5 10.75
    endloop
  endfacet
  facet normal 0 1 0
    outer loop
      vertex -16.625 25.5 6.75
      vertex -16.625 25.5 10.75
      vertex 16.625 25.5 6.75
    endloop
  endfacet
  facet normal 0 1 0
    outer loop
      vertex -19 25.5 -9
      vertex -16.625 25.5 10.75
      vertex -16.625 25.5 6.75
    endloop
  endfacet
  facet normal 0 1 0
    outer loop
      vertex -19 25.5 -9
      vertex -16.625 25.5 6.75
      vertex -16.625 25.5 -6.75
    endloop
  endfacet
  facet normal 0 1 0
    outer loop
      vertex -16.625 25.5 10.75
      vertex -19 25.5 -9
      vertex -19 25.5 44
    endloop
  endfacet
  facet normal 0 1 0
    outer loop
      vertex 16.625 25.5 -6.75
      vertex -19 25.5 -9
      vertex -16.625 25.5 -6.75
    endloop
  endfacet
  facet normal -0 0 1
    outer loop
      vertex -16.625 25.5 -6.75
      vertex 16.625 25 -6.75
      vertex 16.625 25.5 -6.75
    endloop
  endfacet
  facet normal 0 0 1
    outer loop
      vertex 16.625 25 -6.75
      vertex -16.625 25.5 -6.75
      vertex -16.625 25 -6.75
    endloop
  endfacet
  facet normal -1 0 0
    outer loop
      vertex 16.625 25 -6.75
      vertex 16.625 25.5 6.75
      vertex 16.625 25.5 -6.75
    endloop
  endfacet
  facet normal -1 -0 0
    outer loop
      vertex 16.625 25.5 6.75
      vertex 16.625 25 -6.75
      vertex 16.625 25 6.75
    endloop
  endfacet
  facet normal 1 -0 0
    outer loop
      vertex -16.625 25 6.75
      vertex -16.625 25.5 -6.75
      vertex -16.625 25.5 6.75
    endloop
  endfacet
  facet normal 1 0 0
    outer loop
      vertex -16.625 25.5 -6.75
      vertex -16.625 25 6.75
      vertex -16.625 25 -6.75
    endloop
  endfacet
  facet normal -0 0 1
    outer loop
      vertex -18.5 25 26.5
      vertex 18.5 -25 26.5
      vertex 18.5 25 26.5
    endloop
  endfacet
  facet normal 0 0 1
    outer loop
      vertex 18.5 -25 26.5
      vertex -18.5 25 26.5
      vertex -18.5 -25 26.5
    endloop
  endfacet
  facet normal 0 -1 0
    outer loop
      vertex -18.5 25 26
      vertex -16.625 25 24.25
      vertex 18.5 25 26
    endloop
  endfacet
  facet normal 0 -1 0
    outer loop
      vertex -18.5 25 26
      vertex -16.625 25 10.75
      vertex -16.625 25 24.25
    endloop
  endfacet
  facet normal 0 -1 -0
    outer loop
      vertex -16.625 25 10.75
      vertex -18.5 25 9
      vertex 16.625 25 10.75
    endloop
  endfacet
  facet normal 0 -1 0
    outer loop
      vertex -18.5 25 9
      vertex -16.625 25 10.75
      vertex -18.5 25 26
    endloop
  endfacet
  facet normal 0 -1 0
    outer loop
      vertex 16.625 25 24.25
      vertex 18.5 25 26
      vertex -16.625 25 24.25
    endloop
  endfacet
  facet normal 0 -1 0
    outer loop
      vertex 16.625 25 10.75
      vertex 18.5 25 26
      vertex 16.625 25 24.25
    endloop
  endfacet
  facet normal 0 -1 0
    outer loop
      vertex 16.625 25 10.75
      vertex 18.5 25 9
      vertex 18.5 25 26
    endloop
  endfacet
  facet normal 0 -1 0
    outer loop
      vertex 18.5 25 9
      vertex 16.625 25 10.75
      vertex -18.5 25 9
    endloop
  endfacet
  facet normal 1 -0 0
    outer loop
      vertex -18.5 -25 26
      vertex -18.5 25 9
      vertex -18.5 25 26
    endloop
  endfacet
  facet normal 1 0 0
    outer loop
      vertex -18.5 25 9
      vertex -18.5 -25 26
      vertex -18.5 -25 9
    endloop
  endfacet
  facet normal 0 0 -1
    outer loop
      vertex -18.5 -25 26
      vertex 18.5 25 26
      vertex 18.5 -25 26
    endloop
  endfacet
  facet normal -0 0 -1
    outer loop
      vertex 18.5 25 26
      vertex -18.5 -25 26
      vertex -18.5 25 26
    endloop
  endfacet
  facet normal 0 0 -1
    outer loop
      vertex -16.625 25 24.25
      vertex 16.625 25.5 24.25
      vertex 16.625 25 24.25
    endloop
  endfacet
  facet normal -0 0 -1
    outer loop
      vertex 16.625 25.5 24.25
      vertex -16.625 25 24.25
      vertex -16.625 25.5 24.25
    endloop
  endfacet
  facet normal -0 0 1
    outer loop
      vertex -16.625 25.5 10.75
      vertex 16.625 25 10.75
      vertex 16.625 25.5 10.75
    endloop
  endfacet
  facet normal 0 0 1
    outer loop
      vertex 16.625 25 10.75
      vertex -16.625 25.5 10.75
      vertex -16.625 25 10.75
    endloop
  endfacet
  facet normal -1 0 0
    outer loop
      vertex 16.625 25 10.75
      vertex 16.625 25.5 24.25
      vertex 16.625 25.5 10.75
    endloop
  endfacet
  facet normal -1 -0 0
    outer loop
      vertex 16.625 25.5 24.25
      vertex 16.625 25 10.75
      vertex 16.625 25 24.25
    endloop
  endfacet
  facet normal 1 -0 0
    outer loop
      vertex -16.625 25 24.25
      vertex -16.625 25.5 10.75
      vertex -16.625 25.5 24.25
    endloop
  endfacet
  facet normal 1 0 0
    outer loop
      vertex -16.625 25.5 10.75
      vertex -16.625 25 24.25
      vertex -16.625 25 10.75
    endloop
  endfacet
  facet normal -0 0 1
    outer loop
      vertex -19 25.5 44
      vertex 56.5 -25 44
      vertex 56.5 25.5 44
    endloop
  endfacet
  facet normal 0 0 1
    outer loop
      vertex 56.5 -25 44
      vertex -19 25.5 44
      vertex -19 -25 44
    endloop
  endfacet
  facet normal 0 -1 0
    outer loop
      vertex -18.5 25 43.5
      vertex -16.625 25 41.75
      vertex 18.5 25 43.5
    endloop
  endfacet
  facet normal 0 -1 0
    outer loop
      vertex -18.5 25 43.5
      vertex -16.625 25 28.25
      vertex -16.625 25 41.75
    endloop
  endfacet
  facet normal 0 -1 -0
    outer loop
      vertex -16.625 25 28.25
      vertex -18.5 25 26.5
      vertex 16.625 25 28.25
    endloop
  endfacet
  facet normal 0 -1 0
    outer loop
      vertex -18.5 25 26.5
      vertex -16.625 25 28.25
      vertex -18.5 25 43.5
    endloop
  endfacet
  facet normal 0 -1 0
    outer loop
      vertex 16.625 25 41.75
      vertex 18.5 25 43.5
      vertex -16.625 25 41.75
    endloop
  endfacet
  facet normal 0 -1 0
    outer loop
      vertex 16.625 25 28.25
      vertex 18.5 25 43.5
      vertex 16.625 25 41.75
    endloop
  endfacet
  facet normal 0 -1 0
    outer loop
      vertex 16.625 25 28.25
      vertex 18.5 25 26.5
      vertex 18.5 25 43.5
    endloop
  endfacet
  facet normal 0 -1 0
    outer loop
      vertex 18.5 25 26.5
      vertex 16.625 25 28.25
      vertex -18.5 25 26.5
    endloop
  endfacet
  facet normal 1 -0 0
    outer loop
      vertex -18.5 -25 43.5
      vertex -18.5 25 26.5
      vertex -18.5 25 43.5
    endloop
  endfacet
  facet normal 1 0 0
    outer loop
      vertex -18.5 25 26.5
      vertex -18.5 -25 43.5
      vertex -18.5 -25 26.5
    endloop
  endfacet
  facet normal 0 0 -1
    outer loop
      vertex -18.5 -25 43.5
      vertex 18.5 25 43.5
      vertex 18.5 -25 43.5
    endloop
  endfacet
  facet normal -0 0 -1
    outer loop
      vertex 18.5 25 43.5
      vertex -18.5 -25 43.5
      vertex -18.5 25 43.5
    endloop
  endfacet
  facet normal 0 0 -1
    outer loop
      vertex -16.625 25 41.75
      vertex 16.625 25.5 41.75
      vertex 16.625 25 41.75
    endloop
  endfacet
  facet normal -0 0 -1
    outer loop
      vertex 16.625 25.5 41.75
      vertex -16.625 25 41.75
      vertex -16.625 25.5 41.75
    endloop
  endfacet
  facet normal -0 0 1
    outer loop
      vertex -16.625 25.5 28.25
      vertex 16.625 25 28.25
      vertex 16.625 25.5 28.25
    endloop
  endfacet
  facet normal 0 0 1
    outer loop
      vertex 16.625 25 28.25
      vertex -16.625 25.5 28.25
      vertex -16.625 25 28.25
    endloop
  endfacet
  facet normal -1 0 0
    outer loop
      vertex 16.625 25 28.25
      vertex 16.625 25.5 41.75
      vertex 16.625 25.5 28.25
    endloop
  endfacet
  facet normal -1 -0 0
    outer loop
      vertex 16.625 25.5 41.75
      vertex 16.625 25 28.25
      vertex 16.625 25 41.75
    endloop
  endfacet
  facet normal 1 -0 0
    outer loop
      vertex -16.625 25 41.75
      vertex -16.625 25.5 28.25
      vertex -16.625 25.5 41.75
    endloop
  endfacet
  facet normal 1 0 0
    outer loop
      vertex -16.625 25.5 28.25
      vertex -16.625 25 41.75
      vertex -16.625 25 28.25
    endloop
  endfacet
  facet normal -0 0 1
    outer loop
      vertex 19 25 9
      vertex 56 -25 9
      vertex 56 25 9
    endloop
  endfacet
  facet normal 0 0 1
    outer loop
      vertex 56 -25 9
      vertex 19 25 9
      vertex 19 -25 9
    endloop
  endfacet
  facet normal 1 -0 0
    outer loop
      vertex 56.5 -25 44
      vertex 56.5 25.5 -9
      vertex 56.5 25.5 44
    endloop
  endfacet
  facet normal 1 0 0
    outer loop
      vertex 56.5 25.5 -9
      vertex 56.5 -25 44
      vertex 56.5 -25 -9
    endloop
  endfacet
  facet normal 0 -1 0
    outer loop
      vertex 19 25 8.5
      vertex 20.875 25 6.75
      vertex 56 25 8.5
    endloop
  endfacet
  facet normal 0 -1 0
    outer loop
      vertex 19 25 8.5
      vertex 20.875 25 -6.75
      vertex 20.875 25 6.75
    endloop
  endfacet
  facet normal 0 -1 -0
    outer loop
      vertex 20.875 25 -6.75
      vertex 19 25 -8.5
      vertex 54.125 25 -6.75
    endloop
  endfacet
  facet normal 0 -1 0
    outer loop
      vertex 19 25 -8.5
      vertex 20.875 25 -6.75
      vertex 19 25 8.5
    endloop
  endfacet
  facet normal 0 -1 0
    outer loop
      vertex 54.125 25 6.75
      vertex 56 25 8.5
      vertex 20.875 25 6.75
    endloop
  endfacet
  facet normal 0 -1 0
    outer loop
      vertex 54.125 25 -6.75
      vertex 56 25 8.5
      vertex 54.125 25 6.75
    endloop
  endfacet
  facet normal 0 -1 0
    outer loop
      vertex 54.125 25 -6.75
      vertex 56 25 -8.5
      vertex 56 25 8.5
    endloop
  endfacet
  facet normal 0 -1 0
    outer loop
      vertex 56 25 -8.5
      vertex 54.125 25 -6.75
      vertex 19 25 -8.5
    endloop
  endfacet
  facet normal 0 0 -1
    outer loop
      vertex 19 -25 8.5
      vertex 56 25 8.5
      vertex 56 -25 8.5
    endloop
  endfacet
  facet normal -0 0 -1
    outer loop
      vertex 56 25 8.5
      vertex 19 -25 8.5
      vertex 19 25 8.5
    endloop
  endfacet
  facet normal -1 0 0
    outer loop
      vertex 56 -25 -8.5
      vertex 56 25 8.5
      vertex 56 25 -8.5
    endloop
  endfacet
  facet normal -1 -0 0
    outer loop
      vertex 56 25 8.5
      vertex 56 -25 -8.5
      vertex 56 -25 8.5
    endloop
  endfacet
  facet normal -0 0 1
    outer loop
      vertex 19 25 -8.5
      vertex 56 -25 -8.5
      vertex 56 25 -8.5
    endloop
  endfacet
  facet normal 0 0 1
    outer loop
      vertex 56 -25 -8.5
      vertex 19 25 -8.5
      vertex 19 -25 -8.5
    endloop
  endfacet
  facet normal 0 0 -1
    outer loop
      vertex 20.875 25 6.75
      vertex 54.125 25.5 6.75
      vertex 54.125 25 6.75
    endloop
  endfacet
  facet normal -0 0 -1
    outer loop
      vertex 54.125 25.5 6.75
      vertex 20.875 25 6.75
      vertex 20.875 25.5 6.75
    endloop
  endfacet
  facet normal -0 0 1
    outer loop
      vertex 20.875 25.5 -6.75
      vertex 54.125 25 -6.75
      vertex 54.125 25.5 -6.75
    endloop
  endfacet
  facet normal 0 0 1
    outer loop
      vertex 54.125 25 -6.75
      vertex 20.875 25.5 -6.75
      vertex 20.875 25 -6.75
    endloop
  endfacet
  facet normal -1 0 0
    outer loop
      vertex 54.125 25 -6.75
      vertex 54.125 25.5 6.75
      vertex 54.125 25.5 -6.75
    endloop
  endfacet
  facet normal -1 -0 0
    outer loop
      vertex 54.125 25.5 6.75
      vertex 54.125 25 -6.75
      vertex 54.125 25 6.75
    endloop
  endfacet
  facet normal 1 -0 0
    outer loop
      vertex 20.875 25 6.75
      vertex 20.875 25.5 -6.75
      vertex 20.875 25.5 6.75
    endloop
  endfacet
  facet normal 1 0 0
    outer loop
      vertex 20.875 25.5 -6.75
      vertex 20.875 25 6.75
      vertex 20.875 25 -6.75
    endloop
  endfacet
  facet normal -0 0 1
    outer loop
      vertex 19 25 26.5
      vertex 56 -25 26.5
      vertex 56 25 26.5
    endloop
  endfacet
  facet normal 0 0 1
    outer loop
      vertex 56 -25 26.5
      vertex 19 25 26.5
      vertex 19 -25 26.5
    endloop
  endfacet
  facet normal 0 -1 0
    outer loop
      vertex 19 25 26
      vertex 20.875 25 24.25
      vertex 56 25 26
    endloop
  endfacet
  facet normal 0 -1 0
    outer loop
      vertex 19 25 26
      vertex 20.875 25 10.75
      vertex 20.875 25 24.25
    endloop
  endfacet
  facet normal 0 -1 -0
    outer loop
      vertex 20.875 25 10.75
      vertex 19 25 9
      vertex 54.125 25 10.75
    endloop
  endfacet
  facet normal 0 -1 0
    outer loop
      vertex 19 25 9
      vertex 20.875 25 10.75
      vertex 19 25 26
    endloop
  endfacet
  facet normal 0 -1 0
    outer loop
      vertex 54.125 25 24.25
      vertex 56 25 26
      vertex 20.875 25 24.25
    endloop
  endfacet
  facet normal 0 -1 0
    outer loop
      vertex 54.125 25 10.75
      vertex 56 25 26
      vertex 54.125 25 24.25
    endloop
  endfacet
  facet normal 0 -1 0
    outer loop
      vertex 54.125 25 10.75
      vertex 56 25 9
      vertex 56 25 26
    endloop
  endfacet
  facet normal 0 -1 0
    outer loop
      vertex 56 25 9
      vertex 54.125 25 10.75
      vertex 19 25 9
    endloop
  endfacet
  facet normal 0 0 -1
    outer loop
      vertex 19 -25 26
      vertex 56 25 26
      vertex 56 -25 26
    endloop
  endfacet
  facet normal -0 0 -1
    outer loop
      vertex 56 25 26
      vertex 19 -25 26
      vertex 19 25 26
    endloop
  endfacet
  facet normal -1 0 0
    outer loop
      vertex 56 -25 9
      vertex 56 25 26
      vertex 56 25 9
    endloop
  endfacet
  facet normal -1 -0 0
    outer loop
      vertex 56 25 26
      vertex 56 -25 9
      vertex 56 -25 26
    endloop
  endfacet
  facet normal 0 0 -1
    outer loop
      vertex 20.875 25 24.25
      vertex 54.125 25.5 24.25
      vertex 54.125 25 24.25
    endloop
  endfacet
  facet normal -0 0 -1
    outer loop
      vertex 54.125 25.5 24.25
      vertex 20.875 25 24.25
      vertex 20.875 25.5 24.25
    endloop
  endfacet
  facet normal -0 0 1
    outer loop
      vertex 20.875 25.5 10.75
      vertex 54.125 25 10.75
      vertex 54.125 25.5 10.75
    endloop
  endfacet
  facet normal 0 0 1
    outer loop
      vertex 54.125 25 10.75
      vertex 20.875 25.5 10.75
      vertex 20.875 25 10.75
    endloop
  endfacet
  facet normal -1 0 0
    outer loop
      vertex 54.125 25 10.75
      vertex 54.125 25.5 24.25
      vertex 54.125 25.5 10.75
    endloop
  endfacet
  facet normal -1 -0 0
    outer loop
      vertex 54.125 25.5 24.25
      vertex 54.125 25 10.75
      vertex 54.125 25 24.25
    endloop
  endfacet
  facet normal 1 -0 0
    outer loop
      vertex 20.875 25 24.25
      vertex 20.875 25.5 10.75
      vertex 20.875 25.5 24.25
    endloop
  endfacet
  facet normal 1 0 0
    outer loop
      vertex 20.875 25.5 10.75
      vertex 20.875 25 24.25
      vertex 20.875 25 10.75
    endloop
  endfacet
  facet normal 0 -1 0
    outer loop
      vertex 19 25 43.5
      vertex 20.875 25 41.75
      vertex 56 25 43.5
    endloop
  endfacet
  facet normal 0 -1 0
    outer loop
      vertex 19 25 43.5
      vertex 20.875 25 28.25
      vertex 20.875 25 41.75
    endloop
  endfacet
  facet normal 0 -1 -0
    outer loop
      vertex 20.875 25 28.25
      vertex 19 25 26.5
      vertex 54.125 25 28.25
    endloop
  endfacet
  facet normal 0 -1 0
    outer loop
      vertex 19 25 26.5
      vertex 20.875 25 28.25
      vertex 19 25 43.5
    endloop
  endfacet
  facet normal 0 -1 0
    outer loop
      vertex 54.125 25 41.75
      vertex 56 25 43.5
      vertex 20.875 25 41.75
    endloop
  endfacet
  facet normal 0 -1 0
    outer loop
      vertex 54.125 25 28.25
      vertex 56 25 43.5
      vertex 54.125 25 41.75
    endloop
  endfacet
  facet normal 0 -1 0
    outer loop
      vertex 54.125 25 28.25
      vertex 56 25 26.5
      vertex 56 25 43.5
    endloop
  endfacet
  facet normal 0 -1 0
    outer loop
      vertex 56 25 26.5
      vertex 54.125 25 28.25
      vertex 19 25 26.5
    endloop
  endfacet
  facet normal 0 0 -1
    outer loop
      vertex 19 -25 43.5
      vertex 56 25 43.5
      vertex 56 -25 43.5
    endloop
  endfacet
  facet normal -0 0 -1
    outer loop
      vertex 56 25 43.5
      vertex 19 -25 43.5
      vertex 19 25 43.5
    endloop
  endfacet
  facet normal -1 0 0
    outer loop
      vertex 56 -25 26.5
      vertex 56 25 43.5
      vertex 56 25 26.5
    endloop
  endfacet
  facet normal -1 -0 0
    outer loop
      vertex 56 25 43.5
      vertex 56 -25 26.5
      vertex 56 -25 43.5
    endloop
  endfacet
  facet normal 0 0 -1
    outer loop
      vertex 20.875 25 41.75
      vertex 54.125 25.5 41.75
      vertex 54.125 25 41.75
    endloop
  endfacet
  facet normal -0 0 -1
    outer loop
      vertex 54.125 25.5 41.75
      vertex 20.875 25 41.75
      vertex 20.875 25.5 41.75
    endloop
  endfacet
  facet normal -0 0 1
    outer loop
      vertex 20.875 25.5 28.25
      vertex 54.125 25 28.25
      vertex 54.125 25.5 28.25
    endloop
  endfacet
  facet normal 0 0 1
    outer loop
      vertex 54.125 25 28.25
      vertex 20.875 25.5 28.25
      vertex 20.875 25 28.25
    endloop
  endfacet
  facet normal -1 0 0
    outer loop
      vertex 54.125 25 28.25
      vertex 54.125 25.5 41.75
      vertex 54.125 25.5 28.25
    endloop
  endfacet
  facet normal -1 -0 0
    outer loop
      vertex 54.125 25.5 41.75
      vertex 54.125 25 28.25
      vertex 54.125 25 41.75
    endloop
  endfacet
  facet normal 1 -0 0
    outer loop
      vertex 20.875 25 41.75
      vertex 20.875 25.5 28.25
      vertex 20.875 25.5 41.75
    endloop
  endfacet
  facet normal 1 0 0
    outer loop
      vertex 20.875 25.5 28.25
      vertex 20.875 25 41.75
      vertex 20.875 25 28.25
    endloop
  endfacet
endsolid OpenSCAD_Model
