solid OpenSCAD_Model
  facet normal -1 0 0
    outer loop
      vertex -24.6 0 0
      vertex -24.6 22 3
      vertex -24.6 22 0
    endloop
  endfacet
  facet normal -1 -0 0
    outer loop
      vertex -24.6 22 3
      vertex -24.6 0 0
      vertex -24.6 0 3
    endloop
  endfacet
  facet normal 0 0 1
    outer loop
      vertex -1.5 22 3
      vertex -3.6 20 3
      vertex -1.5 20 3
    endloop
  endfacet
  facet normal 0 0 1
    outer loop
      vertex -3.6 20 3
      vertex -5.7 18 3
      vertex -3.6 18 3
    endloop
  endfacet
  facet normal -0 0 1
    outer loop
      vertex -24.6 22 3
      vertex -3.6 20 3
      vertex -1.5 22 3
    endloop
  endfacet
  facet normal 0 0 1
    outer loop
      vertex -5.7 18 3
      vertex -7.8 16 3
      vertex -5.7 16 3
    endloop
  endfacet
  facet normal 0 0 1
    outer loop
      vertex -3.6 20 3
      vertex -24.6 22 3
      vertex -5.7 18 3
    endloop
  endfacet
  facet normal 0 0 1
    outer loop
      vertex -7.8 16 3
      vertex -9.9 14 3
      vertex -7.8 14 3
    endloop
  endfacet
  facet normal 0 0 1
    outer loop
      vertex -9.9 14 3
      vertex -12 12 3
      vertex -9.9 12 3
    endloop
  endfacet
  facet normal 0 0 1
    outer loop
      vertex -24.6 22 3
      vertex -9.9 14 3
      vertex -7.8 16 3
    endloop
  endfacet
  facet normal 0 0 1
    outer loop
      vertex -5.7 18 3
      vertex -24.6 22 3
      vertex -7.8 16 3
    endloop
  endfacet
  facet normal 0 0 1
    outer loop
      vertex -12 12 3
      vertex -14.1 10 3
      vertex -12 10 3
    endloop
  endfacet
  facet normal 0 0 1
    outer loop
      vertex -14.1 10 3
      vertex -16.2 8 3
      vertex -14.1 8 3
    endloop
  endfacet
  facet normal 0 0 1
    outer loop
      vertex -24.6 22 3
      vertex -14.1 10 3
      vertex -12 12 3
    endloop
  endfacet
  facet normal 0 0 1
    outer loop
      vertex -9.9 14 3
      vertex -24.6 22 3
      vertex -12 12 3
    endloop
  endfacet
  facet normal 0 0 1
    outer loop
      vertex -16.2 8 3
      vertex -18.3 6 3
      vertex -16.2 6 3
    endloop
  endfacet
  facet normal 0 0 1
    outer loop
      vertex -14.1 10 3
      vertex -24.6 22 3
      vertex -16.2 8 3
    endloop
  endfacet
  facet normal 0 0 1
    outer loop
      vertex -18.3 6 3
      vertex -20.4 4 3
      vertex -18.3 4 3
    endloop
  endfacet
  facet normal 0 0 1
    outer loop
      vertex -20.4 4 3
      vertex -22.5 2 3
      vertex -20.4 2 3
    endloop
  endfacet
  facet normal 0 0 1
    outer loop
      vertex -24.6 22 3
      vertex -20.4 4 3
      vertex -18.3 6 3
    endloop
  endfacet
  facet normal 0 0 1
    outer loop
      vertex -16.2 8 3
      vertex -24.6 22 3
      vertex -18.3 6 3
    endloop
  endfacet
  facet normal 0 0 1
    outer loop
      vertex -20.4 4 3
      vertex -24.6 22 3
      vertex -22.5 2 3
    endloop
  endfacet
  facet normal 0 0 1
    outer loop
      vertex -24.6 0 3
      vertex -22.5 2 3
      vertex -24.6 22 3
    endloop
  endfacet
  facet normal 0 0 1
    outer loop
      vertex -22.5 2 3
      vertex -24.6 0 3
      vertex -22.5 0 3
    endloop
  endfacet
  facet normal 1 -0 0
    outer loop
      vertex -22.5 0 3
      vertex -22.5 2 0
      vertex -22.5 2 3
    endloop
  endfacet
  facet normal 1 0 0
    outer loop
      vertex -22.5 2 0
      vertex -22.5 0 3
      vertex -22.5 0 0
    endloop
  endfacet
  facet normal 0 0 -1
    outer loop
      vertex -22.5 0 0
      vertex -24.6 0 0
      vertex -22.5 2 0
    endloop
  endfacet
  facet normal 0 0 -1
    outer loop
      vertex -20.4 2 0
      vertex -22.5 2 0
      vertex -20.4 4 0
    endloop
  endfacet
  facet normal 0 0 -1
    outer loop
      vertex -18.3 4 0
      vertex -20.4 4 0
      vertex -18.3 6 0
    endloop
  endfacet
  facet normal 0 0 -1
    outer loop
      vertex -16.2 6 0
      vertex -18.3 6 0
      vertex -16.2 8 0
    endloop
  endfacet
  facet normal 0 0 -1
    outer loop
      vertex -14.1 8 0
      vertex -16.2 8 0
      vertex -14.1 10 0
    endloop
  endfacet
  facet normal 0 0 -1
    outer loop
      vertex -12 10 0
      vertex -14.1 10 0
      vertex -12 12 0
    endloop
  endfacet
  facet normal 0 0 -1
    outer loop
      vertex -9.9 12 0
      vertex -12 12 0
      vertex -9.9 14 0
    endloop
  endfacet
  facet normal 0 0 -1
    outer loop
      vertex -7.8 14 0
      vertex -9.9 14 0
      vertex -7.8 16 0
    endloop
  endfacet
  facet normal 0 0 -1
    outer loop
      vertex -5.7 16 0
      vertex -7.8 16 0
      vertex -5.7 18 0
    endloop
  endfacet
  facet normal 0 0 -1
    outer loop
      vertex -3.6 18 0
      vertex -5.7 18 0
      vertex -3.6 20 0
    endloop
  endfacet
  facet normal 0 0 -1
    outer loop
      vertex -3.6 20 0
      vertex -1.5 22 0
      vertex -1.5 20 0
    endloop
  endfacet
  facet normal 0 0 -1
    outer loop
      vertex -24.6 22 0
      vertex -3.6 20 0
      vertex -5.7 18 0
    endloop
  endfacet
  facet normal 0 0 -1
    outer loop
      vertex -24.6 22 0
      vertex -5.7 18 0
      vertex -7.8 16 0
    endloop
  endfacet
  facet normal 0 0 -1
    outer loop
      vertex -24.6 22 0
      vertex -9.9 14 0
      vertex -12 12 0
    endloop
  endfacet
  facet normal 0 0 -1
    outer loop
      vertex -9.9 14 0
      vertex -24.6 22 0
      vertex -7.8 16 0
    endloop
  endfacet
  facet normal 0 0 -1
    outer loop
      vertex -24.6 22 0
      vertex -14.1 10 0
      vertex -16.2 8 0
    endloop
  endfacet
  facet normal 0 0 -1
    outer loop
      vertex -14.1 10 0
      vertex -24.6 22 0
      vertex -12 12 0
    endloop
  endfacet
  facet normal 0 0 -1
    outer loop
      vertex -24.6 22 0
      vertex -16.2 8 0
      vertex -18.3 6 0
    endloop
  endfacet
  facet normal 0 0 -1
    outer loop
      vertex -24.6 22 0
      vertex -20.4 4 0
      vertex -22.5 2 0
    endloop
  endfacet
  facet normal 0 0 -1
    outer loop
      vertex -24.6 22 0
      vertex -22.5 2 0
      vertex -24.6 0 0
    endloop
  endfacet
  facet normal 0 0 -1
    outer loop
      vertex -3.6 20 0
      vertex -24.6 22 0
      vertex -1.5 22 0
    endloop
  endfacet
  facet normal 0 0 -1
    outer loop
      vertex -20.4 4 0
      vertex -24.6 22 0
      vertex -18.3 6 0
    endloop
  endfacet
  facet normal 0 -1 0
    outer loop
      vertex -24.6 0 0
      vertex -22.5 0 3
      vertex -24.6 0 3
    endloop
  endfacet
  facet normal 0 -1 -0
    outer loop
      vertex -22.5 0 3
      vertex -24.6 0 0
      vertex -22.5 0 0
    endloop
  endfacet
  facet normal 0 -1 0
    outer loop
      vertex -22.5 2 0
      vertex -20.4 2 3
      vertex -22.5 2 3
    endloop
  endfacet
  facet normal 0 -1 -0
    outer loop
      vertex -20.4 2 3
      vertex -22.5 2 0
      vertex -20.4 2 0
    endloop
  endfacet
  facet normal 1 -0 0
    outer loop
      vertex -20.4 2 3
      vertex -20.4 4 0
      vertex -20.4 4 3
    endloop
  endfacet
  facet normal 1 0 0
    outer loop
      vertex -20.4 4 0
      vertex -20.4 2 3
      vertex -20.4 2 0
    endloop
  endfacet
  facet normal 0 -1 0
    outer loop
      vertex -20.4 4 0
      vertex -18.3 4 3
      vertex -20.4 4 3
    endloop
  endfacet
  facet normal 0 -1 -0
    outer loop
      vertex -18.3 4 3
      vertex -20.4 4 0
      vertex -18.3 4 0
    endloop
  endfacet
  facet normal 1 -0 0
    outer loop
      vertex -18.3 4 3
      vertex -18.3 6 0
      vertex -18.3 6 3
    endloop
  endfacet
  facet normal 1 0 0
    outer loop
      vertex -18.3 6 0
      vertex -18.3 4 3
      vertex -18.3 4 0
    endloop
  endfacet
  facet normal 0 -1 0
    outer loop
      vertex -18.3 6 0
      vertex -16.2 6 3
      vertex -18.3 6 3
    endloop
  endfacet
  facet normal 0 -1 -0
    outer loop
      vertex -16.2 6 3
      vertex -18.3 6 0
      vertex -16.2 6 0
    endloop
  endfacet
  facet normal 1 -0 0
    outer loop
      vertex -16.2 6 3
      vertex -16.2 8 0
      vertex -16.2 8 3
    endloop
  endfacet
  facet normal 1 0 0
    outer loop
      vertex -16.2 8 0
      vertex -16.2 6 3
      vertex -16.2 6 0
    endloop
  endfacet
  facet normal 0 -1 0
    outer loop
      vertex -16.2 8 0
      vertex -14.1 8 3
      vertex -16.2 8 3
    endloop
  endfacet
  facet normal 0 -1 -0
    outer loop
      vertex -14.1 8 3
      vertex -16.2 8 0
      vertex -14.1 8 0
    endloop
  endfacet
  facet normal 1 -0 0
    outer loop
      vertex -14.1 8 3
      vertex -14.1 10 0
      vertex -14.1 10 3
    endloop
  endfacet
  facet normal 1 0 0
    outer loop
      vertex -14.1 10 0
      vertex -14.1 8 3
      vertex -14.1 8 0
    endloop
  endfacet
  facet normal 0 -1 0
    outer loop
      vertex -14.1 10 0
      vertex -12 10 3
      vertex -14.1 10 3
    endloop
  endfacet
  facet normal 0 -1 -0
    outer loop
      vertex -12 10 3
      vertex -14.1 10 0
      vertex -12 10 0
    endloop
  endfacet
  facet normal 1 -0 0
    outer loop
      vertex -12 10 3
      vertex -12 12 0
      vertex -12 12 3
    endloop
  endfacet
  facet normal 1 0 0
    outer loop
      vertex -12 12 0
      vertex -12 10 3
      vertex -12 10 0
    endloop
  endfacet
  facet normal 0 -1 0
    outer loop
      vertex -12 12 0
      vertex -9.9 12 3
      vertex -12 12 3
    endloop
  endfacet
  facet normal 0 -1 -0
    outer loop
      vertex -9.9 12 3
      vertex -12 12 0
      vertex -9.9 12 0
    endloop
  endfacet
  facet normal 1 -0 0
    outer loop
      vertex -9.9 12 3
      vertex -9.9 14 0
      vertex -9.9 14 3
    endloop
  endfacet
  facet normal 1 0 0
    outer loop
      vertex -9.9 14 0
      vertex -9.9 12 3
      vertex -9.9 12 0
    endloop
  endfacet
  facet normal 0 -1 0
    outer loop
      vertex -9.9 14 0
      vertex -7.8 14 3
      vertex -9.9 14 3
    endloop
  endfacet
  facet normal 0 -1 -0
    outer loop
      vertex -7.8 14 3
      vertex -9.9 14 0
      vertex -7.8 14 0
    endloop
  endfacet
  facet normal 1 -0 0
    outer loop
      vertex -7.8 14 3
      vertex -7.8 16 0
      vertex -7.8 16 3
    endloop
  endfacet
  facet normal 1 0 0
    outer loop
      vertex -7.8 16 0
      vertex -7.8 14 3
      vertex -7.8 14 0
    endloop
  endfacet
  facet normal 0 -1 0
    outer loop
      vertex -7.8 16 0
      vertex -5.7 16 3
      vertex -7.8 16 3
    endloop
  endfacet
  facet normal 0 -1 -0
    outer loop
      vertex -5.7 16 3
      vertex -7.8 16 0
      vertex -5.7 16 0
    endloop
  endfacet
  facet normal 1 -0 0
    outer loop
      vertex -5.7 16 3
      vertex -5.7 18 0
      vertex -5.7 18 3
    endloop
  endfacet
  facet normal 1 0 0
    outer loop
      vertex -5.7 18 0
      vertex -5.7 16 3
      vertex -5.7 16 0
    endloop
  endfacet
  facet normal 0 -1 0
    outer loop
      vertex -5.7 18 0
      vertex -3.6 18 3
      vertex -5.7 18 3
    endloop
  endfacet
  facet normal 0 -1 -0
    outer loop
      vertex -3.6 18 3
      vertex -5.7 18 0
      vertex -3.6 18 0
    endloop
  endfacet
  facet normal 1 -0 0
    outer loop
      vertex -3.6 18 3
      vertex -3.6 20 0
      vertex -3.6 20 3
    endloop
  endfacet
  facet normal 1 0 0
    outer loop
      vertex -3.6 20 0
      vertex -3.6 18 3
      vertex -3.6 18 0
    endloop
  endfacet
  facet normal 0 -1 0
    outer loop
      vertex -3.6 20 0
      vertex -1.5 20 3
      vertex -3.6 20 3
    endloop
  endfacet
  facet normal 0 -1 -0
    outer loop
      vertex -1.5 20 3
      vertex -3.6 20 0
      vertex -1.5 20 0
    endloop
  endfacet
  facet normal 1 -0 0
    outer loop
      vertex -1.5 20 3
      vertex -1.5 22 0
      vertex -1.5 22 3
    endloop
  endfacet
  facet normal 1 0 0
    outer loop
      vertex -1.5 22 0
      vertex -1.5 20 3
      vertex -1.5 20 0
    endloop
  endfacet
  facet normal 0 1 -0
    outer loop
      vertex -1.5 22 0
      vertex -24.6 22 3
      vertex -1.5 22 3
    endloop
  endfacet
  facet normal 0 1 0
    outer loop
      vertex -24.6 22 3
      vertex -1.5 22 0
      vertex -24.6 22 0
    endloop
  endfacet
  facet normal 0 -1 0
    outer loop
      vertex -22 -24.6 0
      vertex -5.4623e-15 -24.6 3
      vertex -22 -24.6 3
    endloop
  endfacet
  facet normal 0 -1 -0
    outer loop
      vertex -5.4623e-15 -24.6 3
      vertex -22 -24.6 0
      vertex -5.4623e-15 -24.6 0
    endloop
  endfacet
  facet normal 0 0 1
    outer loop
      vertex -20 -1.5 3
      vertex -22 -1.5 3
      vertex -20 -3.6 3
    endloop
  endfacet
  facet normal 0 0 1
    outer loop
      vertex -18 -3.6 3
      vertex -20 -3.6 3
      vertex -18 -5.7 3
    endloop
  endfacet
  facet normal 0 0 1
    outer loop
      vertex -16 -5.7 3
      vertex -18 -5.7 3
      vertex -16 -7.8 3
    endloop
  endfacet
  facet normal 0 0 1
    outer loop
      vertex -14 -7.8 3
      vertex -16 -7.8 3
      vertex -14 -9.9 3
    endloop
  endfacet
  facet normal 0 0 1
    outer loop
      vertex -12 -9.9 3
      vertex -14 -9.9 3
      vertex -12 -12 3
    endloop
  endfacet
  facet normal 0 0 1
    outer loop
      vertex -10 -12 3
      vertex -12 -12 3
      vertex -10 -14.1 3
    endloop
  endfacet
  facet normal 0 0 1
    outer loop
      vertex -8 -14.1 3
      vertex -10 -14.1 3
      vertex -8 -16.2 3
    endloop
  endfacet
  facet normal 0 0 1
    outer loop
      vertex -6 -16.2 3
      vertex -8 -16.2 3
      vertex -6 -18.3 3
    endloop
  endfacet
  facet normal 0 0 1
    outer loop
      vertex -4 -18.3 3
      vertex -6 -18.3 3
      vertex -4 -20.4 3
    endloop
  endfacet
  facet normal 0 0 1
    outer loop
      vertex -2 -20.4 3
      vertex -4 -20.4 3
      vertex -2 -22.5 3
    endloop
  endfacet
  facet normal -0 0 1
    outer loop
      vertex -2 -22.5 3
      vertex -5.4623e-15 -24.6 3
      vertex -4.996e-15 -22.5 3
    endloop
  endfacet
  facet normal 0 0 1
    outer loop
      vertex -22 -24.6 3
      vertex -2 -22.5 3
      vertex -4 -20.4 3
    endloop
  endfacet
  facet normal 0 0 1
    outer loop
      vertex -22 -24.6 3
      vertex -4 -20.4 3
      vertex -6 -18.3 3
    endloop
  endfacet
  facet normal 0 0 1
    outer loop
      vertex -22 -24.6 3
      vertex -8 -16.2 3
      vertex -10 -14.1 3
    endloop
  endfacet
  facet normal 0 0 1
    outer loop
      vertex -22 -24.6 3
      vertex -10 -14.1 3
      vertex -12 -12 3
    endloop
  endfacet
  facet normal 0 0 1
    outer loop
      vertex -22 -24.6 3
      vertex -14 -9.9 3
      vertex -16 -7.8 3
    endloop
  endfacet
  facet normal 0 0 1
    outer loop
      vertex -14 -9.9 3
      vertex -22 -24.6 3
      vertex -12 -12 3
    endloop
  endfacet
  facet normal 0 0 1
    outer loop
      vertex -22 -24.6 3
      vertex -18 -5.7 3
      vertex -20 -3.6 3
    endloop
  endfacet
  facet normal 0 0 1
    outer loop
      vertex -22 -24.6 3
      vertex -20 -3.6 3
      vertex -22 -1.5 3
    endloop
  endfacet
  facet normal 0 0 1
    outer loop
      vertex -18 -5.7 3
      vertex -22 -24.6 3
      vertex -16 -7.8 3
    endloop
  endfacet
  facet normal 0 0 1
    outer loop
      vertex -2 -22.5 3
      vertex -22 -24.6 3
      vertex -5.4623e-15 -24.6 3
    endloop
  endfacet
  facet normal 0 0 1
    outer loop
      vertex -8 -16.2 3
      vertex -22 -24.6 3
      vertex -6 -18.3 3
    endloop
  endfacet
  facet normal 0 1 -0
    outer loop
      vertex -4.996e-15 -22.5 0
      vertex -2 -22.5 3
      vertex -4.996e-15 -22.5 3
    endloop
  endfacet
  facet normal 0 1 0
    outer loop
      vertex -2 -22.5 3
      vertex -4.996e-15 -22.5 0
      vertex -2 -22.5 0
    endloop
  endfacet
  facet normal 0 0 -1
    outer loop
      vertex -5.4623e-15 -24.6 0
      vertex -2 -22.5 0
      vertex -4.996e-15 -22.5 0
    endloop
  endfacet
  facet normal 0 0 -1
    outer loop
      vertex -2 -22.5 0
      vertex -4 -20.4 0
      vertex -2 -20.4 0
    endloop
  endfacet
  facet normal 0 0 -1
    outer loop
      vertex -22 -24.6 0
      vertex -2 -22.5 0
      vertex -5.4623e-15 -24.6 0
    endloop
  endfacet
  facet normal 0 0 -1
    outer loop
      vertex -4 -20.4 0
      vertex -6 -18.3 0
      vertex -4 -18.3 0
    endloop
  endfacet
  facet normal -0 0 -1
    outer loop
      vertex -2 -22.5 0
      vertex -22 -24.6 0
      vertex -4 -20.4 0
    endloop
  endfacet
  facet normal 0 0 -1
    outer loop
      vertex -6 -18.3 0
      vertex -8 -16.2 0
      vertex -6 -16.2 0
    endloop
  endfacet
  facet normal 0 0 -1
    outer loop
      vertex -8 -16.2 0
      vertex -10 -14.1 0
      vertex -8 -14.1 0
    endloop
  endfacet
  facet normal 0 0 -1
    outer loop
      vertex -22 -24.6 0
      vertex -8 -16.2 0
      vertex -6 -18.3 0
    endloop
  endfacet
  facet normal 0 0 -1
    outer loop
      vertex -10 -14.1 0
      vertex -12 -12 0
      vertex -10 -12 0
    endloop
  endfacet
  facet normal -0 0 -1
    outer loop
      vertex -8 -16.2 0
      vertex -22 -24.6 0
      vertex -10 -14.1 0
    endloop
  endfacet
  facet normal 0 0 -1
    outer loop
      vertex -12 -12 0
      vertex -14 -9.9 0
      vertex -12 -9.9 0
    endloop
  endfacet
  facet normal 0 0 -1
    outer loop
      vertex -14 -9.9 0
      vertex -16 -7.8 0
      vertex -14 -7.8 0
    endloop
  endfacet
  facet normal 0 0 -1
    outer loop
      vertex -22 -24.6 0
      vertex -14 -9.9 0
      vertex -12 -12 0
    endloop
  endfacet
  facet normal -0 0 -1
    outer loop
      vertex -10 -14.1 0
      vertex -22 -24.6 0
      vertex -12 -12 0
    endloop
  endfacet
  facet normal 0 0 -1
    outer loop
      vertex -16 -7.8 0
      vertex -18 -5.7 0
      vertex -16 -5.7 0
    endloop
  endfacet
  facet normal 0 0 -1
    outer loop
      vertex -18 -5.7 0
      vertex -20 -3.6 0
      vertex -18 -3.6 0
    endloop
  endfacet
  facet normal 0 0 -1
    outer loop
      vertex -22 -24.6 0
      vertex -18 -5.7 0
      vertex -16 -7.8 0
    endloop
  endfacet
  facet normal -0 0 -1
    outer loop
      vertex -4 -20.4 0
      vertex -22 -24.6 0
      vertex -6 -18.3 0
    endloop
  endfacet
  facet normal -0 0 -1
    outer loop
      vertex -14 -9.9 0
      vertex -22 -24.6 0
      vertex -16 -7.8 0
    endloop
  endfacet
  facet normal -0 0 -1
    outer loop
      vertex -18 -5.7 0
      vertex -22 -24.6 0
      vertex -20 -3.6 0
    endloop
  endfacet
  facet normal 0 0 -1
    outer loop
      vertex -22 -1.5 0
      vertex -20 -3.6 0
      vertex -22 -24.6 0
    endloop
  endfacet
  facet normal 0 0 -1
    outer loop
      vertex -20 -3.6 0
      vertex -22 -1.5 0
      vertex -20 -1.5 0
    endloop
  endfacet
  facet normal 1 -2.22045e-16 0
    outer loop
      vertex -5.4623e-15 -24.6 3
      vertex -4.996e-15 -22.5 0
      vertex -4.996e-15 -22.5 3
    endloop
  endfacet
  facet normal 1 -2.22045e-16 0
    outer loop
      vertex -4.996e-15 -22.5 0
      vertex -5.4623e-15 -24.6 3
      vertex -5.4623e-15 -24.6 0
    endloop
  endfacet
  facet normal 1 -0 0
    outer loop
      vertex -2 -22.5 3
      vertex -2 -20.4 0
      vertex -2 -20.4 3
    endloop
  endfacet
  facet normal 1 0 0
    outer loop
      vertex -2 -20.4 0
      vertex -2 -22.5 3
      vertex -2 -22.5 0
    endloop
  endfacet
  facet normal 0 1 -0
    outer loop
      vertex -2 -20.4 0
      vertex -4 -20.4 3
      vertex -2 -20.4 3
    endloop
  endfacet
  facet normal 0 1 0
    outer loop
      vertex -4 -20.4 3
      vertex -2 -20.4 0
      vertex -4 -20.4 0
    endloop
  endfacet
  facet normal 1 -0 0
    outer loop
      vertex -4 -20.4 3
      vertex -4 -18.3 0
      vertex -4 -18.3 3
    endloop
  endfacet
  facet normal 1 0 0
    outer loop
      vertex -4 -18.3 0
      vertex -4 -20.4 3
      vertex -4 -20.4 0
    endloop
  endfacet
  facet normal 0 1 -0
    outer loop
      vertex -4 -18.3 0
      vertex -6 -18.3 3
      vertex -4 -18.3 3
    endloop
  endfacet
  facet normal 0 1 0
    outer loop
      vertex -6 -18.3 3
      vertex -4 -18.3 0
      vertex -6 -18.3 0
    endloop
  endfacet
  facet normal 1 -0 0
    outer loop
      vertex -6 -18.3 3
      vertex -6 -16.2 0
      vertex -6 -16.2 3
    endloop
  endfacet
  facet normal 1 0 0
    outer loop
      vertex -6 -16.2 0
      vertex -6 -18.3 3
      vertex -6 -18.3 0
    endloop
  endfacet
  facet normal 0 1 -0
    outer loop
      vertex -6 -16.2 0
      vertex -8 -16.2 3
      vertex -6 -16.2 3
    endloop
  endfacet
  facet normal 0 1 0
    outer loop
      vertex -8 -16.2 3
      vertex -6 -16.2 0
      vertex -8 -16.2 0
    endloop
  endfacet
  facet normal 1 -0 0
    outer loop
      vertex -8 -16.2 3
      vertex -8 -14.1 0
      vertex -8 -14.1 3
    endloop
  endfacet
  facet normal 1 0 0
    outer loop
      vertex -8 -14.1 0
      vertex -8 -16.2 3
      vertex -8 -16.2 0
    endloop
  endfacet
  facet normal 0 1 -0
    outer loop
      vertex -8 -14.1 0
      vertex -10 -14.1 3
      vertex -8 -14.1 3
    endloop
  endfacet
  facet normal 0 1 0
    outer loop
      vertex -10 -14.1 3
      vertex -8 -14.1 0
      vertex -10 -14.1 0
    endloop
  endfacet
  facet normal 1 -0 0
    outer loop
      vertex -10 -14.1 3
      vertex -10 -12 0
      vertex -10 -12 3
    endloop
  endfacet
  facet normal 1 0 0
    outer loop
      vertex -10 -12 0
      vertex -10 -14.1 3
      vertex -10 -14.1 0
    endloop
  endfacet
  facet normal 0 1 -0
    outer loop
      vertex -10 -12 0
      vertex -12 -12 3
      vertex -10 -12 3
    endloop
  endfacet
  facet normal 0 1 0
    outer loop
      vertex -12 -12 3
      vertex -10 -12 0
      vertex -12 -12 0
    endloop
  endfacet
  facet normal 1 -0 0
    outer loop
      vertex -12 -12 3
      vertex -12 -9.9 0
      vertex -12 -9.9 3
    endloop
  endfacet
  facet normal 1 0 0
    outer loop
      vertex -12 -9.9 0
      vertex -12 -12 3
      vertex -12 -12 0
    endloop
  endfacet
  facet normal 0 1 -0
    outer loop
      vertex -12 -9.9 0
      vertex -14 -9.9 3
      vertex -12 -9.9 3
    endloop
  endfacet
  facet normal 0 1 0
    outer loop
      vertex -14 -9.9 3
      vertex -12 -9.9 0
      vertex -14 -9.9 0
    endloop
  endfacet
  facet normal 1 -0 0
    outer loop
      vertex -14 -9.9 3
      vertex -14 -7.8 0
      vertex -14 -7.8 3
    endloop
  endfacet
  facet normal 1 0 0
    outer loop
      vertex -14 -7.8 0
      vertex -14 -9.9 3
      vertex -14 -9.9 0
    endloop
  endfacet
  facet normal 0 1 -0
    outer loop
      vertex -14 -7.8 0
      vertex -16 -7.8 3
      vertex -14 -7.8 3
    endloop
  endfacet
  facet normal 0 1 0
    outer loop
      vertex -16 -7.8 3
      vertex -14 -7.8 0
      vertex -16 -7.8 0
    endloop
  endfacet
  facet normal 1 -0 0
    outer loop
      vertex -16 -7.8 3
      vertex -16 -5.7 0
      vertex -16 -5.7 3
    endloop
  endfacet
  facet normal 1 0 0
    outer loop
      vertex -16 -5.7 0
      vertex -16 -7.8 3
      vertex -16 -7.8 0
    endloop
  endfacet
  facet normal 0 1 -0
    outer loop
      vertex -16 -5.7 0
      vertex -18 -5.7 3
      vertex -16 -5.7 3
    endloop
  endfacet
  facet normal 0 1 0
    outer loop
      vertex -18 -5.7 3
      vertex -16 -5.7 0
      vertex -18 -5.7 0
    endloop
  endfacet
  facet normal 1 -0 0
    outer loop
      vertex -18 -5.7 3
      vertex -18 -3.6 0
      vertex -18 -3.6 3
    endloop
  endfacet
  facet normal 1 0 0
    outer loop
      vertex -18 -3.6 0
      vertex -18 -5.7 3
      vertex -18 -5.7 0
    endloop
  endfacet
  facet normal 0 1 -0
    outer loop
      vertex -18 -3.6 0
      vertex -20 -3.6 3
      vertex -18 -3.6 3
    endloop
  endfacet
  facet normal 0 1 0
    outer loop
      vertex -20 -3.6 3
      vertex -18 -3.6 0
      vertex -20 -3.6 0
    endloop
  endfacet
  facet normal 1 -0 0
    outer loop
      vertex -20 -3.6 3
      vertex -20 -1.5 0
      vertex -20 -1.5 3
    endloop
  endfacet
  facet normal 1 0 0
    outer loop
      vertex -20 -1.5 0
      vertex -20 -3.6 3
      vertex -20 -3.6 0
    endloop
  endfacet
  facet normal 0 1 -0
    outer loop
      vertex -20 -1.5 0
      vertex -22 -1.5 3
      vertex -20 -1.5 3
    endloop
  endfacet
  facet normal 0 1 0
    outer loop
      vertex -22 -1.5 3
      vertex -20 -1.5 0
      vertex -22 -1.5 0
    endloop
  endfacet
  facet normal -1 0 0
    outer loop
      vertex -22 -24.6 0
      vertex -22 -1.5 3
      vertex -22 -1.5 0
    endloop
  endfacet
  facet normal -1 -0 0
    outer loop
      vertex -22 -1.5 3
      vertex -22 -24.6 0
      vertex -22 -24.6 3
    endloop
  endfacet
  facet normal 1 -0 0
    outer loop
      vertex 24.6 -22 3
      vertex 24.6 -3.01263e-15 0
      vertex 24.6 -3.01263e-15 3
    endloop
  endfacet
  facet normal 1 0 0
    outer loop
      vertex 24.6 -3.01263e-15 0
      vertex 24.6 -22 3
      vertex 24.6 -22 0
    endloop
  endfacet
  facet normal 0 0 1
    outer loop
      vertex 22.5 -2 3
      vertex 24.6 -3.01263e-15 3
      vertex 22.5 -2.75546e-15 3
    endloop
  endfacet
  facet normal 0 0 1
    outer loop
      vertex 24.6 -3.01263e-15 3
      vertex 22.5 -2 3
      vertex 24.6 -22 3
    endloop
  endfacet
  facet normal 0 0 1
    outer loop
      vertex 20.4 -4 3
      vertex 22.5 -2 3
      vertex 20.4 -2 3
    endloop
  endfacet
  facet normal 0 0 1
    outer loop
      vertex 22.5 -2 3
      vertex 20.4 -4 3
      vertex 24.6 -22 3
    endloop
  endfacet
  facet normal 0 0 1
    outer loop
      vertex 18.3 -6 3
      vertex 20.4 -4 3
      vertex 18.3 -4 3
    endloop
  endfacet
  facet normal 0 0 1
    outer loop
      vertex 20.4 -4 3
      vertex 18.3 -6 3
      vertex 24.6 -22 3
    endloop
  endfacet
  facet normal 0 0 1
    outer loop
      vertex 16.2 -8 3
      vertex 18.3 -6 3
      vertex 16.2 -6 3
    endloop
  endfacet
  facet normal 0 0 1
    outer loop
      vertex 18.3 -6 3
      vertex 16.2 -8 3
      vertex 24.6 -22 3
    endloop
  endfacet
  facet normal 0 0 1
    outer loop
      vertex 14.1 -10 3
      vertex 16.2 -8 3
      vertex 14.1 -8 3
    endloop
  endfacet
  facet normal 0 0 1
    outer loop
      vertex 16.2 -8 3
      vertex 14.1 -10 3
      vertex 24.6 -22 3
    endloop
  endfacet
  facet normal 0 0 1
    outer loop
      vertex 12 -12 3
      vertex 14.1 -10 3
      vertex 12 -10 3
    endloop
  endfacet
  facet normal 0 0 1
    outer loop
      vertex 14.1 -10 3
      vertex 12 -12 3
      vertex 24.6 -22 3
    endloop
  endfacet
  facet normal 0 0 1
    outer loop
      vertex 9.9 -14 3
      vertex 12 -12 3
      vertex 9.9 -12 3
    endloop
  endfacet
  facet normal 0 0 1
    outer loop
      vertex 12 -12 3
      vertex 9.9 -14 3
      vertex 24.6 -22 3
    endloop
  endfacet
  facet normal 0 0 1
    outer loop
      vertex 7.8 -16 3
      vertex 9.9 -14 3
      vertex 7.8 -14 3
    endloop
  endfacet
  facet normal 0 0 1
    outer loop
      vertex 9.9 -14 3
      vertex 7.8 -16 3
      vertex 24.6 -22 3
    endloop
  endfacet
  facet normal 0 0 1
    outer loop
      vertex 5.7 -18 3
      vertex 7.8 -16 3
      vertex 5.7 -16 3
    endloop
  endfacet
  facet normal 0 0 1
    outer loop
      vertex 7.8 -16 3
      vertex 5.7 -18 3
      vertex 24.6 -22 3
    endloop
  endfacet
  facet normal 0 0 1
    outer loop
      vertex 3.6 -20 3
      vertex 5.7 -18 3
      vertex 3.6 -18 3
    endloop
  endfacet
  facet normal 0 0 1
    outer loop
      vertex 5.7 -18 3
      vertex 3.6 -20 3
      vertex 24.6 -22 3
    endloop
  endfacet
  facet normal 0 0 1
    outer loop
      vertex 1.5 -22 3
      vertex 3.6 -20 3
      vertex 1.5 -20 3
    endloop
  endfacet
  facet normal 0 0 1
    outer loop
      vertex 3.6 -20 3
      vertex 1.5 -22 3
      vertex 24.6 -22 3
    endloop
  endfacet
  facet normal -1 0 0
    outer loop
      vertex 22.5 -2 0
      vertex 22.5 -2.75546e-15 3
      vertex 22.5 -2.75546e-15 0
    endloop
  endfacet
  facet normal -1 -0 0
    outer loop
      vertex 22.5 -2.75546e-15 3
      vertex 22.5 -2 0
      vertex 22.5 -2 3
    endloop
  endfacet
  facet normal 0 0 -1
    outer loop
      vertex 24.6 -22 0
      vertex 22.5 -2 0
      vertex 24.6 -3.01263e-15 0
    endloop
  endfacet
  facet normal 0 0 -1
    outer loop
      vertex 24.6 -22 0
      vertex 20.4 -4 0
      vertex 22.5 -2 0
    endloop
  endfacet
  facet normal 0 0 -1
    outer loop
      vertex 24.6 -22 0
      vertex 18.3 -6 0
      vertex 20.4 -4 0
    endloop
  endfacet
  facet normal 0 0 -1
    outer loop
      vertex 24.6 -22 0
      vertex 16.2 -8 0
      vertex 18.3 -6 0
    endloop
  endfacet
  facet normal 0 0 -1
    outer loop
      vertex 24.6 -22 0
      vertex 14.1 -10 0
      vertex 16.2 -8 0
    endloop
  endfacet
  facet normal 0 0 -1
    outer loop
      vertex 24.6 -22 0
      vertex 12 -12 0
      vertex 14.1 -10 0
    endloop
  endfacet
  facet normal 0 0 -1
    outer loop
      vertex 24.6 -22 0
      vertex 9.9 -14 0
      vertex 12 -12 0
    endloop
  endfacet
  facet normal 0 0 -1
    outer loop
      vertex 24.6 -22 0
      vertex 7.8 -16 0
      vertex 9.9 -14 0
    endloop
  endfacet
  facet normal 0 0 -1
    outer loop
      vertex 24.6 -22 0
      vertex 5.7 -18 0
      vertex 7.8 -16 0
    endloop
  endfacet
  facet normal 0 0 -1
    outer loop
      vertex 24.6 -22 0
      vertex 3.6 -20 0
      vertex 5.7 -18 0
    endloop
  endfacet
  facet normal 0 0 -1
    outer loop
      vertex 1.5 -22 0
      vertex 3.6 -20 0
      vertex 24.6 -22 0
    endloop
  endfacet
  facet normal -0 0 -1
    outer loop
      vertex 3.6 -20 0
      vertex 1.5 -22 0
      vertex 1.5 -20 0
    endloop
  endfacet
  facet normal -0 0 -1
    outer loop
      vertex 24.6 -3.01263e-15 0
      vertex 22.5 -2 0
      vertex 22.5 -2.75546e-15 0
    endloop
  endfacet
  facet normal -0 0 -1
    outer loop
      vertex 22.5 -2 0
      vertex 20.4 -4 0
      vertex 20.4 -2 0
    endloop
  endfacet
  facet normal -0 0 -1
    outer loop
      vertex 20.4 -4 0
      vertex 18.3 -6 0
      vertex 18.3 -4 0
    endloop
  endfacet
  facet normal -0 0 -1
    outer loop
      vertex 18.3 -6 0
      vertex 16.2 -8 0
      vertex 16.2 -6 0
    endloop
  endfacet
  facet normal -0 0 -1
    outer loop
      vertex 16.2 -8 0
      vertex 14.1 -10 0
      vertex 14.1 -8 0
    endloop
  endfacet
  facet normal -0 0 -1
    outer loop
      vertex 14.1 -10 0
      vertex 12 -12 0
      vertex 12 -10 0
    endloop
  endfacet
  facet normal -0 0 -1
    outer loop
      vertex 12 -12 0
      vertex 9.9 -14 0
      vertex 9.9 -12 0
    endloop
  endfacet
  facet normal -0 0 -1
    outer loop
      vertex 9.9 -14 0
      vertex 7.8 -16 0
      vertex 7.8 -14 0
    endloop
  endfacet
  facet normal -0 0 -1
    outer loop
      vertex 7.8 -16 0
      vertex 5.7 -18 0
      vertex 5.7 -16 0
    endloop
  endfacet
  facet normal -0 0 -1
    outer loop
      vertex 5.7 -18 0
      vertex 3.6 -20 0
      vertex 3.6 -18 0
    endloop
  endfacet
  facet normal 1.22465e-16 1 -0
    outer loop
      vertex 24.6 -3.01263e-15 0
      vertex 22.5 -2.75546e-15 3
      vertex 24.6 -3.01263e-15 3
    endloop
  endfacet
  facet normal 1.22465e-16 1 0
    outer loop
      vertex 22.5 -2.75546e-15 3
      vertex 24.6 -3.01263e-15 0
      vertex 22.5 -2.75546e-15 0
    endloop
  endfacet
  facet normal 0 1 -0
    outer loop
      vertex 22.5 -2 0
      vertex 20.4 -2 3
      vertex 22.5 -2 3
    endloop
  endfacet
  facet normal 0 1 0
    outer loop
      vertex 20.4 -2 3
      vertex 22.5 -2 0
      vertex 20.4 -2 0
    endloop
  endfacet
  facet normal -1 0 0
    outer loop
      vertex 20.4 -4 0
      vertex 20.4 -2 3
      vertex 20.4 -2 0
    endloop
  endfacet
  facet normal -1 -0 0
    outer loop
      vertex 20.4 -2 3
      vertex 20.4 -4 0
      vertex 20.4 -4 3
    endloop
  endfacet
  facet normal 0 1 -0
    outer loop
      vertex 20.4 -4 0
      vertex 18.3 -4 3
      vertex 20.4 -4 3
    endloop
  endfacet
  facet normal 0 1 0
    outer loop
      vertex 18.3 -4 3
      vertex 20.4 -4 0
      vertex 18.3 -4 0
    endloop
  endfacet
  facet normal -1 0 0
    outer loop
      vertex 18.3 -6 0
      vertex 18.3 -4 3
      vertex 18.3 -4 0
    endloop
  endfacet
  facet normal -1 -0 0
    outer loop
      vertex 18.3 -4 3
      vertex 18.3 -6 0
      vertex 18.3 -6 3
    endloop
  endfacet
  facet normal 0 1 -0
    outer loop
      vertex 18.3 -6 0
      vertex 16.2 -6 3
      vertex 18.3 -6 3
    endloop
  endfacet
  facet normal 0 1 0
    outer loop
      vertex 16.2 -6 3
      vertex 18.3 -6 0
      vertex 16.2 -6 0
    endloop
  endfacet
  facet normal -1 0 0
    outer loop
      vertex 16.2 -8 0
      vertex 16.2 -6 3
      vertex 16.2 -6 0
    endloop
  endfacet
  facet normal -1 -0 0
    outer loop
      vertex 16.2 -6 3
      vertex 16.2 -8 0
      vertex 16.2 -8 3
    endloop
  endfacet
  facet normal 0 1 -0
    outer loop
      vertex 16.2 -8 0
      vertex 14.1 -8 3
      vertex 16.2 -8 3
    endloop
  endfacet
  facet normal 0 1 0
    outer loop
      vertex 14.1 -8 3
      vertex 16.2 -8 0
      vertex 14.1 -8 0
    endloop
  endfacet
  facet normal -1 0 0
    outer loop
      vertex 14.1 -10 0
      vertex 14.1 -8 3
      vertex 14.1 -8 0
    endloop
  endfacet
  facet normal -1 -0 0
    outer loop
      vertex 14.1 -8 3
      vertex 14.1 -10 0
      vertex 14.1 -10 3
    endloop
  endfacet
  facet normal 0 1 -0
    outer loop
      vertex 14.1 -10 0
      vertex 12 -10 3
      vertex 14.1 -10 3
    endloop
  endfacet
  facet normal 0 1 0
    outer loop
      vertex 12 -10 3
      vertex 14.1 -10 0
      vertex 12 -10 0
    endloop
  endfacet
  facet normal -1 0 0
    outer loop
      vertex 12 -12 0
      vertex 12 -10 3
      vertex 12 -10 0
    endloop
  endfacet
  facet normal -1 -0 0
    outer loop
      vertex 12 -10 3
      vertex 12 -12 0
      vertex 12 -12 3
    endloop
  endfacet
  facet normal 0 1 -0
    outer loop
      vertex 12 -12 0
      vertex 9.9 -12 3
      vertex 12 -12 3
    endloop
  endfacet
  facet normal 0 1 0
    outer loop
      vertex 9.9 -12 3
      vertex 12 -12 0
      vertex 9.9 -12 0
    endloop
  endfacet
  facet normal -1 0 0
    outer loop
      vertex 9.9 -14 0
      vertex 9.9 -12 3
      vertex 9.9 -12 0
    endloop
  endfacet
  facet normal -1 -0 0
    outer loop
      vertex 9.9 -12 3
      vertex 9.9 -14 0
      vertex 9.9 -14 3
    endloop
  endfacet
  facet normal 0 1 -0
    outer loop
      vertex 9.9 -14 0
      vertex 7.8 -14 3
      vertex 9.9 -14 3
    endloop
  endfacet
  facet normal 0 1 0
    outer loop
      vertex 7.8 -14 3
      vertex 9.9 -14 0
      vertex 7.8 -14 0
    endloop
  endfacet
  facet normal -1 0 0
    outer loop
      vertex 7.8 -16 0
      vertex 7.8 -14 3
      vertex 7.8 -14 0
    endloop
  endfacet
  facet normal -1 -0 0
    outer loop
      vertex 7.8 -14 3
      vertex 7.8 -16 0
      vertex 7.8 -16 3
    endloop
  endfacet
  facet normal 0 1 -0
    outer loop
      vertex 7.8 -16 0
      vertex 5.7 -16 3
      vertex 7.8 -16 3
    endloop
  endfacet
  facet normal 0 1 0
    outer loop
      vertex 5.7 -16 3
      vertex 7.8 -16 0
      vertex 5.7 -16 0
    endloop
  endfacet
  facet normal -1 0 0
    outer loop
      vertex 5.7 -18 0
      vertex 5.7 -16 3
      vertex 5.7 -16 0
    endloop
  endfacet
  facet normal -1 -0 0
    outer loop
      vertex 5.7 -16 3
      vertex 5.7 -18 0
      vertex 5.7 -18 3
    endloop
  endfacet
  facet normal 0 1 -0
    outer loop
      vertex 5.7 -18 0
      vertex 3.6 -18 3
      vertex 5.7 -18 3
    endloop
  endfacet
  facet normal 0 1 0
    outer loop
      vertex 3.6 -18 3
      vertex 5.7 -18 0
      vertex 3.6 -18 0
    endloop
  endfacet
  facet normal -1 0 0
    outer loop
      vertex 3.6 -20 0
      vertex 3.6 -18 3
      vertex 3.6 -18 0
    endloop
  endfacet
  facet normal -1 -0 0
    outer loop
      vertex 3.6 -18 3
      vertex 3.6 -20 0
      vertex 3.6 -20 3
    endloop
  endfacet
  facet normal 0 1 -0
    outer loop
      vertex 3.6 -20 0
      vertex 1.5 -20 3
      vertex 3.6 -20 3
    endloop
  endfacet
  facet normal 0 1 0
    outer loop
      vertex 1.5 -20 3
      vertex 3.6 -20 0
      vertex 1.5 -20 0
    endloop
  endfacet
  facet normal -1 0 0
    outer loop
      vertex 1.5 -22 0
      vertex 1.5 -20 3
      vertex 1.5 -20 0
    endloop
  endfacet
  facet normal -1 -0 0
    outer loop
      vertex 1.5 -20 3
      vertex 1.5 -22 0
      vertex 1.5 -22 3
    endloop
  endfacet
  facet normal 0 -1 0
    outer loop
      vertex 1.5 -22 0
      vertex 24.6 -22 3
      vertex 1.5 -22 3
    endloop
  endfacet
  facet normal 0 -1 -0
    outer loop
      vertex 24.6 -22 3
      vertex 1.5 -22 0
      vertex 24.6 -22 0
    endloop
  endfacet
  facet normal 0 1 -0
    outer loop
      vertex 22 24.6 0
      vertex 5.4623e-15 24.6 3
      vertex 22 24.6 3
    endloop
  endfacet
  facet normal 0 1 0
    outer loop
      vertex 5.4623e-15 24.6 3
      vertex 22 24.6 0
      vertex 5.4623e-15 24.6 0
    endloop
  endfacet
  facet normal 0 0 1
    outer loop
      vertex 22 24.6 3
      vertex 20 3.6 3
      vertex 22 1.5 3
    endloop
  endfacet
  facet normal 0 0 1
    outer loop
      vertex 22 24.6 3
      vertex 18 5.7 3
      vertex 20 3.6 3
    endloop
  endfacet
  facet normal 0 0 1
    outer loop
      vertex 22 24.6 3
      vertex 16 7.8 3
      vertex 18 5.7 3
    endloop
  endfacet
  facet normal 0 0 1
    outer loop
      vertex 22 24.6 3
      vertex 14 9.9 3
      vertex 16 7.8 3
    endloop
  endfacet
  facet normal 0 0 1
    outer loop
      vertex 22 24.6 3
      vertex 12 12 3
      vertex 14 9.9 3
    endloop
  endfacet
  facet normal 0 0 1
    outer loop
      vertex 22 24.6 3
      vertex 10 14.1 3
      vertex 12 12 3
    endloop
  endfacet
  facet normal 0 0 1
    outer loop
      vertex 22 24.6 3
      vertex 8 16.2 3
      vertex 10 14.1 3
    endloop
  endfacet
  facet normal 0 0 1
    outer loop
      vertex 22 24.6 3
      vertex 6 18.3 3
      vertex 8 16.2 3
    endloop
  endfacet
  facet normal 0 0 1
    outer loop
      vertex 22 24.6 3
      vertex 4 20.4 3
      vertex 6 18.3 3
    endloop
  endfacet
  facet normal 0 0 1
    outer loop
      vertex 22 24.6 3
      vertex 2 22.5 3
      vertex 4 20.4 3
    endloop
  endfacet
  facet normal -0 0 1
    outer loop
      vertex 5.4623e-15 24.6 3
      vertex 2 22.5 3
      vertex 22 24.6 3
    endloop
  endfacet
  facet normal 0 0 1
    outer loop
      vertex 2 22.5 3
      vertex 5.4623e-15 24.6 3
      vertex 4.996e-15 22.5 3
    endloop
  endfacet
  facet normal 0 0 1
    outer loop
      vertex 22 1.5 3
      vertex 20 3.6 3
      vertex 20 1.5 3
    endloop
  endfacet
  facet normal 0 0 1
    outer loop
      vertex 20 3.6 3
      vertex 18 5.7 3
      vertex 18 3.6 3
    endloop
  endfacet
  facet normal 0 0 1
    outer loop
      vertex 18 5.7 3
      vertex 16 7.8 3
      vertex 16 5.7 3
    endloop
  endfacet
  facet normal 0 0 1
    outer loop
      vertex 16 7.8 3
      vertex 14 9.9 3
      vertex 14 7.8 3
    endloop
  endfacet
  facet normal 0 0 1
    outer loop
      vertex 14 9.9 3
      vertex 12 12 3
      vertex 12 9.9 3
    endloop
  endfacet
  facet normal 0 0 1
    outer loop
      vertex 12 12 3
      vertex 10 14.1 3
      vertex 10 12 3
    endloop
  endfacet
  facet normal 0 0 1
    outer loop
      vertex 10 14.1 3
      vertex 8 16.2 3
      vertex 8 14.1 3
    endloop
  endfacet
  facet normal 0 0 1
    outer loop
      vertex 8 16.2 3
      vertex 6 18.3 3
      vertex 6 16.2 3
    endloop
  endfacet
  facet normal 0 0 1
    outer loop
      vertex 6 18.3 3
      vertex 4 20.4 3
      vertex 4 18.3 3
    endloop
  endfacet
  facet normal 0 0 1
    outer loop
      vertex 4 20.4 3
      vertex 2 22.5 3
      vertex 2 20.4 3
    endloop
  endfacet
  facet normal 0 -1 0
    outer loop
      vertex 4.996e-15 22.5 0
      vertex 2 22.5 3
      vertex 4.996e-15 22.5 3
    endloop
  endfacet
  facet normal 0 -1 -0
    outer loop
      vertex 2 22.5 3
      vertex 4.996e-15 22.5 0
      vertex 2 22.5 0
    endloop
  endfacet
  facet normal 0 0 -1
    outer loop
      vertex 20 3.6 0
      vertex 22 1.5 0
      vertex 20 1.5 0
    endloop
  endfacet
  facet normal 0 0 -1
    outer loop
      vertex 22 1.5 0
      vertex 20 3.6 0
      vertex 22 24.6 0
    endloop
  endfacet
  facet normal 0 0 -1
    outer loop
      vertex 18 5.7 0
      vertex 20 3.6 0
      vertex 18 3.6 0
    endloop
  endfacet
  facet normal 0 0 -1
    outer loop
      vertex 20 3.6 0
      vertex 18 5.7 0
      vertex 22 24.6 0
    endloop
  endfacet
  facet normal 0 0 -1
    outer loop
      vertex 16 7.8 0
      vertex 18 5.7 0
      vertex 16 5.7 0
    endloop
  endfacet
  facet normal 0 0 -1
    outer loop
      vertex 18 5.7 0
      vertex 16 7.8 0
      vertex 22 24.6 0
    endloop
  endfacet
  facet normal 0 0 -1
    outer loop
      vertex 14 9.9 0
      vertex 16 7.8 0
      vertex 14 7.8 0
    endloop
  endfacet
  facet normal 0 0 -1
    outer loop
      vertex 16 7.8 0
      vertex 14 9.9 0
      vertex 22 24.6 0
    endloop
  endfacet
  facet normal 0 0 -1
    outer loop
      vertex 12 12 0
      vertex 14 9.9 0
      vertex 12 9.9 0
    endloop
  endfacet
  facet normal 0 0 -1
    outer loop
      vertex 14 9.9 0
      vertex 12 12 0
      vertex 22 24.6 0
    endloop
  endfacet
  facet normal 0 0 -1
    outer loop
      vertex 10 14.1 0
      vertex 12 12 0
      vertex 10 12 0
    endloop
  endfacet
  facet normal 0 0 -1
    outer loop
      vertex 12 12 0
      vertex 10 14.1 0
      vertex 22 24.6 0
    endloop
  endfacet
  facet normal 0 0 -1
    outer loop
      vertex 8 16.2 0
      vertex 10 14.1 0
      vertex 8 14.1 0
    endloop
  endfacet
  facet normal 0 0 -1
    outer loop
      vertex 10 14.1 0
      vertex 8 16.2 0
      vertex 22 24.6 0
    endloop
  endfacet
  facet normal 0 0 -1
    outer loop
      vertex 6 18.3 0
      vertex 8 16.2 0
      vertex 6 16.2 0
    endloop
  endfacet
  facet normal 0 0 -1
    outer loop
      vertex 8 16.2 0
      vertex 6 18.3 0
      vertex 22 24.6 0
    endloop
  endfacet
  facet normal 0 0 -1
    outer loop
      vertex 4 20.4 0
      vertex 6 18.3 0
      vertex 4 18.3 0
    endloop
  endfacet
  facet normal 0 0 -1
    outer loop
      vertex 6 18.3 0
      vertex 4 20.4 0
      vertex 22 24.6 0
    endloop
  endfacet
  facet normal 0 0 -1
    outer loop
      vertex 2 22.5 0
      vertex 4 20.4 0
      vertex 2 20.4 0
    endloop
  endfacet
  facet normal 0 0 -1
    outer loop
      vertex 4 20.4 0
      vertex 2 22.5 0
      vertex 22 24.6 0
    endloop
  endfacet
  facet normal 0 0 -1
    outer loop
      vertex 2 22.5 0
      vertex 5.4623e-15 24.6 0
      vertex 22 24.6 0
    endloop
  endfacet
  facet normal 0 -0 -1
    outer loop
      vertex 5.4623e-15 24.6 0
      vertex 2 22.5 0
      vertex 4.996e-15 22.5 0
    endloop
  endfacet
  facet normal -1 2.22045e-16 0
    outer loop
      vertex 4.996e-15 22.5 0
      vertex 5.4623e-15 24.6 3
      vertex 5.4623e-15 24.6 0
    endloop
  endfacet
  facet normal -1 2.22045e-16 0
    outer loop
      vertex 5.4623e-15 24.6 3
      vertex 4.996e-15 22.5 0
      vertex 4.996e-15 22.5 3
    endloop
  endfacet
  facet normal -1 0 0
    outer loop
      vertex 2 20.4 0
      vertex 2 22.5 3
      vertex 2 22.5 0
    endloop
  endfacet
  facet normal -1 -0 0
    outer loop
      vertex 2 22.5 3
      vertex 2 20.4 0
      vertex 2 20.4 3
    endloop
  endfacet
  facet normal 0 -1 0
    outer loop
      vertex 2 20.4 0
      vertex 4 20.4 3
      vertex 2 20.4 3
    endloop
  endfacet
  facet normal 0 -1 -0
    outer loop
      vertex 4 20.4 3
      vertex 2 20.4 0
      vertex 4 20.4 0
    endloop
  endfacet
  facet normal -1 0 0
    outer loop
      vertex 4 18.3 0
      vertex 4 20.4 3
      vertex 4 20.4 0
    endloop
  endfacet
  facet normal -1 -0 0
    outer loop
      vertex 4 20.4 3
      vertex 4 18.3 0
      vertex 4 18.3 3
    endloop
  endfacet
  facet normal 0 -1 0
    outer loop
      vertex 4 18.3 0
      vertex 6 18.3 3
      vertex 4 18.3 3
    endloop
  endfacet
  facet normal 0 -1 -0
    outer loop
      vertex 6 18.3 3
      vertex 4 18.3 0
      vertex 6 18.3 0
    endloop
  endfacet
  facet normal -1 0 0
    outer loop
      vertex 6 16.2 0
      vertex 6 18.3 3
      vertex 6 18.3 0
    endloop
  endfacet
  facet normal -1 -0 0
    outer loop
      vertex 6 18.3 3
      vertex 6 16.2 0
      vertex 6 16.2 3
    endloop
  endfacet
  facet normal 0 -1 0
    outer loop
      vertex 6 16.2 0
      vertex 8 16.2 3
      vertex 6 16.2 3
    endloop
  endfacet
  facet normal 0 -1 -0
    outer loop
      vertex 8 16.2 3
      vertex 6 16.2 0
      vertex 8 16.2 0
    endloop
  endfacet
  facet normal -1 0 0
    outer loop
      vertex 8 14.1 0
      vertex 8 16.2 3
      vertex 8 16.2 0
    endloop
  endfacet
  facet normal -1 -0 0
    outer loop
      vertex 8 16.2 3
      vertex 8 14.1 0
      vertex 8 14.1 3
    endloop
  endfacet
  facet normal 0 -1 0
    outer loop
      vertex 8 14.1 0
      vertex 10 14.1 3
      vertex 8 14.1 3
    endloop
  endfacet
  facet normal 0 -1 -0
    outer loop
      vertex 10 14.1 3
      vertex 8 14.1 0
      vertex 10 14.1 0
    endloop
  endfacet
  facet normal -1 0 0
    outer loop
      vertex 10 12 0
      vertex 10 14.1 3
      vertex 10 14.1 0
    endloop
  endfacet
  facet normal -1 -0 0
    outer loop
      vertex 10 14.1 3
      vertex 10 12 0
      vertex 10 12 3
    endloop
  endfacet
  facet normal 0 -1 0
    outer loop
      vertex 10 12 0
      vertex 12 12 3
      vertex 10 12 3
    endloop
  endfacet
  facet normal 0 -1 -0
    outer loop
      vertex 12 12 3
      vertex 10 12 0
      vertex 12 12 0
    endloop
  endfacet
  facet normal -1 0 0
    outer loop
      vertex 12 9.9 0
      vertex 12 12 3
      vertex 12 12 0
    endloop
  endfacet
  facet normal -1 -0 0
    outer loop
      vertex 12 12 3
      vertex 12 9.9 0
      vertex 12 9.9 3
    endloop
  endfacet
  facet normal 0 -1 0
    outer loop
      vertex 12 9.9 0
      vertex 14 9.9 3
      vertex 12 9.9 3
    endloop
  endfacet
  facet normal 0 -1 -0
    outer loop
      vertex 14 9.9 3
      vertex 12 9.9 0
      vertex 14 9.9 0
    endloop
  endfacet
  facet normal -1 0 0
    outer loop
      vertex 14 7.8 0
      vertex 14 9.9 3
      vertex 14 9.9 0
    endloop
  endfacet
  facet normal -1 -0 0
    outer loop
      vertex 14 9.9 3
      vertex 14 7.8 0
      vertex 14 7.8 3
    endloop
  endfacet
  facet normal 0 -1 0
    outer loop
      vertex 14 7.8 0
      vertex 16 7.8 3
      vertex 14 7.8 3
    endloop
  endfacet
  facet normal 0 -1 -0
    outer loop
      vertex 16 7.8 3
      vertex 14 7.8 0
      vertex 16 7.8 0
    endloop
  endfacet
  facet normal -1 0 0
    outer loop
      vertex 16 5.7 0
      vertex 16 7.8 3
      vertex 16 7.8 0
    endloop
  endfacet
  facet normal -1 -0 0
    outer loop
      vertex 16 7.8 3
      vertex 16 5.7 0
      vertex 16 5.7 3
    endloop
  endfacet
  facet normal 0 -1 0
    outer loop
      vertex 16 5.7 0
      vertex 18 5.7 3
      vertex 16 5.7 3
    endloop
  endfacet
  facet normal 0 -1 -0
    outer loop
      vertex 18 5.7 3
      vertex 16 5.7 0
      vertex 18 5.7 0
    endloop
  endfacet
  facet normal -1 0 0
    outer loop
      vertex 18 3.6 0
      vertex 18 5.7 3
      vertex 18 5.7 0
    endloop
  endfacet
  facet normal -1 -0 0
    outer loop
      vertex 18 5.7 3
      vertex 18 3.6 0
      vertex 18 3.6 3
    endloop
  endfacet
  facet normal 0 -1 0
    outer loop
      vertex 18 3.6 0
      vertex 20 3.6 3
      vertex 18 3.6 3
    endloop
  endfacet
  facet normal 0 -1 -0
    outer loop
      vertex 20 3.6 3
      vertex 18 3.6 0
      vertex 20 3.6 0
    endloop
  endfacet
  facet normal -1 0 0
    outer loop
      vertex 20 1.5 0
      vertex 20 3.6 3
      vertex 20 3.6 0
    endloop
  endfacet
  facet normal -1 -0 0
    outer loop
      vertex 20 3.6 3
      vertex 20 1.5 0
      vertex 20 1.5 3
    endloop
  endfacet
  facet normal 0 -1 0
    outer loop
      vertex 20 1.5 0
      vertex 22 1.5 3
      vertex 20 1.5 3
    endloop
  endfacet
  facet normal 0 -1 -0
    outer loop
      vertex 22 1.5 3
      vertex 20 1.5 0
      vertex 22 1.5 0
    endloop
  endfacet
  facet normal 1 -0 0
    outer loop
      vertex 22 1.5 3
      vertex 22 24.6 0
      vertex 22 24.6 3
    endloop
  endfacet
  facet normal 1 0 0
    outer loop
      vertex 22 24.6 0
      vertex 22 1.5 3
      vertex 22 1.5 0
    endloop
  endfacet
endsolid OpenSCAD_Model
