solid OpenSCAD_Model
  facet normal -1 0 0
    outer loop
      vertex -2 20 0
      vertex -2 22 3
      vertex -2 22 0
    endloop
  endfacet
  facet normal -1 -0 0
    outer loop
      vertex -2 22 3
      vertex -2 20 0
      vertex -2 20 3
    endloop
  endfacet
  facet normal 0 0 1
    outer loop
      vertex -22 4.88498e-15 3
      vertex -20 2 3
      vertex -22 2 3
    endloop
  endfacet
  facet normal 0 0 1
    outer loop
      vertex -20 2 3
      vertex -22 4.88498e-15 3
      vertex -20 -2 3
    endloop
  endfacet
  facet normal 0 0 1
    outer loop
      vertex -20 -2 3
      vertex -22 4.88498e-15 3
      vertex -22 -2 3
    endloop
  endfacet
  facet normal 0 0 1
    outer loop
      vertex -20 2 3
      vertex -18 4 3
      vertex -20 4 3
    endloop
  endfacet
  facet normal 0 0 1
    outer loop
      vertex -18 4 3
      vertex -20 2 3
      vertex -18 -4 3
    endloop
  endfacet
  facet normal -0 0 1
    outer loop
      vertex -20 -2 3
      vertex -18 -4 3
      vertex -20 2 3
    endloop
  endfacet
  facet normal 0 0 1
    outer loop
      vertex -18 -4 3
      vertex -20 -2 3
      vertex -20 -4 3
    endloop
  endfacet
  facet normal 0 0 1
    outer loop
      vertex -18 4 3
      vertex -16 6 3
      vertex -18 6 3
    endloop
  endfacet
  facet normal 0 0 1
    outer loop
      vertex -16 6 3
      vertex -18 4 3
      vertex -16 -6 3
    endloop
  endfacet
  facet normal -0 0 1
    outer loop
      vertex -18 -4 3
      vertex -16 -6 3
      vertex -18 4 3
    endloop
  endfacet
  facet normal 0 0 1
    outer loop
      vertex -16 -6 3
      vertex -18 -4 3
      vertex -18 -6 3
    endloop
  endfacet
  facet normal 0 0 1
    outer loop
      vertex -16 6 3
      vertex -14 8 3
      vertex -16 8 3
    endloop
  endfacet
  facet normal 0 0 1
    outer loop
      vertex -14 8 3
      vertex -16 6 3
      vertex -14 -8 3
    endloop
  endfacet
  facet normal -0 0 1
    outer loop
      vertex -16 -6 3
      vertex -14 -8 3
      vertex -16 6 3
    endloop
  endfacet
  facet normal 0 0 1
    outer loop
      vertex -14 -8 3
      vertex -16 -6 3
      vertex -16 -8 3
    endloop
  endfacet
  facet normal 0 0 1
    outer loop
      vertex -14 8 3
      vertex -12 10 3
      vertex -14 10 3
    endloop
  endfacet
  facet normal 0 0 1
    outer loop
      vertex -12 10 3
      vertex -14 8 3
      vertex -12 -10 3
    endloop
  endfacet
  facet normal -0 0 1
    outer loop
      vertex -14 -8 3
      vertex -12 -10 3
      vertex -14 8 3
    endloop
  endfacet
  facet normal 0 0 1
    outer loop
      vertex -12 -10 3
      vertex -14 -8 3
      vertex -14 -10 3
    endloop
  endfacet
  facet normal 0 0 1
    outer loop
      vertex -10 12 3
      vertex -12 10 3
      vertex 0 0 3
    endloop
  endfacet
  facet normal 0 0 1
    outer loop
      vertex -12 -10 3
      vertex 0 0 3
      vertex -12 10 3
    endloop
  endfacet
  facet normal 0 0 1
    outer loop
      vertex 0 0 3
      vertex -12 -10 3
      vertex -10 -12 3
    endloop
  endfacet
  facet normal 0 0 1
    outer loop
      vertex -10 -12 3
      vertex -12 -10 3
      vertex -12 -12 3
    endloop
  endfacet
  facet normal 0 0 1
    outer loop
      vertex -8 14 3
      vertex -10 12 3
      vertex 0 0 3
    endloop
  endfacet
  facet normal 0 0 1
    outer loop
      vertex -12 10 3
      vertex -10 12 3
      vertex -12 12 3
    endloop
  endfacet
  facet normal 0 0 1
    outer loop
      vertex 0 0 3
      vertex -10 -12 3
      vertex -8 -14 3
    endloop
  endfacet
  facet normal 0 0 1
    outer loop
      vertex -8 -14 3
      vertex -10 -12 3
      vertex -10 -14 3
    endloop
  endfacet
  facet normal 0 0 1
    outer loop
      vertex -6 16 3
      vertex -8 14 3
      vertex 0 0 3
    endloop
  endfacet
  facet normal 0 0 1
    outer loop
      vertex -10 12 3
      vertex -8 14 3
      vertex -10 14 3
    endloop
  endfacet
  facet normal 0 0 1
    outer loop
      vertex 0 0 3
      vertex -8 -14 3
      vertex -6 -16 3
    endloop
  endfacet
  facet normal 0 0 1
    outer loop
      vertex -6 -16 3
      vertex -8 -14 3
      vertex -8 -16 3
    endloop
  endfacet
  facet normal 0 0 1
    outer loop
      vertex -4 18 3
      vertex -6 16 3
      vertex 0 0 3
    endloop
  endfacet
  facet normal 0 0 1
    outer loop
      vertex -8 14 3
      vertex -6 16 3
      vertex -8 16 3
    endloop
  endfacet
  facet normal 0 0 1
    outer loop
      vertex 0 0 3
      vertex -6 -16 3
      vertex -4 -18 3
    endloop
  endfacet
  facet normal 0 0 1
    outer loop
      vertex -4 -18 3
      vertex -6 -16 3
      vertex -6 -18 3
    endloop
  endfacet
  facet normal 0 0 1
    outer loop
      vertex -2 20 3
      vertex -4 18 3
      vertex 0 0 3
    endloop
  endfacet
  facet normal 0 0 1
    outer loop
      vertex -6 16 3
      vertex -4 18 3
      vertex -6 18 3
    endloop
  endfacet
  facet normal 0 0 1
    outer loop
      vertex 0 0 3
      vertex -4 -18 3
      vertex -2 -20 3
    endloop
  endfacet
  facet normal 0 0 1
    outer loop
      vertex -2 -20 3
      vertex -4 -18 3
      vertex -4 -20 3
    endloop
  endfacet
  facet normal -0 0 1
    outer loop
      vertex -2 20 3
      vertex 0 0 3
      vertex 0 22 3
    endloop
  endfacet
  facet normal 0 0 1
    outer loop
      vertex -2 20 3
      vertex 0 22 3
      vertex -2 22 3
    endloop
  endfacet
  facet normal 0 0 1
    outer loop
      vertex -4 18 3
      vertex -2 20 3
      vertex -4 20 3
    endloop
  endfacet
  facet normal 0 0 1
    outer loop
      vertex 0 0 3
      vertex -2 -20 3
      vertex -4.88498e-15 -22 3
    endloop
  endfacet
  facet normal 0 0 1
    outer loop
      vertex -4.88498e-15 -22 3
      vertex -2 -20 3
      vertex -2 -22 3
    endloop
  endfacet
  facet normal 1 -0 0
    outer loop
      vertex 0 0 3
      vertex 0 22 0
      vertex 0 22 3
    endloop
  endfacet
  facet normal 1 0 0
    outer loop
      vertex 0 22 0
      vertex 0 0 3
      vertex 0 0 0
    endloop
  endfacet
  facet normal 0 0 -1
    outer loop
      vertex -22 4.88498e-15 0
      vertex -20 -2 0
      vertex -22 -2 0
    endloop
  endfacet
  facet normal 0 0 -1
    outer loop
      vertex -20 -2 0
      vertex -22 4.88498e-15 0
      vertex -20 2 0
    endloop
  endfacet
  facet normal -0 0 -1
    outer loop
      vertex -20 2 0
      vertex -22 4.88498e-15 0
      vertex -22 2 0
    endloop
  endfacet
  facet normal 0 0 -1
    outer loop
      vertex -20 -2 0
      vertex -18 -4 0
      vertex -20 -4 0
    endloop
  endfacet
  facet normal 0 0 -1
    outer loop
      vertex -18 -4 0
      vertex -20 -2 0
      vertex -18 4 0
    endloop
  endfacet
  facet normal 0 0 -1
    outer loop
      vertex -20 2 0
      vertex -18 4 0
      vertex -20 -2 0
    endloop
  endfacet
  facet normal -0 0 -1
    outer loop
      vertex -18 4 0
      vertex -20 2 0
      vertex -20 4 0
    endloop
  endfacet
  facet normal 0 0 -1
    outer loop
      vertex -18 -4 0
      vertex -16 -6 0
      vertex -18 -6 0
    endloop
  endfacet
  facet normal 0 0 -1
    outer loop
      vertex -16 -6 0
      vertex -18 -4 0
      vertex -16 6 0
    endloop
  endfacet
  facet normal 0 0 -1
    outer loop
      vertex -18 4 0
      vertex -16 6 0
      vertex -18 -4 0
    endloop
  endfacet
  facet normal -0 0 -1
    outer loop
      vertex -16 6 0
      vertex -18 4 0
      vertex -18 6 0
    endloop
  endfacet
  facet normal 0 0 -1
    outer loop
      vertex -16 -6 0
      vertex -14 -8 0
      vertex -16 -8 0
    endloop
  endfacet
  facet normal 0 0 -1
    outer loop
      vertex -14 -8 0
      vertex -16 -6 0
      vertex -14 8 0
    endloop
  endfacet
  facet normal 0 0 -1
    outer loop
      vertex -16 6 0
      vertex -14 8 0
      vertex -16 -6 0
    endloop
  endfacet
  facet normal -0 0 -1
    outer loop
      vertex -14 8 0
      vertex -16 6 0
      vertex -16 8 0
    endloop
  endfacet
  facet normal 0 0 -1
    outer loop
      vertex -14 -8 0
      vertex -12 -10 0
      vertex -14 -10 0
    endloop
  endfacet
  facet normal 0 0 -1
    outer loop
      vertex -12 -10 0
      vertex -14 -8 0
      vertex -12 10 0
    endloop
  endfacet
  facet normal 0 0 -1
    outer loop
      vertex -14 8 0
      vertex -12 10 0
      vertex -14 -8 0
    endloop
  endfacet
  facet normal -0 0 -1
    outer loop
      vertex -12 10 0
      vertex -14 8 0
      vertex -14 10 0
    endloop
  endfacet
  facet normal 0 0 -1
    outer loop
      vertex -10 -12 0
      vertex -12 -10 0
      vertex 0 0 0
    endloop
  endfacet
  facet normal 0 0 -1
    outer loop
      vertex -12 10 0
      vertex 0 0 0
      vertex -12 -10 0
    endloop
  endfacet
  facet normal 0 0 -1
    outer loop
      vertex 0 0 0
      vertex -12 10 0
      vertex -10 12 0
    endloop
  endfacet
  facet normal -0 0 -1
    outer loop
      vertex -10 12 0
      vertex -12 10 0
      vertex -12 12 0
    endloop
  endfacet
  facet normal 0 0 -1
    outer loop
      vertex -8 -14 0
      vertex -10 -12 0
      vertex 0 0 0
    endloop
  endfacet
  facet normal 0 0 -1
    outer loop
      vertex -12 -10 0
      vertex -10 -12 0
      vertex -12 -12 0
    endloop
  endfacet
  facet normal 0 0 -1
    outer loop
      vertex 0 0 0
      vertex -10 12 0
      vertex -8 14 0
    endloop
  endfacet
  facet normal -0 0 -1
    outer loop
      vertex -8 14 0
      vertex -10 12 0
      vertex -10 14 0
    endloop
  endfacet
  facet normal 0 0 -1
    outer loop
      vertex -6 -16 0
      vertex -8 -14 0
      vertex 0 0 0
    endloop
  endfacet
  facet normal 0 0 -1
    outer loop
      vertex -10 -12 0
      vertex -8 -14 0
      vertex -10 -14 0
    endloop
  endfacet
  facet normal 0 0 -1
    outer loop
      vertex 0 0 0
      vertex -8 14 0
      vertex -6 16 0
    endloop
  endfacet
  facet normal -0 0 -1
    outer loop
      vertex -6 16 0
      vertex -8 14 0
      vertex -8 16 0
    endloop
  endfacet
  facet normal 0 0 -1
    outer loop
      vertex -4 -18 0
      vertex -6 -16 0
      vertex 0 0 0
    endloop
  endfacet
  facet normal 0 0 -1
    outer loop
      vertex -8 -14 0
      vertex -6 -16 0
      vertex -8 -16 0
    endloop
  endfacet
  facet normal 0 0 -1
    outer loop
      vertex 0 0 0
      vertex -6 16 0
      vertex -4 18 0
    endloop
  endfacet
  facet normal -0 0 -1
    outer loop
      vertex -4 18 0
      vertex -6 16 0
      vertex -6 18 0
    endloop
  endfacet
  facet normal 0 0 -1
    outer loop
      vertex -2 -20 0
      vertex -4 -18 0
      vertex 0 0 0
    endloop
  endfacet
  facet normal 0 0 -1
    outer loop
      vertex -6 -16 0
      vertex -4 -18 0
      vertex -6 -18 0
    endloop
  endfacet
  facet normal 0 0 -1
    outer loop
      vertex 0 0 0
      vertex -4 18 0
      vertex -2 20 0
    endloop
  endfacet
  facet normal -0 0 -1
    outer loop
      vertex -2 20 0
      vertex -4 18 0
      vertex -4 20 0
    endloop
  endfacet
  facet normal 0 0 -1
    outer loop
      vertex -2 -20 0
      vertex 0 0 0
      vertex -4.88498e-15 -22 0
    endloop
  endfacet
  facet normal 0 0 -1
    outer loop
      vertex -2 -20 0
      vertex -4.88498e-15 -22 0
      vertex -2 -22 0
    endloop
  endfacet
  facet normal 0 0 -1
    outer loop
      vertex -4 -18 0
      vertex -2 -20 0
      vertex -4 -20 0
    endloop
  endfacet
  facet normal 0 0 -1
    outer loop
      vertex 0 0 0
      vertex -2 20 0
      vertex 0 22 0
    endloop
  endfacet
  facet normal -0 0 -1
    outer loop
      vertex 0 22 0
      vertex -2 20 0
      vertex -2 22 0
    endloop
  endfacet
  facet normal 0 1 -0
    outer loop
      vertex -2 20 0
      vertex -4 20 3
      vertex -2 20 3
    endloop
  endfacet
  facet normal 0 1 0
    outer loop
      vertex -4 20 3
      vertex -2 20 0
      vertex -4 20 0
    endloop
  endfacet
  facet normal 0 1 -0
    outer loop
      vertex 0 22 0
      vertex -2 22 3
      vertex 0 22 3
    endloop
  endfacet
  facet normal 0 1 0
    outer loop
      vertex -2 22 3
      vertex 0 22 0
      vertex -2 22 0
    endloop
  endfacet
  facet normal -1 0 0
    outer loop
      vertex -4 18 0
      vertex -4 20 3
      vertex -4 20 0
    endloop
  endfacet
  facet normal -1 -0 0
    outer loop
      vertex -4 20 3
      vertex -4 18 0
      vertex -4 18 3
    endloop
  endfacet
  facet normal 0 1 -0
    outer loop
      vertex -4 18 0
      vertex -6 18 3
      vertex -4 18 3
    endloop
  endfacet
  facet normal 0 1 0
    outer loop
      vertex -6 18 3
      vertex -4 18 0
      vertex -6 18 0
    endloop
  endfacet
  facet normal -1 0 0
    outer loop
      vertex -6 16 0
      vertex -6 18 3
      vertex -6 18 0
    endloop
  endfacet
  facet normal -1 -0 0
    outer loop
      vertex -6 18 3
      vertex -6 16 0
      vertex -6 16 3
    endloop
  endfacet
  facet normal 0 1 -0
    outer loop
      vertex -6 16 0
      vertex -8 16 3
      vertex -6 16 3
    endloop
  endfacet
  facet normal 0 1 0
    outer loop
      vertex -8 16 3
      vertex -6 16 0
      vertex -8 16 0
    endloop
  endfacet
  facet normal -1 0 0
    outer loop
      vertex -8 14 0
      vertex -8 16 3
      vertex -8 16 0
    endloop
  endfacet
  facet normal -1 -0 0
    outer loop
      vertex -8 16 3
      vertex -8 14 0
      vertex -8 14 3
    endloop
  endfacet
  facet normal 0 1 -0
    outer loop
      vertex -8 14 0
      vertex -10 14 3
      vertex -8 14 3
    endloop
  endfacet
  facet normal 0 1 0
    outer loop
      vertex -10 14 3
      vertex -8 14 0
      vertex -10 14 0
    endloop
  endfacet
  facet normal -1 0 0
    outer loop
      vertex -10 12 0
      vertex -10 14 3
      vertex -10 14 0
    endloop
  endfacet
  facet normal -1 -0 0
    outer loop
      vertex -10 14 3
      vertex -10 12 0
      vertex -10 12 3
    endloop
  endfacet
  facet normal 0 1 -0
    outer loop
      vertex -10 12 0
      vertex -12 12 3
      vertex -10 12 3
    endloop
  endfacet
  facet normal 0 1 0
    outer loop
      vertex -12 12 3
      vertex -10 12 0
      vertex -12 12 0
    endloop
  endfacet
  facet normal -1 0 0
    outer loop
      vertex -12 10 0
      vertex -12 12 3
      vertex -12 12 0
    endloop
  endfacet
  facet normal -1 -0 0
    outer loop
      vertex -12 12 3
      vertex -12 10 0
      vertex -12 10 3
    endloop
  endfacet
  facet normal 0 1 -0
    outer loop
      vertex -12 10 0
      vertex -14 10 3
      vertex -12 10 3
    endloop
  endfacet
  facet normal 0 1 0
    outer loop
      vertex -14 10 3
      vertex -12 10 0
      vertex -14 10 0
    endloop
  endfacet
  facet normal -1 0 0
    outer loop
      vertex -14 8 0
      vertex -14 10 3
      vertex -14 10 0
    endloop
  endfacet
  facet normal -1 -0 0
    outer loop
      vertex -14 10 3
      vertex -14 8 0
      vertex -14 8 3
    endloop
  endfacet
  facet normal 0 1 -0
    outer loop
      vertex -14 8 0
      vertex -16 8 3
      vertex -14 8 3
    endloop
  endfacet
  facet normal 0 1 0
    outer loop
      vertex -16 8 3
      vertex -14 8 0
      vertex -16 8 0
    endloop
  endfacet
  facet normal -1 0 0
    outer loop
      vertex -16 6 0
      vertex -16 8 3
      vertex -16 8 0
    endloop
  endfacet
  facet normal -1 -0 0
    outer loop
      vertex -16 8 3
      vertex -16 6 0
      vertex -16 6 3
    endloop
  endfacet
  facet normal 0 1 -0
    outer loop
      vertex -16 6 0
      vertex -18 6 3
      vertex -16 6 3
    endloop
  endfacet
  facet normal 0 1 0
    outer loop
      vertex -18 6 3
      vertex -16 6 0
      vertex -18 6 0
    endloop
  endfacet
  facet normal -1 0 0
    outer loop
      vertex -18 4 0
      vertex -18 6 3
      vertex -18 6 0
    endloop
  endfacet
  facet normal -1 -0 0
    outer loop
      vertex -18 6 3
      vertex -18 4 0
      vertex -18 4 3
    endloop
  endfacet
  facet normal 0 1 -0
    outer loop
      vertex -18 4 0
      vertex -20 4 3
      vertex -18 4 3
    endloop
  endfacet
  facet normal 0 1 0
    outer loop
      vertex -20 4 3
      vertex -18 4 0
      vertex -20 4 0
    endloop
  endfacet
  facet normal -1 0 0
    outer loop
      vertex -20 2 0
      vertex -20 4 3
      vertex -20 4 0
    endloop
  endfacet
  facet normal -1 -0 0
    outer loop
      vertex -20 4 3
      vertex -20 2 0
      vertex -20 2 3
    endloop
  endfacet
  facet normal 0 1 -0
    outer loop
      vertex -20 2 0
      vertex -22 2 3
      vertex -20 2 3
    endloop
  endfacet
  facet normal 0 1 0
    outer loop
      vertex -22 2 3
      vertex -20 2 0
      vertex -22 2 0
    endloop
  endfacet
  facet normal -1 0 0
    outer loop
      vertex -22 4.88498e-15 0
      vertex -22 2 3
      vertex -22 2 0
    endloop
  endfacet
  facet normal -1 -0 0
    outer loop
      vertex -22 2 3
      vertex -22 4.88498e-15 0
      vertex -22 4.88498e-15 3
    endloop
  endfacet
  facet normal 0 -1 0
    outer loop
      vertex -22 -2 0
      vertex -20 -2 3
      vertex -22 -2 3
    endloop
  endfacet
  facet normal 0 -1 -0
    outer loop
      vertex -20 -2 3
      vertex -22 -2 0
      vertex -20 -2 0
    endloop
  endfacet
  facet normal -1 0 0
    outer loop
      vertex -20 -4 0
      vertex -20 -2 3
      vertex -20 -2 0
    endloop
  endfacet
  facet normal -1 -0 0
    outer loop
      vertex -20 -2 3
      vertex -20 -4 0
      vertex -20 -4 3
    endloop
  endfacet
  facet normal -1 0 0
    outer loop
      vertex -22 -2 0
      vertex -22 4.88498e-15 3
      vertex -22 4.88498e-15 0
    endloop
  endfacet
  facet normal -1 -0 0
    outer loop
      vertex -22 4.88498e-15 3
      vertex -22 -2 0
      vertex -22 -2 3
    endloop
  endfacet
  facet normal 0 -1 0
    outer loop
      vertex -20 -4 0
      vertex -18 -4 3
      vertex -20 -4 3
    endloop
  endfacet
  facet normal 0 -1 -0
    outer loop
      vertex -18 -4 3
      vertex -20 -4 0
      vertex -18 -4 0
    endloop
  endfacet
  facet normal -1 0 0
    outer loop
      vertex -18 -6 0
      vertex -18 -4 3
      vertex -18 -4 0
    endloop
  endfacet
  facet normal -1 -0 0
    outer loop
      vertex -18 -4 3
      vertex -18 -6 0
      vertex -18 -6 3
    endloop
  endfacet
  facet normal 0 -1 0
    outer loop
      vertex -18 -6 0
      vertex -16 -6 3
      vertex -18 -6 3
    endloop
  endfacet
  facet normal 0 -1 -0
    outer loop
      vertex -16 -6 3
      vertex -18 -6 0
      vertex -16 -6 0
    endloop
  endfacet
  facet normal -1 0 0
    outer loop
      vertex -16 -8 0
      vertex -16 -6 3
      vertex -16 -6 0
    endloop
  endfacet
  facet normal -1 -0 0
    outer loop
      vertex -16 -6 3
      vertex -16 -8 0
      vertex -16 -8 3
    endloop
  endfacet
  facet normal 0 -1 0
    outer loop
      vertex -16 -8 0
      vertex -14 -8 3
      vertex -16 -8 3
    endloop
  endfacet
  facet normal 0 -1 -0
    outer loop
      vertex -14 -8 3
      vertex -16 -8 0
      vertex -14 -8 0
    endloop
  endfacet
  facet normal -1 0 0
    outer loop
      vertex -14 -10 0
      vertex -14 -8 3
      vertex -14 -8 0
    endloop
  endfacet
  facet normal -1 -0 0
    outer loop
      vertex -14 -8 3
      vertex -14 -10 0
      vertex -14 -10 3
    endloop
  endfacet
  facet normal 0 -1 0
    outer loop
      vertex -14 -10 0
      vertex -12 -10 3
      vertex -14 -10 3
    endloop
  endfacet
  facet normal 0 -1 -0
    outer loop
      vertex -12 -10 3
      vertex -14 -10 0
      vertex -12 -10 0
    endloop
  endfacet
  facet normal -1 0 0
    outer loop
      vertex -12 -12 0
      vertex -12 -10 3
      vertex -12 -10 0
    endloop
  endfacet
  facet normal -1 -0 0
    outer loop
      vertex -12 -10 3
      vertex -12 -12 0
      vertex -12 -12 3
    endloop
  endfacet
  facet normal 0 -1 0
    outer loop
      vertex -12 -12 0
      vertex -10 -12 3
      vertex -12 -12 3
    endloop
  endfacet
  facet normal 0 -1 -0
    outer loop
      vertex -10 -12 3
      vertex -12 -12 0
      vertex -10 -12 0
    endloop
  endfacet
  facet normal -1 0 0
    outer loop
      vertex -10 -14 0
      vertex -10 -12 3
      vertex -10 -12 0
    endloop
  endfacet
  facet normal -1 -0 0
    outer loop
      vertex -10 -12 3
      vertex -10 -14 0
      vertex -10 -14 3
    endloop
  endfacet
  facet normal 0 -1 0
    outer loop
      vertex -10 -14 0
      vertex -8 -14 3
      vertex -10 -14 3
    endloop
  endfacet
  facet normal 0 -1 -0
    outer loop
      vertex -8 -14 3
      vertex -10 -14 0
      vertex -8 -14 0
    endloop
  endfacet
  facet normal -1 0 0
    outer loop
      vertex -8 -16 0
      vertex -8 -14 3
      vertex -8 -14 0
    endloop
  endfacet
  facet normal -1 -0 0
    outer loop
      vertex -8 -14 3
      vertex -8 -16 0
      vertex -8 -16 3
    endloop
  endfacet
  facet normal 0 -1 0
    outer loop
      vertex -8 -16 0
      vertex -6 -16 3
      vertex -8 -16 3
    endloop
  endfacet
  facet normal 0 -1 -0
    outer loop
      vertex -6 -16 3
      vertex -8 -16 0
      vertex -6 -16 0
    endloop
  endfacet
  facet normal -1 0 0
    outer loop
      vertex -6 -18 0
      vertex -6 -16 3
      vertex -6 -16 0
    endloop
  endfacet
  facet normal -1 -0 0
    outer loop
      vertex -6 -16 3
      vertex -6 -18 0
      vertex -6 -18 3
    endloop
  endfacet
  facet normal 0 -1 0
    outer loop
      vertex -6 -18 0
      vertex -4 -18 3
      vertex -6 -18 3
    endloop
  endfacet
  facet normal 0 -1 -0
    outer loop
      vertex -4 -18 3
      vertex -6 -18 0
      vertex -4 -18 0
    endloop
  endfacet
  facet normal -1 0 0
    outer loop
      vertex -4 -20 0
      vertex -4 -18 3
      vertex -4 -18 0
    endloop
  endfacet
  facet normal -1 -0 0
    outer loop
      vertex -4 -18 3
      vertex -4 -20 0
      vertex -4 -20 3
    endloop
  endfacet
  facet normal 0 -1 0
    outer loop
      vertex -4 -20 0
      vertex -2 -20 3
      vertex -4 -20 3
    endloop
  endfacet
  facet normal 0 -1 -0
    outer loop
      vertex -2 -20 3
      vertex -4 -20 0
      vertex -2 -20 0
    endloop
  endfacet
  facet normal -1 0 0
    outer loop
      vertex -2 -22 0
      vertex -2 -20 3
      vertex -2 -20 0
    endloop
  endfacet
  facet normal -1 -0 0
    outer loop
      vertex -2 -20 3
      vertex -2 -22 0
      vertex -2 -22 3
    endloop
  endfacet
  facet normal 0 -1 0
    outer loop
      vertex -2 -22 0
      vertex -4.88498e-15 -22 3
      vertex -2 -22 3
    endloop
  endfacet
  facet normal 0 -1 -0
    outer loop
      vertex -4.88498e-15 -22 3
      vertex -2 -22 0
      vertex -4.88498e-15 -22 0
    endloop
  endfacet
  facet normal 1 -2.22045e-16 0
    outer loop
      vertex -4.88498e-15 -22 3
      vertex 0 0 0
      vertex 0 0 3
    endloop
  endfacet
  facet normal 1 -2.22045e-16 0
    outer loop
      vertex 0 0 0
      vertex -4.88498e-15 -22 3
      vertex -4.88498e-15 -22 0
    endloop
  endfacet
  facet normal 1 -0 0
    outer loop
      vertex 2 -22 3
      vertex 2 -20 0
      vertex 2 -20 3
    endloop
  endfacet
  facet normal 1 0 0
    outer loop
      vertex 2 -20 0
      vertex 2 -22 3
      vertex 2 -22 0
    endloop
  endfacet
  facet normal -0 0 1
    outer loop
      vertex 4.88498e-15 22 3
      vertex 2 20 3
      vertex 2 22 3
    endloop
  endfacet
  facet normal 0 0 1
    outer loop
      vertex 2 20 3
      vertex 0 0 3
      vertex 2 -20 3
    endloop
  endfacet
  facet normal 0 0 1
    outer loop
      vertex 2 20 3
      vertex 4.88498e-15 22 3
      vertex 0 0 3
    endloop
  endfacet
  facet normal 0 0 1
    outer loop
      vertex -2.69422e-15 -22 3
      vertex 2 -20 3
      vertex 0 0 3
    endloop
  endfacet
  facet normal 0 0 1
    outer loop
      vertex 2 -20 3
      vertex -2.69422e-15 -22 3
      vertex 2 -22 3
    endloop
  endfacet
  facet normal -0 0 1
    outer loop
      vertex 2 20 3
      vertex 4 18 3
      vertex 4 20 3
    endloop
  endfacet
  facet normal 0 0 1
    outer loop
      vertex 4 18 3
      vertex 2 20 3
      vertex 4 -18 3
    endloop
  endfacet
  facet normal 0 0 1
    outer loop
      vertex 2 -20 3
      vertex 4 -18 3
      vertex 2 20 3
    endloop
  endfacet
  facet normal 0 0 1
    outer loop
      vertex 4 -18 3
      vertex 2 -20 3
      vertex 4 -20 3
    endloop
  endfacet
  facet normal -0 0 1
    outer loop
      vertex 4 18 3
      vertex 6 16 3
      vertex 6 18 3
    endloop
  endfacet
  facet normal 0 0 1
    outer loop
      vertex 6 16 3
      vertex 4 18 3
      vertex 6 -16 3
    endloop
  endfacet
  facet normal 0 0 1
    outer loop
      vertex 4 -18 3
      vertex 6 -16 3
      vertex 4 18 3
    endloop
  endfacet
  facet normal 0 0 1
    outer loop
      vertex 6 -16 3
      vertex 4 -18 3
      vertex 6 -18 3
    endloop
  endfacet
  facet normal -0 0 1
    outer loop
      vertex 6 16 3
      vertex 8 14 3
      vertex 8 16 3
    endloop
  endfacet
  facet normal 0 0 1
    outer loop
      vertex 8 14 3
      vertex 6 16 3
      vertex 8 -14 3
    endloop
  endfacet
  facet normal 0 0 1
    outer loop
      vertex 6 -16 3
      vertex 8 -14 3
      vertex 6 16 3
    endloop
  endfacet
  facet normal 0 0 1
    outer loop
      vertex 8 -14 3
      vertex 6 -16 3
      vertex 8 -16 3
    endloop
  endfacet
  facet normal -0 0 1
    outer loop
      vertex 8 14 3
      vertex 10 12 3
      vertex 10 14 3
    endloop
  endfacet
  facet normal 0 0 1
    outer loop
      vertex 10 12 3
      vertex 8 14 3
      vertex 10 -12 3
    endloop
  endfacet
  facet normal 0 0 1
    outer loop
      vertex 8 -14 3
      vertex 10 -12 3
      vertex 8 14 3
    endloop
  endfacet
  facet normal 0 0 1
    outer loop
      vertex 10 -12 3
      vertex 8 -14 3
      vertex 10 -14 3
    endloop
  endfacet
  facet normal -0 0 1
    outer loop
      vertex 10 12 3
      vertex 12 10 3
      vertex 12 12 3
    endloop
  endfacet
  facet normal 0 0 1
    outer loop
      vertex 12 10 3
      vertex 10 12 3
      vertex 12 -10 3
    endloop
  endfacet
  facet normal 0 0 1
    outer loop
      vertex 10 -12 3
      vertex 12 -10 3
      vertex 10 12 3
    endloop
  endfacet
  facet normal 0 0 1
    outer loop
      vertex 12 -10 3
      vertex 10 -12 3
      vertex 12 -12 3
    endloop
  endfacet
  facet normal -0 0 1
    outer loop
      vertex 12 10 3
      vertex 14 8 3
      vertex 14 10 3
    endloop
  endfacet
  facet normal 0 0 1
    outer loop
      vertex 14 8 3
      vertex 12 10 3
      vertex 14 -8 3
    endloop
  endfacet
  facet normal 0 0 1
    outer loop
      vertex 12 -10 3
      vertex 14 -8 3
      vertex 12 10 3
    endloop
  endfacet
  facet normal 0 0 1
    outer loop
      vertex 14 -8 3
      vertex 12 -10 3
      vertex 14 -10 3
    endloop
  endfacet
  facet normal -0 0 1
    outer loop
      vertex 14 8 3
      vertex 16 6 3
      vertex 16 8 3
    endloop
  endfacet
  facet normal 0 0 1
    outer loop
      vertex 16 6 3
      vertex 14 8 3
      vertex 16 -6 3
    endloop
  endfacet
  facet normal 0 0 1
    outer loop
      vertex 14 -8 3
      vertex 16 -6 3
      vertex 14 8 3
    endloop
  endfacet
  facet normal 0 0 1
    outer loop
      vertex 16 -6 3
      vertex 14 -8 3
      vertex 16 -8 3
    endloop
  endfacet
  facet normal -0 0 1
    outer loop
      vertex 16 6 3
      vertex 18 4 3
      vertex 18 6 3
    endloop
  endfacet
  facet normal 0 0 1
    outer loop
      vertex 18 4 3
      vertex 16 6 3
      vertex 18 -4 3
    endloop
  endfacet
  facet normal 0 0 1
    outer loop
      vertex 16 -6 3
      vertex 18 -4 3
      vertex 16 6 3
    endloop
  endfacet
  facet normal 0 0 1
    outer loop
      vertex 18 -4 3
      vertex 16 -6 3
      vertex 18 -6 3
    endloop
  endfacet
  facet normal -0 0 1
    outer loop
      vertex 18 4 3
      vertex 20 2 3
      vertex 20 4 3
    endloop
  endfacet
  facet normal 0 0 1
    outer loop
      vertex 20 2 3
      vertex 18 4 3
      vertex 20 -2 3
    endloop
  endfacet
  facet normal 0 0 1
    outer loop
      vertex 18 -4 3
      vertex 20 -2 3
      vertex 18 4 3
    endloop
  endfacet
  facet normal 0 0 1
    outer loop
      vertex 20 -2 3
      vertex 18 -4 3
      vertex 20 -4 3
    endloop
  endfacet
  facet normal -0 0 1
    outer loop
      vertex 20 2 3
      vertex 22 -4.88498e-15 3
      vertex 22 2 3
    endloop
  endfacet
  facet normal 0 0 1
    outer loop
      vertex 20 -2 3
      vertex 22 -4.88498e-15 3
      vertex 20 2 3
    endloop
  endfacet
  facet normal 0 0 1
    outer loop
      vertex 22 -4.88498e-15 3
      vertex 20 -2 3
      vertex 22 -2 3
    endloop
  endfacet
  facet normal -1 1.22465e-16 0
    outer loop
      vertex -2.69422e-15 -22 0
      vertex 0 0 3
      vertex 0 0 0
    endloop
  endfacet
  facet normal -1 1.22465e-16 0
    outer loop
      vertex 0 0 3
      vertex -2.69422e-15 -22 0
      vertex -2.69422e-15 -22 3
    endloop
  endfacet
  facet normal 0 0 -1
    outer loop
      vertex -2.69422e-15 -22 0
      vertex 2 -20 0
      vertex 2 -22 0
    endloop
  endfacet
  facet normal 0 0 -1
    outer loop
      vertex 2 -20 0
      vertex 0 0 0
      vertex 2 20 0
    endloop
  endfacet
  facet normal 0 -0 -1
    outer loop
      vertex 4.88498e-15 22 0
      vertex 2 20 0
      vertex 0 0 0
    endloop
  endfacet
  facet normal 0 0 -1
    outer loop
      vertex 2 20 0
      vertex 4.88498e-15 22 0
      vertex 2 22 0
    endloop
  endfacet
  facet normal -0 0 -1
    outer loop
      vertex 2 -20 0
      vertex -2.69422e-15 -22 0
      vertex 0 0 0
    endloop
  endfacet
  facet normal 0 0 -1
    outer loop
      vertex 2 -20 0
      vertex 4 -18 0
      vertex 4 -20 0
    endloop
  endfacet
  facet normal -0 0 -1
    outer loop
      vertex 4 -18 0
      vertex 2 -20 0
      vertex 4 18 0
    endloop
  endfacet
  facet normal 0 0 -1
    outer loop
      vertex 2 20 0
      vertex 4 18 0
      vertex 2 -20 0
    endloop
  endfacet
  facet normal 0 0 -1
    outer loop
      vertex 4 18 0
      vertex 2 20 0
      vertex 4 20 0
    endloop
  endfacet
  facet normal 0 0 -1
    outer loop
      vertex 4 -18 0
      vertex 6 -16 0
      vertex 6 -18 0
    endloop
  endfacet
  facet normal -0 0 -1
    outer loop
      vertex 6 -16 0
      vertex 4 -18 0
      vertex 6 16 0
    endloop
  endfacet
  facet normal 0 0 -1
    outer loop
      vertex 4 18 0
      vertex 6 16 0
      vertex 4 -18 0
    endloop
  endfacet
  facet normal 0 0 -1
    outer loop
      vertex 6 16 0
      vertex 4 18 0
      vertex 6 18 0
    endloop
  endfacet
  facet normal 0 0 -1
    outer loop
      vertex 6 -16 0
      vertex 8 -14 0
      vertex 8 -16 0
    endloop
  endfacet
  facet normal -0 0 -1
    outer loop
      vertex 8 -14 0
      vertex 6 -16 0
      vertex 8 14 0
    endloop
  endfacet
  facet normal 0 0 -1
    outer loop
      vertex 6 16 0
      vertex 8 14 0
      vertex 6 -16 0
    endloop
  endfacet
  facet normal 0 0 -1
    outer loop
      vertex 8 14 0
      vertex 6 16 0
      vertex 8 16 0
    endloop
  endfacet
  facet normal 0 0 -1
    outer loop
      vertex 8 -14 0
      vertex 10 -12 0
      vertex 10 -14 0
    endloop
  endfacet
  facet normal -0 0 -1
    outer loop
      vertex 10 -12 0
      vertex 8 -14 0
      vertex 10 12 0
    endloop
  endfacet
  facet normal 0 0 -1
    outer loop
      vertex 8 14 0
      vertex 10 12 0
      vertex 8 -14 0
    endloop
  endfacet
  facet normal 0 0 -1
    outer loop
      vertex 10 12 0
      vertex 8 14 0
      vertex 10 14 0
    endloop
  endfacet
  facet normal 0 0 -1
    outer loop
      vertex 10 -12 0
      vertex 12 -10 0
      vertex 12 -12 0
    endloop
  endfacet
  facet normal -0 0 -1
    outer loop
      vertex 12 -10 0
      vertex 10 -12 0
      vertex 12 10 0
    endloop
  endfacet
  facet normal 0 0 -1
    outer loop
      vertex 10 12 0
      vertex 12 10 0
      vertex 10 -12 0
    endloop
  endfacet
  facet normal 0 0 -1
    outer loop
      vertex 12 10 0
      vertex 10 12 0
      vertex 12 12 0
    endloop
  endfacet
  facet normal 0 0 -1
    outer loop
      vertex 12 -10 0
      vertex 14 -8 0
      vertex 14 -10 0
    endloop
  endfacet
  facet normal -0 0 -1
    outer loop
      vertex 14 -8 0
      vertex 12 -10 0
      vertex 14 8 0
    endloop
  endfacet
  facet normal 0 0 -1
    outer loop
      vertex 12 10 0
      vertex 14 8 0
      vertex 12 -10 0
    endloop
  endfacet
  facet normal 0 0 -1
    outer loop
      vertex 14 8 0
      vertex 12 10 0
      vertex 14 10 0
    endloop
  endfacet
  facet normal 0 0 -1
    outer loop
      vertex 14 -8 0
      vertex 16 -6 0
      vertex 16 -8 0
    endloop
  endfacet
  facet normal -0 0 -1
    outer loop
      vertex 16 -6 0
      vertex 14 -8 0
      vertex 16 6 0
    endloop
  endfacet
  facet normal 0 0 -1
    outer loop
      vertex 14 8 0
      vertex 16 6 0
      vertex 14 -8 0
    endloop
  endfacet
  facet normal 0 0 -1
    outer loop
      vertex 16 6 0
      vertex 14 8 0
      vertex 16 8 0
    endloop
  endfacet
  facet normal 0 0 -1
    outer loop
      vertex 16 -6 0
      vertex 18 -4 0
      vertex 18 -6 0
    endloop
  endfacet
  facet normal -0 0 -1
    outer loop
      vertex 18 -4 0
      vertex 16 -6 0
      vertex 18 4 0
    endloop
  endfacet
  facet normal 0 0 -1
    outer loop
      vertex 16 6 0
      vertex 18 4 0
      vertex 16 -6 0
    endloop
  endfacet
  facet normal 0 0 -1
    outer loop
      vertex 18 4 0
      vertex 16 6 0
      vertex 18 6 0
    endloop
  endfacet
  facet normal 0 0 -1
    outer loop
      vertex 18 -4 0
      vertex 20 -2 0
      vertex 20 -4 0
    endloop
  endfacet
  facet normal -0 0 -1
    outer loop
      vertex 20 -2 0
      vertex 18 -4 0
      vertex 20 2 0
    endloop
  endfacet
  facet normal 0 0 -1
    outer loop
      vertex 18 4 0
      vertex 20 2 0
      vertex 18 -4 0
    endloop
  endfacet
  facet normal 0 0 -1
    outer loop
      vertex 20 2 0
      vertex 18 4 0
      vertex 20 4 0
    endloop
  endfacet
  facet normal 0 0 -1
    outer loop
      vertex 20 -2 0
      vertex 22 -4.88498e-15 0
      vertex 22 -2 0
    endloop
  endfacet
  facet normal 0 0 -1
    outer loop
      vertex 20 2 0
      vertex 22 -4.88498e-15 0
      vertex 20 -2 0
    endloop
  endfacet
  facet normal 0 0 -1
    outer loop
      vertex 22 -4.88498e-15 0
      vertex 20 2 0
      vertex 22 2 0
    endloop
  endfacet
  facet normal 0 -1 0
    outer loop
      vertex 2 -20 0
      vertex 4 -20 3
      vertex 2 -20 3
    endloop
  endfacet
  facet normal 0 -1 -0
    outer loop
      vertex 4 -20 3
      vertex 2 -20 0
      vertex 4 -20 0
    endloop
  endfacet
  facet normal 0 -1 0
    outer loop
      vertex -2.69422e-15 -22 0
      vertex 2 -22 3
      vertex -2.69422e-15 -22 3
    endloop
  endfacet
  facet normal 0 -1 -0
    outer loop
      vertex 2 -22 3
      vertex -2.69422e-15 -22 0
      vertex 2 -22 0
    endloop
  endfacet
  facet normal 1 -0 0
    outer loop
      vertex 4 -20 3
      vertex 4 -18 0
      vertex 4 -18 3
    endloop
  endfacet
  facet normal 1 0 0
    outer loop
      vertex 4 -18 0
      vertex 4 -20 3
      vertex 4 -20 0
    endloop
  endfacet
  facet normal 0 -1 0
    outer loop
      vertex 4 -18 0
      vertex 6 -18 3
      vertex 4 -18 3
    endloop
  endfacet
  facet normal 0 -1 -0
    outer loop
      vertex 6 -18 3
      vertex 4 -18 0
      vertex 6 -18 0
    endloop
  endfacet
  facet normal 1 -0 0
    outer loop
      vertex 6 -18 3
      vertex 6 -16 0
      vertex 6 -16 3
    endloop
  endfacet
  facet normal 1 0 0
    outer loop
      vertex 6 -16 0
      vertex 6 -18 3
      vertex 6 -18 0
    endloop
  endfacet
  facet normal 0 -1 0
    outer loop
      vertex 6 -16 0
      vertex 8 -16 3
      vertex 6 -16 3
    endloop
  endfacet
  facet normal 0 -1 -0
    outer loop
      vertex 8 -16 3
      vertex 6 -16 0
      vertex 8 -16 0
    endloop
  endfacet
  facet normal 1 -0 0
    outer loop
      vertex 8 -16 3
      vertex 8 -14 0
      vertex 8 -14 3
    endloop
  endfacet
  facet normal 1 0 0
    outer loop
      vertex 8 -14 0
      vertex 8 -16 3
      vertex 8 -16 0
    endloop
  endfacet
  facet normal 0 -1 0
    outer loop
      vertex 8 -14 0
      vertex 10 -14 3
      vertex 8 -14 3
    endloop
  endfacet
  facet normal 0 -1 -0
    outer loop
      vertex 10 -14 3
      vertex 8 -14 0
      vertex 10 -14 0
    endloop
  endfacet
  facet normal 1 -0 0
    outer loop
      vertex 10 -14 3
      vertex 10 -12 0
      vertex 10 -12 3
    endloop
  endfacet
  facet normal 1 0 0
    outer loop
      vertex 10 -12 0
      vertex 10 -14 3
      vertex 10 -14 0
    endloop
  endfacet
  facet normal 0 -1 0
    outer loop
      vertex 10 -12 0
      vertex 12 -12 3
      vertex 10 -12 3
    endloop
  endfacet
  facet normal 0 -1 -0
    outer loop
      vertex 12 -12 3
      vertex 10 -12 0
      vertex 12 -12 0
    endloop
  endfacet
  facet normal 1 -0 0
    outer loop
      vertex 12 -12 3
      vertex 12 -10 0
      vertex 12 -10 3
    endloop
  endfacet
  facet normal 1 0 0
    outer loop
      vertex 12 -10 0
      vertex 12 -12 3
      vertex 12 -12 0
    endloop
  endfacet
  facet normal 0 -1 0
    outer loop
      vertex 12 -10 0
      vertex 14 -10 3
      vertex 12 -10 3
    endloop
  endfacet
  facet normal 0 -1 -0
    outer loop
      vertex 14 -10 3
      vertex 12 -10 0
      vertex 14 -10 0
    endloop
  endfacet
  facet normal 1 -0 0
    outer loop
      vertex 14 -10 3
      vertex 14 -8 0
      vertex 14 -8 3
    endloop
  endfacet
  facet normal 1 0 0
    outer loop
      vertex 14 -8 0
      vertex 14 -10 3
      vertex 14 -10 0
    endloop
  endfacet
  facet normal 0 -1 0
    outer loop
      vertex 14 -8 0
      vertex 16 -8 3
      vertex 14 -8 3
    endloop
  endfacet
  facet normal 0 -1 -0
    outer loop
      vertex 16 -8 3
      vertex 14 -8 0
      vertex 16 -8 0
    endloop
  endfacet
  facet normal 1 -0 0
    outer loop
      vertex 16 -8 3
      vertex 16 -6 0
      vertex 16 -6 3
    endloop
  endfacet
  facet normal 1 0 0
    outer loop
      vertex 16 -6 0
      vertex 16 -8 3
      vertex 16 -8 0
    endloop
  endfacet
  facet normal 0 -1 0
    outer loop
      vertex 16 -6 0
      vertex 18 -6 3
      vertex 16 -6 3
    endloop
  endfacet
  facet normal 0 -1 -0
    outer loop
      vertex 18 -6 3
      vertex 16 -6 0
      vertex 18 -6 0
    endloop
  endfacet
  facet normal 1 -0 0
    outer loop
      vertex 18 -6 3
      vertex 18 -4 0
      vertex 18 -4 3
    endloop
  endfacet
  facet normal 1 0 0
    outer loop
      vertex 18 -4 0
      vertex 18 -6 3
      vertex 18 -6 0
    endloop
  endfacet
  facet normal 0 -1 0
    outer loop
      vertex 18 -4 0
      vertex 20 -4 3
      vertex 18 -4 3
    endloop
  endfacet
  facet normal 0 -1 -0
    outer loop
      vertex 20 -4 3
      vertex 18 -4 0
      vertex 20 -4 0
    endloop
  endfacet
  facet normal 1 -0 0
    outer loop
      vertex 20 -4 3
      vertex 20 -2 0
      vertex 20 -2 3
    endloop
  endfacet
  facet normal 1 0 0
    outer loop
      vertex 20 -2 0
      vertex 20 -4 3
      vertex 20 -4 0
    endloop
  endfacet
  facet normal 0 -1 0
    outer loop
      vertex 20 -2 0
      vertex 22 -2 3
      vertex 20 -2 3
    endloop
  endfacet
  facet normal 0 -1 -0
    outer loop
      vertex 22 -2 3
      vertex 20 -2 0
      vertex 22 -2 0
    endloop
  endfacet
  facet normal 1 -0 0
    outer loop
      vertex 22 -2 3
      vertex 22 -4.88498e-15 0
      vertex 22 -4.88498e-15 3
    endloop
  endfacet
  facet normal 1 0 0
    outer loop
      vertex 22 -4.88498e-15 0
      vertex 22 -2 3
      vertex 22 -2 0
    endloop
  endfacet
  facet normal 0 1 -0
    outer loop
      vertex 22 2 0
      vertex 20 2 3
      vertex 22 2 3
    endloop
  endfacet
  facet normal 0 1 0
    outer loop
      vertex 20 2 3
      vertex 22 2 0
      vertex 20 2 0
    endloop
  endfacet
  facet normal 1 -0 0
    outer loop
      vertex 20 2 3
      vertex 20 4 0
      vertex 20 4 3
    endloop
  endfacet
  facet normal 1 0 0
    outer loop
      vertex 20 4 0
      vertex 20 2 3
      vertex 20 2 0
    endloop
  endfacet
  facet normal 1 -0 0
    outer loop
      vertex 22 -4.88498e-15 3
      vertex 22 2 0
      vertex 22 2 3
    endloop
  endfacet
  facet normal 1 0 0
    outer loop
      vertex 22 2 0
      vertex 22 -4.88498e-15 3
      vertex 22 -4.88498e-15 0
    endloop
  endfacet
  facet normal 0 1 -0
    outer loop
      vertex 20 4 0
      vertex 18 4 3
      vertex 20 4 3
    endloop
  endfacet
  facet normal 0 1 0
    outer loop
      vertex 18 4 3
      vertex 20 4 0
      vertex 18 4 0
    endloop
  endfacet
  facet normal 1 -0 0
    outer loop
      vertex 18 4 3
      vertex 18 6 0
      vertex 18 6 3
    endloop
  endfacet
  facet normal 1 0 0
    outer loop
      vertex 18 6 0
      vertex 18 4 3
      vertex 18 4 0
    endloop
  endfacet
  facet normal 0 1 -0
    outer loop
      vertex 18 6 0
      vertex 16 6 3
      vertex 18 6 3
    endloop
  endfacet
  facet normal 0 1 0
    outer loop
      vertex 16 6 3
      vertex 18 6 0
      vertex 16 6 0
    endloop
  endfacet
  facet normal 1 -0 0
    outer loop
      vertex 16 6 3
      vertex 16 8 0
      vertex 16 8 3
    endloop
  endfacet
  facet normal 1 0 0
    outer loop
      vertex 16 8 0
      vertex 16 6 3
      vertex 16 6 0
    endloop
  endfacet
  facet normal 0 1 -0
    outer loop
      vertex 16 8 0
      vertex 14 8 3
      vertex 16 8 3
    endloop
  endfacet
  facet normal 0 1 0
    outer loop
      vertex 14 8 3
      vertex 16 8 0
      vertex 14 8 0
    endloop
  endfacet
  facet normal 1 -0 0
    outer loop
      vertex 14 8 3
      vertex 14 10 0
      vertex 14 10 3
    endloop
  endfacet
  facet normal 1 0 0
    outer loop
      vertex 14 10 0
      vertex 14 8 3
      vertex 14 8 0
    endloop
  endfacet
  facet normal 0 1 -0
    outer loop
      vertex 14 10 0
      vertex 12 10 3
      vertex 14 10 3
    endloop
  endfacet
  facet normal 0 1 0
    outer loop
      vertex 12 10 3
      vertex 14 10 0
      vertex 12 10 0
    endloop
  endfacet
  facet normal 1 -0 0
    outer loop
      vertex 12 10 3
      vertex 12 12 0
      vertex 12 12 3
    endloop
  endfacet
  facet normal 1 0 0
    outer loop
      vertex 12 12 0
      vertex 12 10 3
      vertex 12 10 0
    endloop
  endfacet
  facet normal 0 1 -0
    outer loop
      vertex 12 12 0
      vertex 10 12 3
      vertex 12 12 3
    endloop
  endfacet
  facet normal 0 1 0
    outer loop
      vertex 10 12 3
      vertex 12 12 0
      vertex 10 12 0
    endloop
  endfacet
  facet normal 1 -0 0
    outer loop
      vertex 10 12 3
      vertex 10 14 0
      vertex 10 14 3
    endloop
  endfacet
  facet normal 1 0 0
    outer loop
      vertex 10 14 0
      vertex 10 12 3
      vertex 10 12 0
    endloop
  endfacet
  facet normal 0 1 -0
    outer loop
      vertex 10 14 0
      vertex 8 14 3
      vertex 10 14 3
    endloop
  endfacet
  facet normal 0 1 0
    outer loop
      vertex 8 14 3
      vertex 10 14 0
      vertex 8 14 0
    endloop
  endfacet
  facet normal 1 -0 0
    outer loop
      vertex 8 14 3
      vertex 8 16 0
      vertex 8 16 3
    endloop
  endfacet
  facet normal 1 0 0
    outer loop
      vertex 8 16 0
      vertex 8 14 3
      vertex 8 14 0
    endloop
  endfacet
  facet normal 0 1 -0
    outer loop
      vertex 8 16 0
      vertex 6 16 3
      vertex 8 16 3
    endloop
  endfacet
  facet normal 0 1 0
    outer loop
      vertex 6 16 3
      vertex 8 16 0
      vertex 6 16 0
    endloop
  endfacet
  facet normal 1 -0 0
    outer loop
      vertex 6 16 3
      vertex 6 18 0
      vertex 6 18 3
    endloop
  endfacet
  facet normal 1 0 0
    outer loop
      vertex 6 18 0
      vertex 6 16 3
      vertex 6 16 0
    endloop
  endfacet
  facet normal 0 1 -0
    outer loop
      vertex 6 18 0
      vertex 4 18 3
      vertex 6 18 3
    endloop
  endfacet
  facet normal 0 1 0
    outer loop
      vertex 4 18 3
      vertex 6 18 0
      vertex 4 18 0
    endloop
  endfacet
  facet normal 1 -0 0
    outer loop
      vertex 4 18 3
      vertex 4 20 0
      vertex 4 20 3
    endloop
  endfacet
  facet normal 1 0 0
    outer loop
      vertex 4 20 0
      vertex 4 18 3
      vertex 4 18 0
    endloop
  endfacet
  facet normal 0 1 -0
    outer loop
      vertex 4 20 0
      vertex 2 20 3
      vertex 4 20 3
    endloop
  endfacet
  facet normal 0 1 0
    outer loop
      vertex 2 20 3
      vertex 4 20 0
      vertex 2 20 0
    endloop
  endfacet
  facet normal 1 -0 0
    outer loop
      vertex 2 20 3
      vertex 2 22 0
      vertex 2 22 3
    endloop
  endfacet
  facet normal 1 0 0
    outer loop
      vertex 2 22 0
      vertex 2 20 3
      vertex 2 20 0
    endloop
  endfacet
  facet normal 0 1 -0
    outer loop
      vertex 2 22 0
      vertex 4.88498e-15 22 3
      vertex 2 22 3
    endloop
  endfacet
  facet normal 0 1 0
    outer loop
      vertex 4.88498e-15 22 3
      vertex 2 22 0
      vertex 4.88498e-15 22 0
    endloop
  endfacet
  facet normal -1 2.22045e-16 0
    outer loop
      vertex 0 0 0
      vertex 4.88498e-15 22 3
      vertex 4.88498e-15 22 0
    endloop
  endfacet
  facet normal -1 2.22045e-16 0
    outer loop
      vertex 4.88498e-15 22 3
      vertex 0 0 0
      vertex 0 0 3
    endloop
  endfacet
endsolid OpenSCAD_Model
