solid OpenSCAD_Model
  facet normal 1 -0 0
    outer loop
      vertex -2.2 -1.2 3.7
      vertex -2.2 1.2 0
      vertex -2.2 1.2 3.7
    endloop
  endfacet
  facet normal 1 0 0
    outer loop
      vertex -2.2 1.2 0
      vertex -2.2 -1.2 3.7
      vertex -2.2 -1.2 0
    endloop
  endfacet
  facet normal -1 0 0
    outer loop
      vertex 2.2 -1.2 0
      vertex 2.2 1.2 3.7
      vertex 2.2 1.2 0
    endloop
  endfacet
  facet normal -1 -0 0
    outer loop
      vertex 2.2 1.2 3.7
      vertex 2.2 -1.2 0
      vertex 2.2 -1.2 3.7
    endloop
  endfacet
  facet normal 0 1 0
    outer loop
      vertex 2.2 -1.2 3.7
      vertex 0 -1.2 2.2
      vertex -2.2 -1.2 3.7
    endloop
  endfacet
  facet normal 0 1 0
    outer loop
      vertex 2.2 -1.2 3.7
      vertex 0.429198 -1.2 2.15773
      vertex 0 -1.2 2.2
    endloop
  endfacet
  facet normal 0 1 0
    outer loop
      vertex 2.2 -1.2 3.7
      vertex 0.841903 -1.2 2.03253
      vertex 0.429198 -1.2 2.15773
    endloop
  endfacet
  facet normal 0 1 0
    outer loop
      vertex 2.2 -1.2 3.7
      vertex 1.22225 -1.2 1.82923
      vertex 0.841903 -1.2 2.03253
    endloop
  endfacet
  facet normal 0 1 0
    outer loop
      vertex 2.2 -1.2 3.7
      vertex 1.55563 -1.2 1.55563
      vertex 1.22225 -1.2 1.82923
    endloop
  endfacet
  facet normal 0 1 0
    outer loop
      vertex 2.2 -1.2 3.7
      vertex 1.82923 -1.2 1.22225
      vertex 1.55563 -1.2 1.55563
    endloop
  endfacet
  facet normal 0 1 0
    outer loop
      vertex 2.2 -1.2 3.7
      vertex 2.03253 -1.2 0.841903
      vertex 1.82923 -1.2 1.22225
    endloop
  endfacet
  facet normal 0 1 0
    outer loop
      vertex 2.2 -1.2 3.7
      vertex 2.15773 -1.2 0.429198
      vertex 2.03253 -1.2 0.841903
    endloop
  endfacet
  facet normal -0 1 0
    outer loop
      vertex 2.15773 -1.2 0.429198
      vertex 2.2 -1.2 3.7
      vertex 2.2 -1.2 0
    endloop
  endfacet
  facet normal 0 1 -0
    outer loop
      vertex -0.429198 -1.2 2.15773
      vertex -2.2 -1.2 3.7
      vertex 0 -1.2 2.2
    endloop
  endfacet
  facet normal 0 1 -0
    outer loop
      vertex -0.841903 -1.2 2.03253
      vertex -2.2 -1.2 3.7
      vertex -0.429198 -1.2 2.15773
    endloop
  endfacet
  facet normal 0 1 -0
    outer loop
      vertex -1.22225 -1.2 1.82923
      vertex -2.2 -1.2 3.7
      vertex -0.841903 -1.2 2.03253
    endloop
  endfacet
  facet normal 0 1 -0
    outer loop
      vertex -1.55563 -1.2 1.55563
      vertex -2.2 -1.2 3.7
      vertex -1.22225 -1.2 1.82923
    endloop
  endfacet
  facet normal 0 1 -0
    outer loop
      vertex -1.82923 -1.2 1.22225
      vertex -2.2 -1.2 3.7
      vertex -1.55563 -1.2 1.55563
    endloop
  endfacet
  facet normal 0 1 -0
    outer loop
      vertex -2.03253 -1.2 0.841903
      vertex -2.2 -1.2 3.7
      vertex -1.82923 -1.2 1.22225
    endloop
  endfacet
  facet normal 0 1 -0
    outer loop
      vertex -2.15773 -1.2 0.429198
      vertex -2.2 -1.2 3.7
      vertex -2.03253 -1.2 0.841903
    endloop
  endfacet
  facet normal 0 1 0
    outer loop
      vertex -2.2 -1.2 3.7
      vertex -2.15773 -1.2 0.429198
      vertex -2.2 -1.2 0
    endloop
  endfacet
  facet normal 0 -1 0
    outer loop
      vertex -2.2 1.2 3.7
      vertex 0 1.2 2.2
      vertex 2.2 1.2 3.7
    endloop
  endfacet
  facet normal 0 -1 0
    outer loop
      vertex -2.2 1.2 3.7
      vertex -0.429198 1.2 2.15773
      vertex 0 1.2 2.2
    endloop
  endfacet
  facet normal 0 -1 0
    outer loop
      vertex -2.2 1.2 3.7
      vertex -0.841903 1.2 2.03253
      vertex -0.429198 1.2 2.15773
    endloop
  endfacet
  facet normal 0 -1 0
    outer loop
      vertex -2.2 1.2 3.7
      vertex -1.22225 1.2 1.82923
      vertex -0.841903 1.2 2.03253
    endloop
  endfacet
  facet normal 0 -1 0
    outer loop
      vertex -2.2 1.2 3.7
      vertex -1.55563 1.2 1.55563
      vertex -1.22225 1.2 1.82923
    endloop
  endfacet
  facet normal 0 -1 0
    outer loop
      vertex -2.2 1.2 3.7
      vertex -1.82923 1.2 1.22225
      vertex -1.55563 1.2 1.55563
    endloop
  endfacet
  facet normal 0 -1 0
    outer loop
      vertex -2.2 1.2 3.7
      vertex -2.03253 1.2 0.841903
      vertex -1.82923 1.2 1.22225
    endloop
  endfacet
  facet normal 0 -1 0
    outer loop
      vertex -2.2 1.2 3.7
      vertex -2.15773 1.2 0.429198
      vertex -2.03253 1.2 0.841903
    endloop
  endfacet
  facet normal -0 -1 0
    outer loop
      vertex -2.15773 1.2 0.429198
      vertex -2.2 1.2 3.7
      vertex -2.2 1.2 0
    endloop
  endfacet
  facet normal 0 -1 0
    outer loop
      vertex 0.429198 1.2 2.15773
      vertex 2.2 1.2 3.7
      vertex 0 1.2 2.2
    endloop
  endfacet
  facet normal 0 -1 0
    outer loop
      vertex 0.841903 1.2 2.03253
      vertex 2.2 1.2 3.7
      vertex 0.429198 1.2 2.15773
    endloop
  endfacet
  facet normal 0 -1 0
    outer loop
      vertex 1.22225 1.2 1.82923
      vertex 2.2 1.2 3.7
      vertex 0.841903 1.2 2.03253
    endloop
  endfacet
  facet normal 0 -1 0
    outer loop
      vertex 1.55563 1.2 1.55563
      vertex 2.2 1.2 3.7
      vertex 1.22225 1.2 1.82923
    endloop
  endfacet
  facet normal 0 -1 0
    outer loop
      vertex 1.82923 1.2 1.22225
      vertex 2.2 1.2 3.7
      vertex 1.55563 1.2 1.55563
    endloop
  endfacet
  facet normal 0 -1 0
    outer loop
      vertex 2.03253 1.2 0.841903
      vertex 2.2 1.2 3.7
      vertex 1.82923 1.2 1.22225
    endloop
  endfacet
  facet normal 0 -1 0
    outer loop
      vertex 2.15773 1.2 0.429198
      vertex 2.2 1.2 3.7
      vertex 2.03253 1.2 0.841903
    endloop
  endfacet
  facet normal 0 -1 -0
    outer loop
      vertex 2.2 1.2 3.7
      vertex 2.15773 1.2 0.429198
      vertex 2.2 1.2 0
    endloop
  endfacet
  facet normal -0.995185 0 -0.0980177
    outer loop
      vertex 2.2 1.2 0
      vertex 2.15773 1.205 0.429198
      vertex 2.2 1.205 0
    endloop
  endfacet
  facet normal -0.995185 -0 -0.0980177
    outer loop
      vertex 2.15773 1.205 0.429198
      vertex 2.2 1.2 0
      vertex 2.15773 1.2 0.429198
    endloop
  endfacet
  facet normal -0.995185 0 -0.0980177
    outer loop
      vertex 2.2 -1.205 0
      vertex 2.15773 -1.2 0.429198
      vertex 2.2 -1.2 0
    endloop
  endfacet
  facet normal -0.995185 -0 -0.0980177
    outer loop
      vertex 2.15773 -1.2 0.429198
      vertex 2.2 -1.205 0
      vertex 2.15773 -1.205 0.429198
    endloop
  endfacet
  facet normal -0.995185 0 0.0980177
    outer loop
      vertex 2.15773 1.205 -0.429198
      vertex 2.2 1.2 0
      vertex 2.2 1.205 0
    endloop
  endfacet
  facet normal -0.995185 0 0.0980177
    outer loop
      vertex 2.15773 1.205 -0.429198
      vertex 2.2 -1.2 0
      vertex 2.2 1.2 0
    endloop
  endfacet
  facet normal -0.995185 0 0.0980177
    outer loop
      vertex 2.15773 -1.205 -0.429198
      vertex 2.2 -1.2 0
      vertex 2.15773 1.205 -0.429198
    endloop
  endfacet
  facet normal -0.995185 0 0.0980177
    outer loop
      vertex 2.2 -1.2 0
      vertex 2.15773 -1.205 -0.429198
      vertex 2.2 -1.205 0
    endloop
  endfacet
  facet normal 0.290285 0 0.95694
    outer loop
      vertex -0.841903 1.205 -2.03253
      vertex -0.429198 -1.205 -2.15773
      vertex -0.429198 1.205 -2.15773
    endloop
  endfacet
  facet normal 0.290285 0 0.95694
    outer loop
      vertex -0.429198 -1.205 -2.15773
      vertex -0.841903 1.205 -2.03253
      vertex -0.841903 -1.205 -2.03253
    endloop
  endfacet
  facet normal -0.634392 0 -0.773011
    outer loop
      vertex 1.22225 -1.205 1.82923
      vertex 1.55563 -1.2 1.55563
      vertex 1.55563 -1.205 1.55563
    endloop
  endfacet
  facet normal -0.634392 0 -0.773011
    outer loop
      vertex 1.55563 -1.2 1.55563
      vertex 1.22225 -1.205 1.82923
      vertex 1.22225 -1.2 1.82923
    endloop
  endfacet
  facet normal -0.634392 0 -0.773011
    outer loop
      vertex 1.22225 1.2 1.82923
      vertex 1.55563 1.205 1.55563
      vertex 1.55563 1.2 1.55563
    endloop
  endfacet
  facet normal -0.634392 0 -0.773011
    outer loop
      vertex 1.55563 1.205 1.55563
      vertex 1.22225 1.2 1.82923
      vertex 1.22225 1.205 1.82923
    endloop
  endfacet
  facet normal 0.290285 0 -0.95694
    outer loop
      vertex -0.841903 -1.205 2.03253
      vertex -0.429198 -1.2 2.15773
      vertex -0.429198 -1.205 2.15773
    endloop
  endfacet
  facet normal 0.290285 0 -0.95694
    outer loop
      vertex -0.429198 -1.2 2.15773
      vertex -0.841903 -1.205 2.03253
      vertex -0.841903 -1.2 2.03253
    endloop
  endfacet
  facet normal 0.290285 0 -0.95694
    outer loop
      vertex -0.841903 1.2 2.03253
      vertex -0.429198 1.205 2.15773
      vertex -0.429198 1.2 2.15773
    endloop
  endfacet
  facet normal 0.290285 0 -0.95694
    outer loop
      vertex -0.429198 1.205 2.15773
      vertex -0.841903 1.2 2.03253
      vertex -0.841903 1.205 2.03253
    endloop
  endfacet
  facet normal 0.881921 0 -0.471398
    outer loop
      vertex -1.82923 1.2 1.22225
      vertex -2.03253 1.205 0.841903
      vertex -1.82923 1.205 1.22225
    endloop
  endfacet
  facet normal 0.881921 0 -0.471398
    outer loop
      vertex -2.03253 1.205 0.841903
      vertex -1.82923 1.2 1.22225
      vertex -2.03253 1.2 0.841903
    endloop
  endfacet
  facet normal 0.881921 0 -0.471398
    outer loop
      vertex -1.82923 -1.205 1.22225
      vertex -2.03253 -1.2 0.841903
      vertex -1.82923 -1.2 1.22225
    endloop
  endfacet
  facet normal 0.881921 0 -0.471398
    outer loop
      vertex -2.03253 -1.2 0.841903
      vertex -1.82923 -1.205 1.22225
      vertex -2.03253 -1.205 0.841903
    endloop
  endfacet
  facet normal -0.95694 0 -0.290285
    outer loop
      vertex 2.15773 1.2 0.429198
      vertex 2.03253 1.205 0.841903
      vertex 2.15773 1.205 0.429198
    endloop
  endfacet
  facet normal -0.95694 -0 -0.290285
    outer loop
      vertex 2.03253 1.205 0.841903
      vertex 2.15773 1.2 0.429198
      vertex 2.03253 1.2 0.841903
    endloop
  endfacet
  facet normal -0.95694 0 -0.290285
    outer loop
      vertex 2.15773 -1.205 0.429198
      vertex 2.03253 -1.2 0.841903
      vertex 2.15773 -1.2 0.429198
    endloop
  endfacet
  facet normal -0.95694 -0 -0.290285
    outer loop
      vertex 2.03253 -1.2 0.841903
      vertex 2.15773 -1.205 0.429198
      vertex 2.03253 -1.205 0.841903
    endloop
  endfacet
  facet normal -0.773011 0 -0.634392
    outer loop
      vertex 1.82923 -1.205 1.22225
      vertex 1.55563 -1.2 1.55563
      vertex 1.82923 -1.2 1.22225
    endloop
  endfacet
  facet normal -0.773011 -0 -0.634392
    outer loop
      vertex 1.55563 -1.2 1.55563
      vertex 1.82923 -1.205 1.22225
      vertex 1.55563 -1.205 1.55563
    endloop
  endfacet
  facet normal -0.773011 0 -0.634392
    outer loop
      vertex 1.82923 1.2 1.22225
      vertex 1.55563 1.205 1.55563
      vertex 1.82923 1.205 1.22225
    endloop
  endfacet
  facet normal -0.773011 -0 -0.634392
    outer loop
      vertex 1.55563 1.205 1.55563
      vertex 1.82923 1.2 1.22225
      vertex 1.55563 1.2 1.55563
    endloop
  endfacet
  facet normal -0.471398 0 -0.881921
    outer loop
      vertex 0.841903 1.2 2.03253
      vertex 1.22225 1.205 1.82923
      vertex 1.22225 1.2 1.82923
    endloop
  endfacet
  facet normal -0.471398 0 -0.881921
    outer loop
      vertex 1.22225 1.205 1.82923
      vertex 0.841903 1.2 2.03253
      vertex 0.841903 1.205 2.03253
    endloop
  endfacet
  facet normal -0.471398 0 -0.881921
    outer loop
      vertex 0.841903 -1.205 2.03253
      vertex 1.22225 -1.2 1.82923
      vertex 1.22225 -1.205 1.82923
    endloop
  endfacet
  facet normal -0.471398 0 -0.881921
    outer loop
      vertex 1.22225 -1.2 1.82923
      vertex 0.841903 -1.205 2.03253
      vertex 0.841903 -1.2 2.03253
    endloop
  endfacet
  facet normal -0.0980177 0 -0.995185
    outer loop
      vertex 0 1.2 2.2
      vertex 0.429198 1.205 2.15773
      vertex 0.429198 1.2 2.15773
    endloop
  endfacet
  facet normal -0.0980177 0 -0.995185
    outer loop
      vertex 0.429198 1.205 2.15773
      vertex 0 1.2 2.2
      vertex 0 1.205 2.2
    endloop
  endfacet
  facet normal -0.0980177 0 -0.995185
    outer loop
      vertex 0 -1.205 2.2
      vertex 0.429198 -1.2 2.15773
      vertex 0.429198 -1.205 2.15773
    endloop
  endfacet
  facet normal -0.0980177 0 -0.995185
    outer loop
      vertex 0.429198 -1.2 2.15773
      vertex 0 -1.205 2.2
      vertex 0 -1.2 2.2
    endloop
  endfacet
  facet normal 0.995185 0 -0.0980177
    outer loop
      vertex -2.15773 1.2 0.429198
      vertex -2.2 1.205 0
      vertex -2.15773 1.205 0.429198
    endloop
  endfacet
  facet normal 0.995185 0 -0.0980177
    outer loop
      vertex -2.2 1.205 0
      vertex -2.15773 1.2 0.429198
      vertex -2.2 1.2 0
    endloop
  endfacet
  facet normal 0.995185 0 -0.0980177
    outer loop
      vertex -2.15773 -1.205 0.429198
      vertex -2.2 -1.2 0
      vertex -2.15773 -1.2 0.429198
    endloop
  endfacet
  facet normal 0.995185 0 -0.0980177
    outer loop
      vertex -2.2 -1.2 0
      vertex -2.15773 -1.205 0.429198
      vertex -2.2 -1.205 0
    endloop
  endfacet
  facet normal 0.773011 0 -0.634392
    outer loop
      vertex -1.55563 -1.205 1.55563
      vertex -1.82923 -1.2 1.22225
      vertex -1.55563 -1.2 1.55563
    endloop
  endfacet
  facet normal 0.773011 0 -0.634392
    outer loop
      vertex -1.82923 -1.2 1.22225
      vertex -1.55563 -1.205 1.55563
      vertex -1.82923 -1.205 1.22225
    endloop
  endfacet
  facet normal 0.773011 0 -0.634392
    outer loop
      vertex -1.55563 1.2 1.55563
      vertex -1.82923 1.205 1.22225
      vertex -1.55563 1.205 1.55563
    endloop
  endfacet
  facet normal 0.773011 0 -0.634392
    outer loop
      vertex -1.82923 1.205 1.22225
      vertex -1.55563 1.2 1.55563
      vertex -1.82923 1.2 1.22225
    endloop
  endfacet
  facet normal -0.773011 0 0.634392
    outer loop
      vertex 1.55563 -1.205 -1.55563
      vertex 1.82923 1.205 -1.22225
      vertex 1.55563 1.205 -1.55563
    endloop
  endfacet
  facet normal -0.773011 0 0.634392
    outer loop
      vertex 1.82923 1.205 -1.22225
      vertex 1.55563 -1.205 -1.55563
      vertex 1.82923 -1.205 -1.22225
    endloop
  endfacet
  facet normal -0.290285 0 0.95694
    outer loop
      vertex 0.429198 1.205 -2.15773
      vertex 0.841903 -1.205 -2.03253
      vertex 0.841903 1.205 -2.03253
    endloop
  endfacet
  facet normal -0.290285 0 0.95694
    outer loop
      vertex 0.841903 -1.205 -2.03253
      vertex 0.429198 1.205 -2.15773
      vertex 0.429198 -1.205 -2.15773
    endloop
  endfacet
  facet normal 0.0980177 0 0.995185
    outer loop
      vertex -0.429198 1.205 -2.15773
      vertex 0 -1.205 -2.2
      vertex 0 1.205 -2.2
    endloop
  endfacet
  facet normal 0.0980177 0 0.995185
    outer loop
      vertex 0 -1.205 -2.2
      vertex -0.429198 1.205 -2.15773
      vertex -0.429198 -1.205 -2.15773
    endloop
  endfacet
  facet normal 0.634392 0 0.773011
    outer loop
      vertex -1.55563 1.205 -1.55563
      vertex -1.22225 -1.205 -1.82923
      vertex -1.22225 1.205 -1.82923
    endloop
  endfacet
  facet normal 0.634392 0 0.773011
    outer loop
      vertex -1.22225 -1.205 -1.82923
      vertex -1.55563 1.205 -1.55563
      vertex -1.55563 -1.205 -1.55563
    endloop
  endfacet
  facet normal 0 -1 0
    outer loop
      vertex -0.429198 1.205 2.15773
      vertex 0.429198 1.205 2.15773
      vertex 0 1.205 2.2
    endloop
  endfacet
  facet normal 0 -1 0
    outer loop
      vertex -0.841903 1.205 2.03253
      vertex 0.429198 1.205 2.15773
      vertex -0.429198 1.205 2.15773
    endloop
  endfacet
  facet normal 0 -1 0
    outer loop
      vertex -0.841903 1.205 2.03253
      vertex 0.841903 1.205 2.03253
      vertex 0.429198 1.205 2.15773
    endloop
  endfacet
  facet normal 0 -1 0
    outer loop
      vertex -1.22225 1.205 1.82923
      vertex 0.841903 1.205 2.03253
      vertex -0.841903 1.205 2.03253
    endloop
  endfacet
  facet normal 0 -1 0
    outer loop
      vertex -1.22225 1.205 1.82923
      vertex 1.22225 1.205 1.82923
      vertex 0.841903 1.205 2.03253
    endloop
  endfacet
  facet normal 0 -1 0
    outer loop
      vertex -1.55563 1.205 1.55563
      vertex 1.22225 1.205 1.82923
      vertex -1.22225 1.205 1.82923
    endloop
  endfacet
  facet normal 0 -1 0
    outer loop
      vertex -1.55563 1.205 1.55563
      vertex 1.55563 1.205 1.55563
      vertex 1.22225 1.205 1.82923
    endloop
  endfacet
  facet normal 0 -1 0
    outer loop
      vertex -1.82923 1.205 1.22225
      vertex 1.55563 1.205 1.55563
      vertex -1.55563 1.205 1.55563
    endloop
  endfacet
  facet normal 0 -1 0
    outer loop
      vertex -1.82923 1.205 1.22225
      vertex 1.82923 1.205 1.22225
      vertex 1.55563 1.205 1.55563
    endloop
  endfacet
  facet normal 0 -1 0
    outer loop
      vertex -2.03253 1.205 0.841903
      vertex 1.82923 1.205 1.22225
      vertex -1.82923 1.205 1.22225
    endloop
  endfacet
  facet normal 0 -1 0
    outer loop
      vertex -2.03253 1.205 0.841903
      vertex 2.03253 1.205 0.841903
      vertex 1.82923 1.205 1.22225
    endloop
  endfacet
  facet normal 0 -1 0
    outer loop
      vertex -2.15773 1.205 0.429198
      vertex 2.03253 1.205 0.841903
      vertex -2.03253 1.205 0.841903
    endloop
  endfacet
  facet normal 0 -1 0
    outer loop
      vertex -2.15773 1.205 0.429198
      vertex 2.15773 1.205 0.429198
      vertex 2.03253 1.205 0.841903
    endloop
  endfacet
  facet normal 0 -1 0
    outer loop
      vertex -2.2 1.205 0
      vertex 2.15773 1.205 0.429198
      vertex -2.15773 1.205 0.429198
    endloop
  endfacet
  facet normal 0 -1 0
    outer loop
      vertex -2.2 1.205 0
      vertex 2.2 1.205 0
      vertex 2.15773 1.205 0.429198
    endloop
  endfacet
  facet normal 0 -1 0
    outer loop
      vertex -2.15773 1.205 -0.429198
      vertex 2.2 1.205 0
      vertex -2.2 1.205 0
    endloop
  endfacet
  facet normal 0 -1 0
    outer loop
      vertex -2.15773 1.205 -0.429198
      vertex 2.15773 1.205 -0.429198
      vertex 2.2 1.205 0
    endloop
  endfacet
  facet normal 0 -1 0
    outer loop
      vertex -2.03253 1.205 -0.841903
      vertex 2.15773 1.205 -0.429198
      vertex -2.15773 1.205 -0.429198
    endloop
  endfacet
  facet normal 0 -1 0
    outer loop
      vertex -2.03253 1.205 -0.841903
      vertex 2.03253 1.205 -0.841903
      vertex 2.15773 1.205 -0.429198
    endloop
  endfacet
  facet normal 0 -1 0
    outer loop
      vertex -1.82923 1.205 -1.22225
      vertex 2.03253 1.205 -0.841903
      vertex -2.03253 1.205 -0.841903
    endloop
  endfacet
  facet normal 0 -1 0
    outer loop
      vertex -1.82923 1.205 -1.22225
      vertex 1.82923 1.205 -1.22225
      vertex 2.03253 1.205 -0.841903
    endloop
  endfacet
  facet normal 0 -1 0
    outer loop
      vertex -1.55563 1.205 -1.55563
      vertex 1.82923 1.205 -1.22225
      vertex -1.82923 1.205 -1.22225
    endloop
  endfacet
  facet normal 0 -1 0
    outer loop
      vertex -1.55563 1.205 -1.55563
      vertex 1.55563 1.205 -1.55563
      vertex 1.82923 1.205 -1.22225
    endloop
  endfacet
  facet normal 0 -1 0
    outer loop
      vertex -1.22225 1.205 -1.82923
      vertex 1.55563 1.205 -1.55563
      vertex -1.55563 1.205 -1.55563
    endloop
  endfacet
  facet normal 0 -1 0
    outer loop
      vertex -1.22225 1.205 -1.82923
      vertex 1.22225 1.205 -1.82923
      vertex 1.55563 1.205 -1.55563
    endloop
  endfacet
  facet normal 0 -1 0
    outer loop
      vertex -0.841903 1.205 -2.03253
      vertex 1.22225 1.205 -1.82923
      vertex -1.22225 1.205 -1.82923
    endloop
  endfacet
  facet normal 0 -1 0
    outer loop
      vertex -0.841903 1.205 -2.03253
      vertex 0.841903 1.205 -2.03253
      vertex 1.22225 1.205 -1.82923
    endloop
  endfacet
  facet normal 0 -1 0
    outer loop
      vertex -0.429198 1.205 -2.15773
      vertex 0.841903 1.205 -2.03253
      vertex -0.841903 1.205 -2.03253
    endloop
  endfacet
  facet normal 0 -1 0
    outer loop
      vertex -0.429198 1.205 -2.15773
      vertex 0.429198 1.205 -2.15773
      vertex 0.841903 1.205 -2.03253
    endloop
  endfacet
  facet normal -0 -1 0
    outer loop
      vertex 0.429198 1.205 -2.15773
      vertex -0.429198 1.205 -2.15773
      vertex 0 1.205 -2.2
    endloop
  endfacet
  facet normal 0.881921 -0 0.471398
    outer loop
      vertex -2.03253 -1.205 -0.841903
      vertex -1.82923 1.205 -1.22225
      vertex -2.03253 1.205 -0.841903
    endloop
  endfacet
  facet normal 0.881921 0 0.471398
    outer loop
      vertex -1.82923 1.205 -1.22225
      vertex -2.03253 -1.205 -0.841903
      vertex -1.82923 -1.205 -1.22225
    endloop
  endfacet
  facet normal -0.881921 0 -0.471398
    outer loop
      vertex 2.03253 -1.205 0.841903
      vertex 1.82923 -1.2 1.22225
      vertex 2.03253 -1.2 0.841903
    endloop
  endfacet
  facet normal -0.881921 -0 -0.471398
    outer loop
      vertex 1.82923 -1.2 1.22225
      vertex 2.03253 -1.205 0.841903
      vertex 1.82923 -1.205 1.22225
    endloop
  endfacet
  facet normal -0.881921 0 -0.471398
    outer loop
      vertex 2.03253 1.2 0.841903
      vertex 1.82923 1.205 1.22225
      vertex 2.03253 1.205 0.841903
    endloop
  endfacet
  facet normal -0.881921 -0 -0.471398
    outer loop
      vertex 1.82923 1.205 1.22225
      vertex 2.03253 1.2 0.841903
      vertex 1.82923 1.2 1.22225
    endloop
  endfacet
  facet normal -0.290285 0 -0.95694
    outer loop
      vertex 0.429198 1.2 2.15773
      vertex 0.841903 1.205 2.03253
      vertex 0.841903 1.2 2.03253
    endloop
  endfacet
  facet normal -0.290285 0 -0.95694
    outer loop
      vertex 0.841903 1.205 2.03253
      vertex 0.429198 1.2 2.15773
      vertex 0.429198 1.205 2.15773
    endloop
  endfacet
  facet normal -0.290285 0 -0.95694
    outer loop
      vertex 0.429198 -1.205 2.15773
      vertex 0.841903 -1.2 2.03253
      vertex 0.841903 -1.205 2.03253
    endloop
  endfacet
  facet normal -0.290285 0 -0.95694
    outer loop
      vertex 0.841903 -1.2 2.03253
      vertex 0.429198 -1.205 2.15773
      vertex 0.429198 -1.2 2.15773
    endloop
  endfacet
  facet normal 0 1 0
    outer loop
      vertex 0.429198 -1.205 2.15773
      vertex -0.429198 -1.205 2.15773
      vertex 0 -1.205 2.2
    endloop
  endfacet
  facet normal 0 1 0
    outer loop
      vertex 0.841903 -1.205 2.03253
      vertex -0.429198 -1.205 2.15773
      vertex 0.429198 -1.205 2.15773
    endloop
  endfacet
  facet normal 0 1 0
    outer loop
      vertex 0.841903 -1.205 2.03253
      vertex -0.841903 -1.205 2.03253
      vertex -0.429198 -1.205 2.15773
    endloop
  endfacet
  facet normal 0 1 0
    outer loop
      vertex 1.22225 -1.205 1.82923
      vertex -0.841903 -1.205 2.03253
      vertex 0.841903 -1.205 2.03253
    endloop
  endfacet
  facet normal 0 1 0
    outer loop
      vertex 1.22225 -1.205 1.82923
      vertex -1.22225 -1.205 1.82923
      vertex -0.841903 -1.205 2.03253
    endloop
  endfacet
  facet normal 0 1 0
    outer loop
      vertex 1.55563 -1.205 1.55563
      vertex -1.22225 -1.205 1.82923
      vertex 1.22225 -1.205 1.82923
    endloop
  endfacet
  facet normal 0 1 0
    outer loop
      vertex 1.55563 -1.205 1.55563
      vertex -1.55563 -1.205 1.55563
      vertex -1.22225 -1.205 1.82923
    endloop
  endfacet
  facet normal 0 1 0
    outer loop
      vertex 1.82923 -1.205 1.22225
      vertex -1.55563 -1.205 1.55563
      vertex 1.55563 -1.205 1.55563
    endloop
  endfacet
  facet normal 0 1 0
    outer loop
      vertex 1.82923 -1.205 1.22225
      vertex -1.82923 -1.205 1.22225
      vertex -1.55563 -1.205 1.55563
    endloop
  endfacet
  facet normal 0 1 0
    outer loop
      vertex 2.03253 -1.205 0.841903
      vertex -1.82923 -1.205 1.22225
      vertex 1.82923 -1.205 1.22225
    endloop
  endfacet
  facet normal 0 1 0
    outer loop
      vertex 2.03253 -1.205 0.841903
      vertex -2.03253 -1.205 0.841903
      vertex -1.82923 -1.205 1.22225
    endloop
  endfacet
  facet normal 0 1 0
    outer loop
      vertex 2.15773 -1.205 0.429198
      vertex -2.03253 -1.205 0.841903
      vertex 2.03253 -1.205 0.841903
    endloop
  endfacet
  facet normal 0 1 0
    outer loop
      vertex 2.15773 -1.205 0.429198
      vertex -2.15773 -1.205 0.429198
      vertex -2.03253 -1.205 0.841903
    endloop
  endfacet
  facet normal 0 1 0
    outer loop
      vertex 2.2 -1.205 0
      vertex -2.15773 -1.205 0.429198
      vertex 2.15773 -1.205 0.429198
    endloop
  endfacet
  facet normal 0 1 0
    outer loop
      vertex 2.2 -1.205 0
      vertex -2.2 -1.205 0
      vertex -2.15773 -1.205 0.429198
    endloop
  endfacet
  facet normal 0 1 -0
    outer loop
      vertex 2.15773 -1.205 -0.429198
      vertex -2.2 -1.205 0
      vertex 2.2 -1.205 0
    endloop
  endfacet
  facet normal 0 1 0
    outer loop
      vertex 2.15773 -1.205 -0.429198
      vertex -2.15773 -1.205 -0.429198
      vertex -2.2 -1.205 0
    endloop
  endfacet
  facet normal 0 1 -0
    outer loop
      vertex 2.03253 -1.205 -0.841903
      vertex -2.15773 -1.205 -0.429198
      vertex 2.15773 -1.205 -0.429198
    endloop
  endfacet
  facet normal 0 1 0
    outer loop
      vertex 2.03253 -1.205 -0.841903
      vertex -2.03253 -1.205 -0.841903
      vertex -2.15773 -1.205 -0.429198
    endloop
  endfacet
  facet normal 0 1 -0
    outer loop
      vertex 1.82923 -1.205 -1.22225
      vertex -2.03253 -1.205 -0.841903
      vertex 2.03253 -1.205 -0.841903
    endloop
  endfacet
  facet normal 0 1 0
    outer loop
      vertex 1.82923 -1.205 -1.22225
      vertex -1.82923 -1.205 -1.22225
      vertex -2.03253 -1.205 -0.841903
    endloop
  endfacet
  facet normal 0 1 -0
    outer loop
      vertex 1.55563 -1.205 -1.55563
      vertex -1.82923 -1.205 -1.22225
      vertex 1.82923 -1.205 -1.22225
    endloop
  endfacet
  facet normal 0 1 0
    outer loop
      vertex 1.55563 -1.205 -1.55563
      vertex -1.55563 -1.205 -1.55563
      vertex -1.82923 -1.205 -1.22225
    endloop
  endfacet
  facet normal 0 1 -0
    outer loop
      vertex 1.22225 -1.205 -1.82923
      vertex -1.55563 -1.205 -1.55563
      vertex 1.55563 -1.205 -1.55563
    endloop
  endfacet
  facet normal 0 1 0
    outer loop
      vertex 1.22225 -1.205 -1.82923
      vertex -1.22225 -1.205 -1.82923
      vertex -1.55563 -1.205 -1.55563
    endloop
  endfacet
  facet normal 0 1 -0
    outer loop
      vertex 0.841903 -1.205 -2.03253
      vertex -1.22225 -1.205 -1.82923
      vertex 1.22225 -1.205 -1.82923
    endloop
  endfacet
  facet normal 0 1 0
    outer loop
      vertex 0.841903 -1.205 -2.03253
      vertex -0.841903 -1.205 -2.03253
      vertex -1.22225 -1.205 -1.82923
    endloop
  endfacet
  facet normal 0 1 -0
    outer loop
      vertex 0.429198 -1.205 -2.15773
      vertex -0.841903 -1.205 -2.03253
      vertex 0.841903 -1.205 -2.03253
    endloop
  endfacet
  facet normal 0 1 0
    outer loop
      vertex 0.429198 -1.205 -2.15773
      vertex -0.429198 -1.205 -2.15773
      vertex -0.841903 -1.205 -2.03253
    endloop
  endfacet
  facet normal -0 1 0
    outer loop
      vertex -0.429198 -1.205 -2.15773
      vertex 0.429198 -1.205 -2.15773
      vertex 0 -1.205 -2.2
    endloop
  endfacet
  facet normal 0.95694 0 -0.290285
    outer loop
      vertex -2.03253 1.2 0.841903
      vertex -2.15773 1.205 0.429198
      vertex -2.03253 1.205 0.841903
    endloop
  endfacet
  facet normal 0.95694 0 -0.290285
    outer loop
      vertex -2.15773 1.205 0.429198
      vertex -2.03253 1.2 0.841903
      vertex -2.15773 1.2 0.429198
    endloop
  endfacet
  facet normal 0.95694 0 -0.290285
    outer loop
      vertex -2.03253 -1.205 0.841903
      vertex -2.15773 -1.2 0.429198
      vertex -2.03253 -1.2 0.841903
    endloop
  endfacet
  facet normal 0.95694 0 -0.290285
    outer loop
      vertex -2.15773 -1.2 0.429198
      vertex -2.03253 -1.205 0.841903
      vertex -2.15773 -1.205 0.429198
    endloop
  endfacet
  facet normal 0.0980177 0 -0.995185
    outer loop
      vertex -0.429198 1.2 2.15773
      vertex 0 1.205 2.2
      vertex 0 1.2 2.2
    endloop
  endfacet
  facet normal 0.0980177 0 -0.995185
    outer loop
      vertex 0 1.205 2.2
      vertex -0.429198 1.2 2.15773
      vertex -0.429198 1.205 2.15773
    endloop
  endfacet
  facet normal 0.0980177 0 -0.995185
    outer loop
      vertex -0.429198 -1.205 2.15773
      vertex 0 -1.2 2.2
      vertex 0 -1.205 2.2
    endloop
  endfacet
  facet normal 0.0980177 0 -0.995185
    outer loop
      vertex 0 -1.2 2.2
      vertex -0.429198 -1.205 2.15773
      vertex -0.429198 -1.2 2.15773
    endloop
  endfacet
  facet normal 0.471398 0 -0.881921
    outer loop
      vertex -1.22225 -1.205 1.82923
      vertex -0.841903 -1.2 2.03253
      vertex -0.841903 -1.205 2.03253
    endloop
  endfacet
  facet normal 0.471398 0 -0.881921
    outer loop
      vertex -0.841903 -1.2 2.03253
      vertex -1.22225 -1.205 1.82923
      vertex -1.22225 -1.2 1.82923
    endloop
  endfacet
  facet normal 0.471398 0 -0.881921
    outer loop
      vertex -1.22225 1.2 1.82923
      vertex -0.841903 1.205 2.03253
      vertex -0.841903 1.2 2.03253
    endloop
  endfacet
  facet normal 0.471398 0 -0.881921
    outer loop
      vertex -0.841903 1.205 2.03253
      vertex -1.22225 1.2 1.82923
      vertex -1.22225 1.205 1.82923
    endloop
  endfacet
  facet normal 0.634392 0 -0.773011
    outer loop
      vertex -1.55563 -1.205 1.55563
      vertex -1.22225 -1.2 1.82923
      vertex -1.22225 -1.205 1.82923
    endloop
  endfacet
  facet normal 0.634392 0 -0.773011
    outer loop
      vertex -1.22225 -1.2 1.82923
      vertex -1.55563 -1.205 1.55563
      vertex -1.55563 -1.2 1.55563
    endloop
  endfacet
  facet normal 0.634392 0 -0.773011
    outer loop
      vertex -1.55563 1.2 1.55563
      vertex -1.22225 1.205 1.82923
      vertex -1.22225 1.2 1.82923
    endloop
  endfacet
  facet normal 0.634392 0 -0.773011
    outer loop
      vertex -1.22225 1.205 1.82923
      vertex -1.55563 1.2 1.55563
      vertex -1.55563 1.205 1.55563
    endloop
  endfacet
  facet normal -0.95694 0 0.290285
    outer loop
      vertex 2.03253 -1.205 -0.841903
      vertex 2.15773 1.205 -0.429198
      vertex 2.03253 1.205 -0.841903
    endloop
  endfacet
  facet normal -0.95694 0 0.290285
    outer loop
      vertex 2.15773 1.205 -0.429198
      vertex 2.03253 -1.205 -0.841903
      vertex 2.15773 -1.205 -0.429198
    endloop
  endfacet
  facet normal -0.0980177 0 0.995185
    outer loop
      vertex 0 1.205 -2.2
      vertex 0.429198 -1.205 -2.15773
      vertex 0.429198 1.205 -2.15773
    endloop
  endfacet
  facet normal -0.0980177 0 0.995185
    outer loop
      vertex 0.429198 -1.205 -2.15773
      vertex 0 1.205 -2.2
      vertex 0 -1.205 -2.2
    endloop
  endfacet
  facet normal -0.471398 0 0.881921
    outer loop
      vertex 0.841903 1.205 -2.03253
      vertex 1.22225 -1.205 -1.82923
      vertex 1.22225 1.205 -1.82923
    endloop
  endfacet
  facet normal -0.471398 0 0.881921
    outer loop
      vertex 1.22225 -1.205 -1.82923
      vertex 0.841903 1.205 -2.03253
      vertex 0.841903 -1.205 -2.03253
    endloop
  endfacet
  facet normal -0.634392 0 0.773011
    outer loop
      vertex 1.22225 1.205 -1.82923
      vertex 1.55563 -1.205 -1.55563
      vertex 1.55563 1.205 -1.55563
    endloop
  endfacet
  facet normal -0.634392 0 0.773011
    outer loop
      vertex 1.55563 -1.205 -1.55563
      vertex 1.22225 1.205 -1.82923
      vertex 1.22225 -1.205 -1.82923
    endloop
  endfacet
  facet normal 0.471398 0 0.881921
    outer loop
      vertex -1.22225 1.205 -1.82923
      vertex -0.841903 -1.205 -2.03253
      vertex -0.841903 1.205 -2.03253
    endloop
  endfacet
  facet normal 0.471398 0 0.881921
    outer loop
      vertex -0.841903 -1.205 -2.03253
      vertex -1.22225 1.205 -1.82923
      vertex -1.22225 -1.205 -1.82923
    endloop
  endfacet
  facet normal 0.995185 -0 0.0980177
    outer loop
      vertex -2.2 1.2 0
      vertex -2.15773 1.205 -0.429198
      vertex -2.2 1.205 0
    endloop
  endfacet
  facet normal 0.995185 -0 0.0980177
    outer loop
      vertex -2.2 -1.2 0
      vertex -2.15773 1.205 -0.429198
      vertex -2.2 1.2 0
    endloop
  endfacet
  facet normal 0.995185 0 0.0980177
    outer loop
      vertex -2.15773 -1.205 -0.429198
      vertex -2.2 -1.2 0
      vertex -2.2 -1.205 0
    endloop
  endfacet
  facet normal 0.995185 0 0.0980177
    outer loop
      vertex -2.2 -1.2 0
      vertex -2.15773 -1.205 -0.429198
      vertex -2.15773 1.205 -0.429198
    endloop
  endfacet
  facet normal 0.95694 -0 0.290285
    outer loop
      vertex -2.15773 -1.205 -0.429198
      vertex -2.03253 1.205 -0.841903
      vertex -2.15773 1.205 -0.429198
    endloop
  endfacet
  facet normal 0.95694 0 0.290285
    outer loop
      vertex -2.03253 1.205 -0.841903
      vertex -2.15773 -1.205 -0.429198
      vertex -2.03253 -1.205 -0.841903
    endloop
  endfacet
  facet normal 0.773011 -0 0.634392
    outer loop
      vertex -1.82923 -1.205 -1.22225
      vertex -1.55563 1.205 -1.55563
      vertex -1.82923 1.205 -1.22225
    endloop
  endfacet
  facet normal 0.773011 0 0.634392
    outer loop
      vertex -1.55563 1.205 -1.55563
      vertex -1.82923 -1.205 -1.22225
      vertex -1.55563 -1.205 -1.55563
    endloop
  endfacet
  facet normal -0.881921 0 0.471398
    outer loop
      vertex 1.82923 -1.205 -1.22225
      vertex 2.03253 1.205 -0.841903
      vertex 1.82923 1.205 -1.22225
    endloop
  endfacet
  facet normal -0.881921 0 0.471398
    outer loop
      vertex 2.03253 1.205 -0.841903
      vertex 1.82923 -1.205 -1.22225
      vertex 2.03253 -1.205 -0.841903
    endloop
  endfacet
  facet normal 0.995185 0.0980181 0
    outer loop
      vertex 3.5 0 3.7
      vertex 3.43275 0.682816 -2.7
      vertex 3.43275 0.682816 3.7
    endloop
  endfacet
  facet normal 0.995185 0.0980181 0
    outer loop
      vertex 3.43275 0.682816 -2.7
      vertex 3.5 0 3.7
      vertex 3.5 0 -2.7
    endloop
  endfacet
  facet normal -0.995185 0.0980181 0
    outer loop
      vertex -3.5 0 -2.7
      vertex -3.43275 0.682816 3.7
      vertex -3.43275 0.682816 -2.7
    endloop
  endfacet
  facet normal -0.995185 0.0980181 0
    outer loop
      vertex -3.43275 0.682816 3.7
      vertex -3.5 0 -2.7
      vertex -3.5 0 3.7
    endloop
  endfacet
  facet normal 0.0980181 0.995185 -0
    outer loop
      vertex 0.682816 3.43275 -2.7
      vertex 0 3.5 3.7
      vertex 0.682816 3.43275 3.7
    endloop
  endfacet
  facet normal 0.0980181 0.995185 0
    outer loop
      vertex 0 3.5 3.7
      vertex 0.682816 3.43275 -2.7
      vertex 0 3.5 -2.7
    endloop
  endfacet
  facet normal -0.0980181 -0.995185 0
    outer loop
      vertex -0.682816 -3.43275 -2.7
      vertex 0 -3.5 3.7
      vertex -0.682816 -3.43275 3.7
    endloop
  endfacet
  facet normal -0.0980181 -0.995185 -0
    outer loop
      vertex 0 -3.5 3.7
      vertex -0.682816 -3.43275 -2.7
      vertex 0 -3.5 -2.7
    endloop
  endfacet
  facet normal -0.773011 -0.634393 0
    outer loop
      vertex -2.47487 -2.47487 -2.7
      vertex -2.91014 -1.9445 3.7
      vertex -2.91014 -1.9445 -2.7
    endloop
  endfacet
  facet normal -0.773011 -0.634393 0
    outer loop
      vertex -2.91014 -1.9445 3.7
      vertex -2.47487 -2.47487 -2.7
      vertex -2.47487 -2.47487 3.7
    endloop
  endfacet
  facet normal 0.773011 0.634393 0
    outer loop
      vertex 2.91014 1.9445 3.7
      vertex 2.47487 2.47487 -2.7
      vertex 2.47487 2.47487 3.7
    endloop
  endfacet
  facet normal 0.773011 0.634393 0
    outer loop
      vertex 2.47487 2.47487 -2.7
      vertex 2.91014 1.9445 3.7
      vertex 2.91014 1.9445 -2.7
    endloop
  endfacet
  facet normal 0.95694 0.290285 0
    outer loop
      vertex 3.43275 0.682816 3.7
      vertex 3.23358 1.33939 -2.7
      vertex 3.23358 1.33939 3.7
    endloop
  endfacet
  facet normal 0.95694 0.290285 0
    outer loop
      vertex 3.23358 1.33939 -2.7
      vertex 3.43275 0.682816 3.7
      vertex 3.43275 0.682816 -2.7
    endloop
  endfacet
  facet normal -0.634393 0.773011 0
    outer loop
      vertex -1.9445 2.91014 -2.7
      vertex -2.47487 2.47487 3.7
      vertex -1.9445 2.91014 3.7
    endloop
  endfacet
  facet normal -0.634393 0.773011 0
    outer loop
      vertex -2.47487 2.47487 3.7
      vertex -1.9445 2.91014 -2.7
      vertex -2.47487 2.47487 -2.7
    endloop
  endfacet
  facet normal -0.290285 0.95694 0
    outer loop
      vertex -0.682816 3.43275 -2.7
      vertex -1.33939 3.23358 3.7
      vertex -0.682816 3.43275 3.7
    endloop
  endfacet
  facet normal -0.290285 0.95694 0
    outer loop
      vertex -1.33939 3.23358 3.7
      vertex -0.682816 3.43275 -2.7
      vertex -1.33939 3.23358 -2.7
    endloop
  endfacet
  facet normal 0.773011 -0.634393 0
    outer loop
      vertex 2.47487 -2.47487 3.7
      vertex 2.91014 -1.9445 -2.7
      vertex 2.91014 -1.9445 3.7
    endloop
  endfacet
  facet normal 0.773011 -0.634393 0
    outer loop
      vertex 2.91014 -1.9445 -2.7
      vertex 2.47487 -2.47487 3.7
      vertex 2.47487 -2.47487 -2.7
    endloop
  endfacet
  facet normal 0 0 -1
    outer loop
      vertex 4.41353 -0.877906 -3.7
      vertex 4.41353 0.877906 -3.7
      vertex 4.5 0 -3.7
    endloop
  endfacet
  facet normal 0 0 -1
    outer loop
      vertex 4.15746 -1.72207 -3.7
      vertex 4.41353 0.877906 -3.7
      vertex 4.41353 -0.877906 -3.7
    endloop
  endfacet
  facet normal 0 0 -1
    outer loop
      vertex 4.15746 -1.72207 -3.7
      vertex 4.15746 1.72207 -3.7
      vertex 4.41353 0.877906 -3.7
    endloop
  endfacet
  facet normal 0 0 -1
    outer loop
      vertex 3.74161 -2.50007 -3.7
      vertex 4.15746 1.72207 -3.7
      vertex 4.15746 -1.72207 -3.7
    endloop
  endfacet
  facet normal 0 0 -1
    outer loop
      vertex 3.74161 -2.50007 -3.7
      vertex 3.74161 2.50007 -3.7
      vertex 4.15746 1.72207 -3.7
    endloop
  endfacet
  facet normal 0 0 -1
    outer loop
      vertex 3.18198 -3.18198 -3.7
      vertex 3.74161 2.50007 -3.7
      vertex 3.74161 -2.50007 -3.7
    endloop
  endfacet
  facet normal 0 0 -1
    outer loop
      vertex 3.18198 -3.18198 -3.7
      vertex 3.18198 3.18198 -3.7
      vertex 3.74161 2.50007 -3.7
    endloop
  endfacet
  facet normal 0 0 -1
    outer loop
      vertex 2.50007 -3.74161 -3.7
      vertex 3.18198 3.18198 -3.7
      vertex 3.18198 -3.18198 -3.7
    endloop
  endfacet
  facet normal 0 0 -1
    outer loop
      vertex 2.50007 -3.74161 -3.7
      vertex 2.50007 3.74161 -3.7
      vertex 3.18198 3.18198 -3.7
    endloop
  endfacet
  facet normal 0 0 -1
    outer loop
      vertex 1.72207 -4.15746 -3.7
      vertex 2.50007 3.74161 -3.7
      vertex 2.50007 -3.74161 -3.7
    endloop
  endfacet
  facet normal 0 0 -1
    outer loop
      vertex 1.72207 -4.15746 -3.7
      vertex 1.72207 4.15746 -3.7
      vertex 2.50007 3.74161 -3.7
    endloop
  endfacet
  facet normal 0 0 -1
    outer loop
      vertex 0.877906 -4.41353 -3.7
      vertex 1.72207 4.15746 -3.7
      vertex 1.72207 -4.15746 -3.7
    endloop
  endfacet
  facet normal 0 0 -1
    outer loop
      vertex 0.877906 -4.41353 -3.7
      vertex 0.877906 4.41353 -3.7
      vertex 1.72207 4.15746 -3.7
    endloop
  endfacet
  facet normal 0 0 -1
    outer loop
      vertex 0 -4.5 -3.7
      vertex 0.877906 4.41353 -3.7
      vertex 0.877906 -4.41353 -3.7
    endloop
  endfacet
  facet normal 0 0 -1
    outer loop
      vertex 0 -4.5 -3.7
      vertex 0 4.5 -3.7
      vertex 0.877906 4.41353 -3.7
    endloop
  endfacet
  facet normal 0 0 -1
    outer loop
      vertex -0.877906 -4.41353 -3.7
      vertex 0 4.5 -3.7
      vertex 0 -4.5 -3.7
    endloop
  endfacet
  facet normal 0 0 -1
    outer loop
      vertex -0.877906 -4.41353 -3.7
      vertex -0.877906 4.41353 -3.7
      vertex 0 4.5 -3.7
    endloop
  endfacet
  facet normal 0 0 -1
    outer loop
      vertex -1.72207 -4.15746 -3.7
      vertex -0.877906 4.41353 -3.7
      vertex -0.877906 -4.41353 -3.7
    endloop
  endfacet
  facet normal 0 0 -1
    outer loop
      vertex -1.72207 -4.15746 -3.7
      vertex -1.72207 4.15746 -3.7
      vertex -0.877906 4.41353 -3.7
    endloop
  endfacet
  facet normal 0 0 -1
    outer loop
      vertex -2.50007 -3.74161 -3.7
      vertex -1.72207 4.15746 -3.7
      vertex -1.72207 -4.15746 -3.7
    endloop
  endfacet
  facet normal 0 0 -1
    outer loop
      vertex -2.50007 -3.74161 -3.7
      vertex -2.50007 3.74161 -3.7
      vertex -1.72207 4.15746 -3.7
    endloop
  endfacet
  facet normal 0 0 -1
    outer loop
      vertex -3.18198 -3.18198 -3.7
      vertex -2.50007 3.74161 -3.7
      vertex -2.50007 -3.74161 -3.7
    endloop
  endfacet
  facet normal 0 0 -1
    outer loop
      vertex -3.18198 -3.18198 -3.7
      vertex -3.18198 3.18198 -3.7
      vertex -2.50007 3.74161 -3.7
    endloop
  endfacet
  facet normal 0 0 -1
    outer loop
      vertex -3.74161 -2.50007 -3.7
      vertex -3.18198 3.18198 -3.7
      vertex -3.18198 -3.18198 -3.7
    endloop
  endfacet
  facet normal 0 0 -1
    outer loop
      vertex -3.74161 -2.50007 -3.7
      vertex -3.74161 2.50007 -3.7
      vertex -3.18198 3.18198 -3.7
    endloop
  endfacet
  facet normal 0 0 -1
    outer loop
      vertex -4.15746 -1.72207 -3.7
      vertex -3.74161 2.50007 -3.7
      vertex -3.74161 -2.50007 -3.7
    endloop
  endfacet
  facet normal 0 0 -1
    outer loop
      vertex -4.15746 -1.72207 -3.7
      vertex -4.15746 1.72207 -3.7
      vertex -3.74161 2.50007 -3.7
    endloop
  endfacet
  facet normal 0 0 -1
    outer loop
      vertex -4.41353 -0.877906 -3.7
      vertex -4.15746 1.72207 -3.7
      vertex -4.15746 -1.72207 -3.7
    endloop
  endfacet
  facet normal 0 0 -1
    outer loop
      vertex -4.41353 -0.877906 -3.7
      vertex -4.41353 0.877906 -3.7
      vertex -4.15746 1.72207 -3.7
    endloop
  endfacet
  facet normal 0 -0 -1
    outer loop
      vertex -4.41353 0.877906 -3.7
      vertex -4.41353 -0.877906 -3.7
      vertex -4.5 0 -3.7
    endloop
  endfacet
  facet normal 0.881921 0.471397 0
    outer loop
      vertex 3.23358 1.33939 3.7
      vertex 2.91014 1.9445 -2.7
      vertex 2.91014 1.9445 3.7
    endloop
  endfacet
  facet normal 0.881921 0.471397 0
    outer loop
      vertex 2.91014 1.9445 -2.7
      vertex 3.23358 1.33939 3.7
      vertex 3.23358 1.33939 -2.7
    endloop
  endfacet
  facet normal 0.471397 0.881921 -0
    outer loop
      vertex 1.9445 2.91014 -2.7
      vertex 1.33939 3.23358 3.7
      vertex 1.9445 2.91014 3.7
    endloop
  endfacet
  facet normal 0.471397 0.881921 0
    outer loop
      vertex 1.33939 3.23358 3.7
      vertex 1.9445 2.91014 -2.7
      vertex 1.33939 3.23358 -2.7
    endloop
  endfacet
  facet normal 0.290285 0.95694 -0
    outer loop
      vertex 1.33939 3.23358 -2.7
      vertex 0.682816 3.43275 3.7
      vertex 1.33939 3.23358 3.7
    endloop
  endfacet
  facet normal 0.290285 0.95694 0
    outer loop
      vertex 0.682816 3.43275 3.7
      vertex 1.33939 3.23358 -2.7
      vertex 0.682816 3.43275 -2.7
    endloop
  endfacet
  facet normal 0.634393 0.773011 -0
    outer loop
      vertex 2.47487 2.47487 -2.7
      vertex 1.9445 2.91014 3.7
      vertex 2.47487 2.47487 3.7
    endloop
  endfacet
  facet normal 0.634393 0.773011 0
    outer loop
      vertex 1.9445 2.91014 3.7
      vertex 2.47487 2.47487 -2.7
      vertex 1.9445 2.91014 -2.7
    endloop
  endfacet
  facet normal -0.881921 0.471397 0
    outer loop
      vertex -3.23358 1.33939 -2.7
      vertex -2.91014 1.9445 3.7
      vertex -2.91014 1.9445 -2.7
    endloop
  endfacet
  facet normal -0.881921 0.471397 0
    outer loop
      vertex -2.91014 1.9445 3.7
      vertex -3.23358 1.33939 -2.7
      vertex -3.23358 1.33939 3.7
    endloop
  endfacet
  facet normal -0.773011 0.634393 0
    outer loop
      vertex -2.91014 1.9445 -2.7
      vertex -2.47487 2.47487 3.7
      vertex -2.47487 2.47487 -2.7
    endloop
  endfacet
  facet normal -0.773011 0.634393 0
    outer loop
      vertex -2.47487 2.47487 3.7
      vertex -2.91014 1.9445 -2.7
      vertex -2.91014 1.9445 3.7
    endloop
  endfacet
  facet normal -0.95694 0.290285 0
    outer loop
      vertex -3.43275 0.682816 -2.7
      vertex -3.23358 1.33939 3.7
      vertex -3.23358 1.33939 -2.7
    endloop
  endfacet
  facet normal -0.95694 0.290285 0
    outer loop
      vertex -3.23358 1.33939 3.7
      vertex -3.43275 0.682816 -2.7
      vertex -3.43275 0.682816 3.7
    endloop
  endfacet
  facet normal 0 0 1
    outer loop
      vertex 2.2 1.2 3.7
      vertex 3.5 0 3.7
      vertex 3.43275 0.682816 3.7
    endloop
  endfacet
  facet normal -0 0 1
    outer loop
      vertex 2.2 1.2 3.7
      vertex 3.43275 0.682816 3.7
      vertex 3.23358 1.33939 3.7
    endloop
  endfacet
  facet normal 0 0 1
    outer loop
      vertex 2.2 -1.2 3.7
      vertex 3.5 0 3.7
      vertex 2.2 1.2 3.7
    endloop
  endfacet
  facet normal 0 0 1
    outer loop
      vertex 2.2 1.2 3.7
      vertex 3.23358 1.33939 3.7
      vertex 2.91014 1.9445 3.7
    endloop
  endfacet
  facet normal 0 0 1
    outer loop
      vertex 3.5 0 3.7
      vertex 2.2 -1.2 3.7
      vertex 3.43275 -0.682816 3.7
    endloop
  endfacet
  facet normal 0 0 1
    outer loop
      vertex 2.2 1.2 3.7
      vertex 2.91014 1.9445 3.7
      vertex 2.47487 2.47487 3.7
    endloop
  endfacet
  facet normal 0 0 1
    outer loop
      vertex 3.43275 -0.682816 3.7
      vertex 2.2 -1.2 3.7
      vertex 3.23358 -1.33939 3.7
    endloop
  endfacet
  facet normal 0 0 1
    outer loop
      vertex 3.23358 -1.33939 3.7
      vertex 2.2 -1.2 3.7
      vertex 2.91014 -1.9445 3.7
    endloop
  endfacet
  facet normal 0 0 1
    outer loop
      vertex 1.9445 2.91014 3.7
      vertex 2.2 1.2 3.7
      vertex 2.47487 2.47487 3.7
    endloop
  endfacet
  facet normal 0 0 1
    outer loop
      vertex 1.33939 3.23358 3.7
      vertex 2.2 1.2 3.7
      vertex 1.9445 2.91014 3.7
    endloop
  endfacet
  facet normal 0 0 1
    outer loop
      vertex 0.682816 3.43275 3.7
      vertex 2.2 1.2 3.7
      vertex 1.33939 3.23358 3.7
    endloop
  endfacet
  facet normal 0 0 1
    outer loop
      vertex 0 3.5 3.7
      vertex 2.2 1.2 3.7
      vertex 0.682816 3.43275 3.7
    endloop
  endfacet
  facet normal 0 0 1
    outer loop
      vertex -2.2 1.2 3.7
      vertex 0 3.5 3.7
      vertex -0.682816 3.43275 3.7
    endloop
  endfacet
  facet normal 0 0 1
    outer loop
      vertex -2.2 1.2 3.7
      vertex -0.682816 3.43275 3.7
      vertex -1.33939 3.23358 3.7
    endloop
  endfacet
  facet normal 0 0 1
    outer loop
      vertex -2.2 1.2 3.7
      vertex -1.33939 3.23358 3.7
      vertex -1.9445 2.91014 3.7
    endloop
  endfacet
  facet normal 0 0 1
    outer loop
      vertex 0 3.5 3.7
      vertex -2.2 1.2 3.7
      vertex 2.2 1.2 3.7
    endloop
  endfacet
  facet normal -0 0 1
    outer loop
      vertex -2.91014 1.9445 3.7
      vertex -2.2 1.2 3.7
      vertex -2.47487 2.47487 3.7
    endloop
  endfacet
  facet normal -0 0 1
    outer loop
      vertex -2.47487 2.47487 3.7
      vertex -2.2 1.2 3.7
      vertex -1.9445 2.91014 3.7
    endloop
  endfacet
  facet normal 0 0 1
    outer loop
      vertex 2.91014 -1.9445 3.7
      vertex 2.2 -1.2 3.7
      vertex 2.47487 -2.47487 3.7
    endloop
  endfacet
  facet normal 0 0 1
    outer loop
      vertex 2.2 -1.2 3.7
      vertex 1.9445 -2.91014 3.7
      vertex 2.47487 -2.47487 3.7
    endloop
  endfacet
  facet normal 0 0 1
    outer loop
      vertex 2.2 -1.2 3.7
      vertex 1.33939 -3.23358 3.7
      vertex 1.9445 -2.91014 3.7
    endloop
  endfacet
  facet normal 0 0 1
    outer loop
      vertex 2.2 -1.2 3.7
      vertex 0.682816 -3.43275 3.7
      vertex 1.33939 -3.23358 3.7
    endloop
  endfacet
  facet normal 0 0 1
    outer loop
      vertex 2.2 -1.2 3.7
      vertex 0 -3.5 3.7
      vertex 0.682816 -3.43275 3.7
    endloop
  endfacet
  facet normal -0 0 1
    outer loop
      vertex -2.2 -1.2 3.7
      vertex 0 -3.5 3.7
      vertex 2.2 -1.2 3.7
    endloop
  endfacet
  facet normal 0 0 1
    outer loop
      vertex 0 -3.5 3.7
      vertex -2.2 -1.2 3.7
      vertex -0.682816 -3.43275 3.7
    endloop
  endfacet
  facet normal 0 0 1
    outer loop
      vertex -0.682816 -3.43275 3.7
      vertex -2.2 -1.2 3.7
      vertex -1.33939 -3.23358 3.7
    endloop
  endfacet
  facet normal 0 0 1
    outer loop
      vertex -1.33939 -3.23358 3.7
      vertex -2.2 -1.2 3.7
      vertex -1.9445 -2.91014 3.7
    endloop
  endfacet
  facet normal 0 0 1
    outer loop
      vertex -2.2 -1.2 3.7
      vertex -2.47487 -2.47487 3.7
      vertex -1.9445 -2.91014 3.7
    endloop
  endfacet
  facet normal -0 0 1
    outer loop
      vertex -3.23358 1.33939 3.7
      vertex -2.2 1.2 3.7
      vertex -2.91014 1.9445 3.7
    endloop
  endfacet
  facet normal 0 0 1
    outer loop
      vertex -3.43275 0.682816 3.7
      vertex -2.2 1.2 3.7
      vertex -3.23358 1.33939 3.7
    endloop
  endfacet
  facet normal 0 0 1
    outer loop
      vertex -2.2 -1.2 3.7
      vertex -2.91014 -1.9445 3.7
      vertex -2.47487 -2.47487 3.7
    endloop
  endfacet
  facet normal 0 0 1
    outer loop
      vertex -3.5 0 3.7
      vertex -2.2 1.2 3.7
      vertex -3.43275 0.682816 3.7
    endloop
  endfacet
  facet normal 0 0 1
    outer loop
      vertex -2.2 -1.2 3.7
      vertex -3.23358 -1.33939 3.7
      vertex -2.91014 -1.9445 3.7
    endloop
  endfacet
  facet normal 0 0 1
    outer loop
      vertex -2.2 1.2 3.7
      vertex -3.5 0 3.7
      vertex -2.2 -1.2 3.7
    endloop
  endfacet
  facet normal 0 0 1
    outer loop
      vertex -2.2 -1.2 3.7
      vertex -3.43275 -0.682816 3.7
      vertex -3.23358 -1.33939 3.7
    endloop
  endfacet
  facet normal 0 0 1
    outer loop
      vertex -2.2 -1.2 3.7
      vertex -3.5 0 3.7
      vertex -3.43275 -0.682816 3.7
    endloop
  endfacet
  facet normal -0.471397 0.881921 0
    outer loop
      vertex -1.33939 3.23358 -2.7
      vertex -1.9445 2.91014 3.7
      vertex -1.33939 3.23358 3.7
    endloop
  endfacet
  facet normal -0.471397 0.881921 0
    outer loop
      vertex -1.9445 2.91014 3.7
      vertex -1.33939 3.23358 -2.7
      vertex -1.9445 2.91014 -2.7
    endloop
  endfacet
  facet normal -0.0980181 0.995185 0
    outer loop
      vertex 0 3.5 -2.7
      vertex -0.682816 3.43275 3.7
      vertex 0 3.5 3.7
    endloop
  endfacet
  facet normal -0.0980181 0.995185 0
    outer loop
      vertex -0.682816 3.43275 3.7
      vertex 0 3.5 -2.7
      vertex -0.682816 3.43275 -2.7
    endloop
  endfacet
  facet normal 0.0980181 -0.995185 0
    outer loop
      vertex 0 -3.5 -2.7
      vertex 0.682816 -3.43275 3.7
      vertex 0 -3.5 3.7
    endloop
  endfacet
  facet normal 0.0980181 -0.995185 0
    outer loop
      vertex 0.682816 -3.43275 3.7
      vertex 0 -3.5 -2.7
      vertex 0.682816 -3.43275 -2.7
    endloop
  endfacet
  facet normal 0.471397 -0.881921 0
    outer loop
      vertex 1.33939 -3.23358 -2.7
      vertex 1.9445 -2.91014 3.7
      vertex 1.33939 -3.23358 3.7
    endloop
  endfacet
  facet normal 0.471397 -0.881921 0
    outer loop
      vertex 1.9445 -2.91014 3.7
      vertex 1.33939 -3.23358 -2.7
      vertex 1.9445 -2.91014 -2.7
    endloop
  endfacet
  facet normal -0.634393 -0.773011 0
    outer loop
      vertex -2.47487 -2.47487 -2.7
      vertex -1.9445 -2.91014 3.7
      vertex -2.47487 -2.47487 3.7
    endloop
  endfacet
  facet normal -0.634393 -0.773011 -0
    outer loop
      vertex -1.9445 -2.91014 3.7
      vertex -2.47487 -2.47487 -2.7
      vertex -1.9445 -2.91014 -2.7
    endloop
  endfacet
  facet normal -0.290285 -0.95694 0
    outer loop
      vertex -1.33939 -3.23358 -2.7
      vertex -0.682816 -3.43275 3.7
      vertex -1.33939 -3.23358 3.7
    endloop
  endfacet
  facet normal -0.290285 -0.95694 -0
    outer loop
      vertex -0.682816 -3.43275 3.7
      vertex -1.33939 -3.23358 -2.7
      vertex -0.682816 -3.43275 -2.7
    endloop
  endfacet
  facet normal -0.881921 -0.471397 0
    outer loop
      vertex -2.91014 -1.9445 -2.7
      vertex -3.23358 -1.33939 3.7
      vertex -3.23358 -1.33939 -2.7
    endloop
  endfacet
  facet normal -0.881921 -0.471397 0
    outer loop
      vertex -3.23358 -1.33939 3.7
      vertex -2.91014 -1.9445 -2.7
      vertex -2.91014 -1.9445 3.7
    endloop
  endfacet
  facet normal -0.995185 -0.0980181 0
    outer loop
      vertex -3.43275 -0.682816 -2.7
      vertex -3.5 0 3.7
      vertex -3.5 0 -2.7
    endloop
  endfacet
  facet normal -0.995185 -0.0980181 0
    outer loop
      vertex -3.5 0 3.7
      vertex -3.43275 -0.682816 -2.7
      vertex -3.43275 -0.682816 3.7
    endloop
  endfacet
  facet normal 0.995185 -0.0980181 0
    outer loop
      vertex 3.43275 -0.682816 3.7
      vertex 3.5 0 -2.7
      vertex 3.5 0 3.7
    endloop
  endfacet
  facet normal 0.995185 -0.0980181 0
    outer loop
      vertex 3.5 0 -2.7
      vertex 3.43275 -0.682816 3.7
      vertex 3.43275 -0.682816 -2.7
    endloop
  endfacet
  facet normal 0.290285 -0.95694 0
    outer loop
      vertex 0.682816 -3.43275 -2.7
      vertex 1.33939 -3.23358 3.7
      vertex 0.682816 -3.43275 3.7
    endloop
  endfacet
  facet normal 0.290285 -0.95694 0
    outer loop
      vertex 1.33939 -3.23358 3.7
      vertex 0.682816 -3.43275 -2.7
      vertex 1.33939 -3.23358 -2.7
    endloop
  endfacet
  facet normal 0.634393 -0.773011 0
    outer loop
      vertex 1.9445 -2.91014 -2.7
      vertex 2.47487 -2.47487 3.7
      vertex 1.9445 -2.91014 3.7
    endloop
  endfacet
  facet normal 0.634393 -0.773011 0
    outer loop
      vertex 2.47487 -2.47487 3.7
      vertex 1.9445 -2.91014 -2.7
      vertex 2.47487 -2.47487 -2.7
    endloop
  endfacet
  facet normal 0.881921 -0.471397 0
    outer loop
      vertex 2.91014 -1.9445 3.7
      vertex 3.23358 -1.33939 -2.7
      vertex 3.23358 -1.33939 3.7
    endloop
  endfacet
  facet normal 0.881921 -0.471397 0
    outer loop
      vertex 3.23358 -1.33939 -2.7
      vertex 2.91014 -1.9445 3.7
      vertex 2.91014 -1.9445 -2.7
    endloop
  endfacet
  facet normal 0.95694 -0.290285 0
    outer loop
      vertex 3.23358 -1.33939 3.7
      vertex 3.43275 -0.682816 -2.7
      vertex 3.43275 -0.682816 3.7
    endloop
  endfacet
  facet normal 0.95694 -0.290285 0
    outer loop
      vertex 3.43275 -0.682816 -2.7
      vertex 3.23358 -1.33939 3.7
      vertex 3.23358 -1.33939 -2.7
    endloop
  endfacet
  facet normal -0.471397 -0.881921 0
    outer loop
      vertex -1.9445 -2.91014 -2.7
      vertex -1.33939 -3.23358 3.7
      vertex -1.9445 -2.91014 3.7
    endloop
  endfacet
  facet normal -0.471397 -0.881921 -0
    outer loop
      vertex -1.33939 -3.23358 3.7
      vertex -1.9445 -2.91014 -2.7
      vertex -1.33939 -3.23358 -2.7
    endloop
  endfacet
  facet normal -0.95694 -0.290285 0
    outer loop
      vertex -3.23358 -1.33939 -2.7
      vertex -3.43275 -0.682816 3.7
      vertex -3.43275 -0.682816 -2.7
    endloop
  endfacet
  facet normal -0.95694 -0.290285 0
    outer loop
      vertex -3.43275 -0.682816 3.7
      vertex -3.23358 -1.33939 -2.7
      vertex -3.23358 -1.33939 3.7
    endloop
  endfacet
  facet normal 0.995185 0.0980178 0
    outer loop
      vertex 4.5 0 -2.7
      vertex 4.41353 0.877906 -3.7
      vertex 4.41353 0.877906 -2.7
    endloop
  endfacet
  facet normal 0.995185 0.0980178 0
    outer loop
      vertex 4.41353 0.877906 -3.7
      vertex 4.5 0 -2.7
      vertex 4.5 0 -3.7
    endloop
  endfacet
  facet normal -0.995185 0.0980178 0
    outer loop
      vertex -4.5 0 -3.7
      vertex -4.41353 0.877906 -2.7
      vertex -4.41353 0.877906 -3.7
    endloop
  endfacet
  facet normal -0.995185 0.0980178 0
    outer loop
      vertex -4.41353 0.877906 -2.7
      vertex -4.5 0 -3.7
      vertex -4.5 0 -2.7
    endloop
  endfacet
  facet normal 0.0980178 0.995185 -0
    outer loop
      vertex 0.877906 4.41353 -3.7
      vertex 0 4.5 -2.7
      vertex 0.877906 4.41353 -2.7
    endloop
  endfacet
  facet normal 0.0980178 0.995185 0
    outer loop
      vertex 0 4.5 -2.7
      vertex 0.877906 4.41353 -3.7
      vertex 0 4.5 -3.7
    endloop
  endfacet
  facet normal -0.0980178 -0.995185 0
    outer loop
      vertex -0.877906 -4.41353 -3.7
      vertex 0 -4.5 -2.7
      vertex -0.877906 -4.41353 -2.7
    endloop
  endfacet
  facet normal -0.0980178 -0.995185 -0
    outer loop
      vertex 0 -4.5 -2.7
      vertex -0.877906 -4.41353 -3.7
      vertex 0 -4.5 -3.7
    endloop
  endfacet
  facet normal -0.773011 -0.634393 0
    outer loop
      vertex -3.18198 -3.18198 -3.7
      vertex -3.74161 -2.50007 -2.7
      vertex -3.74161 -2.50007 -3.7
    endloop
  endfacet
  facet normal -0.773011 -0.634393 0
    outer loop
      vertex -3.74161 -2.50007 -2.7
      vertex -3.18198 -3.18198 -3.7
      vertex -3.18198 -3.18198 -2.7
    endloop
  endfacet
  facet normal 0.773011 0.634393 0
    outer loop
      vertex 3.74161 2.50007 -2.7
      vertex 3.18198 3.18198 -3.7
      vertex 3.18198 3.18198 -2.7
    endloop
  endfacet
  facet normal 0.773011 0.634393 0
    outer loop
      vertex 3.18198 3.18198 -3.7
      vertex 3.74161 2.50007 -2.7
      vertex 3.74161 2.50007 -3.7
    endloop
  endfacet
  facet normal 0.95694 0.290285 0
    outer loop
      vertex 4.41353 0.877906 -2.7
      vertex 4.15746 1.72207 -3.7
      vertex 4.15746 1.72207 -2.7
    endloop
  endfacet
  facet normal 0.95694 0.290285 0
    outer loop
      vertex 4.15746 1.72207 -3.7
      vertex 4.41353 0.877906 -2.7
      vertex 4.41353 0.877906 -3.7
    endloop
  endfacet
  facet normal -0.634393 0.773011 0
    outer loop
      vertex -2.50007 3.74161 -3.7
      vertex -3.18198 3.18198 -2.7
      vertex -2.50007 3.74161 -2.7
    endloop
  endfacet
  facet normal -0.634393 0.773011 0
    outer loop
      vertex -3.18198 3.18198 -2.7
      vertex -2.50007 3.74161 -3.7
      vertex -3.18198 3.18198 -3.7
    endloop
  endfacet
  facet normal -0.290285 0.95694 0
    outer loop
      vertex -0.877906 4.41353 -3.7
      vertex -1.72207 4.15746 -2.7
      vertex -0.877906 4.41353 -2.7
    endloop
  endfacet
  facet normal -0.290285 0.95694 0
    outer loop
      vertex -1.72207 4.15746 -2.7
      vertex -0.877906 4.41353 -3.7
      vertex -1.72207 4.15746 -3.7
    endloop
  endfacet
  facet normal 0.881921 0.471397 0
    outer loop
      vertex 4.15746 1.72207 -2.7
      vertex 3.74161 2.50007 -3.7
      vertex 3.74161 2.50007 -2.7
    endloop
  endfacet
  facet normal 0.881921 0.471397 0
    outer loop
      vertex 3.74161 2.50007 -3.7
      vertex 4.15746 1.72207 -2.7
      vertex 4.15746 1.72207 -3.7
    endloop
  endfacet
  facet normal 0.471397 0.881921 -0
    outer loop
      vertex 2.50007 3.74161 -3.7
      vertex 1.72207 4.15746 -2.7
      vertex 2.50007 3.74161 -2.7
    endloop
  endfacet
  facet normal 0.471397 0.881921 0
    outer loop
      vertex 1.72207 4.15746 -2.7
      vertex 2.50007 3.74161 -3.7
      vertex 1.72207 4.15746 -3.7
    endloop
  endfacet
  facet normal 0.290285 0.95694 -0
    outer loop
      vertex 1.72207 4.15746 -3.7
      vertex 0.877906 4.41353 -2.7
      vertex 1.72207 4.15746 -2.7
    endloop
  endfacet
  facet normal 0.290285 0.95694 0
    outer loop
      vertex 0.877906 4.41353 -2.7
      vertex 1.72207 4.15746 -3.7
      vertex 0.877906 4.41353 -3.7
    endloop
  endfacet
  facet normal 0.634393 0.773011 -0
    outer loop
      vertex 3.18198 3.18198 -3.7
      vertex 2.50007 3.74161 -2.7
      vertex 3.18198 3.18198 -2.7
    endloop
  endfacet
  facet normal 0.634393 0.773011 0
    outer loop
      vertex 2.50007 3.74161 -2.7
      vertex 3.18198 3.18198 -3.7
      vertex 2.50007 3.74161 -3.7
    endloop
  endfacet
  facet normal -0.881921 0.471397 0
    outer loop
      vertex -4.15746 1.72207 -3.7
      vertex -3.74161 2.50007 -2.7
      vertex -3.74161 2.50007 -3.7
    endloop
  endfacet
  facet normal -0.881921 0.471397 0
    outer loop
      vertex -3.74161 2.50007 -2.7
      vertex -4.15746 1.72207 -3.7
      vertex -4.15746 1.72207 -2.7
    endloop
  endfacet
  facet normal -0.773011 0.634393 0
    outer loop
      vertex -3.74161 2.50007 -3.7
      vertex -3.18198 3.18198 -2.7
      vertex -3.18198 3.18198 -3.7
    endloop
  endfacet
  facet normal -0.773011 0.634393 0
    outer loop
      vertex -3.18198 3.18198 -2.7
      vertex -3.74161 2.50007 -3.7
      vertex -3.74161 2.50007 -2.7
    endloop
  endfacet
  facet normal -0.95694 0.290285 0
    outer loop
      vertex -4.41353 0.877906 -3.7
      vertex -4.15746 1.72207 -2.7
      vertex -4.15746 1.72207 -3.7
    endloop
  endfacet
  facet normal -0.95694 0.290285 0
    outer loop
      vertex -4.15746 1.72207 -2.7
      vertex -4.41353 0.877906 -3.7
      vertex -4.41353 0.877906 -2.7
    endloop
  endfacet
  facet normal 0 0 1
    outer loop
      vertex 3.5 0 -2.7
      vertex 4.5 0 -2.7
      vertex 4.41353 0.877906 -2.7
    endloop
  endfacet
  facet normal 0 0 1
    outer loop
      vertex 3.43275 0.682816 -2.7
      vertex 4.41353 0.877906 -2.7
      vertex 4.15746 1.72207 -2.7
    endloop
  endfacet
  facet normal 0 0 1
    outer loop
      vertex 4.5 0 -2.7
      vertex 3.5 0 -2.7
      vertex 4.41353 -0.877906 -2.7
    endloop
  endfacet
  facet normal 0 0 1
    outer loop
      vertex 3.23358 1.33939 -2.7
      vertex 4.15746 1.72207 -2.7
      vertex 3.74161 2.50007 -2.7
    endloop
  endfacet
  facet normal -0 0 1
    outer loop
      vertex 3.43275 -0.682816 -2.7
      vertex 4.41353 -0.877906 -2.7
      vertex 3.5 0 -2.7
    endloop
  endfacet
  facet normal 0 0 1
    outer loop
      vertex 4.41353 -0.877906 -2.7
      vertex 3.43275 -0.682816 -2.7
      vertex 4.15746 -1.72207 -2.7
    endloop
  endfacet
  facet normal 0 0 1
    outer loop
      vertex 4.41353 0.877906 -2.7
      vertex 3.43275 0.682816 -2.7
      vertex 3.5 0 -2.7
    endloop
  endfacet
  facet normal 0 0 1
    outer loop
      vertex 4.15746 1.72207 -2.7
      vertex 3.23358 1.33939 -2.7
      vertex 3.43275 0.682816 -2.7
    endloop
  endfacet
  facet normal 0 0 1
    outer loop
      vertex 2.91014 1.9445 -2.7
      vertex 3.74161 2.50007 -2.7
      vertex 3.18198 3.18198 -2.7
    endloop
  endfacet
  facet normal 0 0 1
    outer loop
      vertex 3.74161 2.50007 -2.7
      vertex 2.91014 1.9445 -2.7
      vertex 3.23358 1.33939 -2.7
    endloop
  endfacet
  facet normal 0 0 1
    outer loop
      vertex 2.47487 2.47487 -2.7
      vertex 3.18198 3.18198 -2.7
      vertex 2.50007 3.74161 -2.7
    endloop
  endfacet
  facet normal 0 0 1
    outer loop
      vertex 3.18198 3.18198 -2.7
      vertex 2.47487 2.47487 -2.7
      vertex 2.91014 1.9445 -2.7
    endloop
  endfacet
  facet normal 0 0 1
    outer loop
      vertex 2.50007 3.74161 -2.7
      vertex 1.9445 2.91014 -2.7
      vertex 2.47487 2.47487 -2.7
    endloop
  endfacet
  facet normal 0 0 1
    outer loop
      vertex 1.72207 4.15746 -2.7
      vertex 1.9445 2.91014 -2.7
      vertex 2.50007 3.74161 -2.7
    endloop
  endfacet
  facet normal 0 0 1
    outer loop
      vertex 1.72207 4.15746 -2.7
      vertex 1.33939 3.23358 -2.7
      vertex 1.9445 2.91014 -2.7
    endloop
  endfacet
  facet normal 0 0 1
    outer loop
      vertex 0.877906 4.41353 -2.7
      vertex 1.33939 3.23358 -2.7
      vertex 1.72207 4.15746 -2.7
    endloop
  endfacet
  facet normal 0 0 1
    outer loop
      vertex 0.877906 4.41353 -2.7
      vertex 0.682816 3.43275 -2.7
      vertex 1.33939 3.23358 -2.7
    endloop
  endfacet
  facet normal 0 0 1
    outer loop
      vertex 0 4.5 -2.7
      vertex 0.682816 3.43275 -2.7
      vertex 0.877906 4.41353 -2.7
    endloop
  endfacet
  facet normal 0 0 1
    outer loop
      vertex 0 4.5 -2.7
      vertex 0 3.5 -2.7
      vertex 0.682816 3.43275 -2.7
    endloop
  endfacet
  facet normal 0 0 1
    outer loop
      vertex 0 4.5 -2.7
      vertex -0.682816 3.43275 -2.7
      vertex 0 3.5 -2.7
    endloop
  endfacet
  facet normal -0 0 1
    outer loop
      vertex -0.877906 4.41353 -2.7
      vertex -0.682816 3.43275 -2.7
      vertex 0 4.5 -2.7
    endloop
  endfacet
  facet normal 0 0 1
    outer loop
      vertex -0.877906 4.41353 -2.7
      vertex -1.33939 3.23358 -2.7
      vertex -0.682816 3.43275 -2.7
    endloop
  endfacet
  facet normal -0 0 1
    outer loop
      vertex -1.72207 4.15746 -2.7
      vertex -1.33939 3.23358 -2.7
      vertex -0.877906 4.41353 -2.7
    endloop
  endfacet
  facet normal 0 0 1
    outer loop
      vertex -1.72207 4.15746 -2.7
      vertex -1.9445 2.91014 -2.7
      vertex -1.33939 3.23358 -2.7
    endloop
  endfacet
  facet normal -0 0 1
    outer loop
      vertex -2.50007 3.74161 -2.7
      vertex -1.9445 2.91014 -2.7
      vertex -1.72207 4.15746 -2.7
    endloop
  endfacet
  facet normal 0 0 1
    outer loop
      vertex -1.9445 2.91014 -2.7
      vertex -2.50007 3.74161 -2.7
      vertex -2.47487 2.47487 -2.7
    endloop
  endfacet
  facet normal -0 0 1
    outer loop
      vertex -3.18198 3.18198 -2.7
      vertex -2.47487 2.47487 -2.7
      vertex -2.50007 3.74161 -2.7
    endloop
  endfacet
  facet normal 0 0 1
    outer loop
      vertex -2.47487 2.47487 -2.7
      vertex -3.18198 3.18198 -2.7
      vertex -2.91014 1.9445 -2.7
    endloop
  endfacet
  facet normal -0 0 1
    outer loop
      vertex -3.74161 2.50007 -2.7
      vertex -2.91014 1.9445 -2.7
      vertex -3.18198 3.18198 -2.7
    endloop
  endfacet
  facet normal 0 0 1
    outer loop
      vertex -2.91014 1.9445 -2.7
      vertex -3.74161 2.50007 -2.7
      vertex -3.23358 1.33939 -2.7
    endloop
  endfacet
  facet normal 0 0 1
    outer loop
      vertex -3.23358 1.33939 -2.7
      vertex -4.15746 1.72207 -2.7
      vertex -3.43275 0.682816 -2.7
    endloop
  endfacet
  facet normal -0 0 1
    outer loop
      vertex -4.15746 1.72207 -2.7
      vertex -3.23358 1.33939 -2.7
      vertex -3.74161 2.50007 -2.7
    endloop
  endfacet
  facet normal -0 0 1
    outer loop
      vertex 3.23358 -1.33939 -2.7
      vertex 4.15746 -1.72207 -2.7
      vertex 3.43275 -0.682816 -2.7
    endloop
  endfacet
  facet normal 0 0 1
    outer loop
      vertex 4.15746 -1.72207 -2.7
      vertex 3.23358 -1.33939 -2.7
      vertex 3.74161 -2.50007 -2.7
    endloop
  endfacet
  facet normal -0 0 1
    outer loop
      vertex 2.91014 -1.9445 -2.7
      vertex 3.74161 -2.50007 -2.7
      vertex 3.23358 -1.33939 -2.7
    endloop
  endfacet
  facet normal 0 0 1
    outer loop
      vertex 3.74161 -2.50007 -2.7
      vertex 2.91014 -1.9445 -2.7
      vertex 3.18198 -3.18198 -2.7
    endloop
  endfacet
  facet normal -0 0 1
    outer loop
      vertex 2.47487 -2.47487 -2.7
      vertex 3.18198 -3.18198 -2.7
      vertex 2.91014 -1.9445 -2.7
    endloop
  endfacet
  facet normal 0 0 1
    outer loop
      vertex 3.18198 -3.18198 -2.7
      vertex 2.47487 -2.47487 -2.7
      vertex 2.50007 -3.74161 -2.7
    endloop
  endfacet
  facet normal -0 0 1
    outer loop
      vertex 1.9445 -2.91014 -2.7
      vertex 2.50007 -3.74161 -2.7
      vertex 2.47487 -2.47487 -2.7
    endloop
  endfacet
  facet normal 0 0 1
    outer loop
      vertex 1.9445 -2.91014 -2.7
      vertex 1.72207 -4.15746 -2.7
      vertex 2.50007 -3.74161 -2.7
    endloop
  endfacet
  facet normal -0 0 1
    outer loop
      vertex 1.33939 -3.23358 -2.7
      vertex 1.72207 -4.15746 -2.7
      vertex 1.9445 -2.91014 -2.7
    endloop
  endfacet
  facet normal 0 0 1
    outer loop
      vertex 1.33939 -3.23358 -2.7
      vertex 0.877906 -4.41353 -2.7
      vertex 1.72207 -4.15746 -2.7
    endloop
  endfacet
  facet normal -0 0 1
    outer loop
      vertex 0.682816 -3.43275 -2.7
      vertex 0.877906 -4.41353 -2.7
      vertex 1.33939 -3.23358 -2.7
    endloop
  endfacet
  facet normal -0 0 1
    outer loop
      vertex 0 -3.5 -2.7
      vertex 0.877906 -4.41353 -2.7
      vertex 0.682816 -3.43275 -2.7
    endloop
  endfacet
  facet normal 0 0 1
    outer loop
      vertex 0 -3.5 -2.7
      vertex 0 -4.5 -2.7
      vertex 0.877906 -4.41353 -2.7
    endloop
  endfacet
  facet normal 0 0 1
    outer loop
      vertex -0.682816 -3.43275 -2.7
      vertex 0 -4.5 -2.7
      vertex 0 -3.5 -2.7
    endloop
  endfacet
  facet normal 0 0 1
    outer loop
      vertex -0.682816 -3.43275 -2.7
      vertex -0.877906 -4.41353 -2.7
      vertex 0 -4.5 -2.7
    endloop
  endfacet
  facet normal 0 0 1
    outer loop
      vertex -1.33939 -3.23358 -2.7
      vertex -0.877906 -4.41353 -2.7
      vertex -0.682816 -3.43275 -2.7
    endloop
  endfacet
  facet normal 0 0 1
    outer loop
      vertex -1.33939 -3.23358 -2.7
      vertex -1.72207 -4.15746 -2.7
      vertex -0.877906 -4.41353 -2.7
    endloop
  endfacet
  facet normal 0 0 1
    outer loop
      vertex -1.9445 -2.91014 -2.7
      vertex -1.72207 -4.15746 -2.7
      vertex -1.33939 -3.23358 -2.7
    endloop
  endfacet
  facet normal 0 0 1
    outer loop
      vertex -2.50007 -3.74161 -2.7
      vertex -1.9445 -2.91014 -2.7
      vertex -2.47487 -2.47487 -2.7
    endloop
  endfacet
  facet normal 0 0 1
    outer loop
      vertex -1.9445 -2.91014 -2.7
      vertex -2.50007 -3.74161 -2.7
      vertex -1.72207 -4.15746 -2.7
    endloop
  endfacet
  facet normal 0 0 1
    outer loop
      vertex -3.18198 -3.18198 -2.7
      vertex -2.47487 -2.47487 -2.7
      vertex -2.91014 -1.9445 -2.7
    endloop
  endfacet
  facet normal 0 0 1
    outer loop
      vertex -2.47487 -2.47487 -2.7
      vertex -3.18198 -3.18198 -2.7
      vertex -2.50007 -3.74161 -2.7
    endloop
  endfacet
  facet normal 0 0 1
    outer loop
      vertex -3.74161 -2.50007 -2.7
      vertex -2.91014 -1.9445 -2.7
      vertex -3.23358 -1.33939 -2.7
    endloop
  endfacet
  facet normal 0 0 1
    outer loop
      vertex -4.15746 -1.72207 -2.7
      vertex -3.23358 -1.33939 -2.7
      vertex -3.43275 -0.682816 -2.7
    endloop
  endfacet
  facet normal 0 0 1
    outer loop
      vertex -2.91014 -1.9445 -2.7
      vertex -3.74161 -2.50007 -2.7
      vertex -3.18198 -3.18198 -2.7
    endloop
  endfacet
  facet normal 0 0 1
    outer loop
      vertex -4.41353 -0.877906 -2.7
      vertex -3.43275 -0.682816 -2.7
      vertex -3.5 0 -2.7
    endloop
  endfacet
  facet normal -0 0 1
    outer loop
      vertex -4.41353 0.877906 -2.7
      vertex -3.43275 0.682816 -2.7
      vertex -4.15746 1.72207 -2.7
    endloop
  endfacet
  facet normal 0 0 1
    outer loop
      vertex -3.43275 0.682816 -2.7
      vertex -4.41353 0.877906 -2.7
      vertex -3.5 0 -2.7
    endloop
  endfacet
  facet normal 0 0 1
    outer loop
      vertex -3.23358 -1.33939 -2.7
      vertex -4.15746 -1.72207 -2.7
      vertex -3.74161 -2.50007 -2.7
    endloop
  endfacet
  facet normal 0 0 1
    outer loop
      vertex -4.5 0 -2.7
      vertex -3.5 0 -2.7
      vertex -4.41353 0.877906 -2.7
    endloop
  endfacet
  facet normal 0 0 1
    outer loop
      vertex -3.43275 -0.682816 -2.7
      vertex -4.41353 -0.877906 -2.7
      vertex -4.15746 -1.72207 -2.7
    endloop
  endfacet
  facet normal 0 0 1
    outer loop
      vertex -3.5 0 -2.7
      vertex -4.5 0 -2.7
      vertex -4.41353 -0.877906 -2.7
    endloop
  endfacet
  facet normal -0.471397 0.881921 0
    outer loop
      vertex -1.72207 4.15746 -3.7
      vertex -2.50007 3.74161 -2.7
      vertex -1.72207 4.15746 -2.7
    endloop
  endfacet
  facet normal -0.471397 0.881921 0
    outer loop
      vertex -2.50007 3.74161 -2.7
      vertex -1.72207 4.15746 -3.7
      vertex -2.50007 3.74161 -3.7
    endloop
  endfacet
  facet normal -0.0980178 0.995185 0
    outer loop
      vertex 0 4.5 -3.7
      vertex -0.877906 4.41353 -2.7
      vertex 0 4.5 -2.7
    endloop
  endfacet
  facet normal -0.0980178 0.995185 0
    outer loop
      vertex -0.877906 4.41353 -2.7
      vertex 0 4.5 -3.7
      vertex -0.877906 4.41353 -3.7
    endloop
  endfacet
  facet normal 0.995185 -0.0980178 0
    outer loop
      vertex 4.41353 -0.877906 -2.7
      vertex 4.5 0 -3.7
      vertex 4.5 0 -2.7
    endloop
  endfacet
  facet normal 0.995185 -0.0980178 0
    outer loop
      vertex 4.5 0 -3.7
      vertex 4.41353 -0.877906 -2.7
      vertex 4.41353 -0.877906 -3.7
    endloop
  endfacet
  facet normal 0.0980178 -0.995185 0
    outer loop
      vertex 0 -4.5 -3.7
      vertex 0.877906 -4.41353 -2.7
      vertex 0 -4.5 -2.7
    endloop
  endfacet
  facet normal 0.0980178 -0.995185 0
    outer loop
      vertex 0.877906 -4.41353 -2.7
      vertex 0 -4.5 -3.7
      vertex 0.877906 -4.41353 -3.7
    endloop
  endfacet
  facet normal 0.471397 -0.881921 0
    outer loop
      vertex 1.72207 -4.15746 -3.7
      vertex 2.50007 -3.74161 -2.7
      vertex 1.72207 -4.15746 -2.7
    endloop
  endfacet
  facet normal 0.471397 -0.881921 0
    outer loop
      vertex 2.50007 -3.74161 -2.7
      vertex 1.72207 -4.15746 -3.7
      vertex 2.50007 -3.74161 -3.7
    endloop
  endfacet
  facet normal -0.634393 -0.773011 0
    outer loop
      vertex -3.18198 -3.18198 -3.7
      vertex -2.50007 -3.74161 -2.7
      vertex -3.18198 -3.18198 -2.7
    endloop
  endfacet
  facet normal -0.634393 -0.773011 -0
    outer loop
      vertex -2.50007 -3.74161 -2.7
      vertex -3.18198 -3.18198 -3.7
      vertex -2.50007 -3.74161 -3.7
    endloop
  endfacet
  facet normal -0.290285 -0.95694 0
    outer loop
      vertex -1.72207 -4.15746 -3.7
      vertex -0.877906 -4.41353 -2.7
      vertex -1.72207 -4.15746 -2.7
    endloop
  endfacet
  facet normal -0.290285 -0.95694 -0
    outer loop
      vertex -0.877906 -4.41353 -2.7
      vertex -1.72207 -4.15746 -3.7
      vertex -0.877906 -4.41353 -3.7
    endloop
  endfacet
  facet normal -0.881921 -0.471397 0
    outer loop
      vertex -3.74161 -2.50007 -3.7
      vertex -4.15746 -1.72207 -2.7
      vertex -4.15746 -1.72207 -3.7
    endloop
  endfacet
  facet normal -0.881921 -0.471397 0
    outer loop
      vertex -4.15746 -1.72207 -2.7
      vertex -3.74161 -2.50007 -3.7
      vertex -3.74161 -2.50007 -2.7
    endloop
  endfacet
  facet normal -0.995185 -0.0980178 0
    outer loop
      vertex -4.41353 -0.877906 -3.7
      vertex -4.5 0 -2.7
      vertex -4.5 0 -3.7
    endloop
  endfacet
  facet normal -0.995185 -0.0980178 0
    outer loop
      vertex -4.5 0 -2.7
      vertex -4.41353 -0.877906 -3.7
      vertex -4.41353 -0.877906 -2.7
    endloop
  endfacet
  facet normal 0.290285 -0.95694 0
    outer loop
      vertex 0.877906 -4.41353 -3.7
      vertex 1.72207 -4.15746 -2.7
      vertex 0.877906 -4.41353 -2.7
    endloop
  endfacet
  facet normal 0.290285 -0.95694 0
    outer loop
      vertex 1.72207 -4.15746 -2.7
      vertex 0.877906 -4.41353 -3.7
      vertex 1.72207 -4.15746 -3.7
    endloop
  endfacet
  facet normal 0.634393 -0.773011 0
    outer loop
      vertex 2.50007 -3.74161 -3.7
      vertex 3.18198 -3.18198 -2.7
      vertex 2.50007 -3.74161 -2.7
    endloop
  endfacet
  facet normal 0.634393 -0.773011 0
    outer loop
      vertex 3.18198 -3.18198 -2.7
      vertex 2.50007 -3.74161 -3.7
      vertex 3.18198 -3.18198 -3.7
    endloop
  endfacet
  facet normal 0.95694 -0.290285 0
    outer loop
      vertex 4.15746 -1.72207 -2.7
      vertex 4.41353 -0.877906 -3.7
      vertex 4.41353 -0.877906 -2.7
    endloop
  endfacet
  facet normal 0.95694 -0.290285 0
    outer loop
      vertex 4.41353 -0.877906 -3.7
      vertex 4.15746 -1.72207 -2.7
      vertex 4.15746 -1.72207 -3.7
    endloop
  endfacet
  facet normal 0.773011 -0.634393 0
    outer loop
      vertex 3.18198 -3.18198 -2.7
      vertex 3.74161 -2.50007 -3.7
      vertex 3.74161 -2.50007 -2.7
    endloop
  endfacet
  facet normal 0.773011 -0.634393 0
    outer loop
      vertex 3.74161 -2.50007 -3.7
      vertex 3.18198 -3.18198 -2.7
      vertex 3.18198 -3.18198 -3.7
    endloop
  endfacet
  facet normal -0.471397 -0.881921 0
    outer loop
      vertex -2.50007 -3.74161 -3.7
      vertex -1.72207 -4.15746 -2.7
      vertex -2.50007 -3.74161 -2.7
    endloop
  endfacet
  facet normal -0.471397 -0.881921 -0
    outer loop
      vertex -1.72207 -4.15746 -2.7
      vertex -2.50007 -3.74161 -3.7
      vertex -1.72207 -4.15746 -3.7
    endloop
  endfacet
  facet normal -0.95694 -0.290285 0
    outer loop
      vertex -4.15746 -1.72207 -3.7
      vertex -4.41353 -0.877906 -2.7
      vertex -4.41353 -0.877906 -3.7
    endloop
  endfacet
  facet normal -0.95694 -0.290285 0
    outer loop
      vertex -4.41353 -0.877906 -2.7
      vertex -4.15746 -1.72207 -3.7
      vertex -4.15746 -1.72207 -2.7
    endloop
  endfacet
  facet normal 0.881921 -0.471397 0
    outer loop
      vertex 3.74161 -2.50007 -2.7
      vertex 4.15746 -1.72207 -3.7
      vertex 4.15746 -1.72207 -2.7
    endloop
  endfacet
  facet normal 0.881921 -0.471397 0
    outer loop
      vertex 4.15746 -1.72207 -3.7
      vertex 3.74161 -2.50007 -2.7
      vertex 3.74161 -2.50007 -3.7
    endloop
  endfacet
endsolid OpenSCAD_Model
