solid OpenSCAD_Model
  facet normal 0 1 -0
    outer loop
      vertex 196.045 86.9452 0
      vertex 8.95471 86.9452 36
      vertex 196.045 86.9452 36
    endloop
  endfacet
  facet normal 0 1 0
    outer loop
      vertex 8.95471 86.9452 36
      vertex 196.045 86.9452 0
      vertex 8.95471 86.9452 0
    endloop
  endfacet
  facet normal -0.207912 0.978148 0
    outer loop
      vertex 8.95471 86.9452 0
      vertex 6.90983 86.5106 36
      vertex 8.95471 86.9452 36
    endloop
  endfacet
  facet normal -0.207912 0.978148 0
    outer loop
      vertex 6.90983 86.5106 36
      vertex 8.95471 86.9452 0
      vertex 6.90983 86.5106 0
    endloop
  endfacet
  facet normal -0.207911 -0.978148 0
    outer loop
      vertex 6.90983 0.489434 0
      vertex 8.95471 0.054781 36
      vertex 6.90983 0.489434 36
    endloop
  endfacet
  facet normal -0.207911 -0.978148 -0
    outer loop
      vertex 8.95471 0.054781 36
      vertex 6.90983 0.489434 0
      vertex 8.95471 0.054781 0
    endloop
  endfacet
  facet normal 0.406736 -0.913546 0
    outer loop
      vertex 198.09 0.489434 0
      vertex 200 1.33975 36
      vertex 198.09 0.489434 36
    endloop
  endfacet
  facet normal 0.406736 -0.913546 0
    outer loop
      vertex 200 1.33975 36
      vertex 198.09 0.489434 0
      vertex 200 1.33975 0
    endloop
  endfacet
  facet normal 0 -1 0
    outer loop
      vertex 8.95471 0.054781 0
      vertex 196.045 0.054781 36
      vertex 8.95471 0.054781 36
    endloop
  endfacet
  facet normal 0 -1 -0
    outer loop
      vertex 196.045 0.054781 36
      vertex 8.95471 0.054781 0
      vertex 196.045 0.054781 0
    endloop
  endfacet
  facet normal -0.951057 0.309017 0
    outer loop
      vertex 0.218524 79.0791 0
      vertex 0.864545 81.0674 36
      vertex 0.864545 81.0674 0
    endloop
  endfacet
  facet normal -0.951057 0.309017 0
    outer loop
      vertex 0.864545 81.0674 36
      vertex 0.218524 79.0791 0
      vertex 0.218524 79.0791 36
    endloop
  endfacet
  facet normal 1 -0 0
    outer loop
      vertex 205 10 36
      vertex 205 77 0
      vertex 205 77 36
    endloop
  endfacet
  facet normal 1 0 0
    outer loop
      vertex 205 77 0
      vertex 205 10 36
      vertex 205 10 0
    endloop
  endfacet
  facet normal -0.743145 -0.669131 0
    outer loop
      vertex 3.30869 2.56855 0
      vertex 1.90983 4.12215 36
      vertex 1.90983 4.12215 0
    endloop
  endfacet
  facet normal -0.743145 -0.669131 0
    outer loop
      vertex 1.90983 4.12215 36
      vertex 3.30869 2.56855 0
      vertex 3.30869 2.56855 36
    endloop
  endfacet
  facet normal -1 0 0
    outer loop
      vertex 0 10 0
      vertex 0 77 36
      vertex 0 77 0
    endloop
  endfacet
  facet normal -1 -0 0
    outer loop
      vertex 0 77 36
      vertex 0 10 0
      vertex 0 10 36
    endloop
  endfacet
  facet normal -0.994522 0.104528 0
    outer loop
      vertex 0 77 0
      vertex 0.218524 79.0791 36
      vertex 0.218524 79.0791 0
    endloop
  endfacet
  facet normal -0.994522 0.104528 0
    outer loop
      vertex 0.218524 79.0791 36
      vertex 0 77 0
      vertex 0 77 36
    endloop
  endfacet
  facet normal -0.743145 0.669131 0
    outer loop
      vertex 1.90983 82.8779 0
      vertex 3.30869 84.4314 36
      vertex 3.30869 84.4314 0
    endloop
  endfacet
  facet normal -0.743145 0.669131 0
    outer loop
      vertex 3.30869 84.4314 36
      vertex 1.90983 82.8779 0
      vertex 1.90983 82.8779 36
    endloop
  endfacet
  facet normal 0.207913 0.978147 -0
    outer loop
      vertex 198.09 86.5106 0
      vertex 196.045 86.9452 36
      vertex 198.09 86.5106 36
    endloop
  endfacet
  facet normal 0.207913 0.978147 0
    outer loop
      vertex 196.045 86.9452 36
      vertex 198.09 86.5106 0
      vertex 196.045 86.9452 0
    endloop
  endfacet
  facet normal 0.743145 0.669131 0
    outer loop
      vertex 203.09 82.8779 36
      vertex 201.691 84.4314 0
      vertex 201.691 84.4314 36
    endloop
  endfacet
  facet normal 0.743145 0.669131 0
    outer loop
      vertex 201.691 84.4314 0
      vertex 203.09 82.8779 36
      vertex 203.09 82.8779 0
    endloop
  endfacet
  facet normal 0.994522 -0.104527 0
    outer loop
      vertex 204.781 7.92088 36
      vertex 205 10 0
      vertex 205 10 36
    endloop
  endfacet
  facet normal 0.994522 -0.104527 0
    outer loop
      vertex 205 10 0
      vertex 204.781 7.92088 36
      vertex 204.781 7.92088 0
    endloop
  endfacet
  facet normal 0.587787 -0.809016 0
    outer loop
      vertex 200 1.33975 0
      vertex 201.691 2.56855 36
      vertex 200 1.33975 36
    endloop
  endfacet
  facet normal 0.587787 -0.809016 0
    outer loop
      vertex 201.691 2.56855 36
      vertex 200 1.33975 0
      vertex 201.691 2.56855 0
    endloop
  endfacet
  facet normal 0.207912 -0.978147 0
    outer loop
      vertex 196.045 0.054781 0
      vertex 198.09 0.489434 36
      vertex 196.045 0.054781 36
    endloop
  endfacet
  facet normal 0.207912 -0.978147 0
    outer loop
      vertex 198.09 0.489434 36
      vertex 196.045 0.054781 0
      vertex 198.09 0.489434 0
    endloop
  endfacet
  facet normal 0 0 -1
    outer loop
      vertex 193 12 0
      vertex 205 10 0
      vertex 204.781 7.92088 0
    endloop
  endfacet
  facet normal 0 0 -1
    outer loop
      vertex 205 10 0
      vertex 193 12 0
      vertex 205 77 0
    endloop
  endfacet
  facet normal 0 0 -1
    outer loop
      vertex 193 12 0
      vertex 204.781 7.92088 0
      vertex 204.135 5.93263 0
    endloop
  endfacet
  facet normal 0 0 -1
    outer loop
      vertex 193 75 0
      vertex 205 77 0
      vertex 193 12 0
    endloop
  endfacet
  facet normal 0 0 -1
    outer loop
      vertex 193 12 0
      vertex 204.135 5.93263 0
      vertex 203.09 4.12215 0
    endloop
  endfacet
  facet normal -0 0 -1
    outer loop
      vertex 205 77 0
      vertex 193 75 0
      vertex 204.781 79.0791 0
    endloop
  endfacet
  facet normal 0 0 -1
    outer loop
      vertex 193 12 0
      vertex 203.09 4.12215 0
      vertex 201.691 2.56855 0
    endloop
  endfacet
  facet normal -0 0 -1
    outer loop
      vertex 204.781 79.0791 0
      vertex 193 75 0
      vertex 204.135 81.0674 0
    endloop
  endfacet
  facet normal 0 0 -1
    outer loop
      vertex 193 12 0
      vertex 201.691 2.56855 0
      vertex 200 1.33975 0
    endloop
  endfacet
  facet normal -0 0 -1
    outer loop
      vertex 204.135 81.0674 0
      vertex 193 75 0
      vertex 203.09 82.8779 0
    endloop
  endfacet
  facet normal 0 0 -1
    outer loop
      vertex 193 12 0
      vertex 200 1.33975 0
      vertex 198.09 0.489434 0
    endloop
  endfacet
  facet normal -0 0 -1
    outer loop
      vertex 203.09 82.8779 0
      vertex 193 75 0
      vertex 201.691 84.4314 0
    endloop
  endfacet
  facet normal 0 0 -1
    outer loop
      vertex 193 12 0
      vertex 198.09 0.489434 0
      vertex 196.045 0.054781 0
    endloop
  endfacet
  facet normal -0 0 -1
    outer loop
      vertex 201.691 84.4314 0
      vertex 193 75 0
      vertex 200 85.6603 0
    endloop
  endfacet
  facet normal -0 0 -1
    outer loop
      vertex 200 85.6603 0
      vertex 193 75 0
      vertex 198.09 86.5106 0
    endloop
  endfacet
  facet normal 0 0 -1
    outer loop
      vertex 196.045 0.054781 0
      vertex 12 12 0
      vertex 193 12 0
    endloop
  endfacet
  facet normal 0 0 -1
    outer loop
      vertex 6.90983 0.489434 0
      vertex 12 12 0
      vertex 8.95471 0.054781 0
    endloop
  endfacet
  facet normal 0 0 -1
    outer loop
      vertex 8.95471 0.054781 0
      vertex 12 12 0
      vertex 196.045 0.054781 0
    endloop
  endfacet
  facet normal -0 0 -1
    outer loop
      vertex 198.09 86.5106 0
      vertex 193 75 0
      vertex 196.045 86.9452 0
    endloop
  endfacet
  facet normal 0 0 -1
    outer loop
      vertex 12 75 0
      vertex 196.045 86.9452 0
      vertex 193 75 0
    endloop
  endfacet
  facet normal 0 0 -1
    outer loop
      vertex 12 75 0
      vertex 8.95471 86.9452 0
      vertex 196.045 86.9452 0
    endloop
  endfacet
  facet normal -0 0 -1
    outer loop
      vertex 12 12 0
      vertex 0 10 0
      vertex 12 75 0
    endloop
  endfacet
  facet normal 0 0 -1
    outer loop
      vertex 5 1.33975 0
      vertex 12 12 0
      vertex 6.90983 0.489434 0
    endloop
  endfacet
  facet normal 0 0 -1
    outer loop
      vertex 0 77 0
      vertex 12 75 0
      vertex 0 10 0
    endloop
  endfacet
  facet normal 0 0 -1
    outer loop
      vertex 12 75 0
      vertex 6.90983 86.5106 0
      vertex 8.95471 86.9452 0
    endloop
  endfacet
  facet normal 0 0 -1
    outer loop
      vertex 3.30869 2.56855 0
      vertex 12 12 0
      vertex 5 1.33975 0
    endloop
  endfacet
  facet normal 0 0 -1
    outer loop
      vertex 1.90983 4.12215 0
      vertex 12 12 0
      vertex 3.30869 2.56855 0
    endloop
  endfacet
  facet normal 0 -0 -1
    outer loop
      vertex 0.218524 79.0791 0
      vertex 12 75 0
      vertex 0 77 0
    endloop
  endfacet
  facet normal 0 0 -1
    outer loop
      vertex 0.864545 5.93263 0
      vertex 12 12 0
      vertex 1.90983 4.12215 0
    endloop
  endfacet
  facet normal 0 0 -1
    outer loop
      vertex 12 75 0
      vertex 5 85.6603 0
      vertex 6.90983 86.5106 0
    endloop
  endfacet
  facet normal 0 0 -1
    outer loop
      vertex 0.218524 7.92088 0
      vertex 12 12 0
      vertex 0.864545 5.93263 0
    endloop
  endfacet
  facet normal 0 0 -1
    outer loop
      vertex 12 75 0
      vertex 3.30869 84.4314 0
      vertex 5 85.6603 0
    endloop
  endfacet
  facet normal 0 0 -1
    outer loop
      vertex 12 12 0
      vertex 0.218524 7.92088 0
      vertex 0 10 0
    endloop
  endfacet
  facet normal 0 0 -1
    outer loop
      vertex 12 75 0
      vertex 1.90983 82.8779 0
      vertex 3.30869 84.4314 0
    endloop
  endfacet
  facet normal 0 0 -1
    outer loop
      vertex 12 75 0
      vertex 0.864545 81.0674 0
      vertex 1.90983 82.8779 0
    endloop
  endfacet
  facet normal 0 0 -1
    outer loop
      vertex 12 75 0
      vertex 0.218524 79.0791 0
      vertex 0.864545 81.0674 0
    endloop
  endfacet
  facet normal -0 0 1
    outer loop
      vertex 202.781 77.0791 36
      vertex 205 77 36
      vertex 204.781 79.0791 36
    endloop
  endfacet
  facet normal 0 0 1
    outer loop
      vertex 205 77 36
      vertex 203 75 36
      vertex 205 10 36
    endloop
  endfacet
  facet normal 0 0 1
    outer loop
      vertex 202.135 79.0674 36
      vertex 204.781 79.0791 36
      vertex 204.135 81.0674 36
    endloop
  endfacet
  facet normal -0 0 1
    outer loop
      vertex 203 12 36
      vertex 205 10 36
      vertex 203 75 36
    endloop
  endfacet
  facet normal 0 0 1
    outer loop
      vertex 201.09 80.8779 36
      vertex 204.135 81.0674 36
      vertex 203.09 82.8779 36
    endloop
  endfacet
  facet normal 0 0 1
    outer loop
      vertex 202.781 9.92088 36
      vertex 205 10 36
      vertex 203 12 36
    endloop
  endfacet
  facet normal 0 0 1
    outer loop
      vertex 205 10 36
      vertex 202.781 9.92088 36
      vertex 204.781 7.92088 36
    endloop
  endfacet
  facet normal 0 0 1
    outer loop
      vertex 205 77 36
      vertex 202.781 77.0791 36
      vertex 203 75 36
    endloop
  endfacet
  facet normal 0 0 1
    outer loop
      vertex 204.781 79.0791 36
      vertex 202.135 79.0674 36
      vertex 202.781 77.0791 36
    endloop
  endfacet
  facet normal 0 0 1
    outer loop
      vertex 199.691 82.4314 36
      vertex 203.09 82.8779 36
      vertex 201.691 84.4314 36
    endloop
  endfacet
  facet normal 0 0 1
    outer loop
      vertex 204.135 81.0674 36
      vertex 201.09 80.8779 36
      vertex 202.135 79.0674 36
    endloop
  endfacet
  facet normal 0 0 1
    outer loop
      vertex 199.691 82.4314 36
      vertex 201.691 84.4314 36
      vertex 200 85.6603 36
    endloop
  endfacet
  facet normal 0 0 1
    outer loop
      vertex 203.09 82.8779 36
      vertex 199.691 82.4314 36
      vertex 201.09 80.8779 36
    endloop
  endfacet
  facet normal 0 0 1
    outer loop
      vertex 198 83.6603 36
      vertex 200 85.6603 36
      vertex 198.09 86.5106 36
    endloop
  endfacet
  facet normal 0 0 1
    outer loop
      vertex 200 85.6603 36
      vertex 198 83.6603 36
      vertex 199.691 82.4314 36
    endloop
  endfacet
  facet normal 0 0 1
    outer loop
      vertex 198.09 86.5106 36
      vertex 196.09 84.5106 36
      vertex 198 83.6603 36
    endloop
  endfacet
  facet normal 0 0 1
    outer loop
      vertex 196.045 86.9452 36
      vertex 196.09 84.5106 36
      vertex 198.09 86.5106 36
    endloop
  endfacet
  facet normal 0 0 1
    outer loop
      vertex 196.045 86.9452 36
      vertex 194.045 84.9452 36
      vertex 196.09 84.5106 36
    endloop
  endfacet
  facet normal 0 0 1
    outer loop
      vertex 196.045 86.9452 36
      vertex 10.9547 84.9452 36
      vertex 194.045 84.9452 36
    endloop
  endfacet
  facet normal -0 0 1
    outer loop
      vertex 8.95471 86.9452 36
      vertex 10.9547 84.9452 36
      vertex 196.045 86.9452 36
    endloop
  endfacet
  facet normal 0 0 1
    outer loop
      vertex 8.95471 86.9452 36
      vertex 8.90983 84.5106 36
      vertex 10.9547 84.9452 36
    endloop
  endfacet
  facet normal -0 0 1
    outer loop
      vertex 6.90983 86.5106 36
      vertex 8.90983 84.5106 36
      vertex 8.95471 86.9452 36
    endloop
  endfacet
  facet normal 0 0 1
    outer loop
      vertex 8.90983 84.5106 36
      vertex 6.90983 86.5106 36
      vertex 7 83.6603 36
    endloop
  endfacet
  facet normal -0 0 1
    outer loop
      vertex 5 85.6603 36
      vertex 7 83.6603 36
      vertex 6.90983 86.5106 36
    endloop
  endfacet
  facet normal 0 0 1
    outer loop
      vertex 7 83.6603 36
      vertex 5 85.6603 36
      vertex 5.30869 82.4314 36
    endloop
  endfacet
  facet normal -0 0 1
    outer loop
      vertex 3.30869 84.4314 36
      vertex 5.30869 82.4314 36
      vertex 5 85.6603 36
    endloop
  endfacet
  facet normal -0 0 1
    outer loop
      vertex 1.90983 82.8779 36
      vertex 5.30869 82.4314 36
      vertex 3.30869 84.4314 36
    endloop
  endfacet
  facet normal 0 0 1
    outer loop
      vertex 5.30869 82.4314 36
      vertex 1.90983 82.8779 36
      vertex 3.90983 80.8779 36
    endloop
  endfacet
  facet normal -0 0 1
    outer loop
      vertex 0.864545 81.0674 36
      vertex 3.90983 80.8779 36
      vertex 1.90983 82.8779 36
    endloop
  endfacet
  facet normal 0 0 1
    outer loop
      vertex 2.86454 79.0674 36
      vertex 0.218524 79.0791 36
      vertex 2.21852 77.0791 36
    endloop
  endfacet
  facet normal -0 0 1
    outer loop
      vertex 0.218524 79.0791 36
      vertex 2.86454 79.0674 36
      vertex 0.864545 81.0674 36
    endloop
  endfacet
  facet normal 0 0 1
    outer loop
      vertex 3.90983 80.8779 36
      vertex 0.864545 81.0674 36
      vertex 2.86454 79.0674 36
    endloop
  endfacet
  facet normal -0 0 1
    outer loop
      vertex 202.135 7.93263 36
      vertex 204.781 7.92088 36
      vertex 202.781 9.92088 36
    endloop
  endfacet
  facet normal 0 0 1
    outer loop
      vertex 204.781 7.92088 36
      vertex 202.135 7.93263 36
      vertex 204.135 5.93263 36
    endloop
  endfacet
  facet normal -0 0 1
    outer loop
      vertex 201.09 6.12215 36
      vertex 204.135 5.93263 36
      vertex 202.135 7.93263 36
    endloop
  endfacet
  facet normal 0 0 1
    outer loop
      vertex 204.135 5.93263 36
      vertex 201.09 6.12215 36
      vertex 203.09 4.12215 36
    endloop
  endfacet
  facet normal -0 0 1
    outer loop
      vertex 199.691 4.56855 36
      vertex 203.09 4.12215 36
      vertex 201.09 6.12215 36
    endloop
  endfacet
  facet normal 0 0 1
    outer loop
      vertex 203.09 4.12215 36
      vertex 199.691 4.56855 36
      vertex 201.691 2.56855 36
    endloop
  endfacet
  facet normal 0 0 1
    outer loop
      vertex 201.691 2.56855 36
      vertex 199.691 4.56855 36
      vertex 200 1.33975 36
    endloop
  endfacet
  facet normal -0 0 1
    outer loop
      vertex 198 3.33975 36
      vertex 200 1.33975 36
      vertex 199.691 4.56855 36
    endloop
  endfacet
  facet normal 0 0 1
    outer loop
      vertex 200 1.33975 36
      vertex 198 3.33975 36
      vertex 198.09 0.489434 36
    endloop
  endfacet
  facet normal -0 0 1
    outer loop
      vertex 196.09 2.48943 36
      vertex 198.09 0.489434 36
      vertex 198 3.33975 36
    endloop
  endfacet
  facet normal 0 0 1
    outer loop
      vertex 196.09 2.48943 36
      vertex 196.045 0.054781 36
      vertex 198.09 0.489434 36
    endloop
  endfacet
  facet normal -0 0 1
    outer loop
      vertex 194.045 2.05478 36
      vertex 196.045 0.054781 36
      vertex 196.09 2.48943 36
    endloop
  endfacet
  facet normal -0 0 1
    outer loop
      vertex 10.9547 2.05478 36
      vertex 196.045 0.054781 36
      vertex 194.045 2.05478 36
    endloop
  endfacet
  facet normal 0 0 1
    outer loop
      vertex 10.9547 2.05478 36
      vertex 8.95471 0.054781 36
      vertex 196.045 0.054781 36
    endloop
  endfacet
  facet normal 0 0 1
    outer loop
      vertex 8.90983 2.48943 36
      vertex 8.95471 0.054781 36
      vertex 10.9547 2.05478 36
    endloop
  endfacet
  facet normal 0 0 1
    outer loop
      vertex 6.90983 0.489434 36
      vertex 8.90983 2.48943 36
      vertex 7 3.33975 36
    endloop
  endfacet
  facet normal 0 0 1
    outer loop
      vertex 8.90983 2.48943 36
      vertex 6.90983 0.489434 36
      vertex 8.95471 0.054781 36
    endloop
  endfacet
  facet normal 0 0 1
    outer loop
      vertex 5 1.33975 36
      vertex 7 3.33975 36
      vertex 5.30869 4.56855 36
    endloop
  endfacet
  facet normal 0 0 1
    outer loop
      vertex 7 3.33975 36
      vertex 5 1.33975 36
      vertex 6.90983 0.489434 36
    endloop
  endfacet
  facet normal 0 0 1
    outer loop
      vertex 1.90983 4.12215 36
      vertex 5.30869 4.56855 36
      vertex 3.90983 6.12215 36
    endloop
  endfacet
  facet normal 0 0 1
    outer loop
      vertex 5.30869 4.56855 36
      vertex 3.30869 2.56855 36
      vertex 5 1.33975 36
    endloop
  endfacet
  facet normal 0 0 1
    outer loop
      vertex 0.864545 5.93263 36
      vertex 3.90983 6.12215 36
      vertex 2.86454 7.93263 36
    endloop
  endfacet
  facet normal 0 0 1
    outer loop
      vertex 0.218524 7.92088 36
      vertex 2.86454 7.93263 36
      vertex 2.21852 9.92088 36
    endloop
  endfacet
  facet normal 0 0 1
    outer loop
      vertex 5.30869 4.56855 36
      vertex 1.90983 4.12215 36
      vertex 3.30869 2.56855 36
    endloop
  endfacet
  facet normal -0 0 1
    outer loop
      vertex 0 10 36
      vertex 2.21852 9.92088 36
      vertex 2 12 36
    endloop
  endfacet
  facet normal 0 0 1
    outer loop
      vertex 2 75 36
      vertex 0 77 36
      vertex 2 12 36
    endloop
  endfacet
  facet normal 0 0 1
    outer loop
      vertex 0 77 36
      vertex 2.21852 77.0791 36
      vertex 0.218524 79.0791 36
    endloop
  endfacet
  facet normal 0 0 1
    outer loop
      vertex 0 10 36
      vertex 2 12 36
      vertex 0 77 36
    endloop
  endfacet
  facet normal 0 0 1
    outer loop
      vertex 2.21852 77.0791 36
      vertex 0 77 36
      vertex 2 75 36
    endloop
  endfacet
  facet normal 0 0 1
    outer loop
      vertex 2.21852 9.92088 36
      vertex 0 10 36
      vertex 0.218524 7.92088 36
    endloop
  endfacet
  facet normal 0 0 1
    outer loop
      vertex 3.90983 6.12215 36
      vertex 0.864545 5.93263 36
      vertex 1.90983 4.12215 36
    endloop
  endfacet
  facet normal 0 0 1
    outer loop
      vertex 2.86454 7.93263 36
      vertex 0.218524 7.92088 36
      vertex 0.864545 5.93263 36
    endloop
  endfacet
  facet normal -0.406737 -0.913545 0
    outer loop
      vertex 5 1.33975 0
      vertex 6.90983 0.489434 36
      vertex 5 1.33975 36
    endloop
  endfacet
  facet normal -0.406737 -0.913545 -0
    outer loop
      vertex 6.90983 0.489434 36
      vertex 5 1.33975 0
      vertex 6.90983 0.489434 0
    endloop
  endfacet
  facet normal -0.866025 0.5 0
    outer loop
      vertex 0.864545 81.0674 0
      vertex 1.90983 82.8779 36
      vertex 1.90983 82.8779 0
    endloop
  endfacet
  facet normal -0.866025 0.5 0
    outer loop
      vertex 1.90983 82.8779 36
      vertex 0.864545 81.0674 0
      vertex 0.864545 81.0674 36
    endloop
  endfacet
  facet normal -0.406737 0.913545 0
    outer loop
      vertex 6.90983 86.5106 0
      vertex 5 85.6603 36
      vertex 6.90983 86.5106 36
    endloop
  endfacet
  facet normal -0.406737 0.913545 0
    outer loop
      vertex 5 85.6603 36
      vertex 6.90983 86.5106 0
      vertex 5 85.6603 0
    endloop
  endfacet
  facet normal -0.587785 0.809017 0
    outer loop
      vertex 5 85.6603 0
      vertex 3.30869 84.4314 36
      vertex 5 85.6603 36
    endloop
  endfacet
  facet normal -0.587785 0.809017 0
    outer loop
      vertex 3.30869 84.4314 36
      vertex 5 85.6603 0
      vertex 3.30869 84.4314 0
    endloop
  endfacet
  facet normal 0.406736 0.913546 -0
    outer loop
      vertex 200 85.6603 0
      vertex 198.09 86.5106 36
      vertex 200 85.6603 36
    endloop
  endfacet
  facet normal 0.406736 0.913546 0
    outer loop
      vertex 198.09 86.5106 36
      vertex 200 85.6603 0
      vertex 198.09 86.5106 0
    endloop
  endfacet
  facet normal 0.587787 0.809016 -0
    outer loop
      vertex 201.691 84.4314 0
      vertex 200 85.6603 36
      vertex 201.691 84.4314 36
    endloop
  endfacet
  facet normal 0.587787 0.809016 0
    outer loop
      vertex 200 85.6603 36
      vertex 201.691 84.4314 0
      vertex 200 85.6603 0
    endloop
  endfacet
  facet normal 0.743145 -0.669131 0
    outer loop
      vertex 201.691 2.56855 36
      vertex 203.09 4.12215 0
      vertex 203.09 4.12215 36
    endloop
  endfacet
  facet normal 0.743145 -0.669131 0
    outer loop
      vertex 203.09 4.12215 0
      vertex 201.691 2.56855 36
      vertex 201.691 2.56855 0
    endloop
  endfacet
  facet normal 0.866025 -0.500001 0
    outer loop
      vertex 203.09 4.12215 36
      vertex 204.135 5.93263 0
      vertex 204.135 5.93263 36
    endloop
  endfacet
  facet normal 0.866025 -0.500001 0
    outer loop
      vertex 204.135 5.93263 0
      vertex 203.09 4.12215 36
      vertex 203.09 4.12215 0
    endloop
  endfacet
  facet normal 0.951056 -0.309019 0
    outer loop
      vertex 204.135 5.93263 36
      vertex 204.781 7.92088 0
      vertex 204.781 7.92088 36
    endloop
  endfacet
  facet normal 0.951056 -0.309019 0
    outer loop
      vertex 204.781 7.92088 0
      vertex 204.135 5.93263 36
      vertex 204.135 5.93263 0
    endloop
  endfacet
  facet normal 0.866025 0.500001 0
    outer loop
      vertex 204.135 81.0674 36
      vertex 203.09 82.8779 0
      vertex 203.09 82.8779 36
    endloop
  endfacet
  facet normal 0.866025 0.500001 0
    outer loop
      vertex 203.09 82.8779 0
      vertex 204.135 81.0674 36
      vertex 204.135 81.0674 0
    endloop
  endfacet
  facet normal 0.951056 0.309019 0
    outer loop
      vertex 204.781 79.0791 36
      vertex 204.135 81.0674 0
      vertex 204.135 81.0674 36
    endloop
  endfacet
  facet normal 0.951056 0.309019 0
    outer loop
      vertex 204.135 81.0674 0
      vertex 204.781 79.0791 36
      vertex 204.781 79.0791 0
    endloop
  endfacet
  facet normal 0.994522 0.104527 0
    outer loop
      vertex 205 77 36
      vertex 204.781 79.0791 0
      vertex 204.781 79.0791 36
    endloop
  endfacet
  facet normal 0.994522 0.104527 0
    outer loop
      vertex 204.781 79.0791 0
      vertex 205 77 36
      vertex 205 77 0
    endloop
  endfacet
  facet normal -0.951057 -0.309017 0
    outer loop
      vertex 0.864545 5.93263 0
      vertex 0.218524 7.92088 36
      vertex 0.218524 7.92088 0
    endloop
  endfacet
  facet normal -0.951057 -0.309017 0
    outer loop
      vertex 0.218524 7.92088 36
      vertex 0.864545 5.93263 0
      vertex 0.864545 5.93263 36
    endloop
  endfacet
  facet normal -0.994522 -0.104528 0
    outer loop
      vertex 0.218524 7.92088 0
      vertex 0 10 36
      vertex 0 10 0
    endloop
  endfacet
  facet normal -0.994522 -0.104528 0
    outer loop
      vertex 0 10 36
      vertex 0.218524 7.92088 0
      vertex 0.218524 7.92088 36
    endloop
  endfacet
  facet normal -0.866026 -0.5 0
    outer loop
      vertex 1.90983 4.12215 0
      vertex 0.864545 5.93263 36
      vertex 0.864545 5.93263 0
    endloop
  endfacet
  facet normal -0.866026 -0.5 0
    outer loop
      vertex 0.864545 5.93263 36
      vertex 1.90983 4.12215 0
      vertex 1.90983 4.12215 36
    endloop
  endfacet
  facet normal -0.587785 -0.809017 0
    outer loop
      vertex 3.30869 2.56855 0
      vertex 5 1.33975 36
      vertex 3.30869 2.56855 36
    endloop
  endfacet
  facet normal -0.587785 -0.809017 -0
    outer loop
      vertex 5 1.33975 36
      vertex 3.30869 2.56855 0
      vertex 5 1.33975 0
    endloop
  endfacet
  facet normal 0 -1 0
    outer loop
      vertex 10.9547 84.9452 11
      vertex 194.045 84.9452 36
      vertex 10.9547 84.9452 36
    endloop
  endfacet
  facet normal 0 -1 -0
    outer loop
      vertex 194.045 84.9452 36
      vertex 10.9547 84.9452 11
      vertex 194.045 84.9452 11
    endloop
  endfacet
  facet normal 0.207912 -0.978148 0
    outer loop
      vertex 8.90983 84.5106 11
      vertex 10.9547 84.9452 36
      vertex 8.90983 84.5106 36
    endloop
  endfacet
  facet normal 0.207912 -0.978148 0
    outer loop
      vertex 10.9547 84.9452 36
      vertex 8.90983 84.5106 11
      vertex 10.9547 84.9452 11
    endloop
  endfacet
  facet normal 0.207911 0.978148 -0
    outer loop
      vertex 10.9547 2.05478 11
      vertex 8.90983 2.48943 36
      vertex 10.9547 2.05478 36
    endloop
  endfacet
  facet normal 0.207911 0.978148 0
    outer loop
      vertex 8.90983 2.48943 36
      vertex 10.9547 2.05478 11
      vertex 8.90983 2.48943 11
    endloop
  endfacet
  facet normal -0.406736 0.913546 0
    outer loop
      vertex 198 3.33975 11
      vertex 196.09 2.48943 36
      vertex 198 3.33975 36
    endloop
  endfacet
  facet normal -0.406736 0.913546 0
    outer loop
      vertex 196.09 2.48943 36
      vertex 198 3.33975 11
      vertex 196.09 2.48943 11
    endloop
  endfacet
  facet normal 0 1 -0
    outer loop
      vertex 194.045 2.05478 11
      vertex 10.9547 2.05478 36
      vertex 194.045 2.05478 36
    endloop
  endfacet
  facet normal 0 1 0
    outer loop
      vertex 10.9547 2.05478 36
      vertex 194.045 2.05478 11
      vertex 10.9547 2.05478 11
    endloop
  endfacet
  facet normal 0.951057 -0.309017 0
    outer loop
      vertex 2.21852 77.0791 36
      vertex 2.86454 79.0674 11
      vertex 2.86454 79.0674 36
    endloop
  endfacet
  facet normal 0.951057 -0.309017 0
    outer loop
      vertex 2.86454 79.0674 11
      vertex 2.21852 77.0791 36
      vertex 2.21852 77.0791 11
    endloop
  endfacet
  facet normal 0.587785 -0.809017 0
    outer loop
      vertex 5.30869 82.4314 11
      vertex 7 83.6603 36
      vertex 5.30869 82.4314 36
    endloop
  endfacet
  facet normal 0.587785 -0.809017 0
    outer loop
      vertex 7 83.6603 36
      vertex 5.30869 82.4314 11
      vertex 7 83.6603 11
    endloop
  endfacet
  facet normal -1 0 0
    outer loop
      vertex 203 12 11
      vertex 203 75 36
      vertex 203 75 11
    endloop
  endfacet
  facet normal -1 -0 0
    outer loop
      vertex 203 75 36
      vertex 203 12 11
      vertex 203 12 36
    endloop
  endfacet
  facet normal 0.743145 0.669131 0
    outer loop
      vertex 5.30869 4.56855 36
      vertex 3.90983 6.12215 11
      vertex 3.90983 6.12215 36
    endloop
  endfacet
  facet normal 0.743145 0.669131 0
    outer loop
      vertex 3.90983 6.12215 11
      vertex 5.30869 4.56855 36
      vertex 5.30869 4.56855 11
    endloop
  endfacet
  facet normal 1 -0 0
    outer loop
      vertex 2 12 36
      vertex 2 75 11
      vertex 2 75 36
    endloop
  endfacet
  facet normal 1 0 0
    outer loop
      vertex 2 75 11
      vertex 2 12 36
      vertex 2 12 11
    endloop
  endfacet
  facet normal 0.994522 -0.104528 0
    outer loop
      vertex 2 75 36
      vertex 2.21852 77.0791 11
      vertex 2.21852 77.0791 36
    endloop
  endfacet
  facet normal 0.994522 -0.104528 0
    outer loop
      vertex 2.21852 77.0791 11
      vertex 2 75 36
      vertex 2 75 11
    endloop
  endfacet
  facet normal 0.743145 -0.669131 0
    outer loop
      vertex 3.90983 80.8779 36
      vertex 5.30869 82.4314 11
      vertex 5.30869 82.4314 36
    endloop
  endfacet
  facet normal 0.743145 -0.669131 0
    outer loop
      vertex 5.30869 82.4314 11
      vertex 3.90983 80.8779 36
      vertex 3.90983 80.8779 11
    endloop
  endfacet
  facet normal -0.207913 -0.978147 0
    outer loop
      vertex 194.045 84.9452 11
      vertex 196.09 84.5106 36
      vertex 194.045 84.9452 36
    endloop
  endfacet
  facet normal -0.207913 -0.978147 -0
    outer loop
      vertex 196.09 84.5106 36
      vertex 194.045 84.9452 11
      vertex 196.09 84.5106 11
    endloop
  endfacet
  facet normal -0.743145 -0.669131 0
    outer loop
      vertex 201.09 80.8779 11
      vertex 199.691 82.4314 36
      vertex 199.691 82.4314 11
    endloop
  endfacet
  facet normal -0.743145 -0.669131 0
    outer loop
      vertex 199.691 82.4314 36
      vertex 201.09 80.8779 11
      vertex 201.09 80.8779 36
    endloop
  endfacet
  facet normal -0.994522 0.104527 0
    outer loop
      vertex 202.781 9.92088 11
      vertex 203 12 36
      vertex 203 12 11
    endloop
  endfacet
  facet normal -0.994522 0.104527 0
    outer loop
      vertex 203 12 36
      vertex 202.781 9.92088 11
      vertex 202.781 9.92088 36
    endloop
  endfacet
  facet normal -0.587787 0.809016 0
    outer loop
      vertex 199.691 4.56855 11
      vertex 198 3.33975 36
      vertex 199.691 4.56855 36
    endloop
  endfacet
  facet normal -0.587787 0.809016 0
    outer loop
      vertex 198 3.33975 36
      vertex 199.691 4.56855 11
      vertex 198 3.33975 11
    endloop
  endfacet
  facet normal -0.207912 0.978147 0
    outer loop
      vertex 196.09 2.48943 11
      vertex 194.045 2.05478 36
      vertex 196.09 2.48943 36
    endloop
  endfacet
  facet normal -0.207912 0.978147 0
    outer loop
      vertex 194.045 2.05478 36
      vertex 196.09 2.48943 11
      vertex 194.045 2.05478 11
    endloop
  endfacet
  facet normal 0 0 1
    outer loop
      vertex 196 78 11
      vertex 203 75 11
      vertex 202.781 77.0791 11
    endloop
  endfacet
  facet normal 0 0 1
    outer loop
      vertex 203 75 11
      vertex 196 78 11
      vertex 203 12 11
    endloop
  endfacet
  facet normal -0 0 1
    outer loop
      vertex 196 78 11
      vertex 202.781 77.0791 11
      vertex 202.135 79.0674 11
    endloop
  endfacet
  facet normal 0 0 1
    outer loop
      vertex 196 9 11
      vertex 203 12 11
      vertex 196 78 11
    endloop
  endfacet
  facet normal 0 0 1
    outer loop
      vertex 196 78 11
      vertex 202.135 79.0674 11
      vertex 201.09 80.8779 11
    endloop
  endfacet
  facet normal 0 0 1
    outer loop
      vertex 203 12 11
      vertex 196 9 11
      vertex 202.781 9.92088 11
    endloop
  endfacet
  facet normal 0 0 1
    outer loop
      vertex 196 78 11
      vertex 201.09 80.8779 11
      vertex 199.691 82.4314 11
    endloop
  endfacet
  facet normal 0 0 1
    outer loop
      vertex 202.781 9.92088 11
      vertex 196 9 11
      vertex 202.135 7.93263 11
    endloop
  endfacet
  facet normal 0 0 1
    outer loop
      vertex 196 78 11
      vertex 199.691 82.4314 11
      vertex 198 83.6603 11
    endloop
  endfacet
  facet normal 0 0 1
    outer loop
      vertex 202.135 7.93263 11
      vertex 196 9 11
      vertex 201.09 6.12215 11
    endloop
  endfacet
  facet normal 0 0 1
    outer loop
      vertex 196 78 11
      vertex 198 83.6603 11
      vertex 196.09 84.5106 11
    endloop
  endfacet
  facet normal 0 0 1
    outer loop
      vertex 201.09 6.12215 11
      vertex 196 9 11
      vertex 199.691 4.56855 11
    endloop
  endfacet
  facet normal 0 0 1
    outer loop
      vertex 199.691 4.56855 11
      vertex 196 9 11
      vertex 198 3.33975 11
    endloop
  endfacet
  facet normal 0 0 1
    outer loop
      vertex 194.045 84.9452 11
      vertex 196 78 11
      vertex 196.09 84.5106 11
    endloop
  endfacet
  facet normal -0 0 1
    outer loop
      vertex 10.9547 84.9452 11
      vertex 196 78 11
      vertex 194.045 84.9452 11
    endloop
  endfacet
  facet normal 0 0 1
    outer loop
      vertex 10.9547 84.9452 11
      vertex 9 78 11
      vertex 196 78 11
    endloop
  endfacet
  facet normal -0 0 1
    outer loop
      vertex 7 83.6603 11
      vertex 9 78 11
      vertex 8.90983 84.5106 11
    endloop
  endfacet
  facet normal -0 0 1
    outer loop
      vertex 8.90983 84.5106 11
      vertex 9 78 11
      vertex 10.9547 84.9452 11
    endloop
  endfacet
  facet normal 0 0 1
    outer loop
      vertex 198 3.33975 11
      vertex 196 9 11
      vertex 196.09 2.48943 11
    endloop
  endfacet
  facet normal 0 0 1
    outer loop
      vertex 196 9 11
      vertex 194.045 2.05478 11
      vertex 196.09 2.48943 11
    endloop
  endfacet
  facet normal 0 0 1
    outer loop
      vertex 196 9 11
      vertex 10.9547 2.05478 11
      vertex 194.045 2.05478 11
    endloop
  endfacet
  facet normal -0 0 1
    outer loop
      vertex 9 9 11
      vertex 10.9547 2.05478 11
      vertex 196 9 11
    endloop
  endfacet
  facet normal 0 0 1
    outer loop
      vertex 9 9 11
      vertex 8.90983 2.48943 11
      vertex 10.9547 2.05478 11
    endloop
  endfacet
  facet normal 0 0 1
    outer loop
      vertex 9 78 11
      vertex 2 75 11
      vertex 9 9 11
    endloop
  endfacet
  facet normal -0 0 1
    outer loop
      vertex 5.30869 82.4314 11
      vertex 9 78 11
      vertex 7 83.6603 11
    endloop
  endfacet
  facet normal -0 0 1
    outer loop
      vertex 2 12 11
      vertex 9 9 11
      vertex 2 75 11
    endloop
  endfacet
  facet normal -0 0 1
    outer loop
      vertex 3.90983 80.8779 11
      vertex 9 78 11
      vertex 5.30869 82.4314 11
    endloop
  endfacet
  facet normal -0 -0 1
    outer loop
      vertex 2.21852 9.92088 11
      vertex 9 9 11
      vertex 2 12 11
    endloop
  endfacet
  facet normal -0 0 1
    outer loop
      vertex 2.86454 79.0674 11
      vertex 9 78 11
      vertex 3.90983 80.8779 11
    endloop
  endfacet
  facet normal 0 0 1
    outer loop
      vertex 9 9 11
      vertex 7 3.33975 11
      vertex 8.90983 2.48943 11
    endloop
  endfacet
  facet normal 0 0 1
    outer loop
      vertex 2.21852 77.0791 11
      vertex 9 78 11
      vertex 2.86454 79.0674 11
    endloop
  endfacet
  facet normal 0 0 1
    outer loop
      vertex 9 9 11
      vertex 5.30869 4.56855 11
      vertex 7 3.33975 11
    endloop
  endfacet
  facet normal 0 0 1
    outer loop
      vertex 9 78 11
      vertex 2.21852 77.0791 11
      vertex 2 75 11
    endloop
  endfacet
  facet normal 0 0 1
    outer loop
      vertex 9 9 11
      vertex 3.90983 6.12215 11
      vertex 5.30869 4.56855 11
    endloop
  endfacet
  facet normal 0 0 1
    outer loop
      vertex 9 9 11
      vertex 2.86454 7.93263 11
      vertex 3.90983 6.12215 11
    endloop
  endfacet
  facet normal 0 0 1
    outer loop
      vertex 9 9 11
      vertex 2.21852 9.92088 11
      vertex 2.86454 7.93263 11
    endloop
  endfacet
  facet normal 0.406737 0.913545 -0
    outer loop
      vertex 8.90983 2.48943 11
      vertex 7 3.33975 36
      vertex 8.90983 2.48943 36
    endloop
  endfacet
  facet normal 0.406737 0.913545 0
    outer loop
      vertex 7 3.33975 36
      vertex 8.90983 2.48943 11
      vertex 7 3.33975 11
    endloop
  endfacet
  facet normal 0.866025 -0.5 0
    outer loop
      vertex 2.86454 79.0674 36
      vertex 3.90983 80.8779 11
      vertex 3.90983 80.8779 36
    endloop
  endfacet
  facet normal 0.866025 -0.5 0
    outer loop
      vertex 3.90983 80.8779 11
      vertex 2.86454 79.0674 36
      vertex 2.86454 79.0674 11
    endloop
  endfacet
  facet normal 0.406737 -0.913545 0
    outer loop
      vertex 7 83.6603 11
      vertex 8.90983 84.5106 36
      vertex 7 83.6603 36
    endloop
  endfacet
  facet normal 0.406737 -0.913545 0
    outer loop
      vertex 8.90983 84.5106 36
      vertex 7 83.6603 11
      vertex 8.90983 84.5106 11
    endloop
  endfacet
  facet normal -0.406736 -0.913546 0
    outer loop
      vertex 196.09 84.5106 11
      vertex 198 83.6603 36
      vertex 196.09 84.5106 36
    endloop
  endfacet
  facet normal -0.406736 -0.913546 -0
    outer loop
      vertex 198 83.6603 36
      vertex 196.09 84.5106 11
      vertex 198 83.6603 11
    endloop
  endfacet
  facet normal -0.587787 -0.809016 0
    outer loop
      vertex 198 83.6603 11
      vertex 199.691 82.4314 36
      vertex 198 83.6603 36
    endloop
  endfacet
  facet normal -0.587787 -0.809016 -0
    outer loop
      vertex 199.691 82.4314 36
      vertex 198 83.6603 11
      vertex 199.691 82.4314 11
    endloop
  endfacet
  facet normal -0.743145 0.669131 0
    outer loop
      vertex 199.691 4.56855 11
      vertex 201.09 6.12215 36
      vertex 201.09 6.12215 11
    endloop
  endfacet
  facet normal -0.743145 0.669131 0
    outer loop
      vertex 201.09 6.12215 36
      vertex 199.691 4.56855 11
      vertex 199.691 4.56855 36
    endloop
  endfacet
  facet normal -0.866025 0.500001 0
    outer loop
      vertex 201.09 6.12215 11
      vertex 202.135 7.93263 36
      vertex 202.135 7.93263 11
    endloop
  endfacet
  facet normal -0.866025 0.500001 0
    outer loop
      vertex 202.135 7.93263 36
      vertex 201.09 6.12215 11
      vertex 201.09 6.12215 36
    endloop
  endfacet
  facet normal -0.951056 0.309019 0
    outer loop
      vertex 202.135 7.93263 11
      vertex 202.781 9.92088 36
      vertex 202.781 9.92088 11
    endloop
  endfacet
  facet normal -0.951056 0.309019 0
    outer loop
      vertex 202.781 9.92088 36
      vertex 202.135 7.93263 11
      vertex 202.135 7.93263 36
    endloop
  endfacet
  facet normal -0.866025 -0.500001 0
    outer loop
      vertex 202.135 79.0674 11
      vertex 201.09 80.8779 36
      vertex 201.09 80.8779 11
    endloop
  endfacet
  facet normal -0.866025 -0.500001 0
    outer loop
      vertex 201.09 80.8779 36
      vertex 202.135 79.0674 11
      vertex 202.135 79.0674 36
    endloop
  endfacet
  facet normal -0.951056 -0.309019 0
    outer loop
      vertex 202.781 77.0791 11
      vertex 202.135 79.0674 36
      vertex 202.135 79.0674 11
    endloop
  endfacet
  facet normal -0.951056 -0.309019 0
    outer loop
      vertex 202.135 79.0674 36
      vertex 202.781 77.0791 11
      vertex 202.781 77.0791 36
    endloop
  endfacet
  facet normal -0.994522 -0.104527 0
    outer loop
      vertex 203 75 11
      vertex 202.781 77.0791 36
      vertex 202.781 77.0791 11
    endloop
  endfacet
  facet normal -0.994522 -0.104527 0
    outer loop
      vertex 202.781 77.0791 36
      vertex 203 75 11
      vertex 203 75 36
    endloop
  endfacet
  facet normal 0.951057 0.309017 0
    outer loop
      vertex 2.86454 7.93263 36
      vertex 2.21852 9.92088 11
      vertex 2.21852 9.92088 36
    endloop
  endfacet
  facet normal 0.951057 0.309017 0
    outer loop
      vertex 2.21852 9.92088 11
      vertex 2.86454 7.93263 36
      vertex 2.86454 7.93263 11
    endloop
  endfacet
  facet normal 0.994522 0.104528 0
    outer loop
      vertex 2.21852 9.92088 36
      vertex 2 12 11
      vertex 2 12 36
    endloop
  endfacet
  facet normal 0.994522 0.104528 0
    outer loop
      vertex 2 12 11
      vertex 2.21852 9.92088 36
      vertex 2.21852 9.92088 11
    endloop
  endfacet
  facet normal 0.866026 0.5 0
    outer loop
      vertex 3.90983 6.12215 36
      vertex 2.86454 7.93263 11
      vertex 2.86454 7.93263 36
    endloop
  endfacet
  facet normal 0.866026 0.5 0
    outer loop
      vertex 2.86454 7.93263 11
      vertex 3.90983 6.12215 36
      vertex 3.90983 6.12215 11
    endloop
  endfacet
  facet normal 0.587785 0.809017 -0
    outer loop
      vertex 7 3.33975 11
      vertex 5.30869 4.56855 36
      vertex 7 3.33975 36
    endloop
  endfacet
  facet normal 0.587785 0.809017 0
    outer loop
      vertex 5.30869 4.56855 36
      vertex 7 3.33975 11
      vertex 5.30869 4.56855 11
    endloop
  endfacet
  facet normal 1 -0 0
    outer loop
      vertex 12 12 2
      vertex 12 75 0
      vertex 12 75 2
    endloop
  endfacet
  facet normal 1 0 0
    outer loop
      vertex 12 75 0
      vertex 12 12 2
      vertex 12 12 0
    endloop
  endfacet
  facet normal 0 0 1
    outer loop
      vertex 196 78 2
      vertex 193 75 2
      vertex 196 9 2
    endloop
  endfacet
  facet normal 0 0 1
    outer loop
      vertex 196 78 2
      vertex 12 75 2
      vertex 193 75 2
    endloop
  endfacet
  facet normal 0 0 1
    outer loop
      vertex 12 75 2
      vertex 9 78 2
      vertex 12 12 2
    endloop
  endfacet
  facet normal -0 0 1
    outer loop
      vertex 9 78 2
      vertex 12 75 2
      vertex 196 78 2
    endloop
  endfacet
  facet normal -0 0 1
    outer loop
      vertex 193 12 2
      vertex 196 9 2
      vertex 193 75 2
    endloop
  endfacet
  facet normal -0 0 1
    outer loop
      vertex 12 12 2
      vertex 196 9 2
      vertex 193 12 2
    endloop
  endfacet
  facet normal 0 0 1
    outer loop
      vertex 12 12 2
      vertex 9 9 2
      vertex 196 9 2
    endloop
  endfacet
  facet normal 0 0 1
    outer loop
      vertex 9 9 2
      vertex 12 12 2
      vertex 9 78 2
    endloop
  endfacet
  facet normal -1 0 0
    outer loop
      vertex 193 12 0
      vertex 193 75 2
      vertex 193 75 0
    endloop
  endfacet
  facet normal -1 -0 0
    outer loop
      vertex 193 75 2
      vertex 193 12 0
      vertex 193 12 2
    endloop
  endfacet
  facet normal 0 1 -0
    outer loop
      vertex 193 12 0
      vertex 12 12 2
      vertex 193 12 2
    endloop
  endfacet
  facet normal 0 1 0
    outer loop
      vertex 12 12 2
      vertex 193 12 0
      vertex 12 12 0
    endloop
  endfacet
  facet normal 0 -1 0
    outer loop
      vertex 12 75 0
      vertex 193 75 2
      vertex 12 75 2
    endloop
  endfacet
  facet normal 0 -1 -0
    outer loop
      vertex 193 75 2
      vertex 12 75 0
      vertex 193 75 0
    endloop
  endfacet
  facet normal 1 -0 0
    outer loop
      vertex 9 9 11
      vertex 9 78 2
      vertex 9 78 11
    endloop
  endfacet
  facet normal 1 0 0
    outer loop
      vertex 9 78 2
      vertex 9 9 11
      vertex 9 9 2
    endloop
  endfacet
  facet normal -1 0 0
    outer loop
      vertex 196 9 2
      vertex 196 78 11
      vertex 196 78 2
    endloop
  endfacet
  facet normal -1 -0 0
    outer loop
      vertex 196 78 11
      vertex 196 9 2
      vertex 196 9 11
    endloop
  endfacet
  facet normal 0 -1 0
    outer loop
      vertex 9 78 2
      vertex 196 78 11
      vertex 9 78 11
    endloop
  endfacet
  facet normal 0 -1 -0
    outer loop
      vertex 196 78 11
      vertex 9 78 2
      vertex 196 78 2
    endloop
  endfacet
  facet normal 0 1 -0
    outer loop
      vertex 196 9 2
      vertex 9 9 11
      vertex 196 9 11
    endloop
  endfacet
  facet normal 0 1 0
    outer loop
      vertex 9 9 11
      vertex 196 9 2
      vertex 9 9 2
    endloop
  endfacet
endsolid OpenSCAD_Model
