solid OpenSCAD_Model
  facet normal -1 0 0
    outer loop
      vertex -35 -10 -2.5
      vertex -35 10 2.5
      vertex -35 10 -2.5
    endloop
  endfacet
  facet normal -1 -0 0
    outer loop
      vertex -35 10 2.5
      vertex -35 -10 -2.5
      vertex -35 -10 2.5
    endloop
  endfacet
  facet normal 0 0 1
    outer loop
      vertex -30 10 2.5
      vertex -35 10 2.5
      vertex -30 -5 2.5
    endloop
  endfacet
  facet normal 0 0 1
    outer loop
      vertex -21.5 10 2.5
      vertex -26 10 2.5
      vertex -21.5 -5 2.5
    endloop
  endfacet
  facet normal 0 0 1
    outer loop
      vertex -7 10 2.5
      vertex -11.5 10 2.5
      vertex -7 -5 2.5
    endloop
  endfacet
  facet normal 0 0 1
    outer loop
      vertex 3 10 2.5
      vertex -3 10 2.5
      vertex 3 -5 2.5
    endloop
  endfacet
  facet normal 0 0 1
    outer loop
      vertex 11.5 10 2.5
      vertex 7 10 2.5
      vertex 11.5 -5 2.5
    endloop
  endfacet
  facet normal 0 0 1
    outer loop
      vertex 26 10 2.5
      vertex 21.5 10 2.5
      vertex 26 -5 2.5
    endloop
  endfacet
  facet normal 0 0 1
    outer loop
      vertex 30 -5 2.5
      vertex 35 10 2.5
      vertex 30 10 2.5
    endloop
  endfacet
  facet normal 0 0 1
    outer loop
      vertex 35 10 2.5
      vertex 30 -5 2.5
      vertex 35 -10 2.5
    endloop
  endfacet
  facet normal -0 0 1
    outer loop
      vertex 26 -5 2.5
      vertex 35 -10 2.5
      vertex 30 -5 2.5
    endloop
  endfacet
  facet normal 0 0 1
    outer loop
      vertex 21.5 -5 2.5
      vertex 26 -5 2.5
      vertex 21.5 10 2.5
    endloop
  endfacet
  facet normal -0 0 1
    outer loop
      vertex 21.5 -5 2.5
      vertex 35 -10 2.5
      vertex 26 -5 2.5
    endloop
  endfacet
  facet normal -0 0 1
    outer loop
      vertex 11.5 -5 2.5
      vertex 35 -10 2.5
      vertex 21.5 -5 2.5
    endloop
  endfacet
  facet normal 0 0 1
    outer loop
      vertex 7 -5 2.5
      vertex 11.5 -5 2.5
      vertex 7 10 2.5
    endloop
  endfacet
  facet normal -0 0 1
    outer loop
      vertex 7 -5 2.5
      vertex 35 -10 2.5
      vertex 11.5 -5 2.5
    endloop
  endfacet
  facet normal -0 0 1
    outer loop
      vertex 3 -5 2.5
      vertex 35 -10 2.5
      vertex 7 -5 2.5
    endloop
  endfacet
  facet normal 0 0 1
    outer loop
      vertex -3 -5 2.5
      vertex 3 -5 2.5
      vertex -3 10 2.5
    endloop
  endfacet
  facet normal -0 0 1
    outer loop
      vertex -3 -5 2.5
      vertex 35 -10 2.5
      vertex 3 -5 2.5
    endloop
  endfacet
  facet normal 0 0 1
    outer loop
      vertex -35 -10 2.5
      vertex -3 -5 2.5
      vertex -7 -5 2.5
    endloop
  endfacet
  facet normal 0 0 1
    outer loop
      vertex -11.5 -5 2.5
      vertex -7 -5 2.5
      vertex -11.5 10 2.5
    endloop
  endfacet
  facet normal 0 0 1
    outer loop
      vertex -35 -10 2.5
      vertex -7 -5 2.5
      vertex -11.5 -5 2.5
    endloop
  endfacet
  facet normal 0 0 1
    outer loop
      vertex -35 -10 2.5
      vertex -11.5 -5 2.5
      vertex -21.5 -5 2.5
    endloop
  endfacet
  facet normal 0 0 1
    outer loop
      vertex -26 -5 2.5
      vertex -21.5 -5 2.5
      vertex -26 10 2.5
    endloop
  endfacet
  facet normal 0 0 1
    outer loop
      vertex -35 -10 2.5
      vertex -21.5 -5 2.5
      vertex -26 -5 2.5
    endloop
  endfacet
  facet normal 0 0 1
    outer loop
      vertex -35 -10 2.5
      vertex -26 -5 2.5
      vertex -30 -5 2.5
    endloop
  endfacet
  facet normal 0 0 1
    outer loop
      vertex -3 -5 2.5
      vertex -35 -10 2.5
      vertex 35 -10 2.5
    endloop
  endfacet
  facet normal 0 0 1
    outer loop
      vertex -35 -10 2.5
      vertex -30 -5 2.5
      vertex -35 10 2.5
    endloop
  endfacet
  facet normal 1 -0 0
    outer loop
      vertex 35 -10 2.5
      vertex 35 10 -2.5
      vertex 35 10 2.5
    endloop
  endfacet
  facet normal 1 0 0
    outer loop
      vertex 35 10 -2.5
      vertex 35 -10 2.5
      vertex 35 -10 -2.5
    endloop
  endfacet
  facet normal 0 1 -0
    outer loop
      vertex 35 10 -2.5
      vertex 30 10 2.5
      vertex 35 10 2.5
    endloop
  endfacet
  facet normal 0 1 0
    outer loop
      vertex 30 10 2.5
      vertex 35 10 -2.5
      vertex 30 10 -2.5
    endloop
  endfacet
  facet normal 0 1 -0
    outer loop
      vertex -30 10 -2.5
      vertex -35 10 2.5
      vertex -30 10 2.5
    endloop
  endfacet
  facet normal 0 1 0
    outer loop
      vertex -35 10 2.5
      vertex -30 10 -2.5
      vertex -35 10 -2.5
    endloop
  endfacet
  facet normal 0 1 -0
    outer loop
      vertex 3 10 -2.5
      vertex -3 10 2.5
      vertex 3 10 2.5
    endloop
  endfacet
  facet normal 0 1 0
    outer loop
      vertex -3 10 2.5
      vertex 3 10 -2.5
      vertex -3 10 -2.5
    endloop
  endfacet
  facet normal 0 1 -0
    outer loop
      vertex 11.5 10 -2.5
      vertex 7 10 2.5
      vertex 11.5 10 2.5
    endloop
  endfacet
  facet normal 0 1 0
    outer loop
      vertex 7 10 2.5
      vertex 11.5 10 -2.5
      vertex 7 10 -2.5
    endloop
  endfacet
  facet normal 0 1 -0
    outer loop
      vertex -7 10 -2.5
      vertex -11.5 10 2.5
      vertex -7 10 2.5
    endloop
  endfacet
  facet normal 0 1 0
    outer loop
      vertex -11.5 10 2.5
      vertex -7 10 -2.5
      vertex -11.5 10 -2.5
    endloop
  endfacet
  facet normal 0 1 -0
    outer loop
      vertex 26 10 -2.5
      vertex 21.5 10 2.5
      vertex 26 10 2.5
    endloop
  endfacet
  facet normal 0 1 0
    outer loop
      vertex 21.5 10 2.5
      vertex 26 10 -2.5
      vertex 21.5 10 -2.5
    endloop
  endfacet
  facet normal 0 1 -0
    outer loop
      vertex -21.5 10 -2.5
      vertex -26 10 2.5
      vertex -21.5 10 2.5
    endloop
  endfacet
  facet normal 0 1 0
    outer loop
      vertex -26 10 2.5
      vertex -21.5 10 -2.5
      vertex -26 10 -2.5
    endloop
  endfacet
  facet normal 0 0 -1
    outer loop
      vertex 35 -10 -2.5
      vertex 30 -5 -2.5
      vertex 35 10 -2.5
    endloop
  endfacet
  facet normal 0 0 -1
    outer loop
      vertex 35 -10 -2.5
      vertex 26 -5 -2.5
      vertex 30 -5 -2.5
    endloop
  endfacet
  facet normal 0 0 -1
    outer loop
      vertex 26 -5 -2.5
      vertex 21.5 -5 -2.5
      vertex 26 10 -2.5
    endloop
  endfacet
  facet normal 0 0 -1
    outer loop
      vertex 35 -10 -2.5
      vertex 21.5 -5 -2.5
      vertex 26 -5 -2.5
    endloop
  endfacet
  facet normal 0 0 -1
    outer loop
      vertex 35 -10 -2.5
      vertex 11.5 -5 -2.5
      vertex 21.5 -5 -2.5
    endloop
  endfacet
  facet normal 0 0 -1
    outer loop
      vertex 11.5 -5 -2.5
      vertex 7 -5 -2.5
      vertex 11.5 10 -2.5
    endloop
  endfacet
  facet normal 0 0 -1
    outer loop
      vertex 35 -10 -2.5
      vertex 7 -5 -2.5
      vertex 11.5 -5 -2.5
    endloop
  endfacet
  facet normal 0 0 -1
    outer loop
      vertex 35 -10 -2.5
      vertex 3 -5 -2.5
      vertex 7 -5 -2.5
    endloop
  endfacet
  facet normal 0 0 -1
    outer loop
      vertex 3 -5 -2.5
      vertex -3 -5 -2.5
      vertex 3 10 -2.5
    endloop
  endfacet
  facet normal 0 0 -1
    outer loop
      vertex 35 -10 -2.5
      vertex -3 -5 -2.5
      vertex 3 -5 -2.5
    endloop
  endfacet
  facet normal 0 0 -1
    outer loop
      vertex -35 -10 -2.5
      vertex -3 -5 -2.5
      vertex 35 -10 -2.5
    endloop
  endfacet
  facet normal 0 0 -1
    outer loop
      vertex -7 -5 -2.5
      vertex -11.5 -5 -2.5
      vertex -7 10 -2.5
    endloop
  endfacet
  facet normal -0 0 -1
    outer loop
      vertex -3 -5 -2.5
      vertex -35 -10 -2.5
      vertex -7 -5 -2.5
    endloop
  endfacet
  facet normal -0 0 -1
    outer loop
      vertex -7 -5 -2.5
      vertex -35 -10 -2.5
      vertex -11.5 -5 -2.5
    endloop
  endfacet
  facet normal 0 0 -1
    outer loop
      vertex -21.5 -5 -2.5
      vertex -26 -5 -2.5
      vertex -21.5 10 -2.5
    endloop
  endfacet
  facet normal -0 0 -1
    outer loop
      vertex -11.5 -5 -2.5
      vertex -35 -10 -2.5
      vertex -21.5 -5 -2.5
    endloop
  endfacet
  facet normal -0 0 -1
    outer loop
      vertex -21.5 -5 -2.5
      vertex -35 -10 -2.5
      vertex -26 -5 -2.5
    endloop
  endfacet
  facet normal -0 0 -1
    outer loop
      vertex -26 -5 -2.5
      vertex -35 -10 -2.5
      vertex -30 -5 -2.5
    endloop
  endfacet
  facet normal 0 0 -1
    outer loop
      vertex -35 10 -2.5
      vertex -30 -5 -2.5
      vertex -35 -10 -2.5
    endloop
  endfacet
  facet normal 0 0 -1
    outer loop
      vertex -30 -5 -2.5
      vertex -35 10 -2.5
      vertex -30 10 -2.5
    endloop
  endfacet
  facet normal -0 0 -1
    outer loop
      vertex 35 10 -2.5
      vertex 30 -5 -2.5
      vertex 30 10 -2.5
    endloop
  endfacet
  facet normal -0 0 -1
    outer loop
      vertex 26 10 -2.5
      vertex 21.5 -5 -2.5
      vertex 21.5 10 -2.5
    endloop
  endfacet
  facet normal -0 0 -1
    outer loop
      vertex 11.5 10 -2.5
      vertex 7 -5 -2.5
      vertex 7 10 -2.5
    endloop
  endfacet
  facet normal -0 0 -1
    outer loop
      vertex 3 10 -2.5
      vertex -3 -5 -2.5
      vertex -3 10 -2.5
    endloop
  endfacet
  facet normal -0 0 -1
    outer loop
      vertex -7 10 -2.5
      vertex -11.5 -5 -2.5
      vertex -11.5 10 -2.5
    endloop
  endfacet
  facet normal -0 0 -1
    outer loop
      vertex -21.5 10 -2.5
      vertex -26 -5 -2.5
      vertex -26 10 -2.5
    endloop
  endfacet
  facet normal 0 -1 0
    outer loop
      vertex -35 -10 -2.5
      vertex 35 -10 2.5
      vertex -35 -10 2.5
    endloop
  endfacet
  facet normal 0 -1 -0
    outer loop
      vertex 35 -10 2.5
      vertex -35 -10 -2.5
      vertex 35 -10 -2.5
    endloop
  endfacet
  facet normal 1 -0 0
    outer loop
      vertex 3 -5 2.5
      vertex 3 10 -2.5
      vertex 3 10 2.5
    endloop
  endfacet
  facet normal 1 0 0
    outer loop
      vertex 3 10 -2.5
      vertex 3 -5 2.5
      vertex 3 -5 -2.5
    endloop
  endfacet
  facet normal -1 0 0
    outer loop
      vertex 7 -5 -2.5
      vertex 7 10 2.5
      vertex 7 10 -2.5
    endloop
  endfacet
  facet normal -1 -0 0
    outer loop
      vertex 7 10 2.5
      vertex 7 -5 -2.5
      vertex 7 -5 2.5
    endloop
  endfacet
  facet normal 0 1 -0
    outer loop
      vertex 7 -5 -2.5
      vertex 3 -5 2.5
      vertex 7 -5 2.5
    endloop
  endfacet
  facet normal 0 1 0
    outer loop
      vertex 3 -5 2.5
      vertex 7 -5 -2.5
      vertex 3 -5 -2.5
    endloop
  endfacet
  facet normal 1 -0 0
    outer loop
      vertex -7 -5 2.5
      vertex -7 10 -2.5
      vertex -7 10 2.5
    endloop
  endfacet
  facet normal 1 0 0
    outer loop
      vertex -7 10 -2.5
      vertex -7 -5 2.5
      vertex -7 -5 -2.5
    endloop
  endfacet
  facet normal -1 0 0
    outer loop
      vertex -3 -5 -2.5
      vertex -3 10 2.5
      vertex -3 10 -2.5
    endloop
  endfacet
  facet normal -1 -0 0
    outer loop
      vertex -3 10 2.5
      vertex -3 -5 -2.5
      vertex -3 -5 2.5
    endloop
  endfacet
  facet normal 0 1 -0
    outer loop
      vertex -3 -5 -2.5
      vertex -7 -5 2.5
      vertex -3 -5 2.5
    endloop
  endfacet
  facet normal 0 1 0
    outer loop
      vertex -7 -5 2.5
      vertex -3 -5 -2.5
      vertex -7 -5 -2.5
    endloop
  endfacet
  facet normal 1 -0 0
    outer loop
      vertex 26 -5 2.5
      vertex 26 10 -2.5
      vertex 26 10 2.5
    endloop
  endfacet
  facet normal 1 0 0
    outer loop
      vertex 26 10 -2.5
      vertex 26 -5 2.5
      vertex 26 -5 -2.5
    endloop
  endfacet
  facet normal -1 0 0
    outer loop
      vertex 30 -5 -2.5
      vertex 30 10 2.5
      vertex 30 10 -2.5
    endloop
  endfacet
  facet normal -1 -0 0
    outer loop
      vertex 30 10 2.5
      vertex 30 -5 -2.5
      vertex 30 -5 2.5
    endloop
  endfacet
  facet normal 0 1 -0
    outer loop
      vertex 30 -5 -2.5
      vertex 26 -5 2.5
      vertex 30 -5 2.5
    endloop
  endfacet
  facet normal 0 1 0
    outer loop
      vertex 26 -5 2.5
      vertex 30 -5 -2.5
      vertex 26 -5 -2.5
    endloop
  endfacet
  facet normal 1 -0 0
    outer loop
      vertex -30 -5 2.5
      vertex -30 10 -2.5
      vertex -30 10 2.5
    endloop
  endfacet
  facet normal 1 0 0
    outer loop
      vertex -30 10 -2.5
      vertex -30 -5 2.5
      vertex -30 -5 -2.5
    endloop
  endfacet
  facet normal -1 0 0
    outer loop
      vertex -26 -5 -2.5
      vertex -26 10 2.5
      vertex -26 10 -2.5
    endloop
  endfacet
  facet normal -1 -0 0
    outer loop
      vertex -26 10 2.5
      vertex -26 -5 -2.5
      vertex -26 -5 2.5
    endloop
  endfacet
  facet normal 0 1 -0
    outer loop
      vertex -26 -5 -2.5
      vertex -30 -5 2.5
      vertex -26 -5 2.5
    endloop
  endfacet
  facet normal 0 1 0
    outer loop
      vertex -30 -5 2.5
      vertex -26 -5 -2.5
      vertex -30 -5 -2.5
    endloop
  endfacet
  facet normal 1 -0 0
    outer loop
      vertex 11.5 -5 2.5
      vertex 11.5 10 -2.5
      vertex 11.5 10 2.5
    endloop
  endfacet
  facet normal 1 0 0
    outer loop
      vertex 11.5 10 -2.5
      vertex 11.5 -5 2.5
      vertex 11.5 -5 -2.5
    endloop
  endfacet
  facet normal -1 0 0
    outer loop
      vertex 21.5 -5 -2.5
      vertex 21.5 10 2.5
      vertex 21.5 10 -2.5
    endloop
  endfacet
  facet normal -1 -0 0
    outer loop
      vertex 21.5 10 2.5
      vertex 21.5 -5 -2.5
      vertex 21.5 -5 2.5
    endloop
  endfacet
  facet normal 0 1 -0
    outer loop
      vertex 21.5 -5 -2.5
      vertex 11.5 -5 2.5
      vertex 21.5 -5 2.5
    endloop
  endfacet
  facet normal 0 1 0
    outer loop
      vertex 11.5 -5 2.5
      vertex 21.5 -5 -2.5
      vertex 11.5 -5 -2.5
    endloop
  endfacet
  facet normal 1 -0 0
    outer loop
      vertex -21.5 -5 2.5
      vertex -21.5 10 -2.5
      vertex -21.5 10 2.5
    endloop
  endfacet
  facet normal 1 0 0
    outer loop
      vertex -21.5 10 -2.5
      vertex -21.5 -5 2.5
      vertex -21.5 -5 -2.5
    endloop
  endfacet
  facet normal -1 0 0
    outer loop
      vertex -11.5 -5 -2.5
      vertex -11.5 10 2.5
      vertex -11.5 10 -2.5
    endloop
  endfacet
  facet normal -1 -0 0
    outer loop
      vertex -11.5 10 2.5
      vertex -11.5 -5 -2.5
      vertex -11.5 -5 2.5
    endloop
  endfacet
  facet normal 0 1 -0
    outer loop
      vertex -11.5 -5 -2.5
      vertex -21.5 -5 2.5
      vertex -11.5 -5 2.5
    endloop
  endfacet
  facet normal 0 1 0
    outer loop
      vertex -21.5 -5 2.5
      vertex -11.5 -5 -2.5
      vertex -21.5 -5 -2.5
    endloop
  endfacet
endsolid OpenSCAD_Model
