solid OpenSCAD_Model
  facet normal 0.822984 0.568065 0
    outer loop
      vertex 7.08365 3.71778 5
      vertex 5.98809 5.30498 0
      vertex 5.98809 5.30498 5
    endloop
  endfacet
  facet normal 0.822984 0.568065 0
    outer loop
      vertex 5.98809 5.30498 0
      vertex 7.08365 3.71778 5
      vertex 7.08365 3.71778 0
    endloop
  endfacet
  facet normal -0.992709 0.120537 0
    outer loop
      vertex -8 0 0
      vertex -7.76753 1.91453 5
      vertex -7.76753 1.91453 0
    endloop
  endfacet
  facet normal -0.992709 0.120537 0
    outer loop
      vertex -7.76753 1.91453 5
      vertex -8 0 0
      vertex -8 0 5
    endloop
  endfacet
  facet normal -0.992709 -0.120537 0
    outer loop
      vertex -7.76753 -1.91453 0
      vertex -8 0 5
      vertex -8 0 0
    endloop
  endfacet
  facet normal -0.992709 -0.120537 0
    outer loop
      vertex -8 0 5
      vertex -7.76753 -1.91453 0
      vertex -7.76753 -1.91453 5
    endloop
  endfacet
  facet normal 0 1 -0
    outer loop
      vertex 0.964293 7.94167 0
      vertex -0.964293 7.94167 5
      vertex 0.964293 7.94167 5
    endloop
  endfacet
  facet normal 0 1 0
    outer loop
      vertex -0.964293 7.94167 5
      vertex 0.964293 7.94167 0
      vertex -0.964293 7.94167 0
    endloop
  endfacet
  facet normal 0.663123 0.748511 -0
    outer loop
      vertex 5.98809 5.30498 0
      vertex 4.54452 6.58387 5
      vertex 5.98809 5.30498 5
    endloop
  endfacet
  facet normal 0.663123 0.748511 0
    outer loop
      vertex 4.54452 6.58387 5
      vertex 5.98809 5.30498 0
      vertex 4.54452 6.58387 0
    endloop
  endfacet
  facet normal 0.239316 0.970942 -0
    outer loop
      vertex 2.83684 7.48013 0
      vertex 0.964293 7.94167 5
      vertex 2.83684 7.48013 5
    endloop
  endfacet
  facet normal 0.239316 0.970942 0
    outer loop
      vertex 0.964293 7.94167 5
      vertex 2.83684 7.48013 0
      vertex 0.964293 7.94167 0
    endloop
  endfacet
  facet normal -0.464723 0.885456 0
    outer loop
      vertex -2.83684 7.48013 0
      vertex -4.54452 6.58387 5
      vertex -2.83684 7.48013 5
    endloop
  endfacet
  facet normal -0.464723 0.885456 0
    outer loop
      vertex -4.54452 6.58387 5
      vertex -2.83684 7.48013 0
      vertex -4.54452 6.58387 0
    endloop
  endfacet
  facet normal -0.935016 0.354605 0
    outer loop
      vertex -7.76753 1.91453 0
      vertex -7.08365 3.71778 5
      vertex -7.08365 3.71778 0
    endloop
  endfacet
  facet normal -0.935016 0.354605 0
    outer loop
      vertex -7.08365 3.71778 5
      vertex -7.76753 1.91453 0
      vertex -7.76753 1.91453 5
    endloop
  endfacet
  facet normal -0.663123 0.748511 0
    outer loop
      vertex -4.54452 6.58387 0
      vertex -5.98809 5.30498 5
      vertex -4.54452 6.58387 5
    endloop
  endfacet
  facet normal -0.663123 0.748511 0
    outer loop
      vertex -5.98809 5.30498 5
      vertex -4.54452 6.58387 0
      vertex -5.98809 5.30498 0
    endloop
  endfacet
  facet normal 0.992709 -0.120537 0
    outer loop
      vertex 7.76753 -1.91453 5
      vertex 8 0 0
      vertex 8 0 5
    endloop
  endfacet
  facet normal 0.992709 -0.120537 0
    outer loop
      vertex 8 0 0
      vertex 7.76753 -1.91453 5
      vertex 7.76753 -1.91453 0
    endloop
  endfacet
  facet normal 0.239316 -0.970942 0
    outer loop
      vertex 0.964293 -7.94167 0
      vertex 2.83684 -7.48013 5
      vertex 0.964293 -7.94167 5
    endloop
  endfacet
  facet normal 0.239316 -0.970942 0
    outer loop
      vertex 2.83684 -7.48013 5
      vertex 0.964293 -7.94167 0
      vertex 2.83684 -7.48013 0
    endloop
  endfacet
  facet normal 0.935016 0.354605 0
    outer loop
      vertex 7.76753 1.91453 5
      vertex 7.08365 3.71778 0
      vertex 7.08365 3.71778 5
    endloop
  endfacet
  facet normal 0.935016 0.354605 0
    outer loop
      vertex 7.08365 3.71778 0
      vertex 7.76753 1.91453 5
      vertex 7.76753 1.91453 0
    endloop
  endfacet
  facet normal 0.464723 0.885456 -0
    outer loop
      vertex 4.54452 6.58387 0
      vertex 2.83684 7.48013 5
      vertex 4.54452 6.58387 5
    endloop
  endfacet
  facet normal 0.464723 0.885456 0
    outer loop
      vertex 2.83684 7.48013 5
      vertex 4.54452 6.58387 0
      vertex 2.83684 7.48013 0
    endloop
  endfacet
  facet normal 0 0 1
    outer loop
      vertex 6.85 0 5
      vertex 8 0 5
      vertex 7.76753 1.91453 5
    endloop
  endfacet
  facet normal -0 0 1
    outer loop
      vertex 6.57253 1.92987 5
      vertex 7.76753 1.91453 5
      vertex 7.08365 3.71778 5
    endloop
  endfacet
  facet normal 0 0 1
    outer loop
      vertex 8 0 5
      vertex 6.85 0 5
      vertex 7.76753 -1.91453 5
    endloop
  endfacet
  facet normal 0 0 1
    outer loop
      vertex 6.57253 -1.92987 5
      vertex 7.76753 -1.91453 5
      vertex 6.85 0 5
    endloop
  endfacet
  facet normal 0 0 1
    outer loop
      vertex 7.76753 1.91453 5
      vertex 6.57253 1.92987 5
      vertex 6.85 0 5
    endloop
  endfacet
  facet normal 0 0 1
    outer loop
      vertex 5.76259 3.70339 5
      vertex 7.08365 3.71778 5
      vertex 5.98809 5.30498 5
    endloop
  endfacet
  facet normal 0 0 1
    outer loop
      vertex 7.08365 3.71778 5
      vertex 5.76259 3.70339 5
      vertex 6.57253 1.92987 5
    endloop
  endfacet
  facet normal 0 0 1
    outer loop
      vertex 4.4858 5.17688 5
      vertex 5.98809 5.30498 5
      vertex 4.54452 6.58387 5
    endloop
  endfacet
  facet normal 0 0 1
    outer loop
      vertex 5.98809 5.30498 5
      vertex 4.4858 5.17688 5
      vertex 5.76259 3.70339 5
    endloop
  endfacet
  facet normal 0 0 1
    outer loop
      vertex 4.54452 6.58387 5
      vertex 2.84559 6.23098 5
      vertex 4.4858 5.17688 5
    endloop
  endfacet
  facet normal 0 0 1
    outer loop
      vertex 2.83684 7.48013 5
      vertex 2.84559 6.23098 5
      vertex 4.54452 6.58387 5
    endloop
  endfacet
  facet normal 0 0 1
    outer loop
      vertex 2.83684 7.48013 5
      vertex 0.974856 6.78028 5
      vertex 2.84559 6.23098 5
    endloop
  endfacet
  facet normal 0 0 1
    outer loop
      vertex 0.964293 7.94167 5
      vertex 0.974856 6.78028 5
      vertex 2.83684 7.48013 5
    endloop
  endfacet
  facet normal -0 0 1
    outer loop
      vertex -0.964293 7.94167 5
      vertex 0.974856 6.78028 5
      vertex 0.964293 7.94167 5
    endloop
  endfacet
  facet normal 0 0 1
    outer loop
      vertex -0.964293 7.94167 5
      vertex -0.974856 6.78028 5
      vertex 0.974856 6.78028 5
    endloop
  endfacet
  facet normal -0 0 1
    outer loop
      vertex -2.83684 7.48013 5
      vertex -0.974856 6.78028 5
      vertex -0.964293 7.94167 5
    endloop
  endfacet
  facet normal 0 0 1
    outer loop
      vertex -2.83684 7.48013 5
      vertex -2.84559 6.23098 5
      vertex -0.974856 6.78028 5
    endloop
  endfacet
  facet normal -0 0 1
    outer loop
      vertex -4.54452 6.58387 5
      vertex -2.84559 6.23098 5
      vertex -2.83684 7.48013 5
    endloop
  endfacet
  facet normal 0 0 1
    outer loop
      vertex -2.84559 6.23098 5
      vertex -4.54452 6.58387 5
      vertex -4.4858 5.17688 5
    endloop
  endfacet
  facet normal -0 0 1
    outer loop
      vertex -5.98809 5.30498 5
      vertex -4.4858 5.17688 5
      vertex -4.54452 6.58387 5
    endloop
  endfacet
  facet normal 0 0 1
    outer loop
      vertex -4.4858 5.17688 5
      vertex -5.98809 5.30498 5
      vertex -5.76259 3.70339 5
    endloop
  endfacet
  facet normal -0 0 1
    outer loop
      vertex -7.08365 3.71778 5
      vertex -5.76259 3.70339 5
      vertex -5.98809 5.30498 5
    endloop
  endfacet
  facet normal 0 0 1
    outer loop
      vertex -7.76753 1.91453 5
      vertex -6.57253 1.92987 5
      vertex -7.08365 3.71778 5
    endloop
  endfacet
  facet normal 0 0 1
    outer loop
      vertex -5.76259 3.70339 5
      vertex -7.08365 3.71778 5
      vertex -6.57253 1.92987 5
    endloop
  endfacet
  facet normal 0 0 1
    outer loop
      vertex 7.76753 -1.91453 5
      vertex 6.57253 -1.92987 5
      vertex 7.08365 -3.71778 5
    endloop
  endfacet
  facet normal -0 0 1
    outer loop
      vertex 5.76259 -3.70339 5
      vertex 7.08365 -3.71778 5
      vertex 6.57253 -1.92987 5
    endloop
  endfacet
  facet normal 0 0 1
    outer loop
      vertex 7.08365 -3.71778 5
      vertex 5.76259 -3.70339 5
      vertex 5.98809 -5.30498 5
    endloop
  endfacet
  facet normal -0 0 1
    outer loop
      vertex 4.4858 -5.17688 5
      vertex 5.98809 -5.30498 5
      vertex 5.76259 -3.70339 5
    endloop
  endfacet
  facet normal 0 0 1
    outer loop
      vertex 5.98809 -5.30498 5
      vertex 4.4858 -5.17688 5
      vertex 4.54452 -6.58387 5
    endloop
  endfacet
  facet normal -0 0 1
    outer loop
      vertex 2.84559 -6.23098 5
      vertex 4.54452 -6.58387 5
      vertex 4.4858 -5.17688 5
    endloop
  endfacet
  facet normal 0 0 1
    outer loop
      vertex 2.84559 -6.23098 5
      vertex 2.83684 -7.48013 5
      vertex 4.54452 -6.58387 5
    endloop
  endfacet
  facet normal -0 0 1
    outer loop
      vertex 0.974856 -6.78028 5
      vertex 2.83684 -7.48013 5
      vertex 2.84559 -6.23098 5
    endloop
  endfacet
  facet normal 0 0 1
    outer loop
      vertex 0.974856 -6.78028 5
      vertex 0.964293 -7.94167 5
      vertex 2.83684 -7.48013 5
    endloop
  endfacet
  facet normal 0 0 1
    outer loop
      vertex 0.974856 -6.78028 5
      vertex -0.964293 -7.94167 5
      vertex 0.964293 -7.94167 5
    endloop
  endfacet
  facet normal -0 0 1
    outer loop
      vertex -0.974856 -6.78028 5
      vertex -0.964293 -7.94167 5
      vertex 0.974856 -6.78028 5
    endloop
  endfacet
  facet normal 0 0 1
    outer loop
      vertex -0.974856 -6.78028 5
      vertex -2.83684 -7.48013 5
      vertex -0.964293 -7.94167 5
    endloop
  endfacet
  facet normal 0 0 1
    outer loop
      vertex -2.84559 -6.23098 5
      vertex -2.83684 -7.48013 5
      vertex -0.974856 -6.78028 5
    endloop
  endfacet
  facet normal 0 0 1
    outer loop
      vertex -4.54452 -6.58387 5
      vertex -2.84559 -6.23098 5
      vertex -4.4858 -5.17688 5
    endloop
  endfacet
  facet normal 0 0 1
    outer loop
      vertex -2.84559 -6.23098 5
      vertex -4.54452 -6.58387 5
      vertex -2.83684 -7.48013 5
    endloop
  endfacet
  facet normal 0 0 1
    outer loop
      vertex -5.98809 -5.30498 5
      vertex -4.4858 -5.17688 5
      vertex -5.76259 -3.70339 5
    endloop
  endfacet
  facet normal 0 0 1
    outer loop
      vertex -4.4858 -5.17688 5
      vertex -5.98809 -5.30498 5
      vertex -4.54452 -6.58387 5
    endloop
  endfacet
  facet normal 0 0 1
    outer loop
      vertex -7.08365 -3.71778 5
      vertex -5.76259 -3.70339 5
      vertex -6.57253 -1.92987 5
    endloop
  endfacet
  facet normal 0 0 1
    outer loop
      vertex -5.76259 -3.70339 5
      vertex -7.08365 -3.71778 5
      vertex -5.98809 -5.30498 5
    endloop
  endfacet
  facet normal -0 0 1
    outer loop
      vertex -7.76753 -1.91453 5
      vertex -6.57253 -1.92987 5
      vertex -6.85 0 5
    endloop
  endfacet
  facet normal 0 0 1
    outer loop
      vertex -6.57253 1.92987 5
      vertex -7.76753 1.91453 5
      vertex -6.85 0 5
    endloop
  endfacet
  facet normal 0 0 1
    outer loop
      vertex -8 0 5
      vertex -6.85 0 5
      vertex -7.76753 1.91453 5
    endloop
  endfacet
  facet normal 0 0 1
    outer loop
      vertex -6.57253 -1.92987 5
      vertex -7.76753 -1.91453 5
      vertex -7.08365 -3.71778 5
    endloop
  endfacet
  facet normal 0 0 1
    outer loop
      vertex -6.85 0 5
      vertex -8 0 5
      vertex -7.76753 -1.91453 5
    endloop
  endfacet
  facet normal -0.822984 0.568065 0
    outer loop
      vertex -7.08365 3.71778 0
      vertex -5.98809 5.30498 5
      vertex -5.98809 5.30498 0
    endloop
  endfacet
  facet normal -0.822984 0.568065 0
    outer loop
      vertex -5.98809 5.30498 5
      vertex -7.08365 3.71778 0
      vertex -7.08365 3.71778 5
    endloop
  endfacet
  facet normal -0.239316 0.970942 0
    outer loop
      vertex -0.964293 7.94167 0
      vertex -2.83684 7.48013 5
      vertex -0.964293 7.94167 5
    endloop
  endfacet
  facet normal -0.239316 0.970942 0
    outer loop
      vertex -2.83684 7.48013 5
      vertex -0.964293 7.94167 0
      vertex -2.83684 7.48013 0
    endloop
  endfacet
  facet normal 0.992709 0.120537 0
    outer loop
      vertex 8 0 5
      vertex 7.76753 1.91453 0
      vertex 7.76753 1.91453 5
    endloop
  endfacet
  facet normal 0.992709 0.120537 0
    outer loop
      vertex 7.76753 1.91453 0
      vertex 8 0 5
      vertex 8 0 0
    endloop
  endfacet
  facet normal 0.935016 -0.354605 0
    outer loop
      vertex 7.08365 -3.71778 5
      vertex 7.76753 -1.91453 0
      vertex 7.76753 -1.91453 5
    endloop
  endfacet
  facet normal 0.935016 -0.354605 0
    outer loop
      vertex 7.76753 -1.91453 0
      vertex 7.08365 -3.71778 5
      vertex 7.08365 -3.71778 0
    endloop
  endfacet
  facet normal -0.663123 -0.748511 0
    outer loop
      vertex -5.98809 -5.30498 0
      vertex -4.54452 -6.58387 5
      vertex -5.98809 -5.30498 5
    endloop
  endfacet
  facet normal -0.663123 -0.748511 -0
    outer loop
      vertex -4.54452 -6.58387 5
      vertex -5.98809 -5.30498 0
      vertex -4.54452 -6.58387 0
    endloop
  endfacet
  facet normal -0.935016 -0.354605 0
    outer loop
      vertex -7.08365 -3.71778 0
      vertex -7.76753 -1.91453 5
      vertex -7.76753 -1.91453 0
    endloop
  endfacet
  facet normal -0.935016 -0.354605 0
    outer loop
      vertex -7.76753 -1.91453 5
      vertex -7.08365 -3.71778 0
      vertex -7.08365 -3.71778 5
    endloop
  endfacet
  facet normal 0.663123 -0.748511 0
    outer loop
      vertex 4.54452 -6.58387 0
      vertex 5.98809 -5.30498 5
      vertex 4.54452 -6.58387 5
    endloop
  endfacet
  facet normal 0.663123 -0.748511 0
    outer loop
      vertex 5.98809 -5.30498 5
      vertex 4.54452 -6.58387 0
      vertex 5.98809 -5.30498 0
    endloop
  endfacet
  facet normal 0.822984 -0.568065 0
    outer loop
      vertex 5.98809 -5.30498 5
      vertex 7.08365 -3.71778 0
      vertex 7.08365 -3.71778 5
    endloop
  endfacet
  facet normal 0.822984 -0.568065 0
    outer loop
      vertex 7.08365 -3.71778 0
      vertex 5.98809 -5.30498 5
      vertex 5.98809 -5.30498 0
    endloop
  endfacet
  facet normal 0 0 -1
    outer loop
      vertex 6.85 0 0
      vertex 8 0 0
      vertex 7.76753 -1.91453 0
    endloop
  endfacet
  facet normal 0 0 -1
    outer loop
      vertex 6.57253 -1.92987 0
      vertex 7.76753 -1.91453 0
      vertex 7.08365 -3.71778 0
    endloop
  endfacet
  facet normal 0 0 -1
    outer loop
      vertex 8 0 0
      vertex 6.85 0 0
      vertex 7.76753 1.91453 0
    endloop
  endfacet
  facet normal 0 0 -1
    outer loop
      vertex 6.57253 1.92987 0
      vertex 7.76753 1.91453 0
      vertex 6.85 0 0
    endloop
  endfacet
  facet normal -0 0 -1
    outer loop
      vertex 7.76753 -1.91453 0
      vertex 6.57253 -1.92987 0
      vertex 6.85 0 0
    endloop
  endfacet
  facet normal 0 0 -1
    outer loop
      vertex 5.76259 -3.70339 0
      vertex 7.08365 -3.71778 0
      vertex 5.98809 -5.30498 0
    endloop
  endfacet
  facet normal 0 0 -1
    outer loop
      vertex 7.08365 -3.71778 0
      vertex 5.76259 -3.70339 0
      vertex 6.57253 -1.92987 0
    endloop
  endfacet
  facet normal 0 0 -1
    outer loop
      vertex 4.4858 -5.17688 0
      vertex 5.98809 -5.30498 0
      vertex 4.54452 -6.58387 0
    endloop
  endfacet
  facet normal 0 0 -1
    outer loop
      vertex 5.98809 -5.30498 0
      vertex 4.4858 -5.17688 0
      vertex 5.76259 -3.70339 0
    endloop
  endfacet
  facet normal 0 0 -1
    outer loop
      vertex 4.54452 -6.58387 0
      vertex 2.84559 -6.23098 0
      vertex 4.4858 -5.17688 0
    endloop
  endfacet
  facet normal 0 0 -1
    outer loop
      vertex 2.83684 -7.48013 0
      vertex 2.84559 -6.23098 0
      vertex 4.54452 -6.58387 0
    endloop
  endfacet
  facet normal 0 0 -1
    outer loop
      vertex 2.83684 -7.48013 0
      vertex 0.974856 -6.78028 0
      vertex 2.84559 -6.23098 0
    endloop
  endfacet
  facet normal 0 0 -1
    outer loop
      vertex 0.964293 -7.94167 0
      vertex 0.974856 -6.78028 0
      vertex 2.83684 -7.48013 0
    endloop
  endfacet
  facet normal 0 0 -1
    outer loop
      vertex -0.964293 -7.94167 0
      vertex 0.974856 -6.78028 0
      vertex 0.964293 -7.94167 0
    endloop
  endfacet
  facet normal 0 0 -1
    outer loop
      vertex -0.964293 -7.94167 0
      vertex -0.974856 -6.78028 0
      vertex 0.974856 -6.78028 0
    endloop
  endfacet
  facet normal 0 0 -1
    outer loop
      vertex -2.83684 -7.48013 0
      vertex -0.974856 -6.78028 0
      vertex -0.964293 -7.94167 0
    endloop
  endfacet
  facet normal 0 0 -1
    outer loop
      vertex -2.83684 -7.48013 0
      vertex -2.84559 -6.23098 0
      vertex -0.974856 -6.78028 0
    endloop
  endfacet
  facet normal 0 0 -1
    outer loop
      vertex -4.54452 -6.58387 0
      vertex -2.84559 -6.23098 0
      vertex -2.83684 -7.48013 0
    endloop
  endfacet
  facet normal -0 0 -1
    outer loop
      vertex -2.84559 -6.23098 0
      vertex -4.54452 -6.58387 0
      vertex -4.4858 -5.17688 0
    endloop
  endfacet
  facet normal 0 0 -1
    outer loop
      vertex -5.98809 -5.30498 0
      vertex -4.4858 -5.17688 0
      vertex -4.54452 -6.58387 0
    endloop
  endfacet
  facet normal -0 0 -1
    outer loop
      vertex -4.4858 -5.17688 0
      vertex -5.98809 -5.30498 0
      vertex -5.76259 -3.70339 0
    endloop
  endfacet
  facet normal 0 0 -1
    outer loop
      vertex -7.08365 -3.71778 0
      vertex -5.76259 -3.70339 0
      vertex -5.98809 -5.30498 0
    endloop
  endfacet
  facet normal 0 0 -1
    outer loop
      vertex -7.76753 -1.91453 0
      vertex -6.57253 -1.92987 0
      vertex -7.08365 -3.71778 0
    endloop
  endfacet
  facet normal -0 0 -1
    outer loop
      vertex -5.76259 -3.70339 0
      vertex -7.08365 -3.71778 0
      vertex -6.57253 -1.92987 0
    endloop
  endfacet
  facet normal 0 0 -1
    outer loop
      vertex 7.76753 1.91453 0
      vertex 6.57253 1.92987 0
      vertex 7.08365 3.71778 0
    endloop
  endfacet
  facet normal 0 0 -1
    outer loop
      vertex 5.76259 3.70339 0
      vertex 7.08365 3.71778 0
      vertex 6.57253 1.92987 0
    endloop
  endfacet
  facet normal -0 0 -1
    outer loop
      vertex 7.08365 3.71778 0
      vertex 5.76259 3.70339 0
      vertex 5.98809 5.30498 0
    endloop
  endfacet
  facet normal 0 0 -1
    outer loop
      vertex 4.4858 5.17688 0
      vertex 5.98809 5.30498 0
      vertex 5.76259 3.70339 0
    endloop
  endfacet
  facet normal -0 0 -1
    outer loop
      vertex 5.98809 5.30498 0
      vertex 4.4858 5.17688 0
      vertex 4.54452 6.58387 0
    endloop
  endfacet
  facet normal 0 0 -1
    outer loop
      vertex 2.84559 6.23098 0
      vertex 4.54452 6.58387 0
      vertex 4.4858 5.17688 0
    endloop
  endfacet
  facet normal 0 0 -1
    outer loop
      vertex 2.84559 6.23098 0
      vertex 2.83684 7.48013 0
      vertex 4.54452 6.58387 0
    endloop
  endfacet
  facet normal 0 0 -1
    outer loop
      vertex 0.974856 6.78028 0
      vertex 2.83684 7.48013 0
      vertex 2.84559 6.23098 0
    endloop
  endfacet
  facet normal 0 0 -1
    outer loop
      vertex 0.974856 6.78028 0
      vertex 0.964293 7.94167 0
      vertex 2.83684 7.48013 0
    endloop
  endfacet
  facet normal 0 0 -1
    outer loop
      vertex 0.974856 6.78028 0
      vertex -0.964293 7.94167 0
      vertex 0.964293 7.94167 0
    endloop
  endfacet
  facet normal 0 0 -1
    outer loop
      vertex -0.974856 6.78028 0
      vertex -0.964293 7.94167 0
      vertex 0.974856 6.78028 0
    endloop
  endfacet
  facet normal 0 0 -1
    outer loop
      vertex -0.974856 6.78028 0
      vertex -2.83684 7.48013 0
      vertex -0.964293 7.94167 0
    endloop
  endfacet
  facet normal 0 0 -1
    outer loop
      vertex -2.84559 6.23098 0
      vertex -2.83684 7.48013 0
      vertex -0.974856 6.78028 0
    endloop
  endfacet
  facet normal 0 0 -1
    outer loop
      vertex -4.54452 6.58387 0
      vertex -2.84559 6.23098 0
      vertex -4.4858 5.17688 0
    endloop
  endfacet
  facet normal 0 0 -1
    outer loop
      vertex -2.84559 6.23098 0
      vertex -4.54452 6.58387 0
      vertex -2.83684 7.48013 0
    endloop
  endfacet
  facet normal 0 0 -1
    outer loop
      vertex -5.98809 5.30498 0
      vertex -4.4858 5.17688 0
      vertex -5.76259 3.70339 0
    endloop
  endfacet
  facet normal 0 0 -1
    outer loop
      vertex -4.4858 5.17688 0
      vertex -5.98809 5.30498 0
      vertex -4.54452 6.58387 0
    endloop
  endfacet
  facet normal 0 0 -1
    outer loop
      vertex -7.08365 3.71778 0
      vertex -5.76259 3.70339 0
      vertex -6.57253 1.92987 0
    endloop
  endfacet
  facet normal 0 0 -1
    outer loop
      vertex -5.76259 3.70339 0
      vertex -7.08365 3.71778 0
      vertex -5.98809 5.30498 0
    endloop
  endfacet
  facet normal 0 0 -1
    outer loop
      vertex -7.76753 1.91453 0
      vertex -6.57253 1.92987 0
      vertex -6.85 0 0
    endloop
  endfacet
  facet normal 0 0 -1
    outer loop
      vertex -6.57253 -1.92987 0
      vertex -7.76753 -1.91453 0
      vertex -6.85 0 0
    endloop
  endfacet
  facet normal 0 0 -1
    outer loop
      vertex -8 0 0
      vertex -6.85 0 0
      vertex -7.76753 -1.91453 0
    endloop
  endfacet
  facet normal -0 0 -1
    outer loop
      vertex -6.57253 1.92987 0
      vertex -7.76753 1.91453 0
      vertex -7.08365 3.71778 0
    endloop
  endfacet
  facet normal 0 0 -1
    outer loop
      vertex -6.85 0 0
      vertex -8 0 0
      vertex -7.76753 1.91453 0
    endloop
  endfacet
  facet normal -0.822984 -0.568065 0
    outer loop
      vertex -5.98809 -5.30498 0
      vertex -7.08365 -3.71778 5
      vertex -7.08365 -3.71778 0
    endloop
  endfacet
  facet normal -0.822984 -0.568065 0
    outer loop
      vertex -7.08365 -3.71778 5
      vertex -5.98809 -5.30498 0
      vertex -5.98809 -5.30498 5
    endloop
  endfacet
  facet normal -0.464723 -0.885456 0
    outer loop
      vertex -4.54452 -6.58387 0
      vertex -2.83684 -7.48013 5
      vertex -4.54452 -6.58387 5
    endloop
  endfacet
  facet normal -0.464723 -0.885456 -0
    outer loop
      vertex -2.83684 -7.48013 5
      vertex -4.54452 -6.58387 0
      vertex -2.83684 -7.48013 0
    endloop
  endfacet
  facet normal 0 -1 0
    outer loop
      vertex -0.964293 -7.94167 0
      vertex 0.964293 -7.94167 5
      vertex -0.964293 -7.94167 5
    endloop
  endfacet
  facet normal 0 -1 -0
    outer loop
      vertex 0.964293 -7.94167 5
      vertex -0.964293 -7.94167 0
      vertex 0.964293 -7.94167 0
    endloop
  endfacet
  facet normal 0.464723 -0.885456 0
    outer loop
      vertex 2.83684 -7.48013 0
      vertex 4.54452 -6.58387 5
      vertex 2.83684 -7.48013 5
    endloop
  endfacet
  facet normal 0.464723 -0.885456 0
    outer loop
      vertex 4.54452 -6.58387 5
      vertex 2.83684 -7.48013 0
      vertex 4.54452 -6.58387 0
    endloop
  endfacet
  facet normal -0.239316 -0.970942 0
    outer loop
      vertex -2.83684 -7.48013 0
      vertex -0.964293 -7.94167 5
      vertex -2.83684 -7.48013 5
    endloop
  endfacet
  facet normal -0.239316 -0.970942 -0
    outer loop
      vertex -0.964293 -7.94167 5
      vertex -2.83684 -7.48013 0
      vertex -0.964293 -7.94167 0
    endloop
  endfacet
  facet normal -0.989821 -0.142315 0
    outer loop
      vertex 6.85 0 0
      vertex 6.57253 1.92987 5
      vertex 6.57253 1.92987 0
    endloop
  endfacet
  facet normal -0.989821 -0.142315 0
    outer loop
      vertex 6.57253 1.92987 5
      vertex 6.85 0 0
      vertex 6.85 0 5
    endloop
  endfacet
  facet normal 0.989821 -0.142315 0
    outer loop
      vertex -6.85 0 5
      vertex -6.57253 1.92987 0
      vertex -6.57253 1.92987 5
    endloop
  endfacet
  facet normal 0.989821 -0.142315 0
    outer loop
      vertex -6.57253 1.92987 0
      vertex -6.85 0 5
      vertex -6.85 0 0
    endloop
  endfacet
  facet normal 0 -1 0
    outer loop
      vertex -0.974856 6.78028 0
      vertex 0.974856 6.78028 5
      vertex -0.974856 6.78028 5
    endloop
  endfacet
  facet normal 0 -1 -0
    outer loop
      vertex 0.974856 6.78028 5
      vertex -0.974856 6.78028 0
      vertex 0.974856 6.78028 0
    endloop
  endfacet
  facet normal -0.755749 -0.654861 0
    outer loop
      vertex 5.76259 3.70339 0
      vertex 4.4858 5.17688 5
      vertex 4.4858 5.17688 0
    endloop
  endfacet
  facet normal -0.755749 -0.654861 0
    outer loop
      vertex 4.4858 5.17688 5
      vertex 5.76259 3.70339 0
      vertex 5.76259 3.70339 5
    endloop
  endfacet
  facet normal -0.909632 -0.415415 0
    outer loop
      vertex 6.57253 1.92987 0
      vertex 5.76259 3.70339 5
      vertex 5.76259 3.70339 0
    endloop
  endfacet
  facet normal -0.909632 -0.415415 0
    outer loop
      vertex 5.76259 3.70339 5
      vertex 6.57253 1.92987 0
      vertex 6.57253 1.92987 5
    endloop
  endfacet
  facet normal -0.281732 -0.959493 0
    outer loop
      vertex 0.974856 6.78028 0
      vertex 2.84559 6.23098 5
      vertex 0.974856 6.78028 5
    endloop
  endfacet
  facet normal -0.281732 -0.959493 -0
    outer loop
      vertex 2.84559 6.23098 5
      vertex 0.974856 6.78028 0
      vertex 2.84559 6.23098 0
    endloop
  endfacet
  facet normal 0.281732 -0.959493 0
    outer loop
      vertex -2.84559 6.23098 0
      vertex -0.974856 6.78028 5
      vertex -2.84559 6.23098 5
    endloop
  endfacet
  facet normal 0.281732 -0.959493 0
    outer loop
      vertex -0.974856 6.78028 5
      vertex -2.84559 6.23098 0
      vertex -0.974856 6.78028 0
    endloop
  endfacet
  facet normal -0.540641 -0.841253 0
    outer loop
      vertex 2.84559 6.23098 0
      vertex 4.4858 5.17688 5
      vertex 2.84559 6.23098 5
    endloop
  endfacet
  facet normal -0.540641 -0.841253 -0
    outer loop
      vertex 4.4858 5.17688 5
      vertex 2.84559 6.23098 0
      vertex 4.4858 5.17688 0
    endloop
  endfacet
  facet normal 0.909632 -0.415415 0
    outer loop
      vertex -6.57253 1.92987 5
      vertex -5.76259 3.70339 0
      vertex -5.76259 3.70339 5
    endloop
  endfacet
  facet normal 0.909632 -0.415415 0
    outer loop
      vertex -5.76259 3.70339 0
      vertex -6.57253 1.92987 5
      vertex -6.57253 1.92987 0
    endloop
  endfacet
  facet normal 0.540641 -0.841253 0
    outer loop
      vertex -4.4858 5.17688 0
      vertex -2.84559 6.23098 5
      vertex -4.4858 5.17688 5
    endloop
  endfacet
  facet normal 0.540641 -0.841253 0
    outer loop
      vertex -2.84559 6.23098 5
      vertex -4.4858 5.17688 0
      vertex -2.84559 6.23098 0
    endloop
  endfacet
  facet normal 0.755749 -0.654861 0
    outer loop
      vertex -5.76259 3.70339 5
      vertex -4.4858 5.17688 0
      vertex -4.4858 5.17688 5
    endloop
  endfacet
  facet normal 0.755749 -0.654861 0
    outer loop
      vertex -4.4858 5.17688 0
      vertex -5.76259 3.70339 5
      vertex -5.76259 3.70339 0
    endloop
  endfacet
  facet normal -0.909632 0.415415 0
    outer loop
      vertex 5.76259 -3.70339 0
      vertex 6.57253 -1.92987 5
      vertex 6.57253 -1.92987 0
    endloop
  endfacet
  facet normal -0.909632 0.415415 0
    outer loop
      vertex 6.57253 -1.92987 5
      vertex 5.76259 -3.70339 0
      vertex 5.76259 -3.70339 5
    endloop
  endfacet
  facet normal 0.989821 0.142315 0
    outer loop
      vertex -6.57253 -1.92987 5
      vertex -6.85 0 0
      vertex -6.85 0 5
    endloop
  endfacet
  facet normal 0.989821 0.142315 0
    outer loop
      vertex -6.85 0 0
      vertex -6.57253 -1.92987 5
      vertex -6.57253 -1.92987 0
    endloop
  endfacet
  facet normal -0.281732 0.959493 0
    outer loop
      vertex 2.84559 -6.23098 0
      vertex 0.974856 -6.78028 5
      vertex 2.84559 -6.23098 5
    endloop
  endfacet
  facet normal -0.281732 0.959493 0
    outer loop
      vertex 0.974856 -6.78028 5
      vertex 2.84559 -6.23098 0
      vertex 0.974856 -6.78028 0
    endloop
  endfacet
  facet normal -0.540641 0.841253 0
    outer loop
      vertex 4.4858 -5.17688 0
      vertex 2.84559 -6.23098 5
      vertex 4.4858 -5.17688 5
    endloop
  endfacet
  facet normal -0.540641 0.841253 0
    outer loop
      vertex 2.84559 -6.23098 5
      vertex 4.4858 -5.17688 0
      vertex 2.84559 -6.23098 0
    endloop
  endfacet
  facet normal -0.989821 0.142315 0
    outer loop
      vertex 6.57253 -1.92987 0
      vertex 6.85 0 5
      vertex 6.85 0 0
    endloop
  endfacet
  facet normal -0.989821 0.142315 0
    outer loop
      vertex 6.85 0 5
      vertex 6.57253 -1.92987 0
      vertex 6.57253 -1.92987 5
    endloop
  endfacet
  facet normal 0.755749 0.654861 0
    outer loop
      vertex -4.4858 -5.17688 5
      vertex -5.76259 -3.70339 0
      vertex -5.76259 -3.70339 5
    endloop
  endfacet
  facet normal 0.755749 0.654861 0
    outer loop
      vertex -5.76259 -3.70339 0
      vertex -4.4858 -5.17688 5
      vertex -4.4858 -5.17688 0
    endloop
  endfacet
  facet normal 0.909632 0.415415 0
    outer loop
      vertex -5.76259 -3.70339 5
      vertex -6.57253 -1.92987 0
      vertex -6.57253 -1.92987 5
    endloop
  endfacet
  facet normal 0.909632 0.415415 0
    outer loop
      vertex -6.57253 -1.92987 0
      vertex -5.76259 -3.70339 5
      vertex -5.76259 -3.70339 0
    endloop
  endfacet
  facet normal 0 1 -0
    outer loop
      vertex 0.974856 -6.78028 0
      vertex -0.974856 -6.78028 5
      vertex 0.974856 -6.78028 5
    endloop
  endfacet
  facet normal 0 1 0
    outer loop
      vertex -0.974856 -6.78028 5
      vertex 0.974856 -6.78028 0
      vertex -0.974856 -6.78028 0
    endloop
  endfacet
  facet normal 0.281732 0.959493 -0
    outer loop
      vertex -0.974856 -6.78028 0
      vertex -2.84559 -6.23098 5
      vertex -0.974856 -6.78028 5
    endloop
  endfacet
  facet normal 0.281732 0.959493 0
    outer loop
      vertex -2.84559 -6.23098 5
      vertex -0.974856 -6.78028 0
      vertex -2.84559 -6.23098 0
    endloop
  endfacet
  facet normal -0.755749 0.654861 0
    outer loop
      vertex 4.4858 -5.17688 0
      vertex 5.76259 -3.70339 5
      vertex 5.76259 -3.70339 0
    endloop
  endfacet
  facet normal -0.755749 0.654861 0
    outer loop
      vertex 5.76259 -3.70339 5
      vertex 4.4858 -5.17688 0
      vertex 4.4858 -5.17688 5
    endloop
  endfacet
  facet normal 0.540641 0.841253 -0
    outer loop
      vertex -2.84559 -6.23098 0
      vertex -4.4858 -5.17688 5
      vertex -2.84559 -6.23098 5
    endloop
  endfacet
  facet normal 0.540641 0.841253 0
    outer loop
      vertex -4.4858 -5.17688 5
      vertex -2.84559 -6.23098 0
      vertex -4.4858 -5.17688 0
    endloop
  endfacet
endsolid OpenSCAD_Model
