solid OpenSCAD_Model
  facet normal 0.866025 0.5 0
    outer loop
      vertex 12.5 0 20
      vertex 6.25 10.8253 0
      vertex 6.25 10.8253 20
    endloop
  endfacet
  facet normal 0.866025 0.5 0
    outer loop
      vertex 6.25 10.8253 0
      vertex 12.5 0 20
      vertex 12.5 0 0
    endloop
  endfacet
  facet normal -0.866025 0.5 0
    outer loop
      vertex -12.5 0 0
      vertex -6.25 10.8253 20
      vertex -6.25 10.8253 0
    endloop
  endfacet
  facet normal -0.866025 0.5 0
    outer loop
      vertex -6.25 10.8253 20
      vertex -12.5 0 0
      vertex -12.5 0 20
    endloop
  endfacet
  facet normal 0 1 -0
    outer loop
      vertex 6.25 10.8253 0
      vertex -6.25 10.8253 20
      vertex 6.25 10.8253 20
    endloop
  endfacet
  facet normal 0 1 0
    outer loop
      vertex -6.25 10.8253 20
      vertex 6.25 10.8253 0
      vertex -6.25 10.8253 0
    endloop
  endfacet
  facet normal 0 0 1
    outer loop
      vertex 6.25 10.8253 20
      vertex 12 0 20
      vertex 12.5 0 20
    endloop
  endfacet
  facet normal 0 0 1
    outer loop
      vertex 6.25 10.8253 20
      vertex 6 10.3923 20
      vertex 12 0 20
    endloop
  endfacet
  facet normal 0 0 1
    outer loop
      vertex 6.25 10.8253 20
      vertex -6 10.3923 20
      vertex 6 10.3923 20
    endloop
  endfacet
  facet normal -0 0 1
    outer loop
      vertex -6.25 10.8253 20
      vertex -6 10.3923 20
      vertex 6.25 10.8253 20
    endloop
  endfacet
  facet normal 0 0 1
    outer loop
      vertex -6.25 10.8253 20
      vertex -12 0 20
      vertex -6 10.3923 20
    endloop
  endfacet
  facet normal 0 -0 1
    outer loop
      vertex -12 0 20
      vertex -6.25 10.8253 20
      vertex -12.5 0 20
    endloop
  endfacet
  facet normal -0 0 1
    outer loop
      vertex 12 0 20
      vertex 6.25 -10.8253 20
      vertex 12.5 0 20
    endloop
  endfacet
  facet normal -0 0 1
    outer loop
      vertex 6 -10.3923 20
      vertex 6.25 -10.8253 20
      vertex 12 0 20
    endloop
  endfacet
  facet normal -0 0 1
    outer loop
      vertex -6 -10.3923 20
      vertex 6.25 -10.8253 20
      vertex 6 -10.3923 20
    endloop
  endfacet
  facet normal 0 0 1
    outer loop
      vertex -6 -10.3923 20
      vertex -6.25 -10.8253 20
      vertex 6.25 -10.8253 20
    endloop
  endfacet
  facet normal 0 0 1
    outer loop
      vertex -12 0 20
      vertex -6.25 -10.8253 20
      vertex -6 -10.3923 20
    endloop
  endfacet
  facet normal 0 0 1
    outer loop
      vertex -6.25 -10.8253 20
      vertex -12 0 20
      vertex -12.5 0 20
    endloop
  endfacet
  facet normal -0.866025 -0.5 0
    outer loop
      vertex -6.25 -10.8253 0
      vertex -12.5 0 20
      vertex -12.5 0 0
    endloop
  endfacet
  facet normal -0.866025 -0.5 0
    outer loop
      vertex -12.5 0 20
      vertex -6.25 -10.8253 0
      vertex -6.25 -10.8253 20
    endloop
  endfacet
  facet normal 0.866025 -0.5 0
    outer loop
      vertex 6.25 -10.8253 20
      vertex 12.5 0 0
      vertex 12.5 0 20
    endloop
  endfacet
  facet normal 0.866025 -0.5 0
    outer loop
      vertex 12.5 0 0
      vertex 6.25 -10.8253 20
      vertex 6.25 -10.8253 0
    endloop
  endfacet
  facet normal 0 0 -1
    outer loop
      vertex 6.25 -10.8253 0
      vertex 6.25 10.8253 0
      vertex 12.5 0 0
    endloop
  endfacet
  facet normal 0 0 -1
    outer loop
      vertex 6.25 -10.8253 0
      vertex -6.25 10.8253 0
      vertex 6.25 10.8253 0
    endloop
  endfacet
  facet normal 0 0 -1
    outer loop
      vertex -6.25 -10.8253 0
      vertex -6.25 10.8253 0
      vertex 6.25 -10.8253 0
    endloop
  endfacet
  facet normal 0 0 -1
    outer loop
      vertex -6.25 10.8253 0
      vertex -6.25 -10.8253 0
      vertex -12.5 0 0
    endloop
  endfacet
  facet normal 0 -1 0
    outer loop
      vertex -6.25 -10.8253 0
      vertex 6.25 -10.8253 20
      vertex -6.25 -10.8253 20
    endloop
  endfacet
  facet normal 0 -1 -0
    outer loop
      vertex 6.25 -10.8253 20
      vertex -6.25 -10.8253 0
      vertex 6.25 -10.8253 0
    endloop
  endfacet
  facet normal -0.866025 -0.5 0
    outer loop
      vertex 12 0 1
      vertex 6 10.3923 20
      vertex 6 10.3923 1
    endloop
  endfacet
  facet normal -0.866025 -0.5 0
    outer loop
      vertex 6 10.3923 20
      vertex 12 0 1
      vertex 12 0 20
    endloop
  endfacet
  facet normal 0.866025 -0.5 0
    outer loop
      vertex -12 0 20
      vertex -6 10.3923 1
      vertex -6 10.3923 20
    endloop
  endfacet
  facet normal 0.866025 -0.5 0
    outer loop
      vertex -6 10.3923 1
      vertex -12 0 20
      vertex -12 0 1
    endloop
  endfacet
  facet normal 0 -1 0
    outer loop
      vertex -6 10.3923 1
      vertex 6 10.3923 20
      vertex -6 10.3923 20
    endloop
  endfacet
  facet normal 0 -1 -0
    outer loop
      vertex 6 10.3923 20
      vertex -6 10.3923 1
      vertex 6 10.3923 1
    endloop
  endfacet
  facet normal -0.866025 0.5 0
    outer loop
      vertex 6 -10.3923 1
      vertex 12 0 20
      vertex 12 0 1
    endloop
  endfacet
  facet normal -0.866025 0.5 0
    outer loop
      vertex 12 0 20
      vertex 6 -10.3923 1
      vertex 6 -10.3923 20
    endloop
  endfacet
  facet normal 0 0 1
    outer loop
      vertex 6 10.3923 1
      vertex 6 -10.3923 1
      vertex 12 0 1
    endloop
  endfacet
  facet normal -0 0 1
    outer loop
      vertex -6 10.3923 1
      vertex 6 -10.3923 1
      vertex 6 10.3923 1
    endloop
  endfacet
  facet normal 0 0 1
    outer loop
      vertex -6 10.3923 1
      vertex -6 -10.3923 1
      vertex 6 -10.3923 1
    endloop
  endfacet
  facet normal 0 -0 1
    outer loop
      vertex -6 -10.3923 1
      vertex -6 10.3923 1
      vertex -12 0 1
    endloop
  endfacet
  facet normal 0 1 -0
    outer loop
      vertex 6 -10.3923 1
      vertex -6 -10.3923 20
      vertex 6 -10.3923 20
    endloop
  endfacet
  facet normal 0 1 0
    outer loop
      vertex -6 -10.3923 20
      vertex 6 -10.3923 1
      vertex -6 -10.3923 1
    endloop
  endfacet
  facet normal 0.866025 0.5 0
    outer loop
      vertex -6 -10.3923 20
      vertex -12 0 1
      vertex -12 0 20
    endloop
  endfacet
  facet normal 0.866025 0.5 0
    outer loop
      vertex -12 0 1
      vertex -6 -10.3923 20
      vertex -6 -10.3923 1
    endloop
  endfacet
endsolid OpenSCAD_Model
