solid OpenSCAD_Model
  facet normal 0 1 -0
    outer loop
      vertex 197.045 127.945 0
      vertex 8.95471 127.945 5.5
      vertex 197.045 127.945 5.5
    endloop
  endfacet
  facet normal 0 1 0
    outer loop
      vertex 8.95471 127.945 5.5
      vertex 197.045 127.945 0
      vertex 8.95471 127.945 0
    endloop
  endfacet
  facet normal -0.994522 -0.104528 0
    outer loop
      vertex 0.218524 7.92088 0
      vertex 0 10 5.5
      vertex 0 10 0
    endloop
  endfacet
  facet normal -0.994522 -0.104528 0
    outer loop
      vertex 0 10 5.5
      vertex 0.218524 7.92088 0
      vertex 0.218524 7.92088 5.5
    endloop
  endfacet
  facet normal 0.207912 -0.978147 0
    outer loop
      vertex 197.045 0.054781 0
      vertex 199.09 0.489434 5.5
      vertex 197.045 0.054781 5.5
    endloop
  endfacet
  facet normal 0.207912 -0.978147 0
    outer loop
      vertex 199.09 0.489434 5.5
      vertex 197.045 0.054781 0
      vertex 199.09 0.489434 0
    endloop
  endfacet
  facet normal 0 -1 0
    outer loop
      vertex 8.95471 0.054781 5.5
      vertex 16 0.054781 2.5
      vertex 16 0.054781 5.5
    endloop
  endfacet
  facet normal 0 -1 -0
    outer loop
      vertex 16 0.054781 2.5
      vertex 8.95471 0.054781 0
      vertex 42 0.054781 2.5
    endloop
  endfacet
  facet normal 0 -1 0
    outer loop
      vertex 8.95471 0.054781 0
      vertex 16 0.054781 2.5
      vertex 8.95471 0.054781 5.5
    endloop
  endfacet
  facet normal 0 -1 0
    outer loop
      vertex 42 0.054781 2.5
      vertex 197.045 0.054781 5.5
      vertex 42 0.054781 5.5
    endloop
  endfacet
  facet normal 0 -1 0
    outer loop
      vertex 197.045 0.054781 0
      vertex 42 0.054781 2.5
      vertex 8.95471 0.054781 0
    endloop
  endfacet
  facet normal 0 -1 0
    outer loop
      vertex 42 0.054781 2.5
      vertex 197.045 0.054781 0
      vertex 197.045 0.054781 5.5
    endloop
  endfacet
  facet normal -1 0 0
    outer loop
      vertex 0 118 0
      vertex 0 97 2.5
      vertex 0 118 5.5
    endloop
  endfacet
  facet normal -1 0 0
    outer loop
      vertex 0 118 0
      vertex 0 81 2.5
      vertex 0 97 2.5
    endloop
  endfacet
  facet normal -1 0 0
    outer loop
      vertex 0 81 2.5
      vertex 0 80 2.5
      vertex 0 81 5.5
    endloop
  endfacet
  facet normal -1 0 0
    outer loop
      vertex 0 118 0
      vertex 0 80 2.5
      vertex 0 81 2.5
    endloop
  endfacet
  facet normal -1 0 0
    outer loop
      vertex 0 118 0
      vertex 0 72 2.5
      vertex 0 80 2.5
    endloop
  endfacet
  facet normal -1 0 0
    outer loop
      vertex 0 72 2.5
      vertex 0 64.5 3.5
      vertex 0 72 5.5
    endloop
  endfacet
  facet normal -1 0 0
    outer loop
      vertex 0 72 2.5
      vertex 0 63.5 3.5
      vertex 0 64.5 3.5
    endloop
  endfacet
  facet normal -1 -0 0
    outer loop
      vertex 0 63.5 3.5
      vertex 0 55 2.5
      vertex 0 63.5 4.5
    endloop
  endfacet
  facet normal -1 0 0
    outer loop
      vertex 0 72 2.5
      vertex 0 55 2.5
      vertex 0 63.5 3.5
    endloop
  endfacet
  facet normal -1 0 0
    outer loop
      vertex 0 118 0
      vertex 0 55 2.5
      vertex 0 72 2.5
    endloop
  endfacet
  facet normal -1 0 0
    outer loop
      vertex 0 10 0
      vertex 0 55 2.5
      vertex 0 118 0
    endloop
  endfacet
  facet normal -1 -0 0
    outer loop
      vertex 0 55 2.5
      vertex 0 10 0
      vertex 0 48 2.5
    endloop
  endfacet
  facet normal -1 0 0
    outer loop
      vertex 0 10 5.5
      vertex 0 48 2.5
      vertex 0 10 0
    endloop
  endfacet
  facet normal -1 0 0
    outer loop
      vertex 0 48 2.5
      vertex 0 10 5.5
      vertex 0 48 5.5
    endloop
  endfacet
  facet normal -1 -0 0
    outer loop
      vertex 0 118 5.5
      vertex 0 97 2.5
      vertex 0 97 5.5
    endloop
  endfacet
  facet normal -1 -0 0
    outer loop
      vertex 0 81 5.5
      vertex 0 80 2.5
      vertex 0 80 5.5
    endloop
  endfacet
  facet normal -1 0 0
    outer loop
      vertex 0 64.5 4.5
      vertex 0 72 5.5
      vertex 0 64.5 3.5
    endloop
  endfacet
  facet normal -1 0 0
    outer loop
      vertex 0 63.5 4.5
      vertex 0 72 5.5
      vertex 0 64.5 4.5
    endloop
  endfacet
  facet normal -1 0 0
    outer loop
      vertex 0 63.5 4.5
      vertex 0 55 5.5
      vertex 0 72 5.5
    endloop
  endfacet
  facet normal -1 0 0
    outer loop
      vertex 0 55 5.5
      vertex 0 63.5 4.5
      vertex 0 55 2.5
    endloop
  endfacet
  facet normal -0.994522 0.104528 0
    outer loop
      vertex 0 118 0
      vertex 0.218524 120.079 5.5
      vertex 0.218524 120.079 0
    endloop
  endfacet
  facet normal -0.994522 0.104528 0
    outer loop
      vertex 0.218524 120.079 5.5
      vertex 0 118 0
      vertex 0 118 5.5
    endloop
  endfacet
  facet normal -0 0 1
    outer loop
      vertex 0.864545 122.067 5.5
      vertex 11.5955 114.294 5.5
      vertex 1.90983 123.878 5.5
    endloop
  endfacet
  facet normal -0 0 1
    outer loop
      vertex 0.218524 120.079 5.5
      vertex 11.5955 114.294 5.5
      vertex 0.864545 122.067 5.5
    endloop
  endfacet
  facet normal -0 0 1
    outer loop
      vertex 0 118 5.5
      vertex 11.5955 114.294 5.5
      vertex 0.218524 120.079 5.5
    endloop
  endfacet
  facet normal 0 0 1
    outer loop
      vertex 11.5955 114.294 5.5
      vertex 0 118 5.5
      vertex 7 111.5 5.5
    endloop
  endfacet
  facet normal 0 0 1
    outer loop
      vertex 0 97 5.5
      vertex 7 111.5 5.5
      vertex 0 118 5.5
    endloop
  endfacet
  facet normal 0 0 1
    outer loop
      vertex 7 111.5 5.5
      vertex 0 97 5.5
      vertex 4 97 5.5
    endloop
  endfacet
  facet normal 0 0 1
    outer loop
      vertex 6 67.5 5.5
      vertex 6.5 71 5.5
      vertex 6.15451 70.5245 5.5
    endloop
  endfacet
  facet normal 0 0 1
    outer loop
      vertex 6.5 71 5.5
      vertex 6 67.5 5.5
      vertex 13 67.5 5.5
    endloop
  endfacet
  facet normal 0 0 1
    outer loop
      vertex 3.25 66.25 5.5
      vertex 6 67.5 5.5
      vertex 5.59549 70.7061 5.5
    endloop
  endfacet
  facet normal 0 0 1
    outer loop
      vertex 5.59549 70.7061 5.5
      vertex 6 67.5 5.5
      vertex 6.15451 70.5245 5.5
    endloop
  endfacet
  facet normal -0 0 1
    outer loop
      vertex 6.15451 56.5245 5.5
      vertex 13 55 5.5
      vertex 6.5 57 5.5
    endloop
  endfacet
  facet normal 0 0 1
    outer loop
      vertex 6 60.5 5.5
      vertex 3.25 61.75 5.5
      vertex 5.59549 57.2939 5.5
    endloop
  endfacet
  facet normal 0 0 1
    outer loop
      vertex 0 55 5.5
      vertex 5.59549 57.2939 5.5
      vertex 3.25 61.75 5.5
    endloop
  endfacet
  facet normal 0 0 1
    outer loop
      vertex 0 55 5.5
      vertex 3.25 61.75 5.5
      vertex 1.65901 62.409 5.5
    endloop
  endfacet
  facet normal 0 0 1
    outer loop
      vertex 6.15451 56.5245 5.5
      vertex 0 55 5.5
      vertex 13 55 5.5
    endloop
  endfacet
  facet normal 0 0 1
    outer loop
      vertex 5.59549 56.7061 5.5
      vertex 0 55 5.5
      vertex 6.15451 56.5245 5.5
    endloop
  endfacet
  facet normal 0 0 1
    outer loop
      vertex 5.59549 57.2939 5.5
      vertex 0 55 5.5
      vertex 5.59549 56.7061 5.5
    endloop
  endfacet
  facet normal 0 0 1
    outer loop
      vertex 1 64 5.5
      vertex 0 55 5.5
      vertex 1.65901 62.409 5.5
    endloop
  endfacet
  facet normal 0 0 1
    outer loop
      vertex 0 55 5.5
      vertex 1 64 5.5
      vertex 0 72 5.5
    endloop
  endfacet
  facet normal 0 0 1
    outer loop
      vertex 5.59549 45.7061 5.5
      vertex 8.59549 15.2939 5.5
      vertex 6.15451 45.5245 5.5
    endloop
  endfacet
  facet normal 0 0 1
    outer loop
      vertex 0 48 5.5
      vertex 8.59549 15.2939 5.5
      vertex 5.59549 45.7061 5.5
    endloop
  endfacet
  facet normal 0 -0 1
    outer loop
      vertex 0.218524 7.92088 5.5
      vertex 8.59549 15.2939 5.5
      vertex 0 10 5.5
    endloop
  endfacet
  facet normal 0 0 1
    outer loop
      vertex 13 48 5.5
      vertex 9.15451 15.4755 5.5
      vertex 9.5 15 5.5
    endloop
  endfacet
  facet normal 0 0 1
    outer loop
      vertex 6.15451 45.5245 5.5
      vertex 13 48 5.5
      vertex 6.5 46 5.5
    endloop
  endfacet
  facet normal 0 0 1
    outer loop
      vertex 8.59549 15.2939 5.5
      vertex 6.90983 0.489434 5.5
      vertex 8.59549 14.7061 5.5
    endloop
  endfacet
  facet normal 0 0 1
    outer loop
      vertex 9.15451 15.4755 5.5
      vertex 6.15451 45.5245 5.5
      vertex 8.59549 15.2939 5.5
    endloop
  endfacet
  facet normal 0 0 1
    outer loop
      vertex 13 48 5.5
      vertex 6.15451 45.5245 5.5
      vertex 9.15451 15.4755 5.5
    endloop
  endfacet
  facet normal 0 0 1
    outer loop
      vertex 13 48 5.5
      vertex 6.15451 46.4755 5.5
      vertex 6.5 46 5.5
    endloop
  endfacet
  facet normal 0 0 1
    outer loop
      vertex 0 48 5.5
      vertex 5.59549 45.7061 5.5
      vertex 5.59549 46.2939 5.5
    endloop
  endfacet
  facet normal 0 0 1
    outer loop
      vertex 8.59549 15.2939 5.5
      vertex 5 1.33975 5.5
      vertex 6.90983 0.489434 5.5
    endloop
  endfacet
  facet normal 0 0 1
    outer loop
      vertex 8.59549 15.2939 5.5
      vertex 3.30869 2.56855 5.5
      vertex 5 1.33975 5.5
    endloop
  endfacet
  facet normal 0 0 1
    outer loop
      vertex 8.59549 15.2939 5.5
      vertex 1.90983 4.12215 5.5
      vertex 3.30869 2.56855 5.5
    endloop
  endfacet
  facet normal 0 0 1
    outer loop
      vertex 8.59549 15.2939 5.5
      vertex 0.864545 5.93263 5.5
      vertex 1.90983 4.12215 5.5
    endloop
  endfacet
  facet normal -0 0 1
    outer loop
      vertex 0 48 5.5
      vertex 6.15451 46.4755 5.5
      vertex 13 48 5.5
    endloop
  endfacet
  facet normal 0 0 1
    outer loop
      vertex 0 48 5.5
      vertex 5.59549 46.2939 5.5
      vertex 6.15451 46.4755 5.5
    endloop
  endfacet
  facet normal 0 0 1
    outer loop
      vertex 8.59549 15.2939 5.5
      vertex 0 48 5.5
      vertex 0 10 5.5
    endloop
  endfacet
  facet normal 0 0 1
    outer loop
      vertex 8.59549 15.2939 5.5
      vertex 0.218524 7.92088 5.5
      vertex 0.864545 5.93263 5.5
    endloop
  endfacet
  facet normal 0 0 1
    outer loop
      vertex 10 86.5 5.5
      vertex 9.15451 83.4755 5.5
      vertex 9.5 83 5.5
    endloop
  endfacet
  facet normal -0 0 1
    outer loop
      vertex 7 86.5 5.5
      vertex 9.15451 83.4755 5.5
      vertex 10 86.5 5.5
    endloop
  endfacet
  facet normal 0 0 1
    outer loop
      vertex 4 81 5.5
      vertex 8.59549 83.2939 5.5
      vertex 7 86.5 5.5
    endloop
  endfacet
  facet normal 0 0 1
    outer loop
      vertex 9.15451 83.4755 5.5
      vertex 7 86.5 5.5
      vertex 8.59549 83.2939 5.5
    endloop
  endfacet
  facet normal 0 0 1
    outer loop
      vertex 13 60.5 5.5
      vertex 6.5 57 5.5
      vertex 13 55 5.5
    endloop
  endfacet
  facet normal -0 0 1
    outer loop
      vertex 6 60.5 5.5
      vertex 6.5 57 5.5
      vertex 13 60.5 5.5
    endloop
  endfacet
  facet normal 0 0 1
    outer loop
      vertex 6.5 57 5.5
      vertex 6 60.5 5.5
      vertex 6.15451 57.4755 5.5
    endloop
  endfacet
  facet normal 0 0 1
    outer loop
      vertex 6 60.5 5.5
      vertex 5.59549 57.2939 5.5
      vertex 6.15451 57.4755 5.5
    endloop
  endfacet
  facet normal 0 0 1
    outer loop
      vertex 6 67.5 5.5
      vertex 5.5 64 5.5
      vertex 6 60.5 5.5
    endloop
  endfacet
  facet normal 0 0 1
    outer loop
      vertex 13 72 5.5
      vertex 6.5 71 5.5
      vertex 13 67.5 5.5
    endloop
  endfacet
  facet normal 0 0 1
    outer loop
      vertex 13 72 5.5
      vertex 6.15451 71.4755 5.5
      vertex 6.5 71 5.5
    endloop
  endfacet
  facet normal 0 0 1
    outer loop
      vertex 0 72 5.5
      vertex 5.59549 70.7061 5.5
      vertex 5.59549 71.2939 5.5
    endloop
  endfacet
  facet normal -0 0 1
    outer loop
      vertex 4.84099 62.409 5.5
      vertex 6 60.5 5.5
      vertex 5.5 64 5.5
    endloop
  endfacet
  facet normal -0 0 1
    outer loop
      vertex 3.25 61.75 5.5
      vertex 6 60.5 5.5
      vertex 4.84099 62.409 5.5
    endloop
  endfacet
  facet normal 0 0 1
    outer loop
      vertex 6 67.5 5.5
      vertex 4.84099 65.591 5.5
      vertex 5.5 64 5.5
    endloop
  endfacet
  facet normal 0 0 1
    outer loop
      vertex 6 67.5 5.5
      vertex 3.25 66.25 5.5
      vertex 4.84099 65.591 5.5
    endloop
  endfacet
  facet normal 0 0 1
    outer loop
      vertex 5.59549 70.7061 5.5
      vertex 0 72 5.5
      vertex 3.25 66.25 5.5
    endloop
  endfacet
  facet normal 0 0 1
    outer loop
      vertex 1.65901 65.591 5.5
      vertex 0 72 5.5
      vertex 1 64 5.5
    endloop
  endfacet
  facet normal 0 0 1
    outer loop
      vertex 3.25 66.25 5.5
      vertex 0 72 5.5
      vertex 1.65901 65.591 5.5
    endloop
  endfacet
  facet normal 0 0 1
    outer loop
      vertex 6.15451 71.4755 5.5
      vertex 0 72 5.5
      vertex 5.59549 71.2939 5.5
    endloop
  endfacet
  facet normal -0 0 1
    outer loop
      vertex 0 72 5.5
      vertex 6.15451 71.4755 5.5
      vertex 13 72 5.5
    endloop
  endfacet
  facet normal -0 0 1
    outer loop
      vertex 31.1545 5.47553 5.5
      vertex 42 3 5.5
      vertex 196 7 5.5
    endloop
  endfacet
  facet normal 0 0 1
    outer loop
      vertex 42 3 5.5
      vertex 31.1545 5.47553 5.5
      vertex 31.5 5 5.5
    endloop
  endfacet
  facet normal 0 0 1
    outer loop
      vertex 30.5955 5.29389 5.5
      vertex 16 3 5.5
      vertex 30.5955 4.70611 5.5
    endloop
  endfacet
  facet normal 0 0 1
    outer loop
      vertex 14 7 5.5
      vertex 30.5955 5.29389 5.5
      vertex 31.1545 5.47553 5.5
    endloop
  endfacet
  facet normal -0 0 1
    outer loop
      vertex 14 7 5.5
      vertex 31.1545 5.47553 5.5
      vertex 196 7 5.5
    endloop
  endfacet
  facet normal 0 0 1
    outer loop
      vertex 30.5955 5.29389 5.5
      vertex 14 7 5.5
      vertex 16 3 5.5
    endloop
  endfacet
  facet normal 0 0 1
    outer loop
      vertex 8.95471 0.054781 5.5
      vertex 16 3 5.5
      vertex 14 7 5.5
    endloop
  endfacet
  facet normal -0 0 1
    outer loop
      vertex 13 72 5.5
      vertex 14 7 5.5
      vertex 13 80 5.5
    endloop
  endfacet
  facet normal -0 0 1
    outer loop
      vertex 13 67.5 5.5
      vertex 14 7 5.5
      vertex 13 72 5.5
    endloop
  endfacet
  facet normal -0 0 1
    outer loop
      vertex 13 60.5 5.5
      vertex 14 7 5.5
      vertex 13 67.5 5.5
    endloop
  endfacet
  facet normal -0 0 1
    outer loop
      vertex 13 55 5.5
      vertex 14 7 5.5
      vertex 13 60.5 5.5
    endloop
  endfacet
  facet normal -0 0 1
    outer loop
      vertex 13 48 5.5
      vertex 14 7 5.5
      vertex 13 55 5.5
    endloop
  endfacet
  facet normal -0 0 1
    outer loop
      vertex 9.5 15 5.5
      vertex 14 7 5.5
      vertex 13 48 5.5
    endloop
  endfacet
  facet normal -0 0 1
    outer loop
      vertex 9.15451 14.5245 5.5
      vertex 14 7 5.5
      vertex 9.5 15 5.5
    endloop
  endfacet
  facet normal 0 0 1
    outer loop
      vertex 6.90983 0.489434 5.5
      vertex 14 7 5.5
      vertex 9.15451 14.5245 5.5
    endloop
  endfacet
  facet normal 0 0 1
    outer loop
      vertex 16 3 5.5
      vertex 8.95471 0.054781 5.5
      vertex 16 0.054781 5.5
    endloop
  endfacet
  facet normal 0 0 1
    outer loop
      vertex 6.90983 0.489434 5.5
      vertex 9.15451 14.5245 5.5
      vertex 8.59549 14.7061 5.5
    endloop
  endfacet
  facet normal 0 0 1
    outer loop
      vertex 14 7 5.5
      vertex 6.90983 0.489434 5.5
      vertex 8.95471 0.054781 5.5
    endloop
  endfacet
  facet normal 0 0 1
    outer loop
      vertex 199.09 0.489434 5.5
      vertex 196 7 5.5
      vertex 197.045 0.054781 5.5
    endloop
  endfacet
  facet normal 0 0 1
    outer loop
      vertex 42 0.054781 5.5
      vertex 196 7 5.5
      vertex 42 3 5.5
    endloop
  endfacet
  facet normal 0 0 1
    outer loop
      vertex 196 7 5.5
      vertex 42 0.054781 5.5
      vertex 197.045 0.054781 5.5
    endloop
  endfacet
  facet normal -0 0 1
    outer loop
      vertex 31.1545 4.52447 5.5
      vertex 42 3 5.5
      vertex 31.5 5 5.5
    endloop
  endfacet
  facet normal 0 0 1
    outer loop
      vertex 31.1545 4.52447 5.5
      vertex 16 3 5.5
      vertex 42 3 5.5
    endloop
  endfacet
  facet normal 0 0 1
    outer loop
      vertex 16 3 5.5
      vertex 31.1545 4.52447 5.5
      vertex 30.5955 4.70611 5.5
    endloop
  endfacet
  facet normal 0 0 1
    outer loop
      vertex 10 86.5 5.5
      vertex 12.5 114 5.5
      vertex 12.1545 113.524 5.5
    endloop
  endfacet
  facet normal 0 0 1
    outer loop
      vertex 10 111.5 5.5
      vertex 12.1545 113.524 5.5
      vertex 11.5955 113.706 5.5
    endloop
  endfacet
  facet normal 0 0 1
    outer loop
      vertex 12.1545 113.524 5.5
      vertex 10 111.5 5.5
      vertex 10 86.5 5.5
    endloop
  endfacet
  facet normal 0 0 1
    outer loop
      vertex 12.5 114 5.5
      vertex 10 86.5 5.5
      vertex 13 80 5.5
    endloop
  endfacet
  facet normal -0 0 1
    outer loop
      vertex 9.5 83 5.5
      vertex 13 80 5.5
      vertex 10 86.5 5.5
    endloop
  endfacet
  facet normal -0 0 1
    outer loop
      vertex 9.15451 82.5245 5.5
      vertex 13 80 5.5
      vertex 9.5 83 5.5
    endloop
  endfacet
  facet normal 0 0 1
    outer loop
      vertex 4 81 5.5
      vertex 9.15451 82.5245 5.5
      vertex 8.59549 82.7061 5.5
    endloop
  endfacet
  facet normal -0 0 1
    outer loop
      vertex 1.90983 123.878 5.5
      vertex 11.5955 114.294 5.5
      vertex 3.30869 125.431 5.5
    endloop
  endfacet
  facet normal 0 0 1
    outer loop
      vertex 7 111.5 5.5
      vertex 4 97 5.5
      vertex 7 86.5 5.5
    endloop
  endfacet
  facet normal 0 0 1
    outer loop
      vertex 4 81 5.5
      vertex 7 86.5 5.5
      vertex 4 97 5.5
    endloop
  endfacet
  facet normal 0 0 1
    outer loop
      vertex 8.59549 83.2939 5.5
      vertex 4 81 5.5
      vertex 8.59549 82.7061 5.5
    endloop
  endfacet
  facet normal 0 0 1
    outer loop
      vertex 9.15451 82.5245 5.5
      vertex 4 81 5.5
      vertex 13 80 5.5
    endloop
  endfacet
  facet normal 0 0 1
    outer loop
      vertex 0 80 5.5
      vertex 4 81 5.5
      vertex 0 81 5.5
    endloop
  endfacet
  facet normal 0 0 1
    outer loop
      vertex 4 81 5.5
      vertex 0 80 5.5
      vertex 13 80 5.5
    endloop
  endfacet
  facet normal -0 0 1
    outer loop
      vertex 200.155 90.5245 5.5
      vertex 200.5 36 5.5
      vertex 200.5 91 5.5
    endloop
  endfacet
  facet normal 0 0 1
    outer loop
      vertex 200.155 90.5245 5.5
      vertex 200.155 36.4755 5.5
      vertex 200.5 36 5.5
    endloop
  endfacet
  facet normal 0 0 1
    outer loop
      vertex 199.595 90.7061 5.5
      vertex 200.155 36.4755 5.5
      vertex 200.155 90.5245 5.5
    endloop
  endfacet
  facet normal 0 0 1
    outer loop
      vertex 200.155 36.4755 5.5
      vertex 199.595 90.7061 5.5
      vertex 199.595 36.2939 5.5
    endloop
  endfacet
  facet normal 0 0 1
    outer loop
      vertex 196 125 5.5
      vertex 206 118 5.5
      vertex 205.781 120.079 5.5
    endloop
  endfacet
  facet normal 0 0 1
    outer loop
      vertex 206 118 5.5
      vertex 200.5 91 5.5
      vertex 206 10 5.5
    endloop
  endfacet
  facet normal 0 0 1
    outer loop
      vertex 196 125 5.5
      vertex 205.781 120.079 5.5
      vertex 205.135 122.067 5.5
    endloop
  endfacet
  facet normal -0 0 1
    outer loop
      vertex 200.5 36 5.5
      vertex 206 10 5.5
      vertex 200.5 91 5.5
    endloop
  endfacet
  facet normal 0 0 1
    outer loop
      vertex 196 125 5.5
      vertex 205.135 122.067 5.5
      vertex 204.09 123.878 5.5
    endloop
  endfacet
  facet normal -0 0 1
    outer loop
      vertex 200.155 35.5245 5.5
      vertex 206 10 5.5
      vertex 200.5 36 5.5
    endloop
  endfacet
  facet normal -0 0 1
    outer loop
      vertex 196 125 5.5
      vertex 204.09 123.878 5.5
      vertex 202.691 125.431 5.5
    endloop
  endfacet
  facet normal 0 0 1
    outer loop
      vertex 196 7 5.5
      vertex 200.155 35.5245 5.5
      vertex 199.595 35.7061 5.5
    endloop
  endfacet
  facet normal 0 0 1
    outer loop
      vertex 196 125 5.5
      vertex 202.691 125.431 5.5
      vertex 201 126.66 5.5
    endloop
  endfacet
  facet normal 0 0 1
    outer loop
      vertex 200.155 35.5245 5.5
      vertex 196 7 5.5
      vertex 206 10 5.5
    endloop
  endfacet
  facet normal 0 0 1
    outer loop
      vertex 196 7 5.5
      vertex 205.781 7.92088 5.5
      vertex 206 10 5.5
    endloop
  endfacet
  facet normal 0 0 1
    outer loop
      vertex 206 118 5.5
      vertex 200.155 91.4755 5.5
      vertex 200.5 91 5.5
    endloop
  endfacet
  facet normal 0 0 1
    outer loop
      vertex 206 118 5.5
      vertex 196 125 5.5
      vertex 199.595 91.2939 5.5
    endloop
  endfacet
  facet normal 0 0 1
    outer loop
      vertex 196 125 5.5
      vertex 199.595 90.7061 5.5
      vertex 199.595 91.2939 5.5
    endloop
  endfacet
  facet normal 0 0 1
    outer loop
      vertex 196 7 5.5
      vertex 199.595 90.7061 5.5
      vertex 196 125 5.5
    endloop
  endfacet
  facet normal 0 0 1
    outer loop
      vertex 206 118 5.5
      vertex 199.595 91.2939 5.5
      vertex 200.155 91.4755 5.5
    endloop
  endfacet
  facet normal 0 0 1
    outer loop
      vertex 196 125 5.5
      vertex 201 126.66 5.5
      vertex 199.09 127.511 5.5
    endloop
  endfacet
  facet normal -0 0 1
    outer loop
      vertex 196 7 5.5
      vertex 205.135 5.93263 5.5
      vertex 205.781 7.92088 5.5
    endloop
  endfacet
  facet normal 0 0 1
    outer loop
      vertex 196 7 5.5
      vertex 204.09 4.12215 5.5
      vertex 205.135 5.93263 5.5
    endloop
  endfacet
  facet normal 0 0 1
    outer loop
      vertex 196 7 5.5
      vertex 202.691 2.56855 5.5
      vertex 204.09 4.12215 5.5
    endloop
  endfacet
  facet normal 0 0 1
    outer loop
      vertex 196 7 5.5
      vertex 201 1.33975 5.5
      vertex 202.691 2.56855 5.5
    endloop
  endfacet
  facet normal 0 0 1
    outer loop
      vertex 199.595 90.7061 5.5
      vertex 196 7 5.5
      vertex 199.595 36.2939 5.5
    endloop
  endfacet
  facet normal 0 0 1
    outer loop
      vertex 196 125 5.5
      vertex 199.09 127.511 5.5
      vertex 197.045 127.945 5.5
    endloop
  endfacet
  facet normal 0 0 1
    outer loop
      vertex 196 7 5.5
      vertex 199.595 35.7061 5.5
      vertex 199.595 36.2939 5.5
    endloop
  endfacet
  facet normal 0 0 1
    outer loop
      vertex 196 7 5.5
      vertex 199.09 0.489434 5.5
      vertex 201 1.33975 5.5
    endloop
  endfacet
  facet normal 0 0 1
    outer loop
      vertex 197.045 127.945 5.5
      vertex 14 125 5.5
      vertex 196 125 5.5
    endloop
  endfacet
  facet normal 0 0 1
    outer loop
      vertex 14 125 5.5
      vertex 13 80 5.5
      vertex 14 7 5.5
    endloop
  endfacet
  facet normal 0 0 1
    outer loop
      vertex 14 125 5.5
      vertex 12.5 114 5.5
      vertex 13 80 5.5
    endloop
  endfacet
  facet normal 0 0 1
    outer loop
      vertex 14 125 5.5
      vertex 12.1545 114.476 5.5
      vertex 12.5 114 5.5
    endloop
  endfacet
  facet normal 0 0 1
    outer loop
      vertex 14 125 5.5
      vertex 11.5955 114.294 5.5
      vertex 12.1545 114.476 5.5
    endloop
  endfacet
  facet normal 0 0 1
    outer loop
      vertex 11.5955 114.294 5.5
      vertex 10 111.5 5.5
      vertex 11.5955 113.706 5.5
    endloop
  endfacet
  facet normal -0 0 1
    outer loop
      vertex 5 126.66 5.5
      vertex 14 125 5.5
      vertex 6.90983 127.511 5.5
    endloop
  endfacet
  facet normal -0 0 1
    outer loop
      vertex 8.95471 127.945 5.5
      vertex 14 125 5.5
      vertex 197.045 127.945 5.5
    endloop
  endfacet
  facet normal -0 0 1
    outer loop
      vertex 6.90983 127.511 5.5
      vertex 14 125 5.5
      vertex 8.95471 127.945 5.5
    endloop
  endfacet
  facet normal 0 0 1
    outer loop
      vertex 14 125 5.5
      vertex 5 126.66 5.5
      vertex 11.5955 114.294 5.5
    endloop
  endfacet
  facet normal -0 0 1
    outer loop
      vertex 3.30869 125.431 5.5
      vertex 11.5955 114.294 5.5
      vertex 5 126.66 5.5
    endloop
  endfacet
  facet normal 0 0 1
    outer loop
      vertex 11.5955 114.294 5.5
      vertex 7 111.5 5.5
      vertex 10 111.5 5.5
    endloop
  endfacet
  facet normal -0.207912 0.978148 0
    outer loop
      vertex 8.95471 127.945 0
      vertex 6.90983 127.511 5.5
      vertex 8.95471 127.945 5.5
    endloop
  endfacet
  facet normal -0.207912 0.978148 0
    outer loop
      vertex 6.90983 127.511 5.5
      vertex 8.95471 127.945 0
      vertex 6.90983 127.511 0
    endloop
  endfacet
  facet normal -0.406737 0.913545 0
    outer loop
      vertex 6.90983 127.511 0
      vertex 5 126.66 5.5
      vertex 6.90983 127.511 5.5
    endloop
  endfacet
  facet normal -0.406737 0.913545 0
    outer loop
      vertex 5 126.66 5.5
      vertex 6.90983 127.511 0
      vertex 5 126.66 0
    endloop
  endfacet
  facet normal -0.866025 0.5 0
    outer loop
      vertex 0.864545 122.067 0
      vertex 1.90983 123.878 5.5
      vertex 1.90983 123.878 0
    endloop
  endfacet
  facet normal -0.866025 0.5 0
    outer loop
      vertex 1.90983 123.878 5.5
      vertex 0.864545 122.067 0
      vertex 0.864545 122.067 5.5
    endloop
  endfacet
  facet normal 0.406736 -0.913546 0
    outer loop
      vertex 199.09 0.489434 0
      vertex 201 1.33975 5.5
      vertex 199.09 0.489434 5.5
    endloop
  endfacet
  facet normal 0.406736 -0.913546 0
    outer loop
      vertex 201 1.33975 5.5
      vertex 199.09 0.489434 0
      vertex 201 1.33975 0
    endloop
  endfacet
  facet normal 0 0 -1
    outer loop
      vertex 204 10 0
      vertex 206 10 0
      vertex 205.781 7.92088 0
    endloop
  endfacet
  facet normal 0 0 -1
    outer loop
      vertex 206 10 0
      vertex 204 10 0
      vertex 206 118 0
    endloop
  endfacet
  facet normal 0 0 -1
    outer loop
      vertex 203.768 8.08547 0
      vertex 205.781 7.92088 0
      vertex 205.135 5.93263 0
    endloop
  endfacet
  facet normal 0 0 -1
    outer loop
      vertex 204 118 0
      vertex 206 118 0
      vertex 204 10 0
    endloop
  endfacet
  facet normal 0 0 -1
    outer loop
      vertex 203.084 6.28221 0
      vertex 205.135 5.93263 0
      vertex 204.09 4.12215 0
    endloop
  endfacet
  facet normal 0 0 -1
    outer loop
      vertex 206 118 0
      vertex 204 118 0
      vertex 205.781 120.079 0
    endloop
  endfacet
  facet normal 0 0 -1
    outer loop
      vertex 203.768 119.915 0
      vertex 205.781 120.079 0
      vertex 204 118 0
    endloop
  endfacet
  facet normal 0 0 -1
    outer loop
      vertex 205.781 7.92088 0
      vertex 203.768 8.08547 0
      vertex 204 10 0
    endloop
  endfacet
  facet normal 0 0 -1
    outer loop
      vertex 205.135 5.93263 0
      vertex 203.084 6.28221 0
      vertex 203.768 8.08547 0
    endloop
  endfacet
  facet normal 0 0 -1
    outer loop
      vertex 201.988 4.69502 0
      vertex 204.09 4.12215 0
      vertex 202.691 2.56855 0
    endloop
  endfacet
  facet normal 0 0 -1
    outer loop
      vertex 204.09 4.12215 0
      vertex 201.988 4.69502 0
      vertex 203.084 6.28221 0
    endloop
  endfacet
  facet normal 0 0 -1
    outer loop
      vertex 200.545 3.41613 0
      vertex 202.691 2.56855 0
      vertex 201 1.33975 0
    endloop
  endfacet
  facet normal 0 0 -1
    outer loop
      vertex 202.691 2.56855 0
      vertex 200.545 3.41613 0
      vertex 201.988 4.69502 0
    endloop
  endfacet
  facet normal 0 0 -1
    outer loop
      vertex 198.837 2.51987 0
      vertex 201 1.33975 0
      vertex 199.09 0.489434 0
    endloop
  endfacet
  facet normal 0 0 -1
    outer loop
      vertex 201 1.33975 0
      vertex 198.837 2.51987 0
      vertex 200.545 3.41613 0
    endloop
  endfacet
  facet normal 0 0 -1
    outer loop
      vertex 196.964 2.05833 0
      vertex 199.09 0.489434 0
      vertex 197.045 0.054781 0
    endloop
  endfacet
  facet normal 0 0 -1
    outer loop
      vertex 199.09 0.489434 0
      vertex 196.964 2.05833 0
      vertex 198.837 2.51987 0
    endloop
  endfacet
  facet normal 0 0 -1
    outer loop
      vertex 197.045 0.054781 0
      vertex 9.03571 2.05833 0
      vertex 196.964 2.05833 0
    endloop
  endfacet
  facet normal 0 0 -1
    outer loop
      vertex 8.95471 0.054781 0
      vertex 9.03571 2.05833 0
      vertex 197.045 0.054781 0
    endloop
  endfacet
  facet normal 0 0 -1
    outer loop
      vertex 6.90983 0.489434 0
      vertex 9.03571 2.05833 0
      vertex 8.95471 0.054781 0
    endloop
  endfacet
  facet normal -0 0 -1
    outer loop
      vertex 9.03571 2.05833 0
      vertex 6.90983 0.489434 0
      vertex 7.16316 2.51987 0
    endloop
  endfacet
  facet normal 0 0 -1
    outer loop
      vertex 5 1.33975 0
      vertex 7.16316 2.51987 0
      vertex 6.90983 0.489434 0
    endloop
  endfacet
  facet normal -0 0 -1
    outer loop
      vertex 7.16316 2.51987 0
      vertex 5 1.33975 0
      vertex 5.45548 3.41613 0
    endloop
  endfacet
  facet normal 0 0 -1
    outer loop
      vertex 3.30869 2.56855 0
      vertex 5.45548 3.41613 0
      vertex 5 1.33975 0
    endloop
  endfacet
  facet normal -0 0 -1
    outer loop
      vertex 5.45548 3.41613 0
      vertex 3.30869 2.56855 0
      vertex 4.01191 4.69502 0
    endloop
  endfacet
  facet normal 0 0 -1
    outer loop
      vertex 1.90983 4.12215 0
      vertex 4.01191 4.69502 0
      vertex 3.30869 2.56855 0
    endloop
  endfacet
  facet normal -0 0 -1
    outer loop
      vertex 4.01191 4.69502 0
      vertex 1.90983 4.12215 0
      vertex 2.91635 6.28221 0
    endloop
  endfacet
  facet normal 0 0 -1
    outer loop
      vertex 0.218524 7.92088 0
      vertex 2.23246 8.08547 0
      vertex 0.864545 5.93263 0
    endloop
  endfacet
  facet normal -0 0 -1
    outer loop
      vertex 2.91635 6.28221 0
      vertex 0.864545 5.93263 0
      vertex 2.23246 8.08547 0
    endloop
  endfacet
  facet normal 0 0 -1
    outer loop
      vertex 0.864545 5.93263 0
      vertex 2.91635 6.28221 0
      vertex 1.90983 4.12215 0
    endloop
  endfacet
  facet normal -0 0 -1
    outer loop
      vertex 205.781 120.079 0
      vertex 203.768 119.915 0
      vertex 205.135 122.067 0
    endloop
  endfacet
  facet normal 0 0 -1
    outer loop
      vertex 203.084 121.718 0
      vertex 205.135 122.067 0
      vertex 203.768 119.915 0
    endloop
  endfacet
  facet normal -0 0 -1
    outer loop
      vertex 205.135 122.067 0
      vertex 203.084 121.718 0
      vertex 204.09 123.878 0
    endloop
  endfacet
  facet normal 0 0 -1
    outer loop
      vertex 201.988 123.305 0
      vertex 204.09 123.878 0
      vertex 203.084 121.718 0
    endloop
  endfacet
  facet normal -0 0 -1
    outer loop
      vertex 204.09 123.878 0
      vertex 201.988 123.305 0
      vertex 202.691 125.431 0
    endloop
  endfacet
  facet normal 0 0 -1
    outer loop
      vertex 200.545 124.584 0
      vertex 202.691 125.431 0
      vertex 201.988 123.305 0
    endloop
  endfacet
  facet normal -0 0 -1
    outer loop
      vertex 202.691 125.431 0
      vertex 200.545 124.584 0
      vertex 201 126.66 0
    endloop
  endfacet
  facet normal 0 0 -1
    outer loop
      vertex 198.837 125.48 0
      vertex 201 126.66 0
      vertex 200.545 124.584 0
    endloop
  endfacet
  facet normal -0 0 -1
    outer loop
      vertex 201 126.66 0
      vertex 198.837 125.48 0
      vertex 199.09 127.511 0
    endloop
  endfacet
  facet normal 0 0 -1
    outer loop
      vertex 196.964 125.942 0
      vertex 199.09 127.511 0
      vertex 198.837 125.48 0
    endloop
  endfacet
  facet normal -0 0 -1
    outer loop
      vertex 199.09 127.511 0
      vertex 196.964 125.942 0
      vertex 197.045 127.945 0
    endloop
  endfacet
  facet normal 0 0 -1
    outer loop
      vertex 9.03571 125.942 0
      vertex 197.045 127.945 0
      vertex 196.964 125.942 0
    endloop
  endfacet
  facet normal 0 0 -1
    outer loop
      vertex 9.03571 125.942 0
      vertex 8.95471 127.945 0
      vertex 197.045 127.945 0
    endloop
  endfacet
  facet normal 0 0 -1
    outer loop
      vertex 6.90983 127.511 0
      vertex 9.03571 125.942 0
      vertex 7.16316 125.48 0
    endloop
  endfacet
  facet normal 0 0 -1
    outer loop
      vertex 9.03571 125.942 0
      vertex 6.90983 127.511 0
      vertex 8.95471 127.945 0
    endloop
  endfacet
  facet normal 0 0 -1
    outer loop
      vertex 5 126.66 0
      vertex 7.16316 125.48 0
      vertex 5.45548 124.584 0
    endloop
  endfacet
  facet normal 0 0 -1
    outer loop
      vertex 7.16316 125.48 0
      vertex 5 126.66 0
      vertex 6.90983 127.511 0
    endloop
  endfacet
  facet normal 0 0 -1
    outer loop
      vertex 3.30869 125.431 0
      vertex 5.45548 124.584 0
      vertex 4.01191 123.305 0
    endloop
  endfacet
  facet normal 0 0 -1
    outer loop
      vertex 5.45548 124.584 0
      vertex 3.30869 125.431 0
      vertex 5 126.66 0
    endloop
  endfacet
  facet normal 0 0 -1
    outer loop
      vertex 1.90983 123.878 0
      vertex 4.01191 123.305 0
      vertex 2.91635 121.718 0
    endloop
  endfacet
  facet normal 0 0 -1
    outer loop
      vertex 0.864545 122.067 0
      vertex 2.91635 121.718 0
      vertex 2.23246 119.915 0
    endloop
  endfacet
  facet normal 0 0 -1
    outer loop
      vertex 4.01191 123.305 0
      vertex 1.90983 123.878 0
      vertex 3.30869 125.431 0
    endloop
  endfacet
  facet normal 0 0 -1
    outer loop
      vertex 0.218524 120.079 0
      vertex 2.23246 119.915 0
      vertex 2 118 0
    endloop
  endfacet
  facet normal 0 0 -1
    outer loop
      vertex 2 10 0
      vertex 0 10 0
      vertex 2 118 0
    endloop
  endfacet
  facet normal -0 0 -1
    outer loop
      vertex 2.23246 8.08547 0
      vertex 0.218524 7.92088 0
      vertex 2 10 0
    endloop
  endfacet
  facet normal 0 0 -1
    outer loop
      vertex 0 118 0
      vertex 2 118 0
      vertex 0 10 0
    endloop
  endfacet
  facet normal -0 0 -1
    outer loop
      vertex 2 10 0
      vertex 0.218524 7.92088 0
      vertex 0 10 0
    endloop
  endfacet
  facet normal 0 -0 -1
    outer loop
      vertex 0.218524 120.079 0
      vertex 2 118 0
      vertex 0 118 0
    endloop
  endfacet
  facet normal 0 0 -1
    outer loop
      vertex 2.91635 121.718 0
      vertex 0.864545 122.067 0
      vertex 1.90983 123.878 0
    endloop
  endfacet
  facet normal 0 0 -1
    outer loop
      vertex 2.23246 119.915 0
      vertex 0.218524 120.079 0
      vertex 0.864545 122.067 0
    endloop
  endfacet
  facet normal -0.743145 0.669131 0
    outer loop
      vertex 1.90983 123.878 0
      vertex 3.30869 125.431 5.5
      vertex 3.30869 125.431 0
    endloop
  endfacet
  facet normal -0.743145 0.669131 0
    outer loop
      vertex 3.30869 125.431 5.5
      vertex 1.90983 123.878 0
      vertex 1.90983 123.878 5.5
    endloop
  endfacet
  facet normal -0.951057 0.309017 0
    outer loop
      vertex 0.218524 120.079 0
      vertex 0.864545 122.067 5.5
      vertex 0.864545 122.067 0
    endloop
  endfacet
  facet normal -0.951057 0.309017 0
    outer loop
      vertex 0.864545 122.067 5.5
      vertex 0.218524 120.079 0
      vertex 0.218524 120.079 5.5
    endloop
  endfacet
  facet normal 0.207913 0.978147 -0
    outer loop
      vertex 199.09 127.511 0
      vertex 197.045 127.945 5.5
      vertex 199.09 127.511 5.5
    endloop
  endfacet
  facet normal 0.207913 0.978147 0
    outer loop
      vertex 197.045 127.945 5.5
      vertex 199.09 127.511 0
      vertex 197.045 127.945 0
    endloop
  endfacet
  facet normal 0.951056 0.309019 0
    outer loop
      vertex 205.781 120.079 5.5
      vertex 205.135 122.067 0
      vertex 205.135 122.067 5.5
    endloop
  endfacet
  facet normal 0.951056 0.309019 0
    outer loop
      vertex 205.135 122.067 0
      vertex 205.781 120.079 5.5
      vertex 205.781 120.079 0
    endloop
  endfacet
  facet normal 0.951056 -0.309019 0
    outer loop
      vertex 205.135 5.93263 5.5
      vertex 205.781 7.92088 0
      vertex 205.781 7.92088 5.5
    endloop
  endfacet
  facet normal 0.951056 -0.309019 0
    outer loop
      vertex 205.781 7.92088 0
      vertex 205.135 5.93263 5.5
      vertex 205.135 5.93263 0
    endloop
  endfacet
  facet normal 1 -0 0
    outer loop
      vertex 206 10 5.5
      vertex 206 118 0
      vertex 206 118 5.5
    endloop
  endfacet
  facet normal 1 0 0
    outer loop
      vertex 206 118 0
      vertex 206 10 5.5
      vertex 206 10 0
    endloop
  endfacet
  facet normal -0.951057 -0.309017 0
    outer loop
      vertex 0.864545 5.93263 0
      vertex 0.218524 7.92088 5.5
      vertex 0.218524 7.92088 0
    endloop
  endfacet
  facet normal -0.951057 -0.309017 0
    outer loop
      vertex 0.218524 7.92088 5.5
      vertex 0.864545 5.93263 0
      vertex 0.864545 5.93263 5.5
    endloop
  endfacet
  facet normal -0.406737 -0.913545 0
    outer loop
      vertex 5 1.33975 0
      vertex 6.90983 0.489434 5.5
      vertex 5 1.33975 5.5
    endloop
  endfacet
  facet normal -0.406737 -0.913545 -0
    outer loop
      vertex 6.90983 0.489434 5.5
      vertex 5 1.33975 0
      vertex 6.90983 0.489434 0
    endloop
  endfacet
  facet normal -0.743145 -0.669131 0
    outer loop
      vertex 3.30869 2.56855 0
      vertex 1.90983 4.12215 5.5
      vertex 1.90983 4.12215 0
    endloop
  endfacet
  facet normal -0.743145 -0.669131 0
    outer loop
      vertex 1.90983 4.12215 5.5
      vertex 3.30869 2.56855 0
      vertex 3.30869 2.56855 5.5
    endloop
  endfacet
  facet normal -0.587785 -0.809017 0
    outer loop
      vertex 3.30869 2.56855 0
      vertex 5 1.33975 5.5
      vertex 3.30869 2.56855 5.5
    endloop
  endfacet
  facet normal -0.587785 -0.809017 -0
    outer loop
      vertex 5 1.33975 5.5
      vertex 3.30869 2.56855 0
      vertex 5 1.33975 0
    endloop
  endfacet
  facet normal -0.587785 0.809017 0
    outer loop
      vertex 5 126.66 0
      vertex 3.30869 125.431 5.5
      vertex 5 126.66 5.5
    endloop
  endfacet
  facet normal -0.587785 0.809017 0
    outer loop
      vertex 3.30869 125.431 5.5
      vertex 5 126.66 0
      vertex 3.30869 125.431 0
    endloop
  endfacet
  facet normal 0.406736 0.913546 -0
    outer loop
      vertex 201 126.66 0
      vertex 199.09 127.511 5.5
      vertex 201 126.66 5.5
    endloop
  endfacet
  facet normal 0.406736 0.913546 0
    outer loop
      vertex 199.09 127.511 5.5
      vertex 201 126.66 0
      vertex 199.09 127.511 0
    endloop
  endfacet
  facet normal 0.866025 0.500001 0
    outer loop
      vertex 205.135 122.067 5.5
      vertex 204.09 123.878 0
      vertex 204.09 123.878 5.5
    endloop
  endfacet
  facet normal 0.866025 0.500001 0
    outer loop
      vertex 204.09 123.878 0
      vertex 205.135 122.067 5.5
      vertex 205.135 122.067 0
    endloop
  endfacet
  facet normal 0.587787 -0.809016 0
    outer loop
      vertex 201 1.33975 0
      vertex 202.691 2.56855 5.5
      vertex 201 1.33975 5.5
    endloop
  endfacet
  facet normal 0.587787 -0.809016 0
    outer loop
      vertex 202.691 2.56855 5.5
      vertex 201 1.33975 0
      vertex 202.691 2.56855 0
    endloop
  endfacet
  facet normal 0.866025 -0.500001 0
    outer loop
      vertex 204.09 4.12215 5.5
      vertex 205.135 5.93263 0
      vertex 205.135 5.93263 5.5
    endloop
  endfacet
  facet normal 0.866025 -0.500001 0
    outer loop
      vertex 205.135 5.93263 0
      vertex 204.09 4.12215 5.5
      vertex 204.09 4.12215 0
    endloop
  endfacet
  facet normal -0.866026 -0.5 0
    outer loop
      vertex 1.90983 4.12215 0
      vertex 0.864545 5.93263 5.5
      vertex 0.864545 5.93263 0
    endloop
  endfacet
  facet normal -0.866026 -0.5 0
    outer loop
      vertex 0.864545 5.93263 5.5
      vertex 1.90983 4.12215 0
      vertex 1.90983 4.12215 5.5
    endloop
  endfacet
  facet normal -0.207911 -0.978148 0
    outer loop
      vertex 6.90983 0.489434 0
      vertex 8.95471 0.054781 5.5
      vertex 6.90983 0.489434 5.5
    endloop
  endfacet
  facet normal -0.207911 -0.978148 -0
    outer loop
      vertex 8.95471 0.054781 5.5
      vertex 6.90983 0.489434 0
      vertex 8.95471 0.054781 0
    endloop
  endfacet
  facet normal 0.587787 0.809016 -0
    outer loop
      vertex 202.691 125.431 0
      vertex 201 126.66 5.5
      vertex 202.691 125.431 5.5
    endloop
  endfacet
  facet normal 0.587787 0.809016 0
    outer loop
      vertex 201 126.66 5.5
      vertex 202.691 125.431 0
      vertex 201 126.66 0
    endloop
  endfacet
  facet normal 0.994522 0.104527 0
    outer loop
      vertex 206 118 5.5
      vertex 205.781 120.079 0
      vertex 205.781 120.079 5.5
    endloop
  endfacet
  facet normal 0.994522 0.104527 0
    outer loop
      vertex 205.781 120.079 0
      vertex 206 118 5.5
      vertex 206 118 0
    endloop
  endfacet
  facet normal 0.994522 -0.104527 0
    outer loop
      vertex 205.781 7.92088 5.5
      vertex 206 10 0
      vertex 206 10 5.5
    endloop
  endfacet
  facet normal 0.994522 -0.104527 0
    outer loop
      vertex 206 10 0
      vertex 205.781 7.92088 5.5
      vertex 205.781 7.92088 0
    endloop
  endfacet
  facet normal 0.743145 -0.669131 0
    outer loop
      vertex 202.691 2.56855 5.5
      vertex 204.09 4.12215 0
      vertex 204.09 4.12215 5.5
    endloop
  endfacet
  facet normal 0.743145 -0.669131 0
    outer loop
      vertex 204.09 4.12215 0
      vertex 202.691 2.56855 5.5
      vertex 202.691 2.56855 0
    endloop
  endfacet
  facet normal 0.743145 0.669131 0
    outer loop
      vertex 204.09 123.878 5.5
      vertex 202.691 125.431 0
      vertex 202.691 125.431 5.5
    endloop
  endfacet
  facet normal 0.743145 0.669131 0
    outer loop
      vertex 202.691 125.431 0
      vertex 204.09 123.878 5.5
      vertex 204.09 123.878 0
    endloop
  endfacet
  facet normal 1 -0 0
    outer loop
      vertex 14 7 5.5
      vertex 14 125 1
      vertex 14 125 5.5
    endloop
  endfacet
  facet normal 1 0 0
    outer loop
      vertex 14 125 1
      vertex 14 7 5.5
      vertex 14 7 1
    endloop
  endfacet
  facet normal -1 0 0
    outer loop
      vertex 196 7 1
      vertex 196 125 5.5
      vertex 196 125 1
    endloop
  endfacet
  facet normal -1 -0 0
    outer loop
      vertex 196 125 5.5
      vertex 196 7 1
      vertex 196 7 5.5
    endloop
  endfacet
  facet normal 0 -1 0
    outer loop
      vertex 14 125 1
      vertex 196 125 5.5
      vertex 14 125 5.5
    endloop
  endfacet
  facet normal 0 -1 -0
    outer loop
      vertex 196 125 5.5
      vertex 14 125 1
      vertex 196 125 1
    endloop
  endfacet
  facet normal 0 1 -0
    outer loop
      vertex 196 7 1
      vertex 14 7 5.5
      vertex 196 7 5.5
    endloop
  endfacet
  facet normal 0 1 0
    outer loop
      vertex 14 7 5.5
      vertex 196 7 1
      vertex 14 7 1
    endloop
  endfacet
  facet normal 0 -1 0
    outer loop
      vertex 9.03571 125.942 0
      vertex 196.964 125.942 1
      vertex 9.03571 125.942 1
    endloop
  endfacet
  facet normal 0 -1 -0
    outer loop
      vertex 196.964 125.942 1
      vertex 9.03571 125.942 0
      vertex 196.964 125.942 0
    endloop
  endfacet
  facet normal 0.992709 0.120536 0
    outer loop
      vertex 2.23246 8.08547 1
      vertex 2 10 0
      vertex 2 10 1
    endloop
  endfacet
  facet normal 0.992709 0.120536 0
    outer loop
      vertex 2 10 0
      vertex 2.23246 8.08547 1
      vertex 2.23246 8.08547 0
    endloop
  endfacet
  facet normal 0.464725 -0.885455 0
    outer loop
      vertex 5.45548 124.584 0
      vertex 7.16316 125.48 1
      vertex 5.45548 124.584 1
    endloop
  endfacet
  facet normal 0.464725 -0.885455 0
    outer loop
      vertex 7.16316 125.48 1
      vertex 5.45548 124.584 0
      vertex 7.16316 125.48 0
    endloop
  endfacet
  facet normal -0.239316 0.970942 0
    outer loop
      vertex 198.837 2.51987 0
      vertex 196.964 2.05833 1
      vertex 198.837 2.51987 1
    endloop
  endfacet
  facet normal -0.239316 0.970942 0
    outer loop
      vertex 196.964 2.05833 1
      vertex 198.837 2.51987 0
      vertex 196.964 2.05833 0
    endloop
  endfacet
  facet normal 0 1 -0
    outer loop
      vertex 196.964 2.05833 0
      vertex 9.03571 2.05833 1
      vertex 196.964 2.05833 1
    endloop
  endfacet
  facet normal 0 1 0
    outer loop
      vertex 9.03571 2.05833 1
      vertex 196.964 2.05833 0
      vertex 9.03571 2.05833 0
    endloop
  endfacet
  facet normal 1 -0 0
    outer loop
      vertex 2 10 1
      vertex 2 118 0
      vertex 2 118 1
    endloop
  endfacet
  facet normal 1 0 0
    outer loop
      vertex 2 118 0
      vertex 2 10 1
      vertex 2 10 0
    endloop
  endfacet
  facet normal 0.992709 -0.120536 0
    outer loop
      vertex 2 118 1
      vertex 2.23246 119.915 0
      vertex 2.23246 119.915 1
    endloop
  endfacet
  facet normal 0.992709 -0.120536 0
    outer loop
      vertex 2.23246 119.915 0
      vertex 2 118 1
      vertex 2 118 0
    endloop
  endfacet
  facet normal 0.663123 -0.74851 0
    outer loop
      vertex 4.01191 123.305 0
      vertex 5.45548 124.584 1
      vertex 4.01191 123.305 1
    endloop
  endfacet
  facet normal 0.663123 -0.74851 0
    outer loop
      vertex 5.45548 124.584 1
      vertex 4.01191 123.305 0
      vertex 5.45548 124.584 0
    endloop
  endfacet
  facet normal -0.992709 0.120538 0
    outer loop
      vertex 203.768 8.08547 0
      vertex 204 10 1
      vertex 204 10 0
    endloop
  endfacet
  facet normal -0.992709 0.120538 0
    outer loop
      vertex 204 10 1
      vertex 203.768 8.08547 0
      vertex 203.768 8.08547 1
    endloop
  endfacet
  facet normal -0.464721 0.885457 0
    outer loop
      vertex 200.545 3.41613 0
      vertex 198.837 2.51987 1
      vertex 200.545 3.41613 1
    endloop
  endfacet
  facet normal -0.464721 0.885457 0
    outer loop
      vertex 198.837 2.51987 1
      vertex 200.545 3.41613 0
      vertex 198.837 2.51987 0
    endloop
  endfacet
  facet normal 0.822984 0.568065 0
    outer loop
      vertex 4.01191 4.69502 1
      vertex 2.91635 6.28221 0
      vertex 2.91635 6.28221 1
    endloop
  endfacet
  facet normal 0.822984 0.568065 0
    outer loop
      vertex 2.91635 6.28221 0
      vertex 4.01191 4.69502 1
      vertex 4.01191 4.69502 0
    endloop
  endfacet
  facet normal 0.663123 0.748511 -0
    outer loop
      vertex 5.45548 3.41613 0
      vertex 4.01191 4.69502 1
      vertex 5.45548 3.41613 1
    endloop
  endfacet
  facet normal 0.663123 0.748511 0
    outer loop
      vertex 4.01191 4.69502 1
      vertex 5.45548 3.41613 0
      vertex 4.01191 4.69502 0
    endloop
  endfacet
  facet normal 0.464723 0.885456 -0
    outer loop
      vertex 7.16316 2.51987 0
      vertex 5.45548 3.41613 1
      vertex 7.16316 2.51987 1
    endloop
  endfacet
  facet normal 0.464723 0.885456 0
    outer loop
      vertex 5.45548 3.41613 1
      vertex 7.16316 2.51987 0
      vertex 5.45548 3.41613 0
    endloop
  endfacet
  facet normal 0.239315 -0.970942 0
    outer loop
      vertex 7.16316 125.48 0
      vertex 9.03571 125.942 1
      vertex 7.16316 125.48 1
    endloop
  endfacet
  facet normal 0.239315 -0.970942 0
    outer loop
      vertex 9.03571 125.942 1
      vertex 7.16316 125.48 0
      vertex 9.03571 125.942 0
    endloop
  endfacet
  facet normal -0.239316 -0.970942 0
    outer loop
      vertex 196.964 125.942 0
      vertex 198.837 125.48 1
      vertex 196.964 125.942 1
    endloop
  endfacet
  facet normal -0.239316 -0.970942 -0
    outer loop
      vertex 198.837 125.48 1
      vertex 196.964 125.942 0
      vertex 198.837 125.48 0
    endloop
  endfacet
  facet normal -1 0 0
    outer loop
      vertex 204 10 0
      vertex 204 118 1
      vertex 204 118 0
    endloop
  endfacet
  facet normal -1 -0 0
    outer loop
      vertex 204 118 1
      vertex 204 10 0
      vertex 204 10 1
    endloop
  endfacet
  facet normal -0.822983 0.568066 0
    outer loop
      vertex 201.988 4.69502 0
      vertex 203.084 6.28221 1
      vertex 203.084 6.28221 0
    endloop
  endfacet
  facet normal -0.822983 0.568066 0
    outer loop
      vertex 203.084 6.28221 1
      vertex 201.988 4.69502 0
      vertex 201.988 4.69502 1
    endloop
  endfacet
  facet normal 0.239316 0.970942 -0
    outer loop
      vertex 9.03571 2.05833 0
      vertex 7.16316 2.51987 1
      vertex 9.03571 2.05833 1
    endloop
  endfacet
  facet normal 0.239316 0.970942 0
    outer loop
      vertex 7.16316 2.51987 1
      vertex 9.03571 2.05833 0
      vertex 7.16316 2.51987 0
    endloop
  endfacet
  facet normal 0 0 -1
    outer loop
      vertex 9.0019 67.4644 1
      vertex 10 86.5 1
      vertex 10.954 67.1837 1
    endloop
  endfacet
  facet normal 0 0 -1
    outer loop
      vertex 7 86.5 1
      vertex 9.0019 67.4644 1
      vertex 7.20799 66.6451 1
    endloop
  endfacet
  facet normal 0 0 -1
    outer loop
      vertex 9.0019 67.4644 1
      vertex 7 86.5 1
      vertex 10 86.5 1
    endloop
  endfacet
  facet normal 0 0 -1
    outer loop
      vertex 2 118 1
      vertex 7 86.5 1
      vertex 6.14177 64.9861 1
    endloop
  endfacet
  facet normal 0 0 -1
    outer loop
      vertex 6.14177 64.9861 1
      vertex 7 86.5 1
      vertex 7.20799 66.6451 1
    endloop
  endfacet
  facet normal 0 0 -1
    outer loop
      vertex 196 7 1
      vertex 204 10 1
      vertex 203.768 8.08547 1
    endloop
  endfacet
  facet normal -0 0 -1
    outer loop
      vertex 204 10 1
      vertex 196 7 1
      vertex 204 118 1
    endloop
  endfacet
  facet normal 0 0 -1
    outer loop
      vertex 196 7 1
      vertex 203.768 8.08547 1
      vertex 203.084 6.28221 1
    endloop
  endfacet
  facet normal 0 0 -1
    outer loop
      vertex 196 125 1
      vertex 204 118 1
      vertex 196 7 1
    endloop
  endfacet
  facet normal 0 0 -1
    outer loop
      vertex 196 7 1
      vertex 203.084 6.28221 1
      vertex 201.988 4.69502 1
    endloop
  endfacet
  facet normal 0 0 -1
    outer loop
      vertex 204 118 1
      vertex 196 125 1
      vertex 203.768 119.915 1
    endloop
  endfacet
  facet normal 0 0 -1
    outer loop
      vertex 196 7 1
      vertex 201.988 4.69502 1
      vertex 200.545 3.41613 1
    endloop
  endfacet
  facet normal 0 0 -1
    outer loop
      vertex 203.768 119.915 1
      vertex 196 125 1
      vertex 203.084 121.718 1
    endloop
  endfacet
  facet normal 0 0 -1
    outer loop
      vertex 196 7 1
      vertex 200.545 3.41613 1
      vertex 198.837 2.51987 1
    endloop
  endfacet
  facet normal 0 0 -1
    outer loop
      vertex 203.084 121.718 1
      vertex 196 125 1
      vertex 201.988 123.305 1
    endloop
  endfacet
  facet normal 0 0 -1
    outer loop
      vertex 196 7 1
      vertex 198.837 2.51987 1
      vertex 196.964 2.05833 1
    endloop
  endfacet
  facet normal 0 0 -1
    outer loop
      vertex 201.988 123.305 1
      vertex 196 125 1
      vertex 200.545 124.584 1
    endloop
  endfacet
  facet normal 0 0 -1
    outer loop
      vertex 200.545 124.584 1
      vertex 196 125 1
      vertex 198.837 125.48 1
    endloop
  endfacet
  facet normal 0 0 -1
    outer loop
      vertex 196.964 2.05833 1
      vertex 14 7 1
      vertex 196 7 1
    endloop
  endfacet
  facet normal 0 0 -1
    outer loop
      vertex 14 7 1
      vertex 13 64 1
      vertex 14 125 1
    endloop
  endfacet
  facet normal 0 0 -1
    outer loop
      vertex 14 7 1
      vertex 12.4444 62.1078 1
      vertex 13 64 1
    endloop
  endfacet
  facet normal 0 0 -1
    outer loop
      vertex 14 7 1
      vertex 10.954 60.8163 1
      vertex 12.4444 62.1078 1
    endloop
  endfacet
  facet normal 0 0 -1
    outer loop
      vertex 9.03571 2.05833 1
      vertex 14 7 1
      vertex 196.964 2.05833 1
    endloop
  endfacet
  facet normal 0 0 -1
    outer loop
      vertex 7.16316 2.51987 1
      vertex 14 7 1
      vertex 9.03571 2.05833 1
    endloop
  endfacet
  facet normal 0 0 -1
    outer loop
      vertex 14 7 1
      vertex 2 10 1
      vertex 10.954 60.8163 1
    endloop
  endfacet
  facet normal 0 0 -1
    outer loop
      vertex 10.954 60.8163 1
      vertex 2 10 1
      vertex 9.0019 60.5356 1
    endloop
  endfacet
  facet normal 0 0 -1
    outer loop
      vertex 5.45548 3.41613 1
      vertex 14 7 1
      vertex 7.16316 2.51987 1
    endloop
  endfacet
  facet normal -0 0 -1
    outer loop
      vertex 9.0019 60.5356 1
      vertex 2 10 1
      vertex 7.20799 61.3549 1
    endloop
  endfacet
  facet normal -0 0 -1
    outer loop
      vertex 7.20799 61.3549 1
      vertex 2 10 1
      vertex 6.14177 63.0139 1
    endloop
  endfacet
  facet normal 0 0 -1
    outer loop
      vertex 4.01191 4.69502 1
      vertex 14 7 1
      vertex 5.45548 3.41613 1
    endloop
  endfacet
  facet normal -0 0 -1
    outer loop
      vertex 198.837 125.48 1
      vertex 196 125 1
      vertex 196.964 125.942 1
    endloop
  endfacet
  facet normal 0 0 -1
    outer loop
      vertex 14 125 1
      vertex 196.964 125.942 1
      vertex 196 125 1
    endloop
  endfacet
  facet normal 0 0 -1
    outer loop
      vertex 10 86.5 1
      vertex 13 64 1
      vertex 12.4444 65.8922 1
    endloop
  endfacet
  facet normal 0 0 -1
    outer loop
      vertex 10 86.5 1
      vertex 12.4444 65.8922 1
      vertex 10.954 67.1837 1
    endloop
  endfacet
  facet normal 0 0 -1
    outer loop
      vertex 13 64 1
      vertex 10 86.5 1
      vertex 14 125 1
    endloop
  endfacet
  facet normal 0 0 -1
    outer loop
      vertex 10 111.5 1
      vertex 14 125 1
      vertex 10 86.5 1
    endloop
  endfacet
  facet normal 0 0 -1
    outer loop
      vertex 14 125 1
      vertex 9.03571 125.942 1
      vertex 196.964 125.942 1
    endloop
  endfacet
  facet normal 0 0 -1
    outer loop
      vertex 10 111.5 1
      vertex 9.03571 125.942 1
      vertex 14 125 1
    endloop
  endfacet
  facet normal 0 0 -1
    outer loop
      vertex 10 111.5 1
      vertex 7.16316 125.48 1
      vertex 9.03571 125.942 1
    endloop
  endfacet
  facet normal 0 0 -1
    outer loop
      vertex 2 118 1
      vertex 10 111.5 1
      vertex 7 111.5 1
    endloop
  endfacet
  facet normal 0 0 -1
    outer loop
      vertex 7 86.5 1
      vertex 2 118 1
      vertex 7 111.5 1
    endloop
  endfacet
  facet normal 0 0 -1
    outer loop
      vertex 10 111.5 1
      vertex 2 118 1
      vertex 2.23246 119.915 1
    endloop
  endfacet
  facet normal -0 0 -1
    outer loop
      vertex 6.14177 63.0139 1
      vertex 2 10 1
      vertex 6.14177 64.9861 1
    endloop
  endfacet
  facet normal 0 0 -1
    outer loop
      vertex 2.91635 6.28221 1
      vertex 14 7 1
      vertex 4.01191 4.69502 1
    endloop
  endfacet
  facet normal 0 0 -1
    outer loop
      vertex 2 118 1
      vertex 6.14177 64.9861 1
      vertex 2 10 1
    endloop
  endfacet
  facet normal 0 0 -1
    outer loop
      vertex 2.23246 8.08547 1
      vertex 14 7 1
      vertex 2.91635 6.28221 1
    endloop
  endfacet
  facet normal 0 0 -1
    outer loop
      vertex 10 111.5 1
      vertex 5.45548 124.584 1
      vertex 7.16316 125.48 1
    endloop
  endfacet
  facet normal 0 0 -1
    outer loop
      vertex 14 7 1
      vertex 2.23246 8.08547 1
      vertex 2 10 1
    endloop
  endfacet
  facet normal 0 0 -1
    outer loop
      vertex 10 111.5 1
      vertex 4.01191 123.305 1
      vertex 5.45548 124.584 1
    endloop
  endfacet
  facet normal 0 0 -1
    outer loop
      vertex 10 111.5 1
      vertex 2.91635 121.718 1
      vertex 4.01191 123.305 1
    endloop
  endfacet
  facet normal 0 0 -1
    outer loop
      vertex 10 111.5 1
      vertex 2.23246 119.915 1
      vertex 2.91635 121.718 1
    endloop
  endfacet
  facet normal 0.935016 0.354605 0
    outer loop
      vertex 2.91635 6.28221 1
      vertex 2.23246 8.08547 0
      vertex 2.23246 8.08547 1
    endloop
  endfacet
  facet normal 0.935016 0.354605 0
    outer loop
      vertex 2.23246 8.08547 0
      vertex 2.91635 6.28221 1
      vertex 2.91635 6.28221 0
    endloop
  endfacet
  facet normal 0.935016 -0.354605 0
    outer loop
      vertex 2.23246 119.915 1
      vertex 2.91635 121.718 0
      vertex 2.91635 121.718 1
    endloop
  endfacet
  facet normal 0.935016 -0.354605 0
    outer loop
      vertex 2.91635 121.718 0
      vertex 2.23246 119.915 1
      vertex 2.23246 119.915 0
    endloop
  endfacet
  facet normal 0.822983 -0.568066 0
    outer loop
      vertex 2.91635 121.718 1
      vertex 4.01191 123.305 0
      vertex 4.01191 123.305 1
    endloop
  endfacet
  facet normal 0.822983 -0.568066 0
    outer loop
      vertex 4.01191 123.305 0
      vertex 2.91635 121.718 1
      vertex 2.91635 121.718 0
    endloop
  endfacet
  facet normal -0.822982 -0.568068 0
    outer loop
      vertex 203.084 121.718 0
      vertex 201.988 123.305 1
      vertex 201.988 123.305 0
    endloop
  endfacet
  facet normal -0.822982 -0.568068 0
    outer loop
      vertex 201.988 123.305 1
      vertex 203.084 121.718 0
      vertex 203.084 121.718 1
    endloop
  endfacet
  facet normal -0.935017 0.354604 0
    outer loop
      vertex 203.084 6.28221 0
      vertex 203.768 8.08547 1
      vertex 203.768 8.08547 0
    endloop
  endfacet
  facet normal -0.935017 0.354604 0
    outer loop
      vertex 203.768 8.08547 1
      vertex 203.084 6.28221 0
      vertex 203.084 6.28221 1
    endloop
  endfacet
  facet normal -0.663125 0.748508 0
    outer loop
      vertex 201.988 4.69502 0
      vertex 200.545 3.41613 1
      vertex 201.988 4.69502 1
    endloop
  endfacet
  facet normal -0.663125 0.748508 0
    outer loop
      vertex 200.545 3.41613 1
      vertex 201.988 4.69502 0
      vertex 200.545 3.41613 0
    endloop
  endfacet
  facet normal -0.464723 -0.885456 0
    outer loop
      vertex 198.837 125.48 0
      vertex 200.545 124.584 1
      vertex 198.837 125.48 1
    endloop
  endfacet
  facet normal -0.464723 -0.885456 -0
    outer loop
      vertex 200.545 124.584 1
      vertex 198.837 125.48 0
      vertex 200.545 124.584 0
    endloop
  endfacet
  facet normal -0.663126 -0.748508 0
    outer loop
      vertex 200.545 124.584 0
      vertex 201.988 123.305 1
      vertex 200.545 124.584 1
    endloop
  endfacet
  facet normal -0.663126 -0.748508 -0
    outer loop
      vertex 201.988 123.305 1
      vertex 200.545 124.584 0
      vertex 201.988 123.305 0
    endloop
  endfacet
  facet normal -0.992709 -0.120538 0
    outer loop
      vertex 204 118 0
      vertex 203.768 119.915 1
      vertex 203.768 119.915 0
    endloop
  endfacet
  facet normal -0.992709 -0.120538 0
    outer loop
      vertex 203.768 119.915 1
      vertex 204 118 0
      vertex 204 118 1
    endloop
  endfacet
  facet normal -0.935017 -0.354604 0
    outer loop
      vertex 203.768 119.915 0
      vertex 203.084 121.718 1
      vertex 203.084 121.718 0
    endloop
  endfacet
  facet normal -0.935017 -0.354604 0
    outer loop
      vertex 203.084 121.718 1
      vertex 203.768 119.915 0
      vertex 203.768 119.915 1
    endloop
  endfacet
  facet normal 1 -0 0
    outer loop
      vertex 6 60.5 5.5
      vertex 6 67.5 4.5
      vertex 6 67.5 5.5
    endloop
  endfacet
  facet normal 1 0 0
    outer loop
      vertex 6 67.5 4.5
      vertex 6 60.5 5.5
      vertex 6 60.5 4.5
    endloop
  endfacet
  facet normal -1 0 0
    outer loop
      vertex 13 64 4.5
      vertex 13 67.5 5.5
      vertex 13 67.5 4.5
    endloop
  endfacet
  facet normal -1 0 0
    outer loop
      vertex 13 60.5 5.5
      vertex 13 64 4.5
      vertex 13 60.5 4.5
    endloop
  endfacet
  facet normal -1 0 0
    outer loop
      vertex 13 64 4.5
      vertex 13 60.5 5.5
      vertex 13 67.5 5.5
    endloop
  endfacet
  facet normal 0 0 1
    outer loop
      vertex 13 67.5 4.5
      vertex 12.4444 65.8922 4.5
      vertex 13 64 4.5
    endloop
  endfacet
  facet normal 0 0 1
    outer loop
      vertex 13 67.5 4.5
      vertex 10.954 67.1837 4.5
      vertex 12.4444 65.8922 4.5
    endloop
  endfacet
  facet normal 0 0 1
    outer loop
      vertex 13 67.5 4.5
      vertex 9.0019 67.4644 4.5
      vertex 10.954 67.1837 4.5
    endloop
  endfacet
  facet normal 0 0 1
    outer loop
      vertex 6.14177 64.9861 4.5
      vertex 6 67.5 4.5
      vertex 6.14177 63.0139 4.5
    endloop
  endfacet
  facet normal 0 0 1
    outer loop
      vertex 7.20799 66.6451 4.5
      vertex 6 67.5 4.5
      vertex 6.14177 64.9861 4.5
    endloop
  endfacet
  facet normal 0 0 1
    outer loop
      vertex 9.0019 67.4644 4.5
      vertex 6 67.5 4.5
      vertex 7.20799 66.6451 4.5
    endloop
  endfacet
  facet normal -0 0 1
    outer loop
      vertex 6 67.5 4.5
      vertex 9.0019 67.4644 4.5
      vertex 13 67.5 4.5
    endloop
  endfacet
  facet normal -0 0 1
    outer loop
      vertex 12.4444 62.1078 4.5
      vertex 13 60.5 4.5
      vertex 13 64 4.5
    endloop
  endfacet
  facet normal -0 0 1
    outer loop
      vertex 10.954 60.8163 4.5
      vertex 13 60.5 4.5
      vertex 12.4444 62.1078 4.5
    endloop
  endfacet
  facet normal -0 0 1
    outer loop
      vertex 9.0019 60.5356 4.5
      vertex 13 60.5 4.5
      vertex 10.954 60.8163 4.5
    endloop
  endfacet
  facet normal 0 0 1
    outer loop
      vertex 9.0019 60.5356 4.5
      vertex 6 60.5 4.5
      vertex 13 60.5 4.5
    endloop
  endfacet
  facet normal 0 0 1
    outer loop
      vertex 7.20799 61.3549 4.5
      vertex 6 60.5 4.5
      vertex 9.0019 60.5356 4.5
    endloop
  endfacet
  facet normal 0 0 1
    outer loop
      vertex 6.14177 63.0139 4.5
      vertex 6 60.5 4.5
      vertex 7.20799 61.3549 4.5
    endloop
  endfacet
  facet normal 0 0 1
    outer loop
      vertex 6 60.5 4.5
      vertex 6.14177 63.0139 4.5
      vertex 6 67.5 4.5
    endloop
  endfacet
  facet normal 0 1 -0
    outer loop
      vertex 13 60.5 4.5
      vertex 6 60.5 5.5
      vertex 13 60.5 5.5
    endloop
  endfacet
  facet normal 0 1 0
    outer loop
      vertex 6 60.5 5.5
      vertex 13 60.5 4.5
      vertex 6 60.5 4.5
    endloop
  endfacet
  facet normal 0 -1 0
    outer loop
      vertex 6 67.5 4.5
      vertex 13 67.5 5.5
      vertex 6 67.5 5.5
    endloop
  endfacet
  facet normal 0 -1 -0
    outer loop
      vertex 13 67.5 5.5
      vertex 6 67.5 4.5
      vertex 13 67.5 4.5
    endloop
  endfacet
  facet normal -0.959493 -0.281733 0
    outer loop
      vertex 13 64 1
      vertex 12.4444 65.8922 4.5
      vertex 12.4444 65.8922 1
    endloop
  endfacet
  facet normal -0.959493 -0.281733 0
    outer loop
      vertex 12.4444 65.8922 4.5
      vertex 13 64 1
      vertex 13 64 4.5
    endloop
  endfacet
  facet normal 1 -0 0
    outer loop
      vertex 6.14177 63.0139 4.5
      vertex 6.14177 64.9861 1
      vertex 6.14177 64.9861 4.5
    endloop
  endfacet
  facet normal 1 0 0
    outer loop
      vertex 6.14177 64.9861 1
      vertex 6.14177 63.0139 4.5
      vertex 6.14177 63.0139 1
    endloop
  endfacet
  facet normal 0.415412 -0.909633 0
    outer loop
      vertex 7.20799 66.6451 1
      vertex 9.0019 67.4644 4.5
      vertex 7.20799 66.6451 4.5
    endloop
  endfacet
  facet normal 0.415412 -0.909633 0
    outer loop
      vertex 9.0019 67.4644 4.5
      vertex 7.20799 66.6451 1
      vertex 9.0019 67.4644 1
    endloop
  endfacet
  facet normal 0.841254 -0.540639 0
    outer loop
      vertex 6.14177 64.9861 4.5
      vertex 7.20799 66.6451 1
      vertex 7.20799 66.6451 4.5
    endloop
  endfacet
  facet normal 0.841254 -0.540639 0
    outer loop
      vertex 7.20799 66.6451 1
      vertex 6.14177 64.9861 4.5
      vertex 6.14177 64.9861 1
    endloop
  endfacet
  facet normal -0.142315 0.989821 0
    outer loop
      vertex 10.954 60.8163 1
      vertex 9.0019 60.5356 4.5
      vertex 10.954 60.8163 4.5
    endloop
  endfacet
  facet normal -0.142315 0.989821 0
    outer loop
      vertex 9.0019 60.5356 4.5
      vertex 10.954 60.8163 1
      vertex 9.0019 60.5356 1
    endloop
  endfacet
  facet normal -0.654861 0.755749 0
    outer loop
      vertex 12.4444 62.1078 1
      vertex 10.954 60.8163 4.5
      vertex 12.4444 62.1078 4.5
    endloop
  endfacet
  facet normal -0.654861 0.755749 0
    outer loop
      vertex 10.954 60.8163 4.5
      vertex 12.4444 62.1078 1
      vertex 10.954 60.8163 1
    endloop
  endfacet
  facet normal -0.142315 -0.989821 0
    outer loop
      vertex 9.0019 67.4644 1
      vertex 10.954 67.1837 4.5
      vertex 9.0019 67.4644 4.5
    endloop
  endfacet
  facet normal -0.142315 -0.989821 -0
    outer loop
      vertex 10.954 67.1837 4.5
      vertex 9.0019 67.4644 1
      vertex 10.954 67.1837 1
    endloop
  endfacet
  facet normal -0.65486 -0.75575 0
    outer loop
      vertex 10.954 67.1837 1
      vertex 12.4444 65.8922 4.5
      vertex 10.954 67.1837 4.5
    endloop
  endfacet
  facet normal -0.65486 -0.75575 -0
    outer loop
      vertex 12.4444 65.8922 4.5
      vertex 10.954 67.1837 1
      vertex 12.4444 65.8922 1
    endloop
  endfacet
  facet normal -0.959493 0.281733 0
    outer loop
      vertex 12.4444 62.1078 1
      vertex 13 64 4.5
      vertex 13 64 1
    endloop
  endfacet
  facet normal -0.959493 0.281733 0
    outer loop
      vertex 13 64 4.5
      vertex 12.4444 62.1078 1
      vertex 12.4444 62.1078 4.5
    endloop
  endfacet
  facet normal 0.415414 0.909633 -0
    outer loop
      vertex 9.0019 60.5356 1
      vertex 7.20799 61.3549 4.5
      vertex 9.0019 60.5356 4.5
    endloop
  endfacet
  facet normal 0.415414 0.909633 0
    outer loop
      vertex 7.20799 61.3549 4.5
      vertex 9.0019 60.5356 1
      vertex 7.20799 61.3549 1
    endloop
  endfacet
  facet normal 0.841254 0.54064 0
    outer loop
      vertex 7.20799 61.3549 4.5
      vertex 6.14177 63.0139 1
      vertex 6.14177 63.0139 4.5
    endloop
  endfacet
  facet normal 0.841254 0.54064 0
    outer loop
      vertex 6.14177 63.0139 1
      vertex 7.20799 61.3549 4.5
      vertex 7.20799 61.3549 1
    endloop
  endfacet
  facet normal -0.923879 -0.382684 0
    outer loop
      vertex 5.5 64 3
      vertex 4.84099 65.591 5.5
      vertex 4.84099 65.591 3
    endloop
  endfacet
  facet normal -0.923879 -0.382684 0
    outer loop
      vertex 4.84099 65.591 5.5
      vertex 5.5 64 3
      vertex 5.5 64 5.5
    endloop
  endfacet
  facet normal 0.382684 -0.923879 0
    outer loop
      vertex 1.65901 65.591 3
      vertex 3.25 66.25 5.5
      vertex 1.65901 65.591 5.5
    endloop
  endfacet
  facet normal 0.382684 -0.923879 0
    outer loop
      vertex 3.25 66.25 5.5
      vertex 1.65901 65.591 3
      vertex 3.25 66.25 3
    endloop
  endfacet
  facet normal -0.382685 -0.923879 0
    outer loop
      vertex 3.25 66.25 3
      vertex 4.84099 65.591 5.5
      vertex 3.25 66.25 5.5
    endloop
  endfacet
  facet normal -0.382685 -0.923879 -0
    outer loop
      vertex 4.84099 65.591 5.5
      vertex 3.25 66.25 3
      vertex 4.84099 65.591 3
    endloop
  endfacet
  facet normal 0.923879 -0.382684 0
    outer loop
      vertex 1.65901 65.591 5.5
      vertex 1.20711 64.5 4.5
      vertex 1.65901 65.591 3
    endloop
  endfacet
  facet normal 0.92388 -0.382683 -2.0736e-07
    outer loop
      vertex 1 64 5.5
      vertex 1.20711 64.5 4.5
      vertex 1.65901 65.591 5.5
    endloop
  endfacet
  facet normal 0.92388 -0.382683 0
    outer loop
      vertex 1.20711 64.5 4.5
      vertex 1 64 5.5
      vertex 1 64 4.5
    endloop
  endfacet
  facet normal 0.923879 -0.382684 0
    outer loop
      vertex 1.20711 64.5 3.5
      vertex 1.65901 65.591 3
      vertex 1.20711 64.5 4.5
    endloop
  endfacet
  facet normal 0.92388 -0.382683 0
    outer loop
      vertex 1 64 3
      vertex 1.20711 64.5 3.5
      vertex 1 64 3.5
    endloop
  endfacet
  facet normal 0.92388 -0.382683 4.1472e-07
    outer loop
      vertex 1.20711 64.5 3.5
      vertex 1 64 3
      vertex 1.65901 65.591 3
    endloop
  endfacet
  facet normal 0 0 1
    outer loop
      vertex 4.84099 65.591 3
      vertex 4.84099 62.409 3
      vertex 5.5 64 3
    endloop
  endfacet
  facet normal 0 0 1
    outer loop
      vertex 3.25 66.25 3
      vertex 4.84099 62.409 3
      vertex 4.84099 65.591 3
    endloop
  endfacet
  facet normal 0 0 1
    outer loop
      vertex 3.25 66.25 3
      vertex 3.25 61.75 3
      vertex 4.84099 62.409 3
    endloop
  endfacet
  facet normal -0 0 1
    outer loop
      vertex 1.65901 65.591 3
      vertex 3.25 61.75 3
      vertex 3.25 66.25 3
    endloop
  endfacet
  facet normal 0 0 1
    outer loop
      vertex 1.65901 65.591 3
      vertex 1.65901 62.409 3
      vertex 3.25 61.75 3
    endloop
  endfacet
  facet normal 0 -0 1
    outer loop
      vertex 1.65901 62.409 3
      vertex 1.65901 65.591 3
      vertex 1 64 3
    endloop
  endfacet
  facet normal -0.92388 0.382683 0
    outer loop
      vertex 4.84099 62.409 3
      vertex 5.5 64 5.5
      vertex 5.5 64 3
    endloop
  endfacet
  facet normal -0.92388 0.382683 0
    outer loop
      vertex 5.5 64 5.5
      vertex 4.84099 62.409 3
      vertex 4.84099 62.409 5.5
    endloop
  endfacet
  facet normal 0.382683 0.92388 -0
    outer loop
      vertex 3.25 61.75 3
      vertex 1.65901 62.409 5.5
      vertex 3.25 61.75 5.5
    endloop
  endfacet
  facet normal 0.382683 0.92388 0
    outer loop
      vertex 1.65901 62.409 5.5
      vertex 3.25 61.75 3
      vertex 1.65901 62.409 3
    endloop
  endfacet
  facet normal 0.92388 0.382683 0
    outer loop
      vertex 1 64 5.5
      vertex 1.20711 63.5 4.5
      vertex 1 64 4.5
    endloop
  endfacet
  facet normal 0.92388 0.382683 -0
    outer loop
      vertex 1.65901 62.409 3
      vertex 1.20711 63.5 4.5
      vertex 1.65901 62.409 5.5
    endloop
  endfacet
  facet normal 0.92388 0.382683 1.41282e-07
    outer loop
      vertex 1.65901 62.409 5.5
      vertex 1.20711 63.5 4.5
      vertex 1 64 5.5
    endloop
  endfacet
  facet normal 0.92388 0.382683 0
    outer loop
      vertex 1.20711 63.5 3.5
      vertex 1 64 3
      vertex 1 64 3.5
    endloop
  endfacet
  facet normal 0.92388 0.382683 -2.82564e-07
    outer loop
      vertex 1.20711 63.5 3.5
      vertex 1.65901 62.409 3
      vertex 1 64 3
    endloop
  endfacet
  facet normal 0.92388 0.382683 0
    outer loop
      vertex 1.20711 63.5 4.5
      vertex 1.65901 62.409 3
      vertex 1.20711 63.5 3.5
    endloop
  endfacet
  facet normal -0.382682 0.92388 0
    outer loop
      vertex 4.84099 62.409 3
      vertex 3.25 61.75 5.5
      vertex 4.84099 62.409 5.5
    endloop
  endfacet
  facet normal -0.382682 0.92388 0
    outer loop
      vertex 3.25 61.75 5.5
      vertex 4.84099 62.409 3
      vertex 3.25 61.75 3
    endloop
  endfacet
  facet normal 0 0 -1
    outer loop
      vertex 1.20711 63.5 4.5
      vertex 0 63.5 4.5
      vertex 1 64 4.5
    endloop
  endfacet
  facet normal 0 0 -1
    outer loop
      vertex 0 64.5 4.5
      vertex 1 64 4.5
      vertex 0 63.5 4.5
    endloop
  endfacet
  facet normal 0 0 -1
    outer loop
      vertex 1 64 4.5
      vertex 0 64.5 4.5
      vertex 1.20711 64.5 4.5
    endloop
  endfacet
  facet normal 0 -1 0
    outer loop
      vertex 0 64.5 3.5
      vertex 1.20711 64.5 4.5
      vertex 0 64.5 4.5
    endloop
  endfacet
  facet normal 0 -1 -0
    outer loop
      vertex 1.20711 64.5 4.5
      vertex 0 64.5 3.5
      vertex 1.20711 64.5 3.5
    endloop
  endfacet
  facet normal 0 0 1
    outer loop
      vertex 1.20711 64.5 3.5
      vertex 0 64.5 3.5
      vertex 1 64 3.5
    endloop
  endfacet
  facet normal 0 0 1
    outer loop
      vertex 0 63.5 3.5
      vertex 1 64 3.5
      vertex 0 64.5 3.5
    endloop
  endfacet
  facet normal 0 0 1
    outer loop
      vertex 1 64 3.5
      vertex 0 63.5 3.5
      vertex 1.20711 63.5 3.5
    endloop
  endfacet
  facet normal 0 1 -0
    outer loop
      vertex 1.20711 63.5 3.5
      vertex 0 63.5 4.5
      vertex 1.20711 63.5 4.5
    endloop
  endfacet
  facet normal 0 1 0
    outer loop
      vertex 0 63.5 4.5
      vertex 1.20711 63.5 3.5
      vertex 0 63.5 3.5
    endloop
  endfacet
  facet normal 1 -0 0
    outer loop
      vertex 7 86.5 5.5
      vertex 7 111.5 1
      vertex 7 111.5 5.5
    endloop
  endfacet
  facet normal 1 0 0
    outer loop
      vertex 7 111.5 1
      vertex 7 86.5 5.5
      vertex 7 86.5 1
    endloop
  endfacet
  facet normal -1 0 0
    outer loop
      vertex 10 86.5 1
      vertex 10 111.5 5.5
      vertex 10 111.5 1
    endloop
  endfacet
  facet normal -1 -0 0
    outer loop
      vertex 10 111.5 5.5
      vertex 10 86.5 1
      vertex 10 86.5 5.5
    endloop
  endfacet
  facet normal 0 -1 0
    outer loop
      vertex 7 111.5 1
      vertex 10 111.5 5.5
      vertex 7 111.5 5.5
    endloop
  endfacet
  facet normal 0 -1 -0
    outer loop
      vertex 10 111.5 5.5
      vertex 7 111.5 1
      vertex 10 111.5 1
    endloop
  endfacet
  facet normal 0 1 -0
    outer loop
      vertex 10 86.5 1
      vertex 7 86.5 5.5
      vertex 10 86.5 5.5
    endloop
  endfacet
  facet normal 0 1 0
    outer loop
      vertex 7 86.5 5.5
      vertex 10 86.5 1
      vertex 7 86.5 1
    endloop
  endfacet
  facet normal -0.809016 -0.587787 0
    outer loop
      vertex 9.5 15 3
      vertex 9.15451 15.4755 5.5
      vertex 9.15451 15.4755 3
    endloop
  endfacet
  facet normal -0.809016 -0.587787 0
    outer loop
      vertex 9.15451 15.4755 5.5
      vertex 9.5 15 3
      vertex 9.5 15 5.5
    endloop
  endfacet
  facet normal 1 -0 0
    outer loop
      vertex 8.59549 14.7061 5.5
      vertex 8.59549 15.2939 3
      vertex 8.59549 15.2939 5.5
    endloop
  endfacet
  facet normal 1 0 0
    outer loop
      vertex 8.59549 15.2939 3
      vertex 8.59549 14.7061 5.5
      vertex 8.59549 14.7061 3
    endloop
  endfacet
  facet normal 0.309018 -0.951056 0
    outer loop
      vertex 8.59549 15.2939 3
      vertex 9.15451 15.4755 5.5
      vertex 8.59549 15.2939 5.5
    endloop
  endfacet
  facet normal 0.309018 -0.951056 0
    outer loop
      vertex 9.15451 15.4755 5.5
      vertex 8.59549 15.2939 3
      vertex 9.15451 15.4755 3
    endloop
  endfacet
  facet normal 0.309018 0.951056 -0
    outer loop
      vertex 9.15451 14.5245 3
      vertex 8.59549 14.7061 5.5
      vertex 9.15451 14.5245 5.5
    endloop
  endfacet
  facet normal 0.309018 0.951056 0
    outer loop
      vertex 8.59549 14.7061 5.5
      vertex 9.15451 14.5245 3
      vertex 8.59549 14.7061 3
    endloop
  endfacet
  facet normal 0 0 1
    outer loop
      vertex 9.15451 15.4755 3
      vertex 9.15451 14.5245 3
      vertex 9.5 15 3
    endloop
  endfacet
  facet normal -0 0 1
    outer loop
      vertex 8.59549 15.2939 3
      vertex 9.15451 14.5245 3
      vertex 9.15451 15.4755 3
    endloop
  endfacet
  facet normal 0 0 1
    outer loop
      vertex 9.15451 14.5245 3
      vertex 8.59549 15.2939 3
      vertex 8.59549 14.7061 3
    endloop
  endfacet
  facet normal -0.809017 0.587786 0
    outer loop
      vertex 9.15451 14.5245 3
      vertex 9.5 15 5.5
      vertex 9.5 15 3
    endloop
  endfacet
  facet normal -0.809017 0.587786 0
    outer loop
      vertex 9.5 15 5.5
      vertex 9.15451 14.5245 3
      vertex 9.15451 14.5245 5.5
    endloop
  endfacet
  facet normal -0.809017 -0.587786 0
    outer loop
      vertex 6.5 46 3
      vertex 6.15451 46.4755 5.5
      vertex 6.15451 46.4755 3
    endloop
  endfacet
  facet normal -0.809017 -0.587786 0
    outer loop
      vertex 6.15451 46.4755 5.5
      vertex 6.5 46 3
      vertex 6.5 46 5.5
    endloop
  endfacet
  facet normal 1 -0 0
    outer loop
      vertex 5.59549 45.7061 5.5
      vertex 5.59549 46.2939 3
      vertex 5.59549 46.2939 5.5
    endloop
  endfacet
  facet normal 1 0 0
    outer loop
      vertex 5.59549 46.2939 3
      vertex 5.59549 45.7061 5.5
      vertex 5.59549 45.7061 3
    endloop
  endfacet
  facet normal 0.309019 -0.951056 0
    outer loop
      vertex 5.59549 46.2939 3
      vertex 6.15451 46.4755 5.5
      vertex 5.59549 46.2939 5.5
    endloop
  endfacet
  facet normal 0.309019 -0.951056 0
    outer loop
      vertex 6.15451 46.4755 5.5
      vertex 5.59549 46.2939 3
      vertex 6.15451 46.4755 3
    endloop
  endfacet
  facet normal 0 0 1
    outer loop
      vertex 6.15451 46.4755 3
      vertex 6.15451 45.5245 3
      vertex 6.5 46 3
    endloop
  endfacet
  facet normal -0 0 1
    outer loop
      vertex 5.59549 46.2939 3
      vertex 6.15451 45.5245 3
      vertex 6.15451 46.4755 3
    endloop
  endfacet
  facet normal 0 0 1
    outer loop
      vertex 6.15451 45.5245 3
      vertex 5.59549 46.2939 3
      vertex 5.59549 45.7061 3
    endloop
  endfacet
  facet normal -0.809017 0.587786 0
    outer loop
      vertex 6.15451 45.5245 3
      vertex 6.5 46 5.5
      vertex 6.5 46 3
    endloop
  endfacet
  facet normal -0.809017 0.587786 0
    outer loop
      vertex 6.5 46 5.5
      vertex 6.15451 45.5245 3
      vertex 6.15451 45.5245 5.5
    endloop
  endfacet
  facet normal 0.309019 0.951056 -0
    outer loop
      vertex 6.15451 45.5245 3
      vertex 5.59549 45.7061 5.5
      vertex 6.15451 45.5245 5.5
    endloop
  endfacet
  facet normal 0.309019 0.951056 0
    outer loop
      vertex 5.59549 45.7061 5.5
      vertex 6.15451 45.5245 3
      vertex 5.59549 45.7061 3
    endloop
  endfacet
  facet normal -0.809017 -0.587786 0
    outer loop
      vertex 6.5 57 3
      vertex 6.15451 57.4755 5.5
      vertex 6.15451 57.4755 3
    endloop
  endfacet
  facet normal -0.809017 -0.587786 0
    outer loop
      vertex 6.15451 57.4755 5.5
      vertex 6.5 57 3
      vertex 6.5 57 5.5
    endloop
  endfacet
  facet normal 1 -0 0
    outer loop
      vertex 5.59549 56.7061 5.5
      vertex 5.59549 57.2939 3
      vertex 5.59549 57.2939 5.5
    endloop
  endfacet
  facet normal 1 0 0
    outer loop
      vertex 5.59549 57.2939 3
      vertex 5.59549 56.7061 5.5
      vertex 5.59549 56.7061 3
    endloop
  endfacet
  facet normal 0.309019 -0.951056 0
    outer loop
      vertex 5.59549 57.2939 3
      vertex 6.15451 57.4755 5.5
      vertex 5.59549 57.2939 5.5
    endloop
  endfacet
  facet normal 0.309019 -0.951056 0
    outer loop
      vertex 6.15451 57.4755 5.5
      vertex 5.59549 57.2939 3
      vertex 6.15451 57.4755 3
    endloop
  endfacet
  facet normal 0 0 1
    outer loop
      vertex 6.15451 57.4755 3
      vertex 6.15451 56.5245 3
      vertex 6.5 57 3
    endloop
  endfacet
  facet normal -0 0 1
    outer loop
      vertex 5.59549 57.2939 3
      vertex 6.15451 56.5245 3
      vertex 6.15451 57.4755 3
    endloop
  endfacet
  facet normal 0 0 1
    outer loop
      vertex 6.15451 56.5245 3
      vertex 5.59549 57.2939 3
      vertex 5.59549 56.7061 3
    endloop
  endfacet
  facet normal -0.809017 0.587786 0
    outer loop
      vertex 6.15451 56.5245 3
      vertex 6.5 57 5.5
      vertex 6.5 57 3
    endloop
  endfacet
  facet normal -0.809017 0.587786 0
    outer loop
      vertex 6.5 57 5.5
      vertex 6.15451 56.5245 3
      vertex 6.15451 56.5245 5.5
    endloop
  endfacet
  facet normal 0.309019 0.951056 -0
    outer loop
      vertex 6.15451 56.5245 3
      vertex 5.59549 56.7061 5.5
      vertex 6.15451 56.5245 5.5
    endloop
  endfacet
  facet normal 0.309019 0.951056 0
    outer loop
      vertex 5.59549 56.7061 5.5
      vertex 6.15451 56.5245 3
      vertex 5.59549 56.7061 3
    endloop
  endfacet
  facet normal -0.809014 -0.587789 0
    outer loop
      vertex 6.5 71 3
      vertex 6.15451 71.4755 5.5
      vertex 6.15451 71.4755 3
    endloop
  endfacet
  facet normal -0.809014 -0.587789 0
    outer loop
      vertex 6.15451 71.4755 5.5
      vertex 6.5 71 3
      vertex 6.5 71 5.5
    endloop
  endfacet
  facet normal 1 -0 0
    outer loop
      vertex 5.59549 70.7061 5.5
      vertex 5.59549 71.2939 3
      vertex 5.59549 71.2939 5.5
    endloop
  endfacet
  facet normal 1 0 0
    outer loop
      vertex 5.59549 71.2939 3
      vertex 5.59549 70.7061 5.5
      vertex 5.59549 70.7061 3
    endloop
  endfacet
  facet normal 0.309013 -0.951058 0
    outer loop
      vertex 5.59549 71.2939 3
      vertex 6.15451 71.4755 5.5
      vertex 5.59549 71.2939 5.5
    endloop
  endfacet
  facet normal 0.309013 -0.951058 0
    outer loop
      vertex 6.15451 71.4755 5.5
      vertex 5.59549 71.2939 3
      vertex 6.15451 71.4755 3
    endloop
  endfacet
  facet normal 0.309013 0.951058 -0
    outer loop
      vertex 6.15451 70.5245 3
      vertex 5.59549 70.7061 5.5
      vertex 6.15451 70.5245 5.5
    endloop
  endfacet
  facet normal 0.309013 0.951058 0
    outer loop
      vertex 5.59549 70.7061 5.5
      vertex 6.15451 70.5245 3
      vertex 5.59549 70.7061 3
    endloop
  endfacet
  facet normal 0 0 1
    outer loop
      vertex 6.15451 71.4755 3
      vertex 6.15451 70.5245 3
      vertex 6.5 71 3
    endloop
  endfacet
  facet normal -0 0 1
    outer loop
      vertex 5.59549 71.2939 3
      vertex 6.15451 70.5245 3
      vertex 6.15451 71.4755 3
    endloop
  endfacet
  facet normal 0 0 1
    outer loop
      vertex 6.15451 70.5245 3
      vertex 5.59549 71.2939 3
      vertex 5.59549 70.7061 3
    endloop
  endfacet
  facet normal -0.809014 0.587789 0
    outer loop
      vertex 6.15451 70.5245 3
      vertex 6.5 71 5.5
      vertex 6.5 71 3
    endloop
  endfacet
  facet normal -0.809014 0.587789 0
    outer loop
      vertex 6.5 71 5.5
      vertex 6.15451 70.5245 3
      vertex 6.15451 70.5245 5.5
    endloop
  endfacet
  facet normal -0.809014 -0.587789 0
    outer loop
      vertex 9.5 83 3
      vertex 9.15451 83.4755 5.5
      vertex 9.15451 83.4755 3
    endloop
  endfacet
  facet normal -0.809014 -0.587789 0
    outer loop
      vertex 9.15451 83.4755 5.5
      vertex 9.5 83 3
      vertex 9.5 83 5.5
    endloop
  endfacet
  facet normal 1 -0 0
    outer loop
      vertex 8.59549 82.7061 5.5
      vertex 8.59549 83.2939 3
      vertex 8.59549 83.2939 5.5
    endloop
  endfacet
  facet normal 1 0 0
    outer loop
      vertex 8.59549 83.2939 3
      vertex 8.59549 82.7061 5.5
      vertex 8.59549 82.7061 3
    endloop
  endfacet
  facet normal 0.309013 -0.951058 0
    outer loop
      vertex 8.59549 83.2939 3
      vertex 9.15451 83.4755 5.5
      vertex 8.59549 83.2939 5.5
    endloop
  endfacet
  facet normal 0.309013 -0.951058 0
    outer loop
      vertex 9.15451 83.4755 5.5
      vertex 8.59549 83.2939 3
      vertex 9.15451 83.4755 3
    endloop
  endfacet
  facet normal 0 0 1
    outer loop
      vertex 9.15451 83.4755 3
      vertex 9.15451 82.5245 3
      vertex 9.5 83 3
    endloop
  endfacet
  facet normal -0 0 1
    outer loop
      vertex 8.59549 83.2939 3
      vertex 9.15451 82.5245 3
      vertex 9.15451 83.4755 3
    endloop
  endfacet
  facet normal 0 0 1
    outer loop
      vertex 9.15451 82.5245 3
      vertex 8.59549 83.2939 3
      vertex 8.59549 82.7061 3
    endloop
  endfacet
  facet normal -0.809014 0.587789 0
    outer loop
      vertex 9.15451 82.5245 3
      vertex 9.5 83 5.5
      vertex 9.5 83 3
    endloop
  endfacet
  facet normal -0.809014 0.587789 0
    outer loop
      vertex 9.5 83 5.5
      vertex 9.15451 82.5245 3
      vertex 9.15451 82.5245 5.5
    endloop
  endfacet
  facet normal 0.309013 0.951058 -0
    outer loop
      vertex 9.15451 82.5245 3
      vertex 8.59549 82.7061 5.5
      vertex 9.15451 82.5245 5.5
    endloop
  endfacet
  facet normal 0.309013 0.951058 0
    outer loop
      vertex 8.59549 82.7061 5.5
      vertex 9.15451 82.5245 3
      vertex 8.59549 82.7061 3
    endloop
  endfacet
  facet normal -0.809014 -0.587789 0
    outer loop
      vertex 12.5 114 3
      vertex 12.1545 114.476 5.5
      vertex 12.1545 114.476 3
    endloop
  endfacet
  facet normal -0.809014 -0.587789 0
    outer loop
      vertex 12.1545 114.476 5.5
      vertex 12.5 114 3
      vertex 12.5 114 5.5
    endloop
  endfacet
  facet normal 1 -0 0
    outer loop
      vertex 11.5955 113.706 5.5
      vertex 11.5955 114.294 3
      vertex 11.5955 114.294 5.5
    endloop
  endfacet
  facet normal 1 0 0
    outer loop
      vertex 11.5955 114.294 3
      vertex 11.5955 113.706 5.5
      vertex 11.5955 113.706 3
    endloop
  endfacet
  facet normal 0.309013 -0.951058 0
    outer loop
      vertex 11.5955 114.294 3
      vertex 12.1545 114.476 5.5
      vertex 11.5955 114.294 5.5
    endloop
  endfacet
  facet normal 0.309013 -0.951058 0
    outer loop
      vertex 12.1545 114.476 5.5
      vertex 11.5955 114.294 3
      vertex 12.1545 114.476 3
    endloop
  endfacet
  facet normal 0 0 1
    outer loop
      vertex 12.1545 114.476 3
      vertex 12.1545 113.524 3
      vertex 12.5 114 3
    endloop
  endfacet
  facet normal -0 0 1
    outer loop
      vertex 11.5955 114.294 3
      vertex 12.1545 113.524 3
      vertex 12.1545 114.476 3
    endloop
  endfacet
  facet normal 0 0 1
    outer loop
      vertex 12.1545 113.524 3
      vertex 11.5955 114.294 3
      vertex 11.5955 113.706 3
    endloop
  endfacet
  facet normal -0.809014 0.587789 0
    outer loop
      vertex 12.1545 113.524 3
      vertex 12.5 114 5.5
      vertex 12.5 114 3
    endloop
  endfacet
  facet normal -0.809014 0.587789 0
    outer loop
      vertex 12.5 114 5.5
      vertex 12.1545 113.524 3
      vertex 12.1545 113.524 5.5
    endloop
  endfacet
  facet normal 0.309013 0.951058 -0
    outer loop
      vertex 12.1545 113.524 3
      vertex 11.5955 113.706 5.5
      vertex 12.1545 113.524 5.5
    endloop
  endfacet
  facet normal 0.309013 0.951058 0
    outer loop
      vertex 11.5955 113.706 5.5
      vertex 12.1545 113.524 3
      vertex 11.5955 113.706 3
    endloop
  endfacet
  facet normal -0.809015 -0.587788 0
    outer loop
      vertex 31.5 5 3
      vertex 31.1545 5.47553 5.5
      vertex 31.1545 5.47553 3
    endloop
  endfacet
  facet normal -0.809015 -0.587788 0
    outer loop
      vertex 31.1545 5.47553 5.5
      vertex 31.5 5 3
      vertex 31.5 5 5.5
    endloop
  endfacet
  facet normal 1 -0 0
    outer loop
      vertex 30.5955 4.70611 5.5
      vertex 30.5955 5.29389 3
      vertex 30.5955 5.29389 5.5
    endloop
  endfacet
  facet normal 1 0 0
    outer loop
      vertex 30.5955 5.29389 3
      vertex 30.5955 4.70611 5.5
      vertex 30.5955 4.70611 3
    endloop
  endfacet
  facet normal 0.309018 -0.951056 0
    outer loop
      vertex 30.5955 5.29389 3
      vertex 31.1545 5.47553 5.5
      vertex 30.5955 5.29389 5.5
    endloop
  endfacet
  facet normal 0.309018 -0.951056 0
    outer loop
      vertex 31.1545 5.47553 5.5
      vertex 30.5955 5.29389 3
      vertex 31.1545 5.47553 3
    endloop
  endfacet
  facet normal 0.309018 0.951056 -0
    outer loop
      vertex 31.1545 4.52447 3
      vertex 30.5955 4.70611 5.5
      vertex 31.1545 4.52447 5.5
    endloop
  endfacet
  facet normal 0.309018 0.951056 0
    outer loop
      vertex 30.5955 4.70611 5.5
      vertex 31.1545 4.52447 3
      vertex 30.5955 4.70611 3
    endloop
  endfacet
  facet normal 0 0 1
    outer loop
      vertex 31.1545 5.47553 3
      vertex 31.1545 4.52447 3
      vertex 31.5 5 3
    endloop
  endfacet
  facet normal -0 0 1
    outer loop
      vertex 30.5955 5.29389 3
      vertex 31.1545 4.52447 3
      vertex 31.1545 5.47553 3
    endloop
  endfacet
  facet normal 0 0 1
    outer loop
      vertex 31.1545 4.52447 3
      vertex 30.5955 5.29389 3
      vertex 30.5955 4.70611 3
    endloop
  endfacet
  facet normal -0.809016 0.587787 0
    outer loop
      vertex 31.1545 4.52447 3
      vertex 31.5 5 5.5
      vertex 31.5 5 3
    endloop
  endfacet
  facet normal -0.809016 0.587787 0
    outer loop
      vertex 31.5 5 5.5
      vertex 31.1545 4.52447 3
      vertex 31.1545 4.52447 5.5
    endloop
  endfacet
  facet normal -0.809019 -0.587783 0
    outer loop
      vertex 200.5 36 3
      vertex 200.155 36.4755 5.5
      vertex 200.155 36.4755 3
    endloop
  endfacet
  facet normal -0.809019 -0.587783 0
    outer loop
      vertex 200.155 36.4755 5.5
      vertex 200.5 36 3
      vertex 200.5 36 5.5
    endloop
  endfacet
  facet normal 1 -0 0
    outer loop
      vertex 199.595 35.7061 5.5
      vertex 199.595 36.2939 3
      vertex 199.595 36.2939 5.5
    endloop
  endfacet
  facet normal 1 0 0
    outer loop
      vertex 199.595 36.2939 3
      vertex 199.595 35.7061 5.5
      vertex 199.595 35.7061 3
    endloop
  endfacet
  facet normal 0.309017 -0.951057 0
    outer loop
      vertex 199.595 36.2939 3
      vertex 200.155 36.4755 5.5
      vertex 199.595 36.2939 5.5
    endloop
  endfacet
  facet normal 0.309017 -0.951057 0
    outer loop
      vertex 200.155 36.4755 5.5
      vertex 199.595 36.2939 3
      vertex 200.155 36.4755 3
    endloop
  endfacet
  facet normal 0.309017 0.951057 -0
    outer loop
      vertex 200.155 35.5245 3
      vertex 199.595 35.7061 5.5
      vertex 200.155 35.5245 5.5
    endloop
  endfacet
  facet normal 0.309017 0.951057 0
    outer loop
      vertex 199.595 35.7061 5.5
      vertex 200.155 35.5245 3
      vertex 199.595 35.7061 3
    endloop
  endfacet
  facet normal 0 0 1
    outer loop
      vertex 200.155 36.4755 3
      vertex 200.155 35.5245 3
      vertex 200.5 36 3
    endloop
  endfacet
  facet normal -0 0 1
    outer loop
      vertex 199.595 36.2939 3
      vertex 200.155 35.5245 3
      vertex 200.155 36.4755 3
    endloop
  endfacet
  facet normal 0 0 1
    outer loop
      vertex 200.155 35.5245 3
      vertex 199.595 36.2939 3
      vertex 199.595 35.7061 3
    endloop
  endfacet
  facet normal -0.809019 0.587783 0
    outer loop
      vertex 200.155 35.5245 3
      vertex 200.5 36 5.5
      vertex 200.5 36 3
    endloop
  endfacet
  facet normal -0.809019 0.587783 0
    outer loop
      vertex 200.5 36 5.5
      vertex 200.155 35.5245 3
      vertex 200.155 35.5245 5.5
    endloop
  endfacet
  facet normal -0.809017 -0.587786 0
    outer loop
      vertex 200.5 91 3
      vertex 200.155 91.4755 5.5
      vertex 200.155 91.4755 3
    endloop
  endfacet
  facet normal -0.809017 -0.587786 0
    outer loop
      vertex 200.155 91.4755 5.5
      vertex 200.5 91 3
      vertex 200.5 91 5.5
    endloop
  endfacet
  facet normal 1 -0 0
    outer loop
      vertex 199.595 90.7061 5.5
      vertex 199.595 91.2939 3
      vertex 199.595 91.2939 5.5
    endloop
  endfacet
  facet normal 1 0 0
    outer loop
      vertex 199.595 91.2939 3
      vertex 199.595 90.7061 5.5
      vertex 199.595 90.7061 3
    endloop
  endfacet
  facet normal 0.309011 -0.951058 0
    outer loop
      vertex 199.595 91.2939 3
      vertex 200.155 91.4755 5.5
      vertex 199.595 91.2939 5.5
    endloop
  endfacet
  facet normal 0.309011 -0.951058 0
    outer loop
      vertex 200.155 91.4755 5.5
      vertex 199.595 91.2939 3
      vertex 200.155 91.4755 3
    endloop
  endfacet
  facet normal 0 0 1
    outer loop
      vertex 200.155 91.4755 3
      vertex 200.155 90.5245 3
      vertex 200.5 91 3
    endloop
  endfacet
  facet normal -0 0 1
    outer loop
      vertex 199.595 91.2939 3
      vertex 200.155 90.5245 3
      vertex 200.155 91.4755 3
    endloop
  endfacet
  facet normal 0 0 1
    outer loop
      vertex 200.155 90.5245 3
      vertex 199.595 91.2939 3
      vertex 199.595 90.7061 3
    endloop
  endfacet
  facet normal -0.809017 0.587786 0
    outer loop
      vertex 200.155 90.5245 3
      vertex 200.5 91 5.5
      vertex 200.5 91 3
    endloop
  endfacet
  facet normal -0.809017 0.587786 0
    outer loop
      vertex 200.5 91 5.5
      vertex 200.155 90.5245 3
      vertex 200.155 90.5245 5.5
    endloop
  endfacet
  facet normal 0.309011 0.951058 -0
    outer loop
      vertex 200.155 90.5245 3
      vertex 199.595 90.7061 5.5
      vertex 200.155 90.5245 5.5
    endloop
  endfacet
  facet normal 0.309011 0.951058 0
    outer loop
      vertex 199.595 90.7061 5.5
      vertex 200.155 90.5245 3
      vertex 199.595 90.7061 3
    endloop
  endfacet
  facet normal -1 0 0
    outer loop
      vertex 13 48 2.5
      vertex 13 55 5.5
      vertex 13 55 2.5
    endloop
  endfacet
  facet normal -1 -0 0
    outer loop
      vertex 13 55 5.5
      vertex 13 48 2.5
      vertex 13 48 5.5
    endloop
  endfacet
  facet normal -0 0 1
    outer loop
      vertex 0 55 2.5
      vertex 13 48 2.5
      vertex 13 55 2.5
    endloop
  endfacet
  facet normal 0 0 1
    outer loop
      vertex 13 48 2.5
      vertex 0 55 2.5
      vertex 0 48 2.5
    endloop
  endfacet
  facet normal 0 1 -0
    outer loop
      vertex 13 48 2.5
      vertex 0 48 5.5
      vertex 13 48 5.5
    endloop
  endfacet
  facet normal 0 1 0
    outer loop
      vertex 0 48 5.5
      vertex 13 48 2.5
      vertex 0 48 2.5
    endloop
  endfacet
  facet normal 0 -1 0
    outer loop
      vertex 0 55 2.5
      vertex 13 55 5.5
      vertex 0 55 5.5
    endloop
  endfacet
  facet normal 0 -1 -0
    outer loop
      vertex 13 55 5.5
      vertex 0 55 2.5
      vertex 13 55 2.5
    endloop
  endfacet
  facet normal -1 0 0
    outer loop
      vertex 13 72 2.5
      vertex 13 80 5.5
      vertex 13 80 2.5
    endloop
  endfacet
  facet normal -1 -0 0
    outer loop
      vertex 13 80 5.5
      vertex 13 72 2.5
      vertex 13 72 5.5
    endloop
  endfacet
  facet normal 0 -1 0
    outer loop
      vertex 0 80 2.5
      vertex 13 80 5.5
      vertex 0 80 5.5
    endloop
  endfacet
  facet normal 0 -1 -0
    outer loop
      vertex 13 80 5.5
      vertex 0 80 2.5
      vertex 13 80 2.5
    endloop
  endfacet
  facet normal -0 0 1
    outer loop
      vertex 0 80 2.5
      vertex 13 72 2.5
      vertex 13 80 2.5
    endloop
  endfacet
  facet normal 0 0 1
    outer loop
      vertex 13 72 2.5
      vertex 0 80 2.5
      vertex 0 72 2.5
    endloop
  endfacet
  facet normal 0 1 -0
    outer loop
      vertex 13 72 2.5
      vertex 0 72 5.5
      vertex 13 72 5.5
    endloop
  endfacet
  facet normal 0 1 0
    outer loop
      vertex 0 72 5.5
      vertex 13 72 2.5
      vertex 0 72 2.5
    endloop
  endfacet
  facet normal -1 0 0
    outer loop
      vertex 4 81 2.5
      vertex 4 97 5.5
      vertex 4 97 2.5
    endloop
  endfacet
  facet normal -1 -0 0
    outer loop
      vertex 4 97 5.5
      vertex 4 81 2.5
      vertex 4 81 5.5
    endloop
  endfacet
  facet normal 0 -1 0
    outer loop
      vertex 0 97 2.5
      vertex 4 97 5.5
      vertex 0 97 5.5
    endloop
  endfacet
  facet normal 0 -1 -0
    outer loop
      vertex 4 97 5.5
      vertex 0 97 2.5
      vertex 4 97 2.5
    endloop
  endfacet
  facet normal -0 0 1
    outer loop
      vertex 0 97 2.5
      vertex 4 81 2.5
      vertex 4 97 2.5
    endloop
  endfacet
  facet normal 0 0 1
    outer loop
      vertex 4 81 2.5
      vertex 0 97 2.5
      vertex 0 81 2.5
    endloop
  endfacet
  facet normal 0 1 -0
    outer loop
      vertex 4 81 2.5
      vertex 0 81 5.5
      vertex 4 81 5.5
    endloop
  endfacet
  facet normal 0 1 0
    outer loop
      vertex 0 81 5.5
      vertex 4 81 2.5
      vertex 0 81 2.5
    endloop
  endfacet
  facet normal 1 -0 0
    outer loop
      vertex 16 0.054781 5.5
      vertex 16 3 2.5
      vertex 16 3 5.5
    endloop
  endfacet
  facet normal 1 0 0
    outer loop
      vertex 16 3 2.5
      vertex 16 0.054781 5.5
      vertex 16 0.054781 2.5
    endloop
  endfacet
  facet normal -1 0 0
    outer loop
      vertex 42 0.054781 2.5
      vertex 42 3 5.5
      vertex 42 3 2.5
    endloop
  endfacet
  facet normal -1 -0 0
    outer loop
      vertex 42 3 5.5
      vertex 42 0.054781 2.5
      vertex 42 0.054781 5.5
    endloop
  endfacet
  facet normal 0 -1 0
    outer loop
      vertex 16 3 2.5
      vertex 42 3 5.5
      vertex 16 3 5.5
    endloop
  endfacet
  facet normal 0 -1 -0
    outer loop
      vertex 42 3 5.5
      vertex 16 3 2.5
      vertex 42 3 2.5
    endloop
  endfacet
  facet normal -0 0 1
    outer loop
      vertex 16 3 2.5
      vertex 42 0.054781 2.5
      vertex 42 3 2.5
    endloop
  endfacet
  facet normal 0 0 1
    outer loop
      vertex 42 0.054781 2.5
      vertex 16 3 2.5
      vertex 16 0.054781 2.5
    endloop
  endfacet
endsolid OpenSCAD_Model
