solid OpenSCAD_Model
  facet normal -1 0 0
    outer loop
      vertex -12.5 -12.5 -3.5
      vertex -12.5 12.5 3.5
      vertex -12.5 12.5 -3.5
    endloop
  endfacet
  facet normal -1 -0 0
    outer loop
      vertex -12.5 12.5 3.5
      vertex -12.5 -12.5 -3.5
      vertex -12.5 -12.5 3.5
    endloop
  endfacet
  facet normal 0 0 1
    outer loop
      vertex 12.5 12.5 3.5
      vertex 11.6 11.6 3.5
      vertex 12.5 -12.5 3.5
    endloop
  endfacet
  facet normal 0 0 1
    outer loop
      vertex 12.5 12.5 3.5
      vertex -11.6 11.6 3.5
      vertex 11.6 11.6 3.5
    endloop
  endfacet
  facet normal 0 0 1
    outer loop
      vertex -11.6 11.6 3.5
      vertex -12.5 12.5 3.5
      vertex -11.6 -11.6 3.5
    endloop
  endfacet
  facet normal -0 0 1
    outer loop
      vertex -12.5 12.5 3.5
      vertex -11.6 11.6 3.5
      vertex 12.5 12.5 3.5
    endloop
  endfacet
  facet normal -0 0 1
    outer loop
      vertex 11.6 -11.6 3.5
      vertex 12.5 -12.5 3.5
      vertex 11.6 11.6 3.5
    endloop
  endfacet
  facet normal -0 0 1
    outer loop
      vertex -11.6 -11.6 3.5
      vertex 12.5 -12.5 3.5
      vertex 11.6 -11.6 3.5
    endloop
  endfacet
  facet normal 0 0 1
    outer loop
      vertex -11.6 -11.6 3.5
      vertex -12.5 -12.5 3.5
      vertex 12.5 -12.5 3.5
    endloop
  endfacet
  facet normal 0 0 1
    outer loop
      vertex -12.5 -12.5 3.5
      vertex -11.6 -11.6 3.5
      vertex -12.5 12.5 3.5
    endloop
  endfacet
  facet normal 1 -0 0
    outer loop
      vertex 12.5 -12.5 3.5
      vertex 12.5 12.5 -3.5
      vertex 12.5 12.5 3.5
    endloop
  endfacet
  facet normal 1 0 0
    outer loop
      vertex 12.5 12.5 -3.5
      vertex 12.5 -12.5 3.5
      vertex 12.5 -12.5 -3.5
    endloop
  endfacet
  facet normal 0 1 -0
    outer loop
      vertex 12.5 12.5 -3.5
      vertex -12.5 12.5 3.5
      vertex 12.5 12.5 3.5
    endloop
  endfacet
  facet normal 0 1 0
    outer loop
      vertex -12.5 12.5 3.5
      vertex 12.5 12.5 -3.5
      vertex -12.5 12.5 -3.5
    endloop
  endfacet
  facet normal 0 0 -1
    outer loop
      vertex -12.5 -12.5 -3.5
      vertex 12.5 12.5 -3.5
      vertex 12.5 -12.5 -3.5
    endloop
  endfacet
  facet normal -0 0 -1
    outer loop
      vertex 12.5 12.5 -3.5
      vertex -12.5 -12.5 -3.5
      vertex -12.5 12.5 -3.5
    endloop
  endfacet
  facet normal 0 -1 0
    outer loop
      vertex -12.5 -12.5 -3.5
      vertex 12.5 -12.5 3.5
      vertex -12.5 -12.5 3.5
    endloop
  endfacet
  facet normal 0 -1 -0
    outer loop
      vertex 12.5 -12.5 3.5
      vertex -12.5 -12.5 -3.5
      vertex 12.5 -12.5 -3.5
    endloop
  endfacet
  facet normal 1 -0 0
    outer loop
      vertex -11.6 -11.6 3.5
      vertex -11.6 11.6 -2.6
      vertex -11.6 11.6 3.5
    endloop
  endfacet
  facet normal 1 0 0
    outer loop
      vertex -11.6 11.6 -2.6
      vertex -11.6 -11.6 3.5
      vertex -11.6 -11.6 -2.6
    endloop
  endfacet
  facet normal -1 0 0
    outer loop
      vertex 11.6 -11.6 -2.6
      vertex 11.6 11.6 3.5
      vertex 11.6 11.6 -2.6
    endloop
  endfacet
  facet normal -1 -0 0
    outer loop
      vertex 11.6 11.6 3.5
      vertex 11.6 -11.6 -2.6
      vertex 11.6 -11.6 3.5
    endloop
  endfacet
  facet normal 0 0 1
    outer loop
      vertex 11.6 11.6 -2.6
      vertex 3.25 0 -2.6
      vertex 11.6 -11.6 -2.6
    endloop
  endfacet
  facet normal 0 0 1
    outer loop
      vertex 11.6 11.6 -2.6
      vertex 3.00261 1.24372 -2.6
      vertex 3.25 0 -2.6
    endloop
  endfacet
  facet normal 0 0 1
    outer loop
      vertex 11.6 11.6 -2.6
      vertex 2.2981 2.2981 -2.6
      vertex 3.00261 1.24372 -2.6
    endloop
  endfacet
  facet normal 0 0 1
    outer loop
      vertex 11.6 11.6 -2.6
      vertex 1.24372 3.00261 -2.6
      vertex 2.2981 2.2981 -2.6
    endloop
  endfacet
  facet normal 0 0 1
    outer loop
      vertex 11.6 11.6 -2.6
      vertex 0 3.25 -2.6
      vertex 1.24372 3.00261 -2.6
    endloop
  endfacet
  facet normal -0 0 1
    outer loop
      vertex -11.6 11.6 -2.6
      vertex 0 3.25 -2.6
      vertex 11.6 11.6 -2.6
    endloop
  endfacet
  facet normal 0 0 1
    outer loop
      vertex 0 3.25 -2.6
      vertex -11.6 11.6 -2.6
      vertex -1.24372 3.00261 -2.6
    endloop
  endfacet
  facet normal 0 0 1
    outer loop
      vertex -3.00261 1.24372 -2.6
      vertex -11.6 11.6 -2.6
      vertex -3.25 0 -2.6
    endloop
  endfacet
  facet normal 0 0 1
    outer loop
      vertex -2.2981 2.2981 -2.6
      vertex -11.6 11.6 -2.6
      vertex -3.00261 1.24372 -2.6
    endloop
  endfacet
  facet normal 0 0 1
    outer loop
      vertex -1.24372 3.00261 -2.6
      vertex -11.6 11.6 -2.6
      vertex -2.2981 2.2981 -2.6
    endloop
  endfacet
  facet normal -0 0 1
    outer loop
      vertex 3.00261 -1.24372 -2.6
      vertex 11.6 -11.6 -2.6
      vertex 3.25 0 -2.6
    endloop
  endfacet
  facet normal -0 0 1
    outer loop
      vertex 2.2981 -2.2981 -2.6
      vertex 11.6 -11.6 -2.6
      vertex 3.00261 -1.24372 -2.6
    endloop
  endfacet
  facet normal -0 0 1
    outer loop
      vertex 1.24372 -3.00261 -2.6
      vertex 11.6 -11.6 -2.6
      vertex 2.2981 -2.2981 -2.6
    endloop
  endfacet
  facet normal -0 0 1
    outer loop
      vertex 0 -3.25 -2.6
      vertex 11.6 -11.6 -2.6
      vertex 1.24372 -3.00261 -2.6
    endloop
  endfacet
  facet normal 0 0 1
    outer loop
      vertex -11.6 -11.6 -2.6
      vertex 0 -3.25 -2.6
      vertex -1.24372 -3.00261 -2.6
    endloop
  endfacet
  facet normal 0 0 1
    outer loop
      vertex -11.6 -11.6 -2.6
      vertex -1.24372 -3.00261 -2.6
      vertex -2.2981 -2.2981 -2.6
    endloop
  endfacet
  facet normal 0 0 1
    outer loop
      vertex -11.6 -11.6 -2.6
      vertex -3.25 0 -2.6
      vertex -11.6 11.6 -2.6
    endloop
  endfacet
  facet normal 0 0 1
    outer loop
      vertex -3.25 0 -2.6
      vertex -11.6 -11.6 -2.6
      vertex -3.00261 -1.24372 -2.6
    endloop
  endfacet
  facet normal 0 0 1
    outer loop
      vertex 0 -3.25 -2.6
      vertex -11.6 -11.6 -2.6
      vertex 11.6 -11.6 -2.6
    endloop
  endfacet
  facet normal 0 0 1
    outer loop
      vertex -3.00261 -1.24372 -2.6
      vertex -11.6 -11.6 -2.6
      vertex -2.2981 -2.2981 -2.6
    endloop
  endfacet
  facet normal 0 1 -0
    outer loop
      vertex 11.6 -11.6 -2.6
      vertex -11.6 -11.6 3.5
      vertex 11.6 -11.6 3.5
    endloop
  endfacet
  facet normal 0 1 0
    outer loop
      vertex -11.6 -11.6 3.5
      vertex 11.6 -11.6 -2.6
      vertex -11.6 -11.6 -2.6
    endloop
  endfacet
  facet normal 0 -1 0
    outer loop
      vertex -11.6 11.6 -2.6
      vertex 11.6 11.6 3.5
      vertex -11.6 11.6 3.5
    endloop
  endfacet
  facet normal 0 -1 -0
    outer loop
      vertex 11.6 11.6 3.5
      vertex -11.6 11.6 -2.6
      vertex 11.6 11.6 -2.6
    endloop
  endfacet
  facet normal 0.980785 0.19509 0
    outer loop
      vertex 3.25 0 3.5
      vertex 3.00261 1.24372 -2.6
      vertex 3.00261 1.24372 3.5
    endloop
  endfacet
  facet normal 0.980785 0.19509 0
    outer loop
      vertex 3.00261 1.24372 -2.6
      vertex 3.25 0 3.5
      vertex 3.25 0 -2.6
    endloop
  endfacet
  facet normal -0.980785 0.19509 0
    outer loop
      vertex -3.25 0 -2.6
      vertex -3.00261 1.24372 3.5
      vertex -3.00261 1.24372 -2.6
    endloop
  endfacet
  facet normal -0.980785 0.19509 0
    outer loop
      vertex -3.00261 1.24372 3.5
      vertex -3.25 0 -2.6
      vertex -3.25 0 3.5
    endloop
  endfacet
  facet normal 0.19509 0.980785 -0
    outer loop
      vertex 1.24372 3.00261 -2.6
      vertex 0 3.25 3.5
      vertex 1.24372 3.00261 3.5
    endloop
  endfacet
  facet normal 0.19509 0.980785 0
    outer loop
      vertex 0 3.25 3.5
      vertex 1.24372 3.00261 -2.6
      vertex 0 3.25 -2.6
    endloop
  endfacet
  facet normal 0.19509 -0.980785 0
    outer loop
      vertex 0 -3.25 -2.6
      vertex 1.24372 -3.00261 3.5
      vertex 0 -3.25 3.5
    endloop
  endfacet
  facet normal 0.19509 -0.980785 0
    outer loop
      vertex 1.24372 -3.00261 3.5
      vertex 0 -3.25 -2.6
      vertex 1.24372 -3.00261 -2.6
    endloop
  endfacet
  facet normal -0.19509 -0.980785 0
    outer loop
      vertex -1.24372 -3.00261 -2.6
      vertex 0 -3.25 3.5
      vertex -1.24372 -3.00261 3.5
    endloop
  endfacet
  facet normal -0.19509 -0.980785 -0
    outer loop
      vertex 0 -3.25 3.5
      vertex -1.24372 -3.00261 -2.6
      vertex 0 -3.25 -2.6
    endloop
  endfacet
  facet normal 0.55557 0.831469 -0
    outer loop
      vertex 2.2981 2.2981 -2.6
      vertex 1.24372 3.00261 3.5
      vertex 2.2981 2.2981 3.5
    endloop
  endfacet
  facet normal 0.55557 0.831469 0
    outer loop
      vertex 1.24372 3.00261 3.5
      vertex 2.2981 2.2981 -2.6
      vertex 1.24372 3.00261 -2.6
    endloop
  endfacet
  facet normal 0.831469 0.55557 0
    outer loop
      vertex 3.00261 1.24372 3.5
      vertex 2.2981 2.2981 -2.6
      vertex 2.2981 2.2981 3.5
    endloop
  endfacet
  facet normal 0.831469 0.55557 0
    outer loop
      vertex 2.2981 2.2981 -2.6
      vertex 3.00261 1.24372 3.5
      vertex 3.00261 1.24372 -2.6
    endloop
  endfacet
  facet normal -0.19509 0.980785 0
    outer loop
      vertex 0 3.25 -2.6
      vertex -1.24372 3.00261 3.5
      vertex 0 3.25 3.5
    endloop
  endfacet
  facet normal -0.19509 0.980785 0
    outer loop
      vertex -1.24372 3.00261 3.5
      vertex 0 3.25 -2.6
      vertex -1.24372 3.00261 -2.6
    endloop
  endfacet
  facet normal -0.831469 0.55557 0
    outer loop
      vertex -3.00261 1.24372 -2.6
      vertex -2.2981 2.2981 3.5
      vertex -2.2981 2.2981 -2.6
    endloop
  endfacet
  facet normal -0.831469 0.55557 0
    outer loop
      vertex -2.2981 2.2981 3.5
      vertex -3.00261 1.24372 -2.6
      vertex -3.00261 1.24372 3.5
    endloop
  endfacet
  facet normal -0.55557 0.831469 0
    outer loop
      vertex -1.24372 3.00261 -2.6
      vertex -2.2981 2.2981 3.5
      vertex -1.24372 3.00261 3.5
    endloop
  endfacet
  facet normal -0.55557 0.831469 0
    outer loop
      vertex -2.2981 2.2981 3.5
      vertex -1.24372 3.00261 -2.6
      vertex -2.2981 2.2981 -2.6
    endloop
  endfacet
  facet normal -0.980785 -0.19509 0
    outer loop
      vertex -3.00261 -1.24372 -2.6
      vertex -3.25 0 3.5
      vertex -3.25 0 -2.6
    endloop
  endfacet
  facet normal -0.980785 -0.19509 0
    outer loop
      vertex -3.25 0 3.5
      vertex -3.00261 -1.24372 -2.6
      vertex -3.00261 -1.24372 3.5
    endloop
  endfacet
  facet normal -0.55557 -0.831469 0
    outer loop
      vertex -2.2981 -2.2981 -2.6
      vertex -1.24372 -3.00261 3.5
      vertex -2.2981 -2.2981 3.5
    endloop
  endfacet
  facet normal -0.55557 -0.831469 -0
    outer loop
      vertex -1.24372 -3.00261 3.5
      vertex -2.2981 -2.2981 -2.6
      vertex -1.24372 -3.00261 -2.6
    endloop
  endfacet
  facet normal 0 0 1
    outer loop
      vertex 3.00261 1.24372 3.5
      vertex 3.00261 -1.24372 3.5
      vertex 3.25 0 3.5
    endloop
  endfacet
  facet normal 0 0 1
    outer loop
      vertex 2.2981 2.2981 3.5
      vertex 3.00261 -1.24372 3.5
      vertex 3.00261 1.24372 3.5
    endloop
  endfacet
  facet normal 0 0 1
    outer loop
      vertex 2.2981 2.2981 3.5
      vertex 2.2981 -2.2981 3.5
      vertex 3.00261 -1.24372 3.5
    endloop
  endfacet
  facet normal 0 0 1
    outer loop
      vertex 1.24372 3.00261 3.5
      vertex 2.2981 -2.2981 3.5
      vertex 2.2981 2.2981 3.5
    endloop
  endfacet
  facet normal 0 0 1
    outer loop
      vertex 1.24372 3.00261 3.5
      vertex 1.24372 -3.00261 3.5
      vertex 2.2981 -2.2981 3.5
    endloop
  endfacet
  facet normal 0 0 1
    outer loop
      vertex 0 3.25 3.5
      vertex 1.24372 -3.00261 3.5
      vertex 1.24372 3.00261 3.5
    endloop
  endfacet
  facet normal 0 0 1
    outer loop
      vertex 0 3.25 3.5
      vertex 0 -3.25 3.5
      vertex 1.24372 -3.00261 3.5
    endloop
  endfacet
  facet normal -0 0 1
    outer loop
      vertex -1.24372 3.00261 3.5
      vertex 0 -3.25 3.5
      vertex 0 3.25 3.5
    endloop
  endfacet
  facet normal 0 0 1
    outer loop
      vertex -1.24372 3.00261 3.5
      vertex -1.24372 -3.00261 3.5
      vertex 0 -3.25 3.5
    endloop
  endfacet
  facet normal -0 0 1
    outer loop
      vertex -2.2981 2.2981 3.5
      vertex -1.24372 -3.00261 3.5
      vertex -1.24372 3.00261 3.5
    endloop
  endfacet
  facet normal 0 0 1
    outer loop
      vertex -2.2981 2.2981 3.5
      vertex -2.2981 -2.2981 3.5
      vertex -1.24372 -3.00261 3.5
    endloop
  endfacet
  facet normal -0 0 1
    outer loop
      vertex -3.00261 1.24372 3.5
      vertex -2.2981 -2.2981 3.5
      vertex -2.2981 2.2981 3.5
    endloop
  endfacet
  facet normal 0 0 1
    outer loop
      vertex -3.00261 1.24372 3.5
      vertex -3.00261 -1.24372 3.5
      vertex -2.2981 -2.2981 3.5
    endloop
  endfacet
  facet normal 0 -0 1
    outer loop
      vertex -3.00261 -1.24372 3.5
      vertex -3.00261 1.24372 3.5
      vertex -3.25 0 3.5
    endloop
  endfacet
  facet normal 0.55557 -0.831469 0
    outer loop
      vertex 1.24372 -3.00261 -2.6
      vertex 2.2981 -2.2981 3.5
      vertex 1.24372 -3.00261 3.5
    endloop
  endfacet
  facet normal 0.55557 -0.831469 0
    outer loop
      vertex 2.2981 -2.2981 3.5
      vertex 1.24372 -3.00261 -2.6
      vertex 2.2981 -2.2981 -2.6
    endloop
  endfacet
  facet normal 0.980785 -0.19509 0
    outer loop
      vertex 3.00261 -1.24372 3.5
      vertex 3.25 0 -2.6
      vertex 3.25 0 3.5
    endloop
  endfacet
  facet normal 0.980785 -0.19509 0
    outer loop
      vertex 3.25 0 -2.6
      vertex 3.00261 -1.24372 3.5
      vertex 3.00261 -1.24372 -2.6
    endloop
  endfacet
  facet normal -0.831469 -0.55557 0
    outer loop
      vertex -2.2981 -2.2981 -2.6
      vertex -3.00261 -1.24372 3.5
      vertex -3.00261 -1.24372 -2.6
    endloop
  endfacet
  facet normal -0.831469 -0.55557 0
    outer loop
      vertex -3.00261 -1.24372 3.5
      vertex -2.2981 -2.2981 -2.6
      vertex -2.2981 -2.2981 3.5
    endloop
  endfacet
  facet normal 0.831469 -0.55557 0
    outer loop
      vertex 2.2981 -2.2981 3.5
      vertex 3.00261 -1.24372 -2.6
      vertex 3.00261 -1.24372 3.5
    endloop
  endfacet
  facet normal 0.831469 -0.55557 0
    outer loop
      vertex 3.00261 -1.24372 -2.6
      vertex 2.2981 -2.2981 3.5
      vertex 2.2981 -2.2981 -2.6
    endloop
  endfacet
  facet normal -0.700214 0.139282 0.700215
    outer loop
      vertex 2.11249 -0.875021 -2.02782
      vertex 1.52782 0 -2.78654
      vertex 1.41152 -0.58467 -2.78654
    endloop
  endfacet
  facet normal -0.381579 -0.0759004 0.921215
    outer loop
      vertex 0.536498 0 -3.19716
      vertex 1.52782 0 -2.78654
      vertex 0.49566 0.205309 -3.19716
    endloop
  endfacet
  facet normal -0.381579 0.0759004 0.921215
    outer loop
      vertex 1.52782 0 -2.78654
      vertex 0.536498 0 -3.19716
      vertex 0.49566 -0.205309 -3.19716
    endloop
  endfacet
  facet normal -0.770328 -0.514716 0.37638
    outer loop
      vertex 2.11249 0.875021 -2.02782
      vertex 2.49185 1.03216 -1.0365
      vertex 1.61683 1.61683 -2.02782
    endloop
  endfacet
  facet normal 0.180744 -0.908663 0.376381
    outer loop
      vertex 0 2.28654 -2.02782
      vertex 0 2.69716 -1.0365
      vertex -0.875021 2.11249 -2.02782
    endloop
  endfacet
  facet normal -0.216147 0.323488 0.921214
    outer loop
      vertex 0.58467 -1.41152 -2.78654
      vertex 1.08033 -1.08033 -2.78654
      vertex 0.205309 -0.49566 -3.19716
    endloop
  endfacet
  facet normal 0.0759004 0.381579 0.921215
    outer loop
      vertex 0 -1.52782 -2.78654
      vertex 0 -0.536498 -3.19716
      vertex -0.205309 -0.49566 -3.19716
    endloop
  endfacet
  facet normal 0.555571 0.831469 -0
    outer loop
      vertex -1.03216 -2.49185 -1.0365
      vertex -1.90718 -1.90718 -0.349999
      vertex -1.03216 -2.49185 -0.349999
    endloop
  endfacet
  facet normal 0.555571 0.831469 0
    outer loop
      vertex -1.90718 -1.90718 -0.349999
      vertex -1.03216 -2.49185 -1.0365
      vertex -1.90718 -1.90718 -1.0365
    endloop
  endfacet
  facet normal -0.555571 -0.831469 0
    outer loop
      vertex 1.03216 2.49185 -1.0365
      vertex 1.90718 1.90718 -0.349999
      vertex 1.03216 2.49185 -0.349999
    endloop
  endfacet
  facet normal -0.555571 -0.831469 -0
    outer loop
      vertex 1.90718 1.90718 -0.349999
      vertex 1.03216 2.49185 -1.0365
      vertex 1.90718 1.90718 -1.0365
    endloop
  endfacet
  facet normal -0.139282 -0.700214 0.700215
    outer loop
      vertex 0.58467 1.41152 -2.78654
      vertex 0.875021 2.11249 -2.02782
      vertex 0 1.52782 -2.78654
    endloop
  endfacet
  facet normal -0.180744 -0.908663 0.376381
    outer loop
      vertex 0.875021 2.11249 -2.02782
      vertex 0 2.69716 -1.0365
      vertex 0 2.28654 -2.02782
    endloop
  endfacet
  facet normal -0.180744 -0.908663 0.37638
    outer loop
      vertex 0.875021 2.11249 -2.02782
      vertex 1.03216 2.49185 -1.0365
      vertex 0 2.69716 -1.0365
    endloop
  endfacet
  facet normal -0.514716 -0.770328 0.37638
    outer loop
      vertex 1.61683 1.61683 -2.02782
      vertex 1.03216 2.49185 -1.0365
      vertex 0.875021 2.11249 -2.02782
    endloop
  endfacet
  facet normal -0.180744 0.908663 0.376381
    outer loop
      vertex 0.875021 -2.11249 -2.02782
      vertex 0 -2.28654 -2.02782
      vertex 0 -2.69716 -1.0365
    endloop
  endfacet
  facet normal 0.139282 0.700214 0.700215
    outer loop
      vertex 0 -1.52782 -2.78654
      vertex -0.58467 -1.41152 -2.78654
      vertex -0.875021 -2.11249 -2.02782
    endloop
  endfacet
  facet normal 0.396639 -0.593613 0.700215
    outer loop
      vertex -0.58467 1.41152 -2.78654
      vertex -0.875021 2.11249 -2.02782
      vertex -1.61683 1.61683 -2.02782
    endloop
  endfacet
  facet normal -0.514717 -0.770328 0.37638
    outer loop
      vertex 1.61683 1.61683 -2.02782
      vertex 1.90718 1.90718 -1.0365
      vertex 1.03216 2.49185 -1.0365
    endloop
  endfacet
  facet normal -0.770328 0.514716 0.37638
    outer loop
      vertex 2.49185 -1.03216 -1.0365
      vertex 2.11249 -0.875021 -2.02782
      vertex 1.61683 -1.61683 -2.02782
    endloop
  endfacet
  facet normal -0.980785 0.19509 0
    outer loop
      vertex 2.49185 -1.03216 -1.0365
      vertex 2.69716 0 -0.349999
      vertex 2.69716 0 -1.0365
    endloop
  endfacet
  facet normal -0.980785 0.19509 0
    outer loop
      vertex 2.69716 0 -0.349999
      vertex 2.49185 -1.03216 -1.0365
      vertex 2.49185 -1.03216 -0.349999
    endloop
  endfacet
  facet normal -0.770328 0.514717 0.37638
    outer loop
      vertex 1.90718 -1.90718 -1.0365
      vertex 2.49185 -1.03216 -1.0365
      vertex 1.61683 -1.61683 -2.02782
    endloop
  endfacet
  facet normal 0.555571 -0.831469 0
    outer loop
      vertex -1.90718 1.90718 -1.0365
      vertex -1.03216 2.49185 -0.349999
      vertex -1.90718 1.90718 -0.349999
    endloop
  endfacet
  facet normal 0.555571 -0.831469 0
    outer loop
      vertex -1.03216 2.49185 -0.349999
      vertex -1.90718 1.90718 -1.0365
      vertex -1.03216 2.49185 -1.0365
    endloop
  endfacet
  facet normal 0.19509 -0.980785 0
    outer loop
      vertex -1.03216 2.49185 -1.0365
      vertex 0 2.69716 -0.349999
      vertex -1.03216 2.49185 -0.349999
    endloop
  endfacet
  facet normal 0.19509 -0.980785 0
    outer loop
      vertex 0 2.69716 -0.349999
      vertex -1.03216 2.49185 -1.0365
      vertex 0 2.69716 -1.0365
    endloop
  endfacet
  facet normal 0.908663 -0.180744 0.37638
    outer loop
      vertex -2.11249 0.875021 -2.02782
      vertex -2.49185 1.03216 -1.0365
      vertex -2.69716 0 -1.0365
    endloop
  endfacet
  facet normal 0.831469 -0.555571 0
    outer loop
      vertex -2.49185 1.03216 -0.349999
      vertex -1.90718 1.90718 -1.0365
      vertex -1.90718 1.90718 -0.349999
    endloop
  endfacet
  facet normal 0.831469 -0.555571 0
    outer loop
      vertex -1.90718 1.90718 -1.0365
      vertex -2.49185 1.03216 -0.349999
      vertex -2.49185 1.03216 -1.0365
    endloop
  endfacet
  facet normal -0.396639 -0.593613 0.700215
    outer loop
      vertex 1.61683 1.61683 -2.02782
      vertex 0.875021 2.11249 -2.02782
      vertex 0.58467 1.41152 -2.78654
    endloop
  endfacet
  facet normal 0.139282 -0.700214 0.700215
    outer loop
      vertex -0.58467 1.41152 -2.78654
      vertex 0 1.52782 -2.78654
      vertex -0.875021 2.11249 -2.02782
    endloop
  endfacet
  facet normal -0.19509 -0.980785 0
    outer loop
      vertex 0 2.69716 -1.0365
      vertex 1.03216 2.49185 -0.349999
      vertex 0 2.69716 -0.349999
    endloop
  endfacet
  facet normal -0.19509 -0.980785 -0
    outer loop
      vertex 1.03216 2.49185 -0.349999
      vertex 0 2.69716 -1.0365
      vertex 1.03216 2.49185 -1.0365
    endloop
  endfacet
  facet normal 0.908663 0.180744 0.37638
    outer loop
      vertex -2.49185 -1.03216 -1.0365
      vertex -2.11249 -0.875021 -2.02782
      vertex -2.69716 0 -1.0365
    endloop
  endfacet
  facet normal 0.19509 0.980785 -0
    outer loop
      vertex 0 -2.69716 -1.0365
      vertex -1.03216 -2.49185 -0.349999
      vertex 0 -2.69716 -0.349999
    endloop
  endfacet
  facet normal 0.19509 0.980785 0
    outer loop
      vertex -1.03216 -2.49185 -0.349999
      vertex 0 -2.69716 -1.0365
      vertex -1.03216 -2.49185 -1.0365
    endloop
  endfacet
  facet normal -0.180744 0.908663 0.37638
    outer loop
      vertex 1.03216 -2.49185 -1.0365
      vertex 0.875021 -2.11249 -2.02782
      vertex 0 -2.69716 -1.0365
    endloop
  endfacet
  facet normal -0.908663 0.180744 0.376381
    outer loop
      vertex 2.69716 0 -1.0365
      vertex 2.28654 0 -2.02782
      vertex 2.11249 -0.875021 -2.02782
    endloop
  endfacet
  facet normal 0.381579 -0.0759004 0.921215
    outer loop
      vertex -0.536498 0 -3.19716
      vertex -0.49566 0.205309 -3.19716
      vertex -1.52782 0 -2.78654
    endloop
  endfacet
  facet normal -0.908663 -0.180744 0.37638
    outer loop
      vertex 2.69716 0 -1.0365
      vertex 2.49185 1.03216 -1.0365
      vertex 2.11249 0.875021 -2.02782
    endloop
  endfacet
  facet normal -0.980785 -0.19509 0
    outer loop
      vertex 2.69716 0 -1.0365
      vertex 2.49185 1.03216 -0.349999
      vertex 2.49185 1.03216 -1.0365
    endloop
  endfacet
  facet normal -0.980785 -0.19509 0
    outer loop
      vertex 2.49185 1.03216 -0.349999
      vertex 2.69716 0 -1.0365
      vertex 2.69716 0 -0.349999
    endloop
  endfacet
  facet normal 0.593613 -0.396639 0.700215
    outer loop
      vertex -1.41152 0.58467 -2.78654
      vertex -1.61683 1.61683 -2.02782
      vertex -2.11249 0.875021 -2.02782
    endloop
  endfacet
  facet normal -0.381579 -0.0759013 0.921214
    outer loop
      vertex 1.52782 0 -2.78654
      vertex 1.41152 0.58467 -2.78654
      vertex 0.49566 0.205309 -3.19716
    endloop
  endfacet
  facet normal 0.396639 -0.593613 0.700215
    outer loop
      vertex -1.08033 1.08033 -2.78654
      vertex -0.58467 1.41152 -2.78654
      vertex -1.61683 1.61683 -2.02782
    endloop
  endfacet
  facet normal 0.180744 -0.908663 0.37638
    outer loop
      vertex -0.875021 2.11249 -2.02782
      vertex 0 2.69716 -1.0365
      vertex -1.03216 2.49185 -1.0365
    endloop
  endfacet
  facet normal 0.770328 -0.514716 0.37638
    outer loop
      vertex -2.11249 0.875021 -2.02782
      vertex -1.61683 1.61683 -2.02782
      vertex -2.49185 1.03216 -1.0365
    endloop
  endfacet
  facet normal 0.831469 0.555571 0
    outer loop
      vertex -1.90718 -1.90718 -0.349999
      vertex -2.49185 -1.03216 -1.0365
      vertex -2.49185 -1.03216 -0.349999
    endloop
  endfacet
  facet normal 0.831469 0.555571 0
    outer loop
      vertex -2.49185 -1.03216 -1.0365
      vertex -1.90718 -1.90718 -0.349999
      vertex -1.90718 -1.90718 -1.0365
    endloop
  endfacet
  facet normal -0.700214 -0.139282 0.700215
    outer loop
      vertex 1.52782 0 -2.78654
      vertex 2.11249 0.875021 -2.02782
      vertex 1.41152 0.58467 -2.78654
    endloop
  endfacet
  facet normal -0.831469 -0.555571 0
    outer loop
      vertex 2.49185 1.03216 -1.0365
      vertex 1.90718 1.90718 -0.349999
      vertex 1.90718 1.90718 -1.0365
    endloop
  endfacet
  facet normal -0.831469 -0.555571 0
    outer loop
      vertex 1.90718 1.90718 -0.349999
      vertex 2.49185 1.03216 -1.0365
      vertex 2.49185 1.03216 -0.349999
    endloop
  endfacet
  facet normal -0.770328 -0.514717 0.37638
    outer loop
      vertex 2.49185 1.03216 -1.0365
      vertex 1.90718 1.90718 -1.0365
      vertex 1.61683 1.61683 -2.02782
    endloop
  endfacet
  facet normal -0.831469 0.555571 0
    outer loop
      vertex 1.90718 -1.90718 -1.0365
      vertex 2.49185 -1.03216 -0.349999
      vertex 2.49185 -1.03216 -1.0365
    endloop
  endfacet
  facet normal -0.831469 0.555571 0
    outer loop
      vertex 2.49185 -1.03216 -0.349999
      vertex 1.90718 -1.90718 -1.0365
      vertex 1.90718 -1.90718 -0.349999
    endloop
  endfacet
  facet normal -0.0759013 0.381579 0.921214
    outer loop
      vertex 0.58467 -1.41152 -2.78654
      vertex 0.205309 -0.49566 -3.19716
      vertex 0 -1.52782 -2.78654
    endloop
  endfacet
  facet normal -0.139281 0.700215 0.700215
    outer loop
      vertex 0.875021 -2.11249 -2.02782
      vertex 0 -1.52782 -2.78654
      vertex 0 -2.28654 -2.02782
    endloop
  endfacet
  facet normal 0.908663 0.180744 0.376381
    outer loop
      vertex -2.11249 -0.875021 -2.02782
      vertex -2.28654 0 -2.02782
      vertex -2.69716 0 -1.0365
    endloop
  endfacet
  facet normal 0.396639 0.593613 0.700215
    outer loop
      vertex -0.58467 -1.41152 -2.78654
      vertex -1.08033 -1.08033 -2.78654
      vertex -1.61683 -1.61683 -2.02782
    endloop
  endfacet
  facet normal -0.396639 -0.593613 0.700215
    outer loop
      vertex 1.08033 1.08033 -2.78654
      vertex 1.61683 1.61683 -2.02782
      vertex 0.58467 1.41152 -2.78654
    endloop
  endfacet
  facet normal -0.555571 0.831469 0
    outer loop
      vertex 1.90718 -1.90718 -1.0365
      vertex 1.03216 -2.49185 -0.349999
      vertex 1.90718 -1.90718 -0.349999
    endloop
  endfacet
  facet normal -0.555571 0.831469 0
    outer loop
      vertex 1.03216 -2.49185 -0.349999
      vertex 1.90718 -1.90718 -1.0365
      vertex 1.03216 -2.49185 -1.0365
    endloop
  endfacet
  facet normal -0.139282 0.700214 0.700215
    outer loop
      vertex 0.875021 -2.11249 -2.02782
      vertex 0.58467 -1.41152 -2.78654
      vertex 0 -1.52782 -2.78654
    endloop
  endfacet
  facet normal -0.396639 0.593613 0.700215
    outer loop
      vertex 1.61683 -1.61683 -2.02782
      vertex 1.08033 -1.08033 -2.78654
      vertex 0.58467 -1.41152 -2.78654
    endloop
  endfacet
  facet normal -0.908663 0.180744 0.37638
    outer loop
      vertex 2.49185 -1.03216 -1.0365
      vertex 2.69716 0 -1.0365
      vertex 2.11249 -0.875021 -2.02782
    endloop
  endfacet
  facet normal -0.908663 -0.180744 0.376381
    outer loop
      vertex 2.28654 0 -2.02782
      vertex 2.69716 0 -1.0365
      vertex 2.11249 0.875021 -2.02782
    endloop
  endfacet
  facet normal -0.0759004 0.381579 0.921215
    outer loop
      vertex 0.205309 -0.49566 -3.19716
      vertex 0 -0.536498 -3.19716
      vertex 0 -1.52782 -2.78654
    endloop
  endfacet
  facet normal -0.396639 0.593613 0.700215
    outer loop
      vertex 0.875021 -2.11249 -2.02782
      vertex 1.61683 -1.61683 -2.02782
      vertex 0.58467 -1.41152 -2.78654
    endloop
  endfacet
  facet normal -0.216147 -0.323488 0.921214
    outer loop
      vertex 1.08033 1.08033 -2.78654
      vertex 0.58467 1.41152 -2.78654
      vertex 0.205309 0.49566 -3.19716
    endloop
  endfacet
  facet normal 0 0 1
    outer loop
      vertex 0.49566 0.205309 -3.19716
      vertex 0.49566 -0.205309 -3.19716
      vertex 0.536498 0 -3.19716
    endloop
  endfacet
  facet normal 0 0 1
    outer loop
      vertex 0.379361 0.379361 -3.19716
      vertex 0.49566 -0.205309 -3.19716
      vertex 0.49566 0.205309 -3.19716
    endloop
  endfacet
  facet normal 0 0 1
    outer loop
      vertex 0.379361 0.379361 -3.19716
      vertex 0.379361 -0.379361 -3.19716
      vertex 0.49566 -0.205309 -3.19716
    endloop
  endfacet
  facet normal 0 0 1
    outer loop
      vertex 0.205309 0.49566 -3.19716
      vertex 0.379361 -0.379361 -3.19716
      vertex 0.379361 0.379361 -3.19716
    endloop
  endfacet
  facet normal 0 0 1
    outer loop
      vertex 0.205309 0.49566 -3.19716
      vertex 0.205309 -0.49566 -3.19716
      vertex 0.379361 -0.379361 -3.19716
    endloop
  endfacet
  facet normal 0 0 1
    outer loop
      vertex 0 0.536498 -3.19716
      vertex 0.205309 -0.49566 -3.19716
      vertex 0.205309 0.49566 -3.19716
    endloop
  endfacet
  facet normal 0 0 1
    outer loop
      vertex 0 0.536498 -3.19716
      vertex 0 -0.536498 -3.19716
      vertex 0.205309 -0.49566 -3.19716
    endloop
  endfacet
  facet normal -0 0 1
    outer loop
      vertex -0.205309 0.49566 -3.19716
      vertex 0 -0.536498 -3.19716
      vertex 0 0.536498 -3.19716
    endloop
  endfacet
  facet normal 0 0 1
    outer loop
      vertex -0.205309 0.49566 -3.19716
      vertex -0.205309 -0.49566 -3.19716
      vertex 0 -0.536498 -3.19716
    endloop
  endfacet
  facet normal -0 0 1
    outer loop
      vertex -0.379361 0.379361 -3.19716
      vertex -0.205309 -0.49566 -3.19716
      vertex -0.205309 0.49566 -3.19716
    endloop
  endfacet
  facet normal 0 0 1
    outer loop
      vertex -0.379361 0.379361 -3.19716
      vertex -0.379361 -0.379361 -3.19716
      vertex -0.205309 -0.49566 -3.19716
    endloop
  endfacet
  facet normal -0 0 1
    outer loop
      vertex -0.49566 0.205309 -3.19716
      vertex -0.379361 -0.379361 -3.19716
      vertex -0.379361 0.379361 -3.19716
    endloop
  endfacet
  facet normal 0 0 1
    outer loop
      vertex -0.49566 0.205309 -3.19716
      vertex -0.49566 -0.205309 -3.19716
      vertex -0.379361 -0.379361 -3.19716
    endloop
  endfacet
  facet normal 0 -0 1
    outer loop
      vertex -0.49566 -0.205309 -3.19716
      vertex -0.49566 0.205309 -3.19716
      vertex -0.536498 0 -3.19716
    endloop
  endfacet
  facet normal -0.139281 -0.700215 0.700215
    outer loop
      vertex 0.875021 2.11249 -2.02782
      vertex 0 2.28654 -2.02782
      vertex 0 1.52782 -2.78654
    endloop
  endfacet
  facet normal 0.139281 -0.700215 0.700215
    outer loop
      vertex 0 1.52782 -2.78654
      vertex 0 2.28654 -2.02782
      vertex -0.875021 2.11249 -2.02782
    endloop
  endfacet
  facet normal 0.216147 -0.323488 0.921214
    outer loop
      vertex -0.205309 0.49566 -3.19716
      vertex -0.58467 1.41152 -2.78654
      vertex -1.08033 1.08033 -2.78654
    endloop
  endfacet
  facet normal 0.593613 -0.396639 0.700215
    outer loop
      vertex -1.41152 0.58467 -2.78654
      vertex -1.08033 1.08033 -2.78654
      vertex -1.61683 1.61683 -2.02782
    endloop
  endfacet
  facet normal 0.514716 -0.770328 0.37638
    outer loop
      vertex -0.875021 2.11249 -2.02782
      vertex -1.03216 2.49185 -1.0365
      vertex -1.61683 1.61683 -2.02782
    endloop
  endfacet
  facet normal -0.593613 -0.396639 0.700215
    outer loop
      vertex 1.41152 0.58467 -2.78654
      vertex 1.61683 1.61683 -2.02782
      vertex 1.08033 1.08033 -2.78654
    endloop
  endfacet
  facet normal -0.593613 -0.396639 0.700215
    outer loop
      vertex 2.11249 0.875021 -2.02782
      vertex 1.61683 1.61683 -2.02782
      vertex 1.41152 0.58467 -2.78654
    endloop
  endfacet
  facet normal -0.593613 0.396639 0.700215
    outer loop
      vertex 1.61683 -1.61683 -2.02782
      vertex 2.11249 -0.875021 -2.02782
      vertex 1.41152 -0.58467 -2.78654
    endloop
  endfacet
  facet normal -0.593613 0.396639 0.700215
    outer loop
      vertex 1.61683 -1.61683 -2.02782
      vertex 1.41152 -0.58467 -2.78654
      vertex 1.08033 -1.08033 -2.78654
    endloop
  endfacet
  facet normal 0.139281 0.700215 0.700215
    outer loop
      vertex 0 -2.28654 -2.02782
      vertex 0 -1.52782 -2.78654
      vertex -0.875021 -2.11249 -2.02782
    endloop
  endfacet
  facet normal 0.396639 0.593613 0.700215
    outer loop
      vertex -0.875021 -2.11249 -2.02782
      vertex -0.58467 -1.41152 -2.78654
      vertex -1.61683 -1.61683 -2.02782
    endloop
  endfacet
  facet normal 0.514716 0.770328 0.37638
    outer loop
      vertex -1.03216 -2.49185 -1.0365
      vertex -0.875021 -2.11249 -2.02782
      vertex -1.61683 -1.61683 -2.02782
    endloop
  endfacet
  facet normal -0.19509 0.980785 0
    outer loop
      vertex 1.03216 -2.49185 -1.0365
      vertex 0 -2.69716 -0.349999
      vertex 1.03216 -2.49185 -0.349999
    endloop
  endfacet
  facet normal -0.19509 0.980785 0
    outer loop
      vertex 0 -2.69716 -0.349999
      vertex 1.03216 -2.49185 -1.0365
      vertex 0 -2.69716 -1.0365
    endloop
  endfacet
  facet normal 0.593613 0.396639 0.700215
    outer loop
      vertex -1.61683 -1.61683 -2.02782
      vertex -1.41152 -0.58467 -2.78654
      vertex -2.11249 -0.875021 -2.02782
    endloop
  endfacet
  facet normal 0.908663 -0.180744 0.376381
    outer loop
      vertex -2.28654 0 -2.02782
      vertex -2.11249 0.875021 -2.02782
      vertex -2.69716 0 -1.0365
    endloop
  endfacet
  facet normal -0.514716 0.770328 0.37638
    outer loop
      vertex 1.03216 -2.49185 -1.0365
      vertex 1.61683 -1.61683 -2.02782
      vertex 0.875021 -2.11249 -2.02782
    endloop
  endfacet
  facet normal -0.700215 0.139281 0.700215
    outer loop
      vertex 2.11249 -0.875021 -2.02782
      vertex 2.28654 0 -2.02782
      vertex 1.52782 0 -2.78654
    endloop
  endfacet
  facet normal -0.700215 -0.139281 0.700215
    outer loop
      vertex 2.28654 0 -2.02782
      vertex 2.11249 0.875021 -2.02782
      vertex 1.52782 0 -2.78654
    endloop
  endfacet
  facet normal -0.323487 0.216148 0.921215
    outer loop
      vertex 1.08033 -1.08033 -2.78654
      vertex 0.49566 -0.205309 -3.19716
      vertex 0.379361 -0.379361 -3.19716
    endloop
  endfacet
  facet normal -0.216148 -0.323487 0.921215
    outer loop
      vertex 0.379361 0.379361 -3.19716
      vertex 1.08033 1.08033 -2.78654
      vertex 0.205309 0.49566 -3.19716
    endloop
  endfacet
  facet normal 0.514717 -0.770328 0.37638
    outer loop
      vertex -1.61683 1.61683 -2.02782
      vertex -1.03216 2.49185 -1.0365
      vertex -1.90718 1.90718 -1.0365
    endloop
  endfacet
  facet normal 0.770328 -0.514717 0.37638
    outer loop
      vertex -1.61683 1.61683 -2.02782
      vertex -1.90718 1.90718 -1.0365
      vertex -2.49185 1.03216 -1.0365
    endloop
  endfacet
  facet normal 0.980785 0.19509 0
    outer loop
      vertex -2.49185 -1.03216 -0.349999
      vertex -2.69716 0 -1.0365
      vertex -2.69716 0 -0.349999
    endloop
  endfacet
  facet normal 0.980785 0.19509 0
    outer loop
      vertex -2.69716 0 -1.0365
      vertex -2.49185 -1.03216 -0.349999
      vertex -2.49185 -1.03216 -1.0365
    endloop
  endfacet
  facet normal 0.980785 -0.19509 0
    outer loop
      vertex -2.69716 0 -0.349999
      vertex -2.49185 1.03216 -1.0365
      vertex -2.49185 1.03216 -0.349999
    endloop
  endfacet
  facet normal 0.980785 -0.19509 0
    outer loop
      vertex -2.49185 1.03216 -1.0365
      vertex -2.69716 0 -0.349999
      vertex -2.69716 0 -1.0365
    endloop
  endfacet
  facet normal 0.770328 0.514716 0.37638
    outer loop
      vertex -1.61683 -1.61683 -2.02782
      vertex -2.11249 -0.875021 -2.02782
      vertex -2.49185 -1.03216 -1.0365
    endloop
  endfacet
  facet normal 0.323487 0.216148 0.921215
    outer loop
      vertex -0.379361 -0.379361 -3.19716
      vertex -0.49566 -0.205309 -3.19716
      vertex -1.08033 -1.08033 -2.78654
    endloop
  endfacet
  facet normal 0.180744 0.908663 0.37638
    outer loop
      vertex 0 -2.69716 -1.0365
      vertex -0.875021 -2.11249 -2.02782
      vertex -1.03216 -2.49185 -1.0365
    endloop
  endfacet
  facet normal 0.180744 0.908663 0.376381
    outer loop
      vertex 0 -2.69716 -1.0365
      vertex 0 -2.28654 -2.02782
      vertex -0.875021 -2.11249 -2.02782
    endloop
  endfacet
  facet normal 0.381579 -0.0759013 0.921214
    outer loop
      vertex -0.49566 0.205309 -3.19716
      vertex -1.41152 0.58467 -2.78654
      vertex -1.52782 0 -2.78654
    endloop
  endfacet
  facet normal 0.700214 0.139282 0.700215
    outer loop
      vertex -1.41152 -0.58467 -2.78654
      vertex -1.52782 0 -2.78654
      vertex -2.11249 -0.875021 -2.02782
    endloop
  endfacet
  facet normal -0.514717 0.770328 0.37638
    outer loop
      vertex 1.90718 -1.90718 -1.0365
      vertex 1.61683 -1.61683 -2.02782
      vertex 1.03216 -2.49185 -1.0365
    endloop
  endfacet
  facet normal -0.216148 0.323487 0.921215
    outer loop
      vertex 1.08033 -1.08033 -2.78654
      vertex 0.379361 -0.379361 -3.19716
      vertex 0.205309 -0.49566 -3.19716
    endloop
  endfacet
  facet normal -0.381579 0.0759013 0.921214
    outer loop
      vertex 1.41152 -0.58467 -2.78654
      vertex 1.52782 0 -2.78654
      vertex 0.49566 -0.205309 -3.19716
    endloop
  endfacet
  facet normal -0.323488 0.216147 0.921214
    outer loop
      vertex 1.08033 -1.08033 -2.78654
      vertex 1.41152 -0.58467 -2.78654
      vertex 0.49566 -0.205309 -3.19716
    endloop
  endfacet
  facet normal 0.0759013 -0.381579 0.921214
    outer loop
      vertex -0.205309 0.49566 -3.19716
      vertex 0 1.52782 -2.78654
      vertex -0.58467 1.41152 -2.78654
    endloop
  endfacet
  facet normal -0.0759013 -0.381579 0.921214
    outer loop
      vertex 0.205309 0.49566 -3.19716
      vertex 0.58467 1.41152 -2.78654
      vertex 0 1.52782 -2.78654
    endloop
  endfacet
  facet normal -0.323487 -0.216148 0.921215
    outer loop
      vertex 0.49566 0.205309 -3.19716
      vertex 1.08033 1.08033 -2.78654
      vertex 0.379361 0.379361 -3.19716
    endloop
  endfacet
  facet normal -0.323488 -0.216147 0.921214
    outer loop
      vertex 1.41152 0.58467 -2.78654
      vertex 1.08033 1.08033 -2.78654
      vertex 0.49566 0.205309 -3.19716
    endloop
  endfacet
  facet normal 0.700215 -0.139281 0.700215
    outer loop
      vertex -1.52782 0 -2.78654
      vertex -2.11249 0.875021 -2.02782
      vertex -2.28654 0 -2.02782
    endloop
  endfacet
  facet normal 0.381579 0.0759013 0.921214
    outer loop
      vertex -1.41152 -0.58467 -2.78654
      vertex -0.49566 -0.205309 -3.19716
      vertex -1.52782 0 -2.78654
    endloop
  endfacet
  facet normal 0.0759013 0.381579 0.921214
    outer loop
      vertex 0 -1.52782 -2.78654
      vertex -0.205309 -0.49566 -3.19716
      vertex -0.58467 -1.41152 -2.78654
    endloop
  endfacet
  facet normal 0.514717 0.770328 0.37638
    outer loop
      vertex -1.03216 -2.49185 -1.0365
      vertex -1.61683 -1.61683 -2.02782
      vertex -1.90718 -1.90718 -1.0365
    endloop
  endfacet
  facet normal 0.770328 0.514717 0.37638
    outer loop
      vertex -1.90718 -1.90718 -1.0365
      vertex -1.61683 -1.61683 -2.02782
      vertex -2.49185 -1.03216 -1.0365
    endloop
  endfacet
  facet normal 0.700215 0.139281 0.700215
    outer loop
      vertex -2.11249 -0.875021 -2.02782
      vertex -1.52782 0 -2.78654
      vertex -2.28654 0 -2.02782
    endloop
  endfacet
  facet normal 0.700214 -0.139282 0.700215
    outer loop
      vertex -1.52782 0 -2.78654
      vertex -1.41152 0.58467 -2.78654
      vertex -2.11249 0.875021 -2.02782
    endloop
  endfacet
  facet normal -0.0759004 -0.381579 0.921215
    outer loop
      vertex 0.205309 0.49566 -3.19716
      vertex 0 1.52782 -2.78654
      vertex 0 0.536498 -3.19716
    endloop
  endfacet
  facet normal 0.216148 0.323487 0.921215
    outer loop
      vertex -0.205309 -0.49566 -3.19716
      vertex -0.379361 -0.379361 -3.19716
      vertex -1.08033 -1.08033 -2.78654
    endloop
  endfacet
  facet normal 0.216147 0.323488 0.921214
    outer loop
      vertex -0.58467 -1.41152 -2.78654
      vertex -0.205309 -0.49566 -3.19716
      vertex -1.08033 -1.08033 -2.78654
    endloop
  endfacet
  facet normal 0.323488 -0.216147 0.921214
    outer loop
      vertex -0.49566 0.205309 -3.19716
      vertex -1.08033 1.08033 -2.78654
      vertex -1.41152 0.58467 -2.78654
    endloop
  endfacet
  facet normal 0.381579 0.0759004 0.921215
    outer loop
      vertex -0.49566 -0.205309 -3.19716
      vertex -0.536498 0 -3.19716
      vertex -1.52782 0 -2.78654
    endloop
  endfacet
  facet normal 0.216148 -0.323487 0.921215
    outer loop
      vertex -0.379361 0.379361 -3.19716
      vertex -0.205309 0.49566 -3.19716
      vertex -1.08033 1.08033 -2.78654
    endloop
  endfacet
  facet normal 0.0759004 -0.381579 0.921215
    outer loop
      vertex 0 0.536498 -3.19716
      vertex 0 1.52782 -2.78654
      vertex -0.205309 0.49566 -3.19716
    endloop
  endfacet
  facet normal 0.593613 0.396639 0.700215
    outer loop
      vertex -1.08033 -1.08033 -2.78654
      vertex -1.41152 -0.58467 -2.78654
      vertex -1.61683 -1.61683 -2.02782
    endloop
  endfacet
  facet normal 0.323488 0.216147 0.921214
    outer loop
      vertex -1.08033 -1.08033 -2.78654
      vertex -0.49566 -0.205309 -3.19716
      vertex -1.41152 -0.58467 -2.78654
    endloop
  endfacet
  facet normal 0.323487 -0.216148 0.921215
    outer loop
      vertex -0.49566 0.205309 -3.19716
      vertex -0.379361 0.379361 -3.19716
      vertex -1.08033 1.08033 -2.78654
    endloop
  endfacet
  facet normal -0.980785 -0.195091 0
    outer loop
      vertex 2.75 0 -0.349999
      vertex 2.54067 1.05238 2.65
      vertex 2.54067 1.05238 -0.349999
    endloop
  endfacet
  facet normal -0.980785 -0.195091 0
    outer loop
      vertex 2.54067 1.05238 2.65
      vertex 2.75 0 -0.349999
      vertex 2.75 0 2.65
    endloop
  endfacet
  facet normal 0.980785 -0.195091 0
    outer loop
      vertex -2.75 0 2.65
      vertex -2.54067 1.05238 -0.349999
      vertex -2.54067 1.05238 2.65
    endloop
  endfacet
  facet normal 0.980785 -0.195091 0
    outer loop
      vertex -2.54067 1.05238 -0.349999
      vertex -2.75 0 2.65
      vertex -2.75 0 -0.349999
    endloop
  endfacet
  facet normal -0.195091 -0.980785 0
    outer loop
      vertex 0 2.75 -0.349999
      vertex 1.05238 2.54067 2.65
      vertex 0 2.75 2.65
    endloop
  endfacet
  facet normal -0.195091 -0.980785 -0
    outer loop
      vertex 1.05238 2.54067 2.65
      vertex 0 2.75 -0.349999
      vertex 1.05238 2.54067 -0.349999
    endloop
  endfacet
  facet normal -0.195091 0.980785 0
    outer loop
      vertex 1.05238 -2.54067 -0.349999
      vertex 0 -2.75 2.65
      vertex 1.05238 -2.54067 2.65
    endloop
  endfacet
  facet normal -0.195091 0.980785 0
    outer loop
      vertex 0 -2.75 2.65
      vertex 1.05238 -2.54067 -0.349999
      vertex 0 -2.75 -0.349999
    endloop
  endfacet
  facet normal 0 0 1
    outer loop
      vertex 2.54067 1.05238 -0.349999
      vertex 2.69716 0 -0.349999
      vertex 2.75 0 -0.349999
    endloop
  endfacet
  facet normal 0 0 1
    outer loop
      vertex 2.54067 1.05238 -0.349999
      vertex 2.49185 1.03216 -0.349999
      vertex 2.69716 0 -0.349999
    endloop
  endfacet
  facet normal 0 0 1
    outer loop
      vertex 1.94454 1.94454 -0.349999
      vertex 2.49185 1.03216 -0.349999
      vertex 2.54067 1.05238 -0.349999
    endloop
  endfacet
  facet normal 0 0 1
    outer loop
      vertex 1.94454 1.94454 -0.349999
      vertex 1.90718 1.90718 -0.349999
      vertex 2.49185 1.03216 -0.349999
    endloop
  endfacet
  facet normal 0 0 1
    outer loop
      vertex 1.05238 2.54067 -0.349999
      vertex 1.90718 1.90718 -0.349999
      vertex 1.94454 1.94454 -0.349999
    endloop
  endfacet
  facet normal 0 0 1
    outer loop
      vertex 1.05238 2.54067 -0.349999
      vertex 1.03216 2.49185 -0.349999
      vertex 1.90718 1.90718 -0.349999
    endloop
  endfacet
  facet normal 0 0 1
    outer loop
      vertex 0 2.75 -0.349999
      vertex 1.03216 2.49185 -0.349999
      vertex 1.05238 2.54067 -0.349999
    endloop
  endfacet
  facet normal 0 0 1
    outer loop
      vertex 0 2.75 -0.349999
      vertex 0 2.69716 -0.349999
      vertex 1.03216 2.49185 -0.349999
    endloop
  endfacet
  facet normal 0 0 1
    outer loop
      vertex 0 2.75 -0.349999
      vertex -1.03216 2.49185 -0.349999
      vertex 0 2.69716 -0.349999
    endloop
  endfacet
  facet normal -0 0 1
    outer loop
      vertex -1.05238 2.54067 -0.349999
      vertex -1.03216 2.49185 -0.349999
      vertex 0 2.75 -0.349999
    endloop
  endfacet
  facet normal 0 0 1
    outer loop
      vertex -1.05238 2.54067 -0.349999
      vertex -1.90718 1.90718 -0.349999
      vertex -1.03216 2.49185 -0.349999
    endloop
  endfacet
  facet normal -0 0 1
    outer loop
      vertex -1.94454 1.94454 -0.349999
      vertex -1.90718 1.90718 -0.349999
      vertex -1.05238 2.54067 -0.349999
    endloop
  endfacet
  facet normal 0 0 1
    outer loop
      vertex -1.94454 1.94454 -0.349999
      vertex -2.49185 1.03216 -0.349999
      vertex -1.90718 1.90718 -0.349999
    endloop
  endfacet
  facet normal -0 0 1
    outer loop
      vertex -2.54067 1.05238 -0.349999
      vertex -2.49185 1.03216 -0.349999
      vertex -1.94454 1.94454 -0.349999
    endloop
  endfacet
  facet normal 0 0 1
    outer loop
      vertex -2.54067 1.05238 -0.349999
      vertex -2.69716 0 -0.349999
      vertex -2.49185 1.03216 -0.349999
    endloop
  endfacet
  facet normal 0 -0 1
    outer loop
      vertex -2.69716 0 -0.349999
      vertex -2.54067 1.05238 -0.349999
      vertex -2.75 0 -0.349999
    endloop
  endfacet
  facet normal -0 0 1
    outer loop
      vertex 2.69716 0 -0.349999
      vertex 2.54067 -1.05238 -0.349999
      vertex 2.75 0 -0.349999
    endloop
  endfacet
  facet normal -0 0 1
    outer loop
      vertex 2.49185 -1.03216 -0.349999
      vertex 2.54067 -1.05238 -0.349999
      vertex 2.69716 0 -0.349999
    endloop
  endfacet
  facet normal 0 0 1
    outer loop
      vertex 2.49185 -1.03216 -0.349999
      vertex 1.94454 -1.94454 -0.349999
      vertex 2.54067 -1.05238 -0.349999
    endloop
  endfacet
  facet normal -0 0 1
    outer loop
      vertex 1.90718 -1.90718 -0.349999
      vertex 1.94454 -1.94454 -0.349999
      vertex 2.49185 -1.03216 -0.349999
    endloop
  endfacet
  facet normal 0 0 1
    outer loop
      vertex 1.90718 -1.90718 -0.349999
      vertex 1.05238 -2.54067 -0.349999
      vertex 1.94454 -1.94454 -0.349999
    endloop
  endfacet
  facet normal -0 0 1
    outer loop
      vertex 1.03216 -2.49185 -0.349999
      vertex 1.05238 -2.54067 -0.349999
      vertex 1.90718 -1.90718 -0.349999
    endloop
  endfacet
  facet normal 0 0 1
    outer loop
      vertex 0 -2.69716 -0.349999
      vertex 1.05238 -2.54067 -0.349999
      vertex 1.03216 -2.49185 -0.349999
    endloop
  endfacet
  facet normal -0 0 1
    outer loop
      vertex 0 -2.69716 -0.349999
      vertex 0 -2.75 -0.349999
      vertex 1.05238 -2.54067 -0.349999
    endloop
  endfacet
  facet normal 0 0 1
    outer loop
      vertex -1.03216 -2.49185 -0.349999
      vertex 0 -2.75 -0.349999
      vertex 0 -2.69716 -0.349999
    endloop
  endfacet
  facet normal 0 0 1
    outer loop
      vertex -1.03216 -2.49185 -0.349999
      vertex -1.05238 -2.54067 -0.349999
      vertex 0 -2.75 -0.349999
    endloop
  endfacet
  facet normal 0 0 1
    outer loop
      vertex -1.90718 -1.90718 -0.349999
      vertex -1.05238 -2.54067 -0.349999
      vertex -1.03216 -2.49185 -0.349999
    endloop
  endfacet
  facet normal 0 0 1
    outer loop
      vertex -1.90718 -1.90718 -0.349999
      vertex -1.94454 -1.94454 -0.349999
      vertex -1.05238 -2.54067 -0.349999
    endloop
  endfacet
  facet normal 0 0 1
    outer loop
      vertex -2.49185 -1.03216 -0.349999
      vertex -1.94454 -1.94454 -0.349999
      vertex -1.90718 -1.90718 -0.349999
    endloop
  endfacet
  facet normal 0 0 1
    outer loop
      vertex -2.49185 -1.03216 -0.349999
      vertex -2.54067 -1.05238 -0.349999
      vertex -1.94454 -1.94454 -0.349999
    endloop
  endfacet
  facet normal 0 0 1
    outer loop
      vertex -2.69716 0 -0.349999
      vertex -2.54067 -1.05238 -0.349999
      vertex -2.49185 -1.03216 -0.349999
    endloop
  endfacet
  facet normal 0 0 1
    outer loop
      vertex -2.54067 -1.05238 -0.349999
      vertex -2.69716 0 -0.349999
      vertex -2.75 0 -0.349999
    endloop
  endfacet
  facet normal -0.555571 -0.831469 0
    outer loop
      vertex 1.05238 2.54067 -0.349999
      vertex 1.94454 1.94454 2.65
      vertex 1.05238 2.54067 2.65
    endloop
  endfacet
  facet normal -0.555571 -0.831469 -0
    outer loop
      vertex 1.94454 1.94454 2.65
      vertex 1.05238 2.54067 -0.349999
      vertex 1.94454 1.94454 -0.349999
    endloop
  endfacet
  facet normal -0.831469 -0.555571 0
    outer loop
      vertex 2.54067 1.05238 -0.349999
      vertex 1.94454 1.94454 2.65
      vertex 1.94454 1.94454 -0.349999
    endloop
  endfacet
  facet normal -0.831469 -0.555571 0
    outer loop
      vertex 1.94454 1.94454 2.65
      vertex 2.54067 1.05238 -0.349999
      vertex 2.54067 1.05238 2.65
    endloop
  endfacet
  facet normal 0.555571 -0.831469 0
    outer loop
      vertex -1.94454 1.94454 -0.349999
      vertex -1.05238 2.54067 2.65
      vertex -1.94454 1.94454 2.65
    endloop
  endfacet
  facet normal 0.555571 -0.831469 0
    outer loop
      vertex -1.05238 2.54067 2.65
      vertex -1.94454 1.94454 -0.349999
      vertex -1.05238 2.54067 -0.349999
    endloop
  endfacet
  facet normal 0.831469 -0.555571 0
    outer loop
      vertex -2.54067 1.05238 2.65
      vertex -1.94454 1.94454 -0.349999
      vertex -1.94454 1.94454 2.65
    endloop
  endfacet
  facet normal 0.831469 -0.555571 0
    outer loop
      vertex -1.94454 1.94454 -0.349999
      vertex -2.54067 1.05238 2.65
      vertex -2.54067 1.05238 -0.349999
    endloop
  endfacet
  facet normal 0 0 -1
    outer loop
      vertex 2.54067 -1.05238 2.65
      vertex 2.54067 1.05238 2.65
      vertex 2.75 0 2.65
    endloop
  endfacet
  facet normal 0 0 -1
    outer loop
      vertex 1.94454 -1.94454 2.65
      vertex 2.54067 1.05238 2.65
      vertex 2.54067 -1.05238 2.65
    endloop
  endfacet
  facet normal 0 0 -1
    outer loop
      vertex 1.94454 -1.94454 2.65
      vertex 1.94454 1.94454 2.65
      vertex 2.54067 1.05238 2.65
    endloop
  endfacet
  facet normal 0 0 -1
    outer loop
      vertex 1.05238 -2.54067 2.65
      vertex 1.94454 1.94454 2.65
      vertex 1.94454 -1.94454 2.65
    endloop
  endfacet
  facet normal 0 0 -1
    outer loop
      vertex 1.05238 -2.54067 2.65
      vertex 1.05238 2.54067 2.65
      vertex 1.94454 1.94454 2.65
    endloop
  endfacet
  facet normal 0 0 -1
    outer loop
      vertex 0 -2.75 2.65
      vertex 1.05238 2.54067 2.65
      vertex 1.05238 -2.54067 2.65
    endloop
  endfacet
  facet normal 0 0 -1
    outer loop
      vertex 0 -2.75 2.65
      vertex 0 2.75 2.65
      vertex 1.05238 2.54067 2.65
    endloop
  endfacet
  facet normal 0 0 -1
    outer loop
      vertex -1.05238 -2.54067 2.65
      vertex 0 2.75 2.65
      vertex 0 -2.75 2.65
    endloop
  endfacet
  facet normal 0 0 -1
    outer loop
      vertex -1.05238 -2.54067 2.65
      vertex -1.05238 2.54067 2.65
      vertex 0 2.75 2.65
    endloop
  endfacet
  facet normal 0 0 -1
    outer loop
      vertex -1.94454 -1.94454 2.65
      vertex -1.05238 2.54067 2.65
      vertex -1.05238 -2.54067 2.65
    endloop
  endfacet
  facet normal 0 0 -1
    outer loop
      vertex -1.94454 -1.94454 2.65
      vertex -1.94454 1.94454 2.65
      vertex -1.05238 2.54067 2.65
    endloop
  endfacet
  facet normal 0 0 -1
    outer loop
      vertex -2.54067 -1.05238 2.65
      vertex -1.94454 1.94454 2.65
      vertex -1.94454 -1.94454 2.65
    endloop
  endfacet
  facet normal 0 0 -1
    outer loop
      vertex -2.54067 -1.05238 2.65
      vertex -2.54067 1.05238 2.65
      vertex -1.94454 1.94454 2.65
    endloop
  endfacet
  facet normal 0 -0 -1
    outer loop
      vertex -2.54067 1.05238 2.65
      vertex -2.54067 -1.05238 2.65
      vertex -2.75 0 2.65
    endloop
  endfacet
  facet normal 0.195091 -0.980785 0
    outer loop
      vertex -1.05238 2.54067 -0.349999
      vertex 0 2.75 2.65
      vertex -1.05238 2.54067 2.65
    endloop
  endfacet
  facet normal 0.195091 -0.980785 0
    outer loop
      vertex 0 2.75 2.65
      vertex -1.05238 2.54067 -0.349999
      vertex 0 2.75 -0.349999
    endloop
  endfacet
  facet normal 0.555571 0.831469 -0
    outer loop
      vertex -1.05238 -2.54067 -0.349999
      vertex -1.94454 -1.94454 2.65
      vertex -1.05238 -2.54067 2.65
    endloop
  endfacet
  facet normal 0.555571 0.831469 0
    outer loop
      vertex -1.94454 -1.94454 2.65
      vertex -1.05238 -2.54067 -0.349999
      vertex -1.94454 -1.94454 -0.349999
    endloop
  endfacet
  facet normal 0.980785 0.195091 0
    outer loop
      vertex -2.54067 -1.05238 2.65
      vertex -2.75 0 -0.349999
      vertex -2.75 0 2.65
    endloop
  endfacet
  facet normal 0.980785 0.195091 0
    outer loop
      vertex -2.75 0 -0.349999
      vertex -2.54067 -1.05238 2.65
      vertex -2.54067 -1.05238 -0.349999
    endloop
  endfacet
  facet normal -0.980785 0.195091 0
    outer loop
      vertex 2.54067 -1.05238 -0.349999
      vertex 2.75 0 2.65
      vertex 2.75 0 -0.349999
    endloop
  endfacet
  facet normal -0.980785 0.195091 0
    outer loop
      vertex 2.75 0 2.65
      vertex 2.54067 -1.05238 -0.349999
      vertex 2.54067 -1.05238 2.65
    endloop
  endfacet
  facet normal 0.195091 0.980785 -0
    outer loop
      vertex 0 -2.75 -0.349999
      vertex -1.05238 -2.54067 2.65
      vertex 0 -2.75 2.65
    endloop
  endfacet
  facet normal 0.195091 0.980785 0
    outer loop
      vertex -1.05238 -2.54067 2.65
      vertex 0 -2.75 -0.349999
      vertex -1.05238 -2.54067 -0.349999
    endloop
  endfacet
  facet normal 0.831469 0.555571 0
    outer loop
      vertex -1.94454 -1.94454 2.65
      vertex -2.54067 -1.05238 -0.349999
      vertex -2.54067 -1.05238 2.65
    endloop
  endfacet
  facet normal 0.831469 0.555571 0
    outer loop
      vertex -2.54067 -1.05238 -0.349999
      vertex -1.94454 -1.94454 2.65
      vertex -1.94454 -1.94454 -0.349999
    endloop
  endfacet
  facet normal -0.555571 0.831469 0
    outer loop
      vertex 1.94454 -1.94454 -0.349999
      vertex 1.05238 -2.54067 2.65
      vertex 1.94454 -1.94454 2.65
    endloop
  endfacet
  facet normal -0.555571 0.831469 0
    outer loop
      vertex 1.05238 -2.54067 2.65
      vertex 1.94454 -1.94454 -0.349999
      vertex 1.05238 -2.54067 -0.349999
    endloop
  endfacet
  facet normal -0.831469 0.555571 0
    outer loop
      vertex 1.94454 -1.94454 -0.349999
      vertex 2.54067 -1.05238 2.65
      vertex 2.54067 -1.05238 -0.349999
    endloop
  endfacet
  facet normal -0.831469 0.555571 0
    outer loop
      vertex 2.54067 -1.05238 2.65
      vertex 1.94454 -1.94454 -0.349999
      vertex 1.94454 -1.94454 2.65
    endloop
  endfacet
endsolid OpenSCAD_Model
