solid OpenSCAD_Model
  facet normal -1 0 0
    outer loop
      vertex -12.5 -17.5 -10
      vertex -12.5 17.5 10
      vertex -12.5 17.5 -10
    endloop
  endfacet
  facet normal -1 -0 0
    outer loop
      vertex -12.5 17.5 10
      vertex -12.5 -17.5 -10
      vertex -12.5 -17.5 10
    endloop
  endfacet
  facet normal 0 -1 0
    outer loop
      vertex -12.5 -17.5 -10
      vertex 12.5 -17.5 10
      vertex -12.5 -17.5 10
    endloop
  endfacet
  facet normal 0 -1 -0
    outer loop
      vertex 12.5 -17.5 10
      vertex -12.5 -17.5 -10
      vertex 12.5 -17.5 -10
    endloop
  endfacet
  facet normal 1 -0 0
    outer loop
      vertex 12.5 -17.5 10
      vertex 12.5 -15 -10
      vertex 12.5 -15 10
    endloop
  endfacet
  facet normal 1 0 0
    outer loop
      vertex 12.5 -15 -10
      vertex 12.5 -17.5 10
      vertex 12.5 -17.5 -10
    endloop
  endfacet
  facet normal 1 -0 0
    outer loop
      vertex 12.5 15 10
      vertex 12.5 17.5 -10
      vertex 12.5 17.5 10
    endloop
  endfacet
  facet normal 1 0 0
    outer loop
      vertex 12.5 17.5 -10
      vertex 12.5 15 10
      vertex 12.5 15 -10
    endloop
  endfacet
  facet normal 0 1 -0
    outer loop
      vertex 12.5 17.5 -10
      vertex -12.5 17.5 10
      vertex 12.5 17.5 10
    endloop
  endfacet
  facet normal 0 1 0
    outer loop
      vertex -12.5 17.5 10
      vertex 12.5 17.5 -10
      vertex -12.5 17.5 -10
    endloop
  endfacet
  facet normal 0 0 -1
    outer loop
      vertex 12.5 -17.5 -10
      vertex 10.3 -15.2 -10
      vertex 12.5 -15 -10
    endloop
  endfacet
  facet normal 0 0 -1
    outer loop
      vertex 12.5 -17.5 -10
      vertex -10.3 -15.2 -10
      vertex 10.3 -15.2 -10
    endloop
  endfacet
  facet normal -0 0 -1
    outer loop
      vertex -10.3 -15.2 -10
      vertex -12.5 -17.5 -10
      vertex -10.3 15.2 -10
    endloop
  endfacet
  facet normal 0 0 -1
    outer loop
      vertex -12.5 -17.5 -10
      vertex -10.3 -15.2 -10
      vertex 12.5 -17.5 -10
    endloop
  endfacet
  facet normal 0 0 -1
    outer loop
      vertex 30.2 -15 -10
      vertex 12.51 -13 -10
      vertex 30.2 -13 -10
    endloop
  endfacet
  facet normal 0 0 -1
    outer loop
      vertex 12.5 -15 -10
      vertex 12.51 -13 -10
      vertex 30.2 -15 -10
    endloop
  endfacet
  facet normal 0 0 -1
    outer loop
      vertex 10.3 -13 -10
      vertex 12.5 -15 -10
      vertex 10.3 -15.2 -10
    endloop
  endfacet
  facet normal 0 0 -1
    outer loop
      vertex 12.5 -15 -10
      vertex 10.3 -13 -10
      vertex 12.51 -13 -10
    endloop
  endfacet
  facet normal 0 0 -1
    outer loop
      vertex 12.51 13 -10
      vertex 30.2 15 -10
      vertex 30.2 13 -10
    endloop
  endfacet
  facet normal 0 0 -1
    outer loop
      vertex 12.51 13 -10
      vertex 12.5 15 -10
      vertex 30.2 15 -10
    endloop
  endfacet
  facet normal 0 0 -1
    outer loop
      vertex 10.3 13 -10
      vertex 12.5 15 -10
      vertex 12.51 13 -10
    endloop
  endfacet
  facet normal 0 0 -1
    outer loop
      vertex 10.3 15.2 -10
      vertex 12.5 15 -10
      vertex 10.3 13 -10
    endloop
  endfacet
  facet normal 0 0 -1
    outer loop
      vertex 12.5 15 -10
      vertex 10.3 15.2 -10
      vertex 12.5 17.5 -10
    endloop
  endfacet
  facet normal 0 0 -1
    outer loop
      vertex -10.3 15.2 -10
      vertex 12.5 17.5 -10
      vertex 10.3 15.2 -10
    endloop
  endfacet
  facet normal 0 0 -1
    outer loop
      vertex -10.3 15.2 -10
      vertex -12.5 17.5 -10
      vertex 12.5 17.5 -10
    endloop
  endfacet
  facet normal 0 0 -1
    outer loop
      vertex -12.5 17.5 -10
      vertex -10.3 15.2 -10
      vertex -12.5 -17.5 -10
    endloop
  endfacet
  facet normal 0 0 1
    outer loop
      vertex 12.5 17.5 10
      vertex 10.3 15.2 10
      vertex 12.5 15 10
    endloop
  endfacet
  facet normal 0 0 1
    outer loop
      vertex 12.5 17.5 10
      vertex -10.3 15.2 10
      vertex 10.3 15.2 10
    endloop
  endfacet
  facet normal 0 0 1
    outer loop
      vertex -10.3 15.2 10
      vertex -12.5 17.5 10
      vertex -10.3 -15.2 10
    endloop
  endfacet
  facet normal -0 0 1
    outer loop
      vertex -12.5 17.5 10
      vertex -10.3 15.2 10
      vertex 12.5 17.5 10
    endloop
  endfacet
  facet normal 0 0 1
    outer loop
      vertex 30.2 15 10
      vertex 12.51 13 10
      vertex 30.2 13 10
    endloop
  endfacet
  facet normal -0 0 1
    outer loop
      vertex 12.5 15 10
      vertex 12.51 13 10
      vertex 30.2 15 10
    endloop
  endfacet
  facet normal 0 0 1
    outer loop
      vertex 10.3 13 10
      vertex 12.5 15 10
      vertex 10.3 15.2 10
    endloop
  endfacet
  facet normal 0 0 1
    outer loop
      vertex 12.5 15 10
      vertex 10.3 13 10
      vertex 12.51 13 10
    endloop
  endfacet
  facet normal -0 0 1
    outer loop
      vertex 12.51 -13 10
      vertex 30.2 -15 10
      vertex 30.2 -13 10
    endloop
  endfacet
  facet normal 0 0 1
    outer loop
      vertex 12.51 -13 10
      vertex 12.5 -15 10
      vertex 30.2 -15 10
    endloop
  endfacet
  facet normal -0 0 1
    outer loop
      vertex 10.3 -13 10
      vertex 12.5 -15 10
      vertex 12.51 -13 10
    endloop
  endfacet
  facet normal 0 0 1
    outer loop
      vertex 10.3 -15.2 10
      vertex 12.5 -15 10
      vertex 10.3 -13 10
    endloop
  endfacet
  facet normal 0 0 1
    outer loop
      vertex 12.5 -15 10
      vertex 10.3 -15.2 10
      vertex 12.5 -17.5 10
    endloop
  endfacet
  facet normal -0 0 1
    outer loop
      vertex -10.3 -15.2 10
      vertex 12.5 -17.5 10
      vertex 10.3 -15.2 10
    endloop
  endfacet
  facet normal 0 0 1
    outer loop
      vertex -10.3 -15.2 10
      vertex -12.5 -17.5 10
      vertex 12.5 -17.5 10
    endloop
  endfacet
  facet normal 0 0 1
    outer loop
      vertex -12.5 -17.5 10
      vertex -10.3 -15.2 10
      vertex -12.5 17.5 10
    endloop
  endfacet
  facet normal 0 -1 0
    outer loop
      vertex 12.5 -15 10
      vertex 20 -15 1.5
      vertex 30.2 -15 10
    endloop
  endfacet
  facet normal 0 -1 0
    outer loop
      vertex 12.5 -15 10
      vertex 19.426 -15 1.38582
      vertex 20 -15 1.5
    endloop
  endfacet
  facet normal 0 -1 0
    outer loop
      vertex 12.5 -15 10
      vertex 18.9393 -15 1.06066
      vertex 19.426 -15 1.38582
    endloop
  endfacet
  facet normal 0 -1 0
    outer loop
      vertex 12.5 -15 10
      vertex 18.6142 -15 0.574024
      vertex 18.9393 -15 1.06066
    endloop
  endfacet
  facet normal 0 -1 0
    outer loop
      vertex 12.5 -15 10
      vertex 18.5 -15 3.33067e-15
      vertex 18.6142 -15 0.574024
    endloop
  endfacet
  facet normal 0 -1 0
    outer loop
      vertex 12.5 -15 -10
      vertex 18.5 -15 3.33067e-15
      vertex 12.5 -15 10
    endloop
  endfacet
  facet normal 0 -1 -0
    outer loop
      vertex 19.426 -15 -1.38582
      vertex 12.5 -15 -10
      vertex 20 -15 -1.5
    endloop
  endfacet
  facet normal 0 -1 -0
    outer loop
      vertex 18.9393 -15 -1.06066
      vertex 12.5 -15 -10
      vertex 19.426 -15 -1.38582
    endloop
  endfacet
  facet normal 0 -1 -0
    outer loop
      vertex 18.6142 -15 -0.574024
      vertex 12.5 -15 -10
      vertex 18.9393 -15 -1.06066
    endloop
  endfacet
  facet normal 0 -1 -0
    outer loop
      vertex 18.5 -15 3.33067e-15
      vertex 12.5 -15 -10
      vertex 18.6142 -15 -0.574024
    endloop
  endfacet
  facet normal 0 -1 0
    outer loop
      vertex 20.574 -15 1.38582
      vertex 30.2 -15 10
      vertex 20 -15 1.5
    endloop
  endfacet
  facet normal 0 -1 0
    outer loop
      vertex 21.0607 -15 1.06066
      vertex 30.2 -15 10
      vertex 20.574 -15 1.38582
    endloop
  endfacet
  facet normal 0 -1 0
    outer loop
      vertex 21.3858 -15 0.574024
      vertex 30.2 -15 10
      vertex 21.0607 -15 1.06066
    endloop
  endfacet
  facet normal 0 -1 0
    outer loop
      vertex 21.5 -15 3.33067e-15
      vertex 30.2 -15 10
      vertex 21.3858 -15 0.574024
    endloop
  endfacet
  facet normal 0 -1 0
    outer loop
      vertex 30.2 -15 -10
      vertex 21.5 -15 3.33067e-15
      vertex 21.3858 -15 -0.574024
    endloop
  endfacet
  facet normal 0 -1 0
    outer loop
      vertex 30.2 -15 -10
      vertex 21.3858 -15 -0.574024
      vertex 21.0607 -15 -1.06066
    endloop
  endfacet
  facet normal 0 -1 0
    outer loop
      vertex 30.2 -15 -10
      vertex 20 -15 -1.5
      vertex 12.5 -15 -10
    endloop
  endfacet
  facet normal 0 -1 0
    outer loop
      vertex 20 -15 -1.5
      vertex 30.2 -15 -10
      vertex 20.574 -15 -1.38582
    endloop
  endfacet
  facet normal 0 -1 0
    outer loop
      vertex 21.5 -15 3.33067e-15
      vertex 30.2 -15 -10
      vertex 30.2 -15 10
    endloop
  endfacet
  facet normal 0 -1 0
    outer loop
      vertex 20.574 -15 -1.38582
      vertex 30.2 -15 -10
      vertex 21.0607 -15 -1.06066
    endloop
  endfacet
  facet normal 1 -0 0
    outer loop
      vertex 30.2 -15 10
      vertex 30.2 -13 -10
      vertex 30.2 -13 10
    endloop
  endfacet
  facet normal 1 0 0
    outer loop
      vertex 30.2 -13 -10
      vertex 30.2 -15 10
      vertex 30.2 -15 -10
    endloop
  endfacet
  facet normal 0 1 0
    outer loop
      vertex 30.2 -13 10
      vertex 20 -13 1.5
      vertex 12.51 -13 10
    endloop
  endfacet
  facet normal 0 1 0
    outer loop
      vertex 30.2 -13 10
      vertex 20.574 -13 1.38582
      vertex 20 -13 1.5
    endloop
  endfacet
  facet normal 0 1 0
    outer loop
      vertex 30.2 -13 10
      vertex 21.0607 -13 1.06066
      vertex 20.574 -13 1.38582
    endloop
  endfacet
  facet normal 0 1 0
    outer loop
      vertex 30.2 -13 10
      vertex 21.3858 -13 0.574024
      vertex 21.0607 -13 1.06066
    endloop
  endfacet
  facet normal 0 1 0
    outer loop
      vertex 30.2 -13 10
      vertex 21.5 -13 2.88658e-15
      vertex 21.3858 -13 0.574024
    endloop
  endfacet
  facet normal 0 1 -0
    outer loop
      vertex 30.2 -13 -10
      vertex 21.5 -13 2.88658e-15
      vertex 30.2 -13 10
    endloop
  endfacet
  facet normal 0 1 0
    outer loop
      vertex 21.5 -13 2.88658e-15
      vertex 30.2 -13 -10
      vertex 21.3858 -13 -0.574024
    endloop
  endfacet
  facet normal 0 1 0
    outer loop
      vertex 20.574 -13 -1.38582
      vertex 30.2 -13 -10
      vertex 20 -13 -1.5
    endloop
  endfacet
  facet normal 0 1 0
    outer loop
      vertex 21.0607 -13 -1.06066
      vertex 30.2 -13 -10
      vertex 20.574 -13 -1.38582
    endloop
  endfacet
  facet normal 0 1 0
    outer loop
      vertex 21.3858 -13 -0.574024
      vertex 30.2 -13 -10
      vertex 21.0607 -13 -1.06066
    endloop
  endfacet
  facet normal 0 1 -0
    outer loop
      vertex 19.426 -13 1.38582
      vertex 12.51 -13 10
      vertex 20 -13 1.5
    endloop
  endfacet
  facet normal 0 1 -0
    outer loop
      vertex 18.9393 -13 1.06066
      vertex 12.51 -13 10
      vertex 19.426 -13 1.38582
    endloop
  endfacet
  facet normal 0 1 -0
    outer loop
      vertex 18.6142 -13 0.574024
      vertex 12.51 -13 10
      vertex 18.9393 -13 1.06066
    endloop
  endfacet
  facet normal 0 1 -0
    outer loop
      vertex 18.5 -13 2.88658e-15
      vertex 12.51 -13 10
      vertex 18.6142 -13 0.574024
    endloop
  endfacet
  facet normal 0 1 0
    outer loop
      vertex 12.51 -13 -10
      vertex 18.5 -13 2.88658e-15
      vertex 18.6142 -13 -0.574024
    endloop
  endfacet
  facet normal 0 1 0
    outer loop
      vertex 12.51 -13 -10
      vertex 20 -13 -1.5
      vertex 30.2 -13 -10
    endloop
  endfacet
  facet normal 0 1 0
    outer loop
      vertex 20 -13 -1.5
      vertex 12.51 -13 -10
      vertex 19.426 -13 -1.38582
    endloop
  endfacet
  facet normal 0 1 0
    outer loop
      vertex 18.5 -13 2.88658e-15
      vertex 12.51 -13 -10
      vertex 12.51 -13 10
    endloop
  endfacet
  facet normal 0 1 0
    outer loop
      vertex 18.9393 -13 -1.06066
      vertex 12.51 -13 -10
      vertex 18.6142 -13 -0.574024
    endloop
  endfacet
  facet normal 0 1 0
    outer loop
      vertex 19.426 -13 -1.38582
      vertex 12.51 -13 -10
      vertex 18.9393 -13 -1.06066
    endloop
  endfacet
  facet normal 0 1 -0
    outer loop
      vertex 12.51 -13 -10
      vertex 10.3 -13 10
      vertex 12.51 -13 10
    endloop
  endfacet
  facet normal 0 1 0
    outer loop
      vertex 10.3 -13 10
      vertex 12.51 -13 -10
      vertex 10.3 -13 -10
    endloop
  endfacet
  facet normal 0 -1 0
    outer loop
      vertex 12.51 13 10
      vertex 20 13 1.5
      vertex 30.2 13 10
    endloop
  endfacet
  facet normal 0 -1 0
    outer loop
      vertex 12.51 13 10
      vertex 19.426 13 1.38582
      vertex 20 13 1.5
    endloop
  endfacet
  facet normal 0 -1 0
    outer loop
      vertex 12.51 13 10
      vertex 18.9393 13 1.06066
      vertex 19.426 13 1.38582
    endloop
  endfacet
  facet normal 0 -1 0
    outer loop
      vertex 12.51 13 10
      vertex 18.6142 13 0.574024
      vertex 18.9393 13 1.06066
    endloop
  endfacet
  facet normal 0 -1 0
    outer loop
      vertex 12.51 13 10
      vertex 18.5 13 -2.88658e-15
      vertex 18.6142 13 0.574024
    endloop
  endfacet
  facet normal 0 -1 0
    outer loop
      vertex 12.51 13 -10
      vertex 18.5 13 -2.88658e-15
      vertex 12.51 13 10
    endloop
  endfacet
  facet normal 0 -1 -0
    outer loop
      vertex 19.426 13 -1.38582
      vertex 12.51 13 -10
      vertex 20 13 -1.5
    endloop
  endfacet
  facet normal 0 -1 -0
    outer loop
      vertex 18.9393 13 -1.06066
      vertex 12.51 13 -10
      vertex 19.426 13 -1.38582
    endloop
  endfacet
  facet normal 0 -1 -0
    outer loop
      vertex 18.6142 13 -0.574024
      vertex 12.51 13 -10
      vertex 18.9393 13 -1.06066
    endloop
  endfacet
  facet normal 0 -1 -0
    outer loop
      vertex 18.5 13 -2.88658e-15
      vertex 12.51 13 -10
      vertex 18.6142 13 -0.574024
    endloop
  endfacet
  facet normal 0 -1 0
    outer loop
      vertex 20.574 13 1.38582
      vertex 30.2 13 10
      vertex 20 13 1.5
    endloop
  endfacet
  facet normal 0 -1 0
    outer loop
      vertex 21.0607 13 1.06066
      vertex 30.2 13 10
      vertex 20.574 13 1.38582
    endloop
  endfacet
  facet normal 0 -1 0
    outer loop
      vertex 21.3858 13 0.574024
      vertex 30.2 13 10
      vertex 21.0607 13 1.06066
    endloop
  endfacet
  facet normal 0 -1 0
    outer loop
      vertex 21.5 13 -2.88658e-15
      vertex 30.2 13 10
      vertex 21.3858 13 0.574024
    endloop
  endfacet
  facet normal 0 -1 0
    outer loop
      vertex 30.2 13 -10
      vertex 21.5 13 -2.88658e-15
      vertex 21.3858 13 -0.574024
    endloop
  endfacet
  facet normal 0 -1 0
    outer loop
      vertex 30.2 13 -10
      vertex 21.3858 13 -0.574024
      vertex 21.0607 13 -1.06066
    endloop
  endfacet
  facet normal 0 -1 0
    outer loop
      vertex 30.2 13 -10
      vertex 20 13 -1.5
      vertex 12.51 13 -10
    endloop
  endfacet
  facet normal 0 -1 0
    outer loop
      vertex 20 13 -1.5
      vertex 30.2 13 -10
      vertex 20.574 13 -1.38582
    endloop
  endfacet
  facet normal 0 -1 0
    outer loop
      vertex 21.5 13 -2.88658e-15
      vertex 30.2 13 -10
      vertex 30.2 13 10
    endloop
  endfacet
  facet normal 0 -1 0
    outer loop
      vertex 20.574 13 -1.38582
      vertex 30.2 13 -10
      vertex 21.0607 13 -1.06066
    endloop
  endfacet
  facet normal 0 -1 0
    outer loop
      vertex 10.3 13 -10
      vertex 12.51 13 10
      vertex 10.3 13 10
    endloop
  endfacet
  facet normal 0 -1 -0
    outer loop
      vertex 12.51 13 10
      vertex 10.3 13 -10
      vertex 12.51 13 -10
    endloop
  endfacet
  facet normal 1 -0 0
    outer loop
      vertex 30.2 13 10
      vertex 30.2 15 -10
      vertex 30.2 15 10
    endloop
  endfacet
  facet normal 1 0 0
    outer loop
      vertex 30.2 15 -10
      vertex 30.2 13 10
      vertex 30.2 13 -10
    endloop
  endfacet
  facet normal 0 1 0
    outer loop
      vertex 30.2 15 10
      vertex 20 15 1.5
      vertex 12.5 15 10
    endloop
  endfacet
  facet normal 0 1 0
    outer loop
      vertex 30.2 15 10
      vertex 20.574 15 1.38582
      vertex 20 15 1.5
    endloop
  endfacet
  facet normal 0 1 0
    outer loop
      vertex 30.2 15 10
      vertex 21.0607 15 1.06066
      vertex 20.574 15 1.38582
    endloop
  endfacet
  facet normal 0 1 0
    outer loop
      vertex 30.2 15 10
      vertex 21.3858 15 0.574024
      vertex 21.0607 15 1.06066
    endloop
  endfacet
  facet normal 0 1 0
    outer loop
      vertex 30.2 15 10
      vertex 21.5 15 -3.33067e-15
      vertex 21.3858 15 0.574024
    endloop
  endfacet
  facet normal 0 1 -0
    outer loop
      vertex 30.2 15 -10
      vertex 21.5 15 -3.33067e-15
      vertex 30.2 15 10
    endloop
  endfacet
  facet normal 0 1 0
    outer loop
      vertex 21.5 15 -3.33067e-15
      vertex 30.2 15 -10
      vertex 21.3858 15 -0.574024
    endloop
  endfacet
  facet normal 0 1 0
    outer loop
      vertex 20.574 15 -1.38582
      vertex 30.2 15 -10
      vertex 20 15 -1.5
    endloop
  endfacet
  facet normal 0 1 0
    outer loop
      vertex 21.0607 15 -1.06066
      vertex 30.2 15 -10
      vertex 20.574 15 -1.38582
    endloop
  endfacet
  facet normal 0 1 0
    outer loop
      vertex 21.3858 15 -0.574024
      vertex 30.2 15 -10
      vertex 21.0607 15 -1.06066
    endloop
  endfacet
  facet normal 0 1 -0
    outer loop
      vertex 19.426 15 1.38582
      vertex 12.5 15 10
      vertex 20 15 1.5
    endloop
  endfacet
  facet normal 0 1 -0
    outer loop
      vertex 18.9393 15 1.06066
      vertex 12.5 15 10
      vertex 19.426 15 1.38582
    endloop
  endfacet
  facet normal 0 1 -0
    outer loop
      vertex 18.6142 15 0.574024
      vertex 12.5 15 10
      vertex 18.9393 15 1.06066
    endloop
  endfacet
  facet normal 0 1 -0
    outer loop
      vertex 18.5 15 -3.33067e-15
      vertex 12.5 15 10
      vertex 18.6142 15 0.574024
    endloop
  endfacet
  facet normal 0 1 0
    outer loop
      vertex 12.5 15 -10
      vertex 18.5 15 -3.33067e-15
      vertex 18.6142 15 -0.574024
    endloop
  endfacet
  facet normal 0 1 0
    outer loop
      vertex 12.5 15 -10
      vertex 20 15 -1.5
      vertex 30.2 15 -10
    endloop
  endfacet
  facet normal 0 1 0
    outer loop
      vertex 20 15 -1.5
      vertex 12.5 15 -10
      vertex 19.426 15 -1.38582
    endloop
  endfacet
  facet normal 0 1 0
    outer loop
      vertex 18.5 15 -3.33067e-15
      vertex 12.5 15 -10
      vertex 12.5 15 10
    endloop
  endfacet
  facet normal 0 1 0
    outer loop
      vertex 18.9393 15 -1.06066
      vertex 12.5 15 -10
      vertex 18.6142 15 -0.574024
    endloop
  endfacet
  facet normal 0 1 0
    outer loop
      vertex 19.426 15 -1.38582
      vertex 12.5 15 -10
      vertex 18.9393 15 -1.06066
    endloop
  endfacet
  facet normal 1 -0 0
    outer loop
      vertex -10.3 -15.2 10
      vertex -10.3 15.2 -10
      vertex -10.3 15.2 10
    endloop
  endfacet
  facet normal 1 0 0
    outer loop
      vertex -10.3 15.2 -10
      vertex -10.3 -15.2 10
      vertex -10.3 -15.2 -10
    endloop
  endfacet
  facet normal 0 1 -0
    outer loop
      vertex 10.3 -15.2 -10
      vertex -10.3 -15.2 10
      vertex 10.3 -15.2 10
    endloop
  endfacet
  facet normal 0 1 0
    outer loop
      vertex -10.3 -15.2 10
      vertex 10.3 -15.2 -10
      vertex -10.3 -15.2 -10
    endloop
  endfacet
  facet normal -1 0 0
    outer loop
      vertex 10.3 -15.2 -10
      vertex 10.3 -13 10
      vertex 10.3 -13 -10
    endloop
  endfacet
  facet normal -1 -0 0
    outer loop
      vertex 10.3 -13 10
      vertex 10.3 -15.2 -10
      vertex 10.3 -15.2 10
    endloop
  endfacet
  facet normal -1 0 0
    outer loop
      vertex 10.3 13 -10
      vertex 10.3 15.2 10
      vertex 10.3 15.2 -10
    endloop
  endfacet
  facet normal -1 -0 0
    outer loop
      vertex 10.3 15.2 10
      vertex 10.3 13 -10
      vertex 10.3 13 10
    endloop
  endfacet
  facet normal 0 -1 0
    outer loop
      vertex -10.3 15.2 -10
      vertex 10.3 15.2 10
      vertex -10.3 15.2 10
    endloop
  endfacet
  facet normal 0 -1 -0
    outer loop
      vertex 10.3 15.2 10
      vertex -10.3 15.2 -10
      vertex 10.3 15.2 -10
    endloop
  endfacet
  facet normal -0.980785 -4.33191e-17 -0.195092
    outer loop
      vertex 21.5 13 -2.88658e-15
      vertex 21.3858 15 0.574024
      vertex 21.5 15 -3.33067e-15
    endloop
  endfacet
  facet normal -0.980785 -0 -0.195092
    outer loop
      vertex 21.3858 15 0.574024
      vertex 21.5 13 -2.88658e-15
      vertex 21.3858 13 0.574024
    endloop
  endfacet
  facet normal -0.980785 -4.33191e-17 -0.195092
    outer loop
      vertex 21.5 -15 3.33067e-15
      vertex 21.3858 -13 0.574024
      vertex 21.5 -13 2.88658e-15
    endloop
  endfacet
  facet normal -0.980785 -0 -0.195092
    outer loop
      vertex 21.3858 -13 0.574024
      vertex 21.5 -15 3.33067e-15
      vertex 21.3858 -15 0.574024
    endloop
  endfacet
  facet normal -0.195092 0 0.980785
    outer loop
      vertex 20 15 -1.5
      vertex 20.574 13 -1.38582
      vertex 20.574 15 -1.38582
    endloop
  endfacet
  facet normal -0.195092 0 0.980785
    outer loop
      vertex 20.574 13 -1.38582
      vertex 20 15 -1.5
      vertex 20 13 -1.5
    endloop
  endfacet
  facet normal -0.195092 0 0.980785
    outer loop
      vertex 20 -13 -1.5
      vertex 20.574 -15 -1.38582
      vertex 20.574 -13 -1.38582
    endloop
  endfacet
  facet normal -0.195092 0 0.980785
    outer loop
      vertex 20.574 -15 -1.38582
      vertex 20 -13 -1.5
      vertex 20 -15 -1.5
    endloop
  endfacet
  facet normal 0.195092 0 -0.980785
    outer loop
      vertex 19.426 13 1.38582
      vertex 20 15 1.5
      vertex 20 13 1.5
    endloop
  endfacet
  facet normal 0.195092 0 -0.980785
    outer loop
      vertex 20 15 1.5
      vertex 19.426 13 1.38582
      vertex 19.426 15 1.38582
    endloop
  endfacet
  facet normal 0.195092 0 -0.980785
    outer loop
      vertex 19.426 -15 1.38582
      vertex 20 -13 1.5
      vertex 20 -15 1.5
    endloop
  endfacet
  facet normal 0.195092 0 -0.980785
    outer loop
      vertex 20 -13 1.5
      vertex 19.426 -15 1.38582
      vertex 19.426 -13 1.38582
    endloop
  endfacet
  facet normal -0.55557 0 -0.83147
    outer loop
      vertex 20.574 13 1.38582
      vertex 21.0607 15 1.06066
      vertex 21.0607 13 1.06066
    endloop
  endfacet
  facet normal -0.55557 0 -0.83147
    outer loop
      vertex 21.0607 15 1.06066
      vertex 20.574 13 1.38582
      vertex 20.574 15 1.38582
    endloop
  endfacet
  facet normal -0.55557 0 -0.83147
    outer loop
      vertex 20.574 -15 1.38582
      vertex 21.0607 -13 1.06066
      vertex 21.0607 -15 1.06066
    endloop
  endfacet
  facet normal -0.55557 0 -0.83147
    outer loop
      vertex 21.0607 -13 1.06066
      vertex 20.574 -15 1.38582
      vertex 20.574 -13 1.38582
    endloop
  endfacet
  facet normal -0.83147 0 -0.55557
    outer loop
      vertex 21.3858 13 0.574024
      vertex 21.0607 15 1.06066
      vertex 21.3858 15 0.574024
    endloop
  endfacet
  facet normal -0.83147 -0 -0.55557
    outer loop
      vertex 21.0607 15 1.06066
      vertex 21.3858 13 0.574024
      vertex 21.0607 13 1.06066
    endloop
  endfacet
  facet normal -0.83147 0 -0.55557
    outer loop
      vertex 21.3858 -15 0.574024
      vertex 21.0607 -13 1.06066
      vertex 21.3858 -13 0.574024
    endloop
  endfacet
  facet normal -0.83147 -0 -0.55557
    outer loop
      vertex 21.0607 -13 1.06066
      vertex 21.3858 -15 0.574024
      vertex 21.0607 -15 1.06066
    endloop
  endfacet
  facet normal -0.195092 0 -0.980785
    outer loop
      vertex 20 13 1.5
      vertex 20.574 15 1.38582
      vertex 20.574 13 1.38582
    endloop
  endfacet
  facet normal -0.195092 0 -0.980785
    outer loop
      vertex 20.574 15 1.38582
      vertex 20 13 1.5
      vertex 20 15 1.5
    endloop
  endfacet
  facet normal -0.195092 0 -0.980785
    outer loop
      vertex 20 -15 1.5
      vertex 20.574 -13 1.38582
      vertex 20.574 -15 1.38582
    endloop
  endfacet
  facet normal -0.195092 0 -0.980785
    outer loop
      vertex 20.574 -13 1.38582
      vertex 20 -15 1.5
      vertex 20 -13 1.5
    endloop
  endfacet
  facet normal 0.831471 0 -0.555568
    outer loop
      vertex 18.9393 13 1.06066
      vertex 18.6142 15 0.574024
      vertex 18.9393 15 1.06066
    endloop
  endfacet
  facet normal 0.831471 0 -0.555568
    outer loop
      vertex 18.6142 15 0.574024
      vertex 18.9393 13 1.06066
      vertex 18.6142 13 0.574024
    endloop
  endfacet
  facet normal 0.831471 0 -0.555568
    outer loop
      vertex 18.9393 -15 1.06066
      vertex 18.6142 -13 0.574024
      vertex 18.9393 -13 1.06066
    endloop
  endfacet
  facet normal 0.831471 0 -0.555568
    outer loop
      vertex 18.6142 -13 0.574024
      vertex 18.9393 -15 1.06066
      vertex 18.6142 -15 0.574024
    endloop
  endfacet
  facet normal 0.980785 0 -0.195092
    outer loop
      vertex 18.6142 13 0.574024
      vertex 18.5 15 -3.33067e-15
      vertex 18.6142 15 0.574024
    endloop
  endfacet
  facet normal 0.980785 -4.33191e-17 -0.195092
    outer loop
      vertex 18.5 15 -3.33067e-15
      vertex 18.6142 13 0.574024
      vertex 18.5 13 -2.88658e-15
    endloop
  endfacet
  facet normal 0.980785 0 -0.195092
    outer loop
      vertex 18.6142 -15 0.574024
      vertex 18.5 -13 2.88658e-15
      vertex 18.6142 -13 0.574024
    endloop
  endfacet
  facet normal 0.980785 -4.33191e-17 -0.195092
    outer loop
      vertex 18.5 -13 2.88658e-15
      vertex 18.6142 -15 0.574024
      vertex 18.5 -15 3.33067e-15
    endloop
  endfacet
  facet normal 0.555569 0 -0.831471
    outer loop
      vertex 18.9393 13 1.06066
      vertex 19.426 15 1.38582
      vertex 19.426 13 1.38582
    endloop
  endfacet
  facet normal 0.555569 0 -0.831471
    outer loop
      vertex 19.426 15 1.38582
      vertex 18.9393 13 1.06066
      vertex 18.9393 15 1.06066
    endloop
  endfacet
  facet normal 0.555569 0 -0.831471
    outer loop
      vertex 18.9393 -15 1.06066
      vertex 19.426 -13 1.38582
      vertex 19.426 -15 1.38582
    endloop
  endfacet
  facet normal 0.555569 0 -0.831471
    outer loop
      vertex 19.426 -13 1.38582
      vertex 18.9393 -15 1.06066
      vertex 18.9393 -13 1.06066
    endloop
  endfacet
  facet normal -0.980785 0 0.195092
    outer loop
      vertex 21.3858 13 -0.574024
      vertex 21.5 15 -3.33067e-15
      vertex 21.3858 15 -0.574024
    endloop
  endfacet
  facet normal -0.980785 4.33191e-17 0.195092
    outer loop
      vertex 21.5 15 -3.33067e-15
      vertex 21.3858 13 -0.574024
      vertex 21.5 13 -2.88658e-15
    endloop
  endfacet
  facet normal -0.980785 0 0.195092
    outer loop
      vertex 21.3858 -15 -0.574024
      vertex 21.5 -13 2.88658e-15
      vertex 21.3858 -13 -0.574024
    endloop
  endfacet
  facet normal -0.980785 4.33191e-17 0.195092
    outer loop
      vertex 21.5 -13 2.88658e-15
      vertex 21.3858 -15 -0.574024
      vertex 21.5 -15 3.33067e-15
    endloop
  endfacet
  facet normal 0.831471 -0 0.555568
    outer loop
      vertex 18.6142 13 -0.574024
      vertex 18.9393 15 -1.06066
      vertex 18.6142 15 -0.574024
    endloop
  endfacet
  facet normal 0.831471 0 0.555568
    outer loop
      vertex 18.9393 15 -1.06066
      vertex 18.6142 13 -0.574024
      vertex 18.9393 13 -1.06066
    endloop
  endfacet
  facet normal 0.831471 -0 0.555568
    outer loop
      vertex 18.6142 -15 -0.574024
      vertex 18.9393 -13 -1.06066
      vertex 18.6142 -13 -0.574024
    endloop
  endfacet
  facet normal 0.831471 0 0.555568
    outer loop
      vertex 18.9393 -13 -1.06066
      vertex 18.6142 -15 -0.574024
      vertex 18.9393 -15 -1.06066
    endloop
  endfacet
  facet normal 0.980785 4.33191e-17 0.195092
    outer loop
      vertex 18.5 13 -2.88658e-15
      vertex 18.6142 15 -0.574024
      vertex 18.5 15 -3.33067e-15
    endloop
  endfacet
  facet normal 0.980785 0 0.195092
    outer loop
      vertex 18.6142 15 -0.574024
      vertex 18.5 13 -2.88658e-15
      vertex 18.6142 13 -0.574024
    endloop
  endfacet
  facet normal 0.980785 4.33191e-17 0.195092
    outer loop
      vertex 18.5 -15 3.33067e-15
      vertex 18.6142 -13 -0.574024
      vertex 18.5 -13 2.88658e-15
    endloop
  endfacet
  facet normal 0.980785 0 0.195092
    outer loop
      vertex 18.6142 -13 -0.574024
      vertex 18.5 -15 3.33067e-15
      vertex 18.6142 -15 -0.574024
    endloop
  endfacet
  facet normal -0.55557 0 0.83147
    outer loop
      vertex 20.574 15 -1.38582
      vertex 21.0607 13 -1.06066
      vertex 21.0607 15 -1.06066
    endloop
  endfacet
  facet normal -0.55557 0 0.83147
    outer loop
      vertex 21.0607 13 -1.06066
      vertex 20.574 15 -1.38582
      vertex 20.574 13 -1.38582
    endloop
  endfacet
  facet normal -0.55557 0 0.83147
    outer loop
      vertex 20.574 -13 -1.38582
      vertex 21.0607 -15 -1.06066
      vertex 21.0607 -13 -1.06066
    endloop
  endfacet
  facet normal -0.55557 0 0.83147
    outer loop
      vertex 21.0607 -15 -1.06066
      vertex 20.574 -13 -1.38582
      vertex 20.574 -15 -1.38582
    endloop
  endfacet
  facet normal 0.195092 0 0.980785
    outer loop
      vertex 19.426 15 -1.38582
      vertex 20 13 -1.5
      vertex 20 15 -1.5
    endloop
  endfacet
  facet normal 0.195092 0 0.980785
    outer loop
      vertex 20 13 -1.5
      vertex 19.426 15 -1.38582
      vertex 19.426 13 -1.38582
    endloop
  endfacet
  facet normal 0.195092 0 0.980785
    outer loop
      vertex 19.426 -13 -1.38582
      vertex 20 -15 -1.5
      vertex 20 -13 -1.5
    endloop
  endfacet
  facet normal 0.195092 0 0.980785
    outer loop
      vertex 20 -15 -1.5
      vertex 19.426 -13 -1.38582
      vertex 19.426 -15 -1.38582
    endloop
  endfacet
  facet normal 0.555569 0 0.831471
    outer loop
      vertex 18.9393 15 -1.06066
      vertex 19.426 13 -1.38582
      vertex 19.426 15 -1.38582
    endloop
  endfacet
  facet normal 0.555569 0 0.831471
    outer loop
      vertex 19.426 13 -1.38582
      vertex 18.9393 15 -1.06066
      vertex 18.9393 13 -1.06066
    endloop
  endfacet
  facet normal 0.555569 0 0.831471
    outer loop
      vertex 18.9393 -13 -1.06066
      vertex 19.426 -15 -1.38582
      vertex 19.426 -13 -1.38582
    endloop
  endfacet
  facet normal 0.555569 0 0.831471
    outer loop
      vertex 19.426 -15 -1.38582
      vertex 18.9393 -13 -1.06066
      vertex 18.9393 -15 -1.06066
    endloop
  endfacet
  facet normal -0.83147 0 0.55557
    outer loop
      vertex 21.0607 13 -1.06066
      vertex 21.3858 15 -0.574024
      vertex 21.0607 15 -1.06066
    endloop
  endfacet
  facet normal -0.83147 0 0.55557
    outer loop
      vertex 21.3858 15 -0.574024
      vertex 21.0607 13 -1.06066
      vertex 21.3858 13 -0.574024
    endloop
  endfacet
  facet normal -0.83147 0 0.55557
    outer loop
      vertex 21.0607 -15 -1.06066
      vertex 21.3858 -13 -0.574024
      vertex 21.0607 -13 -1.06066
    endloop
  endfacet
  facet normal -0.83147 0 0.55557
    outer loop
      vertex 21.3858 -13 -0.574024
      vertex 21.0607 -15 -1.06066
      vertex 21.3858 -15 -0.574024
    endloop
  endfacet
endsolid OpenSCAD_Model
