solid OpenSCAD_Model
  facet normal -0.980785 0.195092 -4.74235e-17
    outer loop
      vertex 48.7108 -0.574024 -12.85
      vertex 48.825 -2.40918e-15 -10.85
      vertex 48.825 -2.85327e-15 -12.85
    endloop
  endfacet
  facet normal -0.980785 0.195092 0
    outer loop
      vertex 48.825 -2.40918e-15 -10.85
      vertex 48.7108 -0.574024 -12.85
      vertex 48.7108 -0.574024 -10.85
    endloop
  endfacet
  facet normal -0.195092 -0.980785 1.16919e-07
    outer loop
      vertex 47.325 1.5 -12.85
      vertex 47.612 1.44291 -10.85
      vertex 47.325 1.5 -10.85
    endloop
  endfacet
  facet normal -0.19509 -0.980785 -1.04064e-07
    outer loop
      vertex 47.612 1.44291 -10.85
      vertex 47.325 1.5 -12.85
      vertex 47.7268 1.42007 -12.85
    endloop
  endfacet
  facet normal 0.195091 0.980785 -1.16919e-07
    outer loop
      vertex 47.1528 -1.46575 -12.85
      vertex 47.325 -1.5 -10.85
      vertex 47.325 -1.5 -12.85
    endloop
  endfacet
  facet normal 0.195089 0.980786 4.36143e-08
    outer loop
      vertex 47.325 -1.5 -10.85
      vertex 47.1528 -1.46575 -12.85
      vertex 47.038 -1.44291 -10.85
    endloop
  endfacet
  facet normal -0.831468 0.555572 0
    outer loop
      vertex 48.3857 -1.06066 -12.85
      vertex 48.7108 -0.574024 -10.85
      vertex 48.7108 -0.574024 -12.85
    endloop
  endfacet
  facet normal -0.831468 0.555572 0
    outer loop
      vertex 48.7108 -0.574024 -10.85
      vertex 48.3857 -1.06066 -12.85
      vertex 48.3857 -1.06066 -10.85
    endloop
  endfacet
  facet normal -0.555572 -0.831469 0
    outer loop
      vertex 47.899 1.38582 -12.85
      vertex 48.3857 1.06066 -10.85
      vertex 47.899 1.38582 -10.85
    endloop
  endfacet
  facet normal -0.555572 -0.831469 -0
    outer loop
      vertex 48.3857 1.06066 -10.85
      vertex 47.899 1.38582 -12.85
      vertex 48.3857 1.06066 -12.85
    endloop
  endfacet
  facet normal 0.195092 0.980785 2.04282e-07
    outer loop
      vertex 46.751 -1.38582 -12.85
      vertex 47.038 -1.44291 -10.85
      vertex 47.1528 -1.46575 -12.85
    endloop
  endfacet
  facet normal 0.195093 0.980785 0
    outer loop
      vertex 47.038 -1.44291 -10.85
      vertex 46.751 -1.38582 -12.85
      vertex 46.751 -1.38582 -10.85
    endloop
  endfacet
  facet normal 0.555569 0.831471 -0
    outer loop
      vertex 46.751 -1.38582 -12.85
      vertex 46.2643 -1.06066 -10.85
      vertex 46.751 -1.38582 -10.85
    endloop
  endfacet
  facet normal 0.555569 0.831471 0
    outer loop
      vertex 46.2643 -1.06066 -10.85
      vertex 46.751 -1.38582 -12.85
      vertex 46.2643 -1.06066 -12.85
    endloop
  endfacet
  facet normal 0.831468 -0.555572 0
    outer loop
      vertex 45.9392 0.574024 -10.85
      vertex 46.2643 1.06066 -12.85
      vertex 46.2643 1.06066 -10.85
    endloop
  endfacet
  facet normal 0.831468 -0.555572 0
    outer loop
      vertex 46.2643 1.06066 -12.85
      vertex 45.9392 0.574024 -10.85
      vertex 45.9392 0.574024 -12.85
    endloop
  endfacet
  facet normal 0.555569 -0.831471 0
    outer loop
      vertex 46.2643 1.06066 -12.85
      vertex 46.751 1.38582 -10.85
      vertex 46.2643 1.06066 -10.85
    endloop
  endfacet
  facet normal 0.555569 -0.831471 0
    outer loop
      vertex 46.751 1.38582 -10.85
      vertex 46.2643 1.06066 -12.85
      vertex 46.751 1.38582 -12.85
    endloop
  endfacet
  facet normal 0.195092 -0.980785 0
    outer loop
      vertex 46.9232 1.42007 -12.85
      vertex 46.751 1.38582 -10.85
      vertex 46.751 1.38582 -12.85
    endloop
  endfacet
  facet normal 0.195093 -0.980785 8.6114e-08
    outer loop
      vertex 46.751 1.38582 -10.85
      vertex 46.9232 1.42007 -12.85
      vertex 47.038 1.44291 -10.85
    endloop
  endfacet
  facet normal -0.195091 -0.980785 -1.37151e-07
    outer loop
      vertex 47.7268 1.42007 -12.85
      vertex 47.899 1.38582 -10.85
      vertex 47.612 1.44291 -10.85
    endloop
  endfacet
  facet normal -0.195092 -0.980785 -0
    outer loop
      vertex 47.899 1.38582 -10.85
      vertex 47.7268 1.42007 -12.85
      vertex 47.899 1.38582 -12.85
    endloop
  endfacet
  facet normal -0.195092 0.980785 -1.79648e-07
    outer loop
      vertex 47.4972 -1.46575 -12.85
      vertex 47.325 -1.5 -10.85
      vertex 47.612 -1.44291 -10.85
    endloop
  endfacet
  facet normal -0.195091 0.980785 -1.16919e-07
    outer loop
      vertex 47.325 -1.5 -10.85
      vertex 47.4972 -1.46575 -12.85
      vertex 47.325 -1.5 -12.85
    endloop
  endfacet
  facet normal 0.831468 0.555572 0
    outer loop
      vertex 46.2643 -1.06066 -10.85
      vertex 45.9392 -0.574024 -12.85
      vertex 45.9392 -0.574024 -10.85
    endloop
  endfacet
  facet normal 0.831468 0.555572 0
    outer loop
      vertex 45.9392 -0.574024 -12.85
      vertex 46.2643 -1.06066 -10.85
      vertex 46.2643 -1.06066 -12.85
    endloop
  endfacet
  facet normal 0.980786 -0.195086 0
    outer loop
      vertex 45.825 -2.40918e-15 -10.85
      vertex 45.9392 0.574024 -12.85
      vertex 45.9392 0.574024 -10.85
    endloop
  endfacet
  facet normal 0.980786 -0.195086 4.74236e-17
    outer loop
      vertex 45.9392 0.574024 -12.85
      vertex 45.825 -2.40918e-15 -10.85
      vertex 45.825 -2.85327e-15 -12.85
    endloop
  endfacet
  facet normal 0.19509 -0.980785 2.68041e-07
    outer loop
      vertex 47.325 1.5 -12.85
      vertex 47.038 1.44291 -10.85
      vertex 46.9232 1.42007 -12.85
    endloop
  endfacet
  facet normal 0.195089 -0.980786 1.16919e-07
    outer loop
      vertex 47.038 1.44291 -10.85
      vertex 47.325 1.5 -12.85
      vertex 47.325 1.5 -10.85
    endloop
  endfacet
  facet normal -0.831468 -0.555572 0
    outer loop
      vertex 48.7108 0.574024 -12.85
      vertex 48.3857 1.06066 -10.85
      vertex 48.3857 1.06066 -12.85
    endloop
  endfacet
  facet normal -0.831468 -0.555572 0
    outer loop
      vertex 48.3857 1.06066 -10.85
      vertex 48.7108 0.574024 -12.85
      vertex 48.7108 0.574024 -10.85
    endloop
  endfacet
  facet normal -0.980785 -0.195092 0
    outer loop
      vertex 48.7108 0.574024 -12.85
      vertex 48.825 -2.40918e-15 -10.85
      vertex 48.7108 0.574024 -10.85
    endloop
  endfacet
  facet normal -0.980785 -0.195092 4.33191e-17
    outer loop
      vertex 48.825 -2.40918e-15 -10.85
      vertex 48.7108 0.574024 -12.85
      vertex 48.825 -2.85327e-15 -12.85
    endloop
  endfacet
  facet normal -0.555572 0.831469 0
    outer loop
      vertex 48.3857 -1.06066 -12.85
      vertex 47.899 -1.38582 -10.85
      vertex 48.3857 -1.06066 -10.85
    endloop
  endfacet
  facet normal -0.555572 0.831469 0
    outer loop
      vertex 47.899 -1.38582 -10.85
      vertex 48.3857 -1.06066 -12.85
      vertex 47.899 -1.38582 -12.85
    endloop
  endfacet
  facet normal -0.195091 0.980785 0
    outer loop
      vertex 47.899 -1.38582 -12.85
      vertex 47.612 -1.44291 -10.85
      vertex 47.899 -1.38582 -10.85
    endloop
  endfacet
  facet normal -0.195092 0.980785 -1.67826e-07
    outer loop
      vertex 47.612 -1.44291 -10.85
      vertex 47.899 -1.38582 -12.85
      vertex 47.4972 -1.46575 -12.85
    endloop
  endfacet
  facet normal 0.980786 0.195086 -4.74236e-17
    outer loop
      vertex 45.9392 -0.574024 -10.85
      vertex 45.825 -2.85327e-15 -12.85
      vertex 45.825 -2.40918e-15 -10.85
    endloop
  endfacet
  facet normal 0.980786 0.195086 0
    outer loop
      vertex 45.825 -2.85327e-15 -12.85
      vertex 45.9392 -0.574024 -10.85
      vertex 45.9392 -0.574024 -12.85
    endloop
  endfacet
  facet normal -0.980786 0.195086 -4.74236e-17
    outer loop
      vertex -48.9392 -0.574024 -12.85
      vertex -48.825 -2.40918e-15 -10.85
      vertex -48.825 -2.85327e-15 -12.85
    endloop
  endfacet
  facet normal -0.980786 0.195086 0
    outer loop
      vertex -48.825 -2.40918e-15 -10.85
      vertex -48.9392 -0.574024 -12.85
      vertex -48.9392 -0.574024 -10.85
    endloop
  endfacet
  facet normal -0.195089 -0.980786 1.16919e-07
    outer loop
      vertex -50.325 1.5 -12.85
      vertex -50.038 1.44291 -10.85
      vertex -50.325 1.5 -10.85
    endloop
  endfacet
  facet normal -0.19509 -0.980785 2.68041e-07
    outer loop
      vertex -50.038 1.44291 -10.85
      vertex -50.325 1.5 -12.85
      vertex -49.9232 1.42007 -12.85
    endloop
  endfacet
  facet normal 0.195091 0.980785 -1.16919e-07
    outer loop
      vertex -50.4972 -1.46575 -12.85
      vertex -50.325 -1.5 -10.85
      vertex -50.325 -1.5 -12.85
    endloop
  endfacet
  facet normal 0.195092 0.980785 -1.79648e-07
    outer loop
      vertex -50.325 -1.5 -10.85
      vertex -50.4972 -1.46575 -12.85
      vertex -50.612 -1.44291 -10.85
    endloop
  endfacet
  facet normal -0.831468 0.555572 0
    outer loop
      vertex -49.2643 -1.06066 -12.85
      vertex -48.9392 -0.574024 -10.85
      vertex -48.9392 -0.574024 -12.85
    endloop
  endfacet
  facet normal -0.831468 0.555572 0
    outer loop
      vertex -48.9392 -0.574024 -10.85
      vertex -49.2643 -1.06066 -12.85
      vertex -49.2643 -1.06066 -10.85
    endloop
  endfacet
  facet normal -0.555569 -0.831471 0
    outer loop
      vertex -49.751 1.38582 -12.85
      vertex -49.2643 1.06066 -10.85
      vertex -49.751 1.38582 -10.85
    endloop
  endfacet
  facet normal -0.555569 -0.831471 -0
    outer loop
      vertex -49.2643 1.06066 -10.85
      vertex -49.751 1.38582 -12.85
      vertex -49.2643 1.06066 -12.85
    endloop
  endfacet
  facet normal 0.195092 0.980785 -1.67826e-07
    outer loop
      vertex -50.899 -1.38582 -12.85
      vertex -50.612 -1.44291 -10.85
      vertex -50.4972 -1.46575 -12.85
    endloop
  endfacet
  facet normal 0.195091 0.980785 0
    outer loop
      vertex -50.612 -1.44291 -10.85
      vertex -50.899 -1.38582 -12.85
      vertex -50.899 -1.38582 -10.85
    endloop
  endfacet
  facet normal 0.555572 0.831469 -0
    outer loop
      vertex -50.899 -1.38582 -12.85
      vertex -51.3857 -1.06066 -10.85
      vertex -50.899 -1.38582 -10.85
    endloop
  endfacet
  facet normal 0.555572 0.831469 0
    outer loop
      vertex -51.3857 -1.06066 -10.85
      vertex -50.899 -1.38582 -12.85
      vertex -51.3857 -1.06066 -12.85
    endloop
  endfacet
  facet normal 0.831468 -0.555572 0
    outer loop
      vertex -51.7108 0.574024 -10.85
      vertex -51.3857 1.06066 -12.85
      vertex -51.3857 1.06066 -10.85
    endloop
  endfacet
  facet normal 0.831468 -0.555572 0
    outer loop
      vertex -51.3857 1.06066 -12.85
      vertex -51.7108 0.574024 -10.85
      vertex -51.7108 0.574024 -12.85
    endloop
  endfacet
  facet normal 0.555572 -0.831469 0
    outer loop
      vertex -51.3857 1.06066 -12.85
      vertex -50.899 1.38582 -10.85
      vertex -51.3857 1.06066 -10.85
    endloop
  endfacet
  facet normal 0.555572 -0.831469 0
    outer loop
      vertex -50.899 1.38582 -10.85
      vertex -51.3857 1.06066 -12.85
      vertex -50.899 1.38582 -12.85
    endloop
  endfacet
  facet normal 0.195092 -0.980785 0
    outer loop
      vertex -50.7268 1.42007 -12.85
      vertex -50.899 1.38582 -10.85
      vertex -50.899 1.38582 -12.85
    endloop
  endfacet
  facet normal 0.195091 -0.980785 -1.37151e-07
    outer loop
      vertex -50.899 1.38582 -10.85
      vertex -50.7268 1.42007 -12.85
      vertex -50.612 1.44291 -10.85
    endloop
  endfacet
  facet normal -0.195093 -0.980785 8.6114e-08
    outer loop
      vertex -49.9232 1.42007 -12.85
      vertex -49.751 1.38582 -10.85
      vertex -50.038 1.44291 -10.85
    endloop
  endfacet
  facet normal -0.195092 -0.980785 -0
    outer loop
      vertex -49.751 1.38582 -10.85
      vertex -49.9232 1.42007 -12.85
      vertex -49.751 1.38582 -12.85
    endloop
  endfacet
  facet normal -0.195089 0.980786 4.36143e-08
    outer loop
      vertex -50.1528 -1.46575 -12.85
      vertex -50.325 -1.5 -10.85
      vertex -50.038 -1.44291 -10.85
    endloop
  endfacet
  facet normal -0.195091 0.980785 -1.16919e-07
    outer loop
      vertex -50.325 -1.5 -10.85
      vertex -50.1528 -1.46575 -12.85
      vertex -50.325 -1.5 -12.85
    endloop
  endfacet
  facet normal 0.831468 0.555572 0
    outer loop
      vertex -51.3857 -1.06066 -10.85
      vertex -51.7108 -0.574024 -12.85
      vertex -51.7108 -0.574024 -10.85
    endloop
  endfacet
  facet normal 0.831468 0.555572 0
    outer loop
      vertex -51.7108 -0.574024 -12.85
      vertex -51.3857 -1.06066 -10.85
      vertex -51.3857 -1.06066 -12.85
    endloop
  endfacet
  facet normal 0.980785 -0.195092 0
    outer loop
      vertex -51.825 -2.40918e-15 -10.85
      vertex -51.7108 0.574024 -12.85
      vertex -51.7108 0.574024 -10.85
    endloop
  endfacet
  facet normal 0.980785 -0.195092 4.74235e-17
    outer loop
      vertex -51.7108 0.574024 -12.85
      vertex -51.825 -2.40918e-15 -10.85
      vertex -51.825 -2.85327e-15 -12.85
    endloop
  endfacet
  facet normal 0.19509 -0.980785 -1.04064e-07
    outer loop
      vertex -50.325 1.5 -12.85
      vertex -50.612 1.44291 -10.85
      vertex -50.7268 1.42007 -12.85
    endloop
  endfacet
  facet normal 0.195092 -0.980785 1.16919e-07
    outer loop
      vertex -50.612 1.44291 -10.85
      vertex -50.325 1.5 -12.85
      vertex -50.325 1.5 -10.85
    endloop
  endfacet
  facet normal -0.831468 -0.555572 0
    outer loop
      vertex -48.9392 0.574024 -12.85
      vertex -49.2643 1.06066 -10.85
      vertex -49.2643 1.06066 -12.85
    endloop
  endfacet
  facet normal -0.831468 -0.555572 0
    outer loop
      vertex -49.2643 1.06066 -10.85
      vertex -48.9392 0.574024 -12.85
      vertex -48.9392 0.574024 -10.85
    endloop
  endfacet
  facet normal -0.980786 -0.195086 0
    outer loop
      vertex -48.9392 0.574024 -12.85
      vertex -48.825 -2.40918e-15 -10.85
      vertex -48.9392 0.574024 -10.85
    endloop
  endfacet
  facet normal -0.980786 -0.195086 4.33177e-17
    outer loop
      vertex -48.825 -2.40918e-15 -10.85
      vertex -48.9392 0.574024 -12.85
      vertex -48.825 -2.85327e-15 -12.85
    endloop
  endfacet
  facet normal -0.555569 0.831471 0
    outer loop
      vertex -49.2643 -1.06066 -12.85
      vertex -49.751 -1.38582 -10.85
      vertex -49.2643 -1.06066 -10.85
    endloop
  endfacet
  facet normal -0.555569 0.831471 0
    outer loop
      vertex -49.751 -1.38582 -10.85
      vertex -49.2643 -1.06066 -12.85
      vertex -49.751 -1.38582 -12.85
    endloop
  endfacet
  facet normal -0.195093 0.980785 0
    outer loop
      vertex -49.751 -1.38582 -12.85
      vertex -50.038 -1.44291 -10.85
      vertex -49.751 -1.38582 -10.85
    endloop
  endfacet
  facet normal -0.195092 0.980785 2.04282e-07
    outer loop
      vertex -50.038 -1.44291 -10.85
      vertex -49.751 -1.38582 -12.85
      vertex -50.1528 -1.46575 -12.85
    endloop
  endfacet
  facet normal 0.980785 0.195092 -4.74235e-17
    outer loop
      vertex -51.7108 -0.574024 -10.85
      vertex -51.825 -2.85327e-15 -12.85
      vertex -51.825 -2.40918e-15 -10.85
    endloop
  endfacet
  facet normal 0.980785 0.195092 0
    outer loop
      vertex -51.825 -2.85327e-15 -12.85
      vertex -51.7108 -0.574024 -10.85
      vertex -51.7108 -0.574024 -12.85
    endloop
  endfacet
  facet normal -1 0 0
    outer loop
      vertex -55.75 -5 -12.85
      vertex -55.75 5 -10.85
      vertex -55.75 5 -12.85
    endloop
  endfacet
  facet normal -1 -0 0
    outer loop
      vertex -55.75 5 -10.85
      vertex -55.75 -5 -12.85
      vertex -55.75 -5 -10.85
    endloop
  endfacet
  facet normal 0 -1 0
    outer loop
      vertex -55.75 -5 -12.85
      vertex 52.75 -5 -10.85
      vertex -55.75 -5 -10.85
    endloop
  endfacet
  facet normal 0 -1 -0
    outer loop
      vertex 52.75 -5 -10.85
      vertex -55.75 -5 -12.85
      vertex 52.75 -5 -12.85
    endloop
  endfacet
  facet normal 1 -0 0
    outer loop
      vertex 52.75 -5 -10.85
      vertex 52.75 5 -12.85
      vertex 52.75 5 -10.85
    endloop
  endfacet
  facet normal 1 0 0
    outer loop
      vertex 52.75 5 -12.85
      vertex 52.75 -5 -10.85
      vertex 52.75 -5 -12.85
    endloop
  endfacet
  facet normal 0 1 -0
    outer loop
      vertex 52.75 5 -12.85
      vertex -55.75 5 -10.85
      vertex 52.75 5 -10.85
    endloop
  endfacet
  facet normal 0 1 0
    outer loop
      vertex -55.75 5 -10.85
      vertex 52.75 5 -12.85
      vertex -55.75 5 -12.85
    endloop
  endfacet
  facet normal 0 0 -1
    outer loop
      vertex 52.75 -5 -12.85
      vertex 48.825 -2.85327e-15 -12.85
      vertex 52.75 5 -12.85
    endloop
  endfacet
  facet normal 0 0 -1
    outer loop
      vertex 52.75 -5 -12.85
      vertex 48.7108 -0.574024 -12.85
      vertex 48.825 -2.85327e-15 -12.85
    endloop
  endfacet
  facet normal 0 0 -1
    outer loop
      vertex 52.75 -5 -12.85
      vertex 48.3857 -1.06066 -12.85
      vertex 48.7108 -0.574024 -12.85
    endloop
  endfacet
  facet normal 0 0 -1
    outer loop
      vertex 52.75 -5 -12.85
      vertex 47.899 -1.38582 -12.85
      vertex 48.3857 -1.06066 -12.85
    endloop
  endfacet
  facet normal 0 0 -1
    outer loop
      vertex 52.75 -5 -12.85
      vertex 47.4972 -1.46575 -12.85
      vertex 47.899 -1.38582 -12.85
    endloop
  endfacet
  facet normal 0 0 -1
    outer loop
      vertex 52.75 -5 -12.85
      vertex 47.325 -1.5 -12.85
      vertex 47.4972 -1.46575 -12.85
    endloop
  endfacet
  facet normal 0 0 -1
    outer loop
      vertex 52.75 -5 -12.85
      vertex 47.1528 -1.46575 -12.85
      vertex 47.325 -1.5 -12.85
    endloop
  endfacet
  facet normal 0 0 -1
    outer loop
      vertex 52.75 -5 -12.85
      vertex 46.751 -1.38582 -12.85
      vertex 47.1528 -1.46575 -12.85
    endloop
  endfacet
  facet normal 0 0 -1
    outer loop
      vertex 45.9392 -0.574024 -12.85
      vertex -48.825 -2.85327e-15 -12.85
      vertex 45.825 -2.85327e-15 -12.85
    endloop
  endfacet
  facet normal 0 0 -1
    outer loop
      vertex -48.9392 -0.574024 -12.85
      vertex 45.9392 -0.574024 -12.85
      vertex 46.2643 -1.06066 -12.85
    endloop
  endfacet
  facet normal 0 0 -1
    outer loop
      vertex -49.2643 -1.06066 -12.85
      vertex 46.2643 -1.06066 -12.85
      vertex 46.751 -1.38582 -12.85
    endloop
  endfacet
  facet normal 0 0 -1
    outer loop
      vertex -49.751 -1.38582 -12.85
      vertex 46.751 -1.38582 -12.85
      vertex 52.75 -5 -12.85
    endloop
  endfacet
  facet normal 0 0 -1
    outer loop
      vertex 45.9392 -0.574024 -12.85
      vertex -48.9392 -0.574024 -12.85
      vertex -48.825 -2.85327e-15 -12.85
    endloop
  endfacet
  facet normal 0 0 -1
    outer loop
      vertex 46.2643 -1.06066 -12.85
      vertex -49.2643 -1.06066 -12.85
      vertex -48.9392 -0.574024 -12.85
    endloop
  endfacet
  facet normal 0 0 -1
    outer loop
      vertex 46.751 -1.38582 -12.85
      vertex -49.751 -1.38582 -12.85
      vertex -49.2643 -1.06066 -12.85
    endloop
  endfacet
  facet normal 0 0 -1
    outer loop
      vertex -55.75 -5 -12.85
      vertex -49.751 -1.38582 -12.85
      vertex 52.75 -5 -12.85
    endloop
  endfacet
  facet normal 0 0 -1
    outer loop
      vertex -49.751 -1.38582 -12.85
      vertex -55.75 -5 -12.85
      vertex -50.1528 -1.46575 -12.85
    endloop
  endfacet
  facet normal -0 0 -1
    outer loop
      vertex -51.7108 -0.574024 -12.85
      vertex -55.75 -5 -12.85
      vertex -51.825 -2.85327e-15 -12.85
    endloop
  endfacet
  facet normal -0 0 -1
    outer loop
      vertex -51.3857 -1.06066 -12.85
      vertex -55.75 -5 -12.85
      vertex -51.7108 -0.574024 -12.85
    endloop
  endfacet
  facet normal -0 0 -1
    outer loop
      vertex -50.899 -1.38582 -12.85
      vertex -55.75 -5 -12.85
      vertex -51.3857 -1.06066 -12.85
    endloop
  endfacet
  facet normal -0 0 -1
    outer loop
      vertex -50.4972 -1.46575 -12.85
      vertex -55.75 -5 -12.85
      vertex -50.899 -1.38582 -12.85
    endloop
  endfacet
  facet normal -0 0 -1
    outer loop
      vertex -50.325 -1.5 -12.85
      vertex -55.75 -5 -12.85
      vertex -50.4972 -1.46575 -12.85
    endloop
  endfacet
  facet normal 0 0 -1
    outer loop
      vertex -50.1528 -1.46575 -12.85
      vertex -55.75 -5 -12.85
      vertex -50.325 -1.5 -12.85
    endloop
  endfacet
  facet normal 0 0 -1
    outer loop
      vertex 48.7108 0.574024 -12.85
      vertex 52.75 5 -12.85
      vertex 48.825 -2.85327e-15 -12.85
    endloop
  endfacet
  facet normal 0 0 -1
    outer loop
      vertex 48.3857 1.06066 -12.85
      vertex 52.75 5 -12.85
      vertex 48.7108 0.574024 -12.85
    endloop
  endfacet
  facet normal 0 0 -1
    outer loop
      vertex 47.899 1.38582 -12.85
      vertex 52.75 5 -12.85
      vertex 48.3857 1.06066 -12.85
    endloop
  endfacet
  facet normal 0 0 -1
    outer loop
      vertex 47.7268 1.42007 -12.85
      vertex 52.75 5 -12.85
      vertex 47.899 1.38582 -12.85
    endloop
  endfacet
  facet normal 0 0 -1
    outer loop
      vertex 47.325 1.5 -12.85
      vertex 52.75 5 -12.85
      vertex 47.7268 1.42007 -12.85
    endloop
  endfacet
  facet normal 0 0 -1
    outer loop
      vertex 46.9232 1.42007 -12.85
      vertex 52.75 5 -12.85
      vertex 47.325 1.5 -12.85
    endloop
  endfacet
  facet normal 0 0 -1
    outer loop
      vertex 46.751 1.38582 -12.85
      vertex 52.75 5 -12.85
      vertex 46.9232 1.42007 -12.85
    endloop
  endfacet
  facet normal 0 0 -1
    outer loop
      vertex -48.825 -2.85327e-15 -12.85
      vertex 45.9392 0.574024 -12.85
      vertex 45.825 -2.85327e-15 -12.85
    endloop
  endfacet
  facet normal 0 0 -1
    outer loop
      vertex -48.9392 0.574024 -12.85
      vertex 45.9392 0.574024 -12.85
      vertex -48.825 -2.85327e-15 -12.85
    endloop
  endfacet
  facet normal 0 0 -1
    outer loop
      vertex 45.9392 0.574024 -12.85
      vertex -48.9392 0.574024 -12.85
      vertex 46.2643 1.06066 -12.85
    endloop
  endfacet
  facet normal 0 0 -1
    outer loop
      vertex -49.2643 1.06066 -12.85
      vertex 46.2643 1.06066 -12.85
      vertex -48.9392 0.574024 -12.85
    endloop
  endfacet
  facet normal 0 0 -1
    outer loop
      vertex 46.2643 1.06066 -12.85
      vertex -49.2643 1.06066 -12.85
      vertex 46.751 1.38582 -12.85
    endloop
  endfacet
  facet normal 0 0 -1
    outer loop
      vertex -49.751 1.38582 -12.85
      vertex 46.751 1.38582 -12.85
      vertex -49.2643 1.06066 -12.85
    endloop
  endfacet
  facet normal 0 0 -1
    outer loop
      vertex 46.751 1.38582 -12.85
      vertex -49.751 1.38582 -12.85
      vertex 52.75 5 -12.85
    endloop
  endfacet
  facet normal 0 0 -1
    outer loop
      vertex -55.75 5 -12.85
      vertex -49.751 1.38582 -12.85
      vertex -49.9232 1.42007 -12.85
    endloop
  endfacet
  facet normal 0 0 -1
    outer loop
      vertex -55.75 5 -12.85
      vertex -49.9232 1.42007 -12.85
      vertex -50.325 1.5 -12.85
    endloop
  endfacet
  facet normal 0 0 -1
    outer loop
      vertex -55.75 5 -12.85
      vertex -51.825 -2.85327e-15 -12.85
      vertex -55.75 -5 -12.85
    endloop
  endfacet
  facet normal 0 0 -1
    outer loop
      vertex -51.825 -2.85327e-15 -12.85
      vertex -55.75 5 -12.85
      vertex -51.7108 0.574024 -12.85
    endloop
  endfacet
  facet normal 0 0 -1
    outer loop
      vertex -49.751 1.38582 -12.85
      vertex -55.75 5 -12.85
      vertex 52.75 5 -12.85
    endloop
  endfacet
  facet normal 0 0 -1
    outer loop
      vertex -50.7268 1.42007 -12.85
      vertex -55.75 5 -12.85
      vertex -50.325 1.5 -12.85
    endloop
  endfacet
  facet normal 0 0 -1
    outer loop
      vertex -50.899 1.38582 -12.85
      vertex -55.75 5 -12.85
      vertex -50.7268 1.42007 -12.85
    endloop
  endfacet
  facet normal 0 0 -1
    outer loop
      vertex -51.3857 1.06066 -12.85
      vertex -55.75 5 -12.85
      vertex -50.899 1.38582 -12.85
    endloop
  endfacet
  facet normal 0 0 -1
    outer loop
      vertex -51.7108 0.574024 -12.85
      vertex -55.75 5 -12.85
      vertex -51.3857 1.06066 -12.85
    endloop
  endfacet
  facet normal 0 0 1
    outer loop
      vertex 52.75 5 -10.85
      vertex 48.825 -2.40918e-15 -10.85
      vertex 52.75 -5 -10.85
    endloop
  endfacet
  facet normal 0 0 1
    outer loop
      vertex 52.75 5 -10.85
      vertex 48.7108 0.574024 -10.85
      vertex 48.825 -2.40918e-15 -10.85
    endloop
  endfacet
  facet normal 0 0 1
    outer loop
      vertex 52.75 5 -10.85
      vertex 48.3857 1.06066 -10.85
      vertex 48.7108 0.574024 -10.85
    endloop
  endfacet
  facet normal 0 0 1
    outer loop
      vertex 52.75 5 -10.85
      vertex 47.899 1.38582 -10.85
      vertex 48.3857 1.06066 -10.85
    endloop
  endfacet
  facet normal 0 0 1
    outer loop
      vertex 52.75 5 -10.85
      vertex 47.612 1.44291 -10.85
      vertex 47.899 1.38582 -10.85
    endloop
  endfacet
  facet normal 0 0 1
    outer loop
      vertex 52.75 5 -10.85
      vertex 47.325 1.5 -10.85
      vertex 47.612 1.44291 -10.85
    endloop
  endfacet
  facet normal 0 0 1
    outer loop
      vertex 52.75 5 -10.85
      vertex 47.038 1.44291 -10.85
      vertex 47.325 1.5 -10.85
    endloop
  endfacet
  facet normal 0 0 1
    outer loop
      vertex 52.75 5 -10.85
      vertex 46.751 1.38582 -10.85
      vertex 47.038 1.44291 -10.85
    endloop
  endfacet
  facet normal 0 0 1
    outer loop
      vertex 45.9392 0.574024 -10.85
      vertex -48.825 -2.40918e-15 -10.85
      vertex 45.825 -2.40918e-15 -10.85
    endloop
  endfacet
  facet normal 0 0 1
    outer loop
      vertex -48.9392 0.574024 -10.85
      vertex 45.9392 0.574024 -10.85
      vertex 46.2643 1.06066 -10.85
    endloop
  endfacet
  facet normal 0 0 1
    outer loop
      vertex -49.2643 1.06066 -10.85
      vertex 46.2643 1.06066 -10.85
      vertex 46.751 1.38582 -10.85
    endloop
  endfacet
  facet normal 0 0 1
    outer loop
      vertex -49.751 1.38582 -10.85
      vertex 46.751 1.38582 -10.85
      vertex 52.75 5 -10.85
    endloop
  endfacet
  facet normal 0 0 1
    outer loop
      vertex 45.9392 0.574024 -10.85
      vertex -48.9392 0.574024 -10.85
      vertex -48.825 -2.40918e-15 -10.85
    endloop
  endfacet
  facet normal 0 0 1
    outer loop
      vertex 46.2643 1.06066 -10.85
      vertex -49.2643 1.06066 -10.85
      vertex -48.9392 0.574024 -10.85
    endloop
  endfacet
  facet normal 0 0 1
    outer loop
      vertex 46.751 1.38582 -10.85
      vertex -49.751 1.38582 -10.85
      vertex -49.2643 1.06066 -10.85
    endloop
  endfacet
  facet normal -0 0 1
    outer loop
      vertex -55.75 5 -10.85
      vertex -49.751 1.38582 -10.85
      vertex 52.75 5 -10.85
    endloop
  endfacet
  facet normal 0 0 1
    outer loop
      vertex -49.751 1.38582 -10.85
      vertex -55.75 5 -10.85
      vertex -50.038 1.44291 -10.85
    endloop
  endfacet
  facet normal 0 0 1
    outer loop
      vertex -55.75 5 -10.85
      vertex -50.612 1.44291 -10.85
      vertex -50.325 1.5 -10.85
    endloop
  endfacet
  facet normal 0 0 1
    outer loop
      vertex -51.7108 0.574024 -10.85
      vertex -55.75 5 -10.85
      vertex -51.825 -2.40918e-15 -10.85
    endloop
  endfacet
  facet normal 0 0 1
    outer loop
      vertex -51.3857 1.06066 -10.85
      vertex -55.75 5 -10.85
      vertex -51.7108 0.574024 -10.85
    endloop
  endfacet
  facet normal 0 0 1
    outer loop
      vertex -50.899 1.38582 -10.85
      vertex -55.75 5 -10.85
      vertex -51.3857 1.06066 -10.85
    endloop
  endfacet
  facet normal 0 0 1
    outer loop
      vertex -50.612 1.44291 -10.85
      vertex -55.75 5 -10.85
      vertex -50.899 1.38582 -10.85
    endloop
  endfacet
  facet normal 0 0 1
    outer loop
      vertex -50.038 1.44291 -10.85
      vertex -55.75 5 -10.85
      vertex -50.325 1.5 -10.85
    endloop
  endfacet
  facet normal -0 0 1
    outer loop
      vertex 48.7108 -0.574024 -10.85
      vertex 52.75 -5 -10.85
      vertex 48.825 -2.40918e-15 -10.85
    endloop
  endfacet
  facet normal -0 0 1
    outer loop
      vertex 48.3857 -1.06066 -10.85
      vertex 52.75 -5 -10.85
      vertex 48.7108 -0.574024 -10.85
    endloop
  endfacet
  facet normal -0 0 1
    outer loop
      vertex 47.899 -1.38582 -10.85
      vertex 52.75 -5 -10.85
      vertex 48.3857 -1.06066 -10.85
    endloop
  endfacet
  facet normal -0 0 1
    outer loop
      vertex 47.612 -1.44291 -10.85
      vertex 52.75 -5 -10.85
      vertex 47.899 -1.38582 -10.85
    endloop
  endfacet
  facet normal -0 0 1
    outer loop
      vertex 47.325 -1.5 -10.85
      vertex 52.75 -5 -10.85
      vertex 47.612 -1.44291 -10.85
    endloop
  endfacet
  facet normal 0 0 1
    outer loop
      vertex 47.038 -1.44291 -10.85
      vertex 52.75 -5 -10.85
      vertex 47.325 -1.5 -10.85
    endloop
  endfacet
  facet normal 0 0 1
    outer loop
      vertex 46.751 -1.38582 -10.85
      vertex 52.75 -5 -10.85
      vertex 47.038 -1.44291 -10.85
    endloop
  endfacet
  facet normal -0 0 1
    outer loop
      vertex -48.825 -2.40918e-15 -10.85
      vertex 45.9392 -0.574024 -10.85
      vertex 45.825 -2.40918e-15 -10.85
    endloop
  endfacet
  facet normal 0 0 1
    outer loop
      vertex -48.9392 -0.574024 -10.85
      vertex 45.9392 -0.574024 -10.85
      vertex -48.825 -2.40918e-15 -10.85
    endloop
  endfacet
  facet normal 0 0 1
    outer loop
      vertex 45.9392 -0.574024 -10.85
      vertex -48.9392 -0.574024 -10.85
      vertex 46.2643 -1.06066 -10.85
    endloop
  endfacet
  facet normal 0 0 1
    outer loop
      vertex -49.2643 -1.06066 -10.85
      vertex 46.2643 -1.06066 -10.85
      vertex -48.9392 -0.574024 -10.85
    endloop
  endfacet
  facet normal 0 0 1
    outer loop
      vertex 46.2643 -1.06066 -10.85
      vertex -49.2643 -1.06066 -10.85
      vertex 46.751 -1.38582 -10.85
    endloop
  endfacet
  facet normal 0 0 1
    outer loop
      vertex -49.751 -1.38582 -10.85
      vertex 46.751 -1.38582 -10.85
      vertex -49.2643 -1.06066 -10.85
    endloop
  endfacet
  facet normal 0 0 1
    outer loop
      vertex 46.751 -1.38582 -10.85
      vertex -49.751 -1.38582 -10.85
      vertex 52.75 -5 -10.85
    endloop
  endfacet
  facet normal 0 0 1
    outer loop
      vertex -55.75 -5 -10.85
      vertex -49.751 -1.38582 -10.85
      vertex -50.038 -1.44291 -10.85
    endloop
  endfacet
  facet normal 0 0 1
    outer loop
      vertex -55.75 -5 -10.85
      vertex -50.038 -1.44291 -10.85
      vertex -50.325 -1.5 -10.85
    endloop
  endfacet
  facet normal 0 0 1
    outer loop
      vertex -55.75 -5 -10.85
      vertex -50.612 -1.44291 -10.85
      vertex -50.899 -1.38582 -10.85
    endloop
  endfacet
  facet normal 0 0 1
    outer loop
      vertex -55.75 -5 -10.85
      vertex -51.825 -2.40918e-15 -10.85
      vertex -55.75 5 -10.85
    endloop
  endfacet
  facet normal 0 0 1
    outer loop
      vertex -51.825 -2.40918e-15 -10.85
      vertex -55.75 -5 -10.85
      vertex -51.7108 -0.574024 -10.85
    endloop
  endfacet
  facet normal 0 0 1
    outer loop
      vertex -49.751 -1.38582 -10.85
      vertex -55.75 -5 -10.85
      vertex 52.75 -5 -10.85
    endloop
  endfacet
  facet normal 0 0 1
    outer loop
      vertex -50.612 -1.44291 -10.85
      vertex -55.75 -5 -10.85
      vertex -50.325 -1.5 -10.85
    endloop
  endfacet
  facet normal 0 0 1
    outer loop
      vertex -51.3857 -1.06066 -10.85
      vertex -55.75 -5 -10.85
      vertex -50.899 -1.38582 -10.85
    endloop
  endfacet
  facet normal 0 0 1
    outer loop
      vertex -51.7108 -0.574024 -10.85
      vertex -55.75 -5 -10.85
      vertex -51.3857 -1.06066 -10.85
    endloop
  endfacet
endsolid OpenSCAD_Model
