solid ascii
  facet normal 7.431227e-001 -6.691551e-001 0.000000e+000
    outer loop
      vertex   -2.378017e+001 3.997101e+002 -1.660822e-013
      vertex   -2.348477e+001 4.000382e+002 -1.182560e-013
      vertex   -2.378017e+001 3.997101e+002 1.500000e+000
    endloop
  endfacet
  facet normal 7.431227e-001 -6.691551e-001 -1.760068e-015
    outer loop
      vertex   -2.378017e+001 3.997101e+002 1.500000e+000
      vertex   -2.348477e+001 4.000382e+002 -1.182560e-013
      vertex   -2.348477e+001 4.000382e+002 1.500000e+000
    endloop
  endfacet
  facet normal 7.125015e-001 -7.016706e-001 -1.687543e-015
    outer loop
      vertex   -2.348477e+001 4.000382e+002 1.500000e+000
      vertex   -2.348477e+001 4.000382e+002 -1.182560e-013
      vertex   -2.317501e+001 4.003527e+002 -1.300617e-013
    endloop
  endfacet
  facet normal 6.804589e-001 -7.327863e-001 0.000000e+000
    outer loop
      vertex   -2.317501e+001 4.003527e+002 1.500000e+000
      vertex   -2.317501e+001 4.003527e+002 -1.300617e-013
      vertex   -2.285152e+001 4.006531e+002 -1.409213e-013
    endloop
  endfacet
  facet normal 6.470588e-001 -7.624401e-001 0.000000e+000
    outer loop
      vertex   -2.285152e+001 4.006531e+002 1.500000e+000
      vertex   -2.285152e+001 4.006531e+002 -1.409213e-013
      vertex   -2.251493e+001 4.009387e+002 -1.508130e-013
    endloop
  endfacet
  facet normal 6.123679e-001 -7.905730e-001 0.000000e+000
    outer loop
      vertex   -2.251493e+001 4.009387e+002 1.500000e+000
      vertex   -2.251493e+001 4.009387e+002 -1.508130e-013
      vertex   -2.216593e+001 4.012091e+002 -1.597173e-013
    endloop
  endfacet
  facet normal 5.764553e-001 -8.171287e-001 0.000000e+000
    outer loop
      vertex   -2.216593e+001 4.012091e+002 1.500000e+000
      vertex   -2.216593e+001 4.012091e+002 -1.597173e-013
      vertex   -2.180520e+001 4.014635e+002 -1.676163e-013
    endloop
  endfacet
  facet normal 5.393928e-001 -8.420543e-001 0.000000e+000
    outer loop
      vertex   -2.180520e+001 4.014635e+002 1.500000e+000
      vertex   -2.180520e+001 4.014635e+002 -1.676163e-013
      vertex   -2.143347e+001 4.017017e+002 -1.744942e-013
    endloop
  endfacet
  facet normal 5.012543e-001 -8.653000e-001 0.000000e+000
    outer loop
      vertex   -2.143347e+001 4.017017e+002 1.500000e+000
      vertex   -2.143347e+001 4.017017e+002 -1.744942e-013
      vertex   -2.105148e+001 4.019229e+002 -1.803374e-013
    endloop
  endfacet
  facet normal 4.621158e-001 -8.868196e-001 0.000000e+000
    outer loop
      vertex   -2.105148e+001 4.019229e+002 1.500000e+000
      vertex   -2.105148e+001 4.019229e+002 -1.803374e-013
      vertex   -2.065999e+001 4.021269e+002 -1.851342e-013
    endloop
  endfacet
  facet normal 4.220554e-001 -9.065701e-001 0.000000e+000
    outer loop
      vertex   -2.065999e+001 4.021269e+002 1.500000e+000
      vertex   -2.065999e+001 4.021269e+002 -1.851342e-013
      vertex   -2.025978e+001 4.023133e+002 -1.888749e-013
    endloop
  endfacet
  facet normal 3.811530e-001 -9.245120e-001 0.000000e+000
    outer loop
      vertex   -2.025978e+001 4.023133e+002 1.500000e+000
      vertex   -2.025978e+001 4.023133e+002 -1.888749e-013
      vertex   -1.985165e+001 4.024815e+002 -1.915522e-013
    endloop
  endfacet
  facet normal 3.394903e-001 -9.406096e-001 0.000000e+000
    outer loop
      vertex   -1.985165e+001 4.024815e+002 1.500000e+000
      vertex   -1.985165e+001 4.024815e+002 -1.915522e-013
      vertex   -1.943641e+001 4.026314e+002 -1.931608e-013
    endloop
  endfacet
  facet normal 2.971503e-001 -9.548307e-001 0.000000e+000
    outer loop
      vertex   -1.943641e+001 4.026314e+002 1.500000e+000
      vertex   -1.943641e+001 4.026314e+002 -1.931608e-013
      vertex   -1.901490e+001 4.027626e+002 1.500000e+000
    endloop
  endfacet
  facet normal 3.394903e-001 -9.406096e-001 0.000000e+000
    outer loop
      vertex   -1.943641e+001 4.026314e+002 1.500000e+000
      vertex   -1.985165e+001 4.024815e+002 1.500000e+000
      vertex   -1.943641e+001 4.026314e+002 -1.931608e-013
    endloop
  endfacet
  facet normal 7.125015e-001 -7.016706e-001 0.000000e+000
    outer loop
      vertex   -2.348477e+001 4.000382e+002 1.500000e+000
      vertex   -2.317501e+001 4.003527e+002 -1.300617e-013
      vertex   -2.317501e+001 4.003527e+002 1.500000e+000
    endloop
  endfacet
  facet normal 6.804589e-001 -7.327863e-001 0.000000e+000
    outer loop
      vertex   -2.317501e+001 4.003527e+002 1.500000e+000
      vertex   -2.285152e+001 4.006531e+002 -1.409213e-013
      vertex   -2.285152e+001 4.006531e+002 1.500000e+000
    endloop
  endfacet
  facet normal 6.470588e-001 -7.624401e-001 0.000000e+000
    outer loop
      vertex   -2.285152e+001 4.006531e+002 1.500000e+000
      vertex   -2.251493e+001 4.009387e+002 -1.508130e-013
      vertex   -2.251493e+001 4.009387e+002 1.500000e+000
    endloop
  endfacet
  facet normal 6.123679e-001 -7.905730e-001 0.000000e+000
    outer loop
      vertex   -2.251493e+001 4.009387e+002 1.500000e+000
      vertex   -2.216593e+001 4.012091e+002 -1.597173e-013
      vertex   -2.216593e+001 4.012091e+002 1.500000e+000
    endloop
  endfacet
  facet normal 5.764553e-001 -8.171287e-001 0.000000e+000
    outer loop
      vertex   -2.216593e+001 4.012091e+002 1.500000e+000
      vertex   -2.180520e+001 4.014635e+002 -1.676163e-013
      vertex   -2.180520e+001 4.014635e+002 1.500000e+000
    endloop
  endfacet
  facet normal 5.393928e-001 -8.420543e-001 0.000000e+000
    outer loop
      vertex   -2.180520e+001 4.014635e+002 1.500000e+000
      vertex   -2.143347e+001 4.017017e+002 -1.744942e-013
      vertex   -2.143347e+001 4.017017e+002 1.500000e+000
    endloop
  endfacet
  facet normal 5.012543e-001 -8.653000e-001 0.000000e+000
    outer loop
      vertex   -2.143347e+001 4.017017e+002 1.500000e+000
      vertex   -2.105148e+001 4.019229e+002 -1.803374e-013
      vertex   -2.105148e+001 4.019229e+002 1.500000e+000
    endloop
  endfacet
  facet normal 4.621158e-001 -8.868196e-001 0.000000e+000
    outer loop
      vertex   -2.105148e+001 4.019229e+002 1.500000e+000
      vertex   -2.065999e+001 4.021269e+002 -1.851342e-013
      vertex   -2.065999e+001 4.021269e+002 1.500000e+000
    endloop
  endfacet
  facet normal 4.220554e-001 -9.065701e-001 0.000000e+000
    outer loop
      vertex   -2.065999e+001 4.021269e+002 1.500000e+000
      vertex   -2.025978e+001 4.023133e+002 -1.888749e-013
      vertex   -2.025978e+001 4.023133e+002 1.500000e+000
    endloop
  endfacet
  facet normal 3.811530e-001 -9.245120e-001 0.000000e+000
    outer loop
      vertex   -2.025978e+001 4.023133e+002 1.500000e+000
      vertex   -1.985165e+001 4.024815e+002 -1.915522e-013
      vertex   -1.985165e+001 4.024815e+002 1.500000e+000
    endloop
  endfacet
  facet normal 2.971503e-001 -9.548307e-001 0.000000e+000
    outer loop
      vertex   -1.943641e+001 4.026314e+002 -1.931608e-013
      vertex   -1.901490e+001 4.027626e+002 -1.936973e-013
      vertex   -1.901490e+001 4.027626e+002 1.500000e+000
    endloop
  endfacet
  facet normal 9.839894e-001 -1.782269e-001 0.000000e+000
    outer loop
      vertex   -2.719168e+001 3.923838e+002 -1.677853e-013
      vertex   -2.709445e+001 3.929207e+002 -1.675706e-013
      vertex   -2.719168e+001 3.923838e+002 1.500000e+000
    endloop
  endfacet
  facet normal 9.839894e-001 -1.782269e-001 0.000000e+000
    outer loop
      vertex   -2.719168e+001 3.923838e+002 1.500000e+000
      vertex   -2.709445e+001 3.929207e+002 -1.675706e-013
      vertex   -2.709445e+001 3.929207e+002 1.500000e+000
    endloop
  endfacet
  facet normal 9.767962e-001 -2.141710e-001 0.000000e+000
    outer loop
      vertex   -2.709445e+001 3.929207e+002 1.500000e+000
      vertex   -2.709445e+001 3.929207e+002 -1.675706e-013
      vertex   -2.697759e+001 3.934536e+002 -1.673695e-013
    endloop
  endfacet
  facet normal 9.682904e-001 -2.498273e-001 0.000000e+000
    outer loop
      vertex   -2.697759e+001 3.934536e+002 1.500000e+000
      vertex   -2.697759e+001 3.934536e+002 -1.673695e-013
      vertex   -2.684129e+001 3.939819e+002 -1.671821e-013
    endloop
  endfacet
  facet normal 9.584835e-001 -2.851479e-001 0.000000e+000
    outer loop
      vertex   -2.684129e+001 3.939819e+002 1.500000e+000
      vertex   -2.684129e+001 3.939819e+002 -1.671821e-013
      vertex   -2.668572e+001 3.945048e+002 -1.670088e-013
    endloop
  endfacet
  facet normal 9.473887e-001 -3.200853e-001 0.000000e+000
    outer loop
      vertex   -2.668572e+001 3.945048e+002 1.500000e+000
      vertex   -2.668572e+001 3.945048e+002 -1.670088e-013
      vertex   -2.651108e+001 3.950217e+002 -1.668498e-013
    endloop
  endfacet
  facet normal 9.350209e-001 -3.545926e-001 0.000000e+000
    outer loop
      vertex   -2.651108e+001 3.950217e+002 1.500000e+000
      vertex   -2.651108e+001 3.950217e+002 -1.668498e-013
      vertex   -2.631762e+001 3.955319e+002 -1.667053e-013
    endloop
  endfacet
  facet normal 9.213966e-001 -3.886235e-001 0.000000e+000
    outer loop
      vertex   -2.631762e+001 3.955319e+002 1.500000e+000
      vertex   -2.631762e+001 3.955319e+002 -1.667053e-013
      vertex   -2.610559e+001 3.960346e+002 -1.665755e-013
    endloop
  endfacet
  facet normal 9.065343e-001 -4.221321e-001 0.000000e+000
    outer loop
      vertex   -2.610559e+001 3.960346e+002 1.500000e+000
      vertex   -2.610559e+001 3.960346e+002 -1.665755e-013
      vertex   -2.587527e+001 3.965292e+002 -1.664605e-013
    endloop
  endfacet
  facet normal 8.904538e-001 -4.550736e-001 0.000000e+000
    outer loop
      vertex   -2.587527e+001 3.965292e+002 1.500000e+000
      vertex   -2.587527e+001 3.965292e+002 -1.664605e-013
      vertex   -2.562699e+001 3.970150e+002 -1.663605e-013
    endloop
  endfacet
  facet normal 8.731769e-001 -4.874035e-001 0.000000e+000
    outer loop
      vertex   -2.562699e+001 3.970150e+002 1.500000e+000
      vertex   -2.562699e+001 3.970150e+002 -1.663605e-013
      vertex   -2.536107e+001 3.974914e+002 -1.662757e-013
    endloop
  endfacet
  facet normal 8.547266e-001 -5.190785e-001 0.000000e+000
    outer loop
      vertex   -2.536107e+001 3.974914e+002 1.500000e+000
      vertex   -2.536107e+001 3.974914e+002 -1.662757e-013
      vertex   -2.507786e+001 3.979577e+002 -1.662061e-013
    endloop
  endfacet
  facet normal 8.351278e-001 -5.500560e-001 0.000000e+000
    outer loop
      vertex   -2.507786e+001 3.979577e+002 1.500000e+000
      vertex   -2.507786e+001 3.979577e+002 -1.662061e-013
      vertex   -2.477775e+001 3.984134e+002 -1.661520e-013
    endloop
  endfacet
  facet normal 8.144068e-001 -5.802944e-001 0.000000e+000
    outer loop
      vertex   -2.477775e+001 3.984134e+002 1.500000e+000
      vertex   -2.477775e+001 3.984134e+002 -1.661520e-013
      vertex   -2.446115e+001 3.988577e+002 -1.661132e-013
    endloop
  endfacet
  facet normal 7.925915e-001 -6.097530e-001 0.000000e+000
    outer loop
      vertex   -2.446115e+001 3.988577e+002 1.500000e+000
      vertex   -2.446115e+001 3.988577e+002 -1.661132e-013
      vertex   -2.412847e+001 3.992901e+002 -1.660899e-013
    endloop
  endfacet
  facet normal 7.697111e-001 -6.383923e-001 0.000000e+000
    outer loop
      vertex   -2.412847e+001 3.992901e+002 1.500000e+000
      vertex   -2.412847e+001 3.992901e+002 -1.660899e-013
      vertex   -2.378017e+001 3.997101e+002 1.500000e+000
    endloop
  endfacet
  facet normal 7.925915e-001 -6.097530e-001 0.000000e+000
    outer loop
      vertex   -2.412847e+001 3.992901e+002 1.500000e+000
      vertex   -2.446115e+001 3.988577e+002 1.500000e+000
      vertex   -2.412847e+001 3.992901e+002 -1.660899e-013
    endloop
  endfacet
  facet normal 9.767962e-001 -2.141710e-001 0.000000e+000
    outer loop
      vertex   -2.709445e+001 3.929207e+002 1.500000e+000
      vertex   -2.697759e+001 3.934536e+002 -1.673695e-013
      vertex   -2.697759e+001 3.934536e+002 1.500000e+000
    endloop
  endfacet
  facet normal 9.682904e-001 -2.498273e-001 0.000000e+000
    outer loop
      vertex   -2.697759e+001 3.934536e+002 1.500000e+000
      vertex   -2.684129e+001 3.939819e+002 -1.671821e-013
      vertex   -2.684129e+001 3.939819e+002 1.500000e+000
    endloop
  endfacet
  facet normal 9.584835e-001 -2.851479e-001 0.000000e+000
    outer loop
      vertex   -2.684129e+001 3.939819e+002 1.500000e+000
      vertex   -2.668572e+001 3.945048e+002 -1.670088e-013
      vertex   -2.668572e+001 3.945048e+002 1.500000e+000
    endloop
  endfacet
  facet normal 9.473887e-001 -3.200853e-001 0.000000e+000
    outer loop
      vertex   -2.668572e+001 3.945048e+002 1.500000e+000
      vertex   -2.651108e+001 3.950217e+002 -1.668498e-013
      vertex   -2.651108e+001 3.950217e+002 1.500000e+000
    endloop
  endfacet
  facet normal 9.350209e-001 -3.545926e-001 0.000000e+000
    outer loop
      vertex   -2.651108e+001 3.950217e+002 1.500000e+000
      vertex   -2.631762e+001 3.955319e+002 -1.667053e-013
      vertex   -2.631762e+001 3.955319e+002 1.500000e+000
    endloop
  endfacet
  facet normal 9.213966e-001 -3.886235e-001 0.000000e+000
    outer loop
      vertex   -2.631762e+001 3.955319e+002 1.500000e+000
      vertex   -2.610559e+001 3.960346e+002 -1.665755e-013
      vertex   -2.610559e+001 3.960346e+002 1.500000e+000
    endloop
  endfacet
  facet normal 9.065343e-001 -4.221321e-001 0.000000e+000
    outer loop
      vertex   -2.610559e+001 3.960346e+002 1.500000e+000
      vertex   -2.587527e+001 3.965292e+002 -1.664605e-013
      vertex   -2.587527e+001 3.965292e+002 1.500000e+000
    endloop
  endfacet
  facet normal 8.904538e-001 -4.550736e-001 0.000000e+000
    outer loop
      vertex   -2.587527e+001 3.965292e+002 1.500000e+000
      vertex   -2.562699e+001 3.970150e+002 -1.663605e-013
      vertex   -2.562699e+001 3.970150e+002 1.500000e+000
    endloop
  endfacet
  facet normal 8.731769e-001 -4.874035e-001 0.000000e+000
    outer loop
      vertex   -2.562699e+001 3.970150e+002 1.500000e+000
      vertex   -2.536107e+001 3.974914e+002 -1.662757e-013
      vertex   -2.536107e+001 3.974914e+002 1.500000e+000
    endloop
  endfacet
  facet normal 8.547266e-001 -5.190785e-001 0.000000e+000
    outer loop
      vertex   -2.536107e+001 3.974914e+002 1.500000e+000
      vertex   -2.507786e+001 3.979577e+002 -1.662061e-013
      vertex   -2.507786e+001 3.979577e+002 1.500000e+000
    endloop
  endfacet
  facet normal 8.351278e-001 -5.500560e-001 0.000000e+000
    outer loop
      vertex   -2.507786e+001 3.979577e+002 1.500000e+000
      vertex   -2.477775e+001 3.984134e+002 -1.661520e-013
      vertex   -2.477775e+001 3.984134e+002 1.500000e+000
    endloop
  endfacet
  facet normal 8.144068e-001 -5.802944e-001 0.000000e+000
    outer loop
      vertex   -2.477775e+001 3.984134e+002 1.500000e+000
      vertex   -2.446115e+001 3.988577e+002 -1.661132e-013
      vertex   -2.446115e+001 3.988577e+002 1.500000e+000
    endloop
  endfacet
  facet normal 7.697111e-001 -6.383923e-001 0.000000e+000
    outer loop
      vertex   -2.412847e+001 3.992901e+002 -1.660899e-013
      vertex   -2.378017e+001 3.997101e+002 -1.660822e-013
      vertex   -2.378017e+001 3.997101e+002 1.500000e+000
    endloop
  endfacet
  facet normal 9.870907e-001 -1.601620e-001 0.000000e+000
    outer loop
      vertex   -2.723780e+001 3.920996e+002 -9.579098e-014
      vertex   -2.719168e+001 3.923838e+002 -1.677853e-013
      vertex   -2.723780e+001 3.920996e+002 1.500000e+000
    endloop
  endfacet
  facet normal 9.870907e-001 -1.601620e-001 0.000000e+000
    outer loop
      vertex   -2.723780e+001 3.920996e+002 1.500000e+000
      vertex   -2.719168e+001 3.923838e+002 -1.677853e-013
      vertex   -2.719168e+001 3.923838e+002 1.500000e+000
    endloop
  endfacet
  facet normal 4.698075e-002 -9.988958e-001 0.000000e+000
    outer loop
      vertex   -2.970553e+001 3.900000e+002 1.500000e+000
      vertex   -2.970553e+001 3.900000e+002 -8.010289e-014
      vertex   -2.947088e+001 3.900110e+002 1.500000e+000
    endloop
  endfacet
  facet normal 4.698075e-002 -9.988958e-001 0.000000e+000
    outer loop
      vertex   -2.947088e+001 3.900110e+002 1.500000e+000
      vertex   -2.970553e+001 3.900000e+002 -8.010289e-014
      vertex   -2.947088e+001 3.900110e+002 -8.191023e-014
    endloop
  endfacet
  facet normal 1.405275e-001 -9.900768e-001 0.000000e+000
    outer loop
      vertex   -2.923831e+001 3.900440e+002 -8.366467e-014
      vertex   -2.947088e+001 3.900110e+002 1.500000e+000
      vertex   -2.947088e+001 3.900110e+002 -8.191023e-014
    endloop
  endfacet
  facet normal 1.405275e-001 -9.900768e-001 0.000000e+000
    outer loop
      vertex   -2.923831e+001 3.900440e+002 -8.366467e-014
      vertex   -2.923831e+001 3.900440e+002 1.500000e+000
      vertex   -2.947088e+001 3.900110e+002 1.500000e+000
    endloop
  endfacet
  facet normal 2.328335e-001 -9.725166e-001 0.000000e+000
    outer loop
      vertex   -2.923831e+001 3.900440e+002 -8.366467e-014
      vertex   -2.900986e+001 3.900987e+002 -8.535073e-014
      vertex   -2.923831e+001 3.900440e+002 1.500000e+000
    endloop
  endfacet
  facet normal 2.328335e-001 -9.725166e-001 0.000000e+000
    outer loop
      vertex   -2.923831e+001 3.900440e+002 1.500000e+000
      vertex   -2.900986e+001 3.900987e+002 -8.535073e-014
      vertex   -2.900986e+001 3.900987e+002 1.500000e+000
    endloop
  endfacet
  facet normal 3.230839e-001 -9.463703e-001 0.000000e+000
    outer loop
      vertex   -2.900986e+001 3.900987e+002 1.500000e+000
      vertex   -2.900986e+001 3.900987e+002 -8.535073e-014
      vertex   -2.878756e+001 3.901746e+002 -8.695352e-014
    endloop
  endfacet
  facet normal 4.104819e-001 -9.118688e-001 0.000000e+000
    outer loop
      vertex   -2.878756e+001 3.901746e+002 1.500000e+000
      vertex   -2.878756e+001 3.901746e+002 -8.695352e-014
      vertex   -2.857336e+001 3.902711e+002 -8.845889e-014
    endloop
  endfacet
  facet normal 4.942558e-001 -8.693165e-001 0.000000e+000
    outer loop
      vertex   -2.857336e+001 3.902711e+002 1.500000e+000
      vertex   -2.857336e+001 3.902711e+002 -8.845889e-014
      vertex   -2.836915e+001 3.903872e+002 -8.985355e-014
    endloop
  endfacet
  facet normal 5.736661e-001 -8.190893e-001 0.000000e+000
    outer loop
      vertex   -2.836915e+001 3.903872e+002 1.500000e+000
      vertex   -2.836915e+001 3.903872e+002 -8.985355e-014
      vertex   -2.817674e+001 3.905219e+002 -9.112518e-014
    endloop
  endfacet
  facet normal 6.480116e-001 -7.616305e-001 0.000000e+000
    outer loop
      vertex   -2.817674e+001 3.905219e+002 1.500000e+000
      vertex   -2.817674e+001 3.905219e+002 -9.112518e-014
      vertex   -2.799783e+001 3.906741e+002 -9.226256e-014
    endloop
  endfacet
  facet normal 7.166359e-001 -6.974475e-001 0.000000e+000
    outer loop
      vertex   -2.799783e+001 3.906741e+002 1.500000e+000
      vertex   -2.799783e+001 3.906741e+002 -9.226256e-014
      vertex   -2.783400e+001 3.908425e+002 -9.325566e-014
    endloop
  endfacet
  facet normal 7.789333e-001 -6.271068e-001 0.000000e+000
    outer loop
      vertex   -2.783400e+001 3.908425e+002 1.500000e+000
      vertex   -2.783400e+001 3.908425e+002 -9.325566e-014
      vertex   -2.768669e+001 3.910255e+002 -9.409569e-014
    endloop
  endfacet
  facet normal 8.343536e-001 -5.512296e-001 0.000000e+000
    outer loop
      vertex   -2.768669e+001 3.910255e+002 1.500000e+000
      vertex   -2.768669e+001 3.910255e+002 -9.409569e-014
      vertex   -2.755721e+001 3.912214e+002 -9.477524e-014
    endloop
  endfacet
  facet normal 8.824076e-001 -4.704857e-001 0.000000e+000
    outer loop
      vertex   -2.755721e+001 3.912214e+002 1.500000e+000
      vertex   -2.755721e+001 3.912214e+002 -9.477524e-014
      vertex   -2.744669e+001 3.914287e+002 -9.528832e-014
    endloop
  endfacet
  facet normal 9.226710e-001 -3.855880e-001 0.000000e+000
    outer loop
      vertex   -2.744669e+001 3.914287e+002 1.500000e+000
      vertex   -2.744669e+001 3.914287e+002 -9.528832e-014
      vertex   -2.735611e+001 3.916455e+002 -9.563039e-014
    endloop
  endfacet
  facet normal 9.547885e-001 -2.972861e-001 0.000000e+000
    outer loop
      vertex   -2.735611e+001 3.916455e+002 1.500000e+000
      vertex   -2.735611e+001 3.916455e+002 -9.563039e-014
      vertex   -2.728628e+001 3.918697e+002 -9.579844e-014
    endloop
  endfacet
  facet normal 9.784763e-001 -2.063595e-001 0.000000e+000
    outer loop
      vertex   -2.728628e+001 3.918697e+002 1.500000e+000
      vertex   -2.728628e+001 3.918697e+002 -9.579844e-014
      vertex   -2.723780e+001 3.920996e+002 -9.579098e-014
    endloop
  endfacet
  facet normal 9.784763e-001 -2.063595e-001 0.000000e+000
    outer loop
      vertex   -2.723780e+001 3.920996e+002 1.500000e+000
      vertex   -2.728628e+001 3.918697e+002 1.500000e+000
      vertex   -2.723780e+001 3.920996e+002 -9.579098e-014
    endloop
  endfacet
  facet normal 3.230839e-001 -9.463703e-001 0.000000e+000
    outer loop
      vertex   -2.900986e+001 3.900987e+002 1.500000e+000
      vertex   -2.878756e+001 3.901746e+002 -8.695352e-014
      vertex   -2.878756e+001 3.901746e+002 1.500000e+000
    endloop
  endfacet
  facet normal 4.104819e-001 -9.118688e-001 0.000000e+000
    outer loop
      vertex   -2.878756e+001 3.901746e+002 1.500000e+000
      vertex   -2.857336e+001 3.902711e+002 -8.845889e-014
      vertex   -2.857336e+001 3.902711e+002 1.500000e+000
    endloop
  endfacet
  facet normal 4.942558e-001 -8.693165e-001 0.000000e+000
    outer loop
      vertex   -2.857336e+001 3.902711e+002 1.500000e+000
      vertex   -2.836915e+001 3.903872e+002 -8.985355e-014
      vertex   -2.836915e+001 3.903872e+002 1.500000e+000
    endloop
  endfacet
  facet normal 5.736661e-001 -8.190893e-001 0.000000e+000
    outer loop
      vertex   -2.836915e+001 3.903872e+002 1.500000e+000
      vertex   -2.817674e+001 3.905219e+002 -9.112518e-014
      vertex   -2.817674e+001 3.905219e+002 1.500000e+000
    endloop
  endfacet
  facet normal 6.480116e-001 -7.616305e-001 0.000000e+000
    outer loop
      vertex   -2.817674e+001 3.905219e+002 1.500000e+000
      vertex   -2.799783e+001 3.906741e+002 -9.226256e-014
      vertex   -2.799783e+001 3.906741e+002 1.500000e+000
    endloop
  endfacet
  facet normal 7.166359e-001 -6.974475e-001 0.000000e+000
    outer loop
      vertex   -2.799783e+001 3.906741e+002 1.500000e+000
      vertex   -2.783400e+001 3.908425e+002 -9.325566e-014
      vertex   -2.783400e+001 3.908425e+002 1.500000e+000
    endloop
  endfacet
  facet normal 7.789333e-001 -6.271068e-001 0.000000e+000
    outer loop
      vertex   -2.783400e+001 3.908425e+002 1.500000e+000
      vertex   -2.768669e+001 3.910255e+002 -9.409569e-014
      vertex   -2.768669e+001 3.910255e+002 1.500000e+000
    endloop
  endfacet
  facet normal 8.343536e-001 -5.512296e-001 0.000000e+000
    outer loop
      vertex   -2.768669e+001 3.910255e+002 1.500000e+000
      vertex   -2.755721e+001 3.912214e+002 -9.477524e-014
      vertex   -2.755721e+001 3.912214e+002 1.500000e+000
    endloop
  endfacet
  facet normal 8.824076e-001 -4.704857e-001 0.000000e+000
    outer loop
      vertex   -2.755721e+001 3.912214e+002 1.500000e+000
      vertex   -2.744669e+001 3.914287e+002 -9.528832e-014
      vertex   -2.744669e+001 3.914287e+002 1.500000e+000
    endloop
  endfacet
  facet normal 9.226710e-001 -3.855880e-001 0.000000e+000
    outer loop
      vertex   -2.744669e+001 3.914287e+002 1.500000e+000
      vertex   -2.735611e+001 3.916455e+002 -9.563039e-014
      vertex   -2.735611e+001 3.916455e+002 1.500000e+000
    endloop
  endfacet
  facet normal 9.547885e-001 -2.972861e-001 0.000000e+000
    outer loop
      vertex   -2.735611e+001 3.916455e+002 1.500000e+000
      vertex   -2.728628e+001 3.918697e+002 -9.579844e-014
      vertex   -2.728628e+001 3.918697e+002 1.500000e+000
    endloop
  endfacet
  facet normal 0.000000e+000 -1.000000e+000 0.000000e+000
    outer loop
      vertex   -4.000000e+001 3.900000e+002 0.000000e+000
      vertex   -2.970553e+001 3.900000e+002 -8.010289e-014
      vertex   -4.000000e+001 3.900000e+002 1.500000e+000
    endloop
  endfacet
  facet normal 0.000000e+000 -1.000000e+000 0.000000e+000
    outer loop
      vertex   -4.000000e+001 3.900000e+002 1.500000e+000
      vertex   -2.970553e+001 3.900000e+002 -8.010289e-014
      vertex   -2.970553e+001 3.900000e+002 1.500000e+000
    endloop
  endfacet
  facet normal 1.000000e+000 0.000000e+000 -0.000000e+000
    outer loop
      vertex   -4.000000e+001 3.885000e+002 0.000000e+000
      vertex   -4.000000e+001 3.900000e+002 0.000000e+000
      vertex   -4.000000e+001 3.885000e+002 1.500000e+000
    endloop
  endfacet
  facet normal 1.000000e+000 -0.000000e+000 0.000000e+000
    outer loop
      vertex   -4.000000e+001 3.885000e+002 1.500000e+000
      vertex   -4.000000e+001 3.900000e+002 0.000000e+000
      vertex   -4.000000e+001 3.900000e+002 1.500000e+000
    endloop
  endfacet
  facet normal 0.000000e+000 -1.000000e+000 0.000000e+000
    outer loop
      vertex   -6.000000e+001 3.885000e+002 0.000000e+000
      vertex   -4.000000e+001 3.885000e+002 0.000000e+000
      vertex   -6.000000e+001 3.885000e+002 1.500000e+000
    endloop
  endfacet
  facet normal 0.000000e+000 -1.000000e+000 0.000000e+000
    outer loop
      vertex   -6.000000e+001 3.885000e+002 1.500000e+000
      vertex   -4.000000e+001 3.885000e+002 0.000000e+000
      vertex   -4.000000e+001 3.885000e+002 1.500000e+000
    endloop
  endfacet
  facet normal -1.000000e+000 0.000000e+000 0.000000e+000
    outer loop
      vertex   -6.000000e+001 3.900000e+002 0.000000e+000
      vertex   -6.000000e+001 3.885000e+002 0.000000e+000
      vertex   -6.000000e+001 3.900000e+002 1.500000e+000
    endloop
  endfacet
  facet normal -1.000000e+000 -0.000000e+000 0.000000e+000
    outer loop
      vertex   -6.000000e+001 3.900000e+002 1.500000e+000
      vertex   -6.000000e+001 3.885000e+002 0.000000e+000
      vertex   -6.000000e+001 3.885000e+002 1.500000e+000
    endloop
  endfacet
  facet normal 0.000000e+000 -1.000000e+000 0.000000e+000
    outer loop
      vertex   -7.200000e+001 3.900000e+002 0.000000e+000
      vertex   -6.000000e+001 3.900000e+002 0.000000e+000
      vertex   -7.200000e+001 3.900000e+002 1.500000e+000
    endloop
  endfacet
  facet normal 0.000000e+000 -1.000000e+000 0.000000e+000
    outer loop
      vertex   -7.200000e+001 3.900000e+002 1.500000e+000
      vertex   -6.000000e+001 3.900000e+002 0.000000e+000
      vertex   -6.000000e+001 3.900000e+002 1.500000e+000
    endloop
  endfacet
  facet normal -1.000000e+000 0.000000e+000 0.000000e+000
    outer loop
      vertex   -7.200000e+001 4.243943e+002 0.000000e+000
      vertex   -7.200000e+001 3.900000e+002 0.000000e+000
      vertex   -7.200000e+001 4.243943e+002 1.500000e+000
    endloop
  endfacet
  facet normal -1.000000e+000 -0.000000e+000 0.000000e+000
    outer loop
      vertex   -7.200000e+001 4.243943e+002 1.500000e+000
      vertex   -7.200000e+001 3.900000e+002 0.000000e+000
      vertex   -7.200000e+001 3.900000e+002 1.500000e+000
    endloop
  endfacet
  facet normal -3.157968e-015 1.000000e+000 0.000000e+000
    outer loop
      vertex   1.776357e-014 4.243943e+002 0.000000e+000
      vertex   -3.600000e+001 4.243943e+002 0.000000e+000
      vertex   1.776357e-014 4.243943e+002 1.500000e+000
    endloop
  endfacet
  facet normal -3.157968e-015 1.000000e+000 0.000000e+000
    outer loop
      vertex   1.776357e-014 4.243943e+002 1.500000e+000
      vertex   -3.600000e+001 4.243943e+002 0.000000e+000
      vertex   -3.600000e+001 4.243943e+002 1.500000e+000
    endloop
  endfacet
  facet normal -1.578984e-015 1.000000e+000 0.000000e+000
    outer loop
      vertex   -3.600000e+001 4.243943e+002 1.500000e+000
      vertex   -3.600000e+001 4.243943e+002 0.000000e+000
      vertex   -7.200000e+001 4.243943e+002 0.000000e+000
    endloop
  endfacet
  facet normal -1.578984e-015 1.000000e+000 0.000000e+000
    outer loop
      vertex   -7.200000e+001 4.243943e+002 1.500000e+000
      vertex   -3.600000e+001 4.243943e+002 1.500000e+000
      vertex   -7.200000e+001 4.243943e+002 0.000000e+000
    endloop
  endfacet
  facet normal 1.000000e+000 -0.000000e+000 -0.000000e+000
    outer loop
      vertex   1.776357e-014 4.200000e+002 1.248048e-014
      vertex   1.776357e-014 4.243943e+002 0.000000e+000
      vertex   1.776357e-014 4.200000e+002 1.500000e+000
    endloop
  endfacet
  facet normal 1.000000e+000 -0.000000e+000 0.000000e+000
    outer loop
      vertex   1.776357e-014 4.200000e+002 1.500000e+000
      vertex   1.776357e-014 4.243943e+002 0.000000e+000
      vertex   1.776357e-014 4.243943e+002 1.500000e+000
    endloop
  endfacet
  facet normal 0.000000e+000 1.000000e+000 -0.000000e+000
    outer loop
      vertex   1.500000e+000 4.200000e+002 1.248048e-014
      vertex   1.776357e-014 4.200000e+002 1.248048e-014
      vertex   1.500000e+000 4.200000e+002 1.500000e+000
    endloop
  endfacet
  facet normal 0.000000e+000 1.000000e+000 -0.000000e+000
    outer loop
      vertex   1.500000e+000 4.200000e+002 1.500000e+000
      vertex   1.776357e-014 4.200000e+002 1.248048e-014
      vertex   1.776357e-014 4.200000e+002 1.500000e+000
    endloop
  endfacet
  facet normal 1.000000e+000 0.000000e+000 -0.000000e+000
    outer loop
      vertex   1.500000e+000 4.100000e+002 1.248048e-014
      vertex   1.500000e+000 4.200000e+002 1.248048e-014
      vertex   1.500000e+000 4.100000e+002 1.500000e+000
    endloop
  endfacet
  facet normal 1.000000e+000 -0.000000e+000 0.000000e+000
    outer loop
      vertex   1.500000e+000 4.100000e+002 1.500000e+000
      vertex   1.500000e+000 4.200000e+002 1.248048e-014
      vertex   1.500000e+000 4.200000e+002 1.500000e+000
    endloop
  endfacet
  facet normal 0.000000e+000 -1.000000e+000 0.000000e+000
    outer loop
      vertex   0.000000e+000 4.100000e+002 1.248048e-014
      vertex   1.500000e+000 4.100000e+002 1.248048e-014
      vertex   0.000000e+000 4.100000e+002 1.500000e+000
    endloop
  endfacet
  facet normal 0.000000e+000 -1.000000e+000 0.000000e+000
    outer loop
      vertex   0.000000e+000 4.100000e+002 1.500000e+000
      vertex   1.500000e+000 4.100000e+002 1.248048e-014
      vertex   1.500000e+000 4.100000e+002 1.500000e+000
    endloop
  endfacet
  facet normal 1.000000e+000 -0.000000e+000 -0.000000e+000
    outer loop
      vertex   0.000000e+000 4.095823e+002 1.285890e-014
      vertex   0.000000e+000 4.100000e+002 1.248048e-014
      vertex   0.000000e+000 4.095823e+002 1.500000e+000
    endloop
  endfacet
  facet normal 1.000000e+000 -0.000000e+000 0.000000e+000
    outer loop
      vertex   0.000000e+000 4.095823e+002 1.500000e+000
      vertex   0.000000e+000 4.100000e+002 1.248048e-014
      vertex   0.000000e+000 4.100000e+002 1.500000e+000
    endloop
  endfacet
  facet normal 3.534874e-001 -9.354393e-001 0.000000e+000
    outer loop
      vertex   -1.218298e+000 4.079151e+002 1.500000e+000
      vertex   -1.218298e+000 4.079151e+002 9.009740e-015
      vertex   -1.046206e+000 4.079801e+002 1.500000e+000
    endloop
  endfacet
  facet normal 3.534874e-001 -9.354393e-001 0.000000e+000
    outer loop
      vertex   -1.046206e+000 4.079801e+002 1.500000e+000
      vertex   -1.218298e+000 4.079151e+002 9.009740e-015
      vertex   -1.046206e+000 4.079801e+002 9.707927e-015
    endloop
  endfacet
  facet normal 4.497366e-001 -8.931612e-001 0.000000e+000
    outer loop
      vertex   -8.818917e-001 4.080628e+002 1.035585e-014
      vertex   -1.046206e+000 4.079801e+002 1.500000e+000
      vertex   -1.046206e+000 4.079801e+002 9.707927e-015
    endloop
  endfacet
  facet normal 4.497366e-001 -8.931612e-001 0.000000e+000
    outer loop
      vertex   -8.818917e-001 4.080628e+002 1.035585e-014
      vertex   -8.818917e-001 4.080628e+002 1.500000e+000
      vertex   -1.046206e+000 4.079801e+002 1.500000e+000
    endloop
  endfacet
  facet normal 5.410157e-001 -8.410125e-001 0.000000e+000
    outer loop
      vertex   -8.818917e-001 4.080628e+002 1.035585e-014
      vertex   -7.271710e-001 4.081624e+002 1.094635e-014
      vertex   -8.818917e-001 4.080628e+002 1.500000e+000
    endloop
  endfacet
  facet normal 5.410157e-001 -8.410125e-001 0.000000e+000
    outer loop
      vertex   -8.818917e-001 4.080628e+002 1.500000e+000
      vertex   -7.271710e-001 4.081624e+002 1.094635e-014
      vertex   -7.271710e-001 4.081624e+002 1.500000e+000
    endloop
  endfacet
  facet normal 6.263158e-001 -7.795695e-001 0.000000e+000
    outer loop
      vertex   -7.271710e-001 4.081624e+002 1.500000e+000
      vertex   -7.271710e-001 4.081624e+002 1.094635e-014
      vertex   -5.837540e-001 4.082776e+002 1.147291e-014
    endloop
  endfacet
  facet normal 7.046942e-001 -7.095111e-001 0.000000e+000
    outer loop
      vertex   -5.837540e-001 4.082776e+002 1.500000e+000
      vertex   -5.837540e-001 4.082776e+002 1.147291e-014
      vertex   -4.532256e-001 4.084072e+002 1.192969e-014
    endloop
  endfacet
  facet normal 7.752849e-001 -6.316117e-001 0.000000e+000
    outer loop
      vertex   -4.532256e-001 4.084072e+002 1.500000e+000
      vertex   -4.532256e-001 4.084072e+002 1.192969e-014
      vertex   -3.370283e-001 4.085499e+002 1.231166e-014
    endloop
  endfacet
  facet normal 8.373076e-001 -5.467321e-001 0.000000e+000
    outer loop
      vertex   -3.370283e-001 4.085499e+002 1.500000e+000
      vertex   -3.370283e-001 4.085499e+002 1.231166e-014
      vertex   -2.364463e-001 4.087039e+002 1.261460e-014
    endloop
  endfacet
  facet normal 8.900769e-001 -4.558104e-001 0.000000e+000
    outer loop
      vertex   -2.364463e-001 4.087039e+002 1.500000e+000
      vertex   -2.364463e-001 4.087039e+002 1.261460e-014
      vertex   -1.525911e-001 4.088677e+002 1.283515e-014
    endloop
  endfacet
  facet normal 9.330096e-001 -3.598514e-001 0.000000e+000
    outer loop
      vertex   -1.525911e-001 4.088677e+002 1.500000e+000
      vertex   -1.525911e-001 4.088677e+002 1.283515e-014
      vertex   -8.638941e-002 4.090393e+002 1.297088e-014
    endloop
  endfacet
  facet normal 9.656314e-001 -2.599155e-001 0.000000e+000
    outer loop
      vertex   -8.638941e-002 4.090393e+002 1.500000e+000
      vertex   -8.638941e-002 4.090393e+002 1.297088e-014
      vertex   -3.857288e-002 4.092169e+002 1.302028e-014
    endloop
  endfacet
  facet normal 9.875815e-001 -1.571073e-001 0.000000e+000
    outer loop
      vertex   -3.857288e-002 4.092169e+002 1.500000e+000
      vertex   -3.857288e-002 4.092169e+002 1.302028e-014
      vertex   -9.669936e-003 4.093986e+002 1.298282e-014
    endloop
  endfacet
  facet normal 9.986176e-001 -5.256271e-002 0.000000e+000
    outer loop
      vertex   -9.669936e-003 4.093986e+002 1.500000e+000
      vertex   -9.669936e-003 4.093986e+002 1.298282e-014
      vertex   0.000000e+000 4.095823e+002 1.285890e-014
    endloop
  endfacet
  facet normal 9.986176e-001 -5.256271e-002 0.000000e+000
    outer loop
      vertex   0.000000e+000 4.095823e+002 1.500000e+000
      vertex   -9.669936e-003 4.093986e+002 1.500000e+000
      vertex   0.000000e+000 4.095823e+002 1.285890e-014
    endloop
  endfacet
  facet normal 6.263158e-001 -7.795695e-001 0.000000e+000
    outer loop
      vertex   -7.271710e-001 4.081624e+002 1.500000e+000
      vertex   -5.837540e-001 4.082776e+002 1.147291e-014
      vertex   -5.837540e-001 4.082776e+002 1.500000e+000
    endloop
  endfacet
  facet normal 7.046942e-001 -7.095111e-001 0.000000e+000
    outer loop
      vertex   -5.837540e-001 4.082776e+002 1.500000e+000
      vertex   -4.532256e-001 4.084072e+002 1.192969e-014
      vertex   -4.532256e-001 4.084072e+002 1.500000e+000
    endloop
  endfacet
  facet normal 7.752849e-001 -6.316117e-001 0.000000e+000
    outer loop
      vertex   -4.532256e-001 4.084072e+002 1.500000e+000
      vertex   -3.370283e-001 4.085499e+002 1.231166e-014
      vertex   -3.370283e-001 4.085499e+002 1.500000e+000
    endloop
  endfacet
  facet normal 8.373076e-001 -5.467321e-001 0.000000e+000
    outer loop
      vertex   -3.370283e-001 4.085499e+002 1.500000e+000
      vertex   -2.364463e-001 4.087039e+002 1.261460e-014
      vertex   -2.364463e-001 4.087039e+002 1.500000e+000
    endloop
  endfacet
  facet normal 8.900769e-001 -4.558104e-001 0.000000e+000
    outer loop
      vertex   -2.364463e-001 4.087039e+002 1.500000e+000
      vertex   -1.525911e-001 4.088677e+002 1.283515e-014
      vertex   -1.525911e-001 4.088677e+002 1.500000e+000
    endloop
  endfacet
  facet normal 9.330096e-001 -3.598514e-001 0.000000e+000
    outer loop
      vertex   -1.525911e-001 4.088677e+002 1.500000e+000
      vertex   -8.638941e-002 4.090393e+002 1.297088e-014
      vertex   -8.638941e-002 4.090393e+002 1.500000e+000
    endloop
  endfacet
  facet normal 9.656314e-001 -2.599155e-001 0.000000e+000
    outer loop
      vertex   -8.638941e-002 4.090393e+002 1.500000e+000
      vertex   -3.857288e-002 4.092169e+002 1.302028e-014
      vertex   -3.857288e-002 4.092169e+002 1.500000e+000
    endloop
  endfacet
  facet normal 9.875815e-001 -1.571073e-001 0.000000e+000
    outer loop
      vertex   -3.857288e-002 4.092169e+002 1.500000e+000
      vertex   -9.669936e-003 4.093986e+002 1.298282e-014
      vertex   -9.669936e-003 4.093986e+002 1.500000e+000
    endloop
  endfacet
  facet normal 3.038295e-001 -9.527264e-001 0.000000e+000
    outer loop
      vertex   -2.688670e+000 4.074462e+002 2.965799e-015
      vertex   -1.218298e+000 4.079151e+002 9.009740e-015
      vertex   -2.688670e+000 4.074462e+002 1.500000e+000
    endloop
  endfacet
  facet normal 3.038295e-001 -9.527264e-001 0.000000e+000
    outer loop
      vertex   -2.688670e+000 4.074462e+002 1.500000e+000
      vertex   -1.218298e+000 4.079151e+002 9.009740e-015
      vertex   -1.218298e+000 4.079151e+002 1.500000e+000
    endloop
  endfacet
  facet normal 2.757527e-001 -9.612286e-001 0.000000e+000
    outer loop
      vertex   -1.901490e+001 4.027626e+002 -1.936973e-013
      vertex   -2.688670e+000 4.074462e+002 2.965799e-015
      vertex   -1.901490e+001 4.027626e+002 1.500000e+000
    endloop
  endfacet
  facet normal 2.757527e-001 -9.612286e-001 0.000000e+000
    outer loop
      vertex   -1.901490e+001 4.027626e+002 1.500000e+000
      vertex   -2.688670e+000 4.074462e+002 2.965799e-015
      vertex   -2.688670e+000 4.074462e+002 1.500000e+000
    endloop
  endfacet
  facet normal -1.262628e-014 1.961316e-015 1.000000e+000
    outer loop
      vertex   -2.688670e+000 4.074462e+002 1.500000e+000
      vertex   1.776357e-014 4.200000e+002 1.500000e+000
      vertex   -1.901490e+001 4.027626e+002 1.500000e+000
    endloop
  endfacet
  facet normal -3.468583e-015 6.161441e-030 1.000000e+000
    outer loop
      vertex   -2.688670e+000 4.074462e+002 1.500000e+000
      vertex   0.000000e+000 4.100000e+002 1.500000e+000
      vertex   1.776357e-014 4.200000e+002 1.500000e+000
    endloop
  endfacet
  facet normal -4.157691e-015 7.254918e-016 1.000000e+000
    outer loop
      vertex   -2.688670e+000 4.074462e+002 1.500000e+000
      vertex   -1.218298e+000 4.079151e+002 1.500000e+000
      vertex   0.000000e+000 4.100000e+002 1.500000e+000
    endloop
  endfacet
  facet normal -3.825961e-015 5.316494e-016 1.000000e+000
    outer loop
      vertex   0.000000e+000 4.100000e+002 1.500000e+000
      vertex   -1.218298e+000 4.079151e+002 1.500000e+000
      vertex   0.000000e+000 4.095823e+002 1.500000e+000
    endloop
  endfacet
  facet normal -6.903778e-015 2.780654e-015 1.000000e+000
    outer loop
      vertex   0.000000e+000 4.095823e+002 1.500000e+000
      vertex   -1.218298e+000 4.079151e+002 1.500000e+000
      vertex   -9.669936e-003 4.093986e+002 1.500000e+000
    endloop
  endfacet
  facet normal -6.201766e-015 2.208736e-015 1.000000e+000
    outer loop
      vertex   -9.669936e-003 4.093986e+002 1.500000e+000
      vertex   -1.218298e+000 4.079151e+002 1.500000e+000
      vertex   -3.857288e-002 4.092169e+002 1.500000e+000
    endloop
  endfacet
  facet normal -3.392784e-015 -3.366989e-016 1.000000e+000
    outer loop
      vertex   -3.857288e-002 4.092169e+002 1.500000e+000
      vertex   -1.218298e+000 4.079151e+002 1.500000e+000
      vertex   -8.638941e-002 4.090393e+002 1.500000e+000
    endloop
  endfacet
  facet normal -6.041527e-015 2.330150e-015 1.000000e+000
    outer loop
      vertex   -8.638941e-002 4.090393e+002 1.500000e+000
      vertex   -1.218298e+000 4.079151e+002 1.500000e+000
      vertex   -1.525911e-001 4.088677e+002 1.500000e+000
    endloop
  endfacet
  facet normal -5.065207e-015 1.237882e-015 1.000000e+000
    outer loop
      vertex   -1.525911e-001 4.088677e+002 1.500000e+000
      vertex   -1.218298e+000 4.079151e+002 1.500000e+000
      vertex   -2.364463e-001 4.087039e+002 1.500000e+000
    endloop
  endfacet
  facet normal -3.690506e-015 -4.731957e-016 1.000000e+000
    outer loop
      vertex   -2.364463e-001 4.087039e+002 1.500000e+000
      vertex   -1.218298e+000 4.079151e+002 1.500000e+000
      vertex   -3.370283e-001 4.085499e+002 1.500000e+000
    endloop
  endfacet
  facet normal -4.328913e-015 4.130914e-016 1.000000e+000
    outer loop
      vertex   -3.370283e-001 4.085499e+002 1.500000e+000
      vertex   -1.218298e+000 4.079151e+002 1.500000e+000
      vertex   -4.532256e-001 4.084072e+002 1.500000e+000
    endloop
  endfacet
  facet normal -8.405559e-015 6.750266e-015 1.000000e+000
    outer loop
      vertex   -4.532256e-001 4.084072e+002 1.500000e+000
      vertex   -1.218298e+000 4.079151e+002 1.500000e+000
      vertex   -5.837540e-001 4.082776e+002 1.500000e+000
    endloop
  endfacet
  facet normal -4.313559e-015 -4.122109e-016 1.000000e+000
    outer loop
      vertex   -5.837540e-001 4.082776e+002 1.500000e+000
      vertex   -1.218298e+000 4.079151e+002 1.500000e+000
      vertex   -7.271710e-001 4.081624e+002 1.500000e+000
    endloop
  endfacet
  facet normal -5.298354e-015 1.543558e-015 1.000000e+000
    outer loop
      vertex   -7.271710e-001 4.081624e+002 1.500000e+000
      vertex   -1.218298e+000 4.079151e+002 1.500000e+000
      vertex   -8.818917e-001 4.080628e+002 1.500000e+000
    endloop
  endfacet
  facet normal -8.490411e-015 8.810520e-015 1.000000e+000
    outer loop
      vertex   -8.818917e-001 4.080628e+002 1.500000e+000
      vertex   -1.218298e+000 4.079151e+002 1.500000e+000
      vertex   -1.046206e+000 4.079801e+002 1.500000e+000
    endloop
  endfacet
  facet normal 0.000000e+000 -0.000000e+000 1.000000e+000
    outer loop
      vertex   0.000000e+000 4.100000e+002 1.500000e+000
      vertex   1.500000e+000 4.100000e+002 1.500000e+000
      vertex   1.776357e-014 4.200000e+002 1.500000e+000
    endloop
  endfacet
  facet normal -0.000000e+000 0.000000e+000 1.000000e+000
    outer loop
      vertex   1.776357e-014 4.200000e+002 1.500000e+000
      vertex   1.500000e+000 4.100000e+002 1.500000e+000
      vertex   1.500000e+000 4.200000e+002 1.500000e+000
    endloop
  endfacet
  facet normal -8.936053e-030 2.829685e-015 1.000000e+000
    outer loop
      vertex   1.776357e-014 4.243943e+002 1.500000e+000
      vertex   -3.600000e+001 4.243943e+002 1.500000e+000
      vertex   1.776357e-014 4.200000e+002 1.500000e+000
    endloop
  endfacet
  facet normal -1.591800e-015 -1.021101e-014 1.000000e+000
    outer loop
      vertex   1.776357e-014 4.200000e+002 1.500000e+000
      vertex   -3.600000e+001 4.243943e+002 1.500000e+000
      vertex   -1.901490e+001 4.027626e+002 1.500000e+000
    endloop
  endfacet
  facet normal 3.511129e-015 -6.204222e-015 1.000000e+000
    outer loop
      vertex   -1.901490e+001 4.027626e+002 1.500000e+000
      vertex   -3.600000e+001 4.243943e+002 1.500000e+000
      vertex   -1.943641e+001 4.026314e+002 1.500000e+000
    endloop
  endfacet
  facet normal 5.449881e-015 -4.728653e-015 1.000000e+000
    outer loop
      vertex   -1.943641e+001 4.026314e+002 1.500000e+000
      vertex   -3.600000e+001 4.243943e+002 1.500000e+000
      vertex   -1.985165e+001 4.024815e+002 1.500000e+000
    endloop
  endfacet
  facet normal 7.772476e-015 -3.017045e-015 1.000000e+000
    outer loop
      vertex   -1.985165e+001 4.024815e+002 1.500000e+000
      vertex   -3.600000e+001 4.243943e+002 1.500000e+000
      vertex   -2.025978e+001 4.023133e+002 1.500000e+000
    endloop
  endfacet
  facet normal 1.007305e-014 -1.377110e-015 1.000000e+000
    outer loop
      vertex   -2.025978e+001 4.023133e+002 1.500000e+000
      vertex   -3.600000e+001 4.243943e+002 1.500000e+000
      vertex   -2.065999e+001 4.021269e+002 1.500000e+000
    endloop
  endfacet
  facet normal 1.237067e-014 2.057240e-016 1.000000e+000
    outer loop
      vertex   -2.065999e+001 4.021269e+002 1.500000e+000
      vertex   -3.600000e+001 4.243943e+002 1.500000e+000
      vertex   -2.105148e+001 4.019229e+002 1.500000e+000
    endloop
  endfacet
  facet normal 1.426439e-014 1.465474e-015 1.000000e+000
    outer loop
      vertex   -2.105148e+001 4.019229e+002 1.500000e+000
      vertex   -3.600000e+001 4.243943e+002 1.500000e+000
      vertex   -2.143347e+001 4.017017e+002 1.500000e+000
    endloop
  endfacet
  facet normal 1.661280e-014 2.972935e-015 1.000000e+000
    outer loop
      vertex   -2.143347e+001 4.017017e+002 1.500000e+000
      vertex   -3.600000e+001 4.243943e+002 1.500000e+000
      vertex   -2.180520e+001 4.014635e+002 1.500000e+000
    endloop
  endfacet
  facet normal 1.901390e-014 4.459280e-015 1.000000e+000
    outer loop
      vertex   -2.180520e+001 4.014635e+002 1.500000e+000
      vertex   -3.600000e+001 4.243943e+002 1.500000e+000
      vertex   -2.216593e+001 4.012091e+002 1.500000e+000
    endloop
  endfacet
  facet normal 2.105265e-014 5.675755e-015 1.000000e+000
    outer loop
      vertex   -2.216593e+001 4.012091e+002 1.500000e+000
      vertex   -3.600000e+001 4.243943e+002 1.500000e+000
      vertex   -2.251493e+001 4.009387e+002 1.500000e+000
    endloop
  endfacet
  facet normal 2.317466e-014 6.895738e-015 1.000000e+000
    outer loop
      vertex   -2.251493e+001 4.009387e+002 1.500000e+000
      vertex   -3.600000e+001 4.243943e+002 1.500000e+000
      vertex   -2.285152e+001 4.006531e+002 1.500000e+000
    endloop
  endfacet
  facet normal 2.585283e-014 8.378978e-015 1.000000e+000
    outer loop
      vertex   -2.285152e+001 4.006531e+002 1.500000e+000
      vertex   -3.600000e+001 4.243943e+002 1.500000e+000
      vertex   -2.317501e+001 4.003527e+002 1.500000e+000
    endloop
  endfacet
  facet normal 2.820815e-014 9.635421e-015 1.000000e+000
    outer loop
      vertex   -2.317501e+001 4.003527e+002 1.500000e+000
      vertex   -3.600000e+001 4.243943e+002 1.500000e+000
      vertex   -2.348477e+001 4.000382e+002 1.500000e+000
    endloop
  endfacet
  facet normal -9.993623e-014 -5.621064e-014 1.000000e+000
    outer loop
      vertex   -2.348477e+001 4.000382e+002 1.500000e+000
      vertex   -3.600000e+001 4.243943e+002 1.500000e+000
      vertex   -2.378017e+001 3.997101e+002 1.500000e+000
    endloop
  endfacet
  facet normal 5.486328e-015 -4.021575e-015 1.000000e+000
    outer loop
      vertex   -2.378017e+001 3.997101e+002 1.500000e+000
      vertex   -3.600000e+001 4.243943e+002 1.500000e+000
      vertex   -2.412847e+001 3.992901e+002 1.500000e+000
    endloop
  endfacet
  facet normal 5.326014e-015 -4.097386e-015 1.000000e+000
    outer loop
      vertex   -2.412847e+001 3.992901e+002 1.500000e+000
      vertex   -3.600000e+001 4.243943e+002 1.500000e+000
      vertex   -2.446115e+001 3.988577e+002 1.500000e+000
    endloop
  endfacet
  facet normal 5.585727e-015 -3.980034e-015 1.000000e+000
    outer loop
      vertex   -2.446115e+001 3.988577e+002 1.500000e+000
      vertex   -3.600000e+001 4.243943e+002 1.500000e+000
      vertex   -2.477775e+001 3.984134e+002 1.500000e+000
    endloop
  endfacet
  facet normal 5.414880e-015 -4.053830e-015 1.000000e+000
    outer loop
      vertex   -2.477775e+001 3.984134e+002 1.500000e+000
      vertex   -3.600000e+001 4.243943e+002 1.500000e+000
      vertex   -2.507786e+001 3.979577e+002 1.500000e+000
    endloop
  endfacet
  facet normal 1.188221e-014 -1.381882e-015 1.000000e+000
    outer loop
      vertex   -2.507786e+001 3.979577e+002 1.500000e+000
      vertex   -3.600000e+001 4.243943e+002 1.500000e+000
      vertex   -4.000000e+001 3.900000e+002 1.500000e+000
    endloop
  endfacet
  facet normal 1.590391e-014 -8.877495e-015 1.000000e+000
    outer loop
      vertex   -2.536107e+001 3.974914e+002 1.500000e+000
      vertex   -4.000000e+001 3.900000e+002 1.500000e+000
      vertex   -2.562699e+001 3.970150e+002 1.500000e+000
    endloop
  endfacet
  facet normal 1.648382e-014 -1.001068e-014 1.000000e+000
    outer loop
      vertex   -2.536107e+001 3.974914e+002 1.500000e+000
      vertex   -2.507786e+001 3.979577e+002 1.500000e+000
      vertex   -4.000000e+001 3.900000e+002 1.500000e+000
    endloop
  endfacet
  facet normal 0.000000e+000 -0.000000e+000 1.000000e+000
    outer loop
      vertex   -4.000000e+001 3.900000e+002 1.500000e+000
      vertex   -3.600000e+001 4.243943e+002 1.500000e+000
      vertex   -6.000000e+001 3.900000e+002 1.500000e+000
    endloop
  endfacet
  facet normal 0.000000e+000 0.000000e+000 1.000000e+000
    outer loop
      vertex   -4.000000e+001 3.885000e+002 1.500000e+000
      vertex   -6.000000e+001 3.900000e+002 1.500000e+000
      vertex   -6.000000e+001 3.885000e+002 1.500000e+000
    endloop
  endfacet
  facet normal 0.000000e+000 -0.000000e+000 1.000000e+000
    outer loop
      vertex   -4.000000e+001 3.885000e+002 1.500000e+000
      vertex   -4.000000e+001 3.900000e+002 1.500000e+000
      vertex   -6.000000e+001 3.900000e+002 1.500000e+000
    endloop
  endfacet
  facet normal 0.000000e+000 -0.000000e+000 1.000000e+000
    outer loop
      vertex   -7.200000e+001 3.900000e+002 1.500000e+000
      vertex   -6.000000e+001 3.900000e+002 1.500000e+000
      vertex   -7.200000e+001 4.243943e+002 1.500000e+000
    endloop
  endfacet
  facet normal -0.000000e+000 0.000000e+000 1.000000e+000
    outer loop
      vertex   -7.200000e+001 4.243943e+002 1.500000e+000
      vertex   -6.000000e+001 3.900000e+002 1.500000e+000
      vertex   -3.600000e+001 4.243943e+002 1.500000e+000
    endloop
  endfacet
  facet normal 7.786520e-015 1.625830e-014 1.000000e+000
    outer loop
      vertex   -2.970553e+001 3.900000e+002 1.500000e+000
      vertex   -2.684129e+001 3.939819e+002 1.500000e+000
      vertex   -4.000000e+001 3.900000e+002 1.500000e+000
    endloop
  endfacet
  facet normal 4.829683e-014 -1.288131e-014 1.000000e+000
    outer loop
      vertex   -2.970553e+001 3.900000e+002 1.500000e+000
      vertex   -2.697759e+001 3.934536e+002 1.500000e+000
      vertex   -2.684129e+001 3.939819e+002 1.500000e+000
    endloop
  endfacet
  facet normal 4.501065e-014 -1.028562e-014 1.000000e+000
    outer loop
      vertex   -2.970553e+001 3.900000e+002 1.500000e+000
      vertex   -2.709445e+001 3.929207e+002 1.500000e+000
      vertex   -2.697759e+001 3.934536e+002 1.500000e+000
    endloop
  endfacet
  facet normal 4.259874e-014 -8.129376e-015 1.000000e+000
    outer loop
      vertex   -2.970553e+001 3.900000e+002 1.500000e+000
      vertex   -2.719168e+001 3.923838e+002 1.500000e+000
      vertex   -2.709445e+001 3.929207e+002 1.500000e+000
    endloop
  endfacet
  facet normal -2.433109e-013 2.933747e-013 1.000000e+000
    outer loop
      vertex   -2.970553e+001 3.900000e+002 1.500000e+000
      vertex   -2.723780e+001 3.920996e+002 1.500000e+000
      vertex   -2.719168e+001 3.923838e+002 1.500000e+000
    endloop
  endfacet
  facet normal 9.679250e-015 -3.973444e-015 1.000000e+000
    outer loop
      vertex   -2.970553e+001 3.900000e+002 1.500000e+000
      vertex   -2.728628e+001 3.918697e+002 1.500000e+000
      vertex   -2.723780e+001 3.920996e+002 1.500000e+000
    endloop
  endfacet
  facet normal 6.687261e-015 -1.021317e-016 1.000000e+000
    outer loop
      vertex   -2.970553e+001 3.900000e+002 1.500000e+000
      vertex   -2.735611e+001 3.916455e+002 1.500000e+000
      vertex   -2.728628e+001 3.918697e+002 1.500000e+000
    endloop
  endfacet
  facet normal 8.338914e-015 -2.460387e-015 1.000000e+000
    outer loop
      vertex   -2.970553e+001 3.900000e+002 1.500000e+000
      vertex   -2.744669e+001 3.914287e+002 1.500000e+000
      vertex   -2.735611e+001 3.916455e+002 1.500000e+000
    endloop
  endfacet
  facet normal 8.189404e-015 -2.224009e-015 1.000000e+000
    outer loop
      vertex   -2.970553e+001 3.900000e+002 1.500000e+000
      vertex   -2.755721e+001 3.912214e+002 1.500000e+000
      vertex   -2.744669e+001 3.914287e+002 1.500000e+000
    endloop
  endfacet
  facet normal 7.996075e-015 -1.883973e-015 1.000000e+000
    outer loop
      vertex   -2.970553e+001 3.900000e+002 1.500000e+000
      vertex   -2.768669e+001 3.910255e+002 1.500000e+000
      vertex   -2.755721e+001 3.912214e+002 1.500000e+000
    endloop
  endfacet
  facet normal 7.737771e-015 -1.375442e-015 1.000000e+000
    outer loop
      vertex   -2.970553e+001 3.900000e+002 1.500000e+000
      vertex   -2.783400e+001 3.908425e+002 1.500000e+000
      vertex   -2.768669e+001 3.910255e+002 1.500000e+000
    endloop
  endfacet
  facet normal 8.442013e-015 -2.939888e-015 1.000000e+000
    outer loop
      vertex   -2.970553e+001 3.900000e+002 1.500000e+000
      vertex   -2.799783e+001 3.906741e+002 1.500000e+000
      vertex   -2.783400e+001 3.908425e+002 1.500000e+000
    endloop
  endfacet
  facet normal 8.212806e-015 -2.359271e-015 1.000000e+000
    outer loop
      vertex   -2.970553e+001 3.900000e+002 1.500000e+000
      vertex   -2.817674e+001 3.905219e+002 1.500000e+000
      vertex   -2.799783e+001 3.906741e+002 1.500000e+000
    endloop
  endfacet
  facet normal 7.866858e-015 -1.345926e-015 1.000000e+000
    outer loop
      vertex   -2.970553e+001 3.900000e+002 1.500000e+000
      vertex   -2.836915e+001 3.903872e+002 1.500000e+000
      vertex   -2.817674e+001 3.905219e+002 1.500000e+000
    endloop
  endfacet
  facet normal 8.466825e-015 -3.416863e-015 1.000000e+000
    outer loop
      vertex   -2.970553e+001 3.900000e+002 1.500000e+000
      vertex   -2.857336e+001 3.902711e+002 1.500000e+000
      vertex   -2.836915e+001 3.903872e+002 1.500000e+000
    endloop
  endfacet
  facet normal 8.094650e-015 -1.862333e-015 1.000000e+000
    outer loop
      vertex   -2.970553e+001 3.900000e+002 1.500000e+000
      vertex   -2.878756e+001 3.901746e+002 1.500000e+000
      vertex   -2.857336e+001 3.902711e+002 1.500000e+000
    endloop
  endfacet
  facet normal 7.425426e-015 1.655482e-015 1.000000e+000
    outer loop
      vertex   -2.970553e+001 3.900000e+002 1.500000e+000
      vertex   -2.900986e+001 3.900987e+002 1.500000e+000
      vertex   -2.878756e+001 3.901746e+002 1.500000e+000
    endloop
  endfacet
  facet normal 8.907688e-015 -8.787698e-015 1.000000e+000
    outer loop
      vertex   -2.970553e+001 3.900000e+002 1.500000e+000
      vertex   -2.923831e+001 3.900440e+002 1.500000e+000
      vertex   -2.900986e+001 3.900987e+002 1.500000e+000
    endloop
  endfacet
  facet normal 8.952280e-015 -9.260694e-015 1.000000e+000
    outer loop
      vertex   -2.970553e+001 3.900000e+002 1.500000e+000
      vertex   -2.947088e+001 3.900110e+002 1.500000e+000
      vertex   -2.923831e+001 3.900440e+002 1.500000e+000
    endloop
  endfacet
  facet normal 1.410464e-014 -4.620723e-015 1.000000e+000
    outer loop
      vertex   -2.684129e+001 3.939819e+002 1.500000e+000
      vertex   -2.668572e+001 3.945048e+002 1.500000e+000
      vertex   -4.000000e+001 3.900000e+002 1.500000e+000
    endloop
  endfacet
  facet normal 1.432402e-014 -5.269100e-015 1.000000e+000
    outer loop
      vertex   -4.000000e+001 3.900000e+002 1.500000e+000
      vertex   -2.668572e+001 3.945048e+002 1.500000e+000
      vertex   -2.651108e+001 3.950217e+002 1.500000e+000
    endloop
  endfacet
  facet normal 1.439471e-014 -5.458976e-015 1.000000e+000
    outer loop
      vertex   -2.631762e+001 3.955319e+002 1.500000e+000
      vertex   -4.000000e+001 3.900000e+002 1.500000e+000
      vertex   -2.651108e+001 3.950217e+002 1.500000e+000
    endloop
  endfacet
  facet normal 1.490849e-014 -6.729748e-015 1.000000e+000
    outer loop
      vertex   -2.631762e+001 3.955319e+002 1.500000e+000
      vertex   -2.610559e+001 3.960346e+002 1.500000e+000
      vertex   -4.000000e+001 3.900000e+002 1.500000e+000
    endloop
  endfacet
  facet normal 1.502416e-014 -6.996072e-015 1.000000e+000
    outer loop
      vertex   -4.000000e+001 3.900000e+002 1.500000e+000
      vertex   -2.610559e+001 3.960346e+002 1.500000e+000
      vertex   -2.587527e+001 3.965292e+002 1.500000e+000
    endloop
  endfacet
  facet normal 1.571363e-014 -8.487622e-015 1.000000e+000
    outer loop
      vertex   -2.562699e+001 3.970150e+002 1.500000e+000
      vertex   -4.000000e+001 3.900000e+002 1.500000e+000
      vertex   -2.587527e+001 3.965292e+002 1.500000e+000
    endloop
  endfacet
  facet normal 1.260273e-014 -1.941232e-015 -1.000000e+000
    outer loop
      vertex   -1.901490e+001 4.027626e+002 -1.936973e-013
      vertex   1.776357e-014 4.200000e+002 1.248048e-014
      vertex   -2.688670e+000 4.074462e+002 2.965799e-015
    endloop
  endfacet
  facet normal 1.341762e-014 -2.840148e-015 -1.000000e+000
    outer loop
      vertex   -1.901490e+001 4.027626e+002 -1.936973e-013
      vertex   1.776357e-014 4.243943e+002 0.000000e+000
      vertex   1.776357e-014 4.200000e+002 1.248048e-014
    endloop
  endfacet
  facet normal -5.588236e-015 1.386653e-014 -1.000000e+000
    outer loop
      vertex   -1.901490e+001 4.027626e+002 -1.936973e-013
      vertex   -1.943641e+001 4.026314e+002 -1.931608e-013
      vertex   1.776357e-014 4.243943e+002 0.000000e+000
    endloop
  endfacet
  facet normal -1.044367e-014 1.820291e-014 -1.000000e+000
    outer loop
      vertex   1.776357e-014 4.243943e+002 0.000000e+000
      vertex   -1.943641e+001 4.026314e+002 -1.931608e-013
      vertex   -1.985165e+001 4.024815e+002 -1.915522e-013
    endloop
  endfacet
  facet normal -1.622318e-014 2.343880e-014 -1.000000e+000
    outer loop
      vertex   -2.025978e+001 4.023133e+002 -1.888749e-013
      vertex   1.776357e-014 4.243943e+002 0.000000e+000
      vertex   -1.985165e+001 4.024815e+002 -1.915522e-013
    endloop
  endfacet
  facet normal -2.326835e-014 2.990287e-014 -1.000000e+000
    outer loop
      vertex   -2.025978e+001 4.023133e+002 -1.888749e-013
      vertex   -2.065999e+001 4.021269e+002 -1.851342e-013
      vertex   1.776357e-014 4.243943e+002 0.000000e+000
    endloop
  endfacet
  facet normal -3.210894e-014 3.810531e-014 -1.000000e+000
    outer loop
      vertex   1.776357e-014 4.243943e+002 0.000000e+000
      vertex   -2.065999e+001 4.021269e+002 -1.851342e-013
      vertex   -2.105148e+001 4.019229e+002 -1.803374e-013
    endloop
  endfacet
  facet normal -4.361393e-014 4.888335e-014 -1.000000e+000
    outer loop
      vertex   -2.143347e+001 4.017017e+002 -1.744942e-013
      vertex   1.776357e-014 4.243943e+002 0.000000e+000
      vertex   -2.105148e+001 4.019229e+002 -1.803374e-013
    endloop
  endfacet
  facet normal -5.931535e-014 6.371352e-014 -1.000000e+000
    outer loop
      vertex   -2.143347e+001 4.017017e+002 -1.744942e-013
      vertex   -2.180520e+001 4.014635e+002 -1.676163e-013
      vertex   1.776357e-014 4.243943e+002 0.000000e+000
    endloop
  endfacet
  facet normal -8.219067e-014 8.546601e-014 -1.000000e+000
    outer loop
      vertex   1.776357e-014 4.243943e+002 0.000000e+000
      vertex   -2.180520e+001 4.014635e+002 -1.676163e-013
      vertex   -2.216593e+001 4.012091e+002 -1.597173e-013
    endloop
  endfacet
  facet normal 6.229084e-014 -1.133562e-013 -1.000000e+000
    outer loop
      vertex   -4.000000e+001 3.900000e+002 0.000000e+000
      vertex   -2.216593e+001 4.012091e+002 -1.597173e-013
      vertex   -2.251493e+001 4.009387e+002 -1.508130e-013
    endloop
  endfacet
  facet normal 4.960798e-014 -9.308317e-014 -1.000000e+000
    outer loop
      vertex   -2.285152e+001 4.006531e+002 -1.409213e-013
      vertex   -4.000000e+001 3.900000e+002 0.000000e+000
      vertex   -2.251493e+001 4.009387e+002 -1.508130e-013
    endloop
  endfacet
  facet normal 4.302209e-014 -8.248173e-014 -1.000000e+000
    outer loop
      vertex   -2.285152e+001 4.006531e+002 -1.409213e-013
      vertex   -2.317501e+001 4.003527e+002 -1.300617e-013
      vertex   -4.000000e+001 3.900000e+002 0.000000e+000
    endloop
  endfacet
  facet normal 3.899290e-014 -7.593358e-014 -1.000000e+000
    outer loop
      vertex   -4.000000e+001 3.900000e+002 0.000000e+000
      vertex   -2.317501e+001 4.003527e+002 -1.300617e-013
      vertex   -2.348477e+001 4.000382e+002 -1.182560e-013
    endloop
  endfacet
  facet normal -2.115614e-013 3.362899e-013 -1.000000e+000
    outer loop
      vertex   -2.378017e+001 3.997101e+002 -1.660822e-013
      vertex   -4.000000e+001 3.900000e+002 0.000000e+000
      vertex   -2.348477e+001 4.000382e+002 -1.182560e-013
    endloop
  endfacet
  facet normal -2.035935e-014 1.690437e-014 -1.000000e+000
    outer loop
      vertex   -2.378017e+001 3.997101e+002 -1.660822e-013
      vertex   -2.412847e+001 3.992901e+002 -1.660899e-013
      vertex   -4.000000e+001 3.900000e+002 0.000000e+000
    endloop
  endfacet
  facet normal -1.909456e-014 1.474357e-014 -1.000000e+000
    outer loop
      vertex   -4.000000e+001 3.900000e+002 0.000000e+000
      vertex   -2.412847e+001 3.992901e+002 -1.660899e-013
      vertex   -2.446115e+001 3.988577e+002 -1.661132e-013
    endloop
  endfacet
  facet normal -1.808589e-014 1.297408e-014 -1.000000e+000
    outer loop
      vertex   -2.477775e+001 3.984134e+002 -1.661520e-013
      vertex   -4.000000e+001 3.900000e+002 0.000000e+000
      vertex   -2.446115e+001 3.988577e+002 -1.661132e-013
    endloop
  endfacet
  facet normal -1.726643e-014 1.149145e-014 -1.000000e+000
    outer loop
      vertex   -2.477775e+001 3.984134e+002 -1.661520e-013
      vertex   -2.507786e+001 3.979577e+002 -1.662061e-013
      vertex   -4.000000e+001 3.900000e+002 0.000000e+000
    endloop
  endfacet
  facet normal -1.659101e-014 1.022492e-014 -1.000000e+000
    outer loop
      vertex   -4.000000e+001 3.900000e+002 0.000000e+000
      vertex   -2.507786e+001 3.979577e+002 -1.662061e-013
      vertex   -2.536107e+001 3.974914e+002 -1.662757e-013
    endloop
  endfacet
  facet normal -1.602804e-014 9.124810e-015 -1.000000e+000
    outer loop
      vertex   -2.562699e+001 3.970150e+002 -1.663605e-013
      vertex   -4.000000e+001 3.900000e+002 0.000000e+000
      vertex   -2.536107e+001 3.974914e+002 -1.662757e-013
    endloop
  endfacet
  facet normal -1.555478e-014 8.155155e-015 -1.000000e+000
    outer loop
      vertex   -2.562699e+001 3.970150e+002 -1.663605e-013
      vertex   -2.587527e+001 3.965292e+002 -1.664605e-013
      vertex   -4.000000e+001 3.900000e+002 0.000000e+000
    endloop
  endfacet
  facet normal -1.515451e-014 7.289243e-015 -1.000000e+000
    outer loop
      vertex   -4.000000e+001 3.900000e+002 0.000000e+000
      vertex   -2.587527e+001 3.965292e+002 -1.664605e-013
      vertex   -2.610559e+001 3.960346e+002 -1.665755e-013
    endloop
  endfacet
  facet normal -1.481466e-014 6.506763e-015 -1.000000e+000
    outer loop
      vertex   -2.631762e+001 3.955319e+002 -1.667053e-013
      vertex   -4.000000e+001 3.900000e+002 0.000000e+000
      vertex   -2.610559e+001 3.960346e+002 -1.665755e-013
    endloop
  endfacet
  facet normal -1.452566e-014 5.791952e-015 -1.000000e+000
    outer loop
      vertex   -2.631762e+001 3.955319e+002 -1.667053e-013
      vertex   -2.651108e+001 3.950217e+002 -1.668498e-013
      vertex   -4.000000e+001 3.900000e+002 0.000000e+000
    endloop
  endfacet
  facet normal -1.428010e-014 5.132335e-015 -1.000000e+000
    outer loop
      vertex   -4.000000e+001 3.900000e+002 0.000000e+000
      vertex   -2.651108e+001 3.950217e+002 -1.668498e-013
      vertex   -2.668572e+001 3.945048e+002 -1.670088e-013
    endloop
  endfacet
  facet normal -1.407219e-014 4.517860e-015 -1.000000e+000
    outer loop
      vertex   -2.684129e+001 3.939819e+002 -1.671821e-013
      vertex   -4.000000e+001 3.900000e+002 0.000000e+000
      vertex   -2.668572e+001 3.945048e+002 -1.670088e-013
    endloop
  endfacet
  facet normal -7.781157e-015 -1.627164e-014 -1.000000e+000
    outer loop
      vertex   -2.684129e+001 3.939819e+002 -1.671821e-013
      vertex   -2.970553e+001 3.900000e+002 -8.010289e-014
      vertex   -4.000000e+001 3.900000e+002 0.000000e+000
    endloop
  endfacet
  facet normal -4.817503e-014 1.278420e-014 -1.000000e+000
    outer loop
      vertex   -2.684129e+001 3.939819e+002 -1.671821e-013
      vertex   -2.697759e+001 3.934536e+002 -1.673695e-013
      vertex   -2.970553e+001 3.900000e+002 -8.010289e-014
    endloop
  endfacet
  facet normal -4.494348e-014 1.023167e-014 -1.000000e+000
    outer loop
      vertex   -2.970553e+001 3.900000e+002 -8.010289e-014
      vertex   -2.697759e+001 3.934536e+002 -1.673695e-013
      vertex   -2.709445e+001 3.929207e+002 -1.675706e-013
    endloop
  endfacet
  facet normal -4.694641e-014 8.903117e-015 -1.000000e+000
    outer loop
      vertex   -2.947088e+001 3.900110e+002 -8.191023e-014
      vertex   -2.709445e+001 3.929207e+002 -1.675706e-013
      vertex   -2.719168e+001 3.923838e+002 -1.677853e-013
    endloop
  endfacet
  facet normal 2.719594e-013 -2.974244e-013 -1.000000e+000
    outer loop
      vertex   -2.723780e+001 3.920996e+002 -9.579098e-014
      vertex   -2.947088e+001 3.900110e+002 -8.191023e-014
      vertex   -2.719168e+001 3.923838e+002 -1.677853e-013
    endloop
  endfacet
  facet normal -7.781157e-015 1.673506e-015 -1.000000e+000
    outer loop
      vertex   -2.723780e+001 3.920996e+002 -9.579098e-014
      vertex   -2.728628e+001 3.918697e+002 -9.579844e-014
      vertex   -2.947088e+001 3.900110e+002 -8.191023e-014
    endloop
  endfacet
  facet normal -7.781157e-015 1.673506e-015 -1.000000e+000
    outer loop
      vertex   -2.947088e+001 3.900110e+002 -8.191023e-014
      vertex   -2.728628e+001 3.918697e+002 -9.579844e-014
      vertex   -2.735611e+001 3.916455e+002 -9.563039e-014
    endloop
  endfacet
  facet normal -7.781157e-015 1.673506e-015 -1.000000e+000
    outer loop
      vertex   -2.744669e+001 3.914287e+002 -9.528832e-014
      vertex   -2.947088e+001 3.900110e+002 -8.191023e-014
      vertex   -2.735611e+001 3.916455e+002 -9.563039e-014
    endloop
  endfacet
  facet normal -7.781157e-015 1.673506e-015 -1.000000e+000
    outer loop
      vertex   -2.744669e+001 3.914287e+002 -9.528832e-014
      vertex   -2.755721e+001 3.912214e+002 -9.477524e-014
      vertex   -2.947088e+001 3.900110e+002 -8.191023e-014
    endloop
  endfacet
  facet normal -7.781157e-015 1.673506e-015 -1.000000e+000
    outer loop
      vertex   -2.947088e+001 3.900110e+002 -8.191023e-014
      vertex   -2.755721e+001 3.912214e+002 -9.477524e-014
      vertex   -2.768669e+001 3.910255e+002 -9.409569e-014
    endloop
  endfacet
  facet normal -7.781157e-015 1.673506e-015 -1.000000e+000
    outer loop
      vertex   -2.783400e+001 3.908425e+002 -9.325566e-014
      vertex   -2.947088e+001 3.900110e+002 -8.191023e-014
      vertex   -2.768669e+001 3.910255e+002 -9.409569e-014
    endloop
  endfacet
  facet normal -7.781157e-015 1.673506e-015 -1.000000e+000
    outer loop
      vertex   -2.783400e+001 3.908425e+002 -9.325566e-014
      vertex   -2.799783e+001 3.906741e+002 -9.226256e-014
      vertex   -2.947088e+001 3.900110e+002 -8.191023e-014
    endloop
  endfacet
  facet normal -7.781157e-015 1.673506e-015 -1.000000e+000
    outer loop
      vertex   -2.947088e+001 3.900110e+002 -8.191023e-014
      vertex   -2.799783e+001 3.906741e+002 -9.226256e-014
      vertex   -2.817674e+001 3.905219e+002 -9.112518e-014
    endloop
  endfacet
  facet normal -7.781157e-015 1.673506e-015 -1.000000e+000
    outer loop
      vertex   -2.836915e+001 3.903872e+002 -8.985355e-014
      vertex   -2.947088e+001 3.900110e+002 -8.191023e-014
      vertex   -2.817674e+001 3.905219e+002 -9.112518e-014
    endloop
  endfacet
  facet normal -7.781157e-015 1.673506e-015 -1.000000e+000
    outer loop
      vertex   -2.836915e+001 3.903872e+002 -8.985355e-014
      vertex   -2.857336e+001 3.902711e+002 -8.845889e-014
      vertex   -2.947088e+001 3.900110e+002 -8.191023e-014
    endloop
  endfacet
  facet normal -7.781157e-015 1.673506e-015 -1.000000e+000
    outer loop
      vertex   -2.947088e+001 3.900110e+002 -8.191023e-014
      vertex   -2.857336e+001 3.902711e+002 -8.845889e-014
      vertex   -2.878756e+001 3.901746e+002 -8.695352e-014
    endloop
  endfacet
  facet normal -7.781157e-015 1.673506e-015 -1.000000e+000
    outer loop
      vertex   -2.900986e+001 3.900987e+002 -8.535073e-014
      vertex   -2.947088e+001 3.900110e+002 -8.191023e-014
      vertex   -2.878756e+001 3.901746e+002 -8.695352e-014
    endloop
  endfacet
  facet normal -7.781157e-015 1.673506e-015 -1.000000e+000
    outer loop
      vertex   -2.900986e+001 3.900987e+002 -8.535073e-014
      vertex   -2.923831e+001 3.900440e+002 -8.366467e-014
      vertex   -2.947088e+001 3.900110e+002 -8.191023e-014
    endloop
  endfacet
  facet normal -3.328751e-014 3.871282e-014 -1.000000e+000
    outer loop
      vertex   1.776357e-014 4.243943e+002 0.000000e+000
      vertex   -2.216593e+001 4.012091e+002 -1.597173e-013
      vertex   -4.000000e+001 3.900000e+002 0.000000e+000
    endloop
  endfacet
  facet normal -0.000000e+000 0.000000e+000 -1.000000e+000
    outer loop
      vertex   -3.600000e+001 4.243943e+002 0.000000e+000
      vertex   -4.000000e+001 3.900000e+002 0.000000e+000
      vertex   -6.000000e+001 3.900000e+002 0.000000e+000
    endloop
  endfacet
  facet normal -0.000000e+000 -0.000000e+000 -1.000000e+000
    outer loop
      vertex   -7.200000e+001 4.243943e+002 0.000000e+000
      vertex   -6.000000e+001 3.900000e+002 0.000000e+000
      vertex   -7.200000e+001 3.900000e+002 0.000000e+000
    endloop
  endfacet
  facet normal 0.000000e+000 -0.000000e+000 -1.000000e+000
    outer loop
      vertex   -7.200000e+001 4.243943e+002 0.000000e+000
      vertex   -3.600000e+001 4.243943e+002 0.000000e+000
      vertex   -6.000000e+001 3.900000e+002 0.000000e+000
    endloop
  endfacet
  facet normal -6.570183e-015 -2.407399e-014 -1.000000e+000
    outer loop
      vertex   -2.970553e+001 3.900000e+002 -8.010289e-014
      vertex   -2.709445e+001 3.929207e+002 -1.675706e-013
      vertex   -2.947088e+001 3.900110e+002 -8.191023e-014
    endloop
  endfacet
  facet normal 0.000000e+000 0.000000e+000 -1.000000e+000
    outer loop
      vertex   -4.000000e+001 3.885000e+002 0.000000e+000
      vertex   -6.000000e+001 3.885000e+002 0.000000e+000
      vertex   -4.000000e+001 3.900000e+002 0.000000e+000
    endloop
  endfacet
  facet normal -0.000000e+000 0.000000e+000 -1.000000e+000
    outer loop
      vertex   -4.000000e+001 3.900000e+002 0.000000e+000
      vertex   -6.000000e+001 3.885000e+002 0.000000e+000
      vertex   -6.000000e+001 3.900000e+002 0.000000e+000
    endloop
  endfacet
  facet normal 0.000000e+000 -0.000000e+000 -1.000000e+000
    outer loop
      vertex   -3.600000e+001 4.243943e+002 0.000000e+000
      vertex   1.776357e-014 4.243943e+002 0.000000e+000
      vertex   -4.000000e+001 3.900000e+002 0.000000e+000
    endloop
  endfacet
  facet normal 3.538805e-015 -6.286181e-030 -1.000000e+000
    outer loop
      vertex   -2.688670e+000 4.074462e+002 2.965799e-015
      vertex   1.776357e-014 4.200000e+002 1.248048e-014
      vertex   0.000000e+000 4.100000e+002 1.248048e-014
    endloop
  endfacet
  facet normal 4.399437e-015 -9.060715e-016 -1.000000e+000
    outer loop
      vertex   -1.218298e+000 4.079151e+002 9.009740e-015
      vertex   0.000000e+000 4.100000e+002 1.248048e-014
      vertex   0.000000e+000 4.095823e+002 1.285890e-014
    endloop
  endfacet
  facet normal 4.399437e-015 -9.060715e-016 -1.000000e+000
    outer loop
      vertex   -9.669936e-003 4.093986e+002 1.298282e-014
      vertex   -1.218298e+000 4.079151e+002 9.009740e-015
      vertex   0.000000e+000 4.095823e+002 1.285890e-014
    endloop
  endfacet
  facet normal 4.399437e-015 -9.060715e-016 -1.000000e+000
    outer loop
      vertex   -9.669936e-003 4.093986e+002 1.298282e-014
      vertex   -3.857288e-002 4.092169e+002 1.302028e-014
      vertex   -1.218298e+000 4.079151e+002 9.009740e-015
    endloop
  endfacet
  facet normal 4.399437e-015 -9.060715e-016 -1.000000e+000
    outer loop
      vertex   -1.218298e+000 4.079151e+002 9.009740e-015
      vertex   -3.857288e-002 4.092169e+002 1.302028e-014
      vertex   -8.638941e-002 4.090393e+002 1.297088e-014
    endloop
  endfacet
  facet normal 4.399437e-015 -9.060715e-016 -1.000000e+000
    outer loop
      vertex   -1.525911e-001 4.088677e+002 1.283515e-014
      vertex   -1.218298e+000 4.079151e+002 9.009740e-015
      vertex   -8.638941e-002 4.090393e+002 1.297088e-014
    endloop
  endfacet
  facet normal 4.399437e-015 -9.060715e-016 -1.000000e+000
    outer loop
      vertex   -1.525911e-001 4.088677e+002 1.283515e-014
      vertex   -2.364463e-001 4.087039e+002 1.261460e-014
      vertex   -1.218298e+000 4.079151e+002 9.009740e-015
    endloop
  endfacet
  facet normal 4.399437e-015 -9.060715e-016 -1.000000e+000
    outer loop
      vertex   -1.218298e+000 4.079151e+002 9.009740e-015
      vertex   -2.364463e-001 4.087039e+002 1.261460e-014
      vertex   -3.370283e-001 4.085499e+002 1.231166e-014
    endloop
  endfacet
  facet normal 4.399437e-015 -9.060715e-016 -1.000000e+000
    outer loop
      vertex   -4.532256e-001 4.084072e+002 1.192969e-014
      vertex   -1.218298e+000 4.079151e+002 9.009740e-015
      vertex   -3.370283e-001 4.085499e+002 1.231166e-014
    endloop
  endfacet
  facet normal 4.399437e-015 -9.060715e-016 -1.000000e+000
    outer loop
      vertex   -4.532256e-001 4.084072e+002 1.192969e-014
      vertex   -5.837540e-001 4.082776e+002 1.147291e-014
      vertex   -1.218298e+000 4.079151e+002 9.009740e-015
    endloop
  endfacet
  facet normal 4.399437e-015 -9.060715e-016 -1.000000e+000
    outer loop
      vertex   -1.218298e+000 4.079151e+002 9.009740e-015
      vertex   -5.837540e-001 4.082776e+002 1.147291e-014
      vertex   -7.271710e-001 4.081624e+002 1.094635e-014
    endloop
  endfacet
  facet normal 4.399437e-015 -9.060715e-016 -1.000000e+000
    outer loop
      vertex   -8.818917e-001 4.080628e+002 1.035585e-014
      vertex   -1.218298e+000 4.079151e+002 9.009740e-015
      vertex   -7.271710e-001 4.081624e+002 1.094635e-014
    endloop
  endfacet
  facet normal 4.399437e-015 -9.060715e-016 -1.000000e+000
    outer loop
      vertex   -8.818917e-001 4.080628e+002 1.035585e-014
      vertex   -1.046206e+000 4.079801e+002 9.707927e-015
      vertex   -1.218298e+000 4.079151e+002 9.009740e-015
    endloop
  endfacet
  facet normal 0.000000e+000 0.000000e+000 -1.000000e+000
    outer loop
      vertex   1.500000e+000 4.100000e+002 1.248048e-014
      vertex   0.000000e+000 4.100000e+002 1.248048e-014
      vertex   1.500000e+000 4.200000e+002 1.248048e-014
    endloop
  endfacet
  facet normal -0.000000e+000 0.000000e+000 -1.000000e+000
    outer loop
      vertex   1.500000e+000 4.200000e+002 1.248048e-014
      vertex   0.000000e+000 4.100000e+002 1.248048e-014
      vertex   1.776357e-014 4.200000e+002 1.248048e-014
    endloop
  endfacet
  facet normal 4.399437e-015 -9.060715e-016 -1.000000e+000
    outer loop
      vertex   -2.688670e+000 4.074462e+002 2.965799e-015
      vertex   0.000000e+000 4.100000e+002 1.248048e-014
      vertex   -1.218298e+000 4.079151e+002 9.009740e-015
    endloop
  endfacet
endsolid
